<svg width="21" height="13" viewBox="0 0 21 13" fill="none" xmlns="http://www.w3.org/2000/svg">
<path d="M7.824 9.52H2.96L2.064 12H0.528L4.56 0.912H6.24L10.256 12H8.72L7.824 9.52ZM7.408 8.336L5.392 2.704L3.376 8.336H7.408ZM11.4693 7.584C11.4693 6.688 11.6506 5.904 12.0133 5.232C12.3759 4.54933 12.8719 4.02133 13.5013 3.648C14.1413 3.27467 14.8506 3.088 15.6293 3.088C16.3973 3.088 17.0639 3.25333 17.6293 3.584C18.1946 3.91467 18.6159 4.33067 18.8933 4.832V3.232H20.3653V12H18.8933V10.368C18.6053 10.88 18.1733 11.3067 17.5973 11.648C17.0319 11.9787 16.3706 12.144 15.6133 12.144C14.8346 12.144 14.1306 11.952 13.5013 11.568C12.8719 11.184 12.3759 10.6453 12.0133 9.952C11.6506 9.25867 11.4693 8.46933 11.4693 7.584ZM18.8933 7.6C18.8933 6.93867 18.7599 6.36267 18.4933 5.872C18.2266 5.38133 17.8639 5.008 17.4053 4.752C16.9573 4.48533 16.4613 4.352 15.9173 4.352C15.3733 4.352 14.8773 4.48 14.4293 4.736C13.9813 4.992 13.6239 5.36533 13.3573 5.856C13.0906 6.34667 12.9573 6.92267 12.9573 7.584C12.9573 8.256 13.0906 8.84267 13.3573 9.344C13.6239 9.83467 13.9813 10.2133 14.4293 10.48C14.8773 10.736 15.3733 10.864 15.9173 10.864C16.4613 10.864 16.9573 10.736 17.4053 10.48C17.8639 10.2133 18.2266 9.83467 18.4933 9.344C18.7599 8.84267 18.8933 8.26133 18.8933 7.6Z" fill="#212429"/>
</svg>
