<svg width="406" height="13" viewBox="0 0 406 13" fill="none" xmlns="http://www.w3.org/2000/svg">
<path d="M0 8L188 8.00002" stroke="#BBBBBC"/>
<path d="M217 8L406 8.00002" stroke="#BBBBBC"/>
<path d="M204.505 4.2825C205.06 4.2825 205.56 4.375 206.005 4.56C206.45 4.745 206.83 5.0075 207.145 5.3475C207.46 5.6875 207.7 6.1 207.865 6.585C208.035 7.065 208.12 7.6025 208.12 8.1975C208.12 8.7975 208.035 9.3375 207.865 9.8175C207.7 10.2975 207.46 10.7075 207.145 11.0475C206.83 11.3875 206.45 11.65 206.005 11.835C205.56 12.015 205.06 12.105 204.505 12.105C203.945 12.105 203.44 12.015 202.99 11.835C202.545 11.65 202.165 11.3875 201.85 11.0475C201.535 10.7075 201.292 10.2975 201.122 9.8175C200.957 9.3375 200.875 8.7975 200.875 8.1975C200.875 7.6025 200.957 7.065 201.122 6.585C201.292 6.1 201.535 5.6875 201.85 5.3475C202.165 5.0075 202.545 4.745 202.99 4.56C203.44 4.375 203.945 4.2825 204.505 4.2825ZM204.505 11.0625C205.255 11.0625 205.815 10.8125 206.185 10.3125C206.555 9.8075 206.74 9.105 206.74 8.205C206.74 7.3 206.555 6.595 206.185 6.09C205.815 5.585 205.255 5.3325 204.505 5.3325C204.125 5.3325 203.792 5.3975 203.507 5.5275C203.227 5.6575 202.992 5.845 202.802 6.09C202.617 6.335 202.477 6.6375 202.382 6.9975C202.292 7.3525 202.247 7.755 202.247 8.205C202.247 9.105 202.432 9.8075 202.802 10.3125C203.177 10.8125 203.745 11.0625 204.505 11.0625Z" fill="#BBBBBC"/>
</svg>
