<svg width="603" height="427" viewBox="0 0 603 427" fill="none" xmlns="http://www.w3.org/2000/svg">
<g clip-path="url(#clip0)">
<path d="M341.991 93.3611C342.154 91.6945 342.276 90.2413 342.363 89.0523C342.442 87.9445 342.195 86.8377 341.653 85.8681C341.11 84.8986 340.296 84.1085 339.309 83.5951L338.953 83.4122C335.554 81.6745 329.742 79.2914 321.482 77.8687C316.607 77.0399 311.669 76.6319 306.724 76.6492C300.816 76.6321 294.925 77.2626 289.156 78.5292C284.007 79.6333 279.011 81.353 274.275 83.651C273.257 84.1529 272.413 84.9466 271.85 85.9306C271.287 86.9146 271.031 88.0441 271.115 89.1743C271.201 90.3226 271.318 91.7148 271.476 93.29C267.264 93.8981 263.241 95.4343 259.697 97.7872C256.154 100.14 253.179 103.251 250.989 106.894C248.799 110.536 247.448 114.62 247.034 118.849C246.621 123.078 247.155 127.345 248.598 131.343C250.04 135.34 252.356 138.966 255.377 141.959C258.397 144.952 262.047 147.236 266.061 148.647C270.076 150.057 274.354 150.558 278.586 150.112C282.818 149.667 286.898 148.287 290.53 146.073C293.449 148.884 297.032 150.911 300.947 151.967L301.187 152.023L302.55 173.872C289.583 174.38 279.649 177.119 279.649 180.437C279.649 184.105 291.777 187.083 306.734 187.083C321.691 187.083 333.818 184.105 333.818 180.437C333.818 177.068 323.604 174.284 310.367 173.831L312.205 152.043C316.184 151.056 319.839 149.057 322.815 146.241C326.446 148.403 330.509 149.737 334.716 150.148C338.923 150.559 343.169 150.037 347.15 148.618C351.131 147.2 354.749 144.92 357.744 141.943C360.74 138.966 363.04 135.364 364.479 131.396C365.918 127.428 366.461 123.191 366.068 118.989C365.676 114.787 364.358 110.723 362.21 107.089C360.061 103.455 357.134 100.34 353.639 97.9664C350.144 95.5932 346.166 94.0206 341.991 93.3611ZM275.563 141.764C270.471 141.77 265.565 139.854 261.829 136.4C258.092 132.946 255.802 128.21 255.415 123.141C255.029 118.072 256.576 113.044 259.746 109.066C262.916 105.088 267.475 102.453 272.509 101.689C274.26 113.244 277.817 128.619 284.988 139.432C282.084 140.967 278.848 141.768 275.563 141.764ZM337.411 141.764C334.273 141.768 331.178 141.039 328.373 139.635C335.605 128.817 339.172 113.386 340.918 101.765C345.891 102.639 350.356 105.342 353.431 109.342C356.506 113.342 357.967 118.347 357.527 123.369C357.087 128.392 354.776 133.068 351.052 136.473C347.328 139.879 342.461 141.766 337.411 141.764Z" fill="#FCC949"/>
<path d="M473.143 312.318C473.143 312.318 466.359 317.603 452.333 318.726C452.068 316.287 451.86 313.988 451.707 311.831C458.384 313.441 465.148 313.578 473.143 312.318Z" fill="#C9063E"/>
<g opacity="0.76">
<path opacity="0.76" d="M209.638 175.467C209.999 174.71 212.498 172.373 212.498 172.373L206.701 170.122L204.406 174.573L209.638 175.467Z" fill="#FFE08E"/>
<path opacity="0.76" d="M246.825 200.111C247.187 199.354 249.686 197.017 249.686 197.017L243.889 194.766L241.594 199.217L246.825 200.111Z" fill="#FFE08E"/>
<path opacity="0.76" d="M244.062 148.878C244.856 149.167 247.416 151.418 247.416 151.418L249.121 145.443L244.465 143.578L244.062 148.878Z" fill="#FFE08E"/>
<path opacity="0.76" d="M273.93 158.735L276.739 155.61C276.739 155.61 270.485 153.939 269.258 154.503C269.029 157.089 269.706 158.456 269.706 158.456C269.706 158.456 272.454 157.953 273.93 158.735Z" fill="#AAE89C"/>
<path opacity="0.76" d="M233.51 138.898L235.546 136.632C235.546 136.632 231.001 135.413 230.111 135.829C229.975 136.798 230.087 137.786 230.437 138.7C230.437 138.7 232.442 138.334 233.51 138.898Z" fill="#B2B2ED"/>
<path opacity="0.76" d="M260.109 185.559L259.397 180.686L254.648 180.986L256.211 186.051L260.109 185.559Z" fill="#FFAEBA"/>
<path opacity="0.76" d="M256.576 147.77L260.424 145.794L258.816 141.942L255.055 144.686L256.576 147.77Z" fill="#FFAEBA"/>
<path opacity="0.76" d="M204.33 157.282L204.396 152.963L200.238 152.557L200.885 157.165L204.33 157.282Z" fill="#FFAEBA"/>
<path opacity="0.76" d="M275.4 175.574L275.207 173.654L277.838 174.782L275.4 175.574Z" fill="#FFE08E"/>
<path opacity="0.76" d="M222.482 156.184L222.289 154.264L224.92 155.392L222.482 156.184Z" fill="#FFE08E"/>
<path opacity="0.76" d="M238.131 148.365L236.223 148.903L236.894 146.043L238.131 148.365Z" fill="#FFAEBA"/>
<path opacity="0.76" d="M250.197 160.89L251.673 162.135L248.996 163.161L250.197 160.89Z" fill="#B2B2ED"/>
<path opacity="0.76" d="M281.111 146.591L282.587 147.836L279.91 148.858L281.111 146.591Z" fill="#B2B2ED"/>
<path opacity="0.76" d="M233.108 200.477L235.118 196.382L230.497 197.728L229.551 201.94L233.108 200.477Z" fill="#AAE89C"/>
<path opacity="0.76" d="M297.152 168.887L298.664 165.808L295.193 166.819L294.48 169.985L297.152 168.887Z" fill="#AAE89C"/>
<path opacity="0.76" d="M235.834 174.096L229.004 169.766L230.48 178.15L237.722 180.625L235.834 174.096Z" fill="#AAE89C"/>
</g>
<g opacity="0.76">
<path opacity="0.76" d="M406.676 195.116C406.08 195.711 402.945 197.088 402.945 197.088L407.668 201.153L411.312 197.713L406.676 195.116Z" fill="#FFE08E"/>
<path opacity="0.76" d="M379.749 159.548C379.153 160.143 376.023 161.52 376.023 161.52L380.741 165.585L384.385 162.145L379.749 159.548Z" fill="#FFE08E"/>
<path opacity="0.76" d="M365.366 208.805C364.72 208.271 363.051 205.284 363.051 205.284L359.488 210.365L363.259 213.668L365.366 208.805Z" fill="#FFE08E"/>
<path opacity="0.76" d="M340.467 189.629L336.777 191.661C336.777 191.661 342.126 195.309 343.47 195.182C344.543 192.82 344.36 191.305 344.36 191.305C344.36 191.305 341.597 190.853 340.467 189.629Z" fill="#AAE89C"/>
<path opacity="0.76" d="M372.018 221.711L369.336 223.175C369.336 223.175 373.224 225.827 374.196 225.715C374.648 224.847 374.87 223.878 374.842 222.9C374.842 222.9 372.832 222.6 372.018 221.711Z" fill="#B2B2ED"/>
<path opacity="0.76" d="M362.404 168.892L361.457 173.719L366.037 175.01L366.246 169.715L362.404 168.892Z" fill="#FFAEBA"/>
<path opacity="0.76" d="M353.195 205.71L348.91 206.305L349.144 210.466L353.607 209.125L353.195 205.71Z" fill="#FFAEBA"/>
<path opacity="0.76" d="M405.641 214.023L404.145 218.078L407.936 219.836L408.857 215.273L405.641 214.023Z" fill="#FFAEBA"/>
<path opacity="0.76" d="M344.664 173.252L344.206 175.127L342.094 173.191L344.664 173.252Z" fill="#FFE08E"/>
<path opacity="0.76" d="M388.156 209.054L387.698 210.929L385.586 208.993L388.156 209.054Z" fill="#FFE08E"/>
<path opacity="0.76" d="M370.793 211.249L372.773 211.381L371.19 213.856L370.793 211.249Z" fill="#FFAEBA"/>
<path opacity="0.76" d="M363.564 195.442L362.582 193.78L365.447 193.699L363.564 195.442Z" fill="#B2B2ED"/>
<path opacity="0.76" d="M329.658 198.709L328.676 197.042L331.541 196.961L329.658 198.709Z" fill="#B2B2ED"/>
<path opacity="0.76" d="M392.827 163.745L389.57 166.946L394.38 167.206L396.67 163.542L392.827 163.745Z" fill="#AAE89C"/>
<path opacity="0.76" d="M321.921 172.363L319.473 174.766L323.086 174.959L324.806 172.21L321.921 172.363Z" fill="#AAE89C"/>
<path opacity="0.76" d="M381.504 187.738L386.507 194.085L387.901 185.686L381.886 180.95L381.504 187.738Z" fill="#AAE89C"/>
</g>
<path d="M94.0788 201C93.2493 201.483 92.4248 201.94 91.6055 202.362L94.0788 201Z" fill="url(#paint0_linear)"/>
<path d="M100.764 218.52C79.054 230.054 55.0891 239.231 44.7836 241.304C27.7806 244.734 26.7883 252.605 22.2487 252.798C16.9255 253.031 22.4574 244.129 27.9842 240.095C3.41372 235.257 -0.886627 229.206 0.136295 227.595C1.15922 225.984 2.17196 228.804 12.6353 229.409C2.11598 223.886 5.62242 222.001 11.1085 224.272C13.2972 225.158 15.6496 225.568 18.0094 225.476C18.0094 225.476 13.1188 225.105 14.4827 223.302C16.5641 220.532 19.0018 228.601 46.4528 222.148C58.6668 219.282 76.0412 210.848 91.6242 202.362C94.3523 207.922 97.4043 213.317 100.764 218.52Z" fill="#F4B3BF"/>
<path d="M397.645 285.22L388.265 287.299C388.231 287.145 388.209 286.988 388.199 286.831H388.225C388.484 286.613 390.952 284.712 396.367 285.109C396.78 285.119 397.202 285.159 397.645 285.22Z" fill="#C9063E"/>
<path d="M125.538 267.213C125.807 271.583 125.834 275.965 125.62 280.338C113.95 278.483 111.711 275.145 111.711 275.145C117.014 273.773 120.963 270.368 125.548 267.198L125.538 267.213Z" fill="#F4B322"/>
<path d="M44.4568 361.621C44.4568 361.621 37.8714 356.321 32.6856 361.57C27.4997 366.819 12.2831 396.66 14.675 400.842C17.0669 405.024 42.3855 375.858 46.6502 368.221C45.9886 363.78 44.4568 361.621 44.4568 361.621Z" fill="#515151"/>
<path d="M59.6709 364.756C58.1445 368.545 57.1528 372.528 56.7242 376.59L56.5105 376.717C56.5105 376.717 40.6374 370.569 39.0037 368.938C37.6195 367.556 38.3116 364.913 39.93 363.989C40.147 363.864 40.3875 363.786 40.6362 363.759C40.8849 363.732 41.1365 363.757 41.3753 363.831C46.8512 365.508 59.6709 364.756 59.6709 364.756Z" fill="#F4B3BF"/>
<path d="M187.222 344.197C187.222 344.197 178.963 342.388 176.668 349.395C174.372 356.402 174.082 389.887 178.092 392.585C182.103 395.283 191.731 357.881 192.133 349.151C189.558 345.447 187.222 344.197 187.222 344.197Z" fill="#515151"/>
<path d="M204.553 343.415L189.876 352.993C189.876 352.993 187.051 353.343 185.682 351.174C185.275 350.523 185.129 349.744 185.272 348.99C185.416 348.237 185.838 347.565 186.456 347.109C192.247 342.719 201.769 333.832 201.769 333.832C201.743 336.555 202.914 340.092 204.553 343.415Z" fill="#F4B3BF"/>
<path d="M413.121 176.733L412.658 176.453C412.658 176.453 406.389 180.203 402.276 190.782C383.655 171.555 366.53 147.862 358.311 137.699C337.751 126.739 350.998 117.436 354.805 114.072C358.611 110.708 359.583 111.989 365.853 115.83C373.915 116.211 369.36 121.846 370.713 129.117C375.579 143.995 395.243 162.409 413.121 176.733Z" fill="#F4B3BF"/>
<path d="M427.121 187.464C428.454 188.445 429.742 189.38 430.969 190.264C429.737 189.38 428.449 188.445 427.121 187.464Z" fill="#F4B3BF"/>
<path d="M432.226 191.163L430.969 190.264L432.226 191.163Z" fill="#F4B3BF"/>
<path d="M441.498 197.611C437.768 199.222 432.338 202.875 425.655 211.097C423.316 214.01 421.132 217.045 419.111 220.187C419.111 220.187 406.444 209.445 399.039 205.34C399.422 200.356 400.513 195.453 402.281 190.777C406.393 180.198 412.663 176.448 412.663 176.448L413.126 176.728C415.162 178.369 417.197 179.959 419.177 181.479L421.299 183.11L421.92 183.577L423.793 184.99L423.854 185.035C424.592 185.589 425.325 186.133 426.042 186.661L427.126 187.459C428.923 188.78 430.633 190 432.215 191.158L433.162 191.834L433.228 191.885L434.058 192.474H434.083L434.867 193.028L437.472 194.847L438.205 195.355L439.325 196.128L440.343 196.813L441.498 197.611Z" fill="#DD124C"/>
<path d="M440.338 196.829L439.32 196.143L440.338 196.829Z" fill="#DD124C"/>
<path d="M154.435 180.249C154.842 181.773 155.31 183.44 155.824 185.188C154.762 183.771 154.266 182.01 154.435 180.249Z" fill="url(#paint1_linear)"/>
<path d="M257.409 142.15C252.671 146.215 223.821 169.309 197.673 184.832C195.53 172.129 189.25 164.95 189.25 164.95C206.314 157.597 226.793 146.657 242.793 131.785C244.121 124.773 244.691 119.275 250.936 119.082C255.114 116.43 263.659 110.363 266.122 123.06C268.585 135.758 266.707 140.372 257.409 142.15Z" fill="#F4B3BF"/>
<path d="M198.35 195.081C192.518 198.216 183.378 201.803 176.059 204.039C168.365 185.554 160.369 179.04 156.074 176.773C167.39 173.596 178.475 169.649 189.25 164.96C189.25 164.96 195.531 172.15 197.673 184.842C198.239 188.224 198.465 191.654 198.35 195.081Z" fill="#FCC963"/>
<path d="M260.361 306.653C253.918 322.74 225.414 344.761 211.536 352.932C209.454 351.504 206.63 347.632 204.554 343.415C202.915 340.092 201.744 336.555 201.77 333.832C201.772 333.432 201.805 333.033 201.867 332.638C212.523 325.463 220.951 314.346 228.142 304.691C205.337 298.752 180.553 300.484 169.148 300.484C164.934 328.197 156.512 344.035 146.099 362.103C116.852 389.074 69.7619 386.6 57.3698 386.6C56.4436 383.927 56.352 380.309 56.7235 376.61C57.1521 372.548 58.1438 368.566 59.6701 364.776C59.9704 364.07 60.2757 363.425 60.5913 362.85C73.7264 361.834 101.238 353.445 109.91 348.247C122.043 320.992 125.03 295.235 125.621 280.358C125.835 275.985 125.808 271.603 125.539 267.233C128.241 265.282 131.185 263.69 134.298 262.497C140.115 260.368 147.616 259.688 158.67 262.584C178.008 267.665 192.899 265.897 200.579 264.21C201.088 264.342 237.603 273.559 246.468 277.985C255.333 282.411 266.804 290.571 260.361 306.653Z" fill="#5975FF"/>
<path d="M532.545 387.367C532.545 387.367 539.13 382.072 544.311 387.321C549.492 392.57 564.719 422.406 562.327 426.593C559.935 430.78 534.616 401.604 530.352 393.972C531.013 389.526 532.545 387.367 532.545 387.367Z" fill="#515151"/>
<path d="M537.999 394.694C536.366 396.325 520.498 402.473 520.498 402.473L520.284 402.346C519.853 398.283 518.859 394.298 517.332 390.507C517.332 390.507 530.152 391.259 535.653 389.587C535.892 389.513 536.143 389.489 536.391 389.515C536.64 389.541 536.881 389.618 537.098 389.74C538.691 390.67 539.383 393.312 537.999 394.694Z" fill="#F4B3BF"/>
<path d="M389.774 369.944C389.774 369.944 398.039 368.14 400.334 375.147C402.63 382.154 402.92 415.639 398.909 418.337C394.899 421.035 385.25 383.627 384.863 374.883C387.443 371.199 389.774 369.944 389.774 369.944Z" fill="#515151"/>
<path d="M391.32 376.925C389.951 379.095 387.126 378.744 387.126 378.744L372.449 369.161C374.088 365.838 375.258 362.307 375.233 359.583C375.233 359.583 384.755 368.47 390.546 372.855C391.165 373.312 391.588 373.984 391.732 374.739C391.875 375.493 391.728 376.274 391.32 376.925Z" fill="#F4B3BF"/>
<path d="M519.639 412.336C507.241 412.336 460.151 414.81 430.904 387.839C420.496 369.771 412.074 353.933 407.855 326.22C396.45 326.22 371.666 324.487 348.861 330.427C356.052 340.082 364.48 351.214 375.137 358.374C375.199 358.769 375.231 359.168 375.233 359.568C375.233 362.291 374.088 365.823 372.45 369.146C370.378 373.363 367.549 377.24 365.472 378.668C351.589 370.497 323.085 348.476 316.642 332.389C310.199 316.302 321.599 308.136 330.525 303.685C339.451 299.234 376.414 289.91 376.414 289.91L388.267 287.283L397.646 285.205H397.743C402.588 285.855 409.448 288.254 418.771 294.666C430.415 302.654 439.326 307.964 448.008 310.758C449.245 311.16 450.472 311.505 451.703 311.8C451.856 313.954 452.065 316.253 452.329 318.695C454.385 337.758 459.363 356.393 467.088 373.947C475.739 379.145 503.272 387.56 516.407 388.551C516.748 389.176 517.055 389.819 517.328 390.476C518.855 394.268 519.849 398.252 520.28 402.316C520.677 406.05 520.565 409.663 519.639 412.336Z" fill="#CAE9FF"/>
<path d="M206.349 262.548C204.473 263.228 202.549 263.771 200.594 264.174C192.914 265.861 178.023 267.609 158.684 262.548C147.631 259.652 140.129 260.333 134.312 262.462C133.681 262.691 133.071 262.94 132.48 263.204C132.282 263.285 132.083 263.376 131.89 263.468C131.381 263.702 130.897 263.946 130.424 264.195L129.981 264.433L129.472 264.723C128.785 265.109 128.119 265.516 127.467 265.932L126.546 266.532C126.215 266.75 125.89 266.974 125.564 267.198C120.984 270.368 117.029 273.773 111.727 275.144C115.711 269.657 129.065 242.015 130.088 212.367C130.088 211.859 130.124 211.351 130.134 210.842C130.347 203.103 129.52 195.37 127.676 187.85C126.999 185.31 128.964 183.069 131.427 181.362C131.798 181.102 132.185 180.853 132.572 180.62C134.559 179.456 136.657 178.494 138.837 177.749C138.88 178.285 139.054 178.802 139.344 179.254C139.635 179.707 140.032 180.082 140.501 180.345C144.704 182.688 151.763 183.994 152.842 177.297C152.868 176.717 152.702 176.146 152.369 175.671L152.878 175.589C154.001 175.806 155.08 176.209 156.068 176.783C160.364 179.05 168.359 185.564 176.054 204.049C177.448 207.392 178.832 211.137 180.181 215.314C192.451 253.275 206.349 262.548 206.349 262.548Z" fill="#FFD984"/>
<path d="M473.145 312.318C465.15 313.578 458.387 313.441 451.705 311.81C451.196 311.693 450.732 311.571 450.249 311.434C449.506 311.231 448.758 311.012 448.01 310.769C439.328 307.974 430.417 302.664 418.773 294.677C409.459 288.284 402.589 285.866 397.744 285.215H397.647C397.205 285.154 396.782 285.114 396.375 285.083C390.955 284.687 388.487 286.608 388.232 286.806H388.207C388.207 286.618 388.599 284.296 397.459 264.754C405.246 244.495 412.589 230.202 419.113 220.177C428.747 205.34 436.605 199.715 441.506 197.601C445.068 196.077 447.038 196.392 447.038 196.392C447.038 196.392 447.19 196.341 447.496 196.275C447.292 196.544 447.094 196.783 446.9 197.042C445.236 202.449 455.944 199.684 459.063 197.52C459.114 197.286 459.17 197.057 459.221 196.834L459.42 196.874C474.417 205.147 456.921 260.582 455.348 278.823C453.776 297.065 464.178 306.008 473.145 312.318Z" fill="#F12758"/>
<path d="M136.083 158.857C136.043 158.722 136.007 158.584 135.977 158.446C136.002 158.532 136.038 158.674 136.083 158.857Z" stroke="black" stroke-linecap="round" stroke-linejoin="round"/>
<path d="M135.95 158.361C135.949 158.337 135.949 158.312 135.95 158.288V158.288V158.361Z" stroke="black" stroke-linecap="round" stroke-linejoin="round"/>
<path d="M161.596 153.817C161.596 153.507 161.525 153.202 161.469 152.892L159.723 143.344L159.687 143.146C159.319 141.154 158.485 139.275 157.255 137.664C156.567 137.749 155.876 137.798 155.183 137.811C149.499 137.811 145.031 136.515 143.733 138.38C142.761 139.772 143.473 145.443 143.891 148.197C143.927 148.31 143.922 148.433 143.877 148.543C143.831 148.654 143.749 148.745 143.643 148.8C143.538 148.856 143.416 148.873 143.3 148.848C143.183 148.823 143.079 148.758 143.005 148.664L142.552 148.243C141.534 147.486 140.745 146.866 139.565 147.099C138.084 147.389 136.934 148.146 137.02 150.87C137.183 155.895 142.109 153.537 142.109 153.537C142.109 153.537 141.875 160.925 137.117 163.923C137.672 167.089 138.308 171.641 138.807 177.729C138.85 178.264 139.024 178.781 139.314 179.234C139.604 179.687 140.002 180.061 140.471 180.325C144.674 182.668 151.733 183.973 152.812 177.276C152.838 176.697 152.672 176.125 152.339 175.65C152.135 175.28 151.901 174.919 151.738 174.594C150.695 172.546 149.799 170.427 149.056 168.252C149.695 168.232 150.331 168.164 150.959 168.049C153.852 167.523 156.478 166.028 158.405 163.811C154.963 161.908 152.271 158.892 150.771 155.26C150.73 155.14 150.726 155.011 150.758 154.888C150.79 154.766 150.857 154.656 150.952 154.571C151.046 154.487 151.163 154.432 151.288 154.413C151.414 154.395 151.542 154.414 151.657 154.467C152.121 154.693 152.603 154.881 153.097 155.031C156.583 156.124 160.67 155.646 161.504 155.539C161.551 155.532 161.6 155.532 161.647 155.539C161.665 154.969 161.643 154.399 161.581 153.832L161.596 153.817Z" fill="#F4B3BF"/>
<path d="M157.313 146.698C157.902 146.591 158.204 145.548 157.988 144.369C157.772 143.191 157.12 142.322 156.531 142.43C155.942 142.537 155.64 143.58 155.856 144.759C156.071 145.937 156.724 146.806 157.313 146.698Z" fill="black"/>
<path d="M156.235 138.512C156.235 138.512 152.601 138.467 151.965 142.069" stroke="black" stroke-linecap="round" stroke-linejoin="round"/>
<path d="M164.661 151.815C163.816 152.721 162.77 153.417 161.607 153.847C161.607 153.537 161.536 153.232 161.48 152.922L159.734 143.375C159.882 143.71 162.243 149.117 164.533 150.717C164.618 150.778 164.689 150.856 164.742 150.945C164.795 151.035 164.828 151.135 164.84 151.238C164.852 151.341 164.842 151.446 164.811 151.545C164.78 151.645 164.729 151.736 164.661 151.815Z" fill="#FF6B6C"/>
<path d="M465.189 181.763L465.152 181.816C465.166 181.8 465.177 181.782 465.184 181.763H465.189Z" stroke="black" stroke-linecap="round" stroke-linejoin="round"/>
<path d="M443.956 162.897L441.411 169.055C441.201 169.56 441.02 170.078 440.872 170.605C440.028 169.989 439.317 169.209 438.78 168.313C438.727 168.222 438.694 168.12 438.683 168.015C438.673 167.909 438.686 167.803 438.72 167.703C438.755 167.603 438.811 167.512 438.885 167.435C438.959 167.359 439.048 167.3 439.147 167.261C440.719 166.586 442.689 164.446 443.956 162.897Z" fill="#FF6B6C"/>
<path d="M461.47 182.022C461.43 181.821 461.431 181.613 461.473 181.412C461.515 181.211 461.598 181.02 461.716 180.852C461.834 180.683 461.984 180.54 462.159 180.431C462.334 180.322 462.529 180.25 462.732 180.218C465.786 179.71 470.121 178.496 470.366 174.792C470.641 170.64 464.936 169.014 461.841 173.13C461.688 173.345 461.479 173.516 461.238 173.624C460.996 173.732 460.73 173.774 460.467 173.746C460.204 173.717 459.953 173.62 459.74 173.462C459.527 173.305 459.36 173.094 459.256 172.851C459.063 172.277 458.992 171.67 459.047 171.067C459.246 167.536 458.218 164.675 451.999 157.856C451.378 157.193 450.849 156.45 450.426 155.646C447.588 157.105 445.361 159.524 444.141 162.47L443.963 162.897L441.419 169.05C441.21 169.555 441.031 170.073 440.884 170.6C440.441 172.182 440.295 173.832 440.452 175.467C442.121 175.569 445.979 175.549 449.22 173.664C453.292 171.296 451.683 182.556 446.426 185.493C447.156 185.987 447.936 186.404 448.752 186.737C450.129 187.315 451.593 187.658 453.083 187.754C451.454 190.749 449.582 193.606 447.485 196.295C447.281 196.564 447.083 196.803 446.889 197.062C445.225 202.469 455.933 199.705 459.053 197.54C459.103 197.306 459.159 197.078 459.21 196.854C460.007 193.374 461.116 189.973 462.523 186.692C462.147 185.284 461.796 183.74 461.47 182.022Z" fill="#F4B3BF"/>
<path d="M455.134 137.237C441.449 145.077 450.416 155.656 450.416 155.656C450.416 155.656 445.765 144.747 457.75 142.765" stroke="black" stroke-linecap="round" stroke-linejoin="round"/>
<path opacity="0.43" d="M331.94 180.452C331.94 183.658 321.324 186.265 308.24 186.265C307.385 186.265 306.535 186.265 305.695 186.229C317.589 185.925 326.856 183.45 326.856 180.452C326.856 177.454 317.589 174.98 305.695 174.67C306.525 174.644 307.375 174.634 308.24 174.634C321.324 174.634 331.94 177.241 331.94 180.452Z" fill="white"/>
<path d="M308.662 30.1668L312.148 40.883C312.297 41.3387 312.587 41.7359 312.975 42.0178C313.364 42.2998 313.831 42.4521 314.311 42.453H325.599C326.08 42.454 326.548 42.6067 326.937 42.8893C327.325 43.1719 327.614 43.5699 327.763 44.0264C327.911 44.4829 327.912 44.9746 327.763 45.4312C327.615 45.8879 327.326 46.286 326.938 46.5688L317.808 53.1743C317.42 53.4571 317.131 53.8549 316.983 54.3112C316.835 54.7674 316.835 55.2587 316.983 55.7149L320.469 66.431C320.616 66.8876 320.615 67.3788 320.465 67.8346C320.316 68.2904 320.026 68.6874 319.637 68.9691C319.249 69.2507 318.781 69.4026 318.301 69.4031C317.82 69.4035 317.352 69.2525 316.963 68.9716L307.833 62.3661C307.444 62.0836 306.975 61.9314 306.494 61.9314C306.013 61.9314 305.545 62.0836 305.156 62.3661L296.026 68.9716C295.637 69.2525 295.169 69.4035 294.688 69.4031C294.208 69.4026 293.74 69.2507 293.351 68.9691C292.963 68.6874 292.673 68.2904 292.524 67.8346C292.374 67.3788 292.373 66.8876 292.52 66.431L296.006 55.7149C296.153 55.2581 296.153 54.7665 296.004 54.3103C295.855 53.854 295.565 53.4564 295.176 53.1743L286.046 46.5688C285.657 46.2857 285.368 45.8871 285.22 45.43C285.072 44.9729 285.072 44.4808 285.222 44.024C285.371 43.5672 285.661 43.1693 286.05 42.8871C286.44 42.6049 286.909 42.453 287.39 42.453H298.672C299.153 42.4532 299.622 42.3013 300.012 42.0193C300.401 41.7373 300.691 41.3396 300.84 40.883L304.332 30.1668C304.482 29.7117 304.772 29.3156 305.161 29.0348C305.549 28.754 306.017 28.6028 306.497 28.6028C306.977 28.6028 307.444 28.754 307.833 29.0348C308.222 29.3156 308.512 29.7117 308.662 30.1668Z" fill="#FFD984"/>
<path d="M462.941 200.609C462.044 200.593 461.149 200.685 460.274 200.883C445.155 204.262 447.623 218.642 458.534 248.468C458.534 248.468 459.475 248.387 461.079 248.199L462.941 200.609Z" fill="#C9063E"/>
<path d="M530.841 309.793C528.505 310.916 521.986 308.213 515.767 305.931C518.515 309.859 531.467 314.036 528.134 314.96C522.627 315.469 512.556 311.073 507.538 307.999C512.693 318.914 508.316 323.705 507.68 322.14C507.044 320.575 504.403 310.027 488.998 288.513C481.944 278.63 473.105 261.497 466.168 247.036C471.716 246.227 477.188 244.964 482.53 243.26C493.889 265.384 509.161 290.134 514.174 294.616C521.029 300.713 527.691 303.32 525.925 304.244C525.503 304.468 522.688 304.432 520.266 302.72C523.019 307.019 534.251 308.157 530.841 309.793Z" fill="#F4B3BF"/>
<path d="M490.747 239.556C488.154 241.106 485.389 242.349 482.508 243.26C477.173 244.963 471.708 246.226 466.166 247.036C462.217 247.651 459.51 247.889 459.51 247.889C449.331 218.688 446.98 204.603 460.986 201.371C471.948 198.831 477.882 215.223 480.457 223.078C483.032 230.934 487.302 235.354 490.747 239.556Z" fill="#F12758"/>
<path d="M109.092 227.996C106.496 226.391 103.494 222.656 100.766 218.52C97.3989 213.317 94.3402 207.922 91.6055 202.362C92.4248 201.94 93.2493 201.483 94.0788 201L94.1806 200.944C110.914 191.194 129.428 170.854 137.978 186.179C146.97 202.296 119.24 222.123 109.092 227.996Z" fill="#FFD984"/>
<path d="M138.424 185.93C136.898 183.171 134.918 181.382 132.562 180.6C132.175 180.838 131.788 181.082 131.417 181.341H131.493C133.961 181.89 135.941 183.547 137.539 186.423C141.295 193.16 138.877 201.29 130.343 210.578L130.124 210.817C130.124 211.325 130.098 211.833 130.078 212.342C137.982 204.08 143.157 194.42 138.424 185.93Z" fill="#FCC949"/>
<path d="M251.148 119.28C251.148 119.28 256.512 124.407 255.377 129.595C254.242 134.783 249.881 132.024 247.453 126.328" stroke="#FF6989" stroke-miterlimit="10" stroke-linecap="round"/>
<path d="M254.73 131.302C254.73 131.302 255.687 138.863 261.601 140.631" stroke="#FF6989" stroke-miterlimit="10" stroke-linecap="round"/>
<path d="M365.513 116.013C365.513 116.013 358.531 122.796 361.544 124.651C364.556 126.505 368.933 121.602 368.933 121.602" stroke="#FF6989" stroke-miterlimit="10" stroke-linecap="round"/>
<path d="M361.925 125.078C361.925 125.078 357.727 131.739 351.793 132.933" stroke="#FF6989" stroke-miterlimit="10" stroke-linecap="round"/>
<path opacity="0.43" d="M338.967 83.4122C336.117 119.829 327.104 142.125 313.272 151.302C313.155 151.379 313.014 151.413 312.874 151.396C312.735 151.38 312.606 151.315 312.509 151.213C312.413 151.111 312.356 150.978 312.349 150.838C312.341 150.698 312.383 150.56 312.468 150.448C327.185 130.372 321.949 83.1074 321.374 78.2955C321.364 78.2182 321.37 78.1397 321.391 78.0647C321.412 77.9897 321.447 77.9195 321.496 77.8585C329.776 79.2914 335.567 81.6745 338.967 83.4122Z" fill="white"/>
<path d="M307.639 95.7187L309.487 101.399C309.567 101.641 309.721 101.851 309.928 101.999C310.134 102.148 310.382 102.228 310.637 102.228H316.617C316.872 102.228 317.12 102.309 317.326 102.459C317.533 102.609 317.686 102.82 317.765 103.063C317.844 103.305 317.845 103.566 317.766 103.808C317.688 104.051 317.535 104.262 317.329 104.413L312.489 107.919C312.283 108.068 312.13 108.279 312.052 108.521C311.973 108.763 311.973 109.023 312.052 109.265L313.899 114.946C313.978 115.188 313.979 115.449 313.9 115.691C313.821 115.933 313.668 116.144 313.461 116.294C313.255 116.444 313.006 116.524 312.751 116.524C312.496 116.523 312.248 116.442 312.042 116.292L307.202 112.786C306.996 112.636 306.747 112.554 306.492 112.554C306.237 112.554 305.988 112.636 305.782 112.786L300.947 116.292C300.741 116.442 300.493 116.523 300.238 116.524C299.983 116.524 299.734 116.444 299.528 116.294C299.321 116.144 299.168 115.933 299.089 115.691C299.01 115.449 299.011 115.188 299.09 114.946L300.937 109.245C301.016 109.003 301.016 108.742 300.937 108.501C300.859 108.259 300.705 108.048 300.499 107.898L295.66 104.392C295.454 104.242 295.301 104.031 295.223 103.789C295.144 103.547 295.144 103.287 295.223 103.045C295.301 102.803 295.454 102.592 295.659 102.441C295.865 102.291 296.112 102.209 296.367 102.207H302.347C302.601 102.207 302.849 102.128 303.056 101.979C303.262 101.83 303.417 101.62 303.497 101.379L305.349 95.7187C305.429 95.4784 305.583 95.2692 305.788 95.1209C305.994 94.9726 306.241 94.8928 306.494 94.8928C306.748 94.8928 306.995 94.9726 307.201 95.1209C307.406 95.2692 307.56 95.4784 307.639 95.7187Z" fill="#F2A916"/>
<path d="M287.643 107.126L288.855 110.84C288.906 110.998 289.006 111.135 289.14 111.233C289.275 111.331 289.437 111.383 289.603 111.384H293.516C293.684 111.383 293.847 111.435 293.982 111.533C294.118 111.631 294.219 111.77 294.27 111.929C294.322 112.088 294.322 112.259 294.269 112.418C294.217 112.576 294.115 112.714 293.979 112.812L290.814 115.103C290.679 115.202 290.579 115.341 290.528 115.499C290.477 115.658 290.477 115.829 290.529 115.987L291.74 119.702C291.792 119.86 291.792 120.031 291.74 120.189C291.688 120.348 291.588 120.486 291.453 120.583C291.317 120.681 291.155 120.734 290.988 120.733C290.821 120.733 290.658 120.679 290.524 120.581L287.358 118.289C287.224 118.19 287.062 118.137 286.895 118.137C286.729 118.137 286.566 118.19 286.432 118.289L283.267 120.581C283.132 120.679 282.97 120.733 282.803 120.733C282.636 120.734 282.473 120.681 282.338 120.583C282.203 120.486 282.102 120.348 282.05 120.189C281.999 120.031 281.999 119.86 282.05 119.702L283.262 115.987C283.312 115.828 283.311 115.657 283.259 115.499C283.207 115.34 283.106 115.202 282.972 115.103L279.806 112.802C279.67 112.704 279.568 112.566 279.516 112.406C279.464 112.247 279.464 112.075 279.516 111.916C279.568 111.757 279.67 111.619 279.806 111.521C279.942 111.423 280.106 111.372 280.274 111.374H284.183C284.35 111.374 284.512 111.321 284.647 111.223C284.783 111.126 284.884 110.988 284.936 110.83L286.142 107.116C286.194 106.958 286.296 106.82 286.431 106.723C286.567 106.626 286.73 106.574 286.896 106.575C287.063 106.576 287.225 106.63 287.36 106.729C287.494 106.828 287.593 106.967 287.643 107.126Z" fill="#F2A916"/>
<path d="M325.991 107.126L327.197 110.84C327.25 110.998 327.35 111.136 327.486 111.234C327.621 111.331 327.783 111.384 327.95 111.384H331.864C332.028 111.387 332.187 111.441 332.319 111.539C332.451 111.637 332.549 111.773 332.6 111.93C332.65 112.086 332.65 112.254 332.601 112.41C332.551 112.566 332.453 112.703 332.322 112.802L329.156 115.093C329.022 115.192 328.922 115.33 328.871 115.489C328.819 115.648 328.82 115.819 328.871 115.977L330.078 119.692C330.129 119.85 330.129 120.021 330.078 120.179C330.026 120.338 329.925 120.476 329.79 120.573C329.655 120.671 329.492 120.723 329.325 120.723C329.158 120.722 328.996 120.669 328.861 120.571L325.706 118.289C325.571 118.191 325.408 118.137 325.24 118.137C325.073 118.137 324.91 118.191 324.775 118.289L321.635 120.581C321.501 120.681 321.338 120.735 321.171 120.737C321.003 120.738 320.84 120.685 320.704 120.587C320.569 120.489 320.469 120.35 320.418 120.191C320.368 120.031 320.369 119.86 320.423 119.702L321.63 115.987C321.681 115.829 321.681 115.658 321.63 115.499C321.579 115.341 321.479 115.202 321.345 115.103L318.154 112.802C318.018 112.704 317.916 112.566 317.864 112.408C317.811 112.249 317.811 112.078 317.863 111.919C317.914 111.76 318.015 111.621 318.151 111.523C318.286 111.425 318.449 111.373 318.617 111.374H322.53C322.697 111.374 322.859 111.322 322.993 111.224C323.128 111.126 323.228 110.988 323.278 110.83L324.49 107.116C324.542 106.958 324.643 106.82 324.779 106.723C324.914 106.626 325.077 106.574 325.244 106.575C325.411 106.576 325.573 106.63 325.707 106.729C325.841 106.828 325.941 106.967 325.991 107.126Z" fill="#F2A916"/>
<path opacity="0.43" d="M308.117 154.111L307.664 173.806L309.659 173.842L311.186 152.699L308.117 154.111Z" fill="white"/>
<path opacity="0.39" d="M300.926 151.972C277.094 145.809 272.066 102.177 271.094 89.1793C271.01 88.0491 271.266 86.9197 271.829 85.9357C272.392 84.9517 273.236 84.1579 274.254 83.6561C278.99 81.358 283.986 79.6384 289.135 78.5343C288.463 78.8036 277.43 83.2801 278.188 88.9049C278.972 94.7025 280.193 139.808 300.926 151.972Z" fill="#F4B322"/>
<path d="M44.9825 148.019C44.5194 149.305 44.6721 154.889 44.6721 154.889L35.3945 150.753L37.9391 142.979L44.9825 148.019Z" fill="#FFE08E"/>
<path d="M43.5304 124.361L38.543 124.534C38.543 124.534 41.7797 117.578 43.2301 116.912C45.7747 118.67 46.4922 120.327 46.4922 120.327C46.4922 120.327 43.9426 122.425 43.5304 124.361Z" fill="#B2B2ED"/>
<path d="M30.4717 162.495L23.9576 165.229L20.8125 159.188L28.1969 157.353L30.4717 162.495Z" fill="#FFAEBA"/>
<path d="M97.1814 107.151L91.6953 102.705L95.5478 97.0856L100.652 102.726L97.1814 107.151Z" fill="#FFAEBA"/>
<path d="M76.7761 128.695L74.5674 126.439L73.2188 130.916L76.7761 128.695Z" fill="#FFE08E"/>
<path d="M50.5547 140.062L53.2316 138.238L48.9414 136.078L50.5547 140.062Z" fill="#FFAEBA"/>
<path d="M490.933 64.7746C490.357 65.7451 489.625 70.2724 489.625 70.2724L482.77 65.5164L486.016 59.6324L490.933 64.7746Z" fill="#FFE08E"/>
<path d="M546.265 87.6905C545.69 88.661 544.957 93.1883 544.957 93.1883L538.102 88.4121L541.348 82.5281L546.265 87.6905Z" fill="#FFE08E"/>
<path d="M487.031 122.964C487.942 123.625 492.39 124.778 492.39 124.778L487.031 131.129L481.469 127.349L487.031 122.964Z" fill="#FFE08E"/>
<path d="M520.392 148.771L519.018 154.238C519.018 154.238 512.469 148.537 512.184 146.749C514.896 144.559 516.927 144.284 516.927 144.284C516.927 144.284 518.418 147.719 520.392 148.771Z" fill="#AAE89C"/>
<path d="M468.023 118.691L467.005 122.659C467.005 122.659 462.247 118.518 462.043 117.222C464.012 115.632 465.488 115.434 465.488 115.434C465.488 115.434 466.588 117.923 468.023 118.691Z" fill="#B2B2ED"/>
<path d="M539.959 113.33L533.995 116.186L530.773 110.678L537.593 108.625L539.959 113.33Z" fill="#FFAEBA"/>
<path d="M495.18 137.689L495.852 143.446L490.355 144.544L490.595 138.304L495.18 137.689Z" fill="#FFAEBA"/>
<path d="M466.674 72.4877L461.91 75.8006L458.348 71.4765L463.966 68.7479L466.674 72.4877Z" fill="#FFAEBA"/>
<path d="M540.277 137.801L537.992 139.025L541.219 141.109L540.277 137.801Z" fill="#FFE08E"/>
<path d="M479.044 93.4882L476.754 94.7127L479.986 96.796L479.044 93.4882Z" fill="#FFE08E"/>
<path d="M482.041 116.739L481.207 114.214L478.52 117.105L482.041 116.739Z" fill="#FFAEBA"/>
<path d="M505.031 120.779L507.53 121.49L506.67 117.751L505.031 120.779Z" fill="#B2B2ED"/>
<path d="M512.227 165.844L514.72 166.555L513.86 162.815L512.227 165.844Z" fill="#B2B2ED"/>
<path d="M536.394 72.1473L533.33 77.452L531.371 71.3038L535.361 67.1017L536.394 72.1473Z" fill="#AAE89C"/>
<path d="M549.099 166.992L546.799 170.976L545.328 166.357L548.326 163.197L549.099 166.992Z" fill="#AAE89C"/>
<path d="M509.006 94.921L499.066 90.5766L509.52 85.9375L517.703 92.1365L509.006 94.921Z" fill="#AAE89C"/>
<path d="M104.54 71.2479C104.902 70.4908 107.4 68.1535 107.4 68.1535L101.604 65.8975L99.3086 70.3536L104.54 71.2479Z" fill="#FFE08E"/>
<path d="M141.747 95.8916C142.109 95.1345 144.613 92.7972 144.613 92.7972L138.811 90.5411L136.516 95.0176L141.747 95.8916Z" fill="#FFE08E"/>
<path d="M138.969 44.6582C139.758 44.9479 142.323 47.1988 142.323 47.1988L144.022 41.2386L139.371 39.3789L138.969 44.6582Z" fill="#FFE08E"/>
<path d="M168.832 54.5106L171.641 51.3908C171.641 51.3908 165.396 49.714 164.165 50.3034C163.936 52.8897 164.608 54.2566 164.608 54.2566C164.608 54.2566 167.356 53.7332 168.832 54.5106Z" fill="#AAE89C"/>
<path d="M128.419 34.6788L130.455 32.4075C130.455 32.4075 125.91 31.1931 125.02 31.6047C124.886 32.5738 124.998 33.5608 125.345 34.4755C125.345 34.4755 127.345 34.1097 128.419 34.6788Z" fill="#B2B2ED"/>
<path d="M155.011 81.3341L154.299 76.4663L149.551 76.7661L151.113 81.8269L155.011 81.3341Z" fill="#FFAEBA"/>
<path d="M151.479 43.5505L155.326 41.5739L153.723 37.7224L149.957 40.4612L151.479 43.5505Z" fill="#FFAEBA"/>
<path d="M99.2323 53.0624L99.2985 48.7383L95.1406 48.3369L95.787 52.9455L99.2323 53.0624Z" fill="#FFAEBA"/>
<path d="M170.303 71.3546L170.109 69.434L172.746 70.5569L170.303 71.3546Z" fill="#FFE08E"/>
<path d="M117.385 51.9649L117.191 50.0442L119.828 51.1671L117.385 51.9649Z" fill="#FFE08E"/>
<path d="M133.039 44.1451L131.125 44.6786L131.797 41.823L133.039 44.1451Z" fill="#FFAEBA"/>
<path d="M145.102 56.67L146.578 57.9149L143.906 58.9362L145.102 56.67Z" fill="#B2B2ED"/>
<path d="M176.012 42.3717L177.488 43.6115L174.816 44.6379L176.012 42.3717Z" fill="#B2B2ED"/>
<path d="M128.009 96.2574L130.025 92.162L125.399 93.5085L124.457 97.7208L128.009 96.2574Z" fill="#AAE89C"/>
<path d="M192.053 64.6678L193.57 61.5886L190.094 62.5998L189.387 65.7653L192.053 64.6678Z" fill="#AAE89C"/>
<path d="M130.732 69.8709L123.902 65.5417L125.383 73.9307L132.625 76.4053L130.732 69.8709Z" fill="#AAE89C"/>
<path d="M227.306 39.7244C227.667 38.9673 230.171 36.6351 230.171 36.6351L224.369 34.379L222.074 38.8301L227.306 39.7244Z" fill="#FFE08E"/>
<path d="M264.512 64.368C264.873 63.6109 267.377 61.2786 267.377 61.2786L261.58 59.0226L259.285 63.4737L264.512 64.368Z" fill="#FFE08E"/>
<path d="M261.734 13.1397C262.523 13.4294 265.088 15.6803 265.088 15.6803L266.788 9.70487L262.136 7.84009L261.734 13.1397Z" fill="#FFE08E"/>
<path d="M291.609 22.9921L294.423 19.8672C294.423 19.8672 288.163 18.1955 286.942 18.7646C286.713 21.3459 287.39 22.7127 287.39 22.7127C287.39 22.7127 290.123 22.2097 291.609 22.9921Z" fill="#AAE89C"/>
<path d="M251.183 3.15537L253.219 0.889179C253.219 0.889179 248.679 -0.325217 247.789 0.0863564C247.656 1.05545 247.768 2.04236 248.114 2.95721C248.114 2.95721 250.109 2.59137 251.183 3.15537Z" fill="#B2B2ED"/>
<path d="M277.777 49.8156L277.065 44.9427L272.316 45.2425L273.879 50.3085L277.777 49.8156Z" fill="#FFAEBA"/>
<path d="M274.244 12.0321L278.092 10.0505L276.489 6.19897L272.723 8.9428L274.244 12.0321Z" fill="#FFAEBA"/>
<path d="M221.997 21.539L222.068 17.22L217.91 16.8135L218.551 21.4221L221.997 21.539Z" fill="#FFAEBA"/>
<path d="M293.068 39.8312L292.875 37.9105L295.511 39.0385L293.068 39.8312Z" fill="#FFE08E"/>
<path d="M240.15 20.4414L239.957 18.5208L242.593 19.6488L240.15 20.4414Z" fill="#FFE08E"/>
<path d="M255.804 12.6215L253.891 13.1601L254.562 10.2994L255.804 12.6215Z" fill="#FFAEBA"/>
<path d="M267.868 25.1466L269.349 26.3915L266.672 27.4179L267.868 25.1466Z" fill="#B2B2ED"/>
<path d="M298.778 10.8483L300.259 12.0931L297.582 13.1195L298.778 10.8483Z" fill="#B2B2ED"/>
<path d="M250.779 64.7338L252.794 60.6384L248.168 61.9849L247.227 66.1972L250.779 64.7338Z" fill="#AAE89C"/>
<path d="M314.824 33.1442L316.336 30.0651L312.86 31.0813L312.152 34.2418L314.824 33.1442Z" fill="#AAE89C"/>
<path d="M253.5 38.3526L246.676 34.0234L248.152 42.4073L255.394 44.8819L253.5 38.3526Z" fill="#AAE89C"/>
<path d="M424.342 59.3682C423.752 59.9627 420.617 61.3397 420.617 61.3397L425.335 65.4046L428.979 61.9646L424.342 59.3682Z" fill="#FFE08E"/>
<path d="M397.422 23.8052C396.826 24.3997 393.691 25.7767 393.691 25.7767L398.414 29.8416L402.043 26.3813L397.422 23.8052Z" fill="#FFE08E"/>
<path d="M383.036 73.0619C382.39 72.5538 380.721 69.5406 380.721 69.5406L377.133 74.6218L380.909 77.9195L383.036 73.0619Z" fill="#FFE08E"/>
<path d="M358.135 53.8856L354.445 55.9181C354.445 55.9181 359.789 59.5714 361.132 59.4393C362.206 57.0766 362.023 55.5624 362.023 55.5624C362.023 55.5624 359.265 55.1102 358.135 53.8856Z" fill="#AAE89C"/>
<path d="M389.682 85.968L387 87.4365C387 87.4365 390.883 90.0838 391.86 89.9771C392.309 89.1059 392.531 88.1362 392.506 87.157C392.506 87.157 390.501 86.8572 389.682 85.968Z" fill="#B2B2ED"/>
<path d="M380.079 33.1494L379.133 37.9816L383.713 39.2671L383.917 33.9726L380.079 33.1494Z" fill="#FFAEBA"/>
<path d="M370.864 69.9675L366.574 70.562L366.813 74.7286L371.272 73.3871L370.864 69.9675Z" fill="#FFAEBA"/>
<path d="M423.317 78.2803L421.82 82.335L425.607 84.0931L426.528 79.5302L423.317 78.2803Z" fill="#FFAEBA"/>
<path d="M362.331 37.5091L361.878 39.384L359.766 37.4481L362.331 37.5091Z" fill="#FFE08E"/>
<path d="M405.824 73.3109L405.366 75.1858L403.254 73.255L405.824 73.3109Z" fill="#FFE08E"/>
<path d="M388.461 75.511L390.446 75.638L388.858 78.1125L388.461 75.511Z" fill="#FFAEBA"/>
<path d="M381.24 59.7036L380.258 58.037L383.123 57.9557L381.24 59.7036Z" fill="#B2B2ED"/>
<path d="M347.326 62.9657L346.344 61.2991L349.209 61.2178L347.326 62.9657Z" fill="#B2B2ED"/>
<path d="M410.5 28.0073L407.238 31.2033L412.053 31.4625L414.338 27.799L410.5 28.0073Z" fill="#AAE89C"/>
<path d="M339.589 36.6198L337.141 39.0232L340.754 39.2163L342.474 36.4674L339.589 36.6198Z" fill="#AAE89C"/>
<path d="M399.172 51.9955L404.18 58.3418L405.569 49.9427L399.559 45.207L399.172 51.9955Z" fill="#AAE89C"/>
<path d="M469.363 58.4332L462.238 60.5724C462.238 60.5724 461.128 52.3714 457.81 50.72C455.194 51.2282 450.609 53.3165 450.584 47.7628C450.558 42.2091 443.871 41.0354 443.871 41.0354L448.925 37.443C448.925 37.443 457.139 38.0172 456.772 45.0342C460.945 46.1064 466.284 43.327 469.363 58.4332Z" fill="#B2B2ED"/>
<path d="M217.927 97.1821L225.342 97.863C225.342 97.863 223.306 105.881 225.754 108.65C228.36 109.158 233.388 108.935 231.352 114.097C229.316 119.26 235.052 122.837 235.052 122.837L229.011 124.285C229.011 124.285 221.606 120.677 224.578 114.311C221.108 111.785 215.118 112.349 217.927 97.1821Z" fill="#B2B2ED"/>
<path d="M398.316 134.539L400.54 128.736C400.54 128.736 406.54 132.186 409.324 130.84C410.342 128.863 411.284 124.742 414.978 127.573C418.673 130.403 422.861 126.556 422.861 126.556L422.663 131.724C422.663 131.724 418.083 136.861 413.63 133.035C410.79 135.276 409.904 140.24 398.316 134.539Z" fill="#FFAEBA"/>
<path d="M190.471 80.3127C190.532 80.221 190.606 80.1388 190.69 80.0688C190.874 79.9214 192.502 78.641 194.192 79.0221C194.657 79.1398 195.088 79.3654 195.45 79.6806C195.811 79.9957 196.093 80.3916 196.273 80.836C196.591 81.4889 197.046 82.0651 197.609 82.5248C198.171 82.9845 198.827 83.3168 199.53 83.4986C199.985 83.6092 200.46 83.6088 200.914 83.4974C201.368 83.3859 201.789 83.1667 202.141 82.8583C205.337 80.1602 207.739 82.5636 209.327 84.154C210.07 84.8908 210.854 85.6784 211.418 85.7394C212.51 85.9554 213.643 85.7502 214.589 85.1652C215.57 84.6109 216.654 84.265 217.775 84.1489C220.945 83.8339 222.167 86.0391 222.355 87.2535C222.364 87.5047 222.281 87.7506 222.123 87.9459C221.964 88.1411 221.74 88.2725 221.492 88.3158C221.244 88.3592 220.989 88.3115 220.773 88.1816C220.558 88.0518 220.397 87.8485 220.319 87.6092C220.243 87.2332 219.856 86.0391 217.983 86.2221C217.124 86.3126 216.294 86.5827 215.546 87.0147C214.218 87.7931 212.654 88.0707 211.139 87.7972C209.856 87.6194 208.838 86.6031 207.856 85.6174C205.943 83.7069 205.072 83.1124 203.5 84.4437C202.901 84.9547 202.19 85.3186 201.425 85.5066C200.659 85.6945 199.861 85.7011 199.093 85.5259C198.074 85.2779 197.124 84.8075 196.31 84.1485C195.496 83.4895 194.839 82.6584 194.385 81.7151C194.11 81.1358 193.83 81.0698 193.739 81.0494C193.184 80.9224 192.339 81.4153 192.019 81.6744C191.824 81.8176 191.586 81.8894 191.345 81.8777C191.104 81.866 190.874 81.7716 190.695 81.6103C190.515 81.449 190.397 81.2307 190.36 80.9925C190.323 80.7542 190.37 80.5105 190.492 80.3025L190.471 80.3127Z" fill="#FFE08E"/>
<path d="M486.833 171.636C486.915 171.641 486.996 171.658 487.072 171.687C487.23 171.748 488.599 172.307 488.986 173.506C489.082 173.841 489.096 174.193 489.028 174.534C488.96 174.875 488.811 175.195 488.594 175.467C488.295 175.902 488.095 176.396 488.007 176.915C487.919 177.435 487.946 177.967 488.085 178.476C488.179 178.801 488.35 179.099 488.584 179.344C488.818 179.589 489.108 179.774 489.429 179.883C492.279 180.899 491.627 183.292 491.2 184.863C491.001 185.594 490.792 186.351 490.95 186.748C491.213 187.516 491.759 188.156 492.477 188.536C493.177 188.953 493.783 189.51 494.258 190.172C495.597 192.052 494.645 193.612 493.958 194.176C493.882 194.246 493.793 194.3 493.696 194.334C493.599 194.369 493.496 194.383 493.393 194.376C493.29 194.37 493.19 194.342 493.098 194.295C493.006 194.248 492.925 194.183 492.859 194.104C492.793 194.025 492.744 193.933 492.715 193.835C492.686 193.736 492.678 193.632 492.69 193.53C492.702 193.428 492.735 193.329 492.787 193.24C492.839 193.151 492.908 193.074 492.991 193.013C493.2 192.83 493.815 192.159 493.022 191.051C492.658 190.541 492.19 190.115 491.647 189.801C490.677 189.247 489.939 188.364 489.566 187.312C489.22 186.443 489.49 185.437 489.759 184.466C490.268 182.576 490.334 181.814 488.93 181.306C488.392 181.114 487.906 180.799 487.512 180.386C487.118 179.973 486.826 179.474 486.66 178.928C486.45 178.199 486.405 177.432 486.527 176.684C486.65 175.935 486.936 175.223 487.367 174.599C487.637 174.217 487.576 174.019 487.556 173.953C487.439 173.562 486.823 173.206 486.538 173.1C486.37 173.035 486.23 172.913 486.144 172.755C486.057 172.598 486.03 172.414 486.067 172.238C486.103 172.062 486.202 171.905 486.344 171.795C486.486 171.684 486.663 171.628 486.843 171.636H486.833Z" fill="#FFE08E"/>
<path d="M50.3237 179.441C51.1203 179.49 51.8888 179.753 52.5476 180.203C53.0601 180.581 53.4753 181.076 53.7593 181.645C54.0433 182.215 54.1879 182.844 54.1813 183.48C54.2236 184.232 54.4273 184.966 54.7785 185.632C55.1297 186.298 55.6203 186.882 56.2169 187.342C56.5837 187.616 57.0114 187.796 57.4634 187.869C57.9154 187.941 58.3782 187.904 58.8124 187.759C63.9016 186.168 65.6115 190.381 66.5377 192.647C66.9194 193.587 67.3978 194.755 67.8304 195.01C68.7983 195.672 69.9859 195.935 71.1434 195.741C72.5016 195.584 73.8775 195.711 75.1842 196.112C78.7975 197.22 79.4744 200.299 79.052 202.103C78.9494 202.554 78.6717 202.945 78.2799 203.192C77.8881 203.438 77.4144 203.519 76.9629 203.416C76.5114 203.314 76.1192 203.037 75.8725 202.645C75.6257 202.254 75.5448 201.781 75.6473 201.33C75.744 200.822 75.6728 199.903 74.1562 199.435C73.2665 199.167 72.3296 199.09 71.4081 199.212C69.5351 199.461 67.6344 199.034 66.0492 198.007C64.614 197.154 63.9474 195.533 63.3061 193.942C62.0847 190.955 61.5707 190.523 59.8608 191.061C58.9162 191.364 57.9137 191.442 56.9336 191.289C55.9535 191.135 55.0231 190.755 54.2169 190.177C53.1785 189.411 52.3232 188.424 51.7125 187.288C51.1018 186.152 50.7509 184.895 50.685 183.607C50.685 183.496 50.6545 183.099 50.512 183.018C50.2117 182.805 49.3313 182.866 48.8783 183.018C48.6555 183.095 48.4194 183.126 48.1843 183.109C47.9492 183.093 47.7198 183.028 47.5102 182.921C47.3005 182.813 47.1148 182.664 46.9644 182.483C46.8139 182.302 46.7017 182.092 46.6347 181.867C46.5676 181.641 46.547 181.404 46.5741 181.17C46.6012 180.937 46.6754 180.711 46.7924 180.506C46.9093 180.302 47.0665 180.123 47.2544 179.981C47.4424 179.839 47.6572 179.737 47.886 179.68C48.6787 179.461 49.5034 179.38 50.3237 179.441Z" fill="#FFE08E"/>
<path d="M576.43 187.779C577.325 186.737 579.168 181.468 579.168 181.468L586.369 188.628L581.224 194.989L576.43 187.779Z" fill="#FFE08E"/>
<path d="M569.366 210.406L574.094 212.011C574.094 212.011 568.587 217.362 566.969 217.484C565.233 214.943 565.137 213.134 565.137 213.134C565.137 213.134 568.297 212.067 569.366 210.406Z" fill="#B2B2ED"/>
<path d="M595.152 179.395L602.211 179.151L603 185.919L595.448 185.01L595.152 179.395Z" fill="#FFAEBA"/>
<path d="M513.088 207.448L516.635 213.551L511.032 217.438L508.273 210.355L513.088 207.448Z" fill="#FFAEBA"/>
<path d="M539.836 194.557L541.098 197.449L543.948 193.744L539.836 194.557Z" fill="#FFE08E"/>
<path d="M568.394 193.236L565.238 193.993L568.485 197.535L568.394 193.236Z" fill="#FFAEBA"/>
<path d="M142.566 148.243C141.548 147.486 140.76 146.866 139.579 147.099C138.098 147.389 136.948 148.146 137.034 150.87C137.197 155.895 142.123 153.537 142.123 153.537C142.123 153.537 141.889 160.925 137.131 163.923C135.63 163.832 130.673 147.379 131.65 137.323C132.627 127.268 145.859 128.812 149.024 128.894C152.19 128.975 152.953 122.649 159.03 122.405C165.106 122.161 170.786 137.486 155.198 137.811C149.513 137.811 145.045 136.515 143.747 138.38C142.775 139.772 143.487 145.443 143.905 148.197C143.941 148.31 143.936 148.433 143.891 148.543C143.846 148.654 143.763 148.744 143.658 148.8C143.552 148.856 143.43 148.873 143.314 148.848C143.197 148.823 143.093 148.758 143.019 148.664L142.566 148.243Z" fill="url(#paint2_linear)"/>
<path d="M180.516 117.044C181.406 116.028 183.254 110.734 183.254 110.734L190.455 117.883L185.305 124.244L180.516 117.044Z" fill="#FFE08E"/>
<path d="M173.452 139.671L178.175 141.276C178.175 141.276 172.668 146.632 171.05 146.749C169.314 144.208 169.223 142.399 169.223 142.399C169.223 142.399 172.378 141.332 173.452 139.671Z" fill="#B2B2ED"/>
<path d="M199.234 108.661L206.298 108.417L207.087 115.185L199.53 114.275L199.234 108.661Z" fill="#FFAEBA"/>
<path d="M117.179 136.714L120.726 142.816L115.123 146.703L112.359 139.625L117.179 136.714Z" fill="#FFAEBA"/>
<path d="M142.551 127.639L143.813 130.53L146.668 126.826L142.551 127.639Z" fill="#FFE08E"/>
<path d="M172.476 122.502L169.32 123.259L172.567 126.8L172.476 122.502Z" fill="#FFAEBA"/>
<path d="M461.837 173.13C461.684 173.345 461.475 173.516 461.234 173.624C460.992 173.732 460.726 173.774 460.463 173.746C460.199 173.717 459.949 173.619 459.736 173.462C459.523 173.305 459.356 173.094 459.252 172.851C459.059 172.277 458.988 171.67 459.043 171.067C459.242 167.536 458.214 164.675 451.995 157.856C445.776 151.037 454.127 147.16 461.593 147.613C471.532 148.212 478.204 155.971 485.105 165.681C492.006 175.391 501.66 170.026 510.759 177.312C521.37 185.808 518.129 195.604 524.78 202.499C531.432 209.394 540.74 208.185 544.786 215.202C548.831 222.219 545.218 229.937 558.842 236.518C578.42 245.963 583.575 295.891 537.025 292.883C499.049 290.429 502.551 260.617 500.891 252.406C499.232 244.195 488.856 239.566 486.27 230.003C483.685 220.441 489.619 214.923 481.451 206.346C473.481 197.977 465.333 202.606 461.461 182.032C461.42 181.831 461.421 181.623 461.464 181.422C461.506 181.221 461.588 181.03 461.706 180.862C461.824 180.693 461.975 180.55 462.15 180.441C462.324 180.333 462.519 180.26 462.723 180.228C465.776 179.72 470.112 178.506 470.356 174.802C470.636 170.64 464.931 169.014 461.837 173.13Z" fill="black"/>
<path d="M448.549 164.251C449 163.165 448.924 162.101 448.378 161.876C447.833 161.65 447.026 162.348 446.574 163.434C446.123 164.52 446.2 165.583 446.745 165.809C447.29 166.035 448.098 165.337 448.549 164.251Z" fill="black"/>
<path d="M448.211 158.1C448.211 158.1 451.544 158.771 451.417 162.196" stroke="black" stroke-linecap="round" stroke-linejoin="round"/>
</g>
<defs>
<linearGradient id="paint0_linear" x1="91.6055" y1="201.681" x2="94.0788" y2="201.681" gradientUnits="userSpaceOnUse">
<stop offset="0.59" stop-color="#F4B3BF"/>
<stop offset="0.82" stop-color="#FACBD2"/>
<stop offset="1" stop-color="#FFE1E4"/>
</linearGradient>
<linearGradient id="paint1_linear" x1="585.636" y1="1956.27" x2="589.659" y2="1956.27" gradientUnits="userSpaceOnUse">
<stop offset="0.59" stop-color="#F4B3BF"/>
<stop offset="0.82" stop-color="#FACBD2"/>
<stop offset="1" stop-color="#FFE1E4"/>
</linearGradient>
<linearGradient id="paint2_linear" x1="131.523" y1="143.161" x2="165.249" y2="143.161" gradientUnits="userSpaceOnUse">
<stop offset="0.17" stop-color="#77401C"/>
<stop offset="0.61" stop-color="#946746"/>
</linearGradient>
<clipPath id="clip0">
<rect width="603" height="427" fill="white"/>
</clipPath>
</defs>
</svg>
