<svg width="328" height="132" viewBox="0 0 328 132" fill="none" xmlns="http://www.w3.org/2000/svg">
<path d="M116.569 31.145C116.671 31.2748 116.824 31.3426 116.978 31.3426C117.089 31.3426 117.201 31.3072 117.295 31.2341C118.186 30.5451 118.697 29.5083 118.697 28.3893C118.697 26.4008 117.066 24.7832 115.061 24.7832C113.057 24.7832 111.426 26.4008 111.426 28.3893V29.297C111.426 29.5804 111.658 29.8102 111.943 29.8102C112.176 29.8102 112.373 29.6576 112.438 29.4476C112.453 29.4 112.46 29.3494 112.46 29.297V28.3893C112.46 26.9667 113.627 25.8095 115.061 25.8095C116.495 25.8095 117.662 26.9667 117.662 28.3893C117.662 28.4308 117.661 28.4722 117.659 28.5135H116.753C115.727 28.5135 114.854 29.1737 114.542 30.088C114.462 30.321 114.418 30.5701 114.418 30.8295C114.418 32.1065 115.465 33.1453 116.753 33.1453C117.038 33.1453 117.27 32.9156 117.27 32.6322C117.27 32.3489 117.038 32.119 116.753 32.119C116.036 32.119 115.453 31.5406 115.453 30.8295C115.453 30.6749 115.48 30.5266 115.531 30.3892C115.713 29.8942 116.192 29.5398 116.753 29.5398H117.391C117.22 29.8799 116.972 30.1825 116.659 30.4249C116.572 30.4922 116.513 30.5817 116.483 30.679C116.435 30.8336 116.461 31.0079 116.569 31.145Z" fill="#2FDDD0"/>
<path d="M115.057 21.8818C111.36 21.8818 108.352 24.8654 108.352 28.5328C108.352 30.9691 109.697 33.1991 111.824 34.3609C111.604 34.827 111.489 35.3359 111.489 35.8586C111.489 37.8098 113.09 39.3972 115.057 39.3972C117.024 39.3972 118.624 37.8098 118.624 35.8586C118.624 35.5753 118.393 35.3455 118.107 35.3455C117.821 35.3455 117.59 35.5753 117.59 35.8586C117.59 37.244 116.453 38.3709 115.057 38.3709C113.66 38.3709 112.524 37.244 112.524 35.8586C112.524 35.3472 112.678 34.8548 112.971 34.4348C113.058 34.3092 113.084 34.1514 113.043 34.0045C113.001 33.8575 112.896 33.7366 112.755 33.6746C110.709 32.7717 109.386 30.7535 109.386 28.5328C109.386 25.4314 111.93 22.9081 115.057 22.9081C118.184 22.9081 120.728 25.4314 120.728 28.5328C120.728 28.8163 120.959 29.046 121.245 29.046C121.531 29.046 121.762 28.8163 121.762 28.5328C121.762 24.8654 118.754 21.8818 115.057 21.8818Z" fill="#2FDDD0"/>
<path d="M109.874 35.173C108.586 35.173 107.539 34.134 107.539 32.8569C107.539 32.5735 107.307 32.3438 107.021 32.3438C106.736 32.3438 106.504 32.5735 106.504 32.8569C106.504 34.6998 108.016 36.1993 109.874 36.1993C110.159 36.1993 110.391 35.9694 110.391 35.6861C110.391 35.4027 110.159 35.173 109.874 35.173Z" fill="#2FDDD0"/>
<path d="M109.596 37.1154C107.385 37.1154 105.585 35.3307 105.585 33.1372C105.585 32.8537 105.354 32.624 105.068 32.624C104.782 32.624 104.551 32.8537 104.551 33.1372C104.551 35.8967 106.814 38.1417 109.596 38.1417C109.882 38.1417 110.114 37.912 110.114 37.6285C110.114 37.3451 109.882 37.1154 109.596 37.1154Z" fill="#2FDDD0"/>
<path d="M12.0186 67.1333C12.1206 67.263 12.273 67.3309 12.4268 67.3309C12.5381 67.3309 12.6502 67.2955 12.7446 67.2224C13.6351 66.5334 14.146 65.4966 14.146 64.3775C14.146 62.3891 12.5151 60.7715 10.5105 60.7715C8.50582 60.7715 6.875 62.3891 6.875 64.3775V65.2853C6.875 65.5687 7.10672 65.7984 7.39234 65.7984C7.62527 65.7984 7.8221 65.6458 7.88704 65.4359C7.90173 65.3883 7.90967 65.3377 7.90967 65.2853V64.3775C7.90967 62.955 9.07638 61.7978 10.5105 61.7978C11.9446 61.7978 13.1113 62.955 13.1113 64.3775C13.1113 64.4191 13.11 64.4605 13.1081 64.5018H12.2021C11.176 64.5018 10.3032 65.162 9.99074 66.0763C9.91112 66.3093 9.8672 66.5584 9.8672 66.8178C9.8672 68.0948 10.9147 69.1336 12.2021 69.1336C12.4877 69.1336 12.7194 68.9039 12.7194 68.6205C12.7194 68.3372 12.4877 68.1073 12.2021 68.1073C11.4852 68.1073 10.9019 67.5288 10.9019 66.8178C10.9019 66.6632 10.9295 66.5148 10.98 66.3775C11.1619 65.8825 11.641 65.5281 12.2021 65.5281H12.8399C12.669 65.8682 12.4216 66.1707 12.1083 66.4131C12.0213 66.4805 11.9623 66.57 11.9322 66.6673C11.8845 66.8219 11.9107 66.9962 12.0186 67.1333Z" fill="#FF6B6C"/>
<path d="M10.5061 57.8701C6.80875 57.8701 3.80078 60.8537 3.80078 64.5211C3.80078 66.9573 5.14653 69.1874 7.27341 70.3492C7.05328 70.8153 6.93863 71.3242 6.93863 71.8469C6.93863 73.7981 8.53901 75.3855 10.5061 75.3855C12.4732 75.3855 14.0736 73.7981 14.0736 71.8469C14.0736 71.5636 13.8419 71.3338 13.5562 71.3338C13.2705 71.3338 13.0389 71.5636 13.0389 71.8469C13.0389 73.2323 11.9026 74.3592 10.5061 74.3592C9.10956 74.3592 7.9733 73.2323 7.9733 71.8469C7.9733 71.3355 8.1277 70.8431 8.41978 70.4231C8.50708 70.2975 8.53362 70.1396 8.49199 69.9928C8.45022 69.8458 8.34474 69.7249 8.20422 69.6628C6.15777 68.76 4.83532 66.7418 4.83532 64.5211C4.83546 61.4196 7.37931 58.8964 10.5061 58.8964C13.6329 58.8964 16.1768 61.4196 16.1768 64.5211C16.1768 64.8045 16.4085 65.0342 16.6941 65.0342C16.9798 65.0342 17.2114 64.8045 17.2114 64.5211C17.2114 60.8537 14.2035 57.8701 10.5061 57.8701Z" fill="#FF6B6C"/>
<path d="M5.32282 71.1613C4.03527 71.1613 2.9878 70.1223 2.9878 68.8452C2.9878 68.5617 2.75621 68.332 2.47046 68.332C2.18485 68.332 1.95312 68.5617 1.95312 68.8452C1.95312 70.6881 3.46485 72.1876 5.32282 72.1876C5.60857 72.1876 5.84016 71.9577 5.84016 71.6744C5.84016 71.391 5.60857 71.1613 5.32282 71.1613Z" fill="#FF6B6C"/>
<path d="M5.0454 73.1037C2.83391 73.1037 1.03468 71.319 1.03468 69.1255C1.03468 68.842 0.803087 68.6123 0.517338 68.6123C0.23159 68.6123 0 68.842 0 69.1255C0 71.8849 2.26336 74.13 5.0454 74.13C5.33101 74.13 5.56274 73.9002 5.56274 73.6168C5.56274 73.3334 5.33101 73.1037 5.0454 73.1037Z" fill="#FF6B6C"/>
<path d="M66.7401 108.686C90.5757 108.686 109.898 89.3638 109.898 65.5282C109.898 41.6927 90.5757 22.3701 66.7401 22.3701C42.9046 22.3701 23.582 41.6927 23.582 65.5282C23.582 89.3638 42.9046 108.686 66.7401 108.686Z" fill="#FFD15C"/>
<path d="M66.6234 96.7703C83.9462 96.7703 97.989 82.7274 97.989 65.4047C97.989 48.0819 83.9462 34.0391 66.6234 34.0391C49.3007 34.0391 35.2578 48.0819 35.2578 65.4047C35.2578 82.7274 49.3007 96.7703 66.6234 96.7703Z" fill="#F8B64C"/>
<path d="M24.3795 23.4246C24.3795 21.9051 23.1333 20.6689 21.6015 20.6689H19.0355C18.1395 22.4465 17.893 22.9284 15.8007 24.2762C15.027 24.7746 14.1501 25.3395 13.2611 26.2442C12.2604 27.2623 11.8947 28.7296 12.3494 30.1632C12.8495 31.7399 14.3349 32.7936 16.0523 32.7934H16.0846C17.2512 32.7844 17.9137 32.3818 18.4459 32.0582C18.8314 31.8239 19.0649 31.6913 19.379 31.6913C19.6701 31.6913 19.7803 31.7947 20.0235 32.0496C20.3186 32.3588 20.7226 32.7822 21.5677 32.7933C21.5795 32.7934 21.5914 32.7936 21.6031 32.7936C22.8961 32.7936 24.0601 31.8641 24.3191 30.6188C24.3652 30.3975 24.3843 30.1753 24.3775 29.9559H24.3795V23.4246ZM23.2309 30.3961C23.0776 31.1324 22.3541 31.7011 21.5824 31.6912C21.2068 31.6863 21.0732 31.5462 20.8305 31.2919C20.5476 30.9953 20.16 30.589 19.379 30.589C18.7363 30.589 18.2935 30.8581 17.8653 31.1185C17.3863 31.4096 16.9339 31.6845 16.076 31.6912C16.068 31.6912 16.0604 31.6913 16.0525 31.6913C14.8232 31.6913 13.7628 30.9466 13.4095 29.8324C13.0855 28.8106 13.329 27.7542 14.0567 27.0136C14.8594 26.1968 15.6457 25.6903 16.406 25.2006C17.9877 24.1816 18.8358 23.5293 19.7224 21.7712H21.6015C22.5206 21.7712 23.2684 22.5129 23.2684 23.4245V27.8327C22.7926 27.4779 22.2112 27.2824 21.6015 27.2824C20.8594 27.2824 20.1619 27.5689 19.6371 28.0894L20.4229 28.8688C20.7376 28.5565 21.1562 28.3845 21.6015 28.3845C22.6256 28.3846 23.4573 29.3072 23.2309 30.3961Z" fill="#5975FF"/>
<path d="M15.8296 34.1729L15.2132 35.0901C15.4338 35.236 15.5604 35.4707 15.5604 35.7337C15.5604 35.9968 15.4338 36.2314 15.2132 36.3774C14.6858 36.7261 14.3711 37.3095 14.3711 37.9381C14.3711 38.5668 14.6858 39.1503 15.2132 39.499L15.8296 38.5819C15.609 38.4359 15.4822 38.2013 15.4822 37.9381C15.4822 37.675 15.609 37.4404 15.8296 37.2944C16.357 36.9458 16.6717 36.3623 16.6717 35.7337C16.6717 35.1051 16.357 34.5215 15.8296 34.1729Z" fill="#5975FF"/>
<path d="M18.6032 34.1729L17.9867 35.0901C18.2074 35.236 18.334 35.4707 18.334 35.7337C18.334 35.9968 18.2074 36.2314 17.9867 36.3774C17.4594 36.7261 17.1445 37.3095 17.1445 37.9381C17.1445 38.5668 17.4594 39.1503 17.9867 39.499L18.6032 38.5819C18.3824 38.4359 18.2558 38.2013 18.2558 37.9381C18.2558 37.675 18.3824 37.4404 18.6032 37.2944C19.1304 36.9458 19.4453 36.3623 19.4453 35.7337C19.4453 35.1051 19.1304 34.5215 18.6032 34.1729Z" fill="#5975FF"/>
<path d="M21.3804 34.1729L20.764 35.0901C20.9846 35.236 21.1112 35.4707 21.1112 35.7337C21.1112 35.9968 20.9846 36.2314 20.764 36.3774C20.2366 36.7261 19.9219 37.3095 19.9219 37.9381C19.9219 38.5668 20.2366 39.1503 20.764 39.499L21.3804 38.5819C21.1598 38.4359 21.033 38.2013 21.033 37.9381C21.033 37.675 21.1598 37.4404 21.3804 37.2944C21.9078 36.9458 22.2225 36.3623 22.2225 35.7337C22.2225 35.1051 21.9078 34.5215 21.3804 34.1729Z" fill="#5975FF"/>
<path d="M132.928 63.2551C132.844 63.1108 132.693 63.019 132.528 63.0092C132.283 62.9846 131.627 62.701 130.879 61.7989C130.697 61.5793 130.511 61.3362 130.314 61.0787C129.51 60.0304 128.6 58.8422 127.357 58.4445C126.63 58.2121 125.836 58.4333 125.121 59.0675C124.96 59.2099 124.729 59.2917 124.487 59.2917C124.244 59.2917 124.013 59.2099 123.852 59.0675C123.137 58.4333 122.343 58.2122 121.617 58.4445C120.373 58.8422 119.463 60.0304 118.66 61.0787C118.462 61.3361 118.276 61.5793 118.094 61.7989C117.346 62.7011 116.69 62.9847 116.445 63.0092C116.294 63.0182 116.155 63.0953 116.068 63.219C115.978 63.3459 115.953 63.5073 115.999 63.6556C116.002 63.6639 116.278 64.5165 116.951 65.6007C117.529 66.5307 118.517 67.8063 119.999 68.7343V70.8868C119.999 73.3613 122.012 75.3746 124.487 75.3746C126.961 75.3746 128.974 73.3613 128.974 70.8868V68.7346C131.847 66.9375 132.913 63.838 132.97 63.6665C133.016 63.5312 133.002 63.3809 132.928 63.2551ZM116.446 63.009C116.453 63.0085 116.456 63.0085 116.457 63.0085C116.453 63.0086 116.449 63.0089 116.446 63.009ZM120.277 63.9863C121.003 63.4217 122.369 62.4944 122.962 62.3595C123.221 62.3004 123.473 62.4133 123.639 62.5182C123.871 62.6645 124.172 62.745 124.487 62.745C124.801 62.745 125.102 62.6645 125.334 62.5182C125.5 62.4133 125.752 62.3005 126.011 62.3595C126.604 62.4944 127.97 63.4216 128.697 63.9863C128.616 64.1482 128.498 64.3609 128.34 64.5947C127.126 63.9739 125.683 63.9975 124.486 64.6666C123.29 63.9975 121.847 63.9739 120.633 64.5947C120.475 64.3608 120.357 64.1482 120.277 63.9863ZM127.977 70.8868C127.977 72.8114 126.411 74.3773 124.487 74.3773C122.562 74.3773 120.996 72.8114 120.996 70.8868V65.5306C121.929 65.0149 123.056 65.0153 123.988 65.5309V70.8868C123.988 71.1622 124.211 71.3854 124.487 71.3854C124.762 71.3854 124.985 71.1622 124.985 70.8868V65.5309C125.918 65.0153 127.045 65.0149 127.977 65.5306V70.8868ZM128.974 67.5253V65.4217C129.533 64.6822 129.766 64.0348 129.777 64.0059C129.846 63.8118 129.788 63.5952 129.632 63.4611C129.196 63.0866 127.238 61.6161 126.233 61.387C125.77 61.2817 125.262 61.3839 124.801 61.675C124.745 61.7102 124.633 61.7477 124.487 61.7477C124.34 61.7477 124.228 61.7102 124.172 61.675C123.711 61.3839 123.203 61.2817 122.74 61.387C121.735 61.6161 119.777 63.0866 119.341 63.4611C119.185 63.5952 119.128 63.8118 119.196 64.0059C119.207 64.0348 119.44 64.6822 119.999 65.4217V67.525C118.971 66.7508 118.254 65.806 117.807 65.0892C117.495 64.5883 117.277 64.1445 117.139 63.8305C117.574 63.6419 118.186 63.2499 118.862 62.4355C119.056 62.2011 119.248 61.9506 119.451 61.6853C120.165 60.7533 120.975 59.697 121.92 59.3944C122.405 59.2395 122.878 59.5368 123.19 59.8137C123.536 60.1201 123.996 60.289 124.486 60.289C124.977 60.289 125.437 60.1201 125.783 59.8137C126.095 59.537 126.568 59.2396 127.053 59.3944C127.998 59.697 128.808 60.7533 129.522 61.6853C129.725 61.9506 129.917 62.2011 130.111 62.4355C130.786 63.2489 131.398 63.6409 131.832 63.8298C131.474 64.6391 130.59 66.3084 128.974 67.5253ZM132.517 63.0085C132.517 63.0085 132.52 63.0085 132.527 63.009C132.524 63.0089 132.52 63.0088 132.517 63.0085Z" fill="#C32985"/>
<path d="M74.4776 6.09777L71.67 3.03905C71.1318 2.50372 70.1972 2.50001 69.6493 3.0435C69.4724 3.21898 69.3515 3.43 69.2888 3.65508C68.7438 3.24043 67.9122 3.28562 67.4099 3.78391C67.233 3.9594 67.112 4.17042 67.0478 4.39477C66.5044 3.98012 65.6721 4.02753 65.1704 4.52433C64.9965 4.69687 64.8771 4.90344 64.8121 5.12186L63.4893 3.80981C62.9332 3.25893 62.03 3.25743 61.4679 3.81425C60.9118 4.36513 60.9118 5.26253 61.4679 5.81414L66.5499 10.855L63.5371 11.3244C62.722 11.44 62.1076 12.1419 62.1076 12.9586C62.1076 13.5709 62.61 14.0692 63.2273 14.0692H70.2659C71.3617 14.0692 72.3926 13.6457 73.1705 12.8757L74.3439 11.711C75.1188 10.9431 75.545 9.92134 75.545 8.83513C75.545 7.82073 75.1658 6.84857 74.4776 6.09777ZM73.8154 11.1882L72.6419 12.3529C72.0067 12.9822 71.1624 13.3288 70.2659 13.3288H63.2273C63.022 13.3288 62.8541 13.1629 62.8541 12.9585C62.8541 12.5083 63.193 12.1211 63.6468 12.056L67.3905 11.4725C67.5293 11.451 67.6435 11.354 67.6876 11.2215C67.7309 11.0897 67.6958 10.9438 67.5965 10.8454L61.9956 5.28995C61.7314 5.02711 61.7314 4.59986 62.0001 4.33257C62.133 4.20152 62.3069 4.13561 62.4809 4.13561C62.6548 4.13561 62.8287 4.20152 62.9616 4.3333L65.1533 6.50722C65.1585 6.51315 65.1652 6.51905 65.1712 6.52499L66.697 8.03768C66.8425 8.18207 67.0792 8.18207 67.2247 8.03768C67.3703 7.8933 67.3703 7.65857 67.2247 7.51419L65.6862 5.98816C65.4347 5.72456 65.4392 5.30623 65.7034 5.04339C65.9602 4.79016 66.4066 4.78867 66.6634 5.04339L67.3972 5.77197C67.4017 5.77641 67.4054 5.78085 67.4099 5.78457L68.1892 6.55685C68.3348 6.70123 68.5714 6.70123 68.717 6.55685C68.8626 6.41246 68.8626 6.17774 68.717 6.03335L67.9287 5.25219C67.6742 4.98858 67.6772 4.5673 67.9429 4.30297C68.1989 4.04974 68.6461 4.04825 68.9029 4.30297L69.6822 5.07893C69.6829 5.07966 69.6829 5.08042 69.6837 5.08042L69.6845 5.08115C69.6905 5.08417 69.689 5.0834 69.6874 5.08264C69.6874 5.08264 69.6874 5.08337 69.6882 5.08337C69.6889 5.0841 69.6889 5.0841 69.6889 5.0841C69.6896 5.08483 69.6896 5.08483 69.6896 5.08483H69.6904C69.6911 5.08483 69.6911 5.08483 69.6911 5.08483C69.8389 5.22105 70.0688 5.21738 70.2106 5.07521C70.3555 4.93083 70.3555 4.69686 70.2099 4.55248L70.1651 4.50806C69.9128 4.24445 69.9165 3.82539 70.1815 3.56251C70.4383 3.30929 70.8967 3.32039 71.1296 3.54992L73.9244 6.5968C74.488 7.21136 74.7978 8.00582 74.7978 8.83586C74.7978 9.72364 74.4484 10.5596 73.8154 11.1882Z" fill="#7A76FF"/>
<path d="M69.6948 5.0833H69.698C69.6946 5.08161 69.6914 5.08008 69.6914 5.08008C69.6948 5.0833 69.6982 5.0833 69.6948 5.0833Z" fill="#7A76FF"/>
<path d="M65.5386 3.4446C64.9944 2.25104 63.7948 1.47949 62.4802 1.47949C60.6282 1.47949 59.1211 2.97442 59.1211 4.81143C59.1211 6.11459 59.8989 7.3052 61.1015 7.84498C61.1515 7.86719 61.2038 7.87757 61.2553 7.87757C61.3979 7.87757 61.533 7.79611 61.5957 7.65988C61.68 7.47329 61.5972 7.25412 61.4091 7.16971C60.473 6.74988 59.8676 5.82437 59.8676 4.81146C59.8676 3.38244 61.0396 2.21995 62.4803 2.21995C63.5015 2.21995 64.4346 2.82042 64.8578 3.74892C64.9429 3.93551 65.1631 4.01843 65.352 3.93402C65.5393 3.85037 65.6229 3.63046 65.5386 3.4446Z" fill="#7A76FF"/>
<path d="M67.1691 3.57555C66.6055 1.47049 64.6788 0 62.4849 0C59.8095 0 57.6328 2.15909 57.6328 4.81281C57.6328 6.98894 59.1153 8.89998 61.2383 9.45901C61.2704 9.4679 61.3025 9.47161 61.3339 9.47161C61.4996 9.47161 61.6504 9.36277 61.6944 9.1969C61.7474 8.99921 61.6295 8.79634 61.4294 8.74376C59.6341 8.27062 58.3793 6.65425 58.3793 4.81281C58.3793 2.56708 60.2216 0.740453 62.4849 0.740453C64.3407 0.740453 65.971 1.98437 66.448 3.76585C66.5002 3.96281 66.6981 4.08127 66.9048 4.02869C67.1034 3.97611 67.2213 3.77324 67.1691 3.57555Z" fill="#7A76FF"/>
<path d="M73.3653 52.9922L57.1899 58.554L52.7178 67.935C52.6002 68.1682 52.4876 68.4048 52.3796 68.6444L52.3633 68.6786C53.3145 70.0743 54.4642 71.3236 55.7723 72.3867L61.0325 75.8777H73.3241L77.5632 72.4463C78.9011 71.3702 80.0759 70.1003 81.0449 68.6777V61.1822L73.3653 52.9922Z" fill="#E94444"/>
<path d="M77.5595 58.4089L65.0204 56.5234L55.7695 58.9189V74.4335V75.9145L61.491 79.7866H73.7317L77.5595 75.5324V58.4089Z" fill="#FFBD86"/>
<path d="M76.8519 77.5498L76.5198 79.803C76.2188 81.8446 75.2499 83.7289 73.7644 85.1613C73.6615 85.2605 73.5043 85.2772 73.3829 85.2017L71.6075 84.097C70.7666 85.8911 69.2035 87.2438 67.3073 87.8186L66.6545 88.0165L66.1146 87.8441C64.2619 87.252 62.7397 85.9146 61.9142 84.1534L61.8877 84.097L60.1123 85.2017C59.9909 85.2772 59.8338 85.2605 59.7308 85.1613C58.2453 83.7289 57.2764 81.8446 56.9755 79.803L56.6433 77.5498L56.4219 75.5117L64.4311 71.5586H71.6497L77.0122 75.9241L76.8519 77.5498Z" fill="#F9F7F8"/>
<path d="M71.6497 71.5586H64.4311L56.4219 75.5117L56.6433 77.5498L56.9755 79.803C57.2762 81.8435 58.2443 83.7269 59.7286 85.1591C59.8323 85.2591 59.99 85.2778 60.1123 85.2016L61.8876 84.0969L61.9141 84.1533C62.7397 85.9145 64.2619 87.2519 66.1147 87.844L66.6544 88.0164L67.3072 87.8186C69.2034 87.2437 70.7664 85.891 71.6074 84.0969L73.3827 85.2016C73.505 85.2776 73.6627 85.2592 73.7663 85.1593C75.2138 83.7627 76.1707 81.9354 76.4962 79.9533C76.0234 80.9051 75.3879 81.7774 74.6121 82.5248C74.5102 82.6229 74.3536 82.637 74.2335 82.5622L73.1463 81.8857C72.7855 81.6613 72.3133 81.7765 72.0915 82.1389C71.2022 83.5926 69.8058 84.6796 68.158 85.1792L67.5052 85.3771L66.9654 85.2046C65.3525 84.6892 63.9902 83.6092 63.1199 82.1763C62.9035 81.8202 62.4439 81.7007 62.0838 81.9102L60.963 82.5622C60.8416 82.6378 60.6844 82.6211 60.5814 82.5219C60.0494 82.0088 59.5838 81.4375 59.1914 80.8219C58.7919 80.195 59.0362 79.347 59.7158 79.0457C60.1171 78.8679 60.4991 78.6403 60.8555 78.3649L63.6874 76.1779C63.9375 75.9848 64.2446 75.88 64.5607 75.88H68.9341C69.2501 75.88 69.5573 75.9848 69.8074 76.1779L72.6393 78.3649C73.6126 79.1166 74.7756 79.514 76.0025 79.514C76.1921 79.514 76.3802 79.5037 76.5665 79.4847L76.8517 77.5498L77.0122 75.9242L71.6497 71.5586Z" fill="#EFEDEF"/>
<path d="M71.3034 75.1292L71.0461 76.3337C70.7886 77.5383 69.7244 78.3993 68.4925 78.3993C67.8882 78.3993 67.3025 78.1896 66.8354 77.8061L66.8221 77.7952C66.7189 77.7104 66.57 77.7104 66.4668 77.7952L66.4536 77.8061C65.9865 78.1896 65.4008 78.3993 64.7964 78.3993C63.5645 78.3993 62.5002 77.5383 62.2429 76.3337L61.9855 75.1292L61.4805 72.4434H71.8015L71.3034 75.1292Z" fill="#FFBD86"/>
<path d="M69.6423 69.4053C70.5444 69.4053 71.4183 69.7206 72.1125 70.2967L76.4113 73.8636C76.8702 74.2444 77.4479 74.4529 78.0442 74.4529H79.364C79.6824 74.4529 79.8711 74.809 79.6924 75.0724L79.0286 76.0508C77.8491 77.7897 75.4476 78.1737 73.7845 76.8895L70.9526 74.7026C70.3762 74.2574 69.6685 74.016 68.9403 74.016H64.5672C63.8389 74.016 63.1312 74.2575 62.5549 74.7026L59.723 76.8895C58.06 78.1738 55.6584 77.7897 54.4789 76.0508L53.8152 75.0724C53.6365 74.8089 53.8252 74.4529 54.1435 74.4529H55.4633C56.0597 74.4529 56.6373 74.2445 57.0963 73.8636L61.395 70.2967C62.0893 69.7206 62.9631 69.4053 63.8653 69.4053H69.6423Z" fill="#F9F7F8"/>
<path d="M56.4558 77.3212L56.0234 76.6837C55.7464 76.2753 56.039 75.7231 56.5326 75.7231H57.4402C58.0366 75.7231 58.6142 75.5147 59.0732 75.1339L63.3719 71.5669C64.0662 70.9909 64.9399 70.6755 65.8422 70.6755H71.6193C72.0207 70.6755 72.4163 70.7383 72.7932 70.8583L72.1164 70.2967C71.4222 69.7206 70.5484 69.4053 69.6463 69.4053H63.8692C62.967 69.4053 62.0932 69.7206 61.3989 70.2967L57.1002 73.8636C56.6412 74.2444 56.0636 74.4529 55.4672 74.4529H54.1474C53.8291 74.4529 53.6404 74.809 53.8191 75.0724L54.4828 76.0508C55.0093 76.827 55.7809 77.3336 56.62 77.5421C56.5637 77.4712 56.5075 77.3973 56.4558 77.3212Z" fill="#EFEDEF"/>
<path d="M68.8479 68.4867L68.2353 69.4056C67.9025 69.9048 67.3423 70.2046 66.7424 70.2046C66.1425 70.2046 65.5823 69.9048 65.2495 69.4056L64.6369 68.4867C64.5344 68.3329 64.6446 68.127 64.8294 68.127H68.6553C68.8401 68.127 68.9504 68.3329 68.8479 68.4867Z" fill="#F6A96C"/>
<path d="M66.7495 62.9178C66.3636 62.9178 66.0508 62.6051 66.0508 62.2191V61.8804C66.0508 61.4944 66.3636 61.1816 66.7495 61.1816C67.1354 61.1816 67.4483 61.4944 67.4483 61.8804V62.2191C67.4483 62.605 67.1354 62.9178 66.7495 62.9178Z" fill="#F37C7C"/>
<path d="M61.4579 66.441C60.7291 66.441 60.0014 66.2189 59.3746 65.7768L58.8664 65.4182C58.551 65.1958 58.4757 64.7599 58.6981 64.4445C58.9205 64.1292 59.3565 64.0538 59.6719 64.2762L60.1802 64.6347C60.9232 65.1588 61.8971 65.1789 62.6611 64.686L63.3214 64.2602C63.6456 64.0508 64.0781 64.1443 64.2873 64.4684C64.4966 64.7927 64.4032 65.2252 64.079 65.4344L63.4187 65.8603C62.8178 66.2481 62.1373 66.441 61.4579 66.441Z" fill="#F6A96C"/>
<path d="M72.0269 66.441C71.3475 66.441 70.6672 66.2481 70.0662 65.8605L69.4059 65.4344C69.0817 65.2252 68.9884 64.7928 69.1976 64.4684C69.407 64.1443 69.8396 64.051 70.1636 64.2602L70.8239 64.6862C71.5879 65.1789 72.5616 65.1589 73.3046 64.6347L73.813 64.2762C74.1282 64.0538 74.5643 64.1292 74.7867 64.4446C75.0091 64.76 74.9339 65.1958 74.6185 65.4183L74.1102 65.7768C73.4834 66.2188 72.7557 66.441 72.0269 66.441Z" fill="#F6A96C"/>
<path d="M55.7656 58.9216V67.3045C56.087 66.914 56.4391 66.4984 56.8142 66.0743C58.9142 63.7004 60.8065 62.1166 62.1424 61.6145L62.1449 61.6136C63.6055 61.0639 65.1372 60.7852 66.6976 60.7852C69.3624 60.7852 71.9563 61.608 74.1989 63.1647C75.4748 64.0504 76.6052 65.1491 77.5554 66.4137V58.4117L65.0163 56.5264L55.7656 58.9216Z" fill="#F6A96C"/>
<path d="M83.9459 57.0109L81.197 52.5303L63.0496 56.1402L59.4727 60.5703L61.4954 59.8683V59.8693C63.1286 59.2544 64.8811 58.9208 66.7063 58.9208C73.01 58.9208 78.4594 62.9009 81.0466 68.6773C82.9426 65.8981 84.0503 62.5385 84.0503 58.9208C84.0502 58.2752 84.0148 57.6379 83.9459 57.0109Z" fill="#EE6161"/>
<path d="M74.8379 43.6016C72.4109 42.3085 69.6401 41.5762 66.6988 41.5762C61.1125 41.5762 56.1429 44.2175 52.9715 48.3196L51.9102 51.4631L74.0417 48.4942L74.6971 47.0837L76.6065 44.948L74.8379 43.6016Z" fill="#F79595"/>
<path d="M65.6682 46.6691C56.6766 45.8353 52.9722 48.321 52.9722 48.321C50.7045 51.252 49.3555 54.9293 49.3555 58.9216C49.3555 61.7184 50.0179 64.3607 51.1937 66.7001L56.4205 60.1578L72.0033 47.2026L65.6682 46.6691Z" fill="#EE6161"/>
<path d="M83.9331 57.0112H83.9321C69.167 53.5957 61.4825 59.8686 61.4825 59.8686V59.8696C57.4744 61.3761 52.3521 68.6786 52.3521 68.6786C51.9226 68.0478 51.5332 67.3873 51.1875 66.7006C51.1875 66.7006 51.1875 66.7006 51.1875 66.6997C51.1977 66.5683 52.2664 53.4448 65.662 46.6687H65.6629C68.2371 45.3662 71.267 44.2985 74.8325 43.6025C79.7769 46.2345 83.2958 51.1892 83.9331 57.0112Z" fill="#F37C7C"/>
<path d="M34.9505 107.724C35.7379 105.831 38.4197 105.831 39.2071 107.724C39.539 108.523 40.2895 109.068 41.1511 109.137C43.1949 109.301 44.0236 111.851 42.4665 113.185C41.81 113.747 41.5234 114.63 41.7239 115.471C42.1996 117.465 40.03 119.041 38.2803 117.973C37.5426 117.522 36.6149 117.522 35.8773 117.973C34.1275 119.041 31.9579 117.465 32.4336 115.471C32.6342 114.63 32.3475 113.747 31.691 113.185C30.1339 111.851 30.9626 109.301 33.0064 109.137C33.868 109.068 34.6185 108.523 34.9505 107.724Z" fill="#FFE082"/>
<path d="M94.2708 107.724C95.0582 105.831 97.74 105.831 98.5274 107.724C98.8593 108.523 99.6098 109.068 100.471 109.137C102.515 109.301 103.344 111.851 101.787 113.185C101.13 113.747 100.844 114.63 101.044 115.471C101.52 117.465 99.3503 119.041 97.6006 117.973C96.8629 117.522 95.9352 117.522 95.1976 117.973C93.4478 119.041 91.2782 117.465 91.7539 115.471C91.9545 114.63 91.6678 113.747 91.0114 113.185C89.4542 111.851 90.2829 109.301 92.3267 109.137C93.1883 109.068 93.9388 108.523 94.2708 107.724Z" fill="#FFE082"/>
<path d="M64.6184 116.721C65.4058 114.827 68.0876 114.827 68.875 116.721C69.207 117.519 69.9575 118.064 70.8191 118.133C72.8629 118.297 73.6916 120.847 72.1345 122.181C71.478 122.744 71.1913 123.626 71.3919 124.467C71.8676 126.461 69.698 128.037 67.9482 126.969C67.2106 126.518 66.2829 126.518 65.5452 126.969C63.7955 128.037 61.6259 126.461 62.1016 124.467C62.3021 123.626 62.0155 122.744 61.359 122.181C59.8019 120.847 60.6306 118.297 62.6744 118.133C63.536 118.064 64.2865 117.519 64.6184 116.721Z" fill="#FFE082"/>
<path d="M172.971 63.92C172.705 63.43 172.32 63.059 171.816 62.807C171.326 62.541 170.745 62.408 170.073 62.408C168.911 62.408 167.98 62.793 167.28 63.563C166.58 64.319 166.23 65.334 166.23 66.608C166.23 67.966 166.594 69.03 167.322 69.8C168.064 70.556 169.079 70.934 170.367 70.934C171.249 70.934 171.991 70.71 172.593 70.262C173.209 69.814 173.657 69.17 173.937 68.33H169.38V65.684H177.192V69.023C176.926 69.919 176.471 70.752 175.827 71.522C175.197 72.292 174.392 72.915 173.412 73.391C172.432 73.867 171.326 74.105 170.094 74.105C168.638 74.105 167.336 73.79 166.188 73.16C165.054 72.516 164.165 71.627 163.521 70.493C162.891 69.359 162.576 68.064 162.576 66.608C162.576 65.152 162.891 63.857 163.521 62.723C164.165 61.575 165.054 60.686 166.188 60.056C167.322 59.412 168.617 59.09 170.073 59.09C171.837 59.09 173.321 59.517 174.525 60.371C175.743 61.225 176.548 62.408 176.94 63.92H172.971ZM190.752 62.282V74H187.161V72.404C186.797 72.922 186.3 73.342 185.67 73.664C185.054 73.972 184.368 74.126 183.612 74.126C182.716 74.126 181.925 73.93 181.239 73.538C180.553 73.132 180.021 72.551 179.643 71.795C179.265 71.039 179.076 70.15 179.076 69.128V62.282H182.646V68.645C182.646 69.429 182.849 70.038 183.255 70.472C183.661 70.906 184.207 71.123 184.893 71.123C185.593 71.123 186.146 70.906 186.552 70.472C186.958 70.038 187.161 69.429 187.161 68.645V62.282H190.752ZM196.923 64.235C197.343 63.591 197.868 63.087 198.498 62.723C199.128 62.345 199.828 62.156 200.598 62.156V65.957H199.611C198.715 65.957 198.043 66.153 197.595 66.545C197.147 66.923 196.923 67.595 196.923 68.561V74H193.332V62.282H196.923V64.235ZM213.885 62.282V74H210.294V72.404C209.93 72.922 209.433 73.342 208.803 73.664C208.187 73.972 207.501 74.126 206.745 74.126C205.849 74.126 205.058 73.93 204.372 73.538C203.686 73.132 203.154 72.551 202.776 71.795C202.398 71.039 202.209 70.15 202.209 69.128V62.282H205.779V68.645C205.779 69.429 205.982 70.038 206.388 70.472C206.794 70.906 207.34 71.123 208.026 71.123C208.726 71.123 209.279 70.906 209.685 70.472C210.091 70.038 210.294 69.429 210.294 68.645V62.282H213.885ZM210.546 59.363L205.485 61.484V59.006L210.546 56.57V59.363ZM225.682 74.168C224.66 74.168 223.75 73.993 222.952 73.643C222.154 73.293 221.524 72.817 221.062 72.215C220.6 71.599 220.341 70.913 220.285 70.157H223.834C223.876 70.563 224.065 70.892 224.401 71.144C224.737 71.396 225.15 71.522 225.64 71.522C226.088 71.522 226.431 71.438 226.669 71.27C226.921 71.088 227.047 70.857 227.047 70.577C227.047 70.241 226.872 69.996 226.522 69.842C226.172 69.674 225.605 69.492 224.821 69.296C223.981 69.1 223.281 68.897 222.721 68.687C222.161 68.463 221.678 68.12 221.272 67.658C220.866 67.182 220.663 66.545 220.663 65.747C220.663 65.075 220.845 64.466 221.209 63.92C221.587 63.36 222.133 62.919 222.847 62.597C223.575 62.275 224.436 62.114 225.43 62.114C226.9 62.114 228.055 62.478 228.895 63.206C229.749 63.934 230.239 64.9 230.365 66.104H227.047C226.991 65.698 226.809 65.376 226.501 65.138C226.207 64.9 225.815 64.781 225.325 64.781C224.905 64.781 224.583 64.865 224.359 65.033C224.135 65.187 224.023 65.404 224.023 65.684C224.023 66.02 224.198 66.272 224.548 66.44C224.912 66.608 225.472 66.776 226.228 66.944C227.096 67.168 227.803 67.392 228.349 67.616C228.895 67.826 229.371 68.176 229.777 68.666C230.197 69.142 230.414 69.786 230.428 70.598C230.428 71.284 230.232 71.9 229.84 72.446C229.462 72.978 228.909 73.398 228.181 73.706C227.467 74.014 226.634 74.168 225.682 74.168ZM243.671 67.952C243.671 68.288 243.65 68.638 243.608 69.002H235.481C235.537 69.73 235.768 70.29 236.174 70.682C236.594 71.06 237.105 71.249 237.707 71.249C238.603 71.249 239.226 70.871 239.576 70.115H243.398C243.202 70.885 242.845 71.578 242.327 72.194C241.823 72.81 241.186 73.293 240.416 73.643C239.646 73.993 238.785 74.168 237.833 74.168C236.685 74.168 235.663 73.923 234.767 73.433C233.871 72.943 233.171 72.243 232.667 71.333C232.163 70.423 231.911 69.359 231.911 68.141C231.911 66.923 232.156 65.859 232.646 64.949C233.15 64.039 233.85 63.339 234.746 62.849C235.642 62.359 236.671 62.114 237.833 62.114C238.967 62.114 239.975 62.352 240.857 62.828C241.739 63.304 242.425 63.983 242.915 64.865C243.419 65.747 243.671 66.776 243.671 67.952ZM239.996 67.007C239.996 66.391 239.786 65.901 239.366 65.537C238.946 65.173 238.421 64.991 237.791 64.991C237.189 64.991 236.678 65.166 236.258 65.516C235.852 65.866 235.6 66.363 235.502 67.007H239.996ZM252.705 62.156C254.077 62.156 255.169 62.604 255.981 63.5C256.807 64.382 257.22 65.6 257.22 67.154V74H253.65V67.637C253.65 66.853 253.447 66.244 253.041 65.81C252.635 65.376 252.089 65.159 251.403 65.159C250.717 65.159 250.171 65.376 249.765 65.81C249.359 66.244 249.156 66.853 249.156 67.637V74H245.565V62.282H249.156V63.836C249.52 63.318 250.01 62.912 250.626 62.618C251.242 62.31 251.935 62.156 252.705 62.156ZM264.483 74.168C263.461 74.168 262.551 73.993 261.753 73.643C260.955 73.293 260.325 72.817 259.863 72.215C259.401 71.599 259.142 70.913 259.086 70.157H262.635C262.677 70.563 262.866 70.892 263.202 71.144C263.538 71.396 263.951 71.522 264.441 71.522C264.889 71.522 265.232 71.438 265.47 71.27C265.722 71.088 265.848 70.857 265.848 70.577C265.848 70.241 265.673 69.996 265.323 69.842C264.973 69.674 264.406 69.492 263.622 69.296C262.782 69.1 262.082 68.897 261.522 68.687C260.962 68.463 260.479 68.12 260.073 67.658C259.667 67.182 259.464 66.545 259.464 65.747C259.464 65.075 259.646 64.466 260.01 63.92C260.388 63.36 260.934 62.919 261.648 62.597C262.376 62.275 263.237 62.114 264.231 62.114C265.701 62.114 266.856 62.478 267.696 63.206C268.55 63.934 269.04 64.9 269.166 66.104H265.848C265.792 65.698 265.61 65.376 265.302 65.138C265.008 64.9 264.616 64.781 264.126 64.781C263.706 64.781 263.384 64.865 263.16 65.033C262.936 65.187 262.824 65.404 262.824 65.684C262.824 66.02 262.999 66.272 263.349 66.44C263.713 66.608 264.273 66.776 265.029 66.944C265.897 67.168 266.604 67.392 267.15 67.616C267.696 67.826 268.172 68.176 268.578 68.666C268.998 69.142 269.215 69.786 269.229 70.598C269.229 71.284 269.033 71.9 268.641 72.446C268.263 72.978 267.71 73.398 266.982 73.706C266.268 74.014 265.435 74.168 264.483 74.168ZM276.76 74.168C275.612 74.168 274.576 73.923 273.652 73.433C272.742 72.943 272.021 72.243 271.489 71.333C270.971 70.423 270.712 69.359 270.712 68.141C270.712 66.937 270.978 65.88 271.51 64.97C272.042 64.046 272.77 63.339 273.694 62.849C274.618 62.359 275.654 62.114 276.802 62.114C277.95 62.114 278.986 62.359 279.91 62.849C280.834 63.339 281.562 64.046 282.094 64.97C282.626 65.88 282.892 66.937 282.892 68.141C282.892 69.345 282.619 70.409 282.073 71.333C281.541 72.243 280.806 72.943 279.868 73.433C278.944 73.923 277.908 74.168 276.76 74.168ZM276.76 71.06C277.446 71.06 278.027 70.808 278.503 70.304C278.993 69.8 279.238 69.079 279.238 68.141C279.238 67.203 279 66.482 278.524 65.978C278.062 65.474 277.488 65.222 276.802 65.222C276.102 65.222 275.521 65.474 275.059 65.978C274.597 66.468 274.366 67.189 274.366 68.141C274.366 69.079 274.59 69.8 275.038 70.304C275.5 70.808 276.074 71.06 276.76 71.06ZM288.388 64.235C288.808 63.591 289.333 63.087 289.963 62.723C290.593 62.345 291.293 62.156 292.063 62.156V65.957H291.076C290.18 65.957 289.508 66.153 289.06 66.545C288.612 66.923 288.388 67.595 288.388 68.561V74H284.797V62.282H288.388V64.235ZM295.585 61.064C294.955 61.064 294.437 60.882 294.031 60.518C293.639 60.14 293.443 59.678 293.443 59.132C293.443 58.572 293.639 58.11 294.031 57.746C294.437 57.368 294.955 57.179 295.585 57.179C296.201 57.179 296.705 57.368 297.097 57.746C297.503 58.11 297.706 58.572 297.706 59.132C297.706 59.678 297.503 60.14 297.097 60.518C296.705 60.882 296.201 61.064 295.585 61.064ZM297.37 62.282V74H293.779V62.282H297.37ZM299.258 68.12C299.258 66.916 299.482 65.859 299.93 64.949C300.392 64.039 301.015 63.339 301.799 62.849C302.583 62.359 303.458 62.114 304.424 62.114C305.25 62.114 305.971 62.282 306.587 62.618C307.217 62.954 307.7 63.395 308.036 63.941V62.282H311.627V74H308.036V72.341C307.686 72.887 307.196 73.328 306.566 73.664C305.95 74 305.229 74.168 304.403 74.168C303.451 74.168 302.583 73.923 301.799 73.433C301.015 72.929 300.392 72.222 299.93 71.312C299.482 70.388 299.258 69.324 299.258 68.12ZM308.036 68.141C308.036 67.245 307.784 66.538 307.28 66.02C306.79 65.502 306.188 65.243 305.474 65.243C304.76 65.243 304.151 65.502 303.647 66.02C303.157 66.524 302.912 67.224 302.912 68.12C302.912 69.016 303.157 69.73 303.647 70.262C304.151 70.78 304.76 71.039 305.474 71.039C306.188 71.039 306.79 70.78 307.28 70.262C307.784 69.744 308.036 69.037 308.036 68.141ZM317.816 58.46V74H314.225V58.46H317.816Z" fill="#212429"/>
<path d="M169.198 31.848V33.032H166.158V43H164.702V33.032H161.646V31.848H169.198ZM178.99 38.28C178.99 38.5573 178.974 38.8507 178.942 39.16H171.934C171.987 40.024 172.28 40.7013 172.814 41.192C173.358 41.672 174.014 41.912 174.782 41.912C175.411 41.912 175.934 41.768 176.35 41.48C176.776 41.1813 177.075 40.7867 177.246 40.296H178.814C178.579 41.1387 178.11 41.8267 177.406 42.36C176.702 42.8827 175.827 43.144 174.782 43.144C173.95 43.144 173.203 42.9573 172.542 42.584C171.891 42.2107 171.379 41.6827 171.006 41C170.632 40.3067 170.446 39.5067 170.446 38.6C170.446 37.6933 170.627 36.8987 170.99 36.216C171.352 35.5333 171.859 35.0107 172.51 34.648C173.171 34.2747 173.928 34.088 174.782 34.088C175.614 34.088 176.35 34.2693 176.99 34.632C177.63 34.9947 178.12 35.496 178.462 36.136C178.814 36.7653 178.99 37.48 178.99 38.28ZM177.486 37.976C177.486 37.4213 177.363 36.9467 177.118 36.552C176.872 36.1467 176.536 35.8427 176.11 35.64C175.694 35.4267 175.23 35.32 174.718 35.32C173.982 35.32 173.352 35.5547 172.83 36.024C172.318 36.4933 172.024 37.144 171.95 37.976H177.486ZM189.529 34.072C190.191 34.072 190.788 34.216 191.321 34.504C191.855 34.7813 192.271 35.2027 192.569 35.768C192.879 36.3333 193.033 37.0213 193.033 37.832V43H191.593V38.04C191.593 37.1653 191.375 36.4987 190.937 36.04C190.5 35.5707 189.903 35.336 189.145 35.336C188.377 35.336 187.764 35.576 187.305 36.056C186.857 36.536 186.633 37.2347 186.633 38.152V43H185.177V31.16H186.633V35.48C186.921 35.032 187.316 34.6853 187.817 34.44C188.329 34.1947 188.9 34.072 189.529 34.072ZM194.868 38.584C194.868 37.688 195.049 36.904 195.412 36.232C195.774 35.5493 196.27 35.0213 196.9 34.648C197.54 34.2747 198.249 34.088 199.028 34.088C199.796 34.088 200.462 34.2533 201.028 34.584C201.593 34.9147 202.014 35.3307 202.292 35.832V34.232H203.764V43H202.292V41.368C202.004 41.88 201.572 42.3067 200.996 42.648C200.43 42.9787 199.769 43.144 199.012 43.144C198.233 43.144 197.529 42.952 196.9 42.568C196.27 42.184 195.774 41.6453 195.412 40.952C195.049 40.2587 194.868 39.4693 194.868 38.584ZM202.292 38.6C202.292 37.9387 202.158 37.3627 201.892 36.872C201.625 36.3813 201.262 36.008 200.804 35.752C200.356 35.4853 199.86 35.352 199.316 35.352C198.772 35.352 198.276 35.48 197.828 35.736C197.38 35.992 197.022 36.3653 196.756 36.856C196.489 37.3467 196.356 37.9227 196.356 38.584C196.356 39.256 196.489 39.8427 196.756 40.344C197.022 40.8347 197.38 41.2133 197.828 41.48C198.276 41.736 198.772 41.864 199.316 41.864C199.86 41.864 200.356 41.736 200.804 41.48C201.262 41.2133 201.625 40.8347 201.892 40.344C202.158 39.8427 202.292 39.2613 202.292 38.6ZM209.328 43.144C208.656 43.144 208.054 43.032 207.52 42.808C206.987 42.5733 206.566 42.2533 206.256 41.848C205.947 41.432 205.776 40.9573 205.744 40.424H207.248C207.291 40.8613 207.494 41.2187 207.856 41.496C208.23 41.7733 208.715 41.912 209.312 41.912C209.867 41.912 210.304 41.7893 210.624 41.544C210.944 41.2987 211.104 40.9893 211.104 40.616C211.104 40.232 210.934 39.9493 210.592 39.768C210.251 39.576 209.723 39.3893 209.008 39.208C208.358 39.0373 207.824 38.8667 207.408 38.696C207.003 38.5147 206.651 38.2533 206.352 37.912C206.064 37.56 205.92 37.1013 205.92 36.536C205.92 36.088 206.054 35.6773 206.32 35.304C206.587 34.9307 206.966 34.6373 207.456 34.424C207.947 34.2 208.507 34.088 209.136 34.088C210.107 34.088 210.891 34.3333 211.488 34.824C212.086 35.3147 212.406 35.9867 212.448 36.84H210.992C210.96 36.3813 210.774 36.0133 210.432 35.736C210.102 35.4587 209.654 35.32 209.088 35.32C208.566 35.32 208.15 35.432 207.84 35.656C207.531 35.88 207.376 36.1733 207.376 36.536C207.376 36.824 207.467 37.064 207.648 37.256C207.84 37.4373 208.075 37.5867 208.352 37.704C208.64 37.8107 209.035 37.9333 209.536 38.072C210.166 38.2427 210.678 38.4133 211.072 38.584C211.467 38.744 211.803 38.9893 212.08 39.32C212.368 39.6507 212.518 40.0827 212.528 40.616C212.528 41.096 212.395 41.528 212.128 41.912C211.862 42.296 211.483 42.6 210.992 42.824C210.512 43.0373 209.958 43.144 209.328 43.144ZM218.305 38.6C218.305 37.6933 218.487 36.904 218.849 36.232C219.212 35.5493 219.713 35.0213 220.353 34.648C221.004 34.2747 221.745 34.088 222.577 34.088C223.655 34.088 224.54 34.3493 225.233 34.872C225.937 35.3947 226.401 36.12 226.625 37.048H225.057C224.908 36.5147 224.615 36.0933 224.177 35.784C223.751 35.4747 223.217 35.32 222.577 35.32C221.745 35.32 221.073 35.608 220.561 36.184C220.049 36.7493 219.793 37.5547 219.793 38.6C219.793 39.656 220.049 40.472 220.561 41.048C221.073 41.624 221.745 41.912 222.577 41.912C223.217 41.912 223.751 41.7627 224.177 41.464C224.604 41.1653 224.897 40.7387 225.057 40.184H226.625C226.391 41.08 225.921 41.8 225.217 42.344C224.513 42.8773 223.633 43.144 222.577 43.144C221.745 43.144 221.004 42.9573 220.353 42.584C219.713 42.2107 219.212 41.6827 218.849 41C218.487 40.3173 218.305 39.5173 218.305 38.6ZM232.392 43.144C231.571 43.144 230.824 42.9573 230.152 42.584C229.491 42.2107 228.968 41.6827 228.584 41C228.211 40.3067 228.024 39.5067 228.024 38.6C228.024 37.704 228.216 36.9147 228.6 36.232C228.995 35.5387 229.528 35.0107 230.2 34.648C230.872 34.2747 231.624 34.088 232.456 34.088C233.288 34.088 234.04 34.2747 234.712 34.648C235.384 35.0107 235.912 35.5333 236.296 36.216C236.691 36.8987 236.888 37.6933 236.888 38.6C236.888 39.5067 236.685 40.3067 236.28 41C235.885 41.6827 235.347 42.2107 234.664 42.584C233.981 42.9573 233.224 43.144 232.392 43.144ZM232.392 41.864C232.915 41.864 233.405 41.7413 233.864 41.496C234.323 41.2507 234.691 40.8827 234.968 40.392C235.256 39.9013 235.4 39.304 235.4 38.6C235.4 37.896 235.261 37.2987 234.984 36.808C234.707 36.3173 234.344 35.9547 233.896 35.72C233.448 35.4747 232.963 35.352 232.44 35.352C231.907 35.352 231.416 35.4747 230.968 35.72C230.531 35.9547 230.179 36.3173 229.912 36.808C229.645 37.2987 229.512 37.896 229.512 38.6C229.512 39.3147 229.64 39.9173 229.896 40.408C230.163 40.8987 230.515 41.2667 230.952 41.512C231.389 41.7467 231.869 41.864 232.392 41.864ZM243.074 34.072C244.141 34.072 245.005 34.3973 245.666 35.048C246.328 35.688 246.658 36.616 246.658 37.832V43H245.218V38.04C245.218 37.1653 245 36.4987 244.562 36.04C244.125 35.5707 243.528 35.336 242.77 35.336C242.002 35.336 241.389 35.576 240.93 36.056C240.482 36.536 240.258 37.2347 240.258 38.152V43H238.802V34.232H240.258V35.48C240.546 35.032 240.936 34.6853 241.426 34.44C241.928 34.1947 242.477 34.072 243.074 34.072ZM252.301 41.656L255.021 34.232H256.573L253.133 43H251.437L247.997 34.232H249.565L252.301 41.656ZM266.005 38.28C266.005 38.5573 265.989 38.8507 265.957 39.16H258.949C259.003 40.024 259.296 40.7013 259.829 41.192C260.373 41.672 261.029 41.912 261.797 41.912C262.427 41.912 262.949 41.768 263.365 41.48C263.792 41.1813 264.091 40.7867 264.261 40.296H265.829C265.595 41.1387 265.125 41.8267 264.421 42.36C263.717 42.8827 262.843 43.144 261.797 43.144C260.965 43.144 260.219 42.9573 259.557 42.584C258.907 42.2107 258.395 41.6827 258.021 41C257.648 40.3067 257.461 39.5067 257.461 38.6C257.461 37.6933 257.643 36.8987 258.005 36.216C258.368 35.5333 258.875 35.0107 259.525 34.648C260.187 34.2747 260.944 34.088 261.797 34.088C262.629 34.088 263.365 34.2693 264.005 34.632C264.645 34.9947 265.136 35.496 265.477 36.136C265.829 36.7653 266.005 37.48 266.005 38.28ZM264.501 37.976C264.501 37.4213 264.379 36.9467 264.133 36.552C263.888 36.1467 263.552 35.8427 263.125 35.64C262.709 35.4267 262.245 35.32 261.733 35.32C260.997 35.32 260.368 35.5547 259.845 36.024C259.333 36.4933 259.04 37.144 258.965 37.976H264.501ZM269.383 35.656C269.639 35.1547 270.002 34.7653 270.471 34.488C270.951 34.2107 271.533 34.072 272.215 34.072V35.576H271.831C270.199 35.576 269.383 36.4613 269.383 38.232V43H267.927V34.232H269.383V35.656ZM275.672 35.432V40.6C275.672 41.0267 275.763 41.3307 275.944 41.512C276.125 41.6827 276.44 41.768 276.888 41.768H277.96V43H276.648C275.837 43 275.229 42.8133 274.824 42.44C274.419 42.0667 274.216 41.4533 274.216 40.6V35.432H273.08V34.232H274.216V32.024H275.672V34.232H277.96V35.432H275.672ZM280.476 32.808C280.199 32.808 279.964 32.712 279.772 32.52C279.58 32.328 279.484 32.0933 279.484 31.816C279.484 31.5387 279.58 31.304 279.772 31.112C279.964 30.92 280.199 30.824 280.476 30.824C280.743 30.824 280.967 30.92 281.148 31.112C281.34 31.304 281.436 31.5387 281.436 31.816C281.436 32.0933 281.34 32.328 281.148 32.52C280.967 32.712 280.743 32.808 280.476 32.808ZM281.18 34.232V43H279.724V34.232H281.18ZM283.118 38.584C283.118 37.688 283.299 36.904 283.662 36.232C284.024 35.5493 284.52 35.0213 285.15 34.648C285.79 34.2747 286.504 34.088 287.294 34.088C287.976 34.088 288.611 34.248 289.198 34.568C289.784 34.8773 290.232 35.288 290.542 35.8V31.16H292.014V43H290.542V41.352C290.254 41.8747 289.827 42.3067 289.262 42.648C288.696 42.9787 288.035 43.144 287.278 43.144C286.499 43.144 285.79 42.952 285.15 42.568C284.52 42.184 284.024 41.6453 283.662 40.952C283.299 40.2587 283.118 39.4693 283.118 38.584ZM290.542 38.6C290.542 37.9387 290.408 37.3627 290.142 36.872C289.875 36.3813 289.512 36.008 289.054 35.752C288.606 35.4853 288.11 35.352 287.566 35.352C287.022 35.352 286.526 35.48 286.078 35.736C285.63 35.992 285.272 36.3653 285.006 36.856C284.739 37.3467 284.606 37.9227 284.606 38.584C284.606 39.256 284.739 39.8427 285.006 40.344C285.272 40.8347 285.63 41.2133 286.078 41.48C286.526 41.736 287.022 41.864 287.566 41.864C288.11 41.864 288.606 41.736 289.054 41.48C289.512 41.2133 289.875 40.8347 290.142 40.344C290.408 39.8427 290.542 39.2613 290.542 38.6ZM298.298 43.144C297.477 43.144 296.73 42.9573 296.058 42.584C295.397 42.2107 294.874 41.6827 294.49 41C294.117 40.3067 293.93 39.5067 293.93 38.6C293.93 37.704 294.122 36.9147 294.506 36.232C294.901 35.5387 295.434 35.0107 296.106 34.648C296.778 34.2747 297.53 34.088 298.362 34.088C299.194 34.088 299.946 34.2747 300.618 34.648C301.29 35.0107 301.818 35.5333 302.202 36.216C302.597 36.8987 302.794 37.6933 302.794 38.6C302.794 39.5067 302.592 40.3067 302.186 41C301.792 41.6827 301.253 42.2107 300.57 42.584C299.888 42.9573 299.13 43.144 298.298 43.144ZM298.298 41.864C298.821 41.864 299.312 41.7413 299.77 41.496C300.229 41.2507 300.597 40.8827 300.874 40.392C301.162 39.9013 301.306 39.304 301.306 38.6C301.306 37.896 301.168 37.2987 300.89 36.808C300.613 36.3173 300.25 35.9547 299.802 35.72C299.354 35.4747 298.869 35.352 298.346 35.352C297.813 35.352 297.322 35.4747 296.874 35.72C296.437 35.9547 296.085 36.3173 295.818 36.808C295.552 37.2987 295.418 37.896 295.418 38.6C295.418 39.3147 295.546 39.9173 295.802 40.408C296.069 40.8987 296.421 41.2667 296.858 41.512C297.296 41.7467 297.776 41.864 298.298 41.864ZM316.974 38.28C316.974 38.5573 316.958 38.8507 316.926 39.16H309.918C309.972 40.024 310.265 40.7013 310.798 41.192C311.342 41.672 311.998 41.912 312.766 41.912C313.396 41.912 313.918 41.768 314.334 41.48C314.761 41.1813 315.06 40.7867 315.23 40.296H316.798C316.564 41.1387 316.094 41.8267 315.39 42.36C314.686 42.8827 313.812 43.144 312.766 43.144C311.934 43.144 311.188 42.9573 310.526 42.584C309.876 42.2107 309.364 41.6827 308.99 41C308.617 40.3067 308.43 39.5067 308.43 38.6C308.43 37.6933 308.612 36.8987 308.974 36.216C309.337 35.5333 309.844 35.0107 310.494 34.648C311.156 34.2747 311.913 34.088 312.766 34.088C313.598 34.088 314.334 34.2693 314.974 34.632C315.614 34.9947 316.105 35.496 316.446 36.136C316.798 36.7653 316.974 37.48 316.974 38.28ZM315.47 37.976C315.47 37.4213 315.348 36.9467 315.102 36.552C314.857 36.1467 314.521 35.8427 314.094 35.64C313.678 35.4267 313.214 35.32 312.702 35.32C311.966 35.32 311.337 35.5547 310.814 36.024C310.302 36.4933 310.009 37.144 309.934 37.976H315.47ZM323.168 34.072C324.235 34.072 325.099 34.3973 325.76 35.048C326.421 35.688 326.752 36.616 326.752 37.832V43H325.312V38.04C325.312 37.1653 325.093 36.4987 324.656 36.04C324.219 35.5707 323.621 35.336 322.864 35.336C322.096 35.336 321.483 35.576 321.024 36.056C320.576 36.536 320.352 37.2347 320.352 38.152V43H318.896V34.232H320.352V35.48C320.64 35.032 321.029 34.6853 321.52 34.44C322.021 34.1947 322.571 34.072 323.168 34.072Z" fill="#212429"/>
</svg>
