<svg width="786" height="193" viewBox="0 0 786 193" fill="none" xmlns="http://www.w3.org/2000/svg">
<g clip-path="url(#clip0)">
<g clip-path="url(#clip1)">
<path d="M85.8477 147.584C123.564 147.584 154.14 117.009 154.14 79.2921C154.14 41.5754 123.564 11 85.8477 11C48.131 11 17.5555 41.5754 17.5555 79.2921C17.5555 117.009 48.131 147.584 85.8477 147.584Z" fill="#FFD15C"/>
<path d="M30.5232 119.245L7.02557 159.976L34.4508 158.521L46.9106 183L68.6476 145.316C53.0728 141.287 39.6988 131.908 30.5232 119.245Z" fill="#C32985"/>
<path d="M141.307 119.042C132.2 131.739 118.826 141.151 103.285 145.248L125.089 183L137.549 158.52L164.974 159.976L141.307 119.042Z" fill="#C32985"/>
<path d="M85.8477 128.793C113.186 128.793 135.348 106.631 135.348 79.2921C135.348 51.9536 113.186 29.7913 85.8477 29.7913C58.5091 29.7913 36.3469 51.9536 36.3469 79.2921C36.3469 106.631 58.5091 128.793 85.8477 128.793Z" fill="#F8B64C"/>
<path d="M120.719 69.1552C120.373 68.5618 119.753 68.1842 119.072 68.1436C118.065 68.0427 115.367 66.8763 112.291 63.1662C111.542 62.2631 110.776 61.2633 109.965 60.2042C106.662 55.8927 102.917 51.006 97.8033 49.3702C94.8152 48.4142 91.55 49.3243 88.6095 51.9326C87.9488 52.518 86.9977 52.8544 86 52.8544C85.0019 52.8544 84.0507 52.518 83.3901 51.9326C80.4496 49.3243 77.1849 48.4147 74.1968 49.3702C69.0821 51.006 65.3384 55.8927 62.0352 60.2042C61.224 61.2627 60.4581 62.2631 59.7094 63.1662C56.6321 66.8768 53.9335 68.0432 52.9274 68.1436C52.3068 68.181 51.7359 68.4977 51.3759 69.0067C51.0074 69.5285 50.9027 70.1923 51.0934 70.8022C51.1041 70.8364 52.2384 74.3431 55.0075 78.802C57.383 82.627 61.4493 87.8731 67.543 91.69V100.543C67.543 110.72 75.8225 119 86 119C96.1776 119 104.457 110.72 104.457 100.543V91.6911C116.272 84.3002 120.657 71.5526 120.892 70.8471C121.08 70.2906 121.022 69.6727 120.719 69.1552ZM52.93 68.1431C52.9583 68.141 52.9733 68.141 52.9744 68.141C52.9594 68.1415 52.945 68.1426 52.93 68.1431ZM68.6848 72.1625C71.6723 69.8404 77.2927 66.0266 79.7297 65.4717C80.794 65.2287 81.8322 65.6928 82.5158 66.1243C83.4686 66.7262 84.706 67.0574 86 67.0574C87.2941 67.0574 88.5315 66.7262 89.4837 66.1243C90.1673 65.6928 91.2055 65.2292 92.2699 65.4717C94.7068 66.0266 100.327 69.8398 103.315 72.1625C102.983 72.8285 102.5 73.7033 101.849 74.6646C96.8537 72.1112 90.9219 72.2084 85.9995 74.9605C81.0776 72.2084 75.1458 72.1112 70.1508 74.6646C69.4992 73.7027 69.0164 72.8285 68.6848 72.1625ZM100.356 100.543C100.356 108.458 93.9153 114.898 86 114.898C78.0842 114.898 71.644 108.458 71.644 100.543V78.5136C75.4791 76.3928 80.1142 76.3944 83.9493 78.5152V100.543C83.9493 101.675 84.8673 102.594 86 102.594C87.1322 102.594 88.0508 101.675 88.0508 100.543V78.5152C91.8859 76.3944 96.5205 76.3928 100.356 78.5136V100.543ZM104.457 86.7174V78.066C106.756 75.0245 107.715 72.3617 107.757 72.2431C108.04 71.4447 107.803 70.5539 107.161 70.0022C105.368 68.4619 97.3146 62.4142 93.181 61.4721C91.2792 61.039 89.1878 61.4593 87.293 62.6567C87.0644 62.8014 86.6041 62.9557 86 62.9557C85.3955 62.9557 84.9357 62.8014 84.7065 62.6567C82.8117 61.4593 80.7209 61.039 78.8185 61.4721C74.6849 62.4142 66.6319 68.4619 64.839 70.0022C64.1965 70.5539 63.9594 71.4447 64.2425 72.2431C64.2847 72.3617 65.2438 75.0245 67.5424 78.066V86.7163C63.3164 83.5322 60.3668 79.6463 58.5291 76.6983C57.2452 74.6384 56.3501 72.813 55.7819 71.5216C57.5683 70.7461 60.0886 69.1338 62.8662 65.7841C63.6657 64.8202 64.455 63.7899 65.2908 62.6988C68.2276 58.8659 71.5559 54.5212 75.446 53.2769C77.4375 52.6397 79.3852 53.8627 80.6685 55.0014C82.0897 56.2618 83.9829 56.956 85.9995 56.956C88.0161 56.956 89.9094 56.2618 91.3305 55.0014C92.6138 53.8633 94.5621 52.6403 96.5531 53.2769C100.443 54.5212 103.772 58.8659 106.709 62.6988C107.545 63.7899 108.334 64.8202 109.133 65.7841C111.907 69.1295 114.424 70.7419 116.21 71.5189C114.737 74.8472 111.101 81.7126 104.457 86.7174ZM119.026 68.141C119.027 68.141 119.041 68.141 119.07 68.1431C119.055 68.1426 119.04 68.142 119.026 68.141Z" fill="white"/>
</g>
<path d="M187.31 85.36C187.31 80.5067 188.36 76.19 190.46 72.41C192.56 68.5833 195.477 65.62 199.21 63.52C202.99 61.3733 207.26 60.3 212.02 60.3C217.853 60.3 222.847 61.84 227 64.92C231.153 68 233.93 72.2 235.33 77.52H222.17C221.19 75.4667 219.79 73.9033 217.97 72.83C216.197 71.7567 214.167 71.22 211.88 71.22C208.193 71.22 205.207 72.5033 202.92 75.07C200.633 77.6367 199.49 81.0667 199.49 85.36C199.49 89.6533 200.633 93.0833 202.92 95.65C205.207 98.2167 208.193 99.5 211.88 99.5C214.167 99.5 216.197 98.9633 217.97 97.89C219.79 96.8167 221.19 95.2533 222.17 93.2H235.33C233.93 98.52 231.153 102.72 227 105.8C222.847 108.833 217.853 110.35 212.02 110.35C207.26 110.35 202.99 109.3 199.21 107.2C195.477 105.053 192.56 102.09 190.46 98.31C188.36 94.53 187.31 90.2133 187.31 85.36ZM240.28 90.4C240.28 86.3867 241.027 82.8633 242.52 79.83C244.06 76.7967 246.137 74.4633 248.75 72.83C251.364 71.1967 254.28 70.38 257.5 70.38C260.254 70.38 262.657 70.94 264.71 72.06C266.81 73.18 268.42 74.65 269.54 76.47V70.94H281.51V110H269.54V104.47C268.374 106.29 266.74 107.76 264.64 108.88C262.587 110 260.184 110.56 257.43 110.56C254.257 110.56 251.364 109.743 248.75 108.11C246.137 106.43 244.06 104.073 242.52 101.04C241.027 97.96 240.28 94.4133 240.28 90.4ZM269.54 90.47C269.54 87.4833 268.7 85.1267 267.02 83.4C265.387 81.6733 263.38 80.81 261 80.81C258.62 80.81 256.59 81.6733 254.91 83.4C253.277 85.08 252.46 87.4133 252.46 90.4C252.46 93.3867 253.277 95.7667 254.91 97.54C256.59 99.2667 258.62 100.13 261 100.13C263.38 100.13 265.387 99.2667 267.02 97.54C268.7 95.8133 269.54 93.4567 269.54 90.47ZM311.94 99.85V110H305.85C301.51 110 298.127 108.95 295.7 106.85C293.273 104.703 292.06 101.227 292.06 96.42V80.88H287.3V70.94H292.06V61.42H304.03V70.94H311.87V80.88H304.03V96.56C304.03 97.7267 304.31 98.5667 304.87 99.08C305.43 99.5933 306.363 99.85 307.67 99.85H311.94ZM316.228 90.4C316.228 86.3867 316.974 82.8633 318.468 79.83C320.008 76.7967 322.084 74.4633 324.698 72.83C327.311 71.1967 330.228 70.38 333.448 70.38C336.201 70.38 338.604 70.94 340.658 72.06C342.758 73.18 344.368 74.65 345.488 76.47V70.94H357.458V110H345.488V104.47C344.321 106.29 342.688 107.76 340.588 108.88C338.534 110 336.131 110.56 333.378 110.56C330.204 110.56 327.311 109.743 324.698 108.11C322.084 106.43 320.008 104.073 318.468 101.04C316.974 97.96 316.228 94.4133 316.228 90.4ZM345.488 90.47C345.488 87.4833 344.648 85.1267 342.968 83.4C341.334 81.6733 339.328 80.81 336.948 80.81C334.568 80.81 332.538 81.6733 330.858 83.4C329.224 85.08 328.408 87.4133 328.408 90.4C328.408 93.3867 329.224 95.7667 330.858 97.54C332.538 99.2667 334.568 100.13 336.948 100.13C339.328 100.13 341.334 99.2667 342.968 97.54C344.648 95.8133 345.488 93.4567 345.488 90.47ZM363.737 90.4C363.737 86.3867 364.484 82.8633 365.977 79.83C367.517 76.7967 369.594 74.4633 372.207 72.83C374.821 71.1967 377.737 70.38 380.957 70.38C383.524 70.38 385.857 70.9167 387.957 71.99C390.104 73.0633 391.784 74.51 392.997 76.33V58.2H404.967V110H392.997V104.4C391.877 106.267 390.267 107.76 388.167 108.88C386.114 110 383.711 110.56 380.957 110.56C377.737 110.56 374.821 109.743 372.207 108.11C369.594 106.43 367.517 104.073 365.977 101.04C364.484 97.96 363.737 94.4133 363.737 90.4ZM392.997 90.47C392.997 87.4833 392.157 85.1267 390.477 83.4C388.844 81.6733 386.837 80.81 384.457 80.81C382.077 80.81 380.047 81.6733 378.367 83.4C376.734 85.08 375.917 87.4133 375.917 90.4C375.917 93.3867 376.734 95.7667 378.367 97.54C380.047 99.2667 382.077 100.13 384.457 100.13C386.837 100.13 388.844 99.2667 390.477 97.54C392.157 95.8133 392.997 93.4567 392.997 90.47ZM431.407 110.56C427.58 110.56 424.127 109.743 421.047 108.11C418.014 106.477 415.61 104.143 413.837 101.11C412.11 98.0767 411.247 94.53 411.247 90.47C411.247 86.4567 412.134 82.9333 413.907 79.9C415.68 76.82 418.107 74.4633 421.187 72.83C424.267 71.1967 427.72 70.38 431.547 70.38C435.374 70.38 438.827 71.1967 441.907 72.83C444.987 74.4633 447.414 76.82 449.187 79.9C450.96 82.9333 451.847 86.4567 451.847 90.47C451.847 94.4833 450.937 98.03 449.117 101.11C447.344 104.143 444.894 106.477 441.767 108.11C438.687 109.743 435.234 110.56 431.407 110.56ZM431.407 100.2C433.694 100.2 435.63 99.36 437.217 97.68C438.85 96 439.667 93.5967 439.667 90.47C439.667 87.3433 438.874 84.94 437.287 83.26C435.747 81.58 433.834 80.74 431.547 80.74C429.214 80.74 427.277 81.58 425.737 83.26C424.197 84.8933 423.427 87.2967 423.427 90.47C423.427 93.5967 424.174 96 425.667 97.68C427.207 99.36 429.12 100.2 431.407 100.2ZM470.167 77.45C471.567 75.3033 473.317 73.6233 475.417 72.41C477.517 71.15 479.851 70.52 482.417 70.52V83.19H479.127C476.141 83.19 473.901 83.8433 472.407 85.15C470.914 86.41 470.167 88.65 470.167 91.87V110H458.197V70.94H470.167V77.45ZM539.793 89.84C539.793 90.96 539.723 92.1267 539.583 93.34H512.493C512.679 95.7667 513.449 97.6333 514.803 98.94C516.203 100.2 517.906 100.83 519.913 100.83C522.899 100.83 524.976 99.57 526.143 97.05H538.883C538.229 99.6167 537.039 101.927 535.313 103.98C533.633 106.033 531.509 107.643 528.943 108.81C526.376 109.977 523.506 110.56 520.333 110.56C516.506 110.56 513.099 109.743 510.113 108.11C507.126 106.477 504.793 104.143 503.113 101.11C501.433 98.0767 500.593 94.53 500.593 90.47C500.593 86.41 501.409 82.8633 503.043 79.83C504.723 76.7967 507.056 74.4633 510.043 72.83C513.029 71.1967 516.459 70.38 520.333 70.38C524.113 70.38 527.473 71.1733 530.413 72.76C533.353 74.3467 535.639 76.61 537.273 79.55C538.953 82.49 539.793 85.92 539.793 89.84ZM527.543 86.69C527.543 84.6367 526.843 83.0033 525.443 81.79C524.043 80.5767 522.293 79.97 520.193 79.97C518.186 79.97 516.483 80.5533 515.083 81.72C513.729 82.8867 512.889 84.5433 512.563 86.69H527.543ZM569.208 110L561.718 99.15L555.418 110H542.468L555.348 90.05L542.118 70.94H555.558L563.048 81.72L569.348 70.94H582.298L569.208 90.61L582.648 110H569.208ZM599.23 76.47C600.397 74.65 602.007 73.18 604.06 72.06C606.113 70.94 608.517 70.38 611.27 70.38C614.49 70.38 617.407 71.1967 620.02 72.83C622.633 74.4633 624.687 76.7967 626.18 79.83C627.72 82.8633 628.49 86.3867 628.49 90.4C628.49 94.4133 627.72 97.96 626.18 101.04C624.687 104.073 622.633 106.43 620.02 108.11C617.407 109.743 614.49 110.56 611.27 110.56C608.563 110.56 606.16 110 604.06 108.88C602.007 107.76 600.397 106.313 599.23 104.54V128.62H587.26V70.94H599.23V76.47ZM616.31 90.4C616.31 87.4133 615.47 85.08 613.79 83.4C612.157 81.6733 610.127 80.81 607.7 80.81C605.32 80.81 603.29 81.6733 601.61 83.4C599.977 85.1267 599.16 87.4833 599.16 90.47C599.16 93.4567 599.977 95.8133 601.61 97.54C603.29 99.2667 605.32 100.13 607.7 100.13C610.08 100.13 612.11 99.2667 613.79 97.54C615.47 95.7667 616.31 93.3867 616.31 90.4ZM671.59 89.84C671.59 90.96 671.52 92.1267 671.38 93.34H644.29C644.476 95.7667 645.246 97.6333 646.6 98.94C648 100.2 649.703 100.83 651.71 100.83C654.696 100.83 656.773 99.57 657.94 97.05H670.68C670.026 99.6167 668.836 101.927 667.11 103.98C665.43 106.033 663.306 107.643 660.74 108.81C658.173 109.977 655.303 110.56 652.13 110.56C648.303 110.56 644.896 109.743 641.91 108.11C638.923 106.477 636.59 104.143 634.91 101.11C633.23 98.0767 632.39 94.53 632.39 90.47C632.39 86.41 633.206 82.8633 634.84 79.83C636.52 76.7967 638.853 74.4633 641.84 72.83C644.826 71.1967 648.256 70.38 652.13 70.38C655.91 70.38 659.27 71.1733 662.21 72.76C665.15 74.3467 667.436 76.61 669.07 79.55C670.75 82.49 671.59 85.92 671.59 89.84ZM659.34 86.69C659.34 84.6367 658.64 83.0033 657.24 81.79C655.84 80.5767 654.09 79.97 651.99 79.97C649.983 79.97 648.28 80.5533 646.88 81.72C645.526 82.8867 644.686 84.5433 644.36 86.69H659.34ZM689.874 77.45C691.274 75.3033 693.024 73.6233 695.124 72.41C697.224 71.15 699.558 70.52 702.124 70.52V83.19H698.834C695.848 83.19 693.608 83.8433 692.114 85.15C690.621 86.41 689.874 88.65 689.874 91.87V110H677.904V70.94H689.874V77.45ZM729.616 99.85V110H723.526C719.186 110 715.803 108.95 713.376 106.85C710.949 104.703 709.736 101.227 709.736 96.42V80.88H704.976V70.94H709.736V61.42H721.706V70.94H729.546V80.88H721.706V96.56C721.706 97.7267 721.986 98.5667 722.546 99.08C723.106 99.5933 724.039 99.85 725.346 99.85H729.616ZM754.063 110.56C750.237 110.56 746.783 109.743 743.703 108.11C740.67 106.477 738.267 104.143 736.493 101.11C734.767 98.0767 733.903 94.53 733.903 90.47C733.903 86.4567 734.79 82.9333 736.563 79.9C738.337 76.82 740.763 74.4633 743.843 72.83C746.923 71.1967 750.377 70.38 754.203 70.38C758.03 70.38 761.483 71.1967 764.563 72.83C767.643 74.4633 770.07 76.82 771.843 79.9C773.617 82.9333 774.503 86.4567 774.503 90.47C774.503 94.4833 773.593 98.03 771.773 101.11C770 104.143 767.55 106.477 764.423 108.11C761.343 109.743 757.89 110.56 754.063 110.56ZM754.063 100.2C756.35 100.2 758.287 99.36 759.873 97.68C761.507 96 762.323 93.5967 762.323 90.47C762.323 87.3433 761.53 84.94 759.943 83.26C758.403 81.58 756.49 80.74 754.203 80.74C751.87 80.74 749.933 81.58 748.393 83.26C746.853 84.8933 746.083 87.2967 746.083 90.47C746.083 93.5967 746.83 96 748.323 97.68C749.863 99.36 751.777 100.2 754.063 100.2Z" fill="#A8A8A8"/>
</g>
<defs>
<clipPath id="clip0">
<rect width="786" height="193" fill="white"/>
</clipPath>
<clipPath id="clip1">
<rect width="172" height="172" fill="white" transform="translate(0 11)"/>
</clipPath>
</defs>
</svg>
