<svg width="80" height="92" viewBox="0 0 80 92" fill="none" xmlns="http://www.w3.org/2000/svg">
<g filter="url(#filter0_d)">
<rect x="14" y="8.05127" width="48" height="48.0986" rx="15" fill="white"/>
</g>
<path d="M51.8877 26.1504C51.749 25.9126 51.501 25.7612 51.2289 25.745C50.8262 25.7045 49.7468 25.237 48.5163 23.7499C48.2168 23.3879 47.9102 22.9872 47.5859 22.5627C46.2647 20.8345 44.767 18.8758 42.7213 18.2202C41.5261 17.837 40.22 18.2017 39.0438 19.2472C38.7795 19.4819 38.3991 19.6167 38 19.6167C37.6008 19.6167 37.2203 19.4819 36.956 19.2472C35.7798 18.2017 34.4739 17.8372 33.2787 18.2202C31.2328 18.8758 29.7353 20.8345 28.4141 22.5627C28.0896 22.9869 27.7833 23.3879 27.4838 23.7499C26.2529 25.2372 25.1734 25.7047 24.7709 25.745C24.5227 25.7599 24.2943 25.8869 24.1504 26.0909C24.003 26.3 23.9611 26.5661 24.0374 26.8106C24.0416 26.8243 24.4954 28.2298 25.603 30.017C26.5532 31.5502 28.1797 33.6529 30.6172 35.1829V38.7312C30.6172 42.8104 33.929 46.1293 38 46.1293C42.071 46.1293 45.3828 42.8104 45.3828 38.7312V35.1833C50.1086 32.2208 51.8629 27.1113 51.9569 26.8286C52.0321 26.6055 52.0088 26.3578 51.8877 26.1504ZM24.772 25.7447C24.7833 25.7439 24.7893 25.7439 24.7897 25.7439C24.7838 25.7441 24.778 25.7445 24.772 25.7447ZM31.0739 27.3558C32.2689 26.425 34.5171 24.8964 35.4919 24.674C35.9176 24.5766 36.3329 24.7626 36.6063 24.9356C36.9874 25.1768 37.4824 25.3096 38 25.3096C38.5176 25.3096 39.0126 25.1768 39.3935 24.9356C39.6669 24.7626 40.0822 24.5768 40.508 24.674C41.4827 24.8964 43.7309 26.4248 44.9259 27.3558C44.793 27.6227 44.5999 27.9734 44.3395 28.3587C42.3415 27.3352 39.9688 27.3742 37.9998 28.4773C36.031 27.3742 33.6583 27.3352 31.6603 28.3587C31.3997 27.9732 31.2066 27.6227 31.0739 27.3558ZM43.7422 38.7312C43.7422 41.9038 41.1661 44.4853 38 44.4853C34.8337 44.4853 32.2576 41.9038 32.2576 38.7312V29.9015C33.7916 29.0514 35.6457 29.052 37.1797 29.9021V38.7312C37.1797 39.1852 37.5469 39.5532 38 39.5532C38.4529 39.5532 38.8203 39.1852 38.8203 38.7312V29.9021C40.3544 29.052 42.2082 29.0514 43.7422 29.9015V38.7312ZM45.3828 33.1897V29.7221C46.3023 28.503 46.686 27.4356 46.7028 27.3881C46.816 27.0681 46.7212 26.711 46.4642 26.4899C45.7471 25.8725 42.5258 23.4485 40.8724 23.0709C40.1117 22.8973 39.2751 23.0657 38.5172 23.5457C38.4258 23.6037 38.2416 23.6655 38 23.6655C37.7582 23.6655 37.5743 23.6037 37.4826 23.5457C36.7247 23.0657 35.8883 22.8973 35.1274 23.0709C33.474 23.4485 30.2527 25.8725 29.5356 26.4899C29.2786 26.711 29.1838 27.0681 29.297 27.3881C29.3139 27.4356 29.6975 28.503 30.617 29.7221V33.1893C28.9266 31.913 27.7467 30.3555 27.0116 29.1738C26.4981 28.3482 26.1401 27.6165 25.9128 27.0989C26.6273 26.7881 27.6354 26.1418 28.7465 24.7992C29.0663 24.4128 29.382 23.9999 29.7163 23.5626C30.891 22.0262 32.2224 20.2848 33.7784 19.786C34.575 19.5307 35.3541 20.0209 35.8674 20.4773C36.4359 20.9824 37.1932 21.2607 37.9998 21.2607C38.8064 21.2607 39.5637 20.9824 40.1322 20.4773C40.6455 20.0211 41.4248 19.5309 42.2212 19.786C43.7773 20.2848 45.1088 22.0262 46.2835 23.5626C46.6178 23.9999 46.9335 24.4128 47.2531 24.7992C48.3627 26.1401 49.3695 26.7864 50.0839 27.0978C49.4947 28.4319 48.0405 31.1837 45.3828 33.1897ZM51.2103 25.7439C51.2107 25.7439 51.2165 25.7439 51.2278 25.7447C51.222 25.7445 51.2161 25.7443 51.2103 25.7439Z" fill="#7A76FF"/>
<path d="M18.4866 74.7713C18.1086 74.0433 17.5836 73.4973 16.9116 73.1333C16.2396 72.7553 15.4626 72.5663 14.5806 72.5663C13.6146 72.5663 12.7536 72.7833 11.9976 73.2173C11.2416 73.6513 10.6466 74.2673 10.2126 75.0653C9.79263 75.8633 9.58263 76.7873 9.58263 77.8373C9.58263 78.8873 9.79263 79.8183 10.2126 80.6303C10.6466 81.4283 11.2416 82.0443 11.9976 82.4783C12.7536 82.9123 13.6146 83.1293 14.5806 83.1293C15.8826 83.1293 16.9396 82.7653 17.7516 82.0373C18.5636 81.3093 19.0606 80.3223 19.2426 79.0763H13.7616V77.1653H21.8046V79.0343C21.6506 80.1683 21.2446 81.2113 20.5866 82.1633C19.9426 83.1153 19.0956 83.8783 18.0456 84.4523C17.0096 85.0123 15.8546 85.2923 14.5806 85.2923C13.2086 85.2923 11.9556 84.9773 10.8216 84.3473C9.68763 83.7033 8.78463 82.8143 8.11263 81.6803C7.45463 80.5463 7.12563 79.2653 7.12563 77.8373C7.12563 76.4093 7.45463 75.1283 8.11263 73.9943C8.78463 72.8603 9.68763 71.9783 10.8216 71.3483C11.9696 70.7043 13.2226 70.3823 14.5806 70.3823C16.1346 70.3823 17.5136 70.7673 18.7176 71.5373C19.9356 72.2933 20.8176 73.3713 21.3636 74.7713H18.4866ZM34.6448 73.5953V85.1663H32.2508V83.8013C31.8728 84.2773 31.3758 84.6553 30.7598 84.9353C30.1578 85.2013 29.5138 85.3343 28.8278 85.3343C27.9178 85.3343 27.0988 85.1453 26.3708 84.7673C25.6568 84.3893 25.0898 83.8293 24.6698 83.0873C24.2638 82.3453 24.0608 81.4493 24.0608 80.3993V73.5953H26.4338V80.0423C26.4338 81.0783 26.6928 81.8763 27.2108 82.4363C27.7288 82.9823 28.4358 83.2553 29.3318 83.2553C30.2278 83.2553 30.9348 82.9823 31.4528 82.4363C31.9848 81.8763 32.2508 81.0783 32.2508 80.0423V73.5953H34.6448ZM42.0035 85.3553C41.0935 85.3553 40.2745 85.1943 39.5465 84.8723C38.8325 84.5363 38.2655 84.0883 37.8455 83.5283C37.4255 82.9543 37.2015 82.3173 37.1735 81.6173H39.6515C39.6935 82.1073 39.9245 82.5203 40.3445 82.8563C40.7785 83.1783 41.3175 83.3393 41.9615 83.3393C42.6335 83.3393 43.1515 83.2133 43.5155 82.9613C43.8935 82.6953 44.0825 82.3593 44.0825 81.9533C44.0825 81.5193 43.8725 81.1973 43.4525 80.9873C43.0465 80.7773 42.3955 80.5463 41.4995 80.2943C40.6315 80.0563 39.9245 79.8253 39.3785 79.6013C38.8325 79.3773 38.3565 79.0343 37.9505 78.5723C37.5585 78.1103 37.3625 77.5013 37.3625 76.7453C37.3625 76.1293 37.5445 75.5693 37.9085 75.0653C38.2725 74.5473 38.7905 74.1413 39.4625 73.8473C40.1485 73.5533 40.9325 73.4063 41.8145 73.4063C43.1305 73.4063 44.1875 73.7423 44.9855 74.4143C45.7975 75.0723 46.2315 75.9753 46.2875 77.1233H43.8935C43.8515 76.6053 43.6415 76.1923 43.2635 75.8843C42.8855 75.5763 42.3745 75.4223 41.7305 75.4223C41.1005 75.4223 40.6175 75.5413 40.2815 75.7793C39.9455 76.0173 39.7775 76.3323 39.7775 76.7243C39.7775 77.0323 39.8895 77.2913 40.1135 77.5013C40.3375 77.7113 40.6105 77.8793 40.9325 78.0053C41.2545 78.1173 41.7305 78.2643 42.3605 78.4463C43.2005 78.6703 43.8865 78.9013 44.4185 79.1393C44.9645 79.3633 45.4335 79.6993 45.8255 80.1473C46.2175 80.5953 46.4205 81.1903 46.4345 81.9323C46.4345 82.5903 46.2525 83.1783 45.8885 83.6963C45.5245 84.2143 45.0065 84.6203 44.3345 84.9143C43.6765 85.2083 42.8995 85.3553 42.0035 85.3553ZM51.8143 75.5483V81.9533C51.8143 82.3873 51.9123 82.7023 52.1083 82.8983C52.3183 83.0803 52.6683 83.1713 53.1583 83.1713H54.6283V85.1663H52.7383C51.6603 85.1663 50.8343 84.9143 50.2603 84.4103C49.6863 83.9063 49.3993 83.0873 49.3993 81.9533V75.5483H48.0343V73.5953H49.3993V70.7183H51.8143V73.5953H54.6283V75.5483H51.8143ZM61.8538 85.3553C60.7618 85.3553 59.7748 85.1103 58.8928 84.6203C58.0108 84.1163 57.3178 83.4163 56.8138 82.5203C56.3098 81.6103 56.0578 80.5603 56.0578 79.3703C56.0578 78.1943 56.3168 77.1513 56.8348 76.2413C57.3528 75.3313 58.0598 74.6313 58.9558 74.1413C59.8518 73.6513 60.8528 73.4063 61.9588 73.4063C63.0648 73.4063 64.0658 73.6513 64.9618 74.1413C65.8578 74.6313 66.5648 75.3313 67.0828 76.2413C67.6008 77.1513 67.8598 78.1943 67.8598 79.3703C67.8598 80.5463 67.5938 81.5893 67.0618 82.4993C66.5298 83.4093 65.8018 84.1163 64.8778 84.6203C63.9678 85.1103 62.9598 85.3553 61.8538 85.3553ZM61.8538 83.2763C62.4698 83.2763 63.0438 83.1293 63.5758 82.8353C64.1218 82.5413 64.5628 82.1003 64.8988 81.5123C65.2348 80.9243 65.4028 80.2103 65.4028 79.3703C65.4028 78.5303 65.2418 77.8233 64.9198 77.2493C64.5978 76.6613 64.1708 76.2203 63.6388 75.9263C63.1068 75.6323 62.5328 75.4853 61.9168 75.4853C61.3008 75.4853 60.7268 75.6323 60.1948 75.9263C59.6768 76.2203 59.2638 76.6613 58.9558 77.2493C58.6478 77.8233 58.4938 78.5303 58.4938 79.3703C58.4938 80.6163 58.8088 81.5823 59.4388 82.2683C60.0828 82.9403 60.8878 83.2763 61.8538 83.2763Z" fill="#212429"/>
<defs>
<filter id="filter0_d" x="0" y="0.0512695" width="80" height="80.0986" filterUnits="userSpaceOnUse" color-interpolation-filters="sRGB">
<feFlood flood-opacity="0" result="BackgroundImageFix"/>
<feColorMatrix in="SourceAlpha" type="matrix" values="0 0 0 0 0 0 0 0 0 0 0 0 0 0 0 0 0 0 127 0"/>
<feOffset dx="2" dy="8"/>
<feGaussianBlur stdDeviation="8"/>
<feColorMatrix type="matrix" values="0 0 0 0 0.239216 0 0 0 0 0.243137 0 0 0 0 0.258824 0 0 0 0.105 0"/>
<feBlend mode="normal" in2="BackgroundImageFix" result="effect1_dropShadow"/>
<feBlend mode="normal" in="SourceGraphic" in2="effect1_dropShadow" result="shape"/>
</filter>
</defs>
</svg>
