<svg width="24" height="24" viewBox="0 0 24 24" fill="none" xmlns="http://www.w3.org/2000/svg">
<path d="M12 22C17.5228 22 22 17.5228 22 12C22 6.47715 17.5228 2 12 2C6.47715 2 2 6.47715 2 12C2 17.5228 6.47715 22 12 22Z" stroke="#686B6E" stroke-width="2" stroke-linecap="round" stroke-linejoin="round"/>
<path d="M9.08984 8.99972C9.32495 8.33138 9.789 7.76782 10.3998 7.40885C11.0106 7.04987 11.7287 6.91865 12.427 7.03843C13.1253 7.1582 13.7587 7.52124 14.2149 8.06324C14.6712 8.60525 14.9209 9.29124 14.9198 9.99972C14.9198 11.9997 11.9198 12.9997 11.9198 12.9997" stroke="#686B6E" stroke-width="2" stroke-linecap="round" stroke-linejoin="round"/>
<path d="M12 17H12.0125" stroke="#686B6E" stroke-width="2" stroke-linecap="round" stroke-linejoin="round"/>
</svg>
