<svg width="35" height="35" viewBox="0 0 35 35" fill="none" xmlns="http://www.w3.org/2000/svg">
<rect x="8.99091" y="8.34863" width="16.6972" height="16.6972" fill="white"/>
<path d="M17.5 0C7.83502 0 0 7.83502 0 17.5C0 27.165 7.83502 35 17.5 35C27.165 35 35 27.165 35 17.5C34.9897 7.83934 27.1607 0.0103272 17.5 0ZM24.8699 18.0576C24.7488 18.3006 24.5518 18.4976 24.3088 18.6188V18.625L14.3088 23.625C13.6912 23.9336 12.9404 23.6832 12.6318 23.0656C12.5441 22.89 12.4989 22.6962 12.5 22.5V12.5C12.4997 11.8097 13.059 11.2498 13.7494 11.2494C13.9436 11.2494 14.1351 11.2945 14.3088 11.3813L24.3088 16.3813C24.9266 16.6892 25.1779 17.4397 24.8699 18.0576Z" fill="#7A76FF"/>
</svg>
