<svg width="163" height="242" viewBox="0 0 163 242" fill="none" xmlns="http://www.w3.org/2000/svg">
<path fill-rule="evenodd" clip-rule="evenodd" d="M39 15.5C38.5 12.0002 53.6467 -3.30809 77.0496 6.01277C77.721 5.55553 78.597 5.4329 79.4365 5.96831C92.1849 13.9764 101.365 26.8152 105.344 41.2925C107.765 41.753 103.877 38.8281 105.978 40.1453C110.545 43.0081 113.618 47.5634 116.498 52.0001C117.364 53.3339 118.127 53.6972 116.499 54.0001C115.792 54.1319 117.196 55.4795 116.499 55.5001C116.669 56.1161 114.215 55.4541 114.499 56.0001C115.529 57.9762 115.322 53.0403 113.499 52.5001C113.297 52.6071 110.122 48.6439 112.999 58.0001C112.974 59.1195 108.137 54.2739 106.999 54.5001C105.159 54.8951 107.065 61.5594 107.499 59.5001C106.943 59.5979 109.676 65.2371 109.136 65.1692C109.076 66.2416 109.095 67.3606 108.947 68.3497C108.463 73.0115 103.807 76.1429 99.3668 74.7248C99.0945 76.1773 98.7746 78.2183 97.3446 79.0062C95.6726 83.6983 92.7856 89.0532 88.0569 91.1911C88.4779 92.27 88.2495 93.5826 86.9817 94.3046C78.3262 99.2412 67.9373 100.912 58.1516 99.0763C54.2408 98.8433 50.4304 97.9593 46.773 96.0758C44.106 94.7023 41.6541 92.9581 39.2607 91.16C36.8659 89.3613 34.3054 87.6098 32.394 85.2744C30.318 82.7379 29.3515 79.7535 28.7244 76.5772C25.8505 62.1595 26.8431 48.0028 32.0636 34.2686C33.5 27.4998 32.5401 32.5018 39 15.5Z" fill="white"/>
<path fill-rule="evenodd" clip-rule="evenodd" d="M101.213 54.1454L101.097 54.1193C99.7823 53.8359 96.3223 53.503 96.7393 55.7164C96.759 55.8204 96.9103 55.8077 96.9372 55.7164C97.3457 54.3247 100.12 55.4376 100.931 55.7727C102.047 56.2343 103.149 56.9153 104.061 57.7069C106.058 59.4404 107.396 61.8834 107.6 64.5366C107.801 67.1686 107.038 70.0115 105.14 71.9153C104.21 72.8484 103.022 73.4819 101.688 73.5286C100.49 73.5702 99.1658 72.6369 98.0599 73.1834C97.8419 73.2912 97.6692 73.587 97.6889 73.8306C97.7261 74.2915 97.9323 74.6504 98.2392 74.9288C96.3878 78.304 94.8725 81.8765 92.5108 84.9458C91.3257 86.4857 89.9828 87.9117 88.4621 89.1253C87.7393 89.7023 86.9534 90.2091 86.1431 90.6543C85.1935 91.1765 84.3717 91.5032 83.694 92.3879C83.1161 93.1423 83.6943 94.601 84.6469 94.7311C86.8904 95.0368 89.0706 93.2223 90.7176 91.863C92.3631 90.5049 93.7853 88.8297 94.9605 87.0522C97.2174 83.6389 98.7613 79.6122 99.3786 75.5384C100.095 75.7657 100.902 75.8351 101.509 75.8364C103.124 75.8402 104.666 75.259 105.935 74.2768C110.582 70.6818 111.098 63.3005 107.819 58.6457C106.25 56.4184 103.866 54.7728 101.213 54.1454ZM101.184 62.7064C100.106 62.6118 99.0296 62.7819 98.017 63.1494L97.5996 63.3008C96.7178 63.6233 95.7791 64.0026 95.1422 64.6639C94.1692 65.6747 95.1381 67.4261 96.5241 67.0387C98.0566 66.6104 99.3022 65.3193 100.834 64.7777C102.204 64.2938 103.755 64.3623 104.97 65.1958C105.131 65.3059 105.342 65.0887 105.237 64.9288C104.307 63.5127 102.839 62.8515 101.184 62.7064Z" fill="black"/>
<path fill-rule="evenodd" clip-rule="evenodd" d="M11.0932 152.178C11.7765 150.302 10.7787 148.43 10.2252 146.614C8.25904 140.318 6.11236 134.021 3.07512 128.15C1.92469 126.185 3.81735 123.776 6.01057 124.33C9.76525 124.856 13.6369 124.437 17.3981 124.205C18.7737 120.645 22.4448 119.168 25.3342 117.118C28.613 115.07 31.8025 112.719 35.2125 110.924C35.4021 109.228 37.4577 108.808 38.7147 110.021C42.1671 107.873 46.3071 108.272 50.0078 106.864C52.8199 102.317 53.0309 97.5357 53.7754 93.149C54.0999 91.2368 53.7551 89.3918 55.0613 87.6869C59.4488 81.5137 76.7849 78.8371 83.1767 82.4953C86.6173 80.3487 86.7002 84.2365 87.2467 86.6359C87.8541 87.8364 88.1827 89.1959 88.0811 90.6283C91.7769 98.3506 100.232 101.842 107.804 104.67C108.754 103.755 110.112 103.871 111.016 104.628C117.579 106.055 123.949 108.564 129.448 112.482C135.696 114.31 140.096 119.393 143.277 124.844C143.628 125.418 143.71 126.004 143.608 126.542C153.392 140.889 158.061 158.065 158.717 175.413C165.009 179.191 155.727 213.125 153.566 220.17C153.564 220.169 153.562 220.168 153.56 220.167C152.158 222.65 150.566 229.734 147.058 229.186C144.651 231.908 140.816 231.373 137.55 231.582C138.082 233.623 137.821 235.959 137.188 237.976C136.439 240.377 132.765 240.458 132.243 237.841C99.7216 244.162 66.3527 239.118 33.4653 240.067C23.9565 240.134 14.4485 240.429 4.96257 241.106C3.62685 241.202 2.27264 239.836 2.36355 238.506C4.40301 216.8 6.3183 188.245 8.59894 166.751C9.1398 161.849 9.56758 156.894 11.0932 152.178Z" fill="white"/>
<path fill-rule="evenodd" clip-rule="evenodd" d="M86.7095 83.8344C86.6162 83.5799 86.236 83.6136 86.2289 83.8995C86.079 90.0026 87.5979 97.4608 92.4797 101.583C94.9857 103.699 98.2988 104.668 101.341 105.781L101.685 105.907L107.06 107.911C108.486 108.442 110.024 109.259 111.283 108.509C110.264 111.037 109.409 113.634 108.168 116.071C106.623 119.104 104.755 121.879 102.469 124.403C93.4118 134.402 79.0781 137.451 66.2152 134.522C59.5916 133.013 53.1464 130.154 48.6275 124.939C45.1931 120.975 43.22 115.655 42.7551 110.407C42.891 110.429 43.0334 110.428 43.1798 110.396C44.8073 110.041 46.4503 109.168 47.8824 108.312L48.0203 108.229C49.3982 107.4 50.8344 106.449 51.8233 105.16C52.478 104.306 53.1489 102.487 53.836 99.7027C54.1168 98.1331 54.3802 95.006 54.3351 93.4194C54.3309 93.2697 53.667 93.1814 53.5961 93.3369C52.9826 94.6839 52.7843 97.6434 52.3107 99.0454L52.2151 99.3252C51.7095 100.789 51.2759 102.572 50.2274 103.755C48.2591 105.978 45.2893 106.918 42.6385 108.033C42.4482 105.521 38.438 105.58 38.4889 108.199C38.4917 108.341 38.498 108.483 38.503 108.624C38.1868 108.798 37.8826 108.997 37.5983 109.189L37.3208 109.378C36.2709 110.092 35.2129 110.771 34.0948 111.377C31.9303 112.551 29.6388 113.481 27.421 114.547C25.1773 115.625 23.0789 116.909 21.1197 118.446C20.1995 119.168 19.3171 119.936 18.4803 120.753L18.2532 120.977C17.4566 121.771 16.4201 122.658 15.9662 123.701C15.8662 123.931 15.365 124.466 15.0931 124.484C10.8793 124.76 6.67455 125.151 2.48723 125.736C1.40313 125.887 0.974618 126.446 1.37533 127.35C2.75237 130.456 8.14329 142.862 9.57687 146.191C9.40942 148.637 9.63558 151.516 9.48465 153.963C9.26392 157.533 8.9749 161.102 8.62847 164.662C7.38887 177.397 5.50968 190.07 3.81165 202.75C2.96176 209.095 2.1869 215.451 1.42204 221.807C1.03581 225.019 0.708082 228.235 0.455813 231.461C0.350729 232.805 0.255397 234.15 0.171359 235.496L0.0989183 236.689C-0.000791039 238.191 -0.230882 239.626 0.698298 240.915C1.11954 241.5 2.08165 241.829 2.63555 241.165C3.3319 240.33 3.5907 239.706 3.65725 238.609C3.70814 237.769 3.72031 236.925 3.75859 236.084C3.84123 234.262 3.94518 232.441 4.06696 230.621C4.30988 226.982 4.58716 223.343 4.90837 219.711C6.03423 206.972 8.17395 194.329 9.59774 181.622C10.3154 175.216 10.8252 168.797 11.095 162.356C11.2301 159.139 11.279 155.922 11.2473 152.703C11.2353 151.5 11.1783 150.303 11.0959 149.109C13.2289 153.956 15.4713 158.757 17.8156 163.493L18.3713 164.615C19.857 167.609 21.3826 170.615 23.1682 173.437L23.475 173.918C24.1985 175.065 25.1867 176.872 26.5059 177.234C27.4247 177.486 28.5475 177.309 29.4896 177.291C30.4245 177.273 31.3605 177.269 32.2948 177.231C33.3428 177.189 34.3427 177.051 35.3555 176.778C35.5238 176.733 35.683 176.684 35.8281 176.621C36.8485 178.291 38.5822 179.564 40.3548 180.305C41.7747 180.899 43.2628 181.306 44.7534 181.682L45.2795 181.814C46.8775 182.213 48.7056 182.402 49.6068 183.946L49.8161 184.304C50.4862 185.442 51.129 186.442 52.238 187.259C53.4317 188.138 54.8459 188.691 56.2547 189.121C57.6972 189.562 59.1733 189.899 60.638 190.26L61.0372 190.359C62.0041 190.601 62.9796 190.823 63.9409 191.087C64.3508 191.199 64.7681 191.315 65.1705 191.453C65.6415 191.615 65.9838 191.868 66.3555 192.143C66.6895 193.31 68.1172 193.944 69.2912 193.863C69.9077 193.82 70.4607 193.611 70.964 193.304C71.8423 194.052 72.8094 194.722 73.7048 195.415C74.9585 196.385 76.2173 197.349 77.4829 198.304C80.0926 200.272 82.7221 202.213 85.379 204.117C90.0949 207.495 94.9128 210.719 99.8131 213.824C101.856 215.118 103.913 216.411 105.99 217.672L105.769 217.754L105.329 217.921C104.29 218.309 103.132 218.936 102.93 220.149C102.771 221.111 103.308 221.774 104.257 221.891C105.386 222.031 106.264 221.233 106.966 220.472C107.277 220.136 107.624 219.824 107.921 219.478C108.042 219.337 108.135 219.175 108.217 219.004C110.267 220.212 112.338 221.38 114.443 222.472L114.97 222.743C120.188 225.413 125.268 228.338 130.531 230.932C131.904 231.608 133.578 232.34 135.323 232.84C134.86 234.635 134.867 236.606 134.855 238.428C134.844 240.204 137.665 240.195 137.605 238.428L137.577 237.575C137.525 236.139 137.441 234.65 137.101 233.253C142.242 234.106 147.377 232.253 148.333 231.696C149.389 231.082 150.347 230.1 151.144 229.188C152.85 227.237 154.034 224.899 155.084 222.547C157.334 217.509 158.928 212.124 160.094 206.738C164.391 186.883 162.542 165.631 155.565 146.598C153.822 141.842 151.763 137.192 149.405 132.709L149.112 132.155C146.759 127.722 144.143 123.307 140.82 119.534C137.359 115.606 133.09 112.55 128.442 110.178C126.173 109.021 123.839 108.018 121.453 107.129C121.07 106.986 120.684 106.858 120.298 106.735C117.812 105.15 114.794 103.633 111.776 103.693C111.571 103.696 111.405 103.774 111.281 103.892C111.135 103.917 110.99 103.948 110.844 103.99C110.523 104.084 110.183 104.436 110.229 104.799L110.245 104.919C110.253 104.978 110.264 105.035 110.282 105.09C110.174 105.106 110.069 105.132 109.965 105.168C107.077 104.352 104.236 103.104 101.418 102.098L100.776 101.871C98.4157 101.043 95.9942 100.232 94.0581 98.5949C92.132 96.9658 90.6836 94.8557 89.6365 92.5746C88.3464 89.7642 87.7688 86.7197 86.7095 83.8344ZM28.8922 232.061C28.3204 231.636 27.6443 232.13 27.4303 232.657C26.7279 234.385 27.075 237.071 28.0651 238.599C29.0912 240.183 31.5471 239.558 31.6064 237.64C31.6684 235.64 30.5063 233.264 28.8922 232.061ZM22.986 184.332C22.9346 184.107 22.5858 184.109 22.5336 184.332C22.0576 186.36 22.0687 188.544 21.9289 190.624L21.9127 190.855C21.7451 193.148 21.6041 195.447 21.5037 197.745C21.3064 202.264 21.0707 206.784 20.8065 211.301C20.6753 213.54 20.5348 215.78 20.385 218.018C19.9157 217.757 19.4322 217.527 18.9312 217.324C18.1805 217.021 17.4495 216.986 16.6429 216.994C15.6606 217.004 14.921 217.868 15.051 218.831C15.1928 219.88 16.1156 220.329 17.0737 220.179C18.135 220.013 19.2008 219.755 20.2723 219.649C20.1529 221.38 20.0296 223.11 19.8989 224.84C19.7256 227.129 19.4997 229.416 19.3409 231.707C19.3257 231.926 19.3094 232.144 19.2926 232.364C18.6537 232.031 17.9752 231.861 17.2062 231.652L17.0061 231.596C15.8897 231.275 14.6952 230.831 13.6618 231.582C12.9672 232.087 12.8284 232.918 13.4039 233.584C14.2764 234.595 15.5673 234.399 16.7725 234.347L17.4208 234.324C18.0319 234.3 18.5956 234.261 19.1604 234.106C19.0567 235.599 19.0021 237.096 19.185 238.567C19.2839 239.362 20.3298 239.57 20.6066 238.759C21.3297 236.64 21.4791 234.355 21.7438 232.136C21.9909 230.063 22.1411 227.976 22.303 225.893L22.352 225.269C22.7161 220.689 23.0073 216.106 23.22 211.516C23.4329 206.927 23.5608 202.338 23.6116 197.745C23.6348 195.659 23.6002 193.566 23.5186 191.48L23.4927 190.855C23.3987 188.71 23.4644 186.434 22.986 184.332ZM118.549 232.4C118.521 232.107 118.286 231.742 117.937 231.788C117.616 231.83 117.284 231.81 116.966 231.863C116.546 231.932 116.208 232.181 115.818 232.337C115.183 232.591 114.491 232.722 113.84 232.93C112.618 233.32 111.952 234.607 112.458 235.808C112.99 237.072 114.327 237.358 115.483 236.828C116.393 236.411 117.072 235.743 117.685 234.97L117.858 234.749C118.122 234.417 118.421 234.047 118.532 233.644C118.64 233.252 118.587 232.798 118.549 232.4ZM59.1793 226.46C57.6572 226.246 56.3572 226.767 54.9488 227.257L54.8344 227.297C53.401 227.792 51.3096 228.134 50.5749 229.602C50.1317 230.487 50.476 231.662 51.519 231.924C53.1709 232.339 54.652 231.131 56.0178 230.318L56.0896 230.275C57.408 229.503 58.7687 228.854 59.6105 227.521C59.8352 227.165 59.6403 226.525 59.1793 226.46ZM112.312 105.369C112.922 105.505 113.532 105.626 114.141 105.742C116.458 106.985 118.707 108.274 121.1 109.381C123.638 110.556 126.167 111.769 128.578 113.19C133.449 116.06 137.465 119.793 140.783 124.368C146.515 132.271 150.778 141.384 153.83 150.632C154.614 153.007 155.315 155.41 155.936 157.833C154.839 156.817 153.539 156.193 152.083 155.659C151.465 155.432 150.697 155.815 150.384 156.35C150.243 156.59 150.164 156.828 150.178 157.11C150.211 157.731 150.615 158.438 151.283 158.561C152.839 158.848 154.353 159.407 155.853 159.898C156.081 159.973 156.276 159.945 156.433 159.857C157.922 166.17 158.855 172.613 159.185 179.095C159.464 184.583 159.292 190.114 158.684 195.594C158.217 195.384 157.76 195.187 157.249 195.068C156.585 194.913 155.931 194.726 155.284 194.513C153.415 193.9 152.562 196.987 154.473 197.457C155.184 197.632 155.899 197.777 156.623 197.884C157.255 197.976 157.813 197.936 158.408 197.839C157.954 201.257 157.332 204.652 156.541 207.997L156.367 208.73C155.339 213.003 154.141 217.316 152.409 221.355C151.559 223.336 150.434 225.217 149.045 226.869C148.363 227.681 147.606 228.377 146.78 229.037C146.092 229.586 143.754 230.777 140.986 230.777C138.218 230.777 137.468 230.515 136.072 230.034C133.309 229.083 130.687 227.565 128.097 226.213L127.829 226.073C126.683 225.48 125.542 224.879 124.404 224.272C124.548 223.111 124.296 222.137 123.692 221.064C123.038 219.905 121.419 220.482 121.299 221.669L121.295 221.714C121.276 221.981 121.232 222.254 121.176 222.526C113.566 218.356 106.118 213.894 98.7879 209.244C94.0664 206.249 89.3951 203.164 84.792 199.989C82.4909 198.402 80.2098 196.786 77.9514 195.139C76.7683 194.276 75.5907 193.406 74.4185 192.529C73.9303 192.163 73.4514 191.78 72.9621 191.412C73.0811 191.263 73.197 191.115 73.3092 190.968C75.1364 188.574 76.3219 185.722 76.9125 182.779C77.2692 181.003 77.4414 179.16 77.4938 177.349L77.5169 176.562C77.553 175.236 77.5624 173.848 77.3181 172.563C77.6506 172.745 77.9903 172.925 78.3289 173.117C79.5439 173.805 80.7601 174.492 81.9781 175.176C84.4173 176.545 86.8637 177.898 89.3411 179.196C93.7663 181.515 98.2349 183.721 102.824 185.699L105.057 186.661C108.933 188.329 112.84 189.967 116.87 191.206C119.143 191.905 121.433 192.503 123.738 193.036L122.806 194.129C122.174 194.87 122.162 195.932 122.97 196.556C123.765 197.169 124.83 196.914 125.359 196.1L126.324 194.616C126.53 194.298 126.647 194.001 126.713 193.688C127.775 193.91 128.84 194.124 129.908 194.33L131.926 194.716C134.808 195.272 137.602 196.374 140.178 197.784C141.074 198.274 141.323 197.322 140.375 196.658C137.6 194.718 134.364 193.62 131.025 192.699L130.861 192.654C129.636 192.318 128.413 191.968 127.193 191.606C127.327 191.12 127.404 190.616 127.389 190.061C127.354 188.823 127.245 187.581 127.179 186.344C127.041 183.748 126.866 181.161 126.659 178.569C126.58 177.571 126.491 176.57 126.39 175.57C127.044 175.219 127.609 174.753 128.338 174.524L128.461 174.488C129.242 174.278 128.978 173.272 128.285 173.186C127.657 173.108 127.033 173.144 126.414 173.277C126.318 173.298 126.227 173.321 126.14 173.347C126.027 172.421 125.901 171.497 125.757 170.578C125.378 168.151 125.11 165.593 124.321 163.261C124.263 163.088 124.006 163.026 123.911 163.207C122.763 165.392 122.723 168.071 122.594 170.504L122.578 170.794C122.426 173.448 122.417 176.128 122.466 178.785C122.516 181.524 122.61 184.256 122.733 186.992C122.782 188.093 122.78 189.237 122.968 190.29C116.138 188.069 109.428 185.41 102.997 182.262C98.46 180.041 93.9624 177.732 89.5162 175.335C87.2884 174.135 85.0502 172.954 82.8247 171.749C82.045 171.326 81.2659 170.902 80.4871 170.478L79.3191 169.841C78.2261 169.244 77.3138 168.65 76.0407 168.609C75.6612 168.596 75.3208 168.774 75.0792 169.043C74.395 168.558 73.6043 168.26 72.7744 168.267C71.5253 166.541 70.257 164.829 68.9382 163.154L67.9639 161.914C66.2776 159.775 64.4914 157.603 62.3411 155.975C61.3814 155.248 60.3258 154.703 59.225 154.253C59.484 154.19 59.7375 154.062 59.9635 153.853C61.015 152.877 61.1598 151.066 61.3734 149.705C61.595 148.293 61.5093 147.03 61.2905 145.623C61.2055 145.077 60.3004 144.963 60.0794 145.465C59.6138 146.524 59.1207 147.538 58.697 148.609L58.5721 148.932C58.1174 150.137 57.1487 151.405 57.2127 152.713C57.2301 153.071 57.3501 153.383 57.5354 153.634C56.6114 153.327 55.6741 153.054 54.7511 152.768C51.8463 151.87 48.9304 150.998 45.9697 150.301C45.1816 150.116 44.3896 149.944 43.5943 149.786C43.1776 147.807 42.5704 145.864 41.8545 143.957C42.5324 143.61 42.9712 143.027 43.5549 142.509C44.1012 142.024 44.4766 141.433 44.9426 140.877C45.3669 140.37 45.1286 139.454 44.3661 139.484L44.1501 139.493C43.3602 139.53 42.5951 139.611 41.8789 139.98L41.6237 140.112C41.2737 140.294 40.8906 140.502 40.5494 140.748C40.1034 139.721 39.6396 138.704 39.1708 137.698L38.5625 136.396C36.9853 133.008 35.4125 129.492 33.4324 126.337C32.5521 124.935 31.3805 124.059 29.699 123.923C27.9675 123.784 26.1673 123.964 24.4334 124.026C22.4232 124.098 20.4138 124.183 18.4056 124.289C18.9204 123.75 19.3901 123.149 19.9071 122.632C20.7652 121.773 21.6719 120.96 22.6248 120.208C24.511 118.719 26.5848 117.493 28.7389 116.437C30.8934 115.381 33.1112 114.46 35.1337 113.155C36.4135 112.329 37.5574 111.29 38.6011 110.166C39.2581 117.256 42.6805 123.843 47.822 128.792C53.1622 133.932 60.542 136.756 67.7612 137.957C75.1249 139.182 82.8102 138.733 89.8544 136.172C93.4864 134.852 96.9699 132.966 100.076 130.6C100.111 130.806 100.152 131.009 100.232 131.2C100.341 131.457 100.473 131.676 100.625 131.902L100.896 132.298C101.067 132.547 101.241 132.794 101.435 133.025C101.904 133.584 102.569 133.829 103.286 133.827C104.658 133.822 105.697 132.476 105.328 131.145C105.096 130.309 104.599 129.805 103.824 129.478C103.579 129.374 103.33 129.287 103.078 129.202L102.89 129.138C102.636 129.051 102.384 128.968 102.123 128.92C103.594 127.622 104.959 126.209 106.181 124.685C110.015 119.905 113.796 113.21 112.514 106.862C112.492 106.753 112.394 106.685 112.288 106.667C112.214 106.222 111.977 105.791 111.652 105.501C111.87 105.444 112.091 105.399 112.312 105.369ZM72.5061 215.126C71.7469 214.704 70.9627 215.707 71.5797 216.327L72.5008 217.249C73.3557 218.108 74.1878 218.977 74.9196 219.957L75.0968 220.196C76.0846 221.54 77.138 223.098 78.7565 223.6C80.7142 224.208 82.5956 221.823 81.4619 220.08C80.4715 218.557 78.5645 217.982 76.9204 217.353C75.365 216.757 73.9601 215.935 72.5061 215.126ZM135.661 208.098C135.215 207.514 134.052 207.822 134.356 208.648C135.346 211.333 135.749 214.993 138.249 216.776C139.055 217.351 140.322 217.087 140.986 216.423C141.74 215.668 141.771 214.605 141.339 213.685C140.813 212.561 139.519 211.747 138.612 210.892L138.53 210.814C137.554 209.865 136.499 209.196 135.661 208.098ZM31.1891 211.188C30.393 210.844 28.318 210.177 27.7031 210.967C27.6744 210.996 27.6498 211.027 27.63 211.062C27.4793 211.324 27.4569 211.694 27.63 211.954C28.3466 213.032 29.0929 213.836 30.1117 214.602L30.226 214.688C31.3351 215.503 32.377 216.461 33.7284 216.829C35.6015 217.339 36.9098 214.993 35.5943 213.623C34.5345 212.519 32.9166 211.946 31.5123 211.331L31.1891 211.188ZM106.41 195.85C106.723 195.284 106.083 194.588 105.503 194.943C103.849 195.954 101.923 196.713 100.065 197.258C99.3131 197.478 98.6348 198.241 98.6907 199.063L98.6995 199.188C98.7216 199.478 98.7617 199.767 98.9462 200.008C99.5932 200.855 100.519 201.181 101.507 200.68C103.71 199.564 105.218 198.005 106.41 195.85ZM58.0703 194.134C58.1105 193.896 57.9363 193.712 57.6943 193.758C56.2966 194.023 55.0057 194.698 53.8054 195.475C53.1617 195.891 52.5408 196.348 51.8986 196.769C51.1053 197.288 50.8082 197.717 50.691 198.67C50.6136 199.298 51.2005 199.873 51.7388 200.046C53.2058 200.52 54.8866 198.967 55.8804 197.958L55.9251 197.912C56.9655 196.852 57.8237 195.597 58.0703 194.134ZM16.0912 192.486C16.4098 191.626 15.3117 190.912 14.5936 191.335C13.9175 191.733 13.184 192.063 12.5461 192.519C11.96 192.938 11.4256 193.434 10.8635 193.889L10.5857 194.109C9.55492 194.938 7.85343 196.988 9.3273 198.178C10.7301 199.31 12.59 197.864 13.5315 196.807L13.5972 196.732C14.1389 196.106 14.8068 195.426 15.1997 194.695C15.5696 194.007 15.8206 193.217 16.0912 192.486ZM29.9248 125.86C31.6817 126.201 32.3979 128.37 33.1377 129.784C34.8838 133.122 36.4896 136.52 38.1024 139.923C38.5989 140.97 39.0824 142.024 39.5701 143.077C39.5999 143.16 39.6382 143.241 39.6832 143.321C40.6825 145.473 41.7116 147.611 42.9145 149.655C41.8136 149.448 40.7071 149.273 39.5965 149.134C39.6525 148.088 38.9364 146.688 38.5823 145.807L38.5528 145.733C38.1111 144.604 37.6481 142.826 36.5112 142.241C36.1323 142.046 35.7272 142.29 35.698 142.707C35.6119 143.95 36.8265 145.372 37.4202 146.426C37.7793 147.064 38.1292 147.704 38.4702 148.352C38.598 148.594 38.7048 148.833 38.836 149.046C38.2631 148.984 37.6897 148.929 37.1147 148.889L36.74 148.863C34.6082 148.723 32.3442 148.682 30.4182 149.734C28.6312 150.709 27.7178 152.792 28.6995 154.688C29.9226 157.05 32.6158 157.363 34.9841 157.554C37.9421 157.793 40.907 158.224 43.8442 158.644C46.8823 159.079 49.7431 160.199 52.736 160.775C53.0144 160.829 53.1877 160.464 52.9324 160.309C50.5716 158.871 47.7015 158.08 45.0622 157.274L44.8487 157.209C43.417 156.769 42.0178 156.267 40.5368 156.017C39.0991 155.775 37.6525 155.579 36.2024 155.429L36.0615 155.416C34.4649 155.283 30.3918 155.328 30.5639 152.963C30.6779 151.398 33.221 151.128 34.3819 151.109C39.7043 151.024 45.0651 152.437 50.1233 153.952L51.2525 154.29C53.3237 154.914 55.3979 155.555 57.4302 156.286C59.7332 157.114 61.5476 158.405 63.225 160.172C65.0848 162.132 66.8861 164.136 68.8155 166.029C70.0319 167.223 71.2639 168.395 72.5059 169.558C72.7864 169.921 73.0108 170.317 73.1663 170.83C73.429 171.696 73.3686 172.501 73.2694 173.391C73.0193 175.638 72.9641 177.908 72.6507 180.149C72.3601 182.224 71.9539 184.375 71.0925 186.301C70.7514 187.063 70.3075 187.812 69.8019 188.481L69.3939 189.012C69.216 189.243 69.0171 189.495 68.8081 189.732C68.5015 189.358 68.0579 189.114 67.5422 189.175C66.4464 189.304 65.585 189.274 64.51 189.022C63.678 188.827 62.8524 188.599 62.0241 188.387C60.3976 187.972 58.7559 187.595 57.1459 187.118L56.8691 187.035C55.6694 186.666 54.4692 186.205 53.4706 185.43C52.3104 184.53 51.9535 183.231 51.0941 182.108C49.259 179.709 45.2936 179.759 42.6087 179.102C40.3269 178.544 38.1311 177.663 36.552 176.007L36.4599 175.908C36.5299 175.613 36.4164 175.279 36.1419 175.126L36.0821 175.093C35.9751 175.033 35.8598 175.008 35.7468 175.011C35.6002 174.795 35.4588 174.573 35.3303 174.336C35.2246 174.141 34.9604 174.285 34.995 174.477C35.0156 174.592 35.0443 174.705 35.0715 174.817C33.5419 174.424 31.8621 174.499 30.309 174.5L28.2937 174.493C27.9449 174.488 27.425 174.471 27.3788 174.45L27.3314 174.429C27.2058 174.374 27.3842 174.464 27.2964 174.348C27.1996 174.219 27.1048 174.089 27.0113 173.958C26.6772 173.491 26.3613 173.009 26.0516 172.523C29.4265 173.383 32.9226 173.918 36.3687 174.364C40.0658 174.843 43.8115 175.176 47.5416 175.179C48.5699 175.18 48.5605 173.628 47.5416 173.589C43.5919 173.438 39.6628 173.229 35.7396 172.722C33.7108 172.46 31.6904 172.131 29.6814 171.747C28.9058 171.599 28.132 171.441 27.3602 171.275L26.7816 171.148C26.4187 171.068 25.3931 170.953 24.8929 170.617C24.7946 170.448 24.6963 170.279 24.5988 170.111C24.6467 169.518 26.1533 169.597 26.5065 169.596C27.508 169.594 28.5097 169.602 29.5114 169.605C31.5145 169.611 33.5174 169.593 35.5208 169.577C39.5232 169.545 43.5408 169.405 47.5399 169.576C48.5107 169.617 49.0207 168.06 48.0612 167.65C43.8252 165.841 39.123 165.448 34.6 164.892C32.2215 164.599 29.8417 164.262 27.5165 163.67L26.9416 163.524C25.4809 163.149 23.8679 162.692 22.6379 161.8C24.4866 161.051 26.7846 161.137 28.701 161.031L28.8476 161.023C31.531 160.858 34.2192 160.773 36.9076 160.769C42.4084 160.762 47.9109 160.957 53.4056 161.218C53.5435 161.224 53.572 161.006 53.438 160.977C47.7904 159.745 42.0507 159.151 36.2711 159.059C33.5794 159.017 30.8865 159.055 28.1971 159.174L27.2103 159.219C24.9173 159.318 22.3729 159.345 20.4545 160.73C20.162 160.941 20.0078 161.211 19.9836 161.496C17.4107 156.365 15.0344 151.127 12.6485 145.924C10.7936 141.878 9.00795 137.799 7.08549 133.785L6.46313 132.486C5.62975 130.753 4.77598 129.02 3.82797 127.35C7.373 126.876 10.9378 126.547 14.5048 126.295C17.7551 126.065 28.3601 125.556 29.9248 125.86ZM31.4946 181.466C31.0903 181.242 30.4709 181.425 30.3713 181.923C30.2972 182.295 30.1706 182.707 30.1706 183.087C30.1706 183.542 30.3332 184.037 30.42 184.482C30.6194 185.506 30.865 186.338 31.3854 187.25C31.7109 187.82 32.3684 188.208 33.029 188.192C33.5523 188.18 34.0159 188.04 34.375 187.635C34.8052 187.149 35.1005 186.436 34.8645 185.782C34.2465 184.07 33.1104 182.364 31.4946 181.466ZM117.244 179.758C116.298 178.101 114.055 176.619 112.098 176.766C109.16 176.986 108.561 180.944 111.405 181.888C113.106 182.453 115.445 181.873 116.933 180.944C117.334 180.694 117.481 180.174 117.244 179.758ZM147.442 174.095C147.657 173.783 147.302 173.426 146.981 173.496C146.271 173.652 145.506 173.72 144.81 173.932C144.098 174.149 143.409 174.508 142.703 174.756C141.225 175.273 139.647 175.533 138.216 176.159C137.645 176.409 137.195 177.237 137.248 177.848L137.261 177.99C137.293 178.293 137.345 178.558 137.515 178.835C137.97 179.578 138.872 179.963 139.723 179.734C141.302 179.31 142.845 178.219 144.191 177.314L144.44 177.148C145.029 176.761 145.661 176.355 146.135 175.856C146.63 175.335 147.036 174.685 147.442 174.095ZM93.161 168.067C93.3428 167.412 92.5284 166.979 92.0536 167.422C91.105 168.306 90.1131 169.126 89.1841 170.032L89.1217 170.094C88.4564 170.763 87.4885 172.052 88.3538 172.917C89.4625 174.026 91.0063 172.381 91.6011 171.523C92.3555 170.435 92.8081 169.339 93.161 168.067ZM20.5673 162.653C21.9746 164.144 24.1428 164.829 26.0518 165.397C28.3153 166.07 30.6474 166.472 32.982 166.803C35.2379 167.122 37.4763 167.408 39.6963 167.775C38.017 167.795 36.3378 167.808 34.6624 167.838C32.7302 167.873 30.799 167.915 28.8674 167.971C27.4606 168.012 25.81 167.819 24.4731 168.342C24.2322 168.436 24.0071 168.566 23.8105 168.725C22.6866 166.726 21.6095 164.699 20.5673 162.653ZM107.37 148.708C105.901 148.242 104.52 147.622 102.963 147.783C102.549 147.826 102.252 148.229 102.478 148.627C103.216 149.926 104.416 150.659 105.597 151.528L105.702 151.605C106.994 152.567 108.383 153.444 109.789 154.233C112.209 155.592 114.379 151.703 111.934 150.562C110.463 149.875 108.918 149.201 107.37 148.708ZM80.9251 145.332C78.678 145.48 76.4321 145.58 74.1822 145.671C71.576 145.777 72.4522 149.789 74.6293 148.977C76.7801 148.174 78.9311 147.382 81.1013 146.634C81.7619 146.406 81.7087 145.321 80.9671 145.33L80.9251 145.332ZM138.561 138.194C137.979 138.153 137.392 138.281 136.808 138.337L136.188 138.397C134.908 138.525 133.709 138.682 132.489 139.203C130.237 140.164 131.446 143.784 133.706 143.701C135.377 143.64 136.805 142.922 138.216 142.087C139.449 141.356 140.205 140.443 141.038 139.296C141.313 138.916 140.929 138.49 140.553 138.452C139.892 138.384 139.223 138.241 138.561 138.194ZM25.7106 130.801C26.0831 133.126 27.0078 135.306 28.4012 137.203C29.1014 138.157 30.3308 138.193 31.0248 137.203C32.0065 135.803 31.4012 134.199 30.6616 132.855L30.4428 132.461C30.1116 131.87 29.603 131.009 29.0218 130.415L29.0121 130.354C28.7006 127.919 25.3267 128.405 25.7106 130.801ZM116.6 115.877C116.04 115.372 115.008 115.524 114.827 116.345C114.572 117.496 114.417 118.792 114.584 119.96C114.674 120.593 114.708 121.303 114.957 121.893C115.224 122.527 115.739 123.015 116.224 123.492C117.191 124.444 119.231 124.129 119.491 122.629L119.524 122.445C119.654 121.735 119.821 120.977 119.628 120.273C119.482 119.742 119.156 119.201 118.887 118.709L118.83 118.604C118.29 117.598 117.449 116.641 116.6 115.877ZM37.855 118.324L37.6524 118.327C36.0887 118.357 33.23 118.738 33.2147 120.671C33.2111 121.127 33.5484 121.599 34.0005 121.704C34.9352 121.92 35.5394 121.368 36.2055 120.81C36.7502 120.353 37.3853 119.989 38.0449 119.727C38.7573 119.443 38.7108 118.323 37.855 118.324Z" fill="black"/>
<path fill-rule="evenodd" clip-rule="evenodd" d="M44.5579 84.6601C46.6365 82.85 48.9664 79.2109 51.9525 82.0903C52.6911 82.9039 52.9902 84.7278 54.1195 85.0856C55.6194 85.5612 57.1058 84.01 57.6169 82.8188C59.7083 76.2002 51.0631 74.3848 46.1382 75.4541C43.7321 76.4199 41.96 80.3077 41.8528 82.3366C41.7837 83.7002 42.9644 85.7052 44.5579 84.6601ZM27.0629 76.0306C25.0604 76.9281 25.9219 73.7643 27.4406 73.7643C28.3599 73.4246 27.5576 74.0615 28.0071 74.7086C25.1476 75.2898 28.0381 76.8153 28.0071 76.9748C28.354 77.6891 30.651 77.4632 32.0904 77.5714C32.1833 77.5784 32.2795 77.5688 32.3719 77.5426C40.1642 78.338 36.3599 70.3685 44.2633 68.3891C50.3728 67.4038 61.415 68.5324 64.2971 74.7483C66.5701 84.6767 78.1277 77.7586 81.9224 72.5952C85.9713 67.896 88.5894 62.1538 91.1137 56.5818C91.6471 55.4026 93.3119 56.2458 93.1309 57.3772C95.4642 61.9525 95.3865 67.4481 95.9643 72.4603C96.9473 82.4601 97.905 96.4836 88.3999 102.589C76.0156 116.272 45.0905 121.101 30.8066 108.529C25.862 98.1373 24.658 87.0322 27.0629 76.0306Z" fill="black"/>
<path fill-rule="evenodd" clip-rule="evenodd" d="M50.5841 56.0006C48.9112 57.0179 46.3624 59.3898 48.1619 61.9116C50.2802 64.1351 53.33 61.5857 54.8329 60.4326C56.2265 59.5391 57.7922 61.8373 56.4993 62.8807C45.6393 70.9242 41.2321 56.2666 49.738 54.8047C50.6745 54.6436 51.0223 55.686 50.5841 56.0006ZM68.4468 46.5984C66.812 46.3083 65.1373 46.7149 63.7844 47.6719L63.6819 47.7456C62.3785 48.6992 60.9203 50.3736 61.6682 52.0172C61.9683 52.6772 62.8673 52.7807 63.4377 52.4815C64.3874 51.9833 64.5595 50.7576 65.4069 50.0792C66.1018 49.5232 67.0375 49.1859 67.9325 49.2672C70.0349 49.4583 71.3282 51.5328 71.9813 53.3205C72.0648 53.5492 72.4004 53.6381 72.5315 53.3925C74.0714 50.5134 71.3457 47.1129 68.4468 46.5984ZM42.2603 45.5118C39.1286 45.2536 35.463 48.5016 36.2875 51.8085C36.6829 53.3952 39.0357 53.3498 39.454 51.8085C39.6841 50.9603 39.6611 50.21 40.2714 49.5057C40.7752 48.9242 41.4909 48.5864 42.2603 48.6383C43.1083 48.6955 43.8905 49.1194 44.4848 49.7153C45.0216 50.2534 45.3426 51.0408 45.8986 51.517C46.0355 51.634 46.2187 51.6416 46.3538 51.517C47.3108 50.6344 46.7364 48.7968 46.1296 47.8753C45.2613 46.5567 43.8473 45.6428 42.2603 45.5118ZM74.4105 40.7334C72.4015 38.9543 68.751 37.2361 66.0419 38.1117C64.4844 38.615 63.8054 41.1256 65.5442 41.9214C67.5576 42.8429 69.879 42.4679 71.9283 43.4231C72.7889 43.8244 73.5984 44.3259 74.1976 45.0614C74.6697 45.6412 75.1499 46.404 75.8327 46.7382C76.0121 46.8261 76.2551 46.8284 76.3989 46.6652C77.8955 44.9717 75.7173 41.8904 74.4105 40.7334ZM45.7133 38.0234C44.4717 37.6748 43.0942 37.6819 41.8329 37.9008C40.572 38.1198 39.2918 38.6426 38.2623 39.4051L38.1428 39.4944C37.019 40.3416 35.6779 41.5742 35.7498 43.075C35.8098 44.3282 37.1277 45.1759 38.2654 44.5191C39.193 43.9834 39.6294 42.9104 40.4147 42.1959C41.0626 41.6062 41.8238 41.1412 42.6359 40.8155C43.5379 40.4536 44.4415 40.2841 45.4096 40.2679C46.155 40.2555 46.9049 40.5001 47.6364 40.5784C47.5761 40.702 48.1543 40.6444 48.4857 40.5347C48.7312 40.4301 48.7325 40.1196 48.6474 39.9182C48.2254 38.9203 46.69 38.2973 45.7133 38.0234Z" fill="black"/>
<path d="M74.9329 0.885703L75.1809 0.923797C83.2816 2.18318 91.4756 4.91103 98.0417 9.92799C101.338 12.4479 104.213 15.4864 106.313 19.0837C108.815 23.3763 110.099 28.1828 110.62 33.0953C110.9 35.7449 110.983 38.4204 110.931 41.0841C110.919 41.6711 110.872 42.2722 110.935 42.8568C110.952 42.9959 110.985 43.1302 111.016 43.267C111.044 43.378 111.204 43.5852 111.188 43.597C111.574 43.8822 112.234 43.9341 112.672 44.0897C113.276 44.3018 113.879 44.5517 114.437 44.8581C116.56 46.025 118.304 48.2361 118.103 50.7634C118.085 50.9941 118.05 51.2204 118.007 51.4397C118.042 51.6636 118.054 51.8831 118.045 52.0999C118.469 52.6961 118.759 53.4103 118.855 54.233C118.95 55.0345 118.813 55.836 118.504 56.5738C111.806 62.6329 104.565 57.046 101.781 53.4952C101.145 53.5636 100.514 53.6814 99.8794 53.8467C99.1021 54.0515 98.341 54.3155 97.6199 54.6691C96.84 55.0486 96.4983 55.32 95.6429 54.952C95.5044 54.8931 95.4111 54.7877 95.35 54.6628C95.3107 54.7259 95.2697 54.7877 95.2317 54.8521L95.1983 54.9068C94.5141 55.9873 92.912 56.2102 91.9995 55.2688C89.7491 52.9462 90.1315 49.8543 91.3286 47.0553L91.4079 46.8731C91.0473 46.6968 90.7045 46.4842 90.3904 46.2362C88.0726 44.4036 88.0643 41.5214 88.7108 38.8847L88.757 38.7012C86.1551 36.9971 84.434 34.0736 84.2851 30.9858C83.4575 30.7527 82.6995 30.2986 82.0995 29.6858C80.4421 30.0634 78.6937 30.1105 77.2155 29.9253C74.2984 29.5592 71.4545 28.3551 69.2466 26.4174C68.887 26.3999 68.5276 26.3818 68.1676 26.3655C62.7317 26.1154 57.2791 25.9952 51.8687 25.3517C48.7703 24.9816 45.6832 24.4797 42.6673 23.6662C39.8586 22.9095 36.2251 22.0703 34.3659 19.6777C34.3539 19.6612 34.347 19.6447 34.335 19.6305C34.1371 19.9629 33.8616 20.2411 33.4988 20.4061C32.945 20.6583 32.3698 20.7903 31.7928 20.828L31.5 20C31.4055 20.1629 31.5 20.828 30.8592 20.828C30.9204 20.4202 30.0797 21.1062 30.1622 20.7055C29.1631 20.4957 28.1922 20.0619 27.3228 19.5174C26.1634 18.7914 25.638 17.1955 26.3943 15.9791L26.4391 15.9178L26.3633 15.7557C26.2649 15.5384 26.1771 15.3163 26.0998 15.0883C25.7652 14.0839 26.3119 12.7261 27.2591 12.2381C28.0391 11.8374 28.8615 11.5335 29.7001 11.3353C29.8064 10.8638 30.0161 10.4112 30.3292 10.0202C31.1328 9.01572 32.3889 8.51362 33.7533 8.3439C33.9323 6.8706 35.3532 6.11391 36.8092 6.133C37.9662 6.14927 39.1444 6.24851 40.3157 6.37085C41.951 5.27943 43.6876 4.33888 45.462 3.55886C54.7201 -0.50745 65.0834 -0.613762 74.9329 0.885703Z" fill="black"/>
</svg>
