<svg width="204" height="241" viewBox="0 0 204 241" fill="none" xmlns="http://www.w3.org/2000/svg">
<path fill-rule="evenodd" clip-rule="evenodd" d="M113.008 91.162C106.593 91.4525 96.6053 93.9765 96.106 95.5896C95.3263 98.1084 97.0018 107.552 94.1993 112.638C93.0047 114.806 88.4682 114.612 86.7104 115.318C80.8291 117.681 63.418 122.162 59.8281 127.804C58.3899 130.065 49.5515 158.113 44.855 172.422C44.3255 174.036 43.7275 175.528 43.0774 176.909L42.8384 175.836C40.9236 167.187 39.9661 161.951 39.9661 160.129C39.9661 157.281 42.4415 145.264 39.9661 142.209C37.5155 139.183 31.6097 136.71 28.9526 136.661L28.8731 136.66C27.1285 136.66 25.6147 136.159 24.3317 135.158L22.4506 134.29C12.8813 129.883 7.29044 127.466 5.67812 127.038C3.10527 126.355 -1.27342 127.81 0.915939 129.993C2.3755 131.449 6.04321 134.024 11.9191 137.718L14.1346 139.334L13.8669 139.462C11.0036 140.845 9.31999 142.01 8.81612 142.955C8.29675 143.93 8.54596 145.083 9.56377 146.414L9.40936 146.552C8.12228 147.711 7.47874 148.489 7.47874 148.884V150.819C6.1983 152.54 5.87819 153.975 6.51842 155.125C7.15863 156.274 8.17375 157.27 9.56377 158.113C10.588 160.586 11.8078 162.346 13.223 163.393C14.6383 164.44 17.0842 165.311 20.5609 166.008L23.7069 172.912L26.2562 182.611L27.5407 193.434L27.1677 193.681C25.439 194.837 24.3317 195.694 24.3317 196.579C24.3317 197.958 31.3067 230.389 42.1587 231.841C44.5057 232.155 56.6773 230.615 60.6737 227.631L60.6147 227.954C59.6744 233.166 59.8733 235.873 61.2115 236.074C77.6572 238.549 124.364 239.313 201.332 238.368C201.79 200.876 199.72 175.906 195.12 163.46C183.358 131.628 170.389 120.755 165.851 119.824C161.877 119.009 148.095 113.974 144.243 112.638C141.728 111.766 141.189 109.151 138.324 109.151L138.092 109.152C135.32 109.178 132.863 109.632 131.482 108.324C127.858 104.891 128.871 100.139 127.368 95.5896C126.54 93.0826 120.88 90.8055 113.008 91.162Z" fill="white"/>
<path fill-rule="evenodd" clip-rule="evenodd" d="M130.632 100.151C130.256 99.4663 129.256 99.555 128.597 99.8656C126.619 101.193 128.688 103.765 129.235 105.385C130.643 108.526 133.087 111.596 136.462 113.064C136.182 116.187 135.866 119.303 135.749 122.435C131.434 127.347 124.159 129.14 117.702 130.519C107.559 133.093 96.1128 127.819 92.6897 118.618C96.5856 116.586 97.8464 111.266 96.684 107.555C96.5829 107.295 96.1425 107.179 95.986 107.47C94.9192 109.484 95.0614 111.941 93.8486 113.931C82.2073 114.953 67.1835 118.985 59.557 127.625C56.1773 131.948 54.8385 137.57 53.1738 142.58C49.6221 152.908 46.7922 163.446 43.3089 173.785L42.8982 171.828C41.7729 166.44 40.7503 160.978 41.5104 155.497L41.524 155.235C41.7722 150.874 43.2592 142.771 39.5744 139.827C36.2413 137.489 31.4129 135.611 27.2303 136.688C19.7871 133.649 13.3627 128.53 5.43547 126.536C2.99571 126.075 -0.514191 126.621 0.0625 129.658C1.66068 134.971 8.35349 137.033 12.9287 139.773C9.99591 140.502 6.42062 143.775 8.71196 146.63C8.73178 146.68 8.74939 146.719 8.767 146.749C6.90878 147.505 6.64853 149.404 7.10454 151.033C7.15079 151.464 7.27409 151.094 6.99863 151.484C4.90193 153.299 5.82874 158.358 8.9872 158.529C8.78044 160.926 10.4581 163.254 12.583 164.561C14.8732 165.97 18.1847 166.031 20.0808 167.958C24.5325 175.163 26.0681 183.667 26.5534 191.917C23.6189 192.925 20.986 195.94 23.6521 198.497C23.7048 198.503 23.7574 198.509 23.8107 198.513C25.3562 202.298 25.953 206.333 26.7703 210.287C28.0278 217.032 31.305 223.226 35.4898 228.845C40.3292 236.284 53.3425 235.104 59.8983 230.304C59.8721 231.563 59.646 232.815 60.0855 234.032C60.7342 235.346 62.3158 234.778 62.4724 233.485C65.938 235.273 66.7543 229.369 62.9018 230.306C63.1982 226.037 63.3699 221.763 63.5093 217.487C67.8709 218.783 68.059 212.142 63.5976 213.47L63.6029 211.634C63.6357 197.555 63.4662 183.429 61.4419 169.462C61.2547 168.417 60.9377 167.407 60.7527 166.368C60.7329 166.261 60.5501 166.291 60.5494 166.394C60.2361 185.948 61.6286 205.545 60.1758 225.106C58.9662 225.444 58.484 226.718 57.5885 227.46C55.6004 229.145 52.8929 229.965 50.2452 230.251C42.8313 231.205 39.6303 229.127 36.3287 223.212C37.8178 224.126 39.8301 222.513 38.9224 221.068L38.894 221.024C37.9514 219.492 35.2894 220.41 35.6265 222.125C32.3071 217.247 30.5698 211.746 29.2867 206.164L29.1131 205.497C28.4894 203.128 27.68 200.412 26.1822 198.268C35.3163 196.132 44.2513 189.622 45.6806 180.691C47.9997 187.378 51.1414 193.915 54.1359 200.418C55.0607 202.68 55.446 205.111 56.7716 207.209C57.0798 207.694 57.8615 207.568 58.0359 207.057C59.2281 202.165 55.6156 197.512 53.7399 193.109C52.2083 190.62 47.8119 179.255 45.0861 179.227C48.149 166.906 52.2343 154.677 56.1249 142.509C59.8869 126.08 67.5534 122.912 83.7945 117.739C80.865 131.44 67.4904 144.702 74.6073 159.072L74.7804 159.445C75.5083 161.03 76.113 162.626 75.6048 164.365C75.1116 166.053 73.9886 167.518 73.09 169.036C68.0678 177.609 71.5248 187.621 73.4667 196.548C75.9197 207.018 78.3429 217.498 80.8785 227.951C81.3783 230.037 81.7022 232.185 82.4572 234.206C82.847 235.249 84.7913 235.15 84.6656 233.933C84.4258 231.573 83.7035 229.271 83.1746 226.953C80.0175 211.946 75.7455 197.115 73.0292 182.042C71.282 170.884 78.1606 169.17 77.9038 161.96C76.9689 158.273 74.4941 154.983 74.6362 151.053C74.0861 139.026 83.632 129.103 84.8105 117.405L86.8913 116.724C87.9313 116.382 88.9702 116.038 90.0057 115.685C84.5548 150.672 86.21 186.424 88.9349 221.584C89.4916 223.206 88.962 234.539 91.2959 233.533C91.4137 234.167 91.7803 234.789 92.5774 234.786C99.8152 234.847 107.055 234.952 114.293 235.031C117.774 234.737 122.56 235.957 125.521 234.113C128.94 233.218 129.333 224.72 130.247 221.691L130.603 219.488C136.413 183.493 141.612 146.756 137.436 110.406C143.246 110.61 144.445 116.365 144.876 120.556C145.953 129.804 152.464 137.768 152.776 147.123C152.803 149.392 152.336 151.591 151.347 153.675C148.725 158.78 144.189 164.682 147.579 170.384C151.588 174.823 151.241 175.991 149.77 181.476C145.631 199.61 138.758 217.044 132.219 234.528C133.64 241.324 142.185 216.095 142.989 214.193C146.772 215.939 148.838 210.146 144.499 209.733C147.286 201.172 149.851 192.547 151.986 183.827L152.042 183.581C152.986 179.552 154.841 174.834 151.708 171.26C143.63 163.763 157.045 155.383 155.353 146.3C156.814 147.295 159.026 146.249 158.992 144.578C159.059 142.698 156.307 141.735 154.982 143.17C153.621 135.801 148.884 129.368 147.45 122.02L147.386 121.675C146.9 119.079 146.763 116.346 145.373 113.98C147.265 115.107 149.28 116.019 151.352 116.823C147.647 119.663 154.821 122.255 154.227 117.868C174.544 123.263 179.136 130.786 186.596 148.063C185.203 146.82 182.816 148.428 183.65 150.013C184.315 151.682 187.218 151.194 187.217 149.415L187.557 150.159C192.08 160.085 196.197 170.253 198.266 180.876C194.208 180.35 195.241 186.303 198.918 184.625C200.394 194.073 200.417 203.654 200.237 213.178C196.814 211.531 196.711 217.129 200.204 215.533C200.076 223.338 199.889 231.143 199.748 238.947C199.72 240.608 202.512 240.6 202.556 238.947C202.882 226.955 203.476 214.941 203.194 202.945C203.459 182.124 196.938 162.056 187.22 143.405C178.623 121.93 166.746 119.488 144.896 113.244C142.879 110.496 138.569 107.897 135.054 109.623C133.087 106.708 132.088 103.256 130.632 100.151ZM168.069 174.997C167.987 174.733 167.576 174.799 167.562 175.06C167.38 178.429 167.543 181.82 167.794 185.203C167.946 187.268 168.133 189.332 168.291 191.383C168.712 196.795 169.051 202.213 169.308 207.635C169.218 207.601 169.126 207.57 169.029 207.546C168.584 207.435 168.139 207.435 167.694 207.546C167.298 207.648 166.951 207.826 166.652 208.082L166.589 208.138C166.345 208.346 166.171 208.593 166.069 208.878C165.925 209.132 165.852 209.403 165.852 209.692L165.854 209.765C165.856 210.181 165.968 210.567 166.197 210.927C166.42 211.273 166.719 211.548 167.096 211.754C167.487 211.962 167.908 212.065 168.362 212.067C168.41 212.071 168.459 212.075 168.507 212.077C168.844 212.089 169.159 212.025 169.45 211.885L169.493 211.873C169.604 214.624 169.694 217.376 169.76 220.129C169.819 222.527 169.899 224.926 169.951 227.325L169.976 228.525L170.024 231.177C170.039 232.267 170.032 233.312 170.436 234.34L170.484 234.459C170.775 235.146 171.002 236.102 171.779 236.484C172.4 236.789 173.237 236.676 173.593 236.081C173.893 235.584 173.633 234.869 173.191 234.533C173.199 234.511 173.213 234.491 173.224 234.469C173.292 234.287 173.396 234.115 173.457 233.931C173.651 233.349 173.598 232.729 173.6 232.124C173.6 231.058 173.561 229.991 173.53 228.925C173.461 226.658 173.382 224.393 173.285 222.127C172.958 214.528 172.342 206.928 171.636 199.35L171.396 196.792C171.077 193.39 170.747 189.985 170.28 186.601C170.258 186.44 170.236 186.278 170.211 186.116C170.462 186.001 170.696 185.842 170.881 185.664C171.623 184.949 172.073 183.88 172.495 182.959L172.592 182.75C173.05 181.767 173.472 180.773 173.69 179.718L173.711 179.621C173.811 179.172 174.007 178.376 173.488 178.158C173.217 178.045 173.045 178.126 172.957 178.374C172.946 178.407 172.955 178.443 172.975 178.471C172.761 178.772 172.426 179.053 172.215 179.332L171.492 180.282L171.134 180.759C170.68 181.371 170.196 181.957 169.696 182.535C169.302 179.997 168.82 177.469 168.069 174.997ZM138.4 231.561C137.495 230.91 136.022 231.264 136.022 232.464C136.022 233.671 137.497 234.018 138.4 233.367L138.445 233.337L138.488 233.305C138.979 232.952 138.996 232.035 138.525 231.652L138.488 231.624C138.459 231.601 138.431 231.581 138.4 231.561ZM177.824 229.215L177.746 229.216C177.337 229.216 176.956 229.311 176.601 229.502C176.447 229.609 176.295 229.718 176.141 229.827C175.859 230.085 175.666 230.393 175.558 230.746L175.476 231.3C175.465 231.587 175.529 231.854 175.672 232.102C175.765 232.361 175.921 232.585 176.141 232.773C176.348 232.978 176.59 233.121 176.872 233.204C177.12 233.324 177.385 233.385 177.669 233.385L177.746 233.384C178.158 233.384 178.539 233.289 178.894 233.099C179.048 232.992 179.2 232.882 179.354 232.773C179.633 232.515 179.829 232.207 179.937 231.854C179.964 231.67 179.99 231.484 180.019 231.3C180.03 231.013 179.964 230.746 179.823 230.498C179.73 230.239 179.574 230.015 179.354 229.827C179.147 229.623 178.905 229.479 178.623 229.396C178.375 229.276 178.108 229.215 177.824 229.215ZM74.7483 225.373L74.1712 225.444C73.6185 225.559 73.1739 225.933 72.8767 226.359C72.7179 226.587 72.6323 226.834 72.6191 227.099C72.555 227.361 72.5684 227.626 72.6587 227.891C72.7247 228.149 72.8544 228.376 73.0462 228.568C73.1121 228.663 73.1893 228.75 73.2772 228.827C73.458 229.103 73.7308 229.285 74.0129 229.471C74.2505 229.611 74.5083 229.685 74.7858 229.698C74.9685 229.742 75.1535 229.742 75.3384 229.698C75.6137 229.685 75.8713 229.611 76.1091 229.471C76.2498 229.372 76.3908 229.271 76.5297 229.172C76.6528 229.041 76.7675 228.905 76.8754 228.764C76.9479 228.608 77.0185 228.454 77.0888 228.301C77.2189 227.931 77.1551 227.604 77.0844 227.234C77.0736 227.171 77.0557 227.115 77.0315 227.054L76.984 226.937C76.8572 226.63 76.7895 226.525 76.5649 226.258L76.4793 226.153C76.4365 226.1 76.3925 226.049 76.3423 226.003C76.2016 225.87 76.001 225.759 75.8427 225.644C75.5036 225.464 75.1381 225.375 74.7483 225.373ZM149.507 224.079L149.434 224.079C149.115 224.081 148.815 224.154 148.538 224.302L148.176 224.558C147.956 224.762 147.804 225.001 147.718 225.278C147.699 225.423 147.676 225.569 147.655 225.712C147.646 225.937 147.696 226.147 147.809 226.343C147.879 226.545 148.003 226.718 148.176 226.868C148.337 227.026 148.529 227.139 148.749 227.206C148.941 227.298 149.148 227.346 149.368 227.346L149.434 227.345C149.755 227.345 150.055 227.27 150.332 227.123L150.693 226.868C150.914 226.664 151.065 226.424 151.151 226.147C151.171 226.001 151.193 225.858 151.215 225.712C151.224 225.488 151.173 225.278 151.061 225.084C150.988 224.882 150.867 224.706 150.693 224.558C150.533 224.399 150.341 224.286 150.121 224.221C149.929 224.128 149.726 224.081 149.507 224.079ZM164.039 223.41C163.579 223.406 163.112 223.526 162.736 223.77C162.37 224.008 162.093 224.265 161.914 224.651C161.866 224.757 161.818 224.859 161.776 224.965C161.586 225.427 161.551 225.892 161.813 226.345C162.066 226.783 162.612 226.975 163.101 227.106C163.515 227.22 163.984 227.238 164.396 227.103C164.601 227.036 164.801 226.965 164.986 226.862C165.332 226.666 165.519 226.434 165.75 226.147C165.931 225.864 166.021 225.556 166.021 225.229C166.021 224.9 165.931 224.595 165.75 224.31C165.396 223.754 164.739 223.414 164.039 223.41ZM187.38 223.8C186.798 223.8 186.288 224.047 185.937 224.463C185.583 224.886 185.453 225.411 185.61 225.935C185.775 226.488 186.274 226.973 186.893 227.113C187.351 227.216 187.726 227.212 188.181 227.141C188.567 227.08 188.862 226.87 189.157 226.652C189.494 226.399 189.597 225.939 189.542 225.567C189.489 225.195 189.302 224.952 189.018 224.732L189.016 224.726L189.122 224.801C189.082 224.769 189.042 224.734 189.003 224.7C188.99 224.68 188.979 224.657 188.968 224.635C188.805 224.38 188.584 224.18 188.309 224.031C188.021 223.877 187.712 223.8 187.38 223.8ZM51.8305 217.679C51.5112 217.6 51.1898 217.6 50.8705 217.679C50.6347 217.73 50.4301 217.829 50.2559 217.976C50.0795 218.082 49.9355 218.217 49.8265 218.384L49.7915 218.441C49.5403 218.833 49.5009 219.282 49.6088 219.718C49.7429 220.258 50.2845 220.749 50.8705 220.876L50.8902 220.879L50.9099 220.884C51.1477 220.953 51.3879 220.963 51.6255 220.913C51.8658 220.903 52.0882 220.838 52.2927 220.717C52.5526 220.563 52.7705 220.365 52.9379 220.127C53.0702 219.937 53.1405 219.732 53.1517 219.512C53.1933 219.367 53.1933 219.221 53.1517 219.076C53.1405 218.855 53.0702 218.651 52.9379 218.461L52.6562 218.128L52.6274 218.106C52.4028 217.899 52.1366 217.758 51.8305 217.679ZM73.9996 206.984C71.1128 206.984 71.1172 211.095 73.9996 211.095C76.8861 211.095 76.8819 206.984 73.9996 206.984ZM179.689 206.465C179.385 206.402 179.081 206.415 178.779 206.501C178.596 206.572 178.416 206.643 178.235 206.711L177.773 207.039C177.687 207.106 177.645 207.178 177.566 207.273L177.467 207.392C177.323 207.568 177.32 207.606 177.163 207.981C177.057 208.34 177.057 208.7 177.163 209.06C177.214 209.234 177.291 209.397 177.39 209.549C177.48 209.694 177.589 209.822 177.711 209.94L177.773 209.998C177.98 210.202 178.224 210.345 178.506 210.43C178.684 210.525 178.876 210.572 179.081 210.572C179.385 210.634 179.689 210.622 179.99 210.535C180.173 210.464 180.353 210.394 180.534 210.325L180.996 209.998L181.353 209.573L181.467 209.324L181.582 209.074L181.664 208.518C181.675 208.229 181.611 207.963 181.468 207.712C181.413 207.536 181.316 207.381 181.175 207.251C181.073 207.094 180.937 206.968 180.765 206.875C180.624 206.746 180.455 206.657 180.263 206.607C180.085 206.512 179.893 206.465 179.689 206.465ZM36.9102 203.529C36.67 203.521 36.4454 203.567 36.2384 203.668C36.1658 203.69 36.0951 203.719 36.027 203.751C35.7606 203.894 35.5492 204.088 35.3929 204.331C35.2652 204.517 35.1947 204.717 35.1837 204.933C35.1359 205.128 35.1402 205.324 35.1978 205.519L35.2167 205.578C35.2652 205.738 35.3378 205.885 35.4345 206.02C35.4438 206.037 35.4545 206.053 35.4677 206.067C35.6153 206.281 35.8113 206.457 36.0535 206.588C36.3221 206.73 36.6106 206.802 36.9232 206.805C37.5464 206.805 38.0837 206.495 38.4118 206.02C38.458 205.954 38.4844 205.869 38.5172 205.8C38.5461 205.735 38.5923 205.653 38.6168 205.578C38.7002 205.291 38.7002 205.004 38.6168 204.717C38.5617 204.507 38.458 204.323 38.3017 204.167C38.1764 203.992 38.0112 203.852 37.8062 203.751C37.5521 203.615 37.2791 203.542 36.9894 203.53L36.9102 203.529ZM158.792 201.518C158.487 201.441 158.184 201.436 157.881 201.5L157.805 201.518C157.563 201.57 157.354 201.671 157.174 201.821C156.973 201.942 156.812 202.102 156.696 202.3C156.528 202.565 156.445 202.852 156.443 203.159C156.445 203.466 156.528 203.753 156.696 204.018C156.861 204.274 157.083 204.477 157.363 204.628L157.605 204.735C157.808 204.852 158.023 204.915 158.257 204.925C158.413 204.964 158.57 204.964 158.724 204.925C158.882 204.925 159.03 204.889 159.166 204.816C159.316 204.778 159.444 204.709 159.554 204.608C159.746 204.494 159.895 204.345 160.005 204.157L160.184 203.771L160.245 203.343L160.184 202.916L160.087 202.706C159.999 202.417 159.84 202.167 159.609 201.954C159.378 201.744 159.105 201.599 158.792 201.518ZM49.5932 198.109C49.2719 198.016 48.9524 198.003 48.6331 198.068C48.4176 198.068 48.215 198.119 48.0276 198.22C47.8228 198.272 47.6469 198.365 47.4969 198.503C47.2351 198.658 47.0301 198.864 46.8782 199.121L46.6362 199.649C46.4909 199.99 46.5437 200.493 46.6316 200.837C46.7042 201.12 46.8452 201.366 47.0543 201.576C47.16 201.74 47.3009 201.87 47.4795 201.967C47.6834 202.137 47.9185 202.258 48.1853 202.33L48.2588 202.348L48.2852 202.354C48.2898 202.356 48.294 202.356 48.2984 202.356C48.3006 202.359 48.3053 202.359 48.3074 202.359C48.4129 202.383 48.5208 202.397 48.6331 202.401C48.9524 202.466 49.2719 202.454 49.5932 202.361C49.7825 202.288 49.9741 202.213 50.1657 202.138C50.3286 202.025 50.4896 201.91 50.6523 201.795C50.7778 201.645 50.9033 201.495 51.0289 201.348C51.2052 201.096 51.2997 200.821 51.3129 200.527C51.3704 200.332 51.3704 200.138 51.3129 199.941C51.3129 199.742 51.2579 199.558 51.1502 199.386C51.0531 199.111 50.8879 198.875 50.6523 198.674C50.4896 198.559 50.3286 198.444 50.1657 198.331C49.9741 198.256 49.7825 198.181 49.5932 198.109ZM190.033 190.874C189.701 190.791 189.368 190.791 189.036 190.874L188.589 191.045C188.369 191.155 188.195 191.302 188.062 191.49C187.895 191.656 187.783 191.852 187.726 192.076C187.596 192.383 187.611 192.87 187.714 193.184C187.831 193.539 188.012 193.822 188.291 194.089C188.756 194.53 189.47 194.657 190.101 194.523C190.276 194.487 190.441 194.416 190.59 194.329C191.068 194.059 191.39 193.586 191.387 193.062C191.387 193.006 191.383 192.949 191.374 192.893C191.405 192.777 191.416 192.658 191.412 192.533L191.345 192.076L191.341 192.064C191.253 191.775 191.094 191.524 190.863 191.312C190.65 191.118 190.401 190.978 190.116 190.893L190.044 190.874H190.033ZM23.8768 145.494C24.4783 140.968 26.7399 136.098 33.638 138.756L34.1503 138.932C35.8572 139.525 37.8462 140.305 38.885 141.674C39.6006 142.618 39.3586 144.447 39.4575 145.549C39.9073 149.13 39.666 152.706 39.1974 156.271C38.5925 164.63 40.5074 173.29 44.3196 180.886C40.5043 186.552 35.3982 191.836 28.4328 194.198C28.1382 187.756 26.7639 181.433 25.3014 175.147L25.2438 174.873C24.659 172.038 24.3662 169.129 22.3378 166.772C18.2118 162.661 12.537 164.988 9.82175 158.383C10.392 158.119 10.0772 157.213 9.38994 157.387C7.00854 157.775 6.62166 153.723 8.25154 152.747C9.94991 151.797 8.24008 150.043 8.96298 148.778C9.36594 148.232 10.2357 148.214 10.6301 147.585C11.6751 145.272 6.44505 143.789 12.5955 141.18C13.8544 140.77 15.2614 141.024 16.5311 141.02C18.3987 141.18 19.8831 142.388 21.5911 142.768C19.7314 147.187 24.4239 151.443 28.6594 147.913C30.9641 149.912 33.5415 154.47 27.9391 152.345C25.197 150.665 22.8363 148.494 19.6532 147.46L19.5859 147.441C18.4043 147.086 13.2336 144.78 13.49 146.775C15.4268 148.491 18.6212 148.471 20.8643 149.863C23.9741 151.183 25.9626 154.382 29.6855 154.337C30.5438 159.12 24.63 156.21 22.4279 154.891L21.8173 154.587C18.711 153.047 15.5581 151.62 11.9356 151.601C10.9359 151.595 10.9403 153.01 11.9356 153.022C16.6566 153.049 20.499 155.757 24.4536 157.771C24.843 160.563 20.3882 159.34 18.6978 158.929C16.9254 158.7 14.079 156.941 12.5277 157.87C11.9211 159.301 14.5909 159.194 15.5204 159.628C11.2768 161.499 14.9948 162.677 16.1325 159.802L16.4658 159.906C19.3074 160.783 26.1978 162.587 25.3783 158.169C26.4182 158.592 27.6863 158.844 28.8355 158.61C31.7013 162.5 36.2728 160.995 29.6282 158.343C31.1255 157.704 31.6256 155.236 30.1873 154.317C35.4176 154.024 31.5344 148.988 29.3697 147.31C29.5741 147.12 29.772 146.927 29.9565 146.731C31.2048 147.276 32.517 147.608 33.92 147.725C35.263 147.836 35.5622 145.738 34.2369 145.567C32.8166 145.383 31.5085 145.035 30.258 144.38C28.3625 143.629 27.7156 146.857 25.8186 146.971C24.7839 147.159 24.084 146.327 23.8768 145.494ZM67.9111 187.143C67.453 187.143 67.0459 187.319 66.7134 187.598C66.3809 187.877 66.2378 188.295 66.218 188.695C66.2092 188.909 66.2576 189.109 66.3633 189.295C66.4316 189.487 66.5483 189.653 66.7134 189.795C67.0217 190.075 67.4775 190.249 67.9111 190.249C68.3691 190.249 68.7764 190.073 69.1091 189.795C69.4414 189.514 69.5848 189.097 69.6046 188.695C69.6134 188.483 69.5647 188.283 69.4592 188.097C69.3978 187.924 69.2971 187.771 69.1572 187.64L69.1091 187.598C68.8006 187.315 68.3451 187.143 67.9111 187.143ZM54.0331 177.559L53.9598 177.56C53.5722 177.562 53.2131 177.651 52.8786 177.828C52.7333 177.932 52.588 178.033 52.4446 178.136C52.1784 178.382 51.9956 178.671 51.8941 179.005C51.7906 179.352 51.7906 179.702 51.8941 180.049C51.9293 180.25 52.0108 180.444 52.1385 180.611C52.3281 180.9 52.5789 181.133 52.8962 181.304C53.2243 181.48 53.5788 181.567 53.9598 181.569C54.3405 181.567 54.6952 181.48 55.0233 181.304C55.3404 181.133 55.5914 180.9 55.7786 180.611C55.9085 180.444 55.9899 180.25 56.0252 180.049C56.1287 179.702 56.1287 179.352 56.0252 179.005C55.9311 178.695 55.7668 178.424 55.5305 178.189L55.4747 178.136C55.2809 177.944 55.0519 177.808 54.7855 177.729C54.5513 177.617 54.3006 177.56 54.0331 177.559ZM159.946 177.667C159.783 177.626 159.622 177.626 159.459 177.667C159.217 177.677 158.99 177.744 158.781 177.865C158.658 177.954 158.534 178.041 158.411 178.128L158.304 178.246C158.074 178.503 158.068 178.547 157.892 178.938C157.819 179.156 157.808 179.375 157.861 179.593C157.861 179.74 157.902 179.878 157.982 180.005C158.026 180.145 158.101 180.266 158.213 180.367C158.292 180.49 158.398 180.589 158.532 180.662C158.704 180.805 158.906 180.905 159.14 180.955L159.614 181.013C159.675 181.006 159.739 180.997 159.8 180.991C159.875 180.989 159.947 180.982 160.018 180.969L160.089 180.955L160.154 180.939C160.24 180.916 160.324 180.885 160.406 180.846C160.56 180.805 160.694 180.735 160.809 180.63C161.007 180.512 161.166 180.355 161.28 180.159L161.311 180.094C161.353 180.025 161.388 179.955 161.415 179.878C161.489 179.757 161.527 179.627 161.529 179.488C161.573 179.302 161.57 179.118 161.517 178.935L161.498 178.873L161.329 178.503C161.241 178.378 161.148 178.251 161.029 178.148C160.958 178.09 160.783 177.964 160.685 177.902L160.624 177.865C160.415 177.744 160.188 177.677 159.946 177.667ZM186.492 174.777C186.175 173.631 184.537 173.269 183.645 174.088C182.754 174.907 183.148 176.41 184.396 176.701L184.539 176.733C185.746 177.014 186.834 176.014 186.528 174.907L186.492 174.777ZM35.3577 165.43C35.3665 165.317 35.208 165.277 35.1287 165.344C34.0674 166.217 33.3914 167.263 32.1032 167.94C30.8083 168.619 29.4741 168.565 28.1243 169.003C27.6663 169.153 27.6641 169.715 28.1243 169.862C30.6786 170.681 35.164 167.906 35.3577 165.43ZM155.375 165.252C155.09 165.172 154.804 165.16 154.52 165.218C154.326 165.218 154.146 165.263 153.981 165.351C153.798 165.398 153.642 165.483 153.507 165.604C153.346 165.691 153.219 165.81 153.122 165.958C152.932 166.148 152.805 166.37 152.739 166.625L152.664 167.148L152.739 167.672C152.812 167.827 152.884 167.985 152.955 168.14L153.151 168.385C153.311 168.58 153.336 168.582 153.723 168.846C153.97 168.989 154.236 169.068 154.52 169.078C154.71 169.127 154.899 169.127 155.09 169.078C155.282 169.078 155.463 169.034 155.63 168.945C155.811 168.898 155.969 168.813 156.104 168.692C156.337 168.553 156.519 168.369 156.654 168.14C156.727 167.985 156.799 167.827 156.87 167.672L156.947 167.148L156.87 166.625L156.865 166.608C156.764 166.281 156.583 165.996 156.324 165.755L155.896 165.452C155.729 165.354 155.555 165.303 155.375 165.252ZM52.5856 165.645C51.9759 165.491 51.3063 165.652 50.8595 166.063C50.4123 166.473 50.2361 167.085 50.4035 167.645C50.5686 168.191 51.0465 168.633 51.6432 168.781C51.8215 168.825 52.0021 168.85 52.1849 168.842C52.4911 168.84 52.7772 168.769 53.0436 168.627L53.3871 168.383C53.5547 168.241 53.6712 168.074 53.7397 167.88C53.8475 167.694 53.896 167.494 53.8872 167.277L53.8892 167.239C53.896 167.162 53.885 167.085 53.8583 167.011C53.8583 166.932 53.8451 166.855 53.8231 166.78C53.6624 166.235 53.1779 165.794 52.5856 165.645ZM184.077 160.172C183.881 160.166 183.698 160.202 183.529 160.285C183.35 160.338 183.198 160.426 183.071 160.556C182.93 160.673 182.833 160.814 182.776 160.976C182.685 161.132 182.646 161.3 182.652 161.479C182.652 161.716 182.718 161.936 182.846 162.138C182.921 162.227 182.996 162.316 183.071 162.403C183.247 162.567 183.456 162.678 183.698 162.74L183.839 162.785C184.046 162.854 184.249 162.858 184.464 162.832C184.691 162.803 184.901 162.746 185.085 162.617C185.266 162.52 185.409 162.389 185.515 162.223L185.636 161.96C185.662 161.872 185.673 161.738 185.68 161.645C185.68 161.631 185.68 161.619 185.682 161.605C185.682 161.526 185.656 161.334 185.634 161.255C185.585 161.089 185.486 160.932 185.374 160.798C185.277 160.659 185.145 160.55 184.982 160.469L184.967 160.459L184.951 160.449C184.901 160.416 184.848 160.384 184.795 160.349C184.575 160.232 184.335 160.172 184.077 160.172ZM70.3707 158.737C70.0184 158.737 69.6903 158.82 69.3864 158.981C69.3756 158.985 69.3646 158.99 69.3558 158.994C69.0649 159.151 68.8339 159.364 68.662 159.63C68.4858 159.907 68.3979 160.206 68.3979 160.526C68.3979 160.847 68.4858 161.144 68.662 161.421C68.8339 161.688 69.0649 161.9 69.3558 162.058C69.3646 162.063 69.3756 162.067 69.3864 162.071C69.6903 162.233 70.0184 162.314 70.3707 162.316C70.7208 162.314 71.0489 162.233 71.353 162.071C71.9473 161.752 72.3196 161.156 72.3196 160.526C72.3196 159.895 71.9473 159.299 71.353 158.981C71.0489 158.82 70.7208 158.737 70.3707 158.737ZM161.813 156.4L161.754 156.399C161.52 156.391 161.302 156.435 161.102 156.534C160.893 156.597 160.71 156.704 160.556 156.856L160.234 157.102L160.141 157.171C160.126 157.183 160.11 157.195 160.096 157.207C159.88 157.407 159.732 157.642 159.648 157.912C159.622 158.068 159.6 158.222 159.582 158.377C159.534 158.781 159.794 159.196 160.08 159.483C160.234 159.634 160.417 159.741 160.628 159.806C160.831 159.903 161.051 159.947 161.285 159.939C161.763 159.901 162.216 159.808 162.559 159.469C162.599 159.428 162.637 159.386 162.676 159.343L162.951 159.052C163.161 158.858 163.306 158.63 163.385 158.367C163.407 158.228 163.427 158.09 163.447 157.953C163.467 157.539 163.247 157.151 162.951 156.856C162.679 156.582 162.216 156.415 161.813 156.4ZM172.928 152.145C170.639 152.145 170.643 155.405 172.928 155.405C175.216 155.405 175.212 152.145 172.928 152.145ZM57.793 147.574L57.7207 147.575C57.3418 147.578 56.9875 147.664 56.6592 147.84L56.2322 148.141C55.9722 148.384 55.7918 148.667 55.6903 148.994C55.6663 149.166 55.6419 149.338 55.6155 149.507C55.6045 149.774 55.6663 150.023 55.7982 150.253C55.8819 150.492 56.0272 150.7 56.2322 150.876C56.4236 151.064 56.6484 151.197 56.9102 151.274C57.1612 151.395 57.4321 151.452 57.7207 151.442C58.1015 151.439 58.4562 151.353 58.7843 151.177C58.9272 151.076 59.0681 150.975 59.2112 150.876C59.4511 150.652 59.6234 150.393 59.7264 150.098L59.7507 150.023L59.8278 149.507C59.8388 149.243 59.7774 148.994 59.6452 148.764C59.5614 148.523 59.416 148.317 59.2112 148.141C59.0197 147.953 58.7929 147.82 58.533 147.743C58.3031 147.632 58.0562 147.575 57.793 147.574ZM68.1072 141.472C67.9025 141.466 67.7131 141.504 67.5345 141.59C67.352 141.644 67.1934 141.739 67.0591 141.87C66.7749 142.079 66.6011 142.495 66.6011 142.832C66.6011 143.17 66.7749 143.586 67.0591 143.794C67.2441 143.962 67.4621 144.079 67.7131 144.144L68.1072 144.193C68.4904 144.209 68.8801 144.025 69.1532 143.794C69.2082 143.748 69.2611 143.701 69.3161 143.657C69.5647 143.447 69.6726 143.133 69.6882 142.832C69.6949 142.673 69.6572 142.523 69.5781 142.384C69.5273 142.238 69.4394 142.115 69.3161 142.008C69.2611 141.963 69.2082 141.917 69.1532 141.87C68.8557 141.618 68.508 141.491 68.1072 141.472ZM2.7579 130.602C1.311 128.984 2.15347 127.833 4.32788 128.233C8.07339 128.698 11.5985 130.871 14.8972 132.428C18.4976 134.174 22.2081 135.613 25.8807 137.253C24.3654 138.107 23.2384 139.444 22.3774 140.969C20.6588 139.771 18.4619 139.199 16.3175 139.124C12.4269 135.704 5.98375 134.921 2.7579 130.602ZM173.699 135.972C173.307 135.973 172.939 136.058 172.595 136.227L172.521 136.264L172.05 136.6C171.821 136.794 171.66 137.024 171.565 137.289C171.42 137.544 171.354 137.82 171.365 138.116C171.354 138.411 171.42 138.685 171.565 138.94C171.66 139.207 171.821 139.435 172.05 139.629C172.18 139.785 172.347 139.906 172.548 139.995C172.735 140.066 172.92 140.138 173.107 140.211C173.316 140.272 173.558 140.28 173.785 140.29C174.197 140.288 174.58 140.193 174.937 140.003L175.399 139.676C175.621 139.486 175.78 139.261 175.873 139.001C176.004 138.771 176.07 138.526 176.07 138.264L176.068 138.192C176.068 138.176 176.068 138.158 176.066 138.14C176.04 137.95 176.011 137.76 175.983 137.57C175.91 137.291 175.771 137.046 175.564 136.84C175.511 136.743 175.441 136.665 175.35 136.6C175.06 136.333 174.717 136.151 174.32 136.048C174.113 136.024 173.906 135.997 173.699 135.972ZM71.53 130.617L71.463 130.618C71.1658 130.618 70.8905 130.687 70.6349 130.822C70.5228 130.901 70.4127 130.98 70.3026 131.058C70.0976 131.246 69.9567 131.469 69.8798 131.723L69.8202 132.123C69.8138 132.332 69.86 132.524 69.9635 132.704C70.0293 132.889 70.1419 133.051 70.3026 133.189C70.4501 133.336 70.6261 133.439 70.8309 133.5C71.0248 133.595 71.2362 133.637 71.463 133.629C71.7581 133.629 72.0355 133.56 72.291 133.423C72.4011 133.346 72.5134 133.267 72.6235 133.189C72.8092 133.016 72.9431 132.815 73.0234 132.587L73.044 132.524L73.1033 132.123C73.1121 131.915 73.0658 131.723 72.9626 131.543C72.8965 131.356 72.7818 131.194 72.6235 131.058C72.4737 130.911 72.2973 130.808 72.0948 130.747C71.9186 130.662 71.7298 130.619 71.53 130.617ZM160.829 128.428L160.752 128.429C160.314 128.431 159.906 128.532 159.527 128.734C159.365 128.85 159.201 128.965 159.039 129.082C158.737 129.359 158.53 129.686 158.413 130.064L158.327 130.654C158.314 130.961 158.385 131.246 158.537 131.511C158.633 131.788 158.801 132.026 159.039 132.229C159.256 132.445 159.516 132.598 159.818 132.687C160.107 132.827 160.417 132.892 160.752 132.879C161.19 132.879 161.597 132.778 161.976 132.576C162.139 132.461 162.302 132.344 162.467 132.229C162.767 131.95 162.974 131.622 163.09 131.246L163.176 130.654C163.189 130.349 163.119 130.062 162.967 129.797C162.87 129.523 162.703 129.282 162.467 129.082C162.247 128.864 161.987 128.71 161.685 128.621C161.419 128.492 161.134 128.429 160.829 128.428ZM79.2952 122.872C79.0948 122.823 78.8946 122.823 78.6942 122.872C78.3948 122.884 78.1149 122.967 77.8551 123.118L77.3993 123.442C77.3929 123.448 77.3861 123.454 77.3795 123.462C77.1042 123.716 76.9129 124.018 76.8072 124.363L76.7277 124.907C76.7167 125.188 76.7805 125.45 76.9192 125.693C77.002 125.926 77.1386 126.129 77.3268 126.304L77.3993 126.37C77.6043 126.572 77.8443 126.715 78.1239 126.798C78.2999 126.893 78.4917 126.94 78.6942 126.94C78.9935 127.002 79.2952 126.99 79.5948 126.903C79.773 126.833 79.9538 126.764 80.1341 126.695L80.1916 126.665C80.872 126.324 81.2925 125.608 81.2925 124.907C81.2925 124.205 80.872 123.488 80.1916 123.146C80.1715 123.139 80.1541 123.128 80.1341 123.118C79.8743 122.967 79.5948 122.884 79.2952 122.872Z" fill="black"/>
<path fill-rule="evenodd" clip-rule="evenodd" d="M81.4089 16.5766C93.1824 13.4052 133.673 16.6561 134.674 17.343C136.312 18.5925 144.282 22.5572 145.522 23.4624C156.736 34.3701 146.046 50.5683 146.868 63.7269C146.816 68.3944 148.983 72.6561 149.979 77.1464C150.4 79.4996 150.307 81.9336 148.971 84.0462C146.621 87.8213 141.66 88.5866 137.624 90.1088C135.617 90.9022 133.74 92.0272 132.021 93.2582C120.442 102.659 113.997 109.096 97.1021 106.976C97.0158 107.716 96.3013 108.443 95.4154 108.112C93.3412 107.337 91.2817 106.515 89.1894 105.78C88.7422 106.769 87.4576 107.051 86.5874 106.178L86.5823 106.184C82.7093 103.301 80.2462 99.3581 78.4169 95.1374C77.1367 92.7024 76.0883 90.1617 75.2872 87.5454C75.1967 87.2494 75.2086 86.9848 75.2905 86.7571C71.5944 75.0675 70.2265 62.7472 71.1996 50.6101C71.3966 48.106 71.9119 45.5687 71.7853 43.0541C71.6708 40.7822 70.6044 38.6331 69.7914 36.5172C65.5993 27.5223 72.0074 19.4087 81.4089 16.5766Z" fill="white"/>
<path fill-rule="evenodd" clip-rule="evenodd" d="M79.9279 1.97157L79.8023 1.88227C78.4449 0.904861 77.165 -0.376108 75.2509 0.104237C73.6809 0.498316 72.8882 1.69066 72.5514 3.13157C72.0735 2.67283 71.6089 2.19791 71.1553 1.70683C69.9222 0.37302 67.1676 1.06417 66.7999 2.76377C66.0556 6.1872 66.0182 9.67127 66.7426 13.1008C66.8527 13.6201 66.9826 14.1375 67.1346 14.6488C66.3088 13.705 65.5404 12.7208 64.8512 11.6841C64.1047 10.5585 62.418 11.1162 62.3013 12.3187C62.2705 12.6299 62.2529 12.9452 62.2485 13.2624C61.7222 13.4322 61.3589 13.9293 61.4976 14.5397C62.2639 17.8984 63.2349 21.2107 64.402 24.4664C62.5259 23.553 60.423 23.0114 58.4435 23.656C55.2991 24.6827 54.5505 27.8312 55.1648 30.5413C55.9377 33.9486 58.3686 36.8001 61.5042 38.6694C61.8763 39.1827 62.2441 39.7001 62.5942 40.2276C62.6008 41.717 62.8958 43.2024 63.4903 44.5826C64.1597 46.1327 65.34 47.4726 66.7933 48.4911C67.304 49.5119 68.6568 50.2576 69.8445 50.0509L69.9068 50.0391L69.909 50.0411C69.6051 51.0395 69.3431 52.0479 69.1163 53.0584C67.3602 60.887 68.2494 69.0361 69.8511 76.8206L69.9024 77.0689C71.3403 83.9966 73.0138 91.1709 76.266 97.6035C79.2078 103.42 84.1952 108.535 91.3229 109.804C99.7079 111.297 108.989 108.931 116.2 104.984C118.814 103.553 116.418 99.782 113.816 101.237C110.059 103.335 105.979 104.8 101.663 105.572C97.6293 106.291 93.1175 106.536 89.2487 105.045C83.8605 102.967 80.6589 97.8925 78.6331 93.115C77.4397 90.2958 76.5457 87.3857 75.7133 84.4635C74.641 80.7066 73.6413 76.9254 72.8904 73.1019C71.4922 65.97 71.0386 58.5634 72.5183 51.4113C72.9895 49.1297 73.6567 46.834 74.5265 44.6271C74.663 44.4715 74.7929 44.2977 74.9096 44.1077C75.819 42.6446 76.4466 40.9814 77.1226 39.399C77.7149 38.4552 78.3623 37.5478 79.0493 36.6606C80.0765 35.9361 81.0548 35.1615 81.951 34.3164C79.3481 32.7696 77.0512 30.8331 75.3987 28.3664C75.1261 27.9596 75.2991 27.5708 75.6222 27.3515C76.9418 28.8666 78.6501 30.1496 80.4469 31.2864C81.3673 32.0099 82.3586 32.6598 83.3975 33.2471C84.1397 33.3819 84.8902 33.4745 85.6177 33.5504C87.6897 33.7667 89.7727 33.6858 91.8338 33.4332C96.2905 32.8876 115.139 28.1235 123.084 29.9754C124.739 30.3612 125.519 31.7235 126.395 33.0028C127.156 34.1155 128.123 35.0366 129.282 35.795L129.412 35.8785C131.68 37.3195 136.24 41.8778 138.157 45.9464C140.632 51.1991 143.009 66.9401 141.915 67.0755C139.052 67.4312 137.467 68.8135 135.135 70.2968C134.981 70.3938 135.071 70.6565 135.269 70.5899C136.808 70.0806 138.473 69.7795 140.087 69.5329C141.547 69.3086 143.084 69.2682 144.493 69.7471C146.656 70.4827 147.71 72.146 148.144 74.0214C148.314 74.755 148.388 75.5209 148.397 76.2787L148.399 76.4985C148.397 78.8879 147.912 81.5368 146.021 83.2994C145.218 84.0492 144.128 84.5544 142.987 84.6939C141.739 84.8474 140.968 84.3301 139.821 84.0613C138.5 83.7521 137.469 84.5504 137.592 85.5911C137.313 85.8155 137.042 86.0519 136.773 86.2924L136.773 86.2934L136.771 86.2944C136.595 86.3672 136.428 86.4642 136.276 86.5814C136.027 86.7754 135.818 86.9876 135.65 87.216C135.278 87.2826 134.921 87.4726 134.629 87.8202C134.025 88.5336 133.468 89.2551 132.951 89.9907C132.024 90.894 131.101 91.7994 130.192 92.7189C129.097 93.8241 128.031 94.9545 126.959 96.0783L126.422 96.6395C125.843 97.2438 125.266 97.848 124.689 98.4543L124.517 98.6324C123.936 99.2288 123.492 99.6691 123.429 100.528C123.385 101.164 124.132 101.597 124.751 101.451C125.705 101.226 126.147 100.538 126.719 99.8563L127.582 98.84L128.395 97.8824C128.798 97.4054 129.205 96.9305 129.61 96.4556C129.731 97.3307 130.74 98.036 131.66 98.0744L131.875 98.0821C134.036 98.1479 136.663 97.8681 138.308 96.4697C139.048 97.1548 139.968 97.6944 141.102 98.0178C143.679 98.7534 146.312 97.4499 147.354 95.4674C149.373 96.2616 151.654 96.4212 153.836 95.8372C155.095 95.4986 155.53 94.0589 154.653 93.1778L154.613 93.1393L154.603 93.1288C154.784 92.9127 154.884 92.6484 154.9 92.3604C154.919 92.0108 154.642 91.6402 154.699 91.3138C154.917 90.0691 157.129 90.9912 157.832 91.2608C157.966 91.3122 158.092 91.3366 158.21 91.3405C159.296 91.6309 160.478 90.3205 159.909 89.2389C158.634 86.8219 157.39 84.3867 156.1 81.9737C156.263 82.0242 156.43 82.0707 156.595 82.1091C158.914 82.6547 161.726 81.6079 161.191 79.0434C161.067 78.4411 160.473 78.0289 159.883 77.8429C158.733 77.4792 157.87 77.7419 156.985 77.4024C155.987 77.0224 154.946 76.3252 154.069 75.6684C153.134 74.9692 152.326 74.1831 151.61 73.3302C151.324 72.0914 150.828 70.9071 150.036 69.8886C149.987 69.828 149.939 69.7673 149.888 69.7087C154.972 68.5963 154.306 64.0078 156.548 59.9414L156.738 59.6043C158.261 56.8843 159.589 53.8176 158.821 50.7202C158.685 50.1725 158.487 49.6491 158.231 49.16C158.639 49.2065 159.048 49.249 159.455 49.2914C160.391 49.3884 161.343 48.2809 160.97 47.4665C160.774 47.0401 160.559 46.6278 160.325 46.2277C159.678 45.1243 158.883 44.1219 157.947 43.2165C159.519 43.1781 161.094 43.1781 162.648 43.0124C164.117 42.8568 165.661 42.1191 165.616 40.5651C165.57 39.0833 164.153 37.9617 162.84 37.2388C161.547 35.6607 159.907 34.3491 158.053 33.3744C158.419 33.2987 158.791 33.2426 159.169 33.2082L159.359 33.1927C160.418 33.116 161.369 32.8492 162.329 32.443C163.188 32.0792 163.175 30.9758 162.613 30.42C160.798 28.619 158.078 29.2055 155.962 30.2376C156.109 30.0659 156.27 29.9007 156.446 29.7425L156.553 29.6485C157.593 28.7599 156.033 27.3339 154.997 28.2195C154.669 28.4994 154.376 28.8035 154.114 29.1258L154.089 29.0782C152.72 26.5294 150.718 24.2481 148.349 22.4201L147.792 21.9952C143.52 18.72 142.201 17.1676 136.52 17.6499C136.762 16.7027 136.738 15.6371 136.684 14.761L136.676 14.6427C136.458 11.3486 135.135 7.40582 131.634 5.92651C130.724 5.54455 129.694 6.16902 129.936 7.12491C130.106 7.80192 130.313 8.46074 130.57 9.10137C129.806 8.36373 128.987 7.6746 128.12 7.04003C124.583 4.45326 119.858 2.22822 115.21 2.95575C112.655 3.35792 110.652 4.82915 108.513 6.05786C106.364 7.29467 103.964 8.02826 101.447 8.293C97.9309 8.66485 94.4012 8.29098 90.9244 7.70087C88.5353 6.74498 86.2166 5.62539 83.953 4.4189C82.5614 3.67722 81.2072 2.86683 79.9279 1.97157ZM142.362 73.5181C141.617 73.3423 140.783 73.3443 140.036 73.5161C138.11 73.9607 136.317 75.44 136.205 77.3053C136.154 78.1481 136.894 78.9544 137.753 79.1706C138.726 79.4172 139.563 78.9807 140.131 78.2814C140.741 77.5337 140.893 76.7233 141.639 76.0443L141.812 75.8905C142.446 75.3336 143.406 74.6136 144.286 74.7428C144.416 74.761 144.513 74.5993 144.381 74.5347C143.663 74.1749 143.192 73.7121 142.362 73.5181ZM132.354 64.7332C132.014 64.4786 131.565 64.7773 131.725 65.1435L131.737 65.1697C132.14 65.9498 131.667 66.8653 131.178 67.518C130.757 68.0819 131.552 68.6174 132.112 68.3749C133.684 67.6898 133.602 65.6628 132.354 64.7332ZM126.607 41.2966C126.635 41.1066 126.36 41.0278 126.29 41.2157C125.116 44.3421 124.779 47.1107 124.971 50.417L124.989 50.7104C125.196 53.8949 125.804 57.2655 127.904 59.8809C128.39 60.4852 129.386 60.1295 129.225 59.3696C128.58 56.3281 127.34 53.4403 126.858 50.3624C126.354 47.1451 126.127 44.5159 126.607 41.2966ZM137.568 52.6602C137.396 51.8256 135.998 50.9667 135.291 51.8054C135.053 52.0903 135.333 52.44 135.619 52.545C135.888 52.6421 136.128 52.5087 136.392 52.5572C136.606 52.5968 136.762 52.7191 136.866 52.8864L136.888 52.923C137.095 53.2867 137.641 53.0159 137.568 52.6602ZM138.141 46.0114C137.638 45.1586 136.482 44.6149 135.494 45.1464C135.168 45.3223 135.296 45.8336 135.692 45.8174L135.927 45.8087C136.632 45.7851 137.337 45.7982 137.929 46.2074C138.061 46.2984 138.207 46.1266 138.141 46.0114ZM136.375 22.7207C139.191 21.5587 141.992 22.6078 144.292 24.2439C144.482 24.3793 144.574 24.5374 144.594 24.6962C143.059 24.1475 141.425 23.7878 139.862 23.4909C138.585 23.248 137.295 23.0841 136.004 23.0194C136.076 22.9004 136.195 22.7953 136.375 22.7207Z" fill="black"/>
<path fill-rule="evenodd" clip-rule="evenodd" d="M96.7854 92.5433C98.2656 91.9891 99.5863 91.0646 100.552 89.8837C100.888 89.4731 100.975 89.0396 100.904 88.6431C100.825 88.1973 100.538 87.7932 100.146 87.5221C99.7525 87.2502 99.2607 87.1161 98.7852 87.1845C98.3721 87.2439 97.9608 87.4515 97.6353 87.8821L97.5673 87.9682C96.9933 88.681 96.2452 89.2658 95.3929 89.6427C94.5714 90.0061 93.6526 90.1756 92.7018 90.077C90.8909 89.8893 89.6428 88.9905 88.3162 87.7699C88.1518 87.6158 87.9872 87.4569 87.8219 87.2954C87.7175 87.149 87.5726 87.0549 87.4117 87.0055C87.233 86.9507 87.031 86.9538 86.8459 87.0131C86.6674 87.0703 86.5078 87.1786 86.4008 87.3228C86.2991 87.4599 86.2414 87.6292 86.2601 87.8239C86.3816 89.0889 87.1021 90.2177 88.1256 91.1042C89.2624 92.0886 90.7692 92.7697 92.1878 93.0086C93.7507 93.2717 95.3433 93.0832 96.7854 92.5433ZM91.4506 73.0294C89.7878 73.957 87.2542 76.12 89.043 78.4197C91.1485 80.4474 94.18 78.1225 95.6739 77.071C97.0591 76.2561 98.6154 78.352 97.3302 79.3035C86.5355 86.6384 82.1548 73.272 90.6095 71.9388C91.5404 71.7918 91.8862 72.7424 91.4506 73.0294ZM110.795 64.4969C110.611 62.404 107.138 61.9287 106.793 63.9998C106.483 65.855 106.847 67.5592 107.758 69.2295C108.628 70.8252 110.815 70.0808 110.98 68.6277C111.202 66.68 110.909 65.7988 110.795 64.4969ZM84.3575 63.5703C83.8733 62.9883 83.1742 62.591 82.3366 62.8155C79.7195 63.5174 80.4909 66.9273 81.41 68.5871C81.9094 69.4884 83.5236 69.717 84.2531 68.9234C85.4422 67.6292 86.0116 65.0446 84.5 63.7698C84.459 63.7039 84.4134 63.6374 84.3575 63.5703ZM107.795 55.3389L107.381 55.2725C106.103 55.0695 104.512 54.8745 103.608 55.8181C103.128 56.3185 102.963 57.2485 103.608 57.7275C104.742 58.5702 105.996 58.2436 107.356 58.3149C108.476 58.374 109.553 58.5441 110.632 58.8273C113 59.4483 114.929 60.582 116.951 61.8269C117.216 61.9902 117.487 61.6788 117.36 61.451C116.193 59.3527 113.931 57.629 111.665 56.5784C110.456 56.0176 109.133 55.5524 107.795 55.3389ZM86.7431 54.399L86.4267 54.4584C82.9835 55.119 78.5099 56.4385 76.8794 59.5425C76.8172 59.9814 76.8829 60.0755 76.9363 60.137L76.954 60.1574C76.998 60.2099 77.0331 60.2823 77.2404 60.342C77.2979 60.3294 77.356 60.3161 77.4147 60.302C78.1622 60.1222 78.7535 59.8746 79.326 59.6176L79.9467 59.3369C80.6669 59.0128 81.3934 58.7006 82.1633 58.47C83.8064 57.9781 85.4965 57.6316 87.2128 57.4466C87.5848 57.4065 87.943 57.2913 88.2256 57.0938C88.4938 56.9064 88.6987 56.6469 88.7922 56.3019C88.9133 55.8555 88.8785 55.5175 88.6175 55.1147C88.4212 54.8123 88.1404 54.6026 87.818 54.4823C87.4893 54.3595 87.1151 54.3306 86.7431 54.399Z" fill="black"/>
</svg>
