<svg width="203" height="240" viewBox="0 0 203 240" fill="none" xmlns="http://www.w3.org/2000/svg">
<path fill-rule="evenodd" clip-rule="evenodd" d="M67.8924 59.9631C69.37 49.2981 72.7498 38.9431 73.2349 28.118C73.5236 23.4857 73.8122 18.8532 74.1007 14.2204C74.2102 11.3271 77.9672 10.3509 79.4022 12.9142C82.6641 9.29534 88.5051 9.82832 92.9612 9.93817C119.194 10.8681 144.123 28.6113 153.128 53.3507C153.344 53.9405 153.279 54.5683 153.034 55.13C157.231 69.1323 142.388 78.1486 132.264 84.3916C128.157 88.7333 123.329 92.3404 117.878 94.8108C111.608 97.7619 104.628 99.4072 97.7 99.5647C96.1792 99.5996 95.2657 98.3696 95.1559 97.0964C92.9456 96.5818 89.1634 97.1758 87.9947 94.91C74.6655 89.1184 65.9807 74.4392 67.8924 59.9631Z" fill="white"/>
<path fill-rule="evenodd" clip-rule="evenodd" d="M74.8379 25.7305C74.8756 25.3847 74.3765 25.3741 74.2737 25.6542C73.429 27.9565 72.5531 30.2431 71.8839 32.6037C71.2388 34.8787 70.7741 37.2053 70.3035 39.522C69.5231 43.3668 68.852 47.2398 68.2968 51.1253C67.1104 50.1984 65.5588 50.114 64.0976 50.8353C63.4119 51.1736 63.1494 52.0682 63.3139 52.7622C63.4458 53.3189 63.6072 53.8729 63.8009 54.4156C63.3869 54.7821 63.0351 55.2342 62.7797 55.7533C62.1069 57.1205 62.3237 58.5556 62.9272 59.8599C62.8812 59.9377 62.8358 60.016 62.7929 60.099C61.9194 61.796 62.3866 63.3157 63.025 64.9715C63.5028 66.2104 63.2361 67.6055 64.267 68.5408C64.6254 69.6926 65.1631 70.7637 65.9459 71.7314C66.1236 72.057 66.3898 72.3186 66.7058 72.5112C66.7852 74.3289 66.977 76.1405 67.3378 77.9362C68.7387 84.9088 73.1846 91.1215 78.6884 95.5032C84.0741 99.791 90.3992 102.353 97.2242 103.181C100.538 103.584 103.857 103.457 107.144 102.882L107.553 102.809C110.586 102.259 114.257 101.348 116.354 99.0593C117.457 97.8557 116.812 95.2066 114.862 95.4567C113.829 95.589 112.93 95.7547 111.957 96.1361C111.199 96.4336 110.439 96.7202 109.66 96.963C108.168 97.4276 106.626 97.7899 105.077 97.9903C101.85 98.4073 98.4971 98.297 95.3075 97.6676C89.5076 96.5229 83.8728 93.8825 79.4714 89.9072C74.355 85.2862 71.3559 79.3056 70.9145 72.4077C70.423 64.7253 71.3097 56.8586 72.0458 49.2161C72.4287 45.2406 72.9148 41.273 73.5001 37.3222C74.072 33.4619 74.4149 29.6071 74.8379 25.7305ZM120.117 0.923797L119.869 0.885703C110.019 -0.613762 99.6562 -0.50745 90.3981 3.55886C88.6238 4.33888 86.8871 5.27943 85.2518 6.37085C84.0805 6.24851 82.9023 6.14927 81.7453 6.133C80.2894 6.11391 78.8685 6.8706 78.6894 8.3439C77.3251 8.51362 76.0689 9.01572 75.2654 10.0202C74.9522 10.4112 74.7425 10.8638 74.6362 11.3353C73.7976 11.5335 72.9752 11.8374 72.1953 12.2381C71.248 12.7261 70.7013 14.0839 71.0359 15.0883C71.1132 15.3163 71.2011 15.5384 71.2995 15.7557L71.3753 15.9178L71.3305 15.9791C70.5741 17.1955 71.0996 18.7914 72.2589 19.5174C73.1284 20.0619 74.0992 20.4957 75.0983 20.7055C75.0158 21.1062 74.9404 21.5093 74.8792 21.9171C74.8556 22.0824 75.0674 22.2002 75.1619 22.0373C74.9231 22.7807 74.6238 23.5618 74.2639 24.3807C74.0521 24.8637 74.7307 25.2927 74.9897 24.8048C75.6777 23.5036 76.1045 22.1693 76.7289 20.828C77.306 20.7903 77.8811 20.6583 78.4349 20.4061C78.7978 20.2411 79.0732 19.9629 79.2712 19.6305C79.2832 19.6447 79.29 19.6612 79.302 19.6777C81.1612 22.0703 84.7947 22.9095 87.6035 23.6662C90.6194 24.4797 93.7064 24.9816 96.8048 25.3517C102.215 25.9952 107.668 26.1154 113.104 26.3655C113.464 26.3818 113.823 26.3999 114.183 26.4174C116.391 28.3551 119.234 29.5592 122.152 29.9253C123.63 30.1105 125.378 30.0634 127.036 29.6858C127.636 30.2986 128.394 30.7527 129.221 30.9858C129.37 34.0736 131.091 36.9971 133.693 38.7012L133.647 38.8847C133 41.5214 133.009 44.4036 135.327 46.2362C135.641 46.4842 135.983 46.6968 136.344 46.8731L136.265 47.0553C135.068 49.8543 134.685 52.9462 136.936 55.2688C137.848 56.2102 139.45 55.9873 140.134 54.9068L140.168 54.8521C140.206 54.7877 140.247 54.7259 140.286 54.6628C140.347 54.7877 140.441 54.8931 140.579 54.952C141.434 55.32 141.776 55.0487 142.556 54.6691C143.277 54.3155 144.038 54.0515 144.816 53.8467C145.45 53.6814 146.081 53.5636 146.717 53.4952C150.737 55.0322 153.334 59.7467 152.717 64.1713C152.382 66.5805 151.06 68.966 148.756 69.9655C147.747 70.404 146.562 70.5878 145.471 70.4393C143.993 70.239 142.858 69.3081 141.328 69.8406C140.725 70.0504 140.348 70.5244 140.315 71.1727C140.261 72.1908 140.621 72.9545 141.229 73.5203C140.157 74.416 139.292 75.6607 138.362 76.6533C137.197 77.8954 136.017 79.1377 134.759 80.2833C133.571 81.37 132.308 82.3789 130.97 83.2749L130.829 83.3676C129.152 84.4598 127.04 85.4299 126.959 87.7137C126.933 88.402 127.35 89.0335 127.916 89.3848C130.029 90.6954 132.329 88.9746 133.986 87.7137C134.653 87.2066 135.301 86.681 135.925 86.1364C136.342 86.1694 136.797 86.1013 137.271 85.8913C137.575 85.7593 137.872 85.6037 138.164 85.4387C139.113 85.6768 140.009 85.467 140.746 84.9696C141.809 85.2312 142.935 85.2619 143.892 85.0521C144.766 84.8588 145.546 84.4463 146.19 83.8923C147.533 84.3213 149.024 84.2412 150.349 83.4279C151.143 82.9402 151.762 82.2446 152.099 81.4313C152.271 81.1627 152.381 80.8493 152.389 80.504L152.389 80.3729C153.544 80.3988 154.701 80.0028 155.594 79.0884C156.414 78.249 156.814 77.2026 156.859 76.1392C158.021 75.8094 159.084 75.1324 159.892 74.0884C161.23 72.3581 161.409 70.2201 160.721 68.3107C160.766 68.2093 160.806 68.1056 160.841 68.0019C161.909 66.4956 162.613 64.6781 162.557 62.856C162.55 62.5731 162.512 62.2952 162.455 62.0194C163.506 61.4604 164.279 60.4798 164.362 59.2328C164.425 58.2546 164.074 57.2975 163.44 56.5738C163.749 55.836 163.886 55.0345 163.792 54.233C163.695 53.4103 163.405 52.6961 162.981 52.0999C162.99 51.8831 162.979 51.6636 162.943 51.4397C162.986 51.2204 163.021 50.9941 163.04 50.7634C163.24 48.2361 161.496 46.025 159.373 44.8581C158.815 44.5517 158.212 44.3018 157.608 44.0897C157.17 43.9341 156.51 43.8822 156.124 43.597C156.14 43.5852 155.98 43.378 155.952 43.267C155.921 43.1302 155.888 42.9959 155.872 42.8568C155.808 42.2722 155.855 41.6711 155.867 41.0841C155.919 38.4204 155.836 35.7449 155.556 33.0953C155.035 28.1828 153.751 23.3763 151.249 19.0837C149.149 15.4864 146.274 12.4479 142.978 9.92799C136.412 4.91103 128.218 2.18318 120.117 0.923797ZM150.547 62.0169C151.401 59.9618 147.377 59.9415 146.314 60.0392L146.282 60.0422C143.887 60.2805 140.143 61.4327 139.164 63.8501C138.758 64.8508 139.959 65.9354 140.919 65.6063C141.86 65.2843 142.387 64.5927 143.142 63.9875C143.34 63.8287 143.546 63.6804 143.756 63.5373C143.646 63.8899 143.469 64.2157 143.223 64.459L143.165 64.5137C142.006 65.5551 144.078 67.1918 144.847 65.8126C145.257 65.0787 145.421 64.2735 145.293 63.4402C145.255 63.1943 145.189 62.9694 145.093 62.7549C145.17 62.7167 145.245 62.6752 145.322 62.6385L145.46 62.5744C146.383 62.1557 150.318 60.512 150.286 61.9817C150.283 62.1444 150.494 62.1446 150.547 62.0169Z" fill="black"/>
<path fill-rule="evenodd" clip-rule="evenodd" d="M112.651 77.507C106.257 77.8226 96.3006 80.565 95.8029 82.3177C95.0256 85.0544 96.6959 95.3148 93.9023 100.841C92.7114 103.197 88.1894 102.986 86.4372 103.753C80.5747 106.32 63.2191 111.189 59.6406 117.32C58.207 119.776 49.3967 150.251 44.7153 165.799C44.1875 167.551 43.5913 169.173 42.9433 170.674L42.7051 169.507C40.7963 160.11 39.8419 154.422 39.8419 152.441C39.8419 149.347 42.3094 136.291 39.8419 132.971C37.3992 129.684 31.5122 126.996 28.8635 126.943L28.7843 126.942C27.0452 126.942 25.5362 126.398 24.2574 125.31L22.3823 124.367C12.8434 119.579 7.27039 116.952 5.66321 116.487C3.09857 115.745 -1.26616 117.326 0.916214 119.698C2.37112 121.28 6.02715 124.077 11.8843 128.091L14.0927 129.847L13.8259 129.986C10.9717 131.489 9.29347 132.755 8.79121 133.782C8.2735 134.841 8.52191 136.093 9.53647 137.539L9.38257 137.689C8.09959 138.949 7.4581 139.794 7.4581 140.224V142.326C6.18173 144.196 5.86264 145.755 6.50082 147.004C7.13901 148.253 8.15089 149.335 9.53647 150.251C10.5575 152.938 11.7733 154.85 13.1841 155.988C14.5948 157.125 17.033 158.072 20.4985 158.829L23.6346 166.33L26.1757 176.869L27.4561 188.628L27.0843 188.897C25.3611 190.153 24.2574 191.083 24.2574 192.045C24.2574 193.544 31.2102 228.781 42.0275 230.358C44.367 230.7 56.4999 229.027 60.4835 225.785L60.4247 226.135C59.4874 231.798 59.6857 234.739 61.0196 234.958C77.4129 237.647 123.971 238.478 200.694 237.45C201.15 196.714 199.086 169.584 194.502 156.061C182.776 121.474 169.849 109.661 165.326 108.649C161.364 107.763 147.627 102.293 143.786 100.841C141.28 99.8937 140.743 97.0524 137.886 97.0524L137.655 97.0536C134.892 97.0814 132.443 97.5756 131.066 96.1543C127.454 92.4243 128.464 87.2613 126.965 82.3177C126.14 79.5938 120.498 77.1196 112.651 77.507Z" fill="white"/>
<path fill-rule="evenodd" clip-rule="evenodd" d="M130.217 87.2736C129.842 86.5296 128.845 86.626 128.188 86.9635C126.216 88.4055 128.279 91.2005 128.825 92.9602C130.228 96.3733 132.665 99.709 136.029 101.304C135.75 104.697 135.434 108.083 135.317 111.486C131.016 116.823 123.765 118.771 117.328 120.269C107.218 123.066 95.8078 117.335 92.3956 107.338C96.2791 105.131 97.5359 99.3508 96.3772 95.3185C96.2765 95.0352 95.8375 94.9101 95.6814 95.2263C94.618 97.4144 94.7598 100.084 93.5508 102.246C81.9467 103.357 66.9707 107.737 59.3686 117.125C55.9996 121.822 54.6651 127.93 53.0057 133.374C49.4653 144.596 46.6443 156.045 43.1722 167.279L42.7628 165.153C41.6411 159.298 40.6218 153.363 41.3794 147.409L41.3929 147.124C41.6405 142.386 43.1227 133.581 39.4496 130.383C36.1272 127.843 31.3141 125.802 27.1449 126.972C19.7253 123.67 13.3214 118.108 5.41948 115.941C2.9875 115.441 -0.51123 116.034 0.0636292 119.334C1.65671 125.107 8.32819 127.347 12.8888 130.324C9.96539 131.116 6.40149 134.673 8.68552 137.774C8.70528 137.829 8.72282 137.871 8.74039 137.904C6.88809 138.725 6.62866 140.789 7.08324 142.559C7.12932 143.026 7.25223 142.624 6.97765 143.048C4.88763 145.02 5.81149 150.517 8.95988 150.703C8.75378 153.307 10.4261 155.837 12.5442 157.257C14.8271 158.788 18.1281 158.854 20.0181 160.948C24.4556 168.776 25.9864 178.017 26.4701 186.98C23.545 188.075 20.9205 191.351 23.5781 194.13C23.6306 194.136 23.683 194.142 23.7361 194.146C25.2767 198.259 25.8716 202.644 26.6863 206.939C27.9398 214.268 31.2066 220.998 35.378 227.103C40.202 235.185 53.1738 233.904 59.7088 228.688C59.6826 230.057 59.4572 231.417 59.8953 232.739C60.542 234.166 62.1186 233.55 62.2746 232.144C65.7292 234.088 66.5429 227.673 62.7026 228.69C62.9981 224.053 63.1693 219.408 63.3082 214.763C67.6559 216.17 67.8434 208.955 63.3963 210.397L63.4015 208.403C63.4342 193.106 63.2653 177.758 61.2474 162.582C61.0609 161.447 60.7448 160.349 60.5604 159.22C60.5406 159.104 60.3585 159.137 60.3578 159.249C60.0455 180.495 61.4335 201.787 59.9853 223.041C58.7796 223.408 58.299 224.792 57.4063 225.599C55.4245 227.429 52.7256 228.32 50.0864 228.631C42.6961 229.667 39.5054 227.409 36.2143 220.983C37.6986 221.976 39.7045 220.223 38.7997 218.653L38.7714 218.605C37.8317 216.941 35.1783 217.938 35.5143 219.802C32.2055 214.501 30.4737 208.524 29.1947 202.46L29.0217 201.735C28.3999 199.16 27.5931 196.21 26.1001 193.881C35.205 191.559 44.1116 184.486 45.5363 174.783C47.8481 182.048 50.9798 189.151 53.9647 196.217C54.8865 198.674 55.2706 201.315 56.592 203.595C56.8993 204.122 57.6785 203.986 57.8523 203.43C59.0406 198.115 55.4396 193.059 53.57 188.275C52.0432 185.571 47.6608 173.222 44.9437 173.192C47.9969 159.805 52.0691 146.518 55.9473 133.297C59.6974 115.446 67.3394 112.004 83.5288 106.383C80.6086 121.27 67.2767 135.679 74.3709 151.293L74.5434 151.698C75.269 153.42 75.8718 155.155 75.3652 157.044C74.8735 158.878 73.7541 160.47 72.8584 162.119C67.8522 171.433 71.2982 182.312 73.2339 192.012C75.6791 203.388 78.0946 214.774 80.622 226.132C81.1203 228.398 81.4431 230.733 82.1958 232.928C82.5843 234.061 84.5224 233.954 84.3971 232.632C84.1581 230.067 83.4381 227.566 82.9109 225.048C79.7638 208.742 75.5054 192.628 72.7978 176.251C71.0561 164.127 77.9128 162.264 77.6569 154.431C76.7249 150.425 74.2581 146.85 74.3996 142.581C73.8513 129.512 83.3668 118.731 84.5415 106.021L86.6157 105.28C87.6524 104.909 88.688 104.535 89.7202 104.152C84.2867 142.166 85.9366 181.011 88.6528 219.213C89.2077 220.976 88.6798 233.29 91.0062 232.197C91.1236 232.885 91.4891 233.562 92.2837 233.558C99.4984 233.624 106.715 233.739 113.93 233.825C117.4 233.505 122.17 234.83 125.122 232.827C128.53 231.854 128.922 222.621 129.833 219.33L130.188 216.936C135.979 177.827 141.162 137.912 136.999 98.4154C142.791 98.6381 143.986 104.891 144.416 109.444C145.49 119.492 151.98 128.146 152.291 138.31C152.317 140.776 151.852 143.164 150.866 145.429C148.252 150.975 143.731 157.388 147.11 163.583C151.107 168.406 150.761 169.676 149.294 175.636C145.168 195.339 138.317 214.281 131.799 233.278C133.215 240.662 141.733 213.25 142.535 211.183C146.305 213.08 148.365 206.786 144.04 206.337C146.818 197.036 149.374 187.664 151.503 178.19L151.559 177.923C152.499 173.545 154.349 168.419 151.226 164.536C143.173 156.39 156.546 147.285 154.859 137.416C156.315 138.496 158.52 137.36 158.487 135.545C158.553 133.502 155.81 132.456 154.49 134.015C153.133 126.008 148.411 119.018 146.982 111.035L146.917 110.66C146.433 107.839 146.297 104.87 144.911 102.299C146.797 103.524 148.805 104.514 150.871 105.388C147.178 108.474 154.329 111.29 153.737 106.524C173.989 112.385 178.567 120.559 186.003 139.331C184.614 137.981 182.234 139.728 183.066 141.45C183.729 143.263 186.623 142.733 186.622 140.8L186.96 141.608C191.469 152.394 195.573 163.441 197.636 174.984C193.59 174.412 194.62 180.881 198.286 179.057C199.757 189.322 199.78 199.733 199.6 210.081C196.188 208.291 196.085 214.374 199.567 212.639C199.44 221.119 199.253 229.6 199.113 238.08C199.084 239.885 201.868 239.876 201.911 238.08C202.237 225.05 202.829 211.996 202.547 198.962C202.812 176.34 196.311 154.536 186.625 134.271C178.055 110.937 166.216 108.284 144.435 101.499C142.425 98.5138 138.129 95.69 134.624 97.5648C132.664 94.3985 131.668 90.6472 130.217 87.2736ZM167.534 168.596C167.453 168.309 167.043 168.381 167.03 168.664C166.847 172.325 167.01 176.009 167.26 179.685C167.412 181.929 167.598 184.171 167.756 186.4C168.175 192.28 168.513 198.167 168.77 204.058C168.68 204.021 168.588 203.988 168.491 203.962C168.048 203.841 167.605 203.841 167.161 203.962C166.766 204.072 166.42 204.265 166.123 204.544L166.059 204.605C165.816 204.831 165.642 205.099 165.541 205.409C165.398 205.684 165.325 205.979 165.325 206.293L165.327 206.373C165.329 206.825 165.441 207.244 165.669 207.635C165.89 208.011 166.189 208.309 166.564 208.533C166.955 208.759 167.374 208.871 167.826 208.873C167.875 208.878 167.923 208.882 167.971 208.884C168.307 208.898 168.621 208.827 168.911 208.676L168.955 208.663C169.064 211.651 169.154 214.642 169.22 217.633C169.279 220.239 169.358 222.845 169.411 225.451L169.436 226.755L169.483 229.637C169.499 230.822 169.491 231.956 169.894 233.074L169.942 233.203C170.232 233.949 170.458 234.988 171.233 235.403C171.852 235.734 172.686 235.612 173.042 234.966C173.34 234.426 173.081 233.648 172.64 233.284C172.649 233.26 172.662 233.238 172.673 233.214C172.741 233.016 172.844 232.83 172.905 232.63C173.099 231.997 173.046 231.323 173.048 230.666C173.048 229.507 173.009 228.348 172.978 227.191C172.91 224.727 172.831 222.266 172.734 219.804C172.408 211.547 171.794 203.29 171.09 195.056L170.852 192.276C170.533 188.581 170.204 184.881 169.738 181.204C169.716 181.029 169.694 180.853 169.67 180.677C169.92 180.552 170.153 180.379 170.338 180.186C171.077 179.409 171.526 178.248 171.946 177.247L172.043 177.019C172.499 175.952 172.921 174.872 173.138 173.726L173.159 173.62C173.258 173.132 173.454 172.267 172.936 172.03C172.666 171.907 172.495 171.995 172.407 172.265C172.396 172.301 172.405 172.34 172.425 172.371C172.212 172.698 171.878 173.003 171.668 173.306L170.946 174.338L170.59 174.856C170.138 175.522 169.655 176.159 169.157 176.787C168.764 174.029 168.283 171.282 167.534 168.596ZM137.96 230.054C137.058 229.347 135.59 229.731 135.59 231.036C135.59 232.346 137.06 232.724 137.96 232.017L138.005 231.984L138.048 231.949C138.538 231.566 138.554 230.569 138.085 230.153L138.048 230.122C138.02 230.098 137.991 230.076 137.96 230.054ZM177.259 227.505L177.181 227.507C176.773 227.507 176.393 227.61 176.04 227.817C175.886 227.933 175.735 228.051 175.581 228.17C175.3 228.451 175.107 228.785 174.999 229.169L174.918 229.771C174.907 230.082 174.971 230.372 175.114 230.643C175.206 230.923 175.362 231.167 175.581 231.372C175.787 231.593 176.029 231.749 176.31 231.839C176.557 231.97 176.821 232.036 177.104 232.036L177.181 232.035C177.591 232.035 177.971 231.931 178.325 231.725C178.478 231.609 178.63 231.49 178.784 231.372C179.062 231.09 179.258 230.757 179.365 230.372C179.392 230.172 179.418 229.97 179.446 229.771C179.457 229.459 179.392 229.169 179.251 228.899C179.159 228.618 179.003 228.374 178.784 228.17C178.577 227.948 178.336 227.792 178.055 227.702C177.807 227.572 177.541 227.505 177.259 227.505ZM74.5114 223.33L73.9362 223.407C73.3852 223.533 72.9421 223.939 72.6458 224.402C72.4875 224.65 72.4021 224.918 72.3889 225.206C72.3251 225.491 72.3385 225.779 72.4285 226.066C72.4943 226.347 72.6236 226.593 72.8148 226.802C72.8804 226.905 72.9574 227 73.045 227.083C73.2252 227.384 73.4972 227.581 73.7783 227.784C74.0152 227.935 74.2722 228.016 74.5488 228.03C74.7309 228.078 74.9153 228.078 75.0997 228.03C75.374 228.016 75.6309 227.935 75.8679 227.784C76.0082 227.676 76.1486 227.566 76.2871 227.459C76.4098 227.316 76.5242 227.169 76.6317 227.015C76.7039 226.846 76.7744 226.679 76.8444 226.512C76.9741 226.11 76.9105 225.755 76.84 225.353C76.8293 225.285 76.8115 225.223 76.7874 225.157L76.74 225.03C76.6136 224.696 76.5461 224.583 76.3222 224.292L76.2369 224.178C76.1942 224.121 76.1504 224.066 76.1003 224.016C75.9601 223.871 75.7601 223.75 75.6023 223.625C75.2643 223.429 74.8999 223.333 74.5114 223.33ZM149.032 221.924L148.959 221.925C148.641 221.927 148.342 222.006 148.066 222.167L147.706 222.446C147.486 222.667 147.335 222.926 147.249 223.228C147.229 223.385 147.207 223.544 147.185 223.699C147.177 223.943 147.227 224.171 147.339 224.385C147.409 224.604 147.532 224.793 147.706 224.955C147.866 225.127 148.057 225.25 148.276 225.322C148.468 225.422 148.674 225.475 148.893 225.475L148.959 225.474C149.279 225.474 149.578 225.392 149.854 225.232L150.214 224.955C150.434 224.734 150.585 224.472 150.671 224.171C150.691 224.013 150.713 223.858 150.735 223.699C150.743 223.456 150.693 223.228 150.581 223.017C150.509 222.797 150.388 222.606 150.214 222.446C150.054 222.272 149.863 222.149 149.644 222.079C149.452 221.978 149.25 221.927 149.032 221.924ZM163.518 221.198C163.059 221.194 162.594 221.324 162.218 221.589C161.854 221.848 161.578 222.127 161.4 222.547C161.351 222.661 161.303 222.773 161.261 222.887C161.073 223.39 161.037 223.895 161.299 224.387C161.551 224.863 162.095 225.072 162.583 225.214C162.995 225.337 163.463 225.357 163.873 225.21C164.077 225.138 164.277 225.061 164.462 224.949C164.806 224.736 164.993 224.483 165.223 224.171C165.403 223.864 165.493 223.53 165.493 223.175C165.493 222.816 165.403 222.485 165.223 222.176C164.87 221.572 164.216 221.203 163.518 221.198ZM186.784 221.622C186.204 221.622 185.695 221.89 185.346 222.342C184.993 222.801 184.863 223.372 185.019 223.941C185.184 224.543 185.682 225.07 186.299 225.221C186.755 225.333 187.129 225.329 187.583 225.252C187.967 225.186 188.261 224.957 188.555 224.72C188.891 224.446 188.994 223.945 188.939 223.541C188.887 223.137 188.7 222.874 188.417 222.634L188.415 222.628L188.52 222.709C188.481 222.674 188.441 222.637 188.401 222.599C188.389 222.577 188.378 222.553 188.367 222.529C188.204 222.252 187.985 222.035 187.71 221.873C187.423 221.706 187.115 221.622 186.784 221.622ZM51.6667 214.971C51.3484 214.886 51.028 214.886 50.7097 214.971C50.4746 215.026 50.2707 215.134 50.0971 215.294C49.9213 215.408 49.7776 215.555 49.6691 215.737L49.6342 215.799C49.3837 216.225 49.3444 216.712 49.452 217.187C49.5857 217.773 50.1256 218.307 50.7097 218.445L50.7293 218.448L50.749 218.454C50.986 218.528 51.2255 218.539 51.4623 218.485C51.7018 218.474 51.9235 218.403 52.1274 218.272C52.3864 218.105 52.6037 217.889 52.7705 217.63C52.9024 217.424 52.9724 217.202 52.9836 216.963C53.0251 216.805 53.0251 216.647 52.9836 216.489C52.9724 216.249 52.9024 216.027 52.7705 215.821L52.4898 215.458L52.461 215.435C52.2371 215.21 51.9718 215.057 51.6667 214.971ZM73.7651 203.351C70.8875 203.351 70.8919 207.817 73.7651 207.817C76.6424 207.817 76.6382 203.351 73.7651 203.351ZM179.117 202.787C178.814 202.719 178.511 202.732 178.211 202.826C178.028 202.903 177.848 202.98 177.668 203.054L177.208 203.411C177.122 203.483 177.08 203.562 177.001 203.665L176.902 203.794C176.76 203.986 176.756 204.026 176.6 204.434C176.494 204.824 176.494 205.215 176.6 205.606C176.65 205.795 176.727 205.973 176.826 206.138C176.916 206.296 177.024 206.434 177.146 206.562L177.208 206.625C177.414 206.847 177.657 207.003 177.938 207.095C178.116 207.198 178.307 207.249 178.511 207.249C178.814 207.317 179.117 207.304 179.418 207.209C179.6 207.132 179.78 207.055 179.96 206.981L180.421 206.625L180.776 206.164L180.89 205.893L181.005 205.622L181.086 205.018C181.097 204.704 181.033 204.414 180.891 204.142C180.836 203.95 180.739 203.781 180.599 203.641C180.498 203.47 180.362 203.334 180.19 203.233C180.05 203.092 179.881 202.995 179.69 202.94C179.512 202.837 179.321 202.787 179.117 202.787ZM36.7939 199.596C36.5545 199.588 36.3306 199.638 36.1243 199.748C36.0518 199.772 35.9814 199.803 35.9135 199.838C35.648 199.994 35.4373 200.204 35.2814 200.468C35.1541 200.67 35.0839 200.888 35.0729 201.122C35.0252 201.334 35.0296 201.547 35.087 201.759L35.1058 201.823C35.1541 201.996 35.2265 202.156 35.3229 202.304C35.3321 202.321 35.3429 202.339 35.356 202.354C35.5031 202.587 35.6985 202.778 35.9399 202.921C36.2077 203.074 36.4952 203.153 36.8069 203.156C37.4281 203.156 37.9636 202.82 38.2907 202.304C38.3368 202.231 38.3631 202.139 38.3958 202.064C38.4246 201.994 38.4706 201.904 38.495 201.823C38.5782 201.511 38.5782 201.199 38.495 200.888C38.4401 200.659 38.3368 200.459 38.1809 200.29C38.056 200.099 37.8914 199.948 37.6871 199.838C37.4338 199.69 37.1617 199.611 36.8728 199.598L36.7939 199.596ZM158.287 197.412C157.983 197.328 157.681 197.322 157.379 197.392L157.304 197.412C157.063 197.469 156.854 197.578 156.674 197.741C156.474 197.873 156.314 198.046 156.198 198.261C156.031 198.549 155.947 198.861 155.945 199.194C155.947 199.528 156.031 199.84 156.198 200.128C156.362 200.407 156.584 200.626 156.863 200.791L157.104 200.907C157.306 201.035 157.521 201.103 157.754 201.113C157.91 201.155 158.066 201.155 158.219 201.113C158.377 201.113 158.524 201.074 158.66 200.995C158.81 200.953 158.937 200.878 159.047 200.769C159.238 200.646 159.387 200.483 159.497 200.279L159.675 199.86L159.736 199.394L159.675 198.931L159.578 198.703C159.49 198.388 159.332 198.116 159.102 197.886C158.871 197.657 158.599 197.499 158.287 197.412ZM49.4364 193.707C49.1162 193.606 48.7977 193.593 48.4795 193.663C48.2646 193.663 48.0627 193.718 47.8759 193.828C47.6717 193.885 47.4964 193.986 47.3469 194.135C47.0859 194.304 46.8815 194.528 46.7301 194.807L46.4889 195.38C46.344 195.751 46.3967 196.298 46.4843 196.672C46.5567 196.979 46.6972 197.247 46.9057 197.475C47.0111 197.653 47.1515 197.794 47.3295 197.899C47.5328 198.084 47.7671 198.216 48.033 198.294L48.1063 198.314L48.1327 198.32C48.1373 198.323 48.1414 198.323 48.1458 198.323C48.148 198.325 48.1526 198.325 48.1548 198.325C48.26 198.351 48.3675 198.367 48.4795 198.371C48.7977 198.441 49.1162 198.428 49.4364 198.327C49.6252 198.248 49.8162 198.167 50.0071 198.086C50.1696 197.963 50.33 197.837 50.4922 197.712C50.6173 197.55 50.7424 197.387 50.8676 197.227C51.0434 196.953 51.1375 196.654 51.1507 196.335C51.208 196.123 51.208 195.912 51.1507 195.699C51.1507 195.481 51.0958 195.282 50.9885 195.095C50.8917 194.796 50.7271 194.539 50.4922 194.322C50.33 194.197 50.1696 194.072 50.0071 193.949C49.8162 193.867 49.6252 193.786 49.4364 193.707ZM189.429 185.846C189.098 185.756 188.766 185.756 188.435 185.846L187.989 186.033C187.77 186.152 187.596 186.312 187.464 186.516C187.298 186.696 187.186 186.909 187.129 187.153C186.999 187.487 187.014 188.016 187.118 188.356C187.234 188.743 187.414 189.05 187.693 189.34C188.156 189.818 188.867 189.957 189.497 189.812C189.67 189.772 189.835 189.696 189.984 189.601C190.46 189.307 190.781 188.793 190.779 188.224C190.779 188.163 190.774 188.101 190.766 188.04C190.796 187.915 190.807 187.785 190.803 187.649L190.737 187.153L190.733 187.14C190.645 186.825 190.487 186.553 190.257 186.323C190.044 186.112 189.795 185.959 189.511 185.868L189.44 185.846H189.429ZM23.802 136.54C24.4016 131.622 26.6561 126.331 33.5321 129.219L34.0428 129.411C35.7442 130.055 37.7269 130.902 38.7624 132.39C39.4757 133.415 39.2345 135.403 39.3331 136.599C39.7815 140.49 39.5409 144.376 39.0738 148.25C38.4709 157.332 40.3796 166.741 44.1797 174.995C40.3765 181.151 35.2867 186.892 28.3435 189.458C28.0498 182.459 26.68 175.588 25.2221 168.759L25.1647 168.461C24.5817 165.381 24.2899 162.22 22.2679 159.659C18.1551 155.192 12.4983 157.721 9.79176 150.545C10.3602 150.257 10.0464 149.273 9.36134 149.462C6.98753 149.884 6.60188 145.481 8.22656 144.421C9.91951 143.388 8.21515 141.483 8.93575 140.108C9.33742 139.515 10.2044 139.495 10.5975 138.812C11.6392 136.298 6.42584 134.687 12.5567 131.853C13.8116 131.407 15.2141 131.684 16.4797 131.679C18.3414 131.853 19.821 133.165 21.5237 133.578C19.6698 138.38 24.3474 143.004 28.5694 139.168C30.8668 141.341 33.4359 146.292 27.8514 143.984C25.1181 142.159 22.7649 139.8 19.5919 138.676L19.5248 138.655C18.347 138.269 13.1927 135.764 13.4483 137.932C15.3789 139.796 18.5631 139.774 20.7991 141.287C23.899 142.722 25.8812 146.197 29.5922 146.148C30.4478 151.345 24.5529 148.183 22.3577 146.75L21.7491 146.42C18.6527 144.747 15.5098 143.196 11.8989 143.176C10.9024 143.169 10.9068 144.706 11.8989 144.719C16.6048 144.749 20.435 147.691 24.377 149.879C24.7651 152.913 20.3246 151.585 18.6395 151.137C16.8728 150.889 14.0354 148.977 12.4891 149.987C11.8844 151.541 14.5458 151.426 15.4722 151.897C11.2422 153.93 14.9483 155.21 16.0824 152.086L16.4146 152.199C19.2472 153.152 26.1156 155.112 25.2987 150.312C26.3354 150.771 27.5994 151.045 28.7449 150.791C31.6016 155.017 36.1585 153.382 29.5351 150.501C31.0277 149.806 31.5261 147.125 30.0924 146.127C35.306 145.808 31.4353 140.336 29.2774 138.513C29.4811 138.307 29.6785 138.097 29.8624 137.884C31.1067 138.477 32.4146 138.837 33.8132 138.964C35.1519 139.085 35.4502 136.806 34.1291 136.619C32.7134 136.419 31.4094 136.042 30.1629 135.33C28.2735 134.514 27.6286 138.021 25.7377 138.145C24.7063 138.349 24.0085 137.445 23.802 136.54ZM67.696 181.793C67.2394 181.793 66.8336 181.984 66.5021 182.287C66.1707 182.59 66.028 183.045 66.0083 183.479C65.9995 183.712 66.0478 183.929 66.1531 184.131C66.2212 184.34 66.3375 184.52 66.5021 184.674C66.8094 184.979 67.2638 185.168 67.696 185.168C68.1525 185.168 68.5586 184.977 68.8902 184.674C69.2214 184.368 69.3643 183.916 69.3841 183.479C69.3929 183.249 69.3443 183.031 69.2392 182.829C69.178 182.641 69.0776 182.475 68.9382 182.333L68.8902 182.287C68.5827 181.979 68.1286 181.793 67.696 181.793ZM53.8622 171.379L53.7891 171.38C53.4028 171.383 53.0448 171.479 52.7114 171.672C52.5665 171.784 52.4217 171.894 52.2788 172.006C52.0134 172.274 51.8312 172.588 51.7301 172.951C51.6269 173.328 51.6269 173.708 51.7301 174.086C51.7652 174.303 51.8464 174.514 51.9737 174.696C52.1627 175.01 52.4127 175.263 52.729 175.449C53.056 175.64 53.4094 175.735 53.7891 175.737C54.1686 175.735 54.5222 175.64 54.8493 175.449C55.1653 175.263 55.4156 175.01 55.6021 174.696C55.7316 174.514 55.8128 174.303 55.848 174.086C55.9511 173.708 55.9511 173.328 55.848 172.951C55.7542 172.614 55.5904 172.319 55.3549 172.064L55.2992 172.006C55.1061 171.798 54.8778 171.651 54.6122 171.565C54.3788 171.442 54.1288 171.38 53.8622 171.379ZM159.438 171.497C159.275 171.453 159.115 171.453 158.952 171.497C158.711 171.508 158.485 171.58 158.276 171.712C158.153 171.808 158.03 171.903 157.908 171.998L157.8 172.126C157.571 172.405 157.566 172.453 157.39 172.878C157.317 173.115 157.306 173.352 157.359 173.589C157.359 173.75 157.4 173.899 157.48 174.037C157.523 174.189 157.598 174.321 157.71 174.43C157.789 174.564 157.894 174.672 158.028 174.751C158.199 174.907 158.401 175.015 158.634 175.069L159.106 175.133C159.167 175.124 159.231 175.116 159.293 175.109C159.367 175.107 159.439 175.098 159.509 175.085L159.58 175.069L159.645 175.052C159.731 175.027 159.815 174.993 159.896 174.951C160.05 174.907 160.184 174.83 160.298 174.716C160.495 174.589 160.653 174.417 160.768 174.204L160.798 174.134C160.84 174.059 160.875 173.983 160.902 173.899C160.976 173.767 161.013 173.627 161.016 173.475C161.059 173.274 161.056 173.074 161.004 172.874L160.985 172.808L160.816 172.406C160.728 172.27 160.636 172.131 160.518 172.019C160.446 171.956 160.272 171.82 160.174 171.752L160.114 171.712C159.905 171.58 159.679 171.508 159.438 171.497ZM185.899 168.357C185.583 167.112 183.95 166.719 183.061 167.608C182.173 168.498 182.565 170.131 183.81 170.447L183.953 170.482C185.155 170.788 186.24 169.701 185.935 168.498L185.899 168.357ZM35.2464 158.201C35.2551 158.078 35.0971 158.035 35.0181 158.107C33.9601 159.056 33.2863 160.193 32.0023 160.928C30.7114 161.666 29.3815 161.607 28.036 162.083C27.5795 162.246 27.5773 162.857 28.036 163.017C30.5822 163.906 35.0532 160.891 35.2464 158.201ZM154.881 158.008C154.597 157.92 154.312 157.907 154.029 157.971C153.836 157.971 153.656 158.019 153.491 158.116C153.309 158.166 153.153 158.258 153.02 158.39C152.859 158.485 152.732 158.614 152.635 158.774C152.446 158.981 152.319 159.222 152.253 159.499L152.179 160.068L152.253 160.637C152.326 160.805 152.398 160.977 152.469 161.146L152.665 161.412C152.824 161.624 152.849 161.626 153.235 161.912C153.48 162.068 153.746 162.154 154.029 162.165C154.218 162.217 154.407 162.217 154.597 162.165C154.788 162.165 154.969 162.116 155.135 162.02C155.315 161.969 155.473 161.877 155.607 161.745C155.84 161.594 156.022 161.394 156.156 161.146C156.229 160.977 156.301 160.805 156.371 160.637L156.448 160.068L156.371 159.499L156.367 159.482C156.266 159.126 156.086 158.816 155.827 158.555L155.401 158.225C155.234 158.118 155.061 158.063 154.881 158.008ZM52.4194 158.434C51.8116 158.267 51.1441 158.443 50.6987 158.889C50.253 159.334 50.0774 160 50.2442 160.608C50.4088 161.201 50.8851 161.682 51.4799 161.842C51.6577 161.89 51.8377 161.917 52.0199 161.908C52.3252 161.906 52.6103 161.829 52.8759 161.675L53.2183 161.409C53.3853 161.256 53.5014 161.074 53.5697 160.863C53.6773 160.661 53.7256 160.443 53.7168 160.208L53.7188 160.167C53.7256 160.083 53.7146 160 53.688 159.919C53.688 159.833 53.6749 159.749 53.6529 159.668C53.4927 159.075 53.0098 158.596 52.4194 158.434ZM183.492 152.488C183.296 152.481 183.114 152.521 182.945 152.611C182.767 152.668 182.616 152.765 182.489 152.905C182.348 153.032 182.251 153.186 182.194 153.362C182.104 153.531 182.065 153.713 182.071 153.909C182.071 154.165 182.137 154.405 182.265 154.624C182.339 154.721 182.414 154.818 182.489 154.912C182.664 155.09 182.873 155.211 183.114 155.279L183.255 155.327C183.461 155.402 183.663 155.406 183.878 155.378C184.104 155.347 184.313 155.285 184.497 155.145C184.677 155.039 184.82 154.897 184.925 154.717L185.046 154.431C185.072 154.335 185.083 154.19 185.09 154.089C185.09 154.073 185.09 154.06 185.092 154.045C185.092 153.959 185.065 153.751 185.044 153.665C184.995 153.485 184.897 153.313 184.784 153.169C184.688 153.017 184.556 152.898 184.394 152.811L184.379 152.8L184.363 152.789C184.313 152.754 184.26 152.718 184.207 152.681C183.988 152.554 183.748 152.488 183.492 152.488ZM70.1477 150.929C69.7965 150.929 69.4695 151.019 69.1666 151.195C69.1558 151.199 69.1449 151.203 69.1361 151.208C68.8461 151.379 68.6159 151.61 68.4445 151.899C68.2689 152.2 68.1813 152.525 68.1813 152.872C68.1813 153.221 68.2689 153.544 68.4445 153.845C68.6159 154.135 68.8461 154.365 69.1361 154.537C69.1449 154.543 69.1558 154.547 69.1666 154.552C69.4695 154.728 69.7965 154.815 70.1477 154.818C70.4967 154.815 70.8238 154.728 71.1269 154.552C71.7193 154.205 72.0905 153.557 72.0905 152.872C72.0905 152.187 71.7193 151.539 71.1269 151.195C70.8238 151.019 70.4967 150.929 70.1477 150.929ZM161.299 148.39L161.239 148.389C161.007 148.38 160.79 148.428 160.59 148.536C160.381 148.604 160.199 148.72 160.045 148.885L159.725 149.152L159.632 149.228C159.617 149.241 159.601 149.254 159.587 149.267C159.371 149.484 159.224 149.739 159.141 150.033C159.115 150.202 159.093 150.369 159.075 150.538C159.027 150.977 159.286 151.428 159.571 151.739C159.725 151.904 159.907 152.02 160.118 152.09C160.32 152.196 160.539 152.244 160.772 152.235C161.248 152.194 161.7 152.093 162.043 151.724C162.082 151.68 162.12 151.634 162.159 151.588L162.433 151.271C162.642 151.061 162.787 150.812 162.866 150.527C162.888 150.376 162.907 150.226 162.927 150.077C162.947 149.627 162.728 149.205 162.433 148.885C162.162 148.588 161.701 148.406 161.299 148.39ZM172.379 143.766C170.096 143.766 170.1 147.308 172.379 147.308C174.659 147.308 174.655 143.766 172.379 143.766ZM57.6101 138.8L57.5381 138.802C57.1604 138.804 56.8072 138.898 56.4799 139.089L56.0543 139.416C55.7951 139.68 55.6154 139.987 55.5142 140.343C55.4902 140.529 55.4659 140.716 55.4396 140.901C55.4286 141.191 55.4903 141.461 55.6217 141.711C55.7051 141.97 55.85 142.196 56.0543 142.387C56.2451 142.592 56.4692 142.736 56.7302 142.82C56.9804 142.952 57.2504 143.013 57.5381 143.002C57.9176 143 58.2712 142.906 58.5983 142.715C58.7407 142.605 58.8812 142.495 59.0239 142.387C59.2629 142.144 59.4347 141.863 59.5374 141.542L59.5616 141.461L59.6384 140.901C59.6494 140.613 59.5882 140.343 59.4565 140.093C59.3729 139.831 59.228 139.607 59.0239 139.416C58.8329 139.212 58.6068 139.067 58.3478 138.984C58.1187 138.863 57.8725 138.801 57.6101 138.8ZM67.8915 132.17C67.6874 132.164 67.4986 132.205 67.3206 132.298C67.1387 132.357 66.9806 132.46 66.8467 132.603C66.5634 132.829 66.3902 133.281 66.3902 133.648C66.3902 134.015 66.5634 134.467 66.8467 134.693C67.0311 134.875 67.2484 135.003 67.4986 135.073L67.8915 135.126C68.2734 135.144 68.6619 134.944 68.9341 134.693C68.989 134.643 69.0417 134.592 69.0965 134.544C69.3443 134.315 69.4519 133.975 69.4675 133.648C69.4741 133.475 69.4365 133.312 69.3577 133.161C69.307 133.003 69.2195 132.868 69.0965 132.752C69.0417 132.704 68.989 132.653 68.9341 132.603C68.6376 132.328 68.291 132.19 67.8915 132.17ZM2.75044 120.359C1.30815 118.602 2.14793 117.351 4.31541 117.786C8.049 118.291 11.5629 120.651 14.8511 122.344C18.44 124.24 22.1387 125.804 25.7996 127.586C24.289 128.514 23.1657 129.966 22.3074 131.624C20.5943 130.322 18.4044 129.7 16.2668 129.619C12.3886 125.903 5.966 125.052 2.75044 120.359ZM173.147 126.194C172.756 126.195 172.389 126.287 172.046 126.471L171.973 126.512L171.503 126.876C171.275 127.087 171.114 127.337 171.02 127.625C170.875 127.902 170.809 128.203 170.82 128.523C170.809 128.844 170.875 129.142 171.02 129.419C171.114 129.709 171.275 129.957 171.503 130.168C171.632 130.337 171.799 130.469 171.999 130.565C172.186 130.642 172.37 130.721 172.556 130.8C172.765 130.866 173.006 130.875 173.233 130.886C173.643 130.884 174.025 130.78 174.381 130.574L174.841 130.218C175.063 130.012 175.221 129.768 175.314 129.485C175.444 129.235 175.51 128.969 175.51 128.685L175.509 128.607C175.509 128.589 175.509 128.569 175.506 128.549C175.48 128.343 175.451 128.137 175.423 127.93C175.351 127.627 175.212 127.362 175.006 127.138C174.953 127.032 174.883 126.947 174.793 126.876C174.503 126.586 174.161 126.389 173.766 126.277C173.56 126.25 173.353 126.222 173.147 126.194ZM71.3034 120.376L71.2366 120.377C70.9403 120.377 70.6659 120.451 70.4111 120.599C70.2994 120.684 70.1896 120.77 70.0799 120.855C69.8755 121.06 69.7351 121.301 69.6585 121.578L69.599 122.012C69.5926 122.239 69.6387 122.447 69.7419 122.643C69.8075 122.845 69.9197 123.02 70.0799 123.17C70.2269 123.33 70.4023 123.442 70.6064 123.508C70.7998 123.611 71.0105 123.657 71.2366 123.649C71.5307 123.649 71.8073 123.574 72.0619 123.424C72.1716 123.341 72.2836 123.255 72.3933 123.17C72.5784 122.983 72.7119 122.764 72.792 122.516L72.8126 122.447L72.8716 122.012C72.8804 121.786 72.8343 121.578 72.7314 121.382C72.6655 121.178 72.5512 121.003 72.3933 120.855C72.2441 120.695 72.0683 120.583 71.8663 120.517C71.6907 120.424 71.5025 120.378 71.3034 120.376ZM160.317 117.998L160.241 117.999C159.804 118.001 159.398 118.111 159.02 118.33C158.858 118.456 158.695 118.581 158.533 118.708C158.232 119.009 158.026 119.364 157.91 119.775L157.824 120.416C157.811 120.75 157.881 121.06 158.033 121.347C158.129 121.648 158.296 121.907 158.533 122.127C158.75 122.362 159.009 122.529 159.31 122.625C159.598 122.777 159.907 122.847 160.241 122.834C160.678 122.834 161.084 122.724 161.461 122.504C161.623 122.379 161.786 122.252 161.95 122.127C162.249 121.824 162.455 121.468 162.572 121.06L162.657 120.416C162.671 120.085 162.6 119.773 162.449 119.485C162.352 119.187 162.185 118.925 161.95 118.708C161.731 118.471 161.472 118.304 161.171 118.207C160.906 118.067 160.622 117.999 160.317 117.998ZM79.0438 111.96C78.844 111.907 78.6445 111.907 78.4448 111.96C78.1463 111.973 77.8673 112.063 77.6083 112.228L77.1539 112.58C77.1476 112.586 77.1408 112.593 77.1342 112.602C76.8598 112.878 76.6691 113.205 76.5637 113.581L76.4845 114.172C76.4735 114.477 76.5371 114.762 76.6754 115.026C76.7579 115.279 76.8941 115.5 77.0817 115.69L77.1539 115.761C77.3583 115.981 77.5975 116.137 77.8763 116.227C78.0517 116.33 78.2428 116.381 78.4448 116.381C78.7431 116.448 79.0438 116.435 79.3425 116.341C79.5201 116.264 79.7003 116.189 79.88 116.115L79.9373 116.082C80.6155 115.711 81.0348 114.934 81.0348 114.172C81.0348 113.409 80.6155 112.63 79.9373 112.259C79.9173 112.25 79.9 112.239 79.88 112.228C79.621 112.063 79.3425 111.973 79.0438 111.96Z" fill="black"/>
<path fill-rule="evenodd" clip-rule="evenodd" d="M100.963 69.208C99.7351 67.1874 97.1179 72.1371 96.8399 72.9882C96.5936 73.7421 96.431 74.5145 96.3484 75.2957C95.3964 75.5092 94.4079 75.5096 93.4326 75.3225C91.9829 75.0443 91.0967 74.2646 89.8368 73.5952C88.9665 73.1326 87.8698 73.6751 87.4172 74.4423C86.8849 75.3453 87.224 76.2826 87.9242 76.9558C89.2519 78.2323 91.8642 78.5256 93.5973 78.1866C94.5903 77.9924 95.5004 77.6199 96.304 77.0785C96.3094 77.1795 96.3129 77.2806 96.3209 77.3815L96.3362 77.5565C96.4694 78.9723 96.8584 80.7526 97.9577 81.6739C99.7607 83.1851 101.986 80.2788 100.234 78.7693L100.18 78.7239C99.0906 77.8438 98.8531 75.4822 98.9117 74.1814C98.9501 73.3325 99.1047 72.4726 99.3727 71.664L99.4278 71.503C99.5084 71.2746 100.388 69.108 100.706 69.3839L100.721 69.3994C100.852 69.556 101.064 69.3736 100.963 69.208ZM91.1595 57.8063C89.502 58.8142 86.9765 61.1644 88.7596 63.663C90.8584 65.8662 93.8803 63.3401 95.3694 62.1977C96.7502 61.3123 98.3015 63.5895 97.0204 64.6233C86.2601 72.5929 81.8933 58.0699 90.3212 56.6213C91.2491 56.4617 91.5937 57.4945 91.1595 57.8063ZM108.858 48.4903C107.239 48.2029 105.579 48.6058 104.239 49.5539L104.137 49.627C102.846 50.5719 101.401 52.2309 102.142 53.8594C102.439 54.5133 103.33 54.6159 103.895 54.3195C104.836 53.8258 105.007 52.6114 105.846 51.9392C106.535 51.3883 107.462 51.0541 108.349 51.1347C110.432 51.324 111.713 53.3794 112.36 55.1508C112.443 55.3774 112.776 55.4654 112.906 55.2221C114.431 52.3694 111.731 49.0002 108.858 48.4903ZM82.9121 47.4137C79.8091 47.1579 76.1771 50.3761 76.9941 53.6526C77.3859 55.2248 79.7171 55.1798 80.1315 53.6526C80.3596 52.8123 80.3367 52.0688 80.9414 51.371C81.4406 50.7948 82.1498 50.4601 82.9121 50.5115C83.7523 50.5682 84.5273 50.9882 85.1162 51.5787C85.648 52.1118 85.9661 52.892 86.517 53.3639C86.6526 53.4798 86.8342 53.4873 86.9681 53.3639C87.9163 52.4893 87.3471 50.6685 86.7459 49.7555C85.8855 48.449 84.4845 47.5435 82.9121 47.4137ZM114.767 42.6791C112.777 40.9163 109.16 39.214 106.476 40.0815C104.932 40.5802 104.26 43.0678 105.982 43.8563C107.977 44.7693 110.277 44.3978 112.308 45.3441C113.161 45.7418 113.963 46.2387 114.556 46.9675C115.024 47.5419 115.5 48.2977 116.176 48.6288C116.354 48.716 116.595 48.7182 116.738 48.5566C118.22 46.8786 116.062 43.8255 114.767 42.6791ZM86.3334 39.994C85.1032 39.6486 83.7384 39.6556 82.4886 39.8726C81.2392 40.0895 79.9708 40.6075 78.9508 41.3631L78.8324 41.4515C77.7189 42.291 76.3901 43.5123 76.4613 44.9993C76.5208 46.241 77.8266 47.0809 78.9539 46.4301C79.8729 45.8994 80.3053 44.8362 81.0834 44.1282C81.7254 43.5439 82.4796 43.0833 83.2842 42.7605C84.178 42.4019 85.0733 42.2339 86.0325 42.2179C86.7711 42.2056 87.5141 42.448 88.2389 42.5255C88.1792 42.6481 88.752 42.591 89.0804 42.4823C89.3236 42.3786 89.3249 42.071 89.2406 41.8714C88.8225 40.8826 87.3012 40.2654 86.3334 39.994Z" fill="black"/>
<path fill-rule="evenodd" clip-rule="evenodd" d="M82.0889 84.0141C82.855 83.7633 83.6074 83.4715 84.3633 83.1902C88.2284 81.248 92.8972 80.8958 96.9506 82.5315C98.94 83.3342 100.795 84.7767 102.791 85.7219C103.266 85.8989 103.744 86.0597 104.227 86.1945C104.523 86.0913 104.82 85.9815 105.114 85.8717C107.231 85.0733 109.223 84.0885 111.157 83.0051C111.363 82.7146 111.577 82.4322 111.807 82.161C110.408 81.9623 109.038 81.6321 107.798 81.2913C103.992 80.2483 100.406 78.5488 96.6128 77.4596C93.0811 76.443 89.2488 75.8875 85.7018 77.15C84.0183 77.7495 82.5367 78.7991 80.8993 79.5061C80.0521 79.8706 79.0358 80.2285 78.0459 80.2812C78.6846 81.8117 79.4923 83.2411 80.5964 84.4313C81.1012 84.3237 81.6017 84.1722 82.0889 84.0141ZM73.8534 72.0268C74.1923 72.3086 75.5909 73.2176 76.0446 73.7595C76.1618 73.715 76.2783 73.6693 76.3942 73.6223C76.5937 73.3772 76.8876 73.2696 77.1872 73.2762C79.2788 72.3031 81.1407 70.9278 82.8023 69.2035C83.9832 67.9804 85.1926 66.7003 86.7707 65.9911C88.6298 65.1523 90.4582 65.5387 92.4117 65.6661C94.4903 65.8044 96.5425 65.2138 98.6189 65.497C100.138 65.7056 101.56 66.349 102.789 67.2558C105.298 69.1069 107.028 71.7067 109.148 73.9486C111.554 76.4913 114.512 78.1162 117.803 78.9462C117.842 78.9198 117.884 78.8935 117.925 78.8693C120.351 76.6736 122.541 74.1945 124.48 71.553C126.372 68.9729 131.361 57.3594 132.566 56.3406C133.066 55.9168 133.615 55.7345 134.139 55.7499C135.09 55.7719 135.968 56.4328 136.361 57.4736C137.028 59.2434 136.694 61.5314 136.642 63.3825C136.576 65.6485 136.427 67.9124 136.189 70.1674C135.955 72.3962 135.643 74.6183 135.254 76.8251C135.059 77.9405 134.842 79.0538 134.603 80.1627C134.528 80.5118 134.434 80.8236 134.319 81.1134C134.203 81.6602 134.078 82.2047 133.944 82.7449C133.07 86.2823 131.692 89.8241 129.06 92.4349C126.321 95.1555 122.598 96.9626 119.141 98.5787C115.849 100.118 112.399 101.486 108.858 102.557C105.783 103.952 102.491 105.054 99.1852 105.634C95.546 106.273 91.7203 106.312 88.2062 105.047C86.4788 104.426 84.8458 103.559 83.3642 102.478C81.2637 101.387 79.3738 99.8874 77.8264 97.9024C75.0548 94.3449 73.732 90.0279 73.1531 85.5763C73.0049 84.4369 72.4479 80.0701 72.4041 79.3902C72.2627 77.1945 72.1212 74.999 71.9798 72.8033C71.913 71.7671 73.1843 71.4713 73.8534 72.0268Z" fill="black"/>
</svg>
