<svg width="163" height="240" viewBox="0 0 163 240" fill="none" xmlns="http://www.w3.org/2000/svg">
<path fill-rule="evenodd" clip-rule="evenodd" d="M32.0644 29.8003C39.7655 9.53178 53.6475 -5.30813 77.0504 4.01272C77.7217 3.55548 78.5978 3.43285 79.4373 3.96827C92.1857 11.9763 101.366 24.8151 105.345 39.2924C107.766 39.753 110.119 40.5562 112.22 41.8734C116.787 44.7362 119.86 49.2915 122.74 53.7281C123.606 55.0619 122.804 57.2702 121.176 57.573C120.469 57.7049 119.769 57.7833 119.072 57.8038C119.242 58.4198 119.465 59.015 119.749 59.561C120.779 61.5371 118.834 63.6352 117.011 63.0949C116.809 63.202 116.597 63.2901 116.377 63.3562C116.352 64.4756 115.777 65.9741 114.639 66.2004C112.799 66.5954 110.353 65.1862 110.787 63.1269C110.231 63.2248 109.677 63.2371 109.137 63.1692C109.077 64.2415 109.095 65.3606 108.947 66.3497C108.464 71.0114 103.808 74.1429 99.3675 72.7248C99.0952 74.1773 98.7754 76.2182 97.3454 77.0061C95.6734 81.6983 92.7864 87.0532 88.0577 89.1911C88.4786 90.27 88.2503 91.5826 86.9825 92.3046C78.327 97.2412 67.9381 98.9116 58.1524 97.0763C54.2416 96.8433 50.4312 95.9593 46.7738 94.0758C44.1068 92.7023 41.6549 90.9581 39.2615 89.16C36.8667 87.3613 34.3062 85.6098 32.3948 83.2744C30.3188 80.7379 29.3523 77.7535 28.7252 74.5772C25.8513 60.1595 26.8439 46.0028 32.0644 32.2685C38.5266 15.2677 25.6046 46.8021 32.0644 29.8003Z" fill="white"/>
<path fill-rule="evenodd" clip-rule="evenodd" d="M69.2987 0.0630325C65.3574 -0.215297 61.3443 0.449321 57.5911 1.63819C51.6051 3.53372 46.1077 6.87892 41.5911 11.2339C36.9363 15.722 33.4936 21.2555 31.4003 27.3671C28.876 34.7377 28.4981 42.6076 27.7876 50.3016C27.4287 54.1889 26.8372 58.017 26.2223 61.8667L26.1251 62.4747C25.5244 66.2255 25.1864 70.0189 26.0163 73.7638C27.3958 79.9878 31.5312 85.271 36.44 89.1748C46.524 97.1945 62.2221 102.084 73.9632 94.7042C75.7796 93.5624 74.0584 90.6427 72.2851 91.8324C71.0372 92.67 69.715 93.4043 68.2972 93.9112C62.3734 96.029 55.8675 95.2746 50.0128 93.3046C44.2433 91.3633 38.7071 88.0832 34.45 83.7061C29.9783 79.1085 27.5002 73.4296 27.8583 66.9678C28.0717 63.1231 28.9473 59.3496 29.4333 55.5362C29.8638 52.1587 30.1218 48.7629 30.4193 45.3718L30.5284 44.152C31.1591 37.2429 32.0651 30.1443 35.2074 23.8728C37.8506 18.5966 41.7209 13.9026 46.3747 10.2776C51.247 6.48234 57.0664 3.82803 63.1724 2.838C70.3527 1.67388 77.2261 3.7908 83.2158 7.73165C88.5281 11.2266 93.0952 15.8971 96.5971 21.1966C98.2953 23.7661 99.742 26.5102 100.991 29.3244C102.169 31.9759 102.98 34.7548 103.927 37.4877C103.148 37.4645 102.356 37.4945 101.552 37.5834C97.4267 38.0406 93.5835 40.1792 91.1369 43.5514C88.147 47.672 88.9551 52.7301 87.7873 57.4164C87.6969 57.7801 87.8506 58.1362 88.1621 58.3374C89.9327 59.4823 92.3025 59.5204 94.0163 58.2312C95.5037 57.1124 96.202 55.0897 95.5998 53.3222C95.5212 53.0919 95.1859 53.1326 95.1765 53.3796C95.0633 56.3874 92.2739 58.7036 89.5396 57.2723C90.7125 53.2314 90.0952 48.7183 92.4941 45.0683C96.7401 38.6082 105.527 38.3413 111.698 41.983C114.946 43.8993 117.517 46.7807 119.431 50.0036L119.983 50.9392C120.716 52.1893 121.493 53.6035 121.646 54.9802C121.733 55.7747 121.44 56.5212 120.529 56.1209C119.792 55.7972 119.222 55.0419 118.784 54.3926C118.037 53.2852 116.321 54.242 116.938 55.4212L116.959 55.4597C117.857 57.0505 118.409 58.8035 118.511 60.63L118.537 61.1358C118.553 61.5044 118.566 62.0283 118.488 62.0475C118.394 62.0705 117.745 61.3204 117.637 61.2166C117.116 60.716 116.579 60.307 115.854 60.1736C114.901 59.9988 113.939 61.1788 114.766 61.9524L114.801 61.9835C115.539 62.6258 115.506 63.9066 114.691 64.5073C113.539 65.355 112.122 63.9714 111.955 62.8321L111.949 62.79C111.801 61.5591 110.092 61.5155 109.999 62.79C109.798 65.5558 113.089 67.874 115.594 66.4786C116.584 65.9272 117.214 64.9175 117.411 63.8353C117.727 64.0023 118.068 64.1182 118.429 64.1501C119.602 64.2542 120.437 63.4286 120.627 62.3205C120.848 61.0296 120.716 59.6474 120.377 58.3068C121.014 58.4605 121.684 58.4018 122.358 58.0127C124.397 56.8356 123.812 54.2175 123.042 52.4498C119.755 44.9049 112.946 38.0588 104.509 37.5153C104.463 36.1841 104.283 34.9256 103.988 33.5926C101.102 20.5545 91.7544 8.48145 79.5847 2.83866C76.3328 1.33073 72.884 0.316398 69.2987 0.0630325ZM101.213 52.1454L101.097 52.1193C99.7823 51.8359 96.3223 51.503 96.7393 53.7164C96.759 53.8204 96.9103 53.8077 96.9372 53.7164C97.3457 52.3247 100.12 53.4376 100.931 53.7727C102.047 54.2343 103.149 54.9153 104.061 55.7069C106.058 57.4404 107.396 59.8834 107.6 62.5366C107.801 65.1686 107.038 68.0115 105.14 69.9153C104.21 70.8484 103.022 71.4819 101.688 71.5286C100.49 71.5702 99.1658 70.6369 98.0599 71.1834C97.8419 71.2912 97.6692 71.587 97.6889 71.8306C97.7261 72.2915 97.9323 72.6504 98.2392 72.9288C96.3878 76.304 94.8725 79.8765 92.5108 82.9458C91.3257 84.4857 89.9828 85.9117 88.4621 87.1253C87.7393 87.7023 86.9534 88.2091 86.1431 88.6543C85.1935 89.1765 84.3717 89.5032 83.694 90.3879C83.1161 91.1423 83.6943 92.601 84.6469 92.7311C86.8904 93.0368 89.0706 91.2223 90.7176 89.863C92.3631 88.5049 93.7853 86.8297 94.9605 85.0522C97.2174 81.6389 98.7613 77.6122 99.3786 73.5384C100.095 73.7657 100.902 73.8351 101.509 73.8364C103.124 73.8402 104.666 73.259 105.935 72.2768C110.582 68.6818 111.098 61.3005 107.819 56.6457C106.25 54.4184 103.866 52.7728 101.213 52.1454ZM101.184 60.7064C100.106 60.6118 99.0296 60.7819 98.017 61.1494L97.5996 61.3008C96.7178 61.6233 95.7791 62.0026 95.1422 62.6639C94.1692 63.6747 95.1381 65.4261 96.5241 65.0387C98.0566 64.6104 99.3022 63.3193 100.834 62.7777C102.204 62.2938 103.755 62.3623 104.97 63.1958C105.131 63.3059 105.342 63.0887 105.237 62.9288C104.307 61.5127 102.839 60.8515 101.184 60.7064Z" fill="black"/>
<path fill-rule="evenodd" clip-rule="evenodd" d="M11.0932 150.178C11.7765 148.302 10.7787 146.43 10.2252 144.614C8.25903 138.318 6.11235 132.021 3.07512 126.15C1.92468 124.185 3.81735 121.776 6.01057 122.33C9.76524 122.856 13.6369 122.437 17.3981 122.205C18.7737 118.645 22.4448 117.168 25.3342 115.118C28.613 113.07 31.8025 110.719 35.2125 108.924C35.4021 107.228 37.4577 106.808 38.7147 108.021C42.1671 105.873 46.3071 106.272 50.0078 104.864C52.8199 100.317 53.0309 95.5357 53.7754 91.149C54.1 89.2368 53.7551 87.3918 55.0613 85.6869C59.4488 79.5137 76.7849 76.8371 83.1767 80.4953C86.6173 78.3487 86.7002 82.2365 87.2467 84.6359C87.8541 85.8364 88.1827 87.1959 88.0811 88.6283C91.7769 96.3506 100.232 99.8417 107.804 102.67C108.754 101.755 110.112 101.871 111.016 102.628C117.579 104.055 123.949 106.564 129.448 110.482C135.696 112.31 140.096 117.393 143.277 122.844C143.628 123.418 143.71 124.004 143.608 124.542C153.392 138.889 158.061 156.065 158.717 173.413C165.009 177.191 155.727 211.125 153.566 218.17C153.564 218.169 153.562 218.168 153.56 218.167C152.158 220.65 150.566 227.734 147.058 227.186C144.651 229.908 140.816 229.373 137.55 229.582C138.082 231.623 137.821 233.959 137.188 235.976C136.439 238.377 132.765 238.458 132.243 235.841C99.7216 242.162 66.3527 237.118 33.4653 238.067C23.9565 238.134 14.4485 238.429 4.96257 239.106C3.62685 239.202 2.27264 237.836 2.36354 236.506C4.40302 214.8 6.3183 186.245 8.59894 164.751C9.1398 159.849 9.56758 154.894 11.0932 150.178Z" fill="white"/>
<path fill-rule="evenodd" clip-rule="evenodd" d="M86.7095 81.8344C86.6162 81.5799 86.236 81.6136 86.2289 81.8995C86.079 88.0026 87.5979 95.4608 92.4797 99.5833C94.9857 101.699 98.2988 102.668 101.341 103.781L101.685 103.907L107.06 105.911C108.486 106.442 110.024 107.259 111.283 106.509C110.264 109.037 109.409 111.634 108.168 114.071C106.623 117.104 104.755 119.879 102.469 122.403C93.4118 132.402 79.0781 135.451 66.2152 132.522C59.5916 131.013 53.1464 128.154 48.6275 122.939C45.1931 118.975 43.22 113.655 42.7551 108.407C42.891 108.429 43.0334 108.428 43.1798 108.396C44.8073 108.041 46.4503 107.168 47.8824 106.312L48.0203 106.229C49.3982 105.4 50.8344 104.449 51.8233 103.16C52.478 102.306 53.1489 100.487 53.836 97.7027C54.1168 96.1331 54.3802 93.006 54.3351 91.4194C54.3309 91.2697 53.667 91.1814 53.5961 91.3369C52.9826 92.6839 52.7842 95.6434 52.3107 97.0454L52.2151 97.3252C51.7095 98.7892 51.2759 100.572 50.2274 101.755C48.2591 103.978 45.2893 104.918 42.6385 106.033C42.4482 103.521 38.438 103.58 38.4889 106.199C38.4917 106.341 38.498 106.483 38.503 106.624C38.1868 106.798 37.8826 106.997 37.5983 107.189L37.3208 107.378C36.2709 108.092 35.2129 108.771 34.0948 109.377C31.9303 110.551 29.6388 111.481 27.421 112.547C25.1773 113.625 23.0789 114.909 21.1197 116.446C20.1995 117.168 19.3171 117.936 18.4803 118.753L18.2532 118.977C17.4566 119.771 16.4201 120.658 15.9662 121.701C15.8662 121.931 15.365 122.466 15.0931 122.484C10.8793 122.76 6.67455 123.151 2.48723 123.736C1.40312 123.887 0.974625 124.446 1.37534 125.35C2.75238 128.456 8.14328 140.862 9.57687 144.191C9.40941 146.637 9.63557 149.516 9.48465 151.963C9.26392 155.533 8.9749 159.102 8.62846 162.662C7.38887 175.397 5.50967 188.07 3.81165 200.75C2.96176 207.095 2.1869 213.451 1.42204 219.807C1.03581 223.019 0.708084 226.235 0.455811 229.461C0.350723 230.805 0.255402 232.15 0.171356 233.496L0.0989227 234.689C-0.000793457 236.191 -0.230881 237.626 0.698303 238.915C1.11954 239.5 2.08165 239.829 2.63556 239.165C3.33191 238.33 3.5907 237.706 3.65724 236.609C3.70813 235.769 3.72031 234.925 3.75859 234.084C3.84123 232.262 3.94518 230.441 4.06696 228.62C4.30988 224.982 4.58716 221.343 4.90837 217.711C6.03423 204.972 8.17395 192.329 9.59775 179.622C10.3154 173.216 10.8252 166.797 11.095 160.356C11.2301 157.139 11.279 153.922 11.2473 150.703C11.2353 149.5 11.1783 148.303 11.0959 147.109C13.2289 151.956 15.4713 156.757 17.8156 161.493L18.3713 162.615C19.857 165.609 21.3826 168.615 23.1682 171.437L23.475 171.918C24.1985 173.065 25.1867 174.872 26.5059 175.234C27.4247 175.486 28.5475 175.309 29.4896 175.291C30.4245 175.273 31.3605 175.269 32.2948 175.231C33.3428 175.189 34.3427 175.051 35.3555 174.778C35.5238 174.733 35.683 174.684 35.8281 174.621C36.8485 176.291 38.5822 177.564 40.3548 178.305C41.7747 178.899 43.2628 179.306 44.7534 179.682L45.2795 179.814C46.8775 180.213 48.7056 180.402 49.6068 181.946L49.8161 182.304C50.4862 183.442 51.129 184.442 52.238 185.259C53.4317 186.138 54.8459 186.691 56.2547 187.121C57.6972 187.562 59.1733 187.899 60.638 188.26L61.0372 188.359C62.0041 188.601 62.9796 188.823 63.9409 189.087C64.3508 189.199 64.7681 189.315 65.1705 189.453C65.6415 189.615 65.9838 189.868 66.3555 190.143C66.6895 191.31 68.1172 191.944 69.2912 191.863C69.9077 191.82 70.4607 191.611 70.964 191.304C71.8423 192.052 72.8094 192.722 73.7048 193.415C74.9585 194.385 76.2173 195.349 77.4829 196.304C80.0926 198.272 82.7221 200.213 85.379 202.117C90.0949 205.495 94.9128 208.719 99.8131 211.824C101.856 213.118 103.913 214.411 105.99 215.672L105.769 215.754L105.329 215.921C104.29 216.309 103.132 216.936 102.93 218.149C102.771 219.111 103.308 219.774 104.257 219.891C105.386 220.031 106.264 219.233 106.966 218.472C107.277 218.136 107.624 217.824 107.921 217.478C108.042 217.337 108.135 217.175 108.217 217.004C110.267 218.212 112.338 219.38 114.443 220.472L114.97 220.743C120.188 223.413 125.268 226.338 130.531 228.932C131.904 229.608 133.578 230.34 135.323 230.84C134.86 232.635 134.867 234.606 134.855 236.428C134.844 238.204 137.665 238.195 137.605 236.428L137.577 235.575C137.525 234.139 137.441 232.65 137.101 231.253C142.242 232.106 147.377 230.253 148.333 229.696C149.389 229.082 150.347 228.1 151.144 227.188C152.85 225.237 154.034 222.899 155.084 220.547C157.334 215.509 158.928 210.124 160.094 204.738C164.391 184.883 162.542 163.631 155.565 144.598C153.822 139.842 151.763 135.192 149.405 130.709L149.112 130.155C146.759 125.722 144.143 121.307 140.82 117.534C137.359 113.606 133.09 110.55 128.442 108.178C126.173 107.021 123.839 106.018 121.453 105.129C121.07 104.986 120.684 104.858 120.298 104.735C117.812 103.15 114.794 101.633 111.776 101.693C111.571 101.696 111.405 101.774 111.281 101.892C111.135 101.917 110.99 101.948 110.844 101.99C110.523 102.084 110.183 102.436 110.229 102.799L110.245 102.919C110.253 102.978 110.264 103.035 110.282 103.09C110.174 103.106 110.069 103.132 109.965 103.168C107.077 102.352 104.236 101.104 101.418 100.098L100.776 99.8709C98.4157 99.0434 95.9942 98.2324 94.0581 96.5949C92.132 94.9658 90.6836 92.8557 89.6365 90.5746C88.3464 87.7642 87.7688 84.7197 86.7095 81.8344ZM28.8922 230.061C28.3204 229.636 27.6443 230.13 27.4303 230.657C26.7279 232.385 27.075 235.071 28.0651 236.599C29.0912 238.183 31.5471 237.558 31.6064 235.64C31.6684 233.64 30.5063 231.264 28.8922 230.061ZM22.986 182.332C22.9346 182.107 22.5858 182.109 22.5336 182.332C22.0576 184.36 22.0687 186.544 21.9289 188.624L21.9128 188.855C21.7451 191.148 21.6041 193.447 21.5037 195.745C21.3064 200.264 21.0707 204.784 20.8065 209.301C20.6753 211.54 20.5348 213.78 20.385 216.018C19.9157 215.757 19.4322 215.527 18.9312 215.324C18.1805 215.021 17.4495 214.986 16.6429 214.994C15.6606 215.004 14.921 215.868 15.051 216.831C15.1928 217.88 16.1156 218.329 17.0737 218.179C18.135 218.013 19.2008 217.755 20.2723 217.649C20.1529 219.38 20.0296 221.11 19.8989 222.84C19.7256 225.129 19.4997 227.416 19.3409 229.707C19.3257 229.926 19.3094 230.144 19.2926 230.364C18.6537 230.031 17.9752 229.861 17.2062 229.652L17.0061 229.596C15.8896 229.275 14.6952 228.831 13.6618 229.582C12.9672 230.087 12.8284 230.918 13.4039 231.584C14.2764 232.595 15.5673 232.399 16.7725 232.347L17.4208 232.324C18.0319 232.3 18.5956 232.261 19.1604 232.106C19.0567 233.599 19.0021 235.096 19.185 236.567C19.2839 237.362 20.3298 237.57 20.6066 236.759C21.3297 234.64 21.4791 232.355 21.7438 230.136C21.9909 228.063 22.1411 225.976 22.303 223.893L22.352 223.269C22.7161 218.689 23.0073 214.106 23.22 209.516C23.4329 204.927 23.5608 200.338 23.6116 195.745C23.6348 193.659 23.6002 191.566 23.5186 189.48L23.4927 188.855C23.3987 186.71 23.4644 184.434 22.986 182.332ZM118.549 230.4C118.521 230.107 118.286 229.742 117.937 229.788C117.616 229.83 117.284 229.81 116.966 229.863C116.546 229.932 116.208 230.181 115.818 230.337C115.183 230.591 114.491 230.722 113.84 230.93C112.618 231.32 111.952 232.607 112.458 233.808C112.99 235.072 114.327 235.358 115.483 234.828C116.393 234.411 117.072 233.743 117.685 232.97L117.858 232.749C118.122 232.417 118.421 232.047 118.532 231.644C118.64 231.252 118.587 230.798 118.549 230.4ZM59.1793 224.46C57.6572 224.246 56.3572 224.767 54.9488 225.257L54.8344 225.297C53.401 225.792 51.3096 226.134 50.5749 227.602C50.1317 228.487 50.476 229.662 51.519 229.924C53.1709 230.339 54.652 229.131 56.0178 228.318L56.0896 228.275C57.408 227.503 58.7687 226.854 59.6105 225.521C59.8352 225.165 59.6403 224.525 59.1793 224.46ZM112.312 103.369C112.922 103.505 113.532 103.626 114.141 103.742C116.458 104.985 118.707 106.274 121.1 107.381C123.638 108.556 126.167 109.769 128.578 111.19C133.449 114.06 137.465 117.793 140.783 122.368C146.515 130.271 150.778 139.384 153.83 148.632C154.614 151.007 155.315 153.41 155.936 155.833C154.839 154.817 153.539 154.193 152.083 153.659C151.465 153.432 150.697 153.815 150.384 154.35C150.243 154.59 150.164 154.828 150.178 155.11C150.211 155.731 150.615 156.438 151.283 156.561C152.839 156.848 154.353 157.407 155.853 157.898C156.081 157.973 156.276 157.945 156.433 157.857C157.922 164.17 158.855 170.613 159.185 177.095C159.464 182.583 159.292 188.114 158.684 193.594C158.217 193.384 157.76 193.187 157.249 193.068C156.585 192.913 155.931 192.726 155.284 192.513C153.415 191.9 152.562 194.987 154.473 195.457C155.184 195.632 155.899 195.777 156.623 195.884C157.255 195.977 157.813 195.936 158.408 195.839C157.954 199.257 157.332 202.652 156.541 205.997L156.367 206.73C155.339 211.003 154.141 215.316 152.409 219.355C151.559 221.336 150.434 223.217 149.045 224.869C148.363 225.681 147.606 226.377 146.78 227.037C146.092 227.586 143.754 228.777 140.986 228.777C138.218 228.777 137.468 228.515 136.072 228.034C133.309 227.083 130.687 225.565 128.097 224.213L127.829 224.073C126.683 223.48 125.542 222.879 124.404 222.272C124.548 221.111 124.296 220.137 123.692 219.064C123.038 217.905 121.419 218.482 121.299 219.669L121.295 219.714C121.276 219.981 121.232 220.254 121.176 220.526C113.566 216.356 106.118 211.894 98.7879 207.244C94.0664 204.249 89.3951 201.164 84.792 197.989C82.4909 196.402 80.2098 194.786 77.9514 193.139C76.7683 192.276 75.5907 191.406 74.4185 190.529C73.9303 190.163 73.4514 189.78 72.9621 189.412C73.0811 189.263 73.197 189.115 73.3092 188.968C75.1364 186.574 76.3219 183.722 76.9125 180.779C77.2692 179.003 77.4414 177.16 77.4938 175.349L77.5169 174.562C77.553 173.236 77.5624 171.848 77.3181 170.563C77.6506 170.745 77.9903 170.925 78.3289 171.117C79.5439 171.805 80.7601 172.492 81.9781 173.176C84.4173 174.545 86.8637 175.898 89.3411 177.196C93.7663 179.515 98.2349 181.721 102.824 183.699L105.057 184.661C108.933 186.329 112.84 187.967 116.87 189.206C119.143 189.905 121.433 190.503 123.738 191.036L122.806 192.129C122.174 192.87 122.162 193.932 122.97 194.556C123.765 195.169 124.83 194.914 125.359 194.1L126.324 192.616C126.53 192.298 126.647 192.001 126.713 191.688C127.775 191.91 128.84 192.124 129.908 192.33L131.926 192.716C134.808 193.272 137.602 194.374 140.178 195.784C141.074 196.274 141.323 195.322 140.375 194.658C137.6 192.718 134.364 191.62 131.025 190.699L130.861 190.654C129.636 190.318 128.413 189.968 127.193 189.606C127.327 189.12 127.404 188.616 127.389 188.061C127.354 186.823 127.245 185.581 127.179 184.344C127.041 181.748 126.866 179.161 126.659 176.569C126.58 175.571 126.491 174.57 126.39 173.57C127.044 173.219 127.609 172.753 128.338 172.524L128.461 172.488C129.242 172.278 128.978 171.272 128.285 171.186C127.657 171.108 127.033 171.144 126.414 171.277C126.318 171.298 126.227 171.321 126.14 171.347C126.027 170.421 125.901 169.497 125.757 168.578C125.378 166.151 125.11 163.593 124.321 161.261C124.263 161.088 124.006 161.026 123.911 161.207C122.763 163.392 122.723 166.071 122.594 168.504L122.578 168.794C122.426 171.448 122.417 174.128 122.466 176.785C122.516 179.524 122.61 182.256 122.733 184.992C122.782 186.093 122.78 187.237 122.968 188.29C116.138 186.069 109.428 183.41 102.997 180.262C98.46 178.041 93.9624 175.732 89.5162 173.335C87.2884 172.135 85.0502 170.954 82.8248 169.749C82.045 169.326 81.2659 168.902 80.4871 168.478L79.3191 167.841C78.2261 167.244 77.3138 166.65 76.0407 166.609C75.6612 166.596 75.3208 166.774 75.0792 167.043C74.395 166.558 73.6043 166.26 72.7744 166.267C71.5253 164.541 70.257 162.829 68.9382 161.154L67.9639 159.914C66.2776 157.775 64.4914 155.603 62.3411 153.975C61.3814 153.248 60.3258 152.703 59.225 152.253C59.484 152.19 59.7375 152.062 59.9635 151.853C61.015 150.877 61.1598 149.066 61.3734 147.705C61.595 146.293 61.5093 145.03 61.2905 143.623C61.2055 143.077 60.3004 142.963 60.0794 143.465C59.6138 144.524 59.1207 145.538 58.697 146.609L58.5721 146.932C58.1174 148.137 57.1487 149.405 57.2127 150.713C57.2301 151.071 57.3501 151.383 57.5354 151.634C56.6114 151.327 55.6741 151.054 54.7511 150.768C51.8463 149.87 48.9304 148.998 45.9697 148.301C45.1816 148.116 44.3896 147.944 43.5943 147.786C43.1776 145.807 42.5704 143.864 41.8545 141.957C42.5324 141.61 42.9712 141.027 43.5549 140.509C44.1012 140.024 44.4766 139.433 44.9426 138.877C45.3669 138.37 45.1286 137.454 44.3661 137.484L44.1501 137.493C43.3602 137.53 42.5951 137.611 41.8789 137.98L41.6237 138.112C41.2737 138.294 40.8906 138.502 40.5494 138.748C40.1034 137.721 39.6396 136.704 39.1708 135.698L38.5625 134.396C36.9853 131.008 35.4125 127.492 33.4324 124.337C32.5521 122.935 31.3805 122.059 29.699 121.923C27.9675 121.784 26.1673 121.964 24.4333 122.026C22.4232 122.098 20.4138 122.183 18.4056 122.289C18.9204 121.75 19.3901 121.149 19.9071 120.632C20.7652 119.773 21.6719 118.96 22.6248 118.208C24.511 116.719 26.5848 115.493 28.7389 114.437C30.8934 113.381 33.1112 112.46 35.1337 111.155C36.4135 110.329 37.5574 109.29 38.6011 108.166C39.2581 115.256 42.6805 121.843 47.822 126.792C53.1622 131.932 60.542 134.756 67.7612 135.957C75.1249 137.182 82.8102 136.733 89.8544 134.172C93.4864 132.852 96.9699 130.966 100.076 128.6C100.111 128.806 100.152 129.009 100.232 129.2C100.341 129.457 100.473 129.676 100.625 129.902L100.896 130.298C101.067 130.547 101.241 130.794 101.435 131.025C101.904 131.584 102.569 131.829 103.286 131.827C104.658 131.822 105.697 130.476 105.328 129.145C105.096 128.309 104.599 127.805 103.824 127.478C103.579 127.374 103.33 127.287 103.078 127.202L102.89 127.138C102.636 127.051 102.384 126.968 102.123 126.92C103.594 125.622 104.959 124.209 106.181 122.685C110.015 117.905 113.796 111.21 112.514 104.862C112.492 104.753 112.394 104.685 112.288 104.667C112.214 104.222 111.977 103.791 111.652 103.501C111.87 103.444 112.091 103.399 112.312 103.369ZM72.5061 213.126C71.7469 212.704 70.9627 213.707 71.5797 214.327L72.5008 215.249C73.3557 216.108 74.1878 216.977 74.9196 217.957L75.0968 218.196C76.0846 219.54 77.138 221.098 78.7565 221.6C80.7142 222.208 82.5956 219.823 81.4619 218.08C80.4715 216.557 78.5645 215.982 76.9204 215.353C75.365 214.757 73.9601 213.935 72.5061 213.126ZM135.661 206.098C135.215 205.514 134.052 205.822 134.356 206.648C135.346 209.333 135.749 212.993 138.249 214.776C139.055 215.351 140.322 215.087 140.986 214.423C141.74 213.668 141.771 212.605 141.339 211.685C140.813 210.561 139.519 209.747 138.612 208.892L138.53 208.814C137.554 207.865 136.499 207.196 135.661 206.098ZM31.1891 209.188C30.393 208.844 28.318 208.177 27.7031 208.967C27.6744 208.996 27.6498 209.027 27.63 209.062C27.4793 209.324 27.4569 209.694 27.63 209.954C28.3466 211.032 29.0929 211.836 30.1117 212.602L30.226 212.688C31.3351 213.503 32.377 214.461 33.7284 214.829C35.6015 215.339 36.9098 212.993 35.5943 211.623C34.5345 210.519 32.9166 209.946 31.5123 209.331L31.1891 209.188ZM106.41 193.85C106.723 193.284 106.083 192.588 105.503 192.943C103.849 193.954 101.923 194.713 100.065 195.258C99.3131 195.478 98.6348 196.241 98.6907 197.063L98.6995 197.188C98.7216 197.478 98.7617 197.767 98.9462 198.008C99.5932 198.855 100.519 199.181 101.507 198.68C103.71 197.564 105.218 196.005 106.41 193.85ZM58.0703 192.134C58.1105 191.896 57.9363 191.712 57.6943 191.758C56.2966 192.023 55.0057 192.698 53.8054 193.475C53.1617 193.891 52.5408 194.348 51.8986 194.769C51.1053 195.288 50.8082 195.717 50.691 196.67C50.6136 197.298 51.2005 197.873 51.7388 198.046C53.2058 198.52 54.8866 196.967 55.8804 195.958L55.9251 195.912C56.9655 194.852 57.8237 193.597 58.0703 192.134ZM16.0912 190.486C16.4098 189.626 15.3117 188.912 14.5936 189.335C13.9175 189.733 13.184 190.063 12.5461 190.519C11.96 190.938 11.4256 191.434 10.8635 191.889L10.5857 192.109C9.55493 192.938 7.85342 194.988 9.3273 196.178C10.7301 197.31 12.59 195.864 13.5315 194.807L13.5972 194.732C14.1389 194.106 14.8067 193.426 15.1997 192.695C15.5696 192.007 15.8206 191.217 16.0912 190.486ZM29.9248 123.86C31.6817 124.201 32.3979 126.37 33.1377 127.784C34.8838 131.122 36.4896 134.52 38.1024 137.923C38.5989 138.97 39.0824 140.024 39.5702 141.077C39.5999 141.16 39.6382 141.241 39.6832 141.321C40.6825 143.473 41.7116 145.611 42.9145 147.655C41.8136 147.448 40.7071 147.273 39.5965 147.134C39.6525 146.088 38.9364 144.688 38.5823 143.807L38.5528 143.733C38.1111 142.604 37.6481 140.826 36.5112 140.241C36.1323 140.046 35.7272 140.29 35.698 140.707C35.6119 141.95 36.8265 143.372 37.4202 144.426C37.7793 145.064 38.1292 145.704 38.4702 146.352C38.598 146.594 38.7048 146.833 38.836 147.046C38.2631 146.984 37.6897 146.929 37.1147 146.889L36.74 146.863C34.6082 146.723 32.3442 146.682 30.4182 147.734C28.6312 148.709 27.7178 150.792 28.6995 152.688C29.9226 155.05 32.6158 155.363 34.9841 155.554C37.9421 155.793 40.907 156.224 43.8442 156.644C46.8823 157.079 49.7431 158.199 52.736 158.775C53.0144 158.829 53.1877 158.464 52.9324 158.309C50.5716 156.871 47.7015 156.08 45.0621 155.274L44.8487 155.209C43.417 154.769 42.0178 154.267 40.5368 154.017C39.0991 153.775 37.6525 153.579 36.2024 153.429L36.0615 153.416C34.4649 153.283 30.3918 153.328 30.5639 150.963C30.6779 149.398 33.221 149.128 34.3819 149.109C39.7043 149.024 45.0651 150.437 50.1233 151.952L51.2525 152.29C53.3237 152.914 55.3979 153.555 57.4302 154.286C59.7332 155.114 61.5476 156.405 63.225 158.172C65.0848 160.132 66.8861 162.136 68.8155 164.029C70.0319 165.223 71.2639 166.395 72.5059 167.558C72.7864 167.921 73.0108 168.317 73.1663 168.83C73.429 169.696 73.3686 170.501 73.2694 171.391C73.0193 173.638 72.9641 175.908 72.6507 178.149C72.3601 180.224 71.9539 182.375 71.0925 184.301C70.7514 185.063 70.3075 185.812 69.8019 186.481L69.3939 187.012C69.216 187.243 69.0171 187.495 68.8082 187.732C68.5015 187.358 68.0579 187.114 67.5422 187.175C66.4464 187.304 65.585 187.274 64.51 187.022C63.678 186.827 62.8524 186.599 62.0241 186.387C60.3976 185.972 58.7559 185.595 57.1459 185.118L56.8691 185.035C55.6694 184.666 54.4692 184.205 53.4706 183.43C52.3104 182.53 51.9535 181.231 51.0941 180.108C49.259 177.709 45.2936 177.759 42.6087 177.102C40.3269 176.544 38.1311 175.663 36.552 174.007L36.4599 173.908C36.5299 173.613 36.4164 173.279 36.1419 173.126L36.0821 173.093C35.9751 173.033 35.8598 173.008 35.7467 173.011C35.6002 172.795 35.4588 172.573 35.3303 172.336C35.2246 172.141 34.9604 172.285 34.9949 172.477C35.0156 172.592 35.0443 172.705 35.0715 172.817C33.5419 172.424 31.8621 172.499 30.3091 172.5L28.2937 172.493C27.9449 172.488 27.425 172.471 27.3788 172.45L27.3314 172.429C27.2058 172.374 27.3842 172.464 27.2964 172.348C27.1996 172.219 27.1048 172.089 27.0113 171.958C26.6772 171.491 26.3613 171.009 26.0516 170.523C29.4265 171.383 32.9227 171.918 36.3687 172.364C40.0658 172.843 43.8115 173.176 47.5416 173.179C48.5699 173.18 48.5605 171.628 47.5416 171.589C43.5919 171.438 39.6628 171.229 35.7396 170.722C33.7108 170.46 31.6904 170.131 29.6814 169.747C28.9058 169.599 28.132 169.441 27.3602 169.275L26.7816 169.148C26.4187 169.068 25.3931 168.953 24.8929 168.617C24.7946 168.448 24.6963 168.279 24.5988 168.111C24.6467 167.518 26.1534 167.597 26.5065 167.596C27.508 167.594 28.5097 167.602 29.5114 167.605C31.5145 167.611 33.5174 167.593 35.5208 167.577C39.5232 167.545 43.5408 167.405 47.5399 167.576C48.5107 167.617 49.0207 166.06 48.0612 165.65C43.8252 163.841 39.123 163.448 34.6 162.892C32.2215 162.599 29.8417 162.262 27.5165 161.67L26.9416 161.524C25.4809 161.149 23.8679 160.692 22.6379 159.8C24.4866 159.051 26.7846 159.137 28.701 159.031L28.8476 159.023C31.531 158.858 34.2192 158.773 36.9076 158.769C42.4084 158.762 47.9109 158.957 53.4056 159.218C53.5435 159.224 53.572 159.006 53.438 158.977C47.7904 157.745 42.0507 157.151 36.2711 157.059C33.5794 157.017 30.8865 157.055 28.1971 157.174L27.2103 157.219C24.9173 157.318 22.3729 157.345 20.4545 158.73C20.162 158.941 20.0078 159.211 19.9836 159.496C17.4107 154.365 15.0344 149.127 12.6485 143.924C10.7936 139.878 9.00795 135.799 7.08549 131.785L6.46313 130.486C5.62975 128.753 4.77597 127.02 3.82797 125.35C7.373 124.876 10.9378 124.547 14.5048 124.295C17.7551 124.065 28.3601 123.556 29.9248 123.86ZM31.4946 179.466C31.0903 179.242 30.4709 179.425 30.3713 179.923C30.2971 180.295 30.1706 180.707 30.1706 181.087C30.1706 181.542 30.3333 182.037 30.42 182.482C30.6194 183.506 30.865 184.338 31.3854 185.25C31.7109 185.82 32.3684 186.208 33.0291 186.192C33.5523 186.18 34.0159 186.04 34.375 185.635C34.8052 185.149 35.1005 184.436 34.8645 183.782C34.2465 182.07 33.1104 180.364 31.4946 179.466ZM117.244 177.758C116.298 176.101 114.055 174.619 112.098 174.766C109.16 174.986 108.561 178.944 111.405 179.888C113.106 180.453 115.445 179.873 116.933 178.944C117.334 178.694 117.481 178.174 117.244 177.758ZM147.442 172.095C147.657 171.783 147.302 171.426 146.981 171.496C146.271 171.652 145.506 171.72 144.81 171.932C144.098 172.149 143.409 172.508 142.703 172.756C141.225 173.273 139.647 173.533 138.216 174.159C137.645 174.409 137.195 175.237 137.248 175.848L137.261 175.99C137.293 176.293 137.345 176.558 137.515 176.835C137.97 177.578 138.872 177.963 139.723 177.734C141.302 177.31 142.845 176.219 144.191 175.314L144.44 175.148C145.029 174.761 145.661 174.355 146.135 173.856C146.63 173.335 147.036 172.685 147.442 172.095ZM93.161 166.067C93.3428 165.412 92.5284 164.979 92.0536 165.422C91.105 166.306 90.1131 167.126 89.1841 168.032L89.1217 168.094C88.4564 168.763 87.4885 170.052 88.3538 170.917C89.4625 172.026 91.0063 170.381 91.6011 169.523C92.3555 168.435 92.8081 167.339 93.161 166.067ZM20.5673 160.653C21.9746 162.144 24.1428 162.829 26.0518 163.397C28.3152 164.07 30.6474 164.472 32.982 164.803C35.2379 165.122 37.4763 165.408 39.6963 165.775C38.017 165.795 36.3378 165.808 34.6624 165.838C32.7302 165.873 30.799 165.915 28.8674 165.971C27.4606 166.012 25.81 165.819 24.4731 166.342C24.2322 166.436 24.0071 166.566 23.8105 166.725C22.6866 164.726 21.6095 162.699 20.5673 160.653ZM107.37 146.708C105.901 146.242 104.52 145.622 102.963 145.783C102.549 145.826 102.252 146.229 102.478 146.627C103.216 147.926 104.416 148.659 105.597 149.528L105.702 149.605C106.994 150.567 108.383 151.444 109.789 152.233C112.209 153.592 114.379 149.703 111.934 148.562C110.463 147.875 108.918 147.201 107.37 146.708ZM80.9251 143.332C78.678 143.48 76.4321 143.58 74.1822 143.671C71.576 143.777 72.4522 147.789 74.6293 146.977C76.7801 146.174 78.9311 145.382 81.1013 144.634C81.7619 144.406 81.7087 143.321 80.967 143.33L80.9251 143.332ZM138.561 136.194C137.979 136.153 137.392 136.281 136.808 136.337L136.188 136.397C134.908 136.525 133.709 136.682 132.489 137.203C130.237 138.164 131.446 141.784 133.706 141.701C135.377 141.64 136.805 140.922 138.216 140.087C139.449 139.356 140.205 138.443 141.038 137.296C141.313 136.916 140.929 136.49 140.553 136.452C139.892 136.384 139.223 136.241 138.561 136.194ZM25.7106 128.801C26.0831 131.126 27.0078 133.306 28.4012 135.203C29.1014 136.157 30.3308 136.193 31.0248 135.203C32.0065 133.803 31.4012 132.199 30.6616 130.855L30.4428 130.461C30.1116 129.87 29.603 129.009 29.0219 128.415L29.0121 128.354C28.7006 125.919 25.3268 126.405 25.7106 128.801ZM116.6 113.877C116.04 113.372 115.008 113.524 114.827 114.345C114.572 115.496 114.417 116.792 114.584 117.96C114.674 118.593 114.708 119.303 114.957 119.893C115.224 120.527 115.739 121.015 116.224 121.492C117.191 122.444 119.231 122.129 119.491 120.629L119.524 120.445C119.654 119.735 119.821 118.977 119.628 118.273C119.482 117.742 119.156 117.201 118.887 116.709L118.83 116.604C118.29 115.598 117.449 114.641 116.6 113.877ZM37.855 116.324L37.6524 116.327C36.0887 116.357 33.23 116.738 33.2147 118.671C33.2111 119.127 33.5484 119.599 34.0005 119.704C34.9352 119.92 35.5394 119.368 36.2055 118.81C36.7502 118.353 37.3853 117.989 38.0449 117.727C38.7573 117.443 38.7108 116.323 37.855 116.324Z" fill="black"/>
<path fill-rule="evenodd" clip-rule="evenodd" d="M44.5579 82.6601C46.6365 80.85 48.9664 77.2109 51.9525 80.0903C52.6911 80.9039 52.9902 82.7278 54.1195 83.0856C55.6194 83.5612 57.1058 82.01 57.6169 80.8188C59.7083 74.2002 51.0631 72.3848 46.1382 73.4541C43.7321 74.4199 41.96 78.3077 41.8528 80.3366C41.7837 81.7002 42.9644 83.7052 44.5579 82.6601ZM27.0629 74.0306C25.0604 74.9281 25.9219 71.7643 27.4406 71.7643C28.3599 71.4246 27.5576 72.0615 28.0071 72.7086C25.1476 73.2898 28.0381 74.8153 28.0071 74.9748C28.354 75.6891 30.651 75.4632 32.0904 75.5714C32.1833 75.5784 32.2795 75.5688 32.3719 75.5426C40.1642 76.338 36.3599 68.3685 44.2633 66.3891C50.3728 65.4038 61.415 66.5324 64.2971 72.7483C66.5701 82.6767 78.1277 75.7586 81.9224 70.5952C85.9713 65.896 88.5894 60.1538 91.1137 54.5818C91.6471 53.4026 93.3119 54.2458 93.1309 55.3772C95.4642 59.9525 95.3865 65.4481 95.9643 70.4603C96.9473 80.4601 97.905 94.4836 88.3999 100.589C76.0156 114.272 45.0905 119.101 30.8066 106.529C25.862 96.1373 24.658 85.0322 27.0629 74.0306Z" fill="black"/>
<path fill-rule="evenodd" clip-rule="evenodd" d="M50.5841 54.0006C48.9112 55.0179 46.3624 57.3898 48.1619 59.9116C50.2802 62.1351 53.33 59.5857 54.8329 58.4326C56.2265 57.5391 57.7922 59.8373 56.4993 60.8807C45.6393 68.9242 41.2321 54.2666 49.738 52.8047C50.6745 52.6436 51.0223 53.686 50.5841 54.0006ZM68.4468 44.5984C66.812 44.3083 65.1373 44.7149 63.7844 45.6719L63.6819 45.7456C62.3785 46.6992 60.9203 48.3736 61.6682 50.0172C61.9683 50.6772 62.8673 50.7807 63.4377 50.4815C64.3874 49.9833 64.5595 48.7576 65.4069 48.0792C66.1018 47.5232 67.0375 47.1859 67.9325 47.2672C70.0349 47.4583 71.3282 49.5328 71.9813 51.3205C72.0648 51.5492 72.4004 51.6381 72.5315 51.3925C74.0714 48.5134 71.3457 45.1129 68.4468 44.5984ZM42.2603 43.5118C39.1286 43.2536 35.463 46.5016 36.2875 49.8085C36.6829 51.3952 39.0357 51.3498 39.454 49.8085C39.6841 48.9603 39.6611 48.21 40.2714 47.5057C40.7752 46.9242 41.4909 46.5864 42.2603 46.6383C43.1083 46.6955 43.8905 47.1194 44.4848 47.7153C45.0216 48.2534 45.3426 49.0408 45.8986 49.517C46.0355 49.634 46.2187 49.6416 46.3538 49.517C47.3108 48.6344 46.7364 46.7968 46.1296 45.8753C45.2613 44.5567 43.8473 43.6428 42.2603 43.5118ZM74.4105 38.7334C72.4015 36.9543 68.751 35.2361 66.0419 36.1117C64.4844 36.615 63.8054 39.1256 65.5442 39.9214C67.5576 40.8429 69.879 40.4679 71.9283 41.4231C72.7889 41.8244 73.5984 42.3259 74.1976 43.0614C74.6697 43.6412 75.1499 44.404 75.8327 44.7382C76.0121 44.8261 76.2551 44.8284 76.3989 44.6652C77.8955 42.9717 75.7173 39.8904 74.4105 38.7334ZM45.7133 36.0234C44.4717 35.6748 43.0942 35.6819 41.8329 35.9008C40.572 36.1198 39.2918 36.6426 38.2623 37.4051L38.1428 37.4944C37.019 38.3416 35.6779 39.5742 35.7498 41.075C35.8098 42.3282 37.1277 43.1759 38.2654 42.5191C39.193 41.9834 39.6294 40.9104 40.4147 40.1959C41.0626 39.6062 41.8238 39.1412 42.6359 38.8155C43.5379 38.4536 44.4415 38.2841 45.4096 38.2679C46.155 38.2555 46.9049 38.5001 47.6364 38.5784C47.5761 38.702 48.1543 38.6444 48.4857 38.5347C48.7312 38.4301 48.7325 38.1196 48.6474 37.9182C48.2254 36.9203 46.69 36.2973 45.7133 36.0234Z" fill="black"/>
</svg>
