<svg width="203" height="240" viewBox="0 0 203 240" fill="none" xmlns="http://www.w3.org/2000/svg">
<path fill-rule="evenodd" clip-rule="evenodd" d="M67.9021 59.9631C69.3798 49.2981 72.7595 38.9431 73.2447 28.118C73.5334 23.4857 73.822 18.8532 74.1104 14.2204C74.22 11.3271 77.977 10.3509 79.412 12.9142C82.6739 9.29534 88.5148 9.82832 92.9709 9.93817C119.204 10.8681 144.133 28.6113 153.138 53.3507C153.354 53.9405 153.289 54.5683 153.044 55.13C157.241 69.1323 142.397 78.1486 132.274 84.3916C128.167 88.7333 123.339 92.3404 117.888 94.8108C111.618 97.7619 104.638 99.4072 97.7098 99.5647C96.189 99.5996 95.2754 98.3696 95.1656 97.0964C92.9554 96.5818 89.1732 97.1758 88.0044 94.91C74.6752 89.1184 65.9904 74.4392 67.9021 59.9631Z" fill="white"/>
<path fill-rule="evenodd" clip-rule="evenodd" d="M74.8476 25.7305C74.8853 25.3847 74.3862 25.3741 74.2835 25.6542C73.4388 27.9565 72.5629 30.2431 71.8937 32.6037C71.2485 34.8787 70.7839 37.2053 70.3133 39.522C69.5329 43.3668 68.8618 47.2398 68.3066 51.1253C67.1202 50.1984 65.5685 50.114 64.1073 50.8353C63.4216 51.1736 63.1592 52.0682 63.3236 52.7622C63.4556 53.319 63.617 53.8729 63.8107 54.4156C63.3967 54.7821 63.0449 55.2342 62.7894 55.7533C62.1167 57.1205 62.3335 58.5556 62.9369 59.8599C62.891 59.9377 62.8455 60.016 62.8026 60.099C61.9291 61.796 62.3964 63.3157 63.0347 64.9715C63.5126 66.2104 63.2459 67.6055 64.2768 68.5408C64.6352 69.6926 65.1729 70.7638 65.9557 71.7314C66.1333 72.057 66.3996 72.3186 66.7156 72.5112C66.795 74.3289 66.9868 76.1405 67.3476 77.9362C68.7484 84.9088 73.1944 91.1214 78.6981 95.5032C84.0838 99.791 90.409 102.353 97.2339 103.181C100.548 103.584 103.867 103.457 107.154 102.882L107.563 102.809C110.596 102.259 114.266 101.348 116.364 99.0593C117.466 97.8557 116.822 95.2066 114.872 95.4567C113.839 95.589 112.94 95.7547 111.967 96.1361C111.208 96.4336 110.448 96.7202 109.67 96.963C108.178 97.4276 106.635 97.7899 105.087 97.9903C101.86 98.4073 98.5068 98.297 95.3173 97.6676C89.5173 96.5229 83.8826 93.8825 79.4812 89.9072C74.3648 85.2862 71.3656 79.3056 70.9243 72.4077C70.4328 64.7254 71.3194 56.8586 72.0556 49.2161C72.4385 45.2406 72.9246 41.273 73.5099 37.3222C74.0818 33.4619 74.4247 29.6071 74.8476 25.7305ZM120.127 0.923797L119.879 0.885702C110.029 -0.613762 99.666 -0.50745 90.4079 3.55886C88.6335 4.33888 86.8969 5.27943 85.2616 6.37085C84.0903 6.24851 82.9121 6.14927 81.7551 6.133C80.2991 6.11391 78.8782 6.8706 78.6992 8.3439C77.3348 8.51362 76.0786 9.01572 75.2751 10.0202C74.962 10.4112 74.7523 10.8638 74.646 11.3353C73.8074 11.5335 72.985 11.8374 72.205 12.2381C71.2578 12.7261 70.7111 14.0839 71.0457 15.0883C71.123 15.3163 71.2108 15.5384 71.3092 15.7557L71.385 15.9178L71.3402 15.9791C70.5839 17.1955 71.1093 18.7914 72.2687 19.5174C73.1381 20.0619 74.109 20.4957 75.1081 20.7055C75.0256 21.1062 74.9502 21.5093 74.8889 21.9171C74.8654 22.0824 75.0772 22.2002 75.1717 22.0373C74.9329 22.7807 74.6336 23.5618 74.2737 24.3807C74.0618 24.8637 74.7405 25.2927 74.9994 24.8048C75.6875 23.5036 76.1142 22.1693 76.7387 20.828C77.3157 20.7903 77.8909 20.6583 78.4447 20.4061C78.8075 20.2411 79.083 19.9629 79.2809 19.6305C79.2929 19.6447 79.2998 19.6612 79.3118 19.6777C81.171 22.0703 84.8045 22.9095 87.6132 23.6662C90.6291 24.4797 93.7162 24.9816 96.8146 25.3517C102.225 25.9952 107.678 26.1154 113.113 26.3655C113.474 26.3818 113.833 26.3999 114.192 26.4174C116.4 28.3551 119.244 29.5592 122.161 29.9253C123.64 30.1105 125.388 30.0634 127.045 29.6858C127.645 30.2986 128.403 30.7527 129.231 30.9858C129.38 34.0736 131.101 36.9971 133.703 38.7012L133.657 38.8847C133.01 41.5214 133.019 44.4036 135.336 46.2362C135.65 46.4842 135.993 46.6968 136.354 46.8731L136.275 47.0553C135.077 49.8543 134.695 52.9462 136.945 55.2688C137.858 56.2102 139.46 55.9873 140.144 54.9068L140.178 54.8521C140.216 54.7877 140.257 54.7259 140.296 54.6628C140.357 54.7877 140.45 54.8931 140.589 54.952C141.444 55.32 141.786 55.0487 142.566 54.6691C143.287 54.3155 144.048 54.0515 144.825 53.8467C145.459 53.6814 146.091 53.5636 146.727 53.4952C150.747 55.0322 153.344 59.7467 152.726 64.1713C152.392 66.5805 151.07 68.966 148.765 69.9655C147.757 70.404 146.572 70.5878 145.481 70.4393C144.003 70.239 142.867 69.3081 141.338 69.8406C140.735 70.0504 140.358 70.5244 140.325 71.1727C140.27 72.1908 140.631 72.9545 141.239 73.5203C140.167 74.416 139.302 75.6607 138.371 76.6533C137.207 77.8954 136.027 79.1377 134.769 80.2833C133.581 81.37 132.318 82.3789 130.98 83.2749L130.839 83.3676C129.162 84.4598 127.049 85.4299 126.969 87.7137C126.943 88.402 127.36 89.0335 127.926 89.3848C130.039 90.6954 132.339 88.9746 133.996 87.7137C134.663 87.2066 135.311 86.681 135.935 86.1364C136.352 86.1694 136.807 86.1013 137.281 85.8913C137.584 85.7593 137.881 85.6037 138.174 85.4387C139.123 85.6768 140.019 85.467 140.756 84.9696C141.819 85.2312 142.945 85.2619 143.902 85.0521C144.776 84.8588 145.556 84.4463 146.199 83.8923C147.542 84.3213 149.034 84.2412 150.358 83.4279C151.152 82.9402 151.772 82.2446 152.109 81.4313C152.281 81.1627 152.39 80.8493 152.399 80.504L152.399 80.3729C153.553 80.3988 154.71 80.0028 155.604 79.0884C156.424 78.249 156.824 77.2026 156.869 76.1392C158.031 75.8094 159.093 75.1324 159.902 74.0884C161.24 72.3581 161.419 70.2201 160.731 68.3107C160.776 68.2093 160.816 68.1056 160.851 68.0019C161.919 66.4956 162.623 64.6781 162.567 62.856C162.559 62.5731 162.522 62.2952 162.465 62.0194C163.516 61.4604 164.289 60.4798 164.372 59.2328C164.435 58.2546 164.084 57.2975 163.45 56.5738C163.759 55.836 163.896 55.0345 163.801 54.233C163.705 53.4103 163.415 52.6961 162.99 52.0999C163 51.8831 162.988 51.6636 162.953 51.4397C162.995 51.2204 163.031 50.9941 163.049 50.7634C163.25 48.2361 161.506 46.025 159.383 44.8581C158.825 44.5517 158.221 44.3018 157.618 44.0897C157.18 43.9341 156.52 43.8822 156.134 43.597C156.15 43.5852 155.99 43.378 155.962 43.267C155.931 43.1302 155.898 42.9959 155.881 42.8568C155.818 42.2722 155.865 41.6711 155.877 41.0841C155.929 38.4204 155.846 35.7449 155.566 33.0953C155.045 28.1828 153.761 23.3763 151.258 19.0837C149.159 15.4864 146.284 12.4479 142.988 9.92799C136.421 4.91103 128.227 2.18318 120.127 0.923797ZM150.557 62.0169C151.411 59.9618 147.387 59.9415 146.323 60.0392L146.292 60.0422C143.897 60.2805 140.153 61.4327 139.173 63.8501C138.768 64.8508 139.968 65.9354 140.929 65.6063C141.87 65.2843 142.397 64.5927 143.152 63.9875C143.35 63.8287 143.556 63.6804 143.766 63.5373C143.655 63.8899 143.478 64.2157 143.232 64.459L143.175 64.5137C142.016 65.5551 144.088 67.1918 144.857 65.8126C145.267 65.0787 145.431 64.2735 145.303 63.4402C145.265 63.1943 145.199 62.9694 145.103 62.7549C145.18 62.7167 145.255 62.6752 145.332 62.6385L145.47 62.5744C146.392 62.1557 150.328 60.512 150.296 61.9817C150.293 62.1444 150.504 62.1446 150.557 62.0169Z" fill="black"/>
<path fill-rule="evenodd" clip-rule="evenodd" d="M112.661 77.507C106.267 77.8226 96.3104 80.565 95.8127 82.3177C95.0354 85.0544 96.7056 95.3148 93.9121 100.841C92.7212 103.197 88.1992 102.986 86.447 103.753C80.5845 106.32 63.2288 111.189 59.6504 117.32C58.2168 119.776 49.4065 150.251 44.725 165.799C44.1972 167.551 43.6011 169.173 42.953 170.674L42.7149 169.507C40.8061 160.11 39.8517 154.422 39.8517 152.441C39.8517 149.347 42.3192 136.291 39.8517 132.971C37.4089 129.684 31.5219 126.996 28.8733 126.943L28.794 126.942C27.055 126.942 25.546 126.398 24.2671 125.31L22.392 124.367C12.8532 119.579 7.28015 116.952 5.67298 116.487C3.10834 115.745 -1.2564 117.326 0.925974 119.698C2.38089 121.28 6.03691 124.077 11.894 128.091L14.1025 129.847L13.8357 129.986C10.9815 131.489 9.30325 132.755 8.80098 133.782C8.28326 134.841 8.53168 136.093 9.54624 137.539L9.39234 137.689C8.10936 138.949 7.46787 139.794 7.46787 140.224V142.326C6.1915 144.196 5.87241 145.755 6.5106 147.004C7.14878 148.253 8.16066 149.335 9.54624 150.251C10.5672 152.938 11.7831 154.85 13.1938 155.988C14.6046 157.125 17.0427 158.072 20.5083 158.829L23.6443 166.33L26.1854 176.869L27.4659 188.628L27.0941 188.897C25.3709 190.153 24.2671 191.083 24.2671 192.045C24.2671 193.544 31.2199 228.781 42.0373 230.358C44.3768 230.7 56.5096 229.027 60.4933 225.785L60.4345 226.135C59.4972 231.798 59.6955 234.739 61.0294 234.958C77.4227 237.647 123.981 238.478 200.704 237.45C201.16 196.714 199.096 169.584 194.511 156.061C182.786 121.474 169.858 109.661 165.336 108.649C161.374 107.763 147.636 102.293 143.796 100.841C141.289 99.8937 140.752 97.0524 137.896 97.0524L137.665 97.0536C134.902 97.0814 132.452 97.5756 131.076 96.1543C127.464 92.4243 128.474 87.2613 126.975 82.3177C126.149 79.5938 120.508 77.1196 112.661 77.507Z" fill="white"/>
<path fill-rule="evenodd" clip-rule="evenodd" d="M130.227 87.2736C129.851 86.5296 128.855 86.626 128.198 86.9635C126.226 88.4055 128.289 91.2005 128.835 92.9602C130.238 96.3733 132.674 99.709 136.038 101.304C135.76 104.697 135.444 108.083 135.327 111.486C131.026 116.823 123.775 118.771 117.338 120.269C107.228 123.066 95.8176 117.335 92.4054 107.338C96.2889 105.131 97.5457 99.3508 96.387 95.3185C96.2862 95.0352 95.8472 94.9101 95.6912 95.2263C94.6277 97.4144 94.7695 100.084 93.5606 102.246C81.9564 103.357 66.9804 107.737 59.3783 117.125C56.0093 121.822 54.6748 127.93 53.0154 133.374C49.475 144.596 46.6541 156.045 43.182 167.279L42.7725 165.153C41.6508 159.298 40.6315 153.363 41.3892 147.409L41.4027 147.124C41.6502 142.386 43.1325 133.581 39.4594 130.383C36.1369 127.843 31.3239 125.802 27.1546 126.972C19.7351 123.67 13.3312 118.108 5.42924 115.941C2.99726 115.441 -0.50146 116.034 0.0733903 119.334C1.66647 125.107 8.33796 127.347 12.8986 130.324C9.97515 131.116 6.41125 134.673 8.69529 137.774C8.71504 137.829 8.7326 137.871 8.75016 137.904C6.89786 138.725 6.63843 140.789 7.093 142.559C7.13909 143.026 7.262 142.624 6.98742 143.048C4.89741 145.02 5.82125 150.517 8.96965 150.703C8.76355 153.307 10.4359 155.837 12.554 157.257C14.8369 158.788 18.1379 158.854 20.0279 160.948C24.4654 168.776 25.9961 178.017 26.4799 186.98C23.5547 188.075 20.9302 191.351 23.5879 194.13C23.6403 194.136 23.6928 194.142 23.7459 194.146C25.2865 198.259 25.8813 202.644 26.6961 206.939C27.9496 214.268 31.2163 220.998 35.3878 227.103C40.2118 235.185 53.1836 233.904 59.7185 228.688C59.6924 230.057 59.467 231.417 59.9051 232.739C60.5517 234.166 62.1283 233.55 62.2844 232.144C65.739 234.088 66.5527 227.673 62.7124 228.69C63.0078 224.053 63.179 219.408 63.318 214.763C67.6657 216.17 67.8532 208.955 63.406 210.397L63.4113 208.403C63.444 193.106 63.275 177.758 61.2572 162.582C61.0706 161.447 60.7545 160.349 60.5702 159.22C60.5504 159.104 60.3682 159.137 60.3676 159.249C60.0552 180.495 61.4433 201.787 59.9951 223.041C58.7894 223.408 58.3087 224.792 57.4161 225.599C55.4343 227.429 52.7354 228.32 50.0962 228.631C42.7059 229.667 39.5151 227.409 36.224 220.983C37.7084 221.976 39.7142 220.223 38.8095 218.653L38.7811 218.605C37.8415 216.941 35.1881 217.938 35.5241 219.802C32.2152 214.501 30.4834 208.524 29.2045 202.46L29.0314 201.735C28.4097 199.16 27.6028 196.21 26.1098 193.881C35.2148 191.559 44.1214 184.486 45.5461 174.783C47.8578 182.048 50.9895 189.151 53.9744 196.217C54.8963 198.674 55.2804 201.315 56.6017 203.595C56.909 204.122 57.6882 203.986 57.8621 203.43C59.0504 198.115 55.4494 193.059 53.5798 188.275C52.053 185.571 47.6706 173.222 44.9535 173.192C48.0066 159.805 52.0789 146.518 55.9571 133.297C59.7071 115.446 67.3492 112.004 83.5385 106.383C80.6184 121.27 67.2864 135.679 74.3806 151.293L74.5532 151.698C75.2788 153.42 75.8815 155.155 75.3749 157.044C74.8833 158.878 73.7639 160.47 72.8681 162.119C67.8619 171.433 71.308 182.312 73.2437 192.012C75.6888 203.388 78.1043 214.774 80.6318 226.132C81.13 228.398 81.4529 230.733 82.2056 232.928C82.5941 234.061 84.5322 233.954 84.4068 232.632C84.1678 230.067 83.4479 227.566 82.9207 225.048C79.7736 208.742 75.5152 192.628 72.8075 176.251C71.0659 164.127 77.9226 162.264 77.6667 154.431C76.7347 150.425 74.2678 146.85 74.4094 142.581C73.8611 129.512 83.3765 118.731 84.5513 106.021L86.6255 105.28C87.6622 104.909 88.6978 104.535 89.73 104.152C84.2964 142.166 85.9464 181.011 88.6626 219.213C89.2175 220.976 88.6896 233.29 91.016 232.197C91.1334 232.885 91.4989 233.562 92.2934 233.558C99.5082 233.624 106.725 233.739 113.94 233.825C117.41 233.505 122.18 234.83 125.132 232.827C128.54 231.854 128.932 222.621 129.843 219.33L130.198 216.936C135.989 177.827 141.172 137.912 137.009 98.4154C142.8 98.6381 143.996 104.891 144.425 109.444C145.499 119.492 151.989 128.146 152.301 138.31C152.327 140.776 151.862 143.164 150.876 145.429C148.262 150.975 143.741 157.388 147.12 163.583C151.116 168.406 150.77 169.676 149.304 175.636C145.178 195.339 138.327 214.281 131.809 233.278C133.225 240.662 141.743 213.25 142.544 211.183C146.315 213.08 148.375 206.786 144.05 206.337C146.828 197.036 149.384 187.664 151.513 178.19L151.569 177.923C152.509 173.545 154.358 168.419 151.236 164.536C143.183 156.39 156.555 147.285 154.869 137.416C156.325 138.496 158.53 137.36 158.497 135.545C158.563 133.502 155.82 132.456 154.5 134.015C153.142 126.008 148.421 119.018 146.992 111.035L146.927 110.66C146.443 107.839 146.306 104.87 144.921 102.299C146.807 103.524 148.815 104.514 150.88 105.388C147.187 108.474 154.339 111.29 153.747 106.524C173.999 112.385 178.577 120.559 186.012 139.331C184.623 137.981 182.244 139.728 183.076 141.45C183.739 143.263 186.632 142.733 186.631 140.8L186.97 141.608C191.479 152.394 195.583 163.441 197.645 174.984C193.6 174.412 194.63 180.881 198.295 179.057C199.766 189.322 199.79 199.733 199.61 210.081C196.197 208.291 196.095 214.374 199.577 212.639C199.45 221.119 199.263 229.6 199.123 238.08C199.094 239.885 201.877 239.876 201.921 238.08C202.246 225.05 202.839 211.996 202.557 198.962C202.822 176.34 196.321 154.536 186.635 134.271C178.064 110.937 166.226 108.284 144.445 101.499C142.434 98.5138 138.139 95.69 134.634 97.5648C132.673 94.3985 131.678 90.6472 130.227 87.2736ZM167.544 168.596C167.463 168.309 167.053 168.381 167.039 168.664C166.857 172.325 167.02 176.009 167.27 179.685C167.422 181.929 167.608 184.171 167.766 186.4C168.185 192.28 168.523 198.167 168.78 204.058C168.69 204.021 168.598 203.988 168.501 203.962C168.058 203.841 167.614 203.841 167.171 203.962C166.776 204.072 166.43 204.265 166.132 204.544L166.069 204.605C165.826 204.831 165.652 205.099 165.551 205.409C165.407 205.684 165.335 205.979 165.335 206.293L165.336 206.373C165.338 206.825 165.45 207.244 165.679 207.635C165.9 208.011 166.199 208.309 166.574 208.533C166.965 208.759 167.384 208.871 167.836 208.873C167.884 208.878 167.933 208.882 167.981 208.884C168.317 208.898 168.631 208.827 168.921 208.676L168.964 208.663C169.074 211.651 169.164 214.642 169.23 217.633C169.289 220.239 169.368 222.845 169.421 225.451L169.445 226.755L169.493 229.637C169.509 230.822 169.501 231.956 169.904 233.074L169.952 233.203C170.242 233.949 170.468 234.988 171.243 235.403C171.862 235.734 172.696 235.612 173.051 234.966C173.35 234.426 173.091 233.648 172.65 233.284C172.658 233.26 172.672 233.238 172.683 233.214C172.751 233.016 172.854 232.83 172.915 232.63C173.109 231.997 173.056 231.323 173.058 230.666C173.058 229.507 173.019 228.348 172.988 227.191C172.92 224.727 172.841 222.266 172.744 219.804C172.418 211.547 171.804 203.29 171.1 195.056L170.861 192.276C170.543 188.581 170.214 184.881 169.748 181.204C169.726 181.029 169.704 180.853 169.68 180.677C169.93 180.552 170.163 180.379 170.347 180.186C171.087 179.409 171.535 178.248 171.956 177.247L172.053 177.019C172.509 175.952 172.931 174.872 173.148 173.726L173.169 173.62C173.268 173.132 173.463 172.267 172.946 172.03C172.676 171.907 172.505 171.995 172.417 172.265C172.406 172.301 172.415 172.34 172.435 172.371C172.222 172.698 171.888 173.003 171.677 173.306L170.956 174.338L170.6 174.856C170.147 175.522 169.665 176.159 169.166 176.787C168.774 174.029 168.293 171.282 167.544 168.596ZM137.97 230.054C137.068 229.347 135.599 229.731 135.599 231.036C135.599 232.346 137.07 232.724 137.97 232.017L138.015 231.984L138.058 231.949C138.548 231.566 138.564 230.569 138.095 230.153L138.058 230.122C138.029 230.098 138.001 230.076 137.97 230.054ZM177.269 227.505L177.191 227.507C176.783 227.507 176.403 227.61 176.05 227.817C175.896 227.933 175.745 228.051 175.591 228.17C175.31 228.451 175.117 228.785 175.009 229.169L174.928 229.771C174.917 230.082 174.981 230.372 175.123 230.643C175.216 230.923 175.371 231.167 175.591 231.372C175.797 231.593 176.039 231.749 176.319 231.839C176.567 231.97 176.831 232.036 177.114 232.036L177.191 232.035C177.601 232.035 177.981 231.931 178.335 231.725C178.488 231.609 178.64 231.49 178.793 231.372C179.072 231.09 179.267 230.757 179.375 230.372C179.401 230.172 179.427 229.97 179.456 229.771C179.467 229.459 179.401 229.169 179.261 228.899C179.169 228.618 179.013 228.374 178.793 228.17C178.587 227.948 178.346 227.792 178.065 227.702C177.817 227.572 177.551 227.505 177.269 227.505ZM74.5212 223.33L73.9459 223.407C73.395 223.533 72.9518 223.939 72.6555 224.402C72.4973 224.65 72.4119 224.918 72.3987 225.206C72.3348 225.491 72.3482 225.779 72.4382 226.066C72.5041 226.347 72.6333 226.593 72.8245 226.802C72.8902 226.905 72.9672 227 73.0548 227.083C73.235 227.384 73.5069 227.581 73.7881 227.784C74.0249 227.935 74.282 228.016 74.5585 228.03C74.7407 228.078 74.9251 228.078 75.1094 228.03C75.3838 228.016 75.6406 227.935 75.8777 227.784C76.0179 227.676 76.1584 227.566 76.2969 227.459C76.4196 227.316 76.534 227.169 76.6415 227.015C76.7137 226.846 76.7842 226.679 76.8542 226.512C76.9839 226.11 76.9203 225.755 76.8498 225.353C76.839 225.285 76.8213 225.223 76.7971 225.157L76.7497 225.03C76.6234 224.696 76.5559 224.583 76.332 224.292L76.2466 224.178C76.204 224.121 76.1602 224.066 76.1101 224.016C75.9699 223.871 75.7699 223.75 75.6121 223.625C75.2741 223.429 74.9097 223.333 74.5212 223.33ZM149.042 221.924L148.969 221.925C148.65 221.927 148.352 222.006 148.075 222.167L147.715 222.446C147.496 222.667 147.344 222.926 147.259 223.228C147.239 223.385 147.217 223.544 147.195 223.699C147.186 223.943 147.237 224.171 147.349 224.385C147.419 224.604 147.542 224.793 147.715 224.955C147.875 225.127 148.067 225.25 148.286 225.322C148.478 225.422 148.684 225.475 148.903 225.475L148.969 225.474C149.289 225.474 149.588 225.392 149.864 225.232L150.224 224.955C150.444 224.734 150.595 224.472 150.681 224.171C150.7 224.013 150.722 223.858 150.744 223.699C150.753 223.456 150.703 223.228 150.591 223.017C150.518 222.797 150.398 222.606 150.224 222.446C150.064 222.272 149.873 222.149 149.653 222.079C149.462 221.978 149.26 221.927 149.042 221.924ZM163.528 221.198C163.069 221.194 162.603 221.324 162.228 221.589C161.864 221.848 161.587 222.127 161.409 222.547C161.361 222.661 161.313 222.773 161.271 222.887C161.082 223.39 161.047 223.895 161.308 224.387C161.561 224.863 162.105 225.072 162.593 225.214C163.005 225.337 163.473 225.357 163.883 225.21C164.087 225.138 164.287 225.061 164.471 224.949C164.816 224.736 165.003 224.483 165.233 224.171C165.413 223.864 165.503 223.53 165.503 223.175C165.503 222.816 165.413 222.485 165.233 222.176C164.88 221.572 164.226 221.203 163.528 221.198ZM186.794 221.622C186.214 221.622 185.705 221.89 185.356 222.342C185.003 222.801 184.873 223.372 185.029 223.941C185.194 224.543 185.692 225.07 186.309 225.221C186.765 225.333 187.138 225.329 187.593 225.252C187.977 225.186 188.271 224.957 188.565 224.72C188.901 224.446 189.004 223.945 188.949 223.541C188.897 223.137 188.71 222.874 188.427 222.634L188.425 222.628L188.53 222.709C188.49 222.674 188.451 222.637 188.411 222.599C188.398 222.577 188.387 222.553 188.376 222.529C188.214 222.252 187.994 222.035 187.72 221.873C187.433 221.706 187.125 221.622 186.794 221.622ZM51.6764 214.971C51.3582 214.886 51.0377 214.886 50.7195 214.971C50.4844 215.026 50.2805 215.134 50.1069 215.294C49.931 215.408 49.7874 215.555 49.6788 215.737L49.6439 215.799C49.3935 216.225 49.3542 216.712 49.4618 217.187C49.5954 217.773 50.1354 218.307 50.7195 218.445L50.7391 218.448L50.7587 218.454C50.9958 218.528 51.2352 218.539 51.4721 218.485C51.7115 218.474 51.9332 218.403 52.1372 218.272C52.3962 218.105 52.6134 217.889 52.7803 217.63C52.9122 217.424 52.9822 217.202 52.9934 216.963C53.0349 216.805 53.0349 216.647 52.9934 216.489C52.9822 216.249 52.9122 216.027 52.7803 215.821L52.4995 215.458L52.4708 215.435C52.2469 215.21 51.9815 215.057 51.6764 214.971ZM73.7748 203.351C70.8973 203.351 70.9017 207.817 73.7748 207.817C76.6522 207.817 76.648 203.351 73.7748 203.351ZM179.127 202.787C178.824 202.719 178.521 202.732 178.22 202.826C178.038 202.903 177.858 202.98 177.678 203.054L177.217 203.411C177.132 203.483 177.09 203.562 177.011 203.665L176.912 203.794C176.769 203.986 176.766 204.026 176.609 204.434C176.504 204.824 176.504 205.215 176.609 205.606C176.66 205.795 176.737 205.973 176.835 206.138C176.926 206.296 177.034 206.434 177.155 206.562L177.217 206.625C177.424 206.847 177.667 207.003 177.948 207.095C178.126 207.198 178.317 207.249 178.521 207.249C178.824 207.317 179.127 207.304 179.428 207.209C179.61 207.132 179.79 207.055 179.97 206.981L180.431 206.625L180.786 206.164L180.9 205.893L181.014 205.622L181.096 205.018C181.107 204.704 181.043 204.414 180.901 204.142C180.846 203.95 180.749 203.781 180.609 203.641C180.507 203.47 180.372 203.334 180.2 203.233C180.06 203.092 179.891 202.995 179.7 202.94C179.522 202.837 179.331 202.787 179.127 202.787ZM36.8037 199.596C36.5642 199.588 36.3404 199.638 36.134 199.748C36.0616 199.772 35.9911 199.803 35.9233 199.838C35.6577 199.994 35.447 200.204 35.2912 200.468C35.1639 200.67 35.0936 200.888 35.0827 201.122C35.035 201.334 35.0393 201.547 35.0968 201.759L35.1156 201.823C35.1639 201.996 35.2363 202.156 35.3327 202.304C35.3419 202.321 35.3526 202.339 35.3658 202.354C35.5129 202.587 35.7082 202.778 35.9497 202.921C36.2174 203.074 36.505 203.153 36.8167 203.156C37.4378 203.156 37.9734 202.82 38.3004 202.304C38.3465 202.231 38.3729 202.139 38.4056 202.064C38.4343 201.994 38.4804 201.904 38.5048 201.823C38.588 201.511 38.588 201.199 38.5048 200.888C38.4499 200.659 38.3465 200.459 38.1907 200.29C38.0658 200.099 37.9012 199.948 37.6968 199.838C37.4436 199.69 37.1714 199.611 36.8826 199.598L36.8037 199.596ZM158.297 197.412C157.993 197.328 157.691 197.322 157.389 197.392L157.314 197.412C157.072 197.469 156.864 197.578 156.684 197.741C156.484 197.873 156.324 198.046 156.208 198.261C156.041 198.549 155.957 198.861 155.955 199.194C155.957 199.528 156.041 199.84 156.208 200.128C156.372 200.407 156.594 200.626 156.872 200.791L157.114 200.907C157.316 201.035 157.531 201.103 157.764 201.113C157.919 201.155 158.075 201.155 158.229 201.113C158.387 201.113 158.534 201.074 158.67 200.995C158.819 200.953 158.947 200.878 159.057 200.769C159.248 200.646 159.397 200.483 159.506 200.279L159.684 199.86L159.746 199.394L159.684 198.931L159.588 198.703C159.5 198.388 159.342 198.116 159.111 197.886C158.881 197.657 158.609 197.499 158.297 197.412ZM49.4462 193.707C49.126 193.606 48.8075 193.593 48.4892 193.663C48.2743 193.663 48.0724 193.718 47.8856 193.828C47.6815 193.885 47.5061 193.986 47.3567 194.135C47.0957 194.304 46.8913 194.528 46.7399 194.807L46.4986 195.38C46.3538 195.751 46.4065 196.298 46.494 196.672C46.5665 196.979 46.707 197.247 46.9155 197.475C47.0208 197.653 47.1613 197.794 47.3393 197.899C47.5425 198.084 47.7769 198.216 48.0428 198.294L48.1161 198.314L48.1424 198.32C48.147 198.323 48.1512 198.323 48.1556 198.323C48.1578 198.325 48.1624 198.325 48.1646 198.325C48.2697 198.351 48.3773 198.367 48.4892 198.371C48.8075 198.441 49.126 198.428 49.4462 198.327C49.635 198.248 49.8259 198.167 50.0169 198.086C50.1793 197.963 50.3398 197.837 50.502 197.712C50.6271 197.55 50.7522 197.387 50.8773 197.227C51.0531 196.953 51.1473 196.654 51.1605 196.335C51.2177 196.123 51.2177 195.912 51.1605 195.699C51.1605 195.481 51.1056 195.282 50.9983 195.095C50.9015 194.796 50.7368 194.539 50.502 194.322C50.3398 194.197 50.1793 194.072 50.0169 193.949C49.8259 193.867 49.635 193.786 49.4462 193.707ZM189.439 185.846C189.107 185.756 188.776 185.756 188.444 185.846L187.999 186.033C187.779 186.152 187.606 186.312 187.474 186.516C187.307 186.696 187.196 186.909 187.139 187.153C187.009 187.487 187.024 188.016 187.127 188.356C187.244 188.743 187.424 189.05 187.702 189.34C188.166 189.818 188.877 189.957 189.507 189.812C189.68 189.772 189.845 189.696 189.994 189.601C190.47 189.307 190.791 188.793 190.788 188.224C190.788 188.163 190.784 188.101 190.775 188.04C190.806 187.915 190.817 187.785 190.813 187.649L190.747 187.153L190.743 187.14C190.655 186.825 190.497 186.553 190.266 186.323C190.053 186.112 189.805 185.959 189.521 185.868L189.45 185.846H189.439ZM23.8117 136.54C24.4114 131.622 26.6658 126.331 33.5419 129.219L34.0526 129.411C35.754 130.055 37.7367 130.902 38.7721 132.39C39.4855 133.415 39.2443 135.403 39.3428 136.599C39.7912 140.49 39.5507 144.376 39.0836 148.25C38.4806 157.332 40.3894 166.741 44.1894 174.995C40.3863 181.151 35.2965 186.892 28.3533 189.458C28.0596 182.459 26.6897 175.588 25.2319 168.759L25.1745 168.461C24.5915 165.381 24.2996 162.22 22.2777 159.659C18.1649 155.192 12.5081 157.721 9.80153 150.545C10.37 150.257 10.0561 149.273 9.37111 149.462C6.9973 149.884 6.61165 145.481 8.23633 144.421C9.92928 143.388 8.22492 141.483 8.94551 140.108C9.34718 139.515 10.2142 139.495 10.6073 138.812C11.649 136.298 6.43561 134.687 12.5665 131.853C13.8213 131.407 15.2239 131.684 16.4895 131.679C18.3512 131.853 19.8308 133.165 21.5334 133.578C19.6796 138.38 24.3572 143.004 28.5791 139.168C30.8766 141.341 33.4457 146.292 27.8612 143.984C25.1278 142.159 22.7746 139.8 19.6017 138.676L19.5346 138.655C18.3567 138.269 13.2025 135.764 13.4581 137.932C15.3887 139.796 18.5729 139.774 20.8089 141.287C23.9088 142.722 25.891 146.197 29.6019 146.148C30.4575 151.345 24.5626 148.183 22.3675 146.75L21.7589 146.42C18.6625 144.747 15.5196 143.196 11.9087 143.176C10.9122 143.169 10.9166 144.706 11.9087 144.719C16.6146 144.749 20.4447 147.691 24.3868 149.879C24.7749 152.913 20.3343 151.585 18.6493 151.137C16.8826 150.889 14.0452 148.977 12.4989 149.987C11.8942 151.541 14.5555 151.426 15.482 151.897C11.2519 153.93 14.9581 155.21 16.0922 152.086L16.4244 152.199C19.2569 153.152 26.1254 155.112 25.3085 150.312C26.3451 150.771 27.6092 151.045 28.7547 150.791C31.6114 155.017 36.1683 153.382 29.5449 150.501C31.0374 149.806 31.5359 147.125 30.1022 146.127C35.3158 145.808 31.445 140.336 29.2872 138.513C29.4909 138.307 29.6882 138.097 29.8721 137.884C31.1164 138.477 32.4244 138.837 33.823 138.964C35.1617 139.085 35.46 136.806 34.1389 136.619C32.7231 136.419 31.4191 136.042 30.1726 135.33C28.2832 134.514 27.6384 138.021 25.7474 138.145C24.716 138.349 24.0183 137.445 23.8117 136.54ZM67.7057 181.793C67.2492 181.793 66.8433 181.984 66.5119 182.287C66.1805 182.59 66.0378 183.045 66.018 183.479C66.0093 183.712 66.0576 183.929 66.1629 184.131C66.2309 184.34 66.3473 184.52 66.5119 184.674C66.8192 184.979 67.2735 185.168 67.7057 185.168C68.1623 185.168 68.5683 184.977 68.9 184.674C69.2312 184.368 69.3741 183.916 69.3938 183.479C69.4026 183.249 69.3541 183.031 69.249 182.829C69.1877 182.641 69.0874 182.475 68.9479 182.333L68.9 182.287C68.5925 181.979 68.1383 181.793 67.7057 181.793ZM53.872 171.379L53.7989 171.38C53.4126 171.383 53.0546 171.479 52.7212 171.672C52.5763 171.784 52.4314 171.894 52.2885 172.006C52.0232 172.274 51.841 172.588 51.7398 172.951C51.6367 173.328 51.6367 173.708 51.7398 174.086C51.7749 174.303 51.8562 174.514 51.9835 174.696C52.1724 175.01 52.4225 175.263 52.7387 175.449C53.0658 175.64 53.4192 175.735 53.7989 175.737C54.1784 175.735 54.532 175.64 54.859 175.449C55.1751 175.263 55.4253 175.01 55.6119 174.696C55.7414 174.514 55.8226 174.303 55.8577 174.086C55.9609 173.708 55.9609 173.328 55.8577 172.951C55.764 172.614 55.6002 172.319 55.3646 172.064L55.309 172.006C55.1158 171.798 54.8876 171.651 54.622 171.565C54.3886 171.442 54.1386 171.38 53.872 171.379ZM159.447 171.497C159.285 171.453 159.124 171.453 158.962 171.497C158.721 171.508 158.495 171.58 158.286 171.712C158.163 171.808 158.04 171.903 157.917 171.998L157.81 172.126C157.581 172.405 157.575 172.453 157.4 172.878C157.327 173.115 157.316 173.352 157.369 173.589C157.369 173.75 157.41 173.899 157.489 174.037C157.533 174.189 157.608 174.321 157.72 174.43C157.799 174.564 157.904 174.672 158.038 174.751C158.209 174.907 158.411 175.015 158.644 175.069L159.116 175.133C159.177 175.124 159.241 175.116 159.302 175.109C159.376 175.107 159.448 175.098 159.519 175.085L159.59 175.069L159.655 175.052C159.741 175.027 159.825 174.993 159.906 174.951C160.06 174.907 160.193 174.83 160.308 174.716C160.505 174.589 160.663 174.417 160.777 174.204L160.808 174.134C160.85 174.059 160.885 173.983 160.911 173.899C160.986 173.767 161.023 173.627 161.025 173.475C161.069 173.274 161.066 173.074 161.014 172.874L160.995 172.808L160.826 172.406C160.738 172.27 160.646 172.131 160.527 172.019C160.456 171.956 160.282 171.82 160.184 171.752L160.123 171.712C159.915 171.58 159.689 171.508 159.447 171.497ZM185.909 168.357C185.593 167.112 183.96 166.719 183.071 167.608C182.182 168.498 182.575 170.131 183.819 170.447L183.962 170.482C185.165 170.788 186.249 169.701 185.944 168.498L185.909 168.357ZM35.2561 158.201C35.2649 158.078 35.1069 158.035 35.0279 158.107C33.9699 159.056 33.2961 160.193 32.012 160.928C30.7212 161.666 29.3913 161.607 28.0458 162.083C27.5893 162.246 27.5871 162.857 28.0458 163.017C30.5919 163.906 35.063 160.891 35.2561 158.201ZM154.891 158.008C154.607 157.92 154.322 157.907 154.039 157.971C153.846 157.971 153.666 158.019 153.501 158.116C153.319 158.166 153.163 158.258 153.029 158.39C152.869 158.485 152.742 158.614 152.645 158.774C152.456 158.981 152.329 159.222 152.263 159.499L152.189 160.068L152.263 160.637C152.336 160.805 152.408 160.977 152.478 161.146L152.674 161.412C152.833 161.624 152.859 161.626 153.244 161.912C153.49 162.068 153.756 162.154 154.039 162.165C154.228 162.217 154.416 162.217 154.607 162.165C154.798 162.165 154.978 162.116 155.145 162.02C155.325 161.969 155.483 161.877 155.617 161.745C155.85 161.594 156.032 161.394 156.166 161.146C156.238 160.977 156.31 160.805 156.381 160.637L156.458 160.068L156.381 159.499L156.377 159.482C156.276 159.126 156.095 158.816 155.837 158.555L155.411 158.225C155.244 158.118 155.071 158.063 154.891 158.008ZM52.4291 158.434C51.8213 158.267 51.1539 158.443 50.7085 158.889C50.2627 159.334 50.0871 160 50.2539 160.608C50.4186 161.201 50.8949 161.682 51.4897 161.842C51.6675 161.89 51.8475 161.917 52.0296 161.908C52.335 161.906 52.6201 161.829 52.8857 161.675L53.2281 161.409C53.3951 161.256 53.5112 161.074 53.5795 160.863C53.687 160.661 53.7353 160.443 53.7265 160.208L53.7285 160.167C53.7353 160.083 53.7243 160 53.6978 159.919C53.6978 159.833 53.6846 159.749 53.6627 159.668C53.5024 159.075 53.0196 158.596 52.4291 158.434ZM183.501 152.488C183.306 152.481 183.124 152.521 182.955 152.611C182.777 152.668 182.626 152.765 182.498 152.905C182.358 153.032 182.261 153.186 182.204 153.362C182.114 153.531 182.075 153.713 182.081 153.909C182.081 154.165 182.147 154.405 182.274 154.624C182.349 154.721 182.424 154.818 182.498 154.912C182.674 155.09 182.882 155.211 183.124 155.279L183.264 155.327C183.471 155.402 183.673 155.406 183.888 155.378C184.114 155.347 184.322 155.285 184.507 155.145C184.687 155.039 184.829 154.897 184.935 154.717L185.055 154.431C185.082 154.335 185.093 154.19 185.099 154.089C185.099 154.073 185.099 154.06 185.101 154.045C185.101 153.959 185.075 153.751 185.053 153.665C185.005 153.485 184.906 153.313 184.794 153.169C184.698 153.017 184.566 152.898 184.403 152.811L184.389 152.8L184.373 152.789C184.322 152.754 184.27 152.718 184.217 152.681C183.997 152.554 183.758 152.488 183.501 152.488ZM70.1575 150.929C69.8063 150.929 69.4793 151.019 69.1764 151.195C69.1656 151.199 69.1546 151.203 69.1459 151.208C68.8559 151.379 68.6257 151.61 68.4542 151.899C68.2786 152.2 68.1911 152.525 68.1911 152.872C68.1911 153.221 68.2786 153.544 68.4542 153.845C68.6257 154.135 68.8559 154.365 69.1459 154.537C69.1546 154.543 69.1656 154.547 69.1764 154.552C69.4793 154.728 69.8063 154.815 70.1575 154.818C70.5065 154.815 70.8335 154.728 71.1367 154.552C71.7291 154.205 72.1002 153.557 72.1002 152.872C72.1002 152.187 71.7291 151.539 71.1367 151.195C70.8335 151.019 70.5065 150.929 70.1575 150.929ZM161.309 148.39L161.249 148.389C161.016 148.38 160.799 148.428 160.6 148.536C160.391 148.604 160.209 148.72 160.055 148.885L159.735 149.152L159.642 149.228C159.626 149.241 159.611 149.254 159.597 149.267C159.381 149.484 159.234 149.739 159.151 150.033C159.124 150.202 159.103 150.369 159.085 150.538C159.037 150.977 159.296 151.428 159.581 151.739C159.735 151.904 159.917 152.02 160.128 152.09C160.329 152.196 160.549 152.244 160.782 152.235C161.258 152.194 161.71 152.093 162.052 151.724C162.092 151.68 162.129 151.634 162.169 151.588L162.443 151.271C162.652 151.061 162.797 150.812 162.876 150.527C162.898 150.376 162.917 150.226 162.937 150.077C162.957 149.627 162.737 149.205 162.443 148.885C162.171 148.588 161.711 148.406 161.309 148.39ZM172.388 143.766C170.106 143.766 170.11 147.308 172.388 147.308C174.669 147.308 174.665 143.766 172.388 143.766ZM57.6199 138.8L57.5479 138.802C57.1701 138.804 56.817 138.898 56.4897 139.089L56.0641 139.416C55.8049 139.68 55.6251 139.987 55.5239 140.343C55.5 140.529 55.4757 140.716 55.4493 140.901C55.4383 141.191 55.5 141.461 55.6315 141.711C55.7149 141.97 55.8598 142.196 56.0641 142.387C56.2548 142.592 56.479 142.736 56.7399 142.82C56.9902 142.952 57.2601 143.013 57.5479 143.002C57.9274 143 58.281 142.906 58.608 142.715C58.7505 142.605 58.891 142.495 59.0336 142.387C59.2727 142.144 59.4445 141.863 59.5472 141.542L59.5714 141.461L59.6482 140.901C59.6592 140.613 59.5979 140.343 59.4663 140.093C59.3826 139.831 59.2378 139.607 59.0336 139.416C58.8427 139.212 58.6166 139.067 58.3576 138.984C58.1284 138.863 57.8823 138.801 57.6199 138.8ZM67.9013 132.17C67.6972 132.164 67.5084 132.205 67.3304 132.298C67.1484 132.357 66.9904 132.46 66.8565 132.603C66.5731 132.829 66.4 133.281 66.4 133.648C66.4 134.015 66.5731 134.467 66.8565 134.693C67.0409 134.875 67.2582 135.003 67.5084 135.073L67.9013 135.126C68.2832 135.144 68.6717 134.944 68.9439 134.693C68.9987 134.643 69.0514 134.592 69.1063 134.544C69.3541 134.315 69.4617 133.975 69.4772 133.648C69.4838 133.475 69.4463 133.312 69.3675 133.161C69.3168 133.003 69.2292 132.868 69.1063 132.752C69.0514 132.704 68.9987 132.653 68.9439 132.603C68.6473 132.328 68.3008 132.19 67.9013 132.17ZM2.76021 120.359C1.31792 118.602 2.1577 117.351 4.32518 117.786C8.05875 118.291 11.5726 120.651 14.8608 122.344C18.4498 124.24 22.1484 125.804 25.8093 127.586C24.2988 128.514 23.1754 129.966 22.3172 131.624C20.6041 130.322 18.4142 129.7 16.2766 129.619C12.3983 125.903 5.97578 125.052 2.76021 120.359ZM173.156 126.194C172.765 126.195 172.399 126.287 172.056 126.471L171.982 126.512L171.513 126.876C171.284 127.087 171.124 127.337 171.03 127.625C170.885 127.902 170.819 128.203 170.83 128.523C170.819 128.844 170.885 129.142 171.03 129.419C171.124 129.709 171.284 129.957 171.513 130.168C171.642 130.337 171.809 130.469 172.009 130.565C172.196 130.642 172.38 130.721 172.566 130.8C172.775 130.866 173.016 130.875 173.242 130.886C173.653 130.884 174.034 130.78 174.39 130.574L174.851 130.218C175.073 130.012 175.231 129.768 175.323 129.485C175.454 129.235 175.52 128.969 175.52 128.685L175.518 128.607C175.518 128.589 175.518 128.569 175.516 128.549C175.49 128.343 175.461 128.137 175.433 127.93C175.36 127.627 175.222 127.362 175.016 127.138C174.963 127.032 174.893 126.947 174.803 126.876C174.513 126.586 174.171 126.389 173.776 126.277C173.569 126.25 173.363 126.222 173.156 126.194ZM71.3131 120.376L71.2464 120.377C70.9501 120.377 70.6757 120.451 70.4209 120.599C70.3091 120.684 70.1994 120.77 70.0897 120.855C69.8853 121.06 69.7448 121.301 69.6682 121.578L69.6087 122.012C69.6024 122.239 69.6485 122.447 69.7516 122.643C69.8173 122.845 69.9294 123.02 70.0897 123.17C70.2367 123.33 70.4121 123.442 70.6162 123.508C70.8096 123.611 71.0203 123.657 71.2464 123.649C71.5405 123.649 71.8171 123.574 72.0717 123.424C72.1814 123.341 72.2934 123.255 72.4031 123.17C72.5882 122.983 72.7217 122.764 72.8018 122.516L72.8223 122.447L72.8814 122.012C72.8902 121.786 72.8441 121.578 72.7411 121.382C72.6753 121.178 72.5609 121.003 72.4031 120.855C72.2539 120.695 72.078 120.583 71.8761 120.517C71.7005 120.424 71.5122 120.378 71.3131 120.376ZM160.327 117.998L160.251 117.999C159.814 118.001 159.408 118.111 159.03 118.33C158.868 118.456 158.705 118.581 158.543 118.708C158.242 119.009 158.036 119.364 157.919 119.775L157.834 120.416C157.821 120.75 157.891 121.06 158.042 121.347C158.139 121.648 158.306 121.907 158.543 122.127C158.76 122.362 159.019 122.529 159.32 122.625C159.607 122.777 159.917 122.847 160.251 122.834C160.687 122.834 161.093 122.724 161.471 122.504C161.633 122.379 161.796 122.252 161.96 122.127C162.259 121.824 162.465 121.468 162.582 121.06L162.667 120.416C162.68 120.085 162.61 119.773 162.459 119.485C162.362 119.187 162.195 118.925 161.96 118.708C161.741 118.471 161.482 118.304 161.181 118.207C160.916 118.067 160.632 117.999 160.327 117.998ZM79.0535 111.96C78.8538 111.907 78.6543 111.907 78.4545 111.96C78.156 111.973 77.877 112.063 77.618 112.228L77.1637 112.58C77.1573 112.586 77.1505 112.593 77.1439 112.602C76.8696 112.878 76.6788 113.205 76.5735 113.581L76.4942 114.172C76.4833 114.477 76.5469 114.762 76.6852 115.026C76.7677 115.279 76.9039 115.5 77.0915 115.69L77.1637 115.761C77.368 115.981 77.6073 116.137 77.886 116.227C78.0614 116.33 78.2526 116.381 78.4545 116.381C78.7528 116.448 79.0535 116.435 79.3523 116.341C79.5298 116.264 79.71 116.189 79.8898 116.115L79.9471 116.082C80.6253 115.711 81.0445 114.934 81.0445 114.172C81.0445 113.409 80.6253 112.63 79.9471 112.259C79.9271 112.25 79.9098 112.239 79.8898 112.228C79.6308 112.063 79.3523 111.973 79.0535 111.96Z" fill="black"/>
<path fill-rule="evenodd" clip-rule="evenodd" d="M91.1693 57.8063C89.5118 58.8142 86.9863 61.1644 88.7694 63.663C90.8682 65.8662 93.89 63.3401 95.3791 62.1977C96.7599 61.3123 98.3113 63.5895 97.0302 64.6233C86.2699 72.5929 81.9031 58.0699 90.3309 56.6213C91.2589 56.4617 91.6035 57.4945 91.1693 57.8063ZM108.868 48.4903C107.248 48.2029 105.589 48.6058 104.249 49.5539L104.147 49.627C102.856 50.5719 101.411 52.2309 102.152 53.8594C102.449 54.5133 103.34 54.6159 103.905 54.3195C104.846 53.8258 105.017 52.6114 105.856 51.9392C106.545 51.3883 107.472 51.0541 108.359 51.1347C110.442 51.324 111.723 53.3794 112.37 55.1508C112.453 55.3774 112.785 55.4654 112.915 55.2221C114.441 52.3694 111.74 49.0002 108.868 48.4903ZM82.9218 47.4137C79.8189 47.1579 76.1869 50.3761 77.0039 53.6526C77.3957 55.2248 79.7269 55.1798 80.1413 53.6526C80.3693 52.8123 80.3465 52.0688 80.9512 51.371C81.4503 50.7948 82.1595 50.4601 82.9218 50.5115C83.762 50.5682 84.5371 50.9882 85.126 51.5787C85.6578 52.1118 85.9758 52.892 86.5268 53.3639C86.6624 53.4798 86.8439 53.4873 86.9778 53.3639C87.926 52.4893 87.3569 50.6685 86.7557 49.7555C85.8953 48.449 84.4943 47.5435 82.9218 47.4137ZM114.777 42.6791C112.787 40.9163 109.17 39.214 106.485 40.0815C104.942 40.5802 104.269 43.0678 105.992 43.8563C107.987 44.7693 110.287 44.3978 112.318 45.3441C113.17 45.7418 113.972 46.2387 114.566 46.9675C115.034 47.5419 115.51 48.2977 116.186 48.6288C116.364 48.716 116.605 48.7182 116.747 48.5566C118.23 46.8786 116.072 43.8255 114.777 42.6791ZM86.3432 39.994C85.1129 39.6486 83.7481 39.6556 82.4984 39.8726C81.249 40.0895 79.9806 40.6075 78.9606 41.3631L78.8422 41.4515C77.7287 42.291 76.3999 43.5123 76.4711 44.9993C76.5306 46.241 77.8363 47.0809 78.9636 46.4301C79.8827 45.8994 80.3151 44.8362 81.0932 44.1282C81.7352 43.5439 82.4894 43.0833 83.294 42.7605C84.1878 42.4019 85.0831 42.2339 86.0423 42.2179C86.7809 42.2056 87.5239 42.448 88.2486 42.5255C88.1889 42.6481 88.7618 42.591 89.0902 42.4823C89.3334 42.3786 89.3347 42.071 89.2504 41.8714C88.8323 40.8826 87.3109 40.2654 86.3432 39.994Z" fill="black"/>
<path d="M89.5 79.5C93.3333 81.6667 102.4 84.1 108 76.5" stroke="black" stroke-width="2" stroke-linecap="round" stroke-linejoin="round"/>
</svg>
