<svg width="223" height="246" viewBox="0 0 223 246" fill="none" xmlns="http://www.w3.org/2000/svg">
<rect width="223" height="246" rx="15" fill="white"/>
<path d="M112 95V99" stroke="#686B6E" stroke-width="2" stroke-linecap="round" stroke-linejoin="round"/>
<path d="M112 111V115" stroke="#686B6E" stroke-width="2" stroke-linecap="round" stroke-linejoin="round"/>
<path d="M104.93 97.9302L107.76 100.76" stroke="#686B6E" stroke-width="2" stroke-linecap="round" stroke-linejoin="round"/>
<path d="M116.24 109.24L119.07 112.07" stroke="#686B6E" stroke-width="2" stroke-linecap="round" stroke-linejoin="round"/>
<path d="M102 105H106" stroke="#686B6E" stroke-width="2" stroke-linecap="round" stroke-linejoin="round"/>
<path d="M118 105H122" stroke="#686B6E" stroke-width="2" stroke-linecap="round" stroke-linejoin="round"/>
<path d="M104.93 112.07L107.76 109.24" stroke="#686B6E" stroke-width="2" stroke-linecap="round" stroke-linejoin="round"/>
<path d="M116.24 100.76L119.07 97.9302" stroke="#686B6E" stroke-width="2" stroke-linecap="round" stroke-linejoin="round"/>
<path d="M70.688 141.416C70.688 140.328 70.9333 139.352 71.424 138.488C71.9147 137.613 72.5813 136.931 73.424 136.44C74.2773 135.949 75.2213 135.704 76.256 135.704C77.472 135.704 78.5333 135.997 79.44 136.584C80.3467 137.171 81.008 138.003 81.424 139.08H79.68C79.3707 138.408 78.9227 137.891 78.336 137.528C77.76 137.165 77.0667 136.984 76.256 136.984C75.4773 136.984 74.7787 137.165 74.16 137.528C73.5413 137.891 73.056 138.408 72.704 139.08C72.352 139.741 72.176 140.52 72.176 141.416C72.176 142.301 72.352 143.08 72.704 143.752C73.056 144.413 73.5413 144.925 74.16 145.288C74.7787 145.651 75.4773 145.832 76.256 145.832C77.0667 145.832 77.76 145.656 78.336 145.304C78.9227 144.941 79.3707 144.424 79.68 143.752H81.424C81.008 144.819 80.3467 145.645 79.44 146.232C78.5333 146.808 77.472 147.096 76.256 147.096C75.2213 147.096 74.2773 146.856 73.424 146.376C72.5813 145.885 71.9147 145.208 71.424 144.344C70.9333 143.48 70.688 142.504 70.688 141.416ZM83.0474 142.584C83.0474 141.688 83.2287 140.904 83.5914 140.232C83.954 139.549 84.45 139.021 85.0794 138.648C85.7194 138.275 86.4287 138.088 87.2074 138.088C87.9754 138.088 88.642 138.253 89.2074 138.584C89.7727 138.915 90.194 139.331 90.4714 139.832V138.232H91.9434V147H90.4714V145.368C90.1834 145.88 89.7514 146.307 89.1754 146.648C88.61 146.979 87.9487 147.144 87.1914 147.144C86.4127 147.144 85.7087 146.952 85.0794 146.568C84.45 146.184 83.954 145.645 83.5914 144.952C83.2287 144.259 83.0474 143.469 83.0474 142.584ZM90.4714 142.6C90.4714 141.939 90.338 141.363 90.0714 140.872C89.8047 140.381 89.442 140.008 88.9834 139.752C88.5354 139.485 88.0394 139.352 87.4954 139.352C86.9514 139.352 86.4554 139.48 86.0074 139.736C85.5594 139.992 85.202 140.365 84.9354 140.856C84.6687 141.347 84.5354 141.923 84.5354 142.584C84.5354 143.256 84.6687 143.843 84.9354 144.344C85.202 144.835 85.5594 145.213 86.0074 145.48C86.4554 145.736 86.9514 145.864 87.4954 145.864C88.0394 145.864 88.5354 145.736 88.9834 145.48C89.442 145.213 89.8047 144.835 90.0714 144.344C90.338 143.843 90.4714 143.261 90.4714 142.6ZM95.8599 139.656C96.1159 139.155 96.4785 138.765 96.9479 138.488C97.4279 138.211 98.0092 138.072 98.6919 138.072V139.576H98.3079C96.6759 139.576 95.8599 140.461 95.8599 142.232V147H94.4039V138.232H95.8599V139.656ZM103.989 138.088C104.746 138.088 105.407 138.253 105.973 138.584C106.549 138.915 106.975 139.331 107.253 139.832V138.232H108.725V147.192C108.725 147.992 108.554 148.701 108.213 149.32C107.871 149.949 107.381 150.44 106.741 150.792C106.111 151.144 105.375 151.32 104.533 151.32C103.381 151.32 102.421 151.048 101.653 150.504C100.885 149.96 100.431 149.219 100.293 148.28H101.733C101.893 148.813 102.223 149.24 102.725 149.56C103.226 149.891 103.829 150.056 104.533 150.056C105.333 150.056 105.983 149.805 106.485 149.304C106.997 148.803 107.253 148.099 107.253 147.192V145.352C106.965 145.864 106.538 146.291 105.973 146.632C105.407 146.973 104.746 147.144 103.989 147.144C103.21 147.144 102.501 146.952 101.861 146.568C101.231 146.184 100.735 145.645 100.373 144.952C100.01 144.259 99.8286 143.469 99.8286 142.584C99.8286 141.688 100.01 140.904 100.373 140.232C100.735 139.549 101.231 139.021 101.861 138.648C102.501 138.275 103.21 138.088 103.989 138.088ZM107.253 142.6C107.253 141.939 107.119 141.363 106.853 140.872C106.586 140.381 106.223 140.008 105.765 139.752C105.317 139.485 104.821 139.352 104.277 139.352C103.733 139.352 103.237 139.48 102.789 139.736C102.341 139.992 101.983 140.365 101.717 140.856C101.45 141.347 101.317 141.923 101.317 142.584C101.317 143.256 101.45 143.843 101.717 144.344C101.983 144.835 102.341 145.213 102.789 145.48C103.237 145.736 103.733 145.864 104.277 145.864C104.821 145.864 105.317 145.736 105.765 145.48C106.223 145.213 106.586 144.835 106.853 144.344C107.119 143.843 107.253 143.261 107.253 142.6ZM110.641 142.584C110.641 141.688 110.822 140.904 111.185 140.232C111.548 139.549 112.044 139.021 112.673 138.648C113.313 138.275 114.022 138.088 114.801 138.088C115.569 138.088 116.236 138.253 116.801 138.584C117.366 138.915 117.788 139.331 118.065 139.832V138.232H119.537V147H118.065V145.368C117.777 145.88 117.345 146.307 116.769 146.648C116.204 146.979 115.542 147.144 114.785 147.144C114.006 147.144 113.302 146.952 112.673 146.568C112.044 146.184 111.548 145.645 111.185 144.952C110.822 144.259 110.641 143.469 110.641 142.584ZM118.065 142.6C118.065 141.939 117.932 141.363 117.665 140.872C117.398 140.381 117.036 140.008 116.577 139.752C116.129 139.485 115.633 139.352 115.089 139.352C114.545 139.352 114.049 139.48 113.601 139.736C113.153 139.992 112.796 140.365 112.529 140.856C112.262 141.347 112.129 141.923 112.129 142.584C112.129 143.256 112.262 143.843 112.529 144.344C112.796 144.835 113.153 145.213 113.601 145.48C114.049 145.736 114.545 145.864 115.089 145.864C115.633 145.864 116.129 145.736 116.577 145.48C117.036 145.213 117.398 144.835 117.665 144.344C117.932 143.843 118.065 143.261 118.065 142.6ZM126.27 138.072C127.336 138.072 128.2 138.397 128.862 139.048C129.523 139.688 129.854 140.616 129.854 141.832V147H128.414V142.04C128.414 141.165 128.195 140.499 127.758 140.04C127.32 139.571 126.723 139.336 125.966 139.336C125.198 139.336 124.584 139.576 124.126 140.056C123.678 140.536 123.454 141.235 123.454 142.152V147H121.998V138.232H123.454V139.48C123.742 139.032 124.131 138.685 124.622 138.44C125.123 138.195 125.672 138.072 126.27 138.072ZM131.688 142.584C131.688 141.688 131.869 140.904 132.232 140.232C132.595 139.549 133.091 139.021 133.72 138.648C134.36 138.275 135.075 138.088 135.864 138.088C136.547 138.088 137.181 138.248 137.768 138.568C138.355 138.877 138.803 139.288 139.112 139.8V135.16H140.584V147H139.112V145.352C138.824 145.875 138.397 146.307 137.832 146.648C137.267 146.979 136.605 147.144 135.848 147.144C135.069 147.144 134.36 146.952 133.72 146.568C133.091 146.184 132.595 145.645 132.232 144.952C131.869 144.259 131.688 143.469 131.688 142.584ZM139.112 142.6C139.112 141.939 138.979 141.363 138.712 140.872C138.445 140.381 138.083 140.008 137.624 139.752C137.176 139.485 136.68 139.352 136.136 139.352C135.592 139.352 135.096 139.48 134.648 139.736C134.2 139.992 133.843 140.365 133.576 140.856C133.309 141.347 133.176 141.923 133.176 142.584C133.176 143.256 133.309 143.843 133.576 144.344C133.843 144.835 134.2 145.213 134.648 145.48C135.096 145.736 135.592 145.864 136.136 145.864C136.68 145.864 137.176 145.736 137.624 145.48C138.083 145.213 138.445 144.835 138.712 144.344C138.979 143.843 139.112 143.261 139.112 142.6ZM146.869 147.144C146.047 147.144 145.301 146.957 144.629 146.584C143.967 146.211 143.445 145.683 143.061 145C142.687 144.307 142.501 143.507 142.501 142.6C142.501 141.704 142.693 140.915 143.077 140.232C143.471 139.539 144.005 139.011 144.677 138.648C145.349 138.275 146.101 138.088 146.933 138.088C147.765 138.088 148.517 138.275 149.189 138.648C149.861 139.011 150.389 139.533 150.773 140.216C151.167 140.899 151.365 141.693 151.365 142.6C151.365 143.507 151.162 144.307 150.757 145C150.362 145.683 149.823 146.211 149.141 146.584C148.458 146.957 147.701 147.144 146.869 147.144ZM146.869 145.864C147.391 145.864 147.882 145.741 148.341 145.496C148.799 145.251 149.167 144.883 149.445 144.392C149.733 143.901 149.877 143.304 149.877 142.6C149.877 141.896 149.738 141.299 149.461 140.808C149.183 140.317 148.821 139.955 148.373 139.72C147.925 139.475 147.439 139.352 146.917 139.352C146.383 139.352 145.893 139.475 145.445 139.72C145.007 139.955 144.655 140.317 144.389 140.808C144.122 141.299 143.989 141.896 143.989 142.6C143.989 143.315 144.117 143.917 144.373 144.408C144.639 144.899 144.991 145.267 145.429 145.512C145.866 145.747 146.346 145.864 146.869 145.864Z" fill="#686B6E"/>
</svg>
