<svg width="83" height="60" viewBox="0 0 83 60" fill="none" xmlns="http://www.w3.org/2000/svg">
<path d="M42 2V6" stroke="#686B6E" stroke-width="2" stroke-linecap="round" stroke-linejoin="round"/>
<path d="M42 18V22" stroke="#686B6E" stroke-width="2" stroke-linecap="round" stroke-linejoin="round"/>
<path d="M34.9297 4.92993L37.7597 7.75993" stroke="#686B6E" stroke-width="2" stroke-linecap="round" stroke-linejoin="round"/>
<path d="M46.2402 16.24L49.0702 19.07" stroke="#686B6E" stroke-width="2" stroke-linecap="round" stroke-linejoin="round"/>
<path d="M32 12H36" stroke="#686B6E" stroke-width="2" stroke-linecap="round" stroke-linejoin="round"/>
<path d="M48 12H52" stroke="#686B6E" stroke-width="2" stroke-linecap="round" stroke-linejoin="round"/>
<path d="M34.9297 19.07L37.7597 16.24" stroke="#686B6E" stroke-width="2" stroke-linecap="round" stroke-linejoin="round"/>
<path d="M46.2402 7.75993L49.0702 4.92993" stroke="#686B6E" stroke-width="2" stroke-linecap="round" stroke-linejoin="round"/>
<path d="M0.688 48.416C0.688 47.328 0.933333 46.352 1.424 45.488C1.91467 44.6133 2.58133 43.9307 3.424 43.44C4.27733 42.9493 5.22133 42.704 6.256 42.704C7.472 42.704 8.53333 42.9973 9.44 43.584C10.3467 44.1707 11.008 45.0027 11.424 46.08H9.68C9.37067 45.408 8.92267 44.8907 8.336 44.528C7.76 44.1653 7.06667 43.984 6.256 43.984C5.47733 43.984 4.77867 44.1653 4.16 44.528C3.54133 44.8907 3.056 45.408 2.704 46.08C2.352 46.7413 2.176 47.52 2.176 48.416C2.176 49.3013 2.352 50.08 2.704 50.752C3.056 51.4133 3.54133 51.9253 4.16 52.288C4.77867 52.6507 5.47733 52.832 6.256 52.832C7.06667 52.832 7.76 52.656 8.336 52.304C8.92267 51.9413 9.37067 51.424 9.68 50.752H11.424C11.008 51.8187 10.3467 52.6453 9.44 53.232C8.53333 53.808 7.472 54.096 6.256 54.096C5.22133 54.096 4.27733 53.856 3.424 53.376C2.58133 52.8853 1.91467 52.208 1.424 51.344C0.933333 50.48 0.688 49.504 0.688 48.416ZM13.0474 49.584C13.0474 48.688 13.2287 47.904 13.5914 47.232C13.954 46.5493 14.45 46.0213 15.0794 45.648C15.7194 45.2747 16.4287 45.088 17.2074 45.088C17.9754 45.088 18.642 45.2533 19.2074 45.584C19.7727 45.9147 20.194 46.3307 20.4714 46.832V45.232H21.9434V54H20.4714V52.368C20.1834 52.88 19.7514 53.3067 19.1754 53.648C18.61 53.9787 17.9487 54.144 17.1914 54.144C16.4127 54.144 15.7087 53.952 15.0794 53.568C14.45 53.184 13.954 52.6453 13.5914 51.952C13.2287 51.2587 13.0474 50.4693 13.0474 49.584ZM20.4714 49.6C20.4714 48.9387 20.338 48.3627 20.0714 47.872C19.8047 47.3813 19.442 47.008 18.9834 46.752C18.5354 46.4853 18.0394 46.352 17.4954 46.352C16.9514 46.352 16.4554 46.48 16.0074 46.736C15.5594 46.992 15.202 47.3653 14.9354 47.856C14.6687 48.3467 14.5354 48.9227 14.5354 49.584C14.5354 50.256 14.6687 50.8427 14.9354 51.344C15.202 51.8347 15.5594 52.2133 16.0074 52.48C16.4554 52.736 16.9514 52.864 17.4954 52.864C18.0394 52.864 18.5354 52.736 18.9834 52.48C19.442 52.2133 19.8047 51.8347 20.0714 51.344C20.338 50.8427 20.4714 50.2613 20.4714 49.6ZM25.8599 46.656C26.1159 46.1547 26.4785 45.7653 26.9479 45.488C27.4279 45.2107 28.0092 45.072 28.6919 45.072V46.576H28.3079C26.6759 46.576 25.8599 47.4613 25.8599 49.232V54H24.4039V45.232H25.8599V46.656ZM33.9886 45.088C34.746 45.088 35.4073 45.2533 35.9726 45.584C36.5486 45.9147 36.9753 46.3307 37.2526 46.832V45.232H38.7246V54.192C38.7246 54.992 38.554 55.7013 38.2126 56.32C37.8713 56.9493 37.3806 57.44 36.7406 57.792C36.1113 58.144 35.3753 58.32 34.5326 58.32C33.3806 58.32 32.4206 58.048 31.6526 57.504C30.8846 56.96 30.4313 56.2187 30.2926 55.28H31.7326C31.8926 55.8133 32.2233 56.24 32.7246 56.56C33.226 56.8907 33.8286 57.056 34.5326 57.056C35.3326 57.056 35.9833 56.8053 36.4846 56.304C36.9966 55.8027 37.2526 55.0987 37.2526 54.192V52.352C36.9646 52.864 36.538 53.2907 35.9726 53.632C35.4073 53.9733 34.746 54.144 33.9886 54.144C33.21 54.144 32.5006 53.952 31.8606 53.568C31.2313 53.184 30.7353 52.6453 30.3726 51.952C30.01 51.2587 29.8286 50.4693 29.8286 49.584C29.8286 48.688 30.01 47.904 30.3726 47.232C30.7353 46.5493 31.2313 46.0213 31.8606 45.648C32.5006 45.2747 33.21 45.088 33.9886 45.088ZM37.2526 49.6C37.2526 48.9387 37.1193 48.3627 36.8526 47.872C36.586 47.3813 36.2233 47.008 35.7646 46.752C35.3166 46.4853 34.8206 46.352 34.2766 46.352C33.7326 46.352 33.2366 46.48 32.7886 46.736C32.3406 46.992 31.9833 47.3653 31.7166 47.856C31.45 48.3467 31.3166 48.9227 31.3166 49.584C31.3166 50.256 31.45 50.8427 31.7166 51.344C31.9833 51.8347 32.3406 52.2133 32.7886 52.48C33.2366 52.736 33.7326 52.864 34.2766 52.864C34.8206 52.864 35.3166 52.736 35.7646 52.48C36.2233 52.2133 36.586 51.8347 36.8526 51.344C37.1193 50.8427 37.2526 50.2613 37.2526 49.6ZM40.6411 49.584C40.6411 48.688 40.8225 47.904 41.1851 47.232C41.5478 46.5493 42.0438 46.0213 42.6731 45.648C43.3131 45.2747 44.0225 45.088 44.8011 45.088C45.5691 45.088 46.2358 45.2533 46.8011 45.584C47.3665 45.9147 47.7878 46.3307 48.0651 46.832V45.232H49.5371V54H48.0651V52.368C47.7771 52.88 47.3451 53.3067 46.7691 53.648C46.2038 53.9787 45.5425 54.144 44.7851 54.144C44.0065 54.144 43.3025 53.952 42.6731 53.568C42.0438 53.184 41.5478 52.6453 41.1851 51.952C40.8225 51.2587 40.6411 50.4693 40.6411 49.584ZM48.0651 49.6C48.0651 48.9387 47.9318 48.3627 47.6651 47.872C47.3985 47.3813 47.0358 47.008 46.5771 46.752C46.1291 46.4853 45.6331 46.352 45.0891 46.352C44.5451 46.352 44.0491 46.48 43.6011 46.736C43.1531 46.992 42.7958 47.3653 42.5291 47.856C42.2625 48.3467 42.1291 48.9227 42.1291 49.584C42.1291 50.256 42.2625 50.8427 42.5291 51.344C42.7958 51.8347 43.1531 52.2133 43.6011 52.48C44.0491 52.736 44.5451 52.864 45.0891 52.864C45.6331 52.864 46.1291 52.736 46.5771 52.48C47.0358 52.2133 47.3985 51.8347 47.6651 51.344C47.9318 50.8427 48.0651 50.2613 48.0651 49.6ZM56.2696 45.072C57.3363 45.072 58.2003 45.3973 58.8616 46.048C59.523 46.688 59.8536 47.616 59.8536 48.832V54H58.4136V49.04C58.4136 48.1653 58.195 47.4987 57.7576 47.04C57.3203 46.5707 56.723 46.336 55.9656 46.336C55.1976 46.336 54.5843 46.576 54.1256 47.056C53.6776 47.536 53.4536 48.2347 53.4536 49.152V54H51.9976V45.232H53.4536V46.48C53.7416 46.032 54.131 45.6853 54.6216 45.44C55.123 45.1947 55.6723 45.072 56.2696 45.072ZM61.688 49.584C61.688 48.688 61.8693 47.904 62.232 47.232C62.5947 46.5493 63.0907 46.0213 63.72 45.648C64.36 45.2747 65.0747 45.088 65.864 45.088C66.5467 45.088 67.1813 45.248 67.768 45.568C68.3547 45.8773 68.8027 46.288 69.112 46.8V42.16H70.584V54H69.112V52.352C68.824 52.8747 68.3973 53.3067 67.832 53.648C67.2667 53.9787 66.6053 54.144 65.848 54.144C65.0693 54.144 64.36 53.952 63.72 53.568C63.0907 53.184 62.5947 52.6453 62.232 51.952C61.8693 51.2587 61.688 50.4693 61.688 49.584ZM69.112 49.6C69.112 48.9387 68.9787 48.3627 68.712 47.872C68.4453 47.3813 68.0827 47.008 67.624 46.752C67.176 46.4853 66.68 46.352 66.136 46.352C65.592 46.352 65.096 46.48 64.648 46.736C64.2 46.992 63.8427 47.3653 63.576 47.856C63.3093 48.3467 63.176 48.9227 63.176 49.584C63.176 50.256 63.3093 50.8427 63.576 51.344C63.8427 51.8347 64.2 52.2133 64.648 52.48C65.096 52.736 65.592 52.864 66.136 52.864C66.68 52.864 67.176 52.736 67.624 52.48C68.0827 52.2133 68.4453 51.8347 68.712 51.344C68.9787 50.8427 69.112 50.2613 69.112 49.6ZM76.8685 54.144C76.0472 54.144 75.3005 53.9573 74.6285 53.584C73.9672 53.2107 73.4445 52.6827 73.0605 52C72.6872 51.3067 72.5005 50.5067 72.5005 49.6C72.5005 48.704 72.6925 47.9147 73.0765 47.232C73.4712 46.5387 74.0045 46.0107 74.6765 45.648C75.3485 45.2747 76.1005 45.088 76.9325 45.088C77.7645 45.088 78.5165 45.2747 79.1885 45.648C79.8605 46.0107 80.3885 46.5333 80.7725 47.216C81.1672 47.8987 81.3645 48.6933 81.3645 49.6C81.3645 50.5067 81.1618 51.3067 80.7565 52C80.3618 52.6827 79.8232 53.2107 79.1405 53.584C78.4578 53.9573 77.7005 54.144 76.8685 54.144ZM76.8685 52.864C77.3912 52.864 77.8818 52.7413 78.3405 52.496C78.7992 52.2507 79.1672 51.8827 79.4445 51.392C79.7325 50.9013 79.8765 50.304 79.8765 49.6C79.8765 48.896 79.7378 48.2987 79.4605 47.808C79.1832 47.3173 78.8205 46.9547 78.3725 46.72C77.9245 46.4747 77.4392 46.352 76.9165 46.352C76.3832 46.352 75.8925 46.4747 75.4445 46.72C75.0072 46.9547 74.6552 47.3173 74.3885 47.808C74.1218 48.2987 73.9885 48.896 73.9885 49.6C73.9885 50.3147 74.1165 50.9173 74.3725 51.408C74.6392 51.8987 74.9912 52.2667 75.4285 52.512C75.8658 52.7467 76.3458 52.864 76.8685 52.864Z" fill="#686B6E"/>
</svg>
