<svg width="39" height="39" viewBox="0 0 39 39" fill="none" xmlns="http://www.w3.org/2000/svg">
<path d="M8.64322 23.5682L7.28569 28.636L2.32393 28.741C0.84109 25.9907 0 22.8439 0 19.5C0 16.2664 0.786399 13.2171 2.18034 10.5321H2.18141L6.59877 11.342L8.53384 15.7328C8.12883 16.9136 7.90809 18.1811 7.90809 19.5C7.90824 20.9314 8.16753 22.3029 8.64322 23.5682Z" fill="#FBBB00"/>
<path d="M38.6593 15.8572C38.8832 17.0368 39 18.255 39 19.5C39 20.8961 38.8532 22.2579 38.5736 23.5715C37.6244 28.0415 35.144 31.9447 31.7079 34.7068L31.7069 34.7058L26.143 34.4219L25.3555 29.5061C27.6355 28.169 29.4173 26.0765 30.3559 23.5715H19.9287V15.8572H30.508H38.6593Z" fill="#518EF8"/>
<path d="M31.7069 34.7057L31.7079 34.7068C28.3662 37.3928 24.1212 39 19.5001 39C12.074 39 5.61763 34.8493 2.32404 28.7411L8.64333 23.5682C10.2901 27.9632 14.5297 31.0918 19.5001 31.0918C21.6365 31.0918 23.638 30.5143 25.3554 29.5061L31.7069 34.7057Z" fill="#28B446"/>
<path d="M31.9469 4.48927L25.6297 9.66103C23.8522 8.54999 21.7511 7.90816 19.5001 7.90816C14.4172 7.90816 10.0983 11.1803 8.53399 15.7328L2.18149 10.5321H2.18042C5.4258 4.275 11.9636 0 19.5001 0C24.2315 0 28.5697 1.68538 31.9469 4.48927Z" fill="#F14336"/>
</svg>
