<svg width="180" height="25" viewBox="0 0 180 25" fill="none" xmlns="http://www.w3.org/2000/svg">
<path d="M14.0834 16.425V19.675H0.533447V2.17499H13.7584V5.42499H4.55845V9.22499H12.6834V12.375H4.55845V16.425H14.0834Z" fill="#FCC010"/>
<path d="M22.3583 6.02499C24.4416 6.02499 26.0416 6.52499 27.1583 7.52499C28.2749 8.50832 28.8333 9.99999 28.8333 12V19.675H25.1833V18C24.4499 19.25 23.0833 19.875 21.0833 19.875C20.0499 19.875 19.1499 19.7 18.3833 19.35C17.6333 19 17.0583 18.5167 16.6583 17.9C16.2583 17.2833 16.0583 16.5833 16.0583 15.8C16.0583 14.55 16.5249 13.5667 17.4583 12.85C18.4083 12.1333 19.8666 11.775 21.8333 11.775H24.9333C24.9333 10.925 24.6749 10.275 24.1583 9.82499C23.6416 9.35832 22.8666 9.12499 21.8333 9.12499C21.1166 9.12499 20.4083 9.24166 19.7083 9.47499C19.0249 9.69166 18.4416 9.99166 17.9583 10.375L16.5583 7.64999C17.2916 7.13332 18.1666 6.73332 19.1833 6.44999C20.2166 6.16666 21.2749 6.02499 22.3583 6.02499ZM22.0583 17.25C22.7249 17.25 23.3166 17.1 23.8333 16.8C24.3499 16.4833 24.7166 16.025 24.9333 15.425V14.05H22.2583C20.6583 14.05 19.8583 14.575 19.8583 15.625C19.8583 16.125 20.0499 16.525 20.4333 16.825C20.8333 17.1083 21.3749 17.25 22.0583 17.25Z" fill="#FCC010"/>
<path d="M36.8879 19.875C35.7713 19.875 34.6796 19.7417 33.6129 19.475C32.5463 19.1917 31.6963 18.8417 31.0629 18.425L32.3629 15.625C32.9629 16.0083 33.6879 16.325 34.5379 16.575C35.3879 16.8083 36.2213 16.925 37.0379 16.925C38.6879 16.925 39.5129 16.5167 39.5129 15.7C39.5129 15.3167 39.2879 15.0417 38.8379 14.875C38.3879 14.7083 37.6963 14.5667 36.7629 14.45C35.6629 14.2833 34.7546 14.0917 34.0379 13.875C33.3213 13.6583 32.6963 13.275 32.1629 12.725C31.6463 12.175 31.3879 11.3917 31.3879 10.375C31.3879 9.52499 31.6296 8.77499 32.1129 8.12499C32.6129 7.45832 33.3296 6.94165 34.2629 6.57499C35.2129 6.20832 36.3296 6.02499 37.6129 6.02499C38.5629 6.02499 39.5046 6.13332 40.4379 6.34999C41.3879 6.54999 42.1713 6.83332 42.7879 7.19999L41.4879 9.97499C40.3046 9.30832 39.0129 8.97499 37.6129 8.97499C36.7796 8.97499 36.1546 9.09166 35.7379 9.32499C35.3213 9.55832 35.1129 9.85832 35.1129 10.225C35.1129 10.6417 35.3379 10.9333 35.7879 11.1C36.2379 11.2667 36.9546 11.425 37.9379 11.575C39.0379 11.7583 39.9379 11.9583 40.6379 12.175C41.3379 12.375 41.9463 12.75 42.4629 13.3C42.9796 13.85 43.2379 14.6167 43.2379 15.6C43.2379 16.4333 42.9879 17.175 42.4879 17.825C41.9879 18.475 41.2546 18.9833 40.2879 19.35C39.3379 19.7 38.2046 19.875 36.8879 19.875Z" fill="#FCC010"/>
<path d="M58.75 6.22499L52.675 20.5C52.0584 22.05 51.2917 23.1417 50.375 23.775C49.475 24.4083 48.3834 24.725 47.1 24.725C46.4 24.725 45.7084 24.6167 45.025 24.4C44.3417 24.1833 43.7834 23.8833 43.35 23.5L44.775 20.725C45.075 20.9917 45.4167 21.2 45.8 21.35C46.2001 21.5 46.5917 21.575 46.975 21.575C47.5084 21.575 47.9417 21.4417 48.275 21.175C48.6084 20.925 48.9084 20.5 49.175 19.9L49.225 19.775L43.4 6.22499H47.425L51.2001 15.35L55 6.22499H58.75Z" fill="#FCC010"/>
<path d="M74.2555 10.575C75.2555 10.8917 76.0389 11.425 76.6055 12.175C77.1722 12.9083 77.4555 13.8167 77.4555 14.9C77.4555 16.4333 76.8555 17.6167 75.6555 18.45C74.4722 19.2667 72.7389 19.675 70.4555 19.675H61.4055V2.175H69.9555C72.0889 2.175 73.7222 2.58333 74.8555 3.4C76.0055 4.21667 76.5805 5.325 76.5805 6.725C76.5805 7.575 76.3722 8.33333 75.9555 9C75.5555 9.66667 74.9889 10.1917 74.2555 10.575ZM65.4305 5.225V9.35H69.4555C70.4555 9.35 71.2139 9.175 71.7305 8.825C72.2472 8.475 72.5055 7.95833 72.5055 7.275C72.5055 6.59167 72.2472 6.08333 71.7305 5.75C71.2139 5.4 70.4555 5.225 69.4555 5.225H65.4305ZM70.1555 16.625C71.2222 16.625 72.0222 16.45 72.5555 16.1C73.1055 15.75 73.3805 15.2083 73.3805 14.475C73.3805 13.025 72.3055 12.3 70.1555 12.3H65.4305V16.625H70.1555Z" fill="white"/>
<path d="M83.9717 8C84.4384 7.35 85.0634 6.85833 85.8467 6.525C86.6467 6.19167 87.5634 6.025 88.5967 6.025V9.625C88.1634 9.59167 87.8717 9.575 87.7217 9.575C86.6051 9.575 85.7301 9.89167 85.0967 10.525C84.4634 11.1417 84.1467 12.075 84.1467 13.325V19.675H80.2467V6.225H83.9717V8Z" fill="white"/>
<path d="M96.2674 6.025C98.3508 6.025 99.9508 6.525 101.067 7.525C102.184 8.50833 102.742 10 102.742 12V19.675H99.0924V18C98.3591 19.25 96.9924 19.875 94.9924 19.875C93.9591 19.875 93.0591 19.7 92.2924 19.35C91.5424 19 90.9674 18.5167 90.5674 17.9C90.1674 17.2833 89.9674 16.5833 89.9674 15.8C89.9674 14.55 90.4341 13.5667 91.3674 12.85C92.3174 12.1333 93.7758 11.775 95.7424 11.775H98.8424C98.8424 10.925 98.5841 10.275 98.0674 9.825C97.5508 9.35833 96.7758 9.125 95.7424 9.125C95.0258 9.125 94.3174 9.24167 93.6174 9.475C92.9341 9.69167 92.3508 9.99167 91.8674 10.375L90.4674 7.65C91.2008 7.13333 92.0758 6.73333 93.0924 6.45C94.1258 6.16667 95.1841 6.025 96.2674 6.025ZM95.9674 17.25C96.6341 17.25 97.2258 17.1 97.7424 16.8C98.2591 16.4833 98.6258 16.025 98.8424 15.425V14.05H96.1674C94.5674 14.05 93.7674 14.575 93.7674 15.625C93.7674 16.125 93.9591 16.525 94.3424 16.825C94.7424 17.1083 95.2841 17.25 95.9674 17.25Z" fill="white"/>
<path d="M114.447 6.025C116.114 6.025 117.455 6.525 118.472 7.525C119.505 8.525 120.022 10.0083 120.022 11.975V19.675H116.122V12.575C116.122 11.5083 115.889 10.7167 115.422 10.2C114.955 9.66667 114.28 9.4 113.397 9.4C112.414 9.4 111.63 9.70833 111.047 10.325C110.464 10.925 110.172 11.825 110.172 13.025V19.675H106.272V6.225H109.997V7.8C110.514 7.23334 111.155 6.8 111.922 6.5C112.689 6.18333 113.53 6.025 114.447 6.025Z" fill="white"/>
<path d="M137.404 1.125V19.675H133.679V18.125C132.712 19.2917 131.312 19.875 129.479 19.875C128.212 19.875 127.062 19.5917 126.029 19.025C125.012 18.4583 124.212 17.65 123.629 16.6C123.045 15.55 122.754 14.3333 122.754 12.95C122.754 11.5667 123.045 10.35 123.629 9.3C124.212 8.25 125.012 7.44167 126.029 6.875C127.062 6.30833 128.212 6.025 129.479 6.025C131.195 6.025 132.537 6.56667 133.504 7.65V1.125H137.404ZM130.154 16.675C131.137 16.675 131.954 16.3417 132.604 15.675C133.254 14.9917 133.579 14.0833 133.579 12.95C133.579 11.8167 133.254 10.9167 132.604 10.25C131.954 9.56667 131.137 9.225 130.154 9.225C129.154 9.225 128.329 9.56667 127.679 10.25C127.029 10.9167 126.704 11.8167 126.704 12.95C126.704 14.0833 127.029 14.9917 127.679 15.675C128.329 16.3417 129.154 16.675 130.154 16.675Z" fill="white"/>
<path d="M141.013 6.225H144.913V19.675H141.013V6.225ZM142.963 4.35C142.247 4.35 141.663 4.14167 141.213 3.725C140.763 3.30833 140.538 2.79167 140.538 2.175C140.538 1.55833 140.763 1.04167 141.213 0.625001C141.663 0.208334 142.247 0 142.963 0C143.68 0 144.263 0.2 144.713 0.600001C145.163 1 145.388 1.5 145.388 2.1C145.388 2.75 145.163 3.29167 144.713 3.725C144.263 4.14167 143.68 4.35 142.963 4.35Z" fill="white"/>
<path d="M156.708 6.025C158.375 6.025 159.716 6.525 160.733 7.525C161.766 8.525 162.283 10.0083 162.283 11.975V19.675H158.383V12.575C158.383 11.5083 158.15 10.7167 157.683 10.2C157.216 9.66667 156.541 9.4 155.658 9.4C154.675 9.4 153.891 9.70833 153.308 10.325C152.725 10.925 152.433 11.825 152.433 13.025V19.675H148.533V6.225H152.258V7.8C152.775 7.23334 153.416 6.8 154.183 6.5C154.95 6.18333 155.791 6.025 156.708 6.025Z" fill="white"/>
<path d="M179.84 6.225V17.425C179.84 19.8917 179.198 21.725 177.915 22.925C176.631 24.125 174.756 24.725 172.29 24.725C170.99 24.725 169.756 24.5667 168.59 24.25C167.423 23.9333 166.456 23.475 165.689 22.875L167.24 20.075C167.806 20.5417 168.523 20.9083 169.39 21.175C170.256 21.4583 171.123 21.6 171.99 21.6C173.34 21.6 174.331 21.2917 174.965 20.675C175.615 20.075 175.939 19.1583 175.939 17.925V17.35C174.923 18.4667 173.506 19.025 171.689 19.025C170.456 19.025 169.323 18.7583 168.29 18.225C167.273 17.675 166.465 16.9083 165.865 15.925C165.265 14.9417 164.965 13.8083 164.965 12.525C164.965 11.2417 165.265 10.1083 165.865 9.125C166.465 8.14167 167.273 7.38333 168.29 6.85C169.323 6.3 170.456 6.025 171.689 6.025C173.639 6.025 175.123 6.66667 176.14 7.95V6.225H179.84ZM172.465 15.825C173.498 15.825 174.34 15.525 174.99 14.925C175.656 14.3083 175.99 13.5083 175.99 12.525C175.99 11.5417 175.656 10.75 174.99 10.15C174.34 9.53333 173.498 9.225 172.465 9.225C171.431 9.225 170.581 9.53333 169.915 10.15C169.248 10.75 168.915 11.5417 168.915 12.525C168.915 13.5083 169.248 14.3083 169.915 14.925C170.581 15.525 171.431 15.825 172.465 15.825Z" fill="white"/>
</svg>
