<svg width="126" height="18" viewBox="0 0 126 18" fill="none" xmlns="http://www.w3.org/2000/svg">
<path d="M51.5742 7.45428C52.2791 7.6775 52.8312 8.05344 53.2307 8.58211C53.6301 9.09904 53.8298 9.73932 53.8298 10.503C53.8298 11.5838 53.4069 12.4179 52.561 13.0053C51.7269 13.581 50.5051 13.8688 48.8955 13.8688H42.5162V1.53315H48.5431C50.0469 1.53315 51.1982 1.82098 51.9971 2.39665C52.8077 2.97231 53.213 3.75357 53.213 4.74043C53.213 5.33959 53.0662 5.87414 52.7725 6.34407C52.4905 6.814 52.0911 7.18407 51.5742 7.45428ZM45.3534 3.68308V6.59078H48.1907C48.8955 6.59078 49.4301 6.46742 49.7943 6.22071C50.1585 5.974 50.3406 5.6098 50.3406 5.12812C50.3406 4.64644 50.1585 4.28812 49.7943 4.05315C49.4301 3.80644 48.8955 3.68308 48.1907 3.68308H45.3534ZM48.6841 11.7189C49.436 11.7189 49.9999 11.5955 50.3758 11.3488C50.7635 11.1021 50.9574 10.7203 50.9574 10.2034C50.9574 9.18127 50.1996 8.67023 48.6841 8.67023H45.3534V11.7189H48.6841Z" fill="#20124D"/>
<path d="M58.4231 5.63917C58.752 5.18099 59.1926 4.83441 59.7448 4.59945C60.3087 4.36448 60.9548 4.247 61.6832 4.247V6.78463C61.3778 6.76113 61.1722 6.74938 61.0664 6.74938C60.2793 6.74938 59.6625 6.9726 59.2161 7.41903C58.7697 7.85372 58.5464 8.51162 58.5464 9.39274V13.8688H55.7973V4.38798H58.4231V5.63917Z" fill="#20124D"/>
<path d="M67.0903 4.247C68.5588 4.247 69.6866 4.59945 70.4738 5.30434C71.2609 5.99749 71.6545 7.04896 71.6545 8.45876V13.8688H69.0816V12.6881C68.5647 13.5693 67.6013 14.0098 66.1915 14.0098C65.4631 14.0098 64.8287 13.8865 64.2883 13.6397C63.7596 13.393 63.3543 13.0523 63.0724 12.6176C62.7904 12.183 62.6494 11.6895 62.6494 11.1374C62.6494 10.2562 62.9784 9.56309 63.6363 9.05792C64.3059 8.55274 65.3339 8.30015 66.7202 8.30015H68.9054C68.9054 7.70099 68.7233 7.24281 68.3591 6.92561C67.9949 6.59665 67.4486 6.43218 66.7202 6.43218C66.215 6.43218 65.7157 6.51442 65.2223 6.67889C64.7406 6.83162 64.3294 7.04309 63.9887 7.3133L63.0019 5.39246C63.5188 5.02826 64.1356 4.7463 64.8522 4.54658C65.5806 4.34686 66.3266 4.247 67.0903 4.247ZM66.8788 12.1595C67.3487 12.1595 67.7658 12.0537 68.13 11.8423C68.4942 11.619 68.7527 11.296 68.9054 10.873V9.90379H67.0198C65.8919 9.90379 65.328 10.2739 65.328 11.014C65.328 11.3665 65.4631 11.6484 65.7333 11.8599C66.0153 12.0596 66.3971 12.1595 66.8788 12.1595Z" fill="#20124D"/>
<path d="M79.9051 4.247C81.0799 4.247 82.0256 4.59945 82.7423 5.30434C83.4707 6.00924 83.8349 7.05484 83.8349 8.44113V13.8688H81.0858V8.86407C81.0858 8.11218 80.9213 7.55414 80.5923 7.18994C80.2634 6.814 79.7876 6.62603 79.1649 6.62603C78.4718 6.62603 77.9196 6.84337 77.5084 7.27805C77.0972 7.70099 76.8916 8.3354 76.8916 9.18128V13.8688H74.1425V4.38798H76.7683V5.49819C77.1325 5.09875 77.5848 4.7933 78.1252 4.58183C78.6656 4.35861 79.2589 4.247 79.9051 4.247Z" fill="#20124D"/>
<path d="M96.0871 0.793009V13.8688H93.4614V12.7762C92.78 13.5986 91.7931 14.0098 90.5008 14.0098C89.6079 14.0098 88.7973 13.8101 88.0689 13.4107C87.3523 13.0112 86.7884 12.4414 86.3772 11.7013C85.966 10.9611 85.7604 10.1035 85.7604 9.12841C85.7604 8.1533 85.966 7.29568 86.3772 6.55554C86.7884 5.81539 87.3523 5.2456 88.0689 4.84616C88.7973 4.44672 89.6079 4.247 90.5008 4.247C91.7109 4.247 92.6566 4.62882 93.338 5.39246V0.793009H96.0871ZM90.9766 11.7541C91.6698 11.7541 92.2454 11.5192 92.7036 11.0492C93.1618 10.5676 93.3909 9.92729 93.3909 9.12841C93.3909 8.32952 93.1618 7.69512 92.7036 7.22519C92.2454 6.74351 91.6698 6.50267 90.9766 6.50267C90.2717 6.50267 89.6902 6.74351 89.232 7.22519C88.7738 7.69512 88.5447 8.32952 88.5447 9.12841C88.5447 9.92729 88.7738 10.5676 89.232 11.0492C89.6902 11.5192 90.2717 11.7541 90.9766 11.7541Z" fill="#20124D"/>
<path d="M98.6315 4.38798H101.381V13.8688H98.6315V4.38798ZM100.006 3.0663C99.5009 3.0663 99.0897 2.91945 98.7725 2.62574C98.4553 2.33203 98.2967 1.96784 98.2967 1.53315C98.2967 1.09846 98.4553 0.734267 98.7725 0.440561C99.0897 0.146854 99.5009 0 100.006 0C100.511 0 100.922 0.14098 101.24 0.422939C101.557 0.704897 101.715 1.05735 101.715 1.48028C101.715 1.93847 101.557 2.32028 101.24 2.62574C100.922 2.91945 100.511 3.0663 100.006 3.0663Z" fill="#20124D"/>
<path d="M109.695 4.247C110.869 4.247 111.815 4.59945 112.532 5.30434C113.26 6.00924 113.624 7.05484 113.624 8.44113V13.8688H110.875V8.86407C110.875 8.11218 110.711 7.55414 110.382 7.18994C110.053 6.814 109.577 6.62603 108.954 6.62603C108.261 6.62603 107.709 6.84337 107.298 7.27805C106.887 7.70099 106.681 8.3354 106.681 9.18128V13.8688H103.932V4.38798H106.558V5.49819C106.922 5.09875 107.374 4.7933 107.915 4.58183C108.455 4.35861 109.048 4.247 109.695 4.247Z" fill="#20124D"/>
<path d="M126 4.38798V12.2828C126 14.0216 125.548 15.3139 124.643 16.1597C123.738 17.0056 122.417 17.4286 120.678 17.4286C119.762 17.4286 118.892 17.317 118.07 17.0937C117.247 16.8705 116.566 16.5474 116.026 16.1245L117.118 14.1508C117.518 14.4797 118.023 14.7382 118.634 14.9262C119.245 15.1259 119.856 15.2258 120.466 15.2258C121.418 15.2258 122.117 15.0084 122.564 14.5737C123.022 14.1508 123.251 13.5046 123.251 12.6353V12.23C122.534 13.0171 121.536 13.4107 120.255 13.4107C119.386 13.4107 118.587 13.2227 117.858 12.8467C117.142 12.459 116.572 11.9186 116.149 11.2255C115.726 10.5323 115.515 9.73344 115.515 8.82883C115.515 7.92421 115.726 7.12533 116.149 6.43218C116.572 5.73903 117.142 5.20448 117.858 4.82854C118.587 4.44085 119.386 4.247 120.255 4.247C121.63 4.247 122.675 4.69931 123.392 5.60393V4.38798H126ZM120.801 11.155C121.53 11.155 122.123 10.9435 122.581 10.5206C123.051 10.0859 123.286 9.52197 123.286 8.82883C123.286 8.13568 123.051 7.57764 122.581 7.1547C122.123 6.72001 121.53 6.50267 120.801 6.50267C120.073 6.50267 119.474 6.72001 119.004 7.1547C118.534 7.57764 118.299 8.13568 118.299 8.82883C118.299 9.52197 118.534 10.0859 119.004 10.5206C119.474 10.9435 120.073 11.155 120.801 11.155Z" fill="#20124D"/>
<path d="M9.55135 11.5779V13.8688H0V1.53314H9.32226V3.82406H2.83721V6.50266H8.56449V8.72309H2.83721V11.5779H9.55135Z" fill="#FCC010"/>
<path d="M15.3842 4.24699C16.8528 4.24699 17.9806 4.59944 18.7677 5.30434C19.5549 5.99749 19.9484 7.04896 19.9484 8.45875V13.8688H17.3756V12.6881C16.8586 13.5692 15.8953 14.0098 14.4855 14.0098C13.7571 14.0098 13.1227 13.8865 12.5823 13.6397C12.0536 13.393 11.6483 13.0523 11.3663 12.6176C11.0844 12.183 10.9434 11.6895 10.9434 11.1374C10.9434 10.2562 11.2723 9.56309 11.9302 9.05791C12.5999 8.55274 13.6279 8.30015 15.0142 8.30015H17.1993C17.1993 7.70099 17.0172 7.2428 16.653 6.9256C16.2888 6.59665 15.7425 6.43217 15.0142 6.43217C14.509 6.43217 14.0097 6.51441 13.5163 6.67889C13.0346 6.83161 12.6234 7.04308 12.2827 7.31329L11.2958 5.39245C11.8128 5.02825 12.4295 4.7463 13.1462 4.54657C13.8746 4.34685 14.6206 4.24699 15.3842 4.24699ZM15.1728 12.1595C15.6427 12.1595 16.0598 12.0537 16.4239 11.8423C16.7881 11.619 17.0466 11.296 17.1993 10.873V9.90379H15.3137C14.1859 9.90379 13.622 10.2739 13.622 11.014C13.622 11.3664 13.7571 11.6484 14.0273 11.8599C14.3093 12.0596 14.6911 12.1595 15.1728 12.1595Z" fill="#FCC010"/>
<path d="M25.6262 14.0098C24.839 14.0098 24.0695 13.9158 23.3176 13.7279C22.5657 13.5281 21.9666 13.2814 21.5201 12.9877L22.4365 11.014C22.8594 11.2842 23.3705 11.5074 23.9696 11.6837C24.5688 11.8481 25.1562 11.9304 25.7319 11.9304C26.895 11.9304 27.4765 11.6425 27.4765 11.0669C27.4765 10.7967 27.3179 10.6028 27.0007 10.4853C26.6835 10.3678 26.1959 10.268 25.538 10.1857C24.7627 10.0683 24.1224 9.93316 23.6172 9.78043C23.112 9.6277 22.6715 9.35749 22.2955 8.9698C21.9313 8.58211 21.7492 8.02994 21.7492 7.31329C21.7492 6.71413 21.9196 6.18546 22.2603 5.72728C22.6127 5.25734 23.1179 4.89315 23.7758 4.63469C24.4454 4.37622 25.2326 4.24699 26.1372 4.24699C26.8069 4.24699 27.4706 4.32336 28.1285 4.47608C28.7982 4.61706 29.3504 4.81679 29.785 5.07525L28.8687 7.03133C28.0345 6.5614 27.1241 6.32644 26.1372 6.32644C25.5498 6.32644 25.1092 6.40868 24.8155 6.57315C24.5218 6.73763 24.375 6.9491 24.375 7.20756C24.375 7.50127 24.5336 7.70686 24.8508 7.82434C25.168 7.94183 25.6731 8.05343 26.3663 8.15917C27.1417 8.2884 27.7761 8.42938 28.2695 8.58211C28.7629 8.72309 29.1918 8.98742 29.5559 9.37511C29.9201 9.76281 30.1022 10.3032 30.1022 10.9964C30.1022 11.5838 29.926 12.1066 29.5736 12.5648C29.2211 13.023 28.7042 13.3813 28.0228 13.6397C27.3531 13.8865 26.5543 14.0098 25.6262 14.0098Z" fill="#FCC010"/>
<path d="M41.0367 4.38797L36.7544 14.4504C36.3197 15.543 35.7793 16.3125 35.1332 16.7589C34.4988 17.2053 33.7292 17.4286 32.8246 17.4286C32.3312 17.4286 31.8436 17.3522 31.362 17.1995C30.8803 17.0467 30.4867 16.8353 30.1813 16.5651L31.1857 14.609C31.3972 14.7969 31.6381 14.9438 31.9083 15.0495C32.1902 15.1553 32.4663 15.2081 32.7365 15.2081C33.1125 15.2081 33.4179 15.1141 33.6529 14.9262C33.8878 14.75 34.0993 14.4504 34.2873 14.0274L34.3225 13.9393L30.2165 4.38797H33.0537L35.7147 10.8202L38.3933 4.38797H41.0367Z" fill="#FCC010"/>
</svg>
