<svg width="231" height="219" viewBox="0 0 231 219" fill="none" xmlns="http://www.w3.org/2000/svg">
<g clip-path="url(#clip0)">
<path d="M17.9788 20.0583C23.2416 20.0583 27.508 15.7919 27.508 10.5291C27.508 5.26634 23.2416 1 17.9788 1C12.716 1 8.44971 5.26634 8.44971 10.5291C8.44971 15.7919 12.716 20.0583 17.9788 20.0583Z" fill="#FFD15C"/>
<path d="M10.2592 16.104L6.98047 21.7875L10.8072 21.5843L12.5458 25.0001L15.5789 19.7418C13.4057 19.1796 11.5395 17.8709 10.2592 16.104Z" fill="#FF6B6C"/>
<path d="M25.7176 16.0757C24.4468 17.8473 22.5806 19.1607 20.4121 19.7324L23.4546 25.0001L25.1932 21.5843L29.02 21.7875L25.7176 16.0757Z" fill="#FF6B6C"/>
<path d="M17.9789 17.4362C21.7935 17.4362 24.886 14.3438 24.886 10.5292C24.886 6.71448 21.7935 3.62207 17.9789 3.62207C14.1642 3.62207 11.0718 6.71448 11.0718 10.5292C11.0718 14.3438 14.1642 17.4362 17.9789 17.4362Z" fill="#F8B64C"/>
<path d="M23.2342 10.2268C23.1387 10.0972 20.8625 7.05298 17.9555 7.05298C15.0484 7.05298 12.7722 10.0972 12.6767 10.2267C12.5863 10.3497 12.5863 10.5164 12.6767 10.6394C12.7722 10.769 15.0484 13.8132 17.9555 13.8132C20.8625 13.8132 23.1387 10.769 23.2342 10.6395C23.3248 10.5166 23.3248 10.3497 23.2342 10.2268ZM17.9555 13.1139C15.8141 13.1139 13.9595 11.0934 13.4105 10.4329C13.9588 9.77176 15.8095 7.75231 17.9555 7.75231C20.0967 7.75231 21.9512 9.77246 22.5005 10.4333C21.9522 11.0944 20.1014 13.1139 17.9555 13.1139Z" fill="white"/>
<path d="M17.9555 8.33521C16.7892 8.33521 15.8403 9.2764 15.8403 10.4332C15.8403 11.5901 16.7892 12.5312 17.9555 12.5312C19.1218 12.5312 20.0707 11.5901 20.0707 10.4332C20.0707 9.2764 19.1218 8.33521 17.9555 8.33521ZM17.9555 11.8319C17.1779 11.8319 16.5454 11.2045 16.5454 10.4332C16.5454 9.66199 17.178 9.03456 17.9555 9.03456C18.733 9.03456 19.3656 9.66199 19.3656 10.4332C19.3656 11.2045 18.7331 11.8319 17.9555 11.8319Z" fill="white"/>
</g>
<g clip-path="url(#clip1)">
<path d="M17.9788 56.0583C23.2416 56.0583 27.508 51.7919 27.508 46.5291C27.508 41.2663 23.2416 37 17.9788 37C12.716 37 8.44971 41.2663 8.44971 46.5291C8.44971 51.7919 12.716 56.0583 17.9788 56.0583Z" fill="#FFD15C"/>
<path d="M10.2592 52.104L6.98047 57.7875L10.8072 57.5843L12.5458 61.0001L15.5789 55.7418C13.4057 55.1796 11.5395 53.8709 10.2592 52.104Z" fill="#5975FF"/>
<path d="M25.7176 52.0757C24.4468 53.8473 22.5806 55.1607 20.4121 55.7324L23.4546 61.0001L25.1932 57.5843L29.02 57.7875L25.7176 52.0757Z" fill="#5975FF"/>
<path d="M17.9789 53.4362C21.7935 53.4362 24.886 50.3438 24.886 46.5292C24.886 42.7145 21.7935 39.6221 17.9789 39.6221C14.1642 39.6221 11.0718 42.7145 11.0718 46.5292C11.0718 50.3438 14.1642 53.4362 17.9789 53.4362Z" fill="#F8B64C"/>
<path d="M21.4883 42.6637C21.4883 41.7917 20.7731 41.0823 19.894 41.0823H18.4215C17.9073 42.1024 17.7658 42.3789 16.5651 43.1524C16.1211 43.4384 15.6179 43.7626 15.1077 44.2818C14.5334 44.866 14.3235 45.7081 14.5845 46.5308C14.8715 47.4356 15.7239 48.0403 16.7095 48.0402H16.728C17.3975 48.035 17.7777 47.804 18.0831 47.6183C18.3044 47.4839 18.4384 47.4077 18.6186 47.4077C18.7857 47.4077 18.8489 47.4671 18.9885 47.6134C19.1578 47.7908 19.3896 48.0338 19.8747 48.0401C19.8814 48.0402 19.8882 48.0403 19.895 48.0403C20.637 48.0403 21.305 47.5069 21.4536 46.7923C21.4801 46.6653 21.491 46.5377 21.4871 46.4118H21.4883V42.6637ZM20.8291 46.6645C20.7412 47.087 20.326 47.4134 19.8831 47.4077C19.6675 47.4049 19.5909 47.3245 19.4516 47.1785C19.2892 47.0084 19.0668 46.7752 18.6186 46.7752C18.2498 46.7752 17.9956 46.9296 17.7499 47.079C17.475 47.2461 17.2154 47.4039 16.7231 47.4077C16.7185 47.4077 16.7141 47.4077 16.7096 47.4077C16.0042 47.4077 15.3956 46.9804 15.1929 46.341C15.0069 45.7546 15.1466 45.1483 15.5643 44.7233C16.0249 44.2546 16.4761 43.9639 16.9125 43.6829C17.8202 43.0981 18.3069 42.7238 18.8157 41.7148H19.894C20.4215 41.7148 20.8506 42.1405 20.8506 42.6636V45.1934C20.5776 44.9898 20.2439 44.8776 19.894 44.8776C19.4682 44.8776 19.0679 45.042 18.7667 45.3407L19.2177 45.788C19.3983 45.6088 19.6385 45.5101 19.894 45.5101C20.4817 45.5101 20.959 46.0396 20.8291 46.6645Z" fill="white"/>
<path d="M16.5797 48.8328L16.226 49.3591C16.3526 49.4429 16.4252 49.5775 16.4252 49.7285C16.4252 49.8795 16.3526 50.0141 16.226 50.0979C15.9233 50.298 15.7427 50.6328 15.7427 50.9936C15.7427 51.3544 15.9233 51.6892 16.226 51.8893L16.5797 51.363C16.4531 51.2792 16.3803 51.1446 16.3803 50.9936C16.3803 50.8426 16.4531 50.7079 16.5797 50.6242C16.8823 50.4241 17.063 50.0892 17.063 49.7285C17.063 49.3678 16.8823 49.0329 16.5797 48.8328Z" fill="white"/>
<path d="M18.174 48.8328L17.8202 49.3591C17.9469 49.4429 18.0195 49.5775 18.0195 49.7285C18.0195 49.8795 17.9469 50.0141 17.8202 50.0979C17.5176 50.298 17.3369 50.6328 17.3369 50.9936C17.3369 51.3544 17.5176 51.6892 17.8202 51.8893L18.174 51.363C18.0473 51.2792 17.9747 51.1446 17.9747 50.9936C17.9747 50.8426 18.0473 50.7079 18.174 50.6242C18.4766 50.4241 18.6573 50.0892 18.6573 49.7285C18.6573 49.3678 18.4766 49.0329 18.174 48.8328Z" fill="white"/>
<path d="M19.7682 48.8328L19.4144 49.3591C19.5411 49.4429 19.6137 49.5775 19.6137 49.7285C19.6137 49.8795 19.5411 50.0141 19.4144 50.0979C19.1118 50.298 18.9312 50.6328 18.9312 50.9936C18.9312 51.3544 19.1118 51.6892 19.4144 51.8893L19.7682 51.363C19.6416 51.2792 19.5688 51.1446 19.5688 50.9936C19.5688 50.8426 19.6416 50.7079 19.7682 50.6242C20.0708 50.4241 20.2514 50.0892 20.2514 49.7285C20.2514 49.3678 20.0708 49.0329 19.7682 48.8328Z" fill="white"/>
</g>
<g clip-path="url(#clip2)">
<path d="M17.9788 92.0583C23.2416 92.0583 27.508 87.7919 27.508 82.5291C27.508 77.2663 23.2416 73 17.9788 73C12.716 73 8.44971 77.2663 8.44971 82.5291C8.44971 87.7919 12.716 92.0583 17.9788 92.0583Z" fill="#FFD15C"/>
<path d="M10.2592 88.104L6.98047 93.7875L10.8072 93.5843L12.5458 97.0001L15.5789 91.7418C13.4057 91.1796 11.5395 89.8709 10.2592 88.104Z" fill="#2FDDD0"/>
<path d="M25.7176 88.0757C24.4468 89.8473 22.5806 91.1607 20.4121 91.7324L23.4546 97.0001L25.1932 93.5843L29.02 93.7875L25.7176 88.0757Z" fill="#2FDDD0"/>
<path d="M17.9789 89.4362C21.7935 89.4362 24.886 86.3438 24.886 82.5292C24.886 78.7145 21.7935 75.6221 17.9789 75.6221C14.1642 75.6221 11.0718 78.7145 11.0718 82.5292C11.0718 86.3438 14.1642 89.4362 17.9789 89.4362Z" fill="#F8B64C"/>
<path d="M19.4537 82.781C19.5123 82.8555 19.5997 82.8944 19.688 82.8944C19.7519 82.8944 19.8162 82.8741 19.8704 82.8322C20.3814 82.4368 20.6746 81.8417 20.6746 81.1996C20.6746 80.0584 19.7386 79.1301 18.5883 79.1301C17.4378 79.1301 16.502 80.0584 16.502 81.1996V81.7205C16.502 81.8832 16.6349 82.015 16.7988 82.015C16.9325 82.015 17.0455 81.9274 17.0827 81.8069C17.0912 81.7796 17.0957 81.7506 17.0957 81.7205V81.1996C17.0957 80.3832 17.7653 79.7191 18.5883 79.7191C19.4113 79.7191 20.0808 80.3832 20.0808 81.1996C20.0808 81.2234 20.0801 81.2472 20.079 81.2709H19.559C18.9702 81.2709 18.4693 81.6497 18.29 82.1744C18.2443 82.3082 18.2191 82.4511 18.2191 82.6C18.2191 83.3328 18.8202 83.929 19.559 83.929C19.723 83.929 19.8559 83.7971 19.8559 83.6345C19.8559 83.4719 19.723 83.34 19.559 83.34C19.1477 83.34 18.8129 83.008 18.8129 82.6C18.8129 82.5112 18.8287 82.4261 18.8577 82.3473C18.9621 82.0632 19.237 81.8598 19.559 81.8598H19.9251C19.827 82.055 19.685 82.2286 19.5052 82.3677C19.4553 82.4064 19.4214 82.4578 19.4042 82.5136C19.3768 82.6023 19.3918 82.7023 19.4537 82.781Z" fill="white"/>
<path d="M18.5883 77.4651C16.4664 77.4651 14.7402 79.1773 14.7402 81.2819C14.7402 82.68 15.5125 83.9598 16.7331 84.6265C16.6068 84.894 16.541 85.1861 16.541 85.4861C16.541 86.6058 17.4594 87.5168 18.5883 87.5168C19.7171 87.5168 20.6356 86.6058 20.6356 85.4861C20.6356 85.3235 20.5026 85.1916 20.3387 85.1916C20.1747 85.1916 20.0418 85.3235 20.0418 85.4861C20.0418 86.2811 19.3897 86.9278 18.5883 86.9278C17.7868 86.9278 17.1347 86.2811 17.1347 85.4861C17.1347 85.1926 17.2234 84.91 17.391 84.6689C17.4411 84.5969 17.4563 84.5063 17.4324 84.422C17.4084 84.3377 17.3479 84.2683 17.2673 84.2327C16.0929 83.7146 15.3339 82.5563 15.3339 81.2819C15.334 79.5021 16.7939 78.0541 18.5883 78.0541C20.3827 78.0541 21.8425 79.5021 21.8425 81.2819C21.8425 81.4446 21.9755 81.5764 22.1394 81.5764C22.3034 81.5764 22.4363 81.4446 22.4363 81.2819C22.4363 79.1773 20.7101 77.4651 18.5883 77.4651Z" fill="white"/>
<path d="M15.6164 85.0929C14.8775 85.0929 14.2764 84.4966 14.2764 83.7637C14.2764 83.6011 14.1435 83.4692 13.9795 83.4692C13.8156 83.4692 13.6826 83.6011 13.6826 83.7637C13.6826 84.8213 14.5502 85.6818 15.6164 85.6818C15.7804 85.6818 15.9133 85.5499 15.9133 85.3874C15.9133 85.2247 15.7804 85.0929 15.6164 85.0929Z" fill="white"/>
<path d="M15.4535 86.2081C14.1844 86.2081 13.1519 85.1839 13.1519 83.9251C13.1519 83.7624 13.019 83.6306 12.855 83.6306C12.691 83.6306 12.5581 83.7624 12.5581 83.9251C12.5581 85.5087 13.857 86.7971 15.4535 86.7971C15.6175 86.7971 15.7504 86.6652 15.7504 86.5026C15.7504 86.3399 15.6175 86.2081 15.4535 86.2081Z" fill="white"/>
</g>
<g clip-path="url(#clip3)">
<path d="M17.9788 128.058C23.2416 128.058 27.508 123.792 27.508 118.529C27.508 113.266 23.2416 109 17.9788 109C12.716 109 8.44971 113.266 8.44971 118.529C8.44971 123.792 12.716 128.058 17.9788 128.058Z" fill="#FFD15C"/>
<path d="M10.2592 124.104L6.98047 129.787L10.8072 129.584L12.5458 133L15.5789 127.742C13.4057 127.18 11.5395 125.871 10.2592 124.104Z" fill="#C32985"/>
<path d="M25.7176 124.076C24.4468 125.847 22.5806 127.161 20.4121 127.732L23.4546 133L25.1932 129.584L29.02 129.787L25.7176 124.076Z" fill="#C32985"/>
<path d="M17.9789 125.436C21.7935 125.436 24.886 122.344 24.886 118.529C24.886 114.714 21.7935 111.622 17.9789 111.622C14.1642 111.622 11.0718 114.714 11.0718 118.529C11.0718 122.344 14.1642 125.436 17.9789 125.436Z" fill="#F8B64C"/>
<path d="M22.8445 117.115C22.7961 117.032 22.7096 116.979 22.6147 116.973C22.4742 116.959 22.0976 116.797 21.6684 116.279C21.5639 116.153 21.457 116.013 21.3439 115.866C20.883 115.264 20.3605 114.582 19.6469 114.354C19.23 114.221 18.7743 114.347 18.364 114.711C18.2719 114.793 18.1391 114.84 17.9999 114.84C17.8607 114.84 17.7279 114.793 17.6358 114.711C17.2255 114.347 16.7699 114.221 16.353 114.354C15.6393 114.582 15.1169 115.264 14.656 115.866C14.5428 116.013 14.4359 116.153 14.3315 116.279C13.9021 116.797 13.5255 116.959 13.3851 116.973C13.2986 116.979 13.2189 117.023 13.1687 117.094C13.1172 117.167 13.1026 117.259 13.1292 117.344C13.1307 117.349 13.289 117.838 13.6754 118.461C14.0069 118.994 14.5743 119.726 15.4245 120.259V121.494C15.4245 122.914 16.5798 124.07 17.9999 124.07C19.4201 124.07 20.5753 122.914 20.5753 121.494V120.259C22.2239 119.228 22.8358 117.449 22.8686 117.351C22.8948 117.273 22.8867 117.187 22.8445 117.115ZM13.3855 116.973C13.3895 116.973 13.3916 116.973 13.3917 116.973C13.3896 116.973 13.3876 116.973 13.3855 116.973ZM15.5839 117.534C16.0007 117.21 16.785 116.678 17.125 116.601C17.2735 116.567 17.4184 116.631 17.5138 116.692C17.6467 116.776 17.8194 116.822 17.9999 116.822C18.1805 116.822 18.3532 116.776 18.486 116.692C18.5814 116.631 18.7263 116.567 18.8748 116.601C19.2148 116.678 19.9991 117.21 20.4159 117.534C20.3696 117.627 20.3022 117.749 20.2114 117.883C19.5144 117.527 18.6867 117.541 17.9999 117.925C17.3131 117.541 16.4854 117.527 15.7884 117.883C15.6975 117.749 15.6301 117.627 15.5839 117.534ZM20.003 121.494C20.003 122.599 19.1044 123.497 17.9999 123.497C16.8954 123.497 15.9968 122.599 15.9968 121.494V118.42C16.5319 118.124 17.1787 118.125 17.7138 118.421V121.494C17.7138 121.652 17.8419 121.78 17.9999 121.78C18.1579 121.78 18.2861 121.652 18.2861 121.494V118.421C18.8212 118.125 19.4679 118.124 20.003 118.42V121.494ZM20.5753 119.565V118.358C20.8961 117.934 21.0299 117.562 21.0358 117.545C21.0753 117.434 21.0422 117.31 20.9526 117.233C20.7024 117.018 19.5787 116.174 19.0019 116.043C18.7366 115.982 18.4447 116.041 18.1803 116.208C18.1485 116.228 18.0842 116.25 17.9999 116.25C17.9156 116.25 17.8514 116.228 17.8194 116.208C17.5551 116.041 17.2633 115.982 16.9979 116.043C16.4211 116.174 15.2974 117.018 15.0472 117.233C14.9576 117.31 14.9245 117.434 14.964 117.545C14.9699 117.562 15.1037 117.934 15.4245 118.358V119.565C14.8348 119.121 14.4232 118.578 14.1668 118.167C13.9876 117.88 13.8627 117.625 13.7835 117.445C14.0327 117.337 14.3844 117.112 14.772 116.644C14.8835 116.51 14.9937 116.366 15.1103 116.214C15.5201 115.679 15.9845 115.073 16.5273 114.899C16.8052 114.81 17.0769 114.981 17.256 115.14C17.4543 115.316 17.7185 115.412 17.9999 115.412C18.2812 115.412 18.5454 115.316 18.7437 115.14C18.9228 114.981 19.1946 114.81 19.4724 114.899C20.0153 115.073 20.4797 115.679 20.8895 116.214C21.0061 116.366 21.1163 116.51 21.2278 116.644C21.6148 117.111 21.966 117.336 22.2152 117.444C22.0097 117.909 21.5024 118.867 20.5753 119.565ZM22.6082 116.973C22.6083 116.973 22.6103 116.973 22.6143 116.973C22.6123 116.973 22.6102 116.973 22.6082 116.973Z" fill="white"/>
</g>
<g clip-path="url(#clip4)">
<path d="M17.9788 164.058C23.2416 164.058 27.508 159.792 27.508 154.529C27.508 149.266 23.2416 145 17.9788 145C12.716 145 8.44971 149.266 8.44971 154.529C8.44971 159.792 12.716 164.058 17.9788 164.058Z" fill="#FFD15C"/>
<path d="M10.2592 160.104L6.98047 165.787L10.8072 165.584L12.5458 169L15.5789 163.742C13.4057 163.18 11.5395 161.871 10.2592 160.104Z" fill="#7A76FF"/>
<path d="M25.7176 160.076C24.4468 161.847 22.5806 163.161 20.4121 163.732L23.4546 169L25.1932 165.584L29.02 165.787L25.7176 160.076Z" fill="#7A76FF"/>
<path d="M17.9789 161.436C21.7935 161.436 24.886 158.344 24.886 154.529C24.886 150.714 21.7935 147.622 17.9789 147.622C14.1642 147.622 11.0718 150.714 11.0718 154.529C11.0718 158.344 14.1642 161.436 17.9789 161.436Z" fill="#F8B64C"/>
<path d="M22.5046 153.941L20.8935 152.185C20.5846 151.878 20.0482 151.876 19.7338 152.188C19.6323 152.289 19.5629 152.41 19.5269 152.539C19.2142 152.301 18.737 152.327 18.4487 152.613C18.3471 152.714 18.2777 152.835 18.2409 152.963C17.929 152.726 17.4514 152.753 17.1635 153.038C17.0637 153.137 16.9951 153.255 16.9579 153.381L16.1988 152.628C15.8796 152.312 15.3612 152.311 15.0387 152.63C14.7195 152.946 14.7195 153.461 15.0387 153.778L17.9551 156.671L16.2262 156.94C15.7584 157.007 15.4058 157.409 15.4058 157.878C15.4058 158.229 15.6941 158.515 16.0484 158.515H20.0877C20.7165 158.515 21.3081 158.272 21.7545 157.83L22.4279 157.162C22.8726 156.721 23.1172 156.135 23.1172 155.512C23.1172 154.93 22.8996 154.372 22.5046 153.941ZM22.1246 156.862L21.4512 157.53C21.0867 157.892 20.6021 158.091 20.0877 158.091H16.0484C15.9306 158.091 15.8342 157.995 15.8342 157.878C15.8342 157.62 16.0287 157.397 16.2891 157.36L18.4375 157.025C18.5172 157.013 18.5827 156.957 18.608 156.881C18.6329 156.806 18.6127 156.722 18.5557 156.665L15.3415 153.477C15.1899 153.326 15.1899 153.081 15.3441 152.928C15.4204 152.853 15.5202 152.815 15.62 152.815C15.7198 152.815 15.8196 152.853 15.8959 152.928L17.1536 154.176C17.1566 154.179 17.1605 154.183 17.1639 154.186L18.0395 155.054C18.1231 155.137 18.2589 155.137 18.3424 155.054C18.4259 154.971 18.4259 154.837 18.3424 154.754L17.4595 153.878C17.3151 153.727 17.3177 153.487 17.4694 153.336C17.6167 153.19 17.8729 153.19 18.0203 153.336L18.4414 153.754C18.444 153.756 18.4461 153.759 18.4487 153.761L18.8959 154.204C18.9794 154.287 19.1153 154.287 19.1988 154.204C19.2823 154.121 19.2823 153.987 19.1988 153.904L18.7464 153.456C18.6003 153.304 18.602 153.063 18.7545 152.911C18.9015 152.765 19.1581 152.765 19.3055 152.911L19.7527 153.356C19.7531 153.357 19.7531 153.357 19.7536 153.357L19.754 153.357C19.7575 153.359 19.7566 153.359 19.7557 153.358C19.7557 153.358 19.7557 153.359 19.7561 153.359C19.7565 153.359 19.7565 153.359 19.7565 153.359C19.7569 153.36 19.7569 153.36 19.7569 153.36H19.7574C19.7578 153.36 19.7578 153.36 19.7578 153.36C19.8426 153.438 19.9746 153.436 20.056 153.354C20.1391 153.271 20.1391 153.137 20.0555 153.054L20.0298 153.029C19.885 152.877 19.8872 152.637 20.0392 152.486C20.1866 152.341 20.4496 152.347 20.5833 152.479L22.1872 154.227C22.5106 154.58 22.6884 155.036 22.6884 155.512C22.6884 156.022 22.4879 156.501 22.1246 156.862Z" fill="white"/>
<path d="M19.7555 153.358H19.756C19.7554 153.358 19.7549 153.358 19.7549 153.358C19.7555 153.358 19.756 153.358 19.7555 153.358Z" fill="white"/>
<path d="M17.3752 152.419C17.0629 151.735 16.3745 151.292 15.6201 151.292C14.5573 151.292 13.6924 152.15 13.6924 153.204C13.6924 153.952 14.1388 154.635 14.8289 154.945C14.8576 154.958 14.8876 154.963 14.9171 154.963C14.999 154.963 15.0765 154.917 15.1125 154.839C15.1609 154.731 15.1133 154.606 15.0054 154.557C14.4682 154.316 14.1208 153.785 14.1208 153.204C14.1208 152.384 14.7933 151.717 15.6201 151.717C16.2062 151.717 16.7417 152.061 16.9846 152.594C17.0334 152.701 17.1598 152.749 17.2682 152.7C17.3757 152.652 17.4236 152.526 17.3752 152.419Z" fill="white"/>
<path d="M18.3086 152.494C17.9851 151.286 16.8795 150.442 15.6205 150.442C14.0851 150.442 12.8359 151.681 12.8359 153.204C12.8359 154.453 13.6867 155.549 14.905 155.87C14.9235 155.875 14.9419 155.877 14.9599 155.877C15.055 155.877 15.1415 155.815 15.1668 155.72C15.1972 155.606 15.1295 155.49 15.0147 155.46C13.9844 155.188 13.2643 154.261 13.2643 153.204C13.2643 151.915 14.3216 150.867 15.6205 150.867C16.6854 150.867 17.621 151.581 17.8948 152.603C17.9247 152.716 18.0383 152.784 18.1569 152.754C18.2709 152.724 18.3386 152.607 18.3086 152.494Z" fill="white"/>
</g>
<path d="M33.305 189.899C33.3342 189.936 33.3777 189.955 33.4217 189.955C33.4535 189.955 33.4855 189.945 33.5125 189.924C33.7669 189.727 33.9129 189.431 33.9129 189.111C33.9129 188.543 33.4469 188.081 32.8742 188.081C32.3014 188.081 31.8354 188.543 31.8354 189.111V189.371C31.8354 189.452 31.9017 189.517 31.9833 189.517C32.0498 189.517 32.1061 189.474 32.1246 189.414C32.1288 189.4 32.1311 189.386 32.1311 189.371V189.111C32.1311 188.705 32.4644 188.374 32.8742 188.374C33.2839 188.374 33.6173 188.705 33.6173 189.111C33.6173 189.123 33.6169 189.135 33.6163 189.147H33.3575C33.0643 189.147 32.8149 189.335 32.7257 189.597C32.7029 189.663 32.6904 189.734 32.6904 189.809C32.6904 190.173 32.9896 190.47 33.3575 190.47C33.4391 190.47 33.5053 190.405 33.5053 190.324C33.5053 190.243 33.4391 190.177 33.3575 190.177C33.1527 190.177 32.986 190.012 32.986 189.809C32.986 189.764 32.9939 189.722 33.0083 189.683C33.0603 189.541 33.1972 189.44 33.3575 189.44H33.5397C33.4909 189.537 33.4202 189.624 33.3307 189.693C33.3058 189.712 33.289 189.738 33.2804 189.766C33.2667 189.81 33.2742 189.86 33.305 189.899Z" fill="#2FDDD0"/>
<path d="M32.8743 187.252C31.8179 187.252 30.9585 188.105 30.9585 189.152C30.9585 189.849 31.343 190.486 31.9507 190.818C31.8878 190.951 31.855 191.096 31.855 191.246C31.855 191.803 32.3123 192.257 32.8743 192.257C33.4363 192.257 33.8936 191.803 33.8936 191.246C33.8936 191.165 33.8274 191.099 33.7458 191.099C33.6641 191.099 33.598 191.165 33.598 191.246C33.598 191.641 33.2733 191.963 32.8743 191.963C32.4753 191.963 32.1506 191.641 32.1506 191.246C32.1506 191.099 32.1948 190.959 32.2782 190.839C32.3032 190.803 32.3107 190.758 32.2988 190.716C32.2869 190.674 32.2568 190.639 32.2166 190.622C31.6319 190.364 31.2541 189.787 31.2541 189.152C31.2541 188.266 31.9809 187.545 32.8743 187.545C33.7677 187.545 34.4945 188.266 34.4945 189.152C34.4945 189.233 34.5607 189.299 34.6423 189.299C34.7239 189.299 34.7901 189.233 34.7901 189.152C34.7901 188.105 33.9307 187.252 32.8743 187.252Z" fill="#2FDDD0"/>
<path d="M31.3944 191.05C31.0265 191.05 30.7273 190.753 30.7273 190.388C30.7273 190.307 30.6611 190.241 30.5795 190.241C30.4978 190.241 30.4316 190.307 30.4316 190.388C30.4316 190.915 30.8636 191.343 31.3944 191.343C31.4761 191.343 31.5422 191.277 31.5422 191.196C31.5422 191.115 31.4761 191.05 31.3944 191.05Z" fill="#2FDDD0"/>
<path d="M31.3136 191.605C30.6818 191.605 30.1677 191.095 30.1677 190.468C30.1677 190.387 30.1015 190.322 30.0199 190.322C29.9382 190.322 29.8721 190.387 29.8721 190.468C29.8721 191.257 30.5187 191.898 31.3136 191.898C31.3952 191.898 31.4614 191.833 31.4614 191.752C31.4614 191.671 31.3952 191.605 31.3136 191.605Z" fill="#2FDDD0"/>
<path d="M3.43298 200.18C3.46212 200.217 3.50565 200.237 3.54961 200.237C3.58141 200.237 3.61343 200.227 3.64041 200.206C3.89485 200.009 4.04081 199.713 4.04081 199.393C4.04081 198.825 3.57482 198.363 3.0021 198.363C2.42933 198.363 1.96338 198.825 1.96338 199.393V199.652C1.96338 199.733 2.02959 199.799 2.11119 199.799C2.17774 199.799 2.23398 199.755 2.25253 199.695C2.25673 199.682 2.259 199.667 2.259 199.652V199.393C2.259 198.986 2.59234 198.656 3.0021 198.656C3.41185 198.656 3.74519 198.986 3.74519 199.393C3.74519 199.405 3.74481 199.417 3.74427 199.428H3.48541C3.19225 199.428 2.94286 199.617 2.85359 199.878C2.83084 199.945 2.81829 200.016 2.81829 200.09C2.81829 200.455 3.11757 200.752 3.48541 200.752C3.56701 200.752 3.63322 200.686 3.63322 200.605C3.63322 200.524 3.56701 200.459 3.48541 200.459C3.28059 200.459 3.11392 200.293 3.11392 200.09C3.11392 200.046 3.12181 200.004 3.13624 199.964C3.18821 199.823 3.32509 199.722 3.48541 199.722H3.66763C3.61882 199.819 3.54811 199.905 3.45862 199.974C3.43375 199.994 3.41689 200.019 3.40831 200.047C3.39468 200.091 3.40215 200.141 3.43298 200.18Z" fill="#FF6B6C"/>
<path d="M3.00223 197.534C1.94585 197.534 1.08643 198.386 1.08643 199.434C1.08643 200.13 1.47093 200.767 2.07861 201.099C2.01571 201.232 1.98295 201.378 1.98295 201.527C1.98295 202.085 2.44021 202.538 3.00223 202.538C3.56426 202.538 4.02151 202.085 4.02151 201.527C4.02151 201.446 3.95531 201.38 3.8737 201.38C3.79206 201.38 3.72589 201.446 3.72589 201.527C3.72589 201.923 3.40125 202.245 3.00223 202.245C2.60322 202.245 2.27858 201.923 2.27858 201.527C2.27858 201.381 2.32269 201.24 2.40614 201.12C2.43108 201.084 2.43867 201.039 2.42677 200.997C2.41484 200.955 2.3847 200.921 2.34455 200.903C1.75985 200.645 1.38201 200.068 1.38201 199.434C1.38205 198.548 2.10886 197.827 3.00223 197.827C3.89561 197.827 4.62242 198.548 4.62242 199.434C4.62242 199.515 4.68863 199.581 4.77023 199.581C4.85187 199.581 4.91804 199.515 4.91804 199.434C4.91804 198.386 4.05862 197.534 3.00223 197.534Z" fill="#FF6B6C"/>
<path d="M1.52234 201.331C1.15447 201.331 0.855192 201.034 0.855192 200.67C0.855192 200.589 0.789023 200.523 0.707381 200.523C0.625777 200.523 0.55957 200.589 0.55957 200.67C0.55957 201.196 0.991493 201.625 1.52234 201.625C1.60398 201.625 1.67015 201.559 1.67015 201.478C1.67015 201.397 1.60398 201.331 1.52234 201.331Z" fill="#FF6B6C"/>
<path d="M1.44154 201.887C0.809689 201.887 0.295622 201.377 0.295622 200.75C0.295622 200.669 0.229454 200.603 0.147811 200.603C0.0661686 200.603 0 200.669 0 200.75C0 201.538 0.646674 202.18 1.44154 202.18C1.52315 202.18 1.58935 202.114 1.58935 202.033C1.58935 201.952 1.52315 201.887 1.44154 201.887Z" fill="#FF6B6C"/>
<path d="M19.0697 212.053C25.8798 212.053 31.4006 206.532 31.4006 199.722C31.4006 192.912 25.8798 187.391 19.0697 187.391C12.2595 187.391 6.73877 192.912 6.73877 199.722C6.73877 206.532 12.2595 212.053 19.0697 212.053Z" fill="#FFD15C"/>
<path d="M19.0349 208.649C23.9842 208.649 27.9965 204.637 27.9965 199.687C27.9965 194.738 23.9842 190.726 19.0349 190.726C14.0855 190.726 10.0732 194.738 10.0732 199.687C10.0732 204.637 14.0855 208.649 19.0349 208.649Z" fill="#F8B64C"/>
<path d="M6.966 187.692C6.966 187.258 6.60992 186.905 6.17228 186.905H5.43914C5.18314 187.413 5.1127 187.551 4.51489 187.936C4.29386 188.078 4.04331 188.239 3.78929 188.498C3.5034 188.789 3.39891 189.208 3.52881 189.618C3.67172 190.068 4.09612 190.369 4.58678 190.369H4.59601C4.92932 190.367 5.11862 190.252 5.27066 190.159C5.38083 190.092 5.44754 190.054 5.53727 190.054C5.62045 190.054 5.65194 190.084 5.72143 190.157C5.80573 190.245 5.92115 190.366 6.16263 190.369C6.16599 190.369 6.16938 190.369 6.17273 190.369C6.54218 190.369 6.87475 190.104 6.94874 189.748C6.9619 189.685 6.96736 189.621 6.96542 189.558H6.966V187.692ZM6.63782 189.684C6.59403 189.895 6.38731 190.057 6.16681 190.054C6.0595 190.053 6.02135 190.013 5.95198 189.94C5.87116 189.855 5.76041 189.739 5.53727 189.739C5.35364 189.739 5.22713 189.816 5.10479 189.891C4.96793 189.974 4.83869 190.052 4.59357 190.054C4.59129 190.054 4.5891 190.054 4.58686 190.054C4.23563 190.054 3.93265 189.842 3.83171 189.523C3.73913 189.231 3.8087 188.929 4.01662 188.718C4.24597 188.484 4.47061 188.34 4.68784 188.2C5.13976 187.909 5.38207 187.722 5.63539 187.22H6.17228C6.43486 187.22 6.64854 187.432 6.64854 187.692V188.952C6.51259 188.85 6.34647 188.795 6.17228 188.795C5.96026 188.795 5.76095 188.876 5.61101 189.025L5.83553 189.248C5.92546 189.159 6.04506 189.109 6.17228 189.109C6.46487 189.11 6.7025 189.373 6.63782 189.684Z" fill="#5975FF"/>
<path d="M4.52218 190.764L4.34608 191.026C4.40911 191.067 4.44528 191.134 4.44528 191.21C4.44528 191.285 4.40911 191.352 4.34608 191.394C4.1954 191.493 4.10547 191.66 4.10547 191.839C4.10547 192.019 4.1954 192.186 4.34608 192.285L4.52218 192.023C4.45915 191.982 4.42293 191.915 4.42293 191.839C4.42293 191.764 4.45915 191.697 4.52218 191.656C4.67286 191.556 4.76279 191.389 4.76279 191.21C4.76279 191.03 4.67286 190.863 4.52218 190.764Z" fill="#5975FF"/>
<path d="M5.31616 190.764L5.14003 191.026C5.2031 191.067 5.23927 191.134 5.23927 191.21C5.23927 191.285 5.2031 191.352 5.14003 191.394C4.98939 191.493 4.89941 191.66 4.89941 191.839C4.89941 192.019 4.98939 192.186 5.14003 192.285L5.31616 192.023C5.25309 191.982 5.21692 191.915 5.21692 191.839C5.21692 191.764 5.25309 191.697 5.31616 191.656C5.46681 191.556 5.55678 191.389 5.55678 191.21C5.55678 191.03 5.46681 190.863 5.31616 190.764Z" fill="#5975FF"/>
<path d="M6.10958 190.764L5.93349 191.026C5.99652 191.067 6.03269 191.134 6.03269 191.21C6.03269 191.285 5.99652 191.352 5.93349 191.394C5.7828 191.493 5.69287 191.66 5.69287 191.839C5.69287 192.019 5.7828 192.186 5.93349 192.285L6.10958 192.023C6.04655 191.982 6.01034 191.915 6.01034 191.839C6.01034 191.764 6.04655 191.697 6.10958 191.656C6.26027 191.556 6.3502 191.389 6.3502 191.21C6.3502 191.03 6.26027 190.863 6.10958 190.764Z" fill="#5975FF"/>
<path d="M37.9806 199.073C37.9565 199.032 37.9134 199.006 37.8662 199.003C37.7962 198.996 37.6088 198.915 37.3951 198.657C37.343 198.594 37.2898 198.525 37.2335 198.451C37.004 198.152 36.7439 197.812 36.3886 197.699C36.181 197.632 35.9542 197.695 35.7499 197.877C35.704 197.917 35.638 197.941 35.5687 197.941C35.4993 197.941 35.4332 197.917 35.3873 197.877C35.1831 197.695 34.9563 197.632 34.7487 197.699C34.3934 197.812 34.1333 198.152 33.9038 198.451C33.8475 198.525 33.7943 198.594 33.7422 198.657C33.5285 198.915 33.341 198.996 33.2711 199.003C33.228 199.005 33.1883 199.027 33.1633 199.063C33.1377 199.099 33.1305 199.145 33.1437 199.187C33.1444 199.19 33.2232 199.433 33.4156 199.743C33.5806 200.009 33.8631 200.373 34.2864 200.639V201.254C34.2864 201.961 34.8616 202.536 35.5687 202.536C36.2757 202.536 36.8509 201.961 36.8509 201.254V200.639C37.6716 200.125 37.9763 199.24 37.9926 199.191C38.0057 199.152 38.0016 199.109 37.9806 199.073ZM33.2713 199.003C33.2733 199.003 33.2743 199.003 33.2744 199.003C33.2733 199.003 33.2723 199.003 33.2713 199.003ZM34.3658 199.282C34.5733 199.121 34.9638 198.856 35.1331 198.817C35.207 198.8 35.2791 198.832 35.3266 198.862C35.3928 198.904 35.4788 198.927 35.5687 198.927C35.6585 198.927 35.7445 198.904 35.8107 198.862C35.8582 198.832 35.9303 198.8 36.0042 198.817C36.1735 198.856 36.564 199.121 36.7715 199.282C36.7484 199.328 36.7149 199.389 36.6697 199.456C36.3227 199.278 35.9106 199.285 35.5686 199.476C35.2267 199.285 34.8146 199.278 34.4676 199.456C34.4223 199.389 34.3888 199.328 34.3658 199.282ZM36.5659 201.254C36.5659 201.803 36.1185 202.251 35.5687 202.251C35.0187 202.251 34.5713 201.803 34.5713 201.254V199.723C34.8378 199.576 35.1598 199.576 35.4262 199.723V201.254C35.4262 201.332 35.49 201.396 35.5687 201.396C35.6473 201.396 35.7111 201.332 35.7111 201.254V199.723C35.9775 199.576 36.2995 199.576 36.5659 199.723V201.254ZM36.8509 200.293V199.692C37.0105 199.481 37.0772 199.296 37.0801 199.288C37.0998 199.232 37.0833 199.17 37.0387 199.132C36.9141 199.025 36.3547 198.605 36.0675 198.539C35.9354 198.509 35.7901 198.538 35.6585 198.622C35.6426 198.632 35.6106 198.642 35.5687 198.642C35.5267 198.642 35.4947 198.632 35.4788 198.622C35.3472 198.538 35.2019 198.509 35.0698 198.539C34.7826 198.605 34.2231 199.025 34.0986 199.132C34.054 199.17 34.0375 199.232 34.0572 199.288C34.0601 199.296 34.1267 199.481 34.2864 199.692V200.293C33.9928 200.072 33.7879 199.802 33.6603 199.597C33.5711 199.454 33.5089 199.327 33.4694 199.237C33.5935 199.184 33.7686 199.072 33.9615 198.839C34.0171 198.772 34.0719 198.7 34.13 198.625C34.334 198.358 34.5652 198.056 34.8355 197.97C34.9738 197.926 35.1091 198.011 35.1983 198.09C35.297 198.177 35.4285 198.226 35.5686 198.226C35.7087 198.226 35.8402 198.177 35.939 198.09C36.0281 198.011 36.1635 197.926 36.3018 197.97C36.572 198.056 36.8033 198.358 37.0073 198.625C37.0653 198.7 37.1202 198.772 37.1757 198.839C37.3684 199.071 37.5432 199.183 37.6673 199.237C37.565 199.468 37.3124 199.945 36.8509 200.293ZM37.8629 199.003C37.863 199.003 37.864 199.003 37.866 199.003C37.865 199.003 37.8639 199.003 37.8629 199.003Z" fill="#C32985"/>
<path d="M21.2781 182.742L20.476 181.868C20.3222 181.715 20.0552 181.714 19.8986 181.869C19.8481 181.919 19.8135 181.98 19.7956 182.044C19.6399 181.925 19.4023 181.938 19.2588 182.081C19.2082 182.131 19.1737 182.191 19.1553 182.255C19.0001 182.137 18.7623 182.15 18.6189 182.292C18.5692 182.342 18.5351 182.401 18.5166 182.463L18.1386 182.088C17.9797 181.931 17.7217 181.93 17.5611 182.089C17.4022 182.247 17.4022 182.503 17.5611 182.661L19.0131 184.101L18.1523 184.235C17.9194 184.268 17.7438 184.469 17.7438 184.702C17.7438 184.877 17.8874 185.019 18.0638 185.019H20.0748C20.3879 185.019 20.6824 184.898 20.9047 184.678L21.2399 184.346C21.4613 184.126 21.5831 183.834 21.5831 183.524C21.5831 183.234 21.4748 182.956 21.2781 182.742ZM21.0889 184.196L20.7537 184.529C20.5722 184.709 20.3309 184.808 20.0748 184.808H18.0638C18.0051 184.808 17.9571 184.76 17.9571 184.702C17.9571 184.573 18.0539 184.463 18.1836 184.444L19.2532 184.277C19.2929 184.271 19.3255 184.244 19.3381 184.206C19.3505 184.168 19.3405 184.126 19.3121 184.098L17.7119 182.511C17.6364 182.436 17.6364 182.314 17.7131 182.237C17.7511 182.2 17.8008 182.181 17.8505 182.181C17.9002 182.181 17.9499 182.2 17.9878 182.238L18.614 182.859C18.6155 182.86 18.6174 182.862 18.6191 182.864L19.0551 183.296C19.0967 183.337 19.1643 183.337 19.2059 183.296C19.2475 183.255 19.2475 183.188 19.2059 183.146L18.7663 182.71C18.6944 182.635 18.6957 182.516 18.7712 182.441C18.8446 182.368 18.9721 182.368 19.0455 182.441L19.2552 182.649C19.2564 182.65 19.2575 182.651 19.2588 182.652L19.4815 182.873C19.523 182.914 19.5907 182.914 19.6322 182.873C19.6738 182.832 19.6738 182.765 19.6322 182.723L19.407 182.5C19.3343 182.425 19.3352 182.305 19.4111 182.229C19.4842 182.157 19.612 182.156 19.6854 182.229L19.908 182.451C19.9082 182.451 19.9082 182.451 19.9084 182.451L19.9087 182.451C19.9104 182.452 19.91 182.452 19.9095 182.452C19.9095 182.452 19.9095 182.452 19.9097 182.452C19.9099 182.452 19.9099 182.452 19.9099 182.452C19.9101 182.452 19.9101 182.452 19.9101 182.452H19.9103C19.9106 182.452 19.9106 182.452 19.9106 182.452C19.9528 182.491 20.0185 182.49 20.059 182.45C20.1004 182.408 20.1004 182.342 20.0588 182.3L20.046 182.288C19.9739 182.212 19.975 182.093 20.0507 182.017C20.1241 181.945 20.255 181.948 20.3215 182.014L21.1201 182.884C21.2811 183.06 21.3696 183.287 21.3696 183.524C21.3696 183.778 21.2698 184.017 21.0889 184.196Z" fill="#7A76FF"/>
<path d="M19.9101 182.452H19.9109C19.91 182.452 19.9092 182.451 19.9092 182.451C19.9101 182.452 19.911 182.452 19.9101 182.452Z" fill="#7A76FF"/>
<path d="M18.7242 181.985C18.5687 181.644 18.226 181.423 17.8504 181.423C17.3212 181.423 16.8906 181.85 16.8906 182.375C16.8906 182.747 17.1129 183.088 17.4565 183.242C17.4707 183.248 17.4857 183.251 17.5004 183.251C17.5411 183.251 17.5797 183.228 17.5976 183.189C17.6218 183.136 17.5981 183.073 17.5443 183.049C17.2769 182.929 17.1039 182.664 17.1039 182.375C17.1039 181.967 17.4388 181.635 17.8504 181.635C18.1422 181.635 18.4088 181.806 18.5297 182.072C18.554 182.125 18.6169 182.149 18.6709 182.124C18.7244 182.1 18.7483 182.038 18.7242 181.985Z" fill="#7A76FF"/>
<path d="M19.189 182.022C19.028 181.42 18.4775 181 17.8507 181C17.0863 181 16.4644 181.617 16.4644 182.375C16.4644 182.997 16.8879 183.543 17.4945 183.703C17.5037 183.705 17.5128 183.706 17.5218 183.706C17.5691 183.706 17.6122 183.675 17.6248 183.628C17.64 183.571 17.6063 183.513 17.5491 183.498C17.0362 183.363 16.6776 182.901 16.6776 182.375C16.6776 181.733 17.204 181.212 17.8507 181.212C18.3809 181.212 18.8467 181.567 18.983 182.076C18.9979 182.132 19.0544 182.166 19.1135 182.151C19.1702 182.136 19.2039 182.078 19.189 182.022Z" fill="#7A76FF"/>
<path d="M20.961 196.141L16.3395 197.73L15.0617 200.41C15.0281 200.477 14.996 200.544 14.9651 200.613L14.9604 200.623C15.2322 201.021 15.5607 201.378 15.9344 201.682L17.4374 202.68H20.9493L22.1604 201.699C22.5427 201.392 22.8784 201.029 23.1552 200.622V198.481L20.961 196.141Z" fill="#E94444"/>
<path d="M22.1603 197.689L18.5777 197.15L15.9346 197.835V202.268V202.691L17.5693 203.797H21.0666L22.1603 202.582V197.689Z" fill="#FFBD86"/>
<path d="M21.9583 203.158L21.8634 203.801C21.7774 204.385 21.5005 204.923 21.0761 205.332C21.0467 205.361 21.0018 205.365 20.9671 205.344L20.4599 205.028C20.2196 205.541 19.773 205.927 19.2312 206.092L19.0447 206.148L18.8905 206.099C18.3611 205.93 17.9262 205.548 17.6903 205.044L17.6828 205.028L17.1755 205.344C17.1408 205.365 17.0959 205.361 17.0665 205.332C16.6421 204.923 16.3652 204.385 16.2793 203.801L16.1844 203.158L16.1211 202.575L18.4094 201.446H20.4719L22.004 202.693L21.9583 203.158Z" fill="#F9F7F8"/>
<path d="M20.4719 201.446H18.4094L16.1211 202.575L16.1844 203.158L16.2793 203.801C16.3652 204.384 16.6418 204.922 17.0659 205.332C17.0955 205.36 17.1406 205.366 17.1755 205.344L17.6827 205.028L17.6903 205.044C17.9262 205.547 18.3611 205.93 18.8905 206.099L19.0447 206.148L19.2312 206.092C19.773 205.927 20.2195 205.541 20.4598 205.028L20.9671 205.344C21.002 205.366 21.047 205.36 21.0766 205.332C21.4902 204.933 21.7636 204.411 21.8566 203.844C21.7215 204.116 21.54 204.365 21.3183 204.579C21.2892 204.607 21.2445 204.611 21.2101 204.59L20.8995 204.396C20.7964 204.332 20.6615 204.365 20.5981 204.469C20.344 204.884 19.9451 205.195 19.4743 205.337L19.2878 205.394L19.1335 205.345C18.6727 205.197 18.2835 204.889 18.0348 204.479C17.973 204.378 17.8417 204.344 17.7388 204.403L17.4185 204.59C17.3839 204.611 17.339 204.607 17.3095 204.578C17.1575 204.432 17.0245 204.268 16.9124 204.092C16.7982 203.913 16.8681 203.671 17.0622 203.585C17.1769 203.534 17.286 203.469 17.3879 203.39L18.1969 202.766C18.2684 202.71 18.3562 202.68 18.4465 202.68H19.696C19.7863 202.68 19.8741 202.71 19.9455 202.766L20.7546 203.39C21.0327 203.605 21.365 203.719 21.7156 203.719C21.7697 203.719 21.8235 203.716 21.8767 203.71L21.9582 203.158L22.004 202.693L20.4719 201.446Z" fill="#EFEDEF"/>
<path d="M20.3759 202.466L20.3024 202.81C20.2288 203.155 19.9247 203.401 19.5728 203.401C19.4001 203.401 19.2328 203.341 19.0993 203.231L19.0955 203.228C19.066 203.204 19.0235 203.204 18.994 203.228L18.9902 203.231C18.8568 203.341 18.6894 203.401 18.5167 203.401C18.1648 203.401 17.8607 203.155 17.7872 202.81L17.7136 202.466L17.5693 201.699H20.5182L20.3759 202.466Z" fill="#FFBD86"/>
<path d="M19.8968 200.831C20.1545 200.831 20.4042 200.921 20.6025 201.086L21.8308 202.105C21.9619 202.213 22.1269 202.273 22.2973 202.273H22.6744C22.7654 202.273 22.8193 202.375 22.7682 202.45L22.5786 202.73C22.2416 203.226 21.5554 203.336 21.0802 202.969L20.2711 202.344C20.1064 202.217 19.9042 202.148 19.6962 202.148H18.4467C18.2386 202.148 18.0364 202.217 17.8718 202.344L17.0627 202.969C16.5875 203.336 15.9014 203.226 15.5644 202.73L15.3747 202.45C15.3237 202.375 15.3776 202.273 15.4685 202.273H15.8456C16.016 202.273 16.181 202.213 16.3122 202.105L17.5404 201.086C17.7388 200.921 17.9884 200.831 18.2462 200.831H19.8968Z" fill="#F9F7F8"/>
<path d="M16.1281 203.092L16.0045 202.91C15.9254 202.794 16.009 202.636 16.15 202.636H16.4093C16.5797 202.636 16.7448 202.576 16.8759 202.468L18.1041 201.448C18.3025 201.284 18.5521 201.194 18.8099 201.194H20.4605C20.5752 201.194 20.6882 201.212 20.7959 201.246L20.6025 201.086C20.4042 200.921 20.1545 200.831 19.8968 200.831H18.2462C17.9884 200.831 17.7388 200.921 17.5404 201.086L16.3122 202.105C16.181 202.213 16.016 202.273 15.8456 202.273H15.4685C15.3776 202.273 15.3237 202.375 15.3747 202.45L15.5644 202.73C15.7148 202.951 15.9352 203.096 16.175 203.156C16.1589 203.135 16.1428 203.114 16.1281 203.092Z" fill="#EFEDEF"/>
<path d="M19.6728 200.568L19.4978 200.831C19.4027 200.974 19.2427 201.059 19.0713 201.059C18.8999 201.059 18.7398 200.974 18.6447 200.831L18.4697 200.568C18.4404 200.524 18.4719 200.466 18.5247 200.466H19.6178C19.6706 200.466 19.7021 200.524 19.6728 200.568Z" fill="#F6A96C"/>
<path d="M19.0712 198.977C18.961 198.977 18.8716 198.888 18.8716 198.777V198.681C18.8716 198.57 18.961 198.481 19.0712 198.481C19.1815 198.481 19.2709 198.57 19.2709 198.681V198.777C19.2709 198.888 19.1815 198.977 19.0712 198.977Z" fill="#F37C7C"/>
<path d="M17.5614 199.983C17.3531 199.983 17.1452 199.92 16.9661 199.793L16.8209 199.691C16.7308 199.627 16.7093 199.503 16.7728 199.413C16.8364 199.323 16.961 199.301 17.0511 199.365L17.1963 199.467C17.4086 199.617 17.6868 199.623 17.9051 199.482L18.0938 199.36C18.1864 199.3 18.31 199.327 18.3698 199.42C18.4295 199.512 18.4029 199.636 18.3102 199.696L18.1216 199.817C17.9499 199.928 17.7555 199.983 17.5614 199.983Z" fill="#F6A96C"/>
<path d="M20.581 199.983C20.3869 199.983 20.1925 199.928 20.0208 199.818L19.8322 199.696C19.7395 199.636 19.7128 199.512 19.7726 199.42C19.8324 199.327 19.956 199.301 20.0486 199.36L20.2373 199.482C20.4556 199.623 20.7338 199.617 20.9461 199.467L21.0913 199.365C21.1814 199.301 21.306 199.323 21.3695 199.413C21.4331 199.503 21.4116 199.628 21.3215 199.691L21.1762 199.794C20.9971 199.92 20.7892 199.983 20.581 199.983Z" fill="#F6A96C"/>
<path d="M15.9346 197.835V200.23C16.0264 200.118 16.127 200 16.2342 199.878C16.8342 199.2 17.3748 198.748 17.7565 198.604L17.7572 198.604C18.1745 198.447 18.6122 198.367 19.058 198.367C19.8194 198.367 20.5605 198.602 21.2012 199.047C21.5658 199.3 21.8887 199.614 22.1602 199.975V197.689L18.5776 197.15L15.9346 197.835Z" fill="#F6A96C"/>
<path d="M23.9836 197.289L23.1982 196.009L18.0132 197.04L16.9912 198.306L17.5691 198.106V198.106C18.0358 197.93 18.5365 197.835 19.058 197.835C20.859 197.835 22.416 198.972 23.1552 200.622C23.6969 199.828 24.0134 198.869 24.0134 197.835C24.0134 197.65 24.0033 197.468 23.9836 197.289Z" fill="#EE6161"/>
<path d="M21.3833 193.458C20.6899 193.089 19.8982 192.879 19.0579 192.879C17.4618 192.879 16.0419 193.634 15.1358 194.806L14.8325 195.704L21.1558 194.856L21.3431 194.453L21.8886 193.843L21.3833 193.458Z" fill="#F79595"/>
<path d="M18.7633 194.334C16.1943 194.096 15.1359 194.806 15.1359 194.806C14.488 195.643 14.1025 196.694 14.1025 197.835C14.1025 198.634 14.2918 199.389 14.6277 200.057L16.1211 198.188L20.5733 194.486L18.7633 194.334Z" fill="#EE6161"/>
<path d="M23.9838 197.289H23.9835C19.7649 196.313 17.5694 198.105 17.5694 198.105V198.106C16.4242 198.536 14.9607 200.623 14.9607 200.623C14.838 200.442 14.7267 200.254 14.6279 200.057C14.6279 200.057 14.6279 200.057 14.6279 200.057C14.6309 200.02 14.9362 196.27 18.7635 194.334H18.7638C19.4993 193.962 20.3649 193.657 21.3836 193.458C22.7963 194.21 23.8017 195.626 23.9838 197.289Z" fill="#F37C7C"/>
<path d="M9.98585 211.778C10.2108 211.238 10.977 211.238 11.202 211.778C11.2969 212.006 11.5113 212.162 11.7575 212.182C12.3414 212.229 12.5782 212.958 12.1333 213.339C11.9457 213.499 11.8638 213.751 11.9211 213.992C12.057 214.561 11.4372 215.012 10.9372 214.706C10.7265 214.578 10.4614 214.578 10.2506 214.706C9.75072 215.012 9.13082 214.561 9.26675 213.992C9.32405 213.751 9.24214 213.499 9.05458 213.339C8.60969 212.958 8.84646 212.229 9.4304 212.182C9.67657 212.162 9.89101 212.006 9.98585 211.778Z" fill="#FFE082"/>
<path d="M26.9365 211.778C27.1615 211.238 27.9277 211.238 28.1527 211.778C28.2475 212.006 28.462 212.162 28.7082 212.182C29.2921 212.229 29.5289 212.958 29.084 213.339C28.8964 213.499 28.8145 213.751 28.8718 213.992C29.0077 214.561 28.3878 215.012 27.8879 214.706C27.6772 214.578 27.4121 214.578 27.2013 214.706C26.7014 215.012 26.0815 214.561 26.2174 213.992C26.2747 213.751 26.1928 213.499 26.0053 213.339C25.5604 212.958 25.7971 212.229 26.3811 212.182C26.6273 212.162 26.8417 212.006 26.9365 211.778Z" fill="#FFE082"/>
<path d="M18.4614 214.349C18.6864 213.808 19.4526 213.808 19.6776 214.349C19.7724 214.577 19.9869 214.733 20.2331 214.752C20.817 214.799 21.0538 215.528 20.6089 215.909C20.4213 216.07 20.3394 216.322 20.3967 216.562C20.5326 217.132 19.9127 217.582 19.4128 217.277C19.2021 217.148 18.937 217.148 18.7262 217.277C18.2263 217.582 17.6064 217.132 17.7423 216.562C17.7996 216.322 17.7177 216.07 17.5302 215.909C17.0853 215.528 17.3221 214.799 17.906 214.752C18.1522 214.733 18.3666 214.577 18.4614 214.349Z" fill="#FFE082"/>
<path d="M48.625 17L44.75 6.875H44.6875C44.7604 7.67708 44.7969 8.63021 44.7969 9.73438V17H43.5703V5.57812H45.5703L49.1875 15H49.25L52.8984 5.57812H54.8828V17H53.5547V9.64062C53.5547 8.79688 53.5911 7.88021 53.6641 6.89062H53.6016L49.6953 17H48.625ZM63.0938 17L62.8359 15.7812H62.7734C62.3464 16.3177 61.9193 16.6823 61.4922 16.875C61.0703 17.0625 60.5417 17.1562 59.9062 17.1562C59.0573 17.1562 58.3906 16.9375 57.9062 16.5C57.4271 16.0625 57.1875 15.4401 57.1875 14.6328C57.1875 12.9036 58.5703 11.9974 61.3359 11.9141L62.7891 11.8672V11.3359C62.7891 10.6641 62.6432 10.1693 62.3516 9.85156C62.0651 9.52865 61.6042 9.36719 60.9688 9.36719C60.2552 9.36719 59.4479 9.58594 58.5469 10.0234L58.1484 9.03125C58.5703 8.80208 59.0312 8.6224 59.5312 8.49219C60.0365 8.36198 60.5417 8.29688 61.0469 8.29688C62.0677 8.29688 62.8229 8.52344 63.3125 8.97656C63.8073 9.42969 64.0547 10.1562 64.0547 11.1562V17H63.0938ZM60.1641 16.0859C60.9714 16.0859 61.6042 15.8646 62.0625 15.4219C62.526 14.9792 62.7578 14.3594 62.7578 13.5625V12.7891L61.4609 12.8438C60.4297 12.8802 59.6849 13.0417 59.2266 13.3281C58.7734 13.6094 58.5469 14.0495 58.5469 14.6484C58.5469 15.1172 58.6875 15.474 58.9688 15.7188C59.2552 15.9635 59.6536 16.0859 60.1641 16.0859ZM70.3516 17.1562C69.0859 17.1562 68.0859 16.7708 67.3516 16C66.6224 15.2292 66.2578 14.1589 66.2578 12.7891C66.2578 11.4089 66.5964 10.3125 67.2734 9.5C67.9557 8.6875 68.8698 8.28125 70.0156 8.28125C71.0885 8.28125 71.9375 8.63542 72.5625 9.34375C73.1875 10.0469 73.5 10.9766 73.5 12.1328V12.9531H67.6016C67.6276 13.9583 67.8802 14.7214 68.3594 15.2422C68.8438 15.763 69.5234 16.0234 70.3984 16.0234C71.3203 16.0234 72.2318 15.8307 73.1328 15.4453V16.6016C72.6745 16.7995 72.2396 16.9401 71.8281 17.0234C71.4219 17.112 70.9297 17.1562 70.3516 17.1562ZM70 9.36719C69.3125 9.36719 68.763 9.59115 68.3516 10.0391C67.9453 10.487 67.7057 11.1068 67.6328 11.8984H72.1094C72.1094 11.0807 71.9271 10.4557 71.5625 10.0234C71.1979 9.58594 70.6771 9.36719 70 9.36719ZM81.2422 14.6641C81.2422 15.4609 80.9453 16.0755 80.3516 16.5078C79.7578 16.9401 78.9245 17.1562 77.8516 17.1562C76.7161 17.1562 75.8307 16.9766 75.1953 16.6172V15.4141C75.6068 15.6224 76.0469 15.7865 76.5156 15.9062C76.9896 16.026 77.4453 16.0859 77.8828 16.0859C78.5599 16.0859 79.0807 15.9792 79.4453 15.7656C79.8099 15.5469 79.9922 15.2161 79.9922 14.7734C79.9922 14.4401 79.8464 14.1562 79.5547 13.9219C79.2682 13.6823 78.7057 13.401 77.8672 13.0781C77.0703 12.7812 76.5026 12.5234 76.1641 12.3047C75.8307 12.0807 75.5807 11.8281 75.4141 11.5469C75.2526 11.2656 75.1719 10.9297 75.1719 10.5391C75.1719 9.84115 75.4557 9.29167 76.0234 8.89062C76.5911 8.48438 77.3698 8.28125 78.3594 8.28125C79.2812 8.28125 80.1823 8.46875 81.0625 8.84375L80.6016 9.89844C79.7422 9.54427 78.9635 9.36719 78.2656 9.36719C77.651 9.36719 77.1875 9.46354 76.875 9.65625C76.5625 9.84896 76.4062 10.1146 76.4062 10.4531C76.4062 10.6823 76.4635 10.8776 76.5781 11.0391C76.6979 11.2005 76.888 11.3542 77.1484 11.5C77.4089 11.6458 77.9089 11.8568 78.6484 12.1328C79.6641 12.5026 80.349 12.875 80.7031 13.25C81.0625 13.625 81.2422 14.0964 81.2422 14.6641ZM86.125 16.0859C86.3542 16.0859 86.5755 16.0703 86.7891 16.0391C87.0026 16.0026 87.1719 15.9661 87.2969 15.9297V16.9219C87.1562 16.9896 86.9479 17.0443 86.6719 17.0859C86.401 17.1328 86.1562 17.1562 85.9375 17.1562C84.2812 17.1562 83.4531 16.2839 83.4531 14.5391V9.44531H82.2266V8.82031L83.4531 8.28125L84 6.45312H84.75V8.4375H87.2344V9.44531H84.75V14.4844C84.75 15 84.8724 15.3958 85.1172 15.6719C85.362 15.9479 85.6979 16.0859 86.125 16.0859ZM92.9219 8.28125C93.3021 8.28125 93.6432 8.3125 93.9453 8.375L93.7656 9.57812C93.4115 9.5 93.099 9.46094 92.8281 9.46094C92.1354 9.46094 91.5417 9.74219 91.0469 10.3047C90.5573 10.8672 90.3125 11.5677 90.3125 12.4062V17H89.0156V8.4375H90.0859L90.2344 10.0234H90.2969C90.6146 9.46615 90.9974 9.03646 91.4453 8.73438C91.8932 8.43229 92.3854 8.28125 92.9219 8.28125ZM102.938 12.7109C102.938 14.1068 102.586 15.1979 101.883 15.9844C101.18 16.7656 100.208 17.1562 98.9688 17.1562C98.2031 17.1562 97.5234 16.9766 96.9297 16.6172C96.3359 16.2578 95.8776 15.7422 95.5547 15.0703C95.2318 14.3984 95.0703 13.612 95.0703 12.7109C95.0703 11.3151 95.4193 10.2292 96.1172 9.45312C96.8151 8.67188 97.7839 8.28125 99.0234 8.28125C100.221 8.28125 101.172 8.67969 101.875 9.47656C102.583 10.2734 102.938 11.3516 102.938 12.7109ZM96.4141 12.7109C96.4141 13.8047 96.6328 14.638 97.0703 15.2109C97.5078 15.7839 98.151 16.0703 99 16.0703C99.849 16.0703 100.492 15.7865 100.93 15.2188C101.372 14.6458 101.594 13.8099 101.594 12.7109C101.594 11.6224 101.372 10.7969 100.93 10.2344C100.492 9.66667 99.8438 9.38281 98.9844 9.38281C98.1354 9.38281 97.4948 9.66146 97.0625 10.2188C96.6302 10.776 96.4141 11.6068 96.4141 12.7109ZM111.25 17L108 8.4375H109.391L111.234 13.5156C111.651 14.7031 111.896 15.474 111.969 15.8281H112.031C112.089 15.5521 112.268 14.9818 112.57 14.1172C112.878 13.2474 113.562 11.3542 114.625 8.4375H116.016L112.766 17H111.25ZM118.688 17H117.391V8.4375H118.688V17ZM117.281 6.11719C117.281 5.82031 117.354 5.60417 117.5 5.46875C117.646 5.32812 117.828 5.25781 118.047 5.25781C118.255 5.25781 118.435 5.32812 118.586 5.46875C118.737 5.60938 118.812 5.82552 118.812 6.11719C118.812 6.40885 118.737 6.6276 118.586 6.77344C118.435 6.91406 118.255 6.98438 118.047 6.98438C117.828 6.98438 117.646 6.91406 117.5 6.77344C117.354 6.6276 117.281 6.40885 117.281 6.11719ZM126.961 14.6641C126.961 15.4609 126.664 16.0755 126.07 16.5078C125.477 16.9401 124.643 17.1562 123.57 17.1562C122.435 17.1562 121.549 16.9766 120.914 16.6172V15.4141C121.326 15.6224 121.766 15.7865 122.234 15.9062C122.708 16.026 123.164 16.0859 123.602 16.0859C124.279 16.0859 124.799 15.9792 125.164 15.7656C125.529 15.5469 125.711 15.2161 125.711 14.7734C125.711 14.4401 125.565 14.1562 125.273 13.9219C124.987 13.6823 124.424 13.401 123.586 13.0781C122.789 12.7812 122.221 12.5234 121.883 12.3047C121.549 12.0807 121.299 11.8281 121.133 11.5469C120.971 11.2656 120.891 10.9297 120.891 10.5391C120.891 9.84115 121.174 9.29167 121.742 8.89062C122.31 8.48438 123.089 8.28125 124.078 8.28125C125 8.28125 125.901 8.46875 126.781 8.84375L126.32 9.89844C125.461 9.54427 124.682 9.36719 123.984 9.36719C123.37 9.36719 122.906 9.46354 122.594 9.65625C122.281 9.84896 122.125 10.1146 122.125 10.4531C122.125 10.6823 122.182 10.8776 122.297 11.0391C122.417 11.2005 122.607 11.3542 122.867 11.5C123.128 11.6458 123.628 11.8568 124.367 12.1328C125.383 12.5026 126.068 12.875 126.422 13.25C126.781 13.625 126.961 14.0964 126.961 14.6641ZM130.297 8.4375V13.9922C130.297 14.6901 130.456 15.2109 130.773 15.5547C131.091 15.8984 131.589 16.0703 132.266 16.0703C133.161 16.0703 133.815 15.8255 134.227 15.3359C134.643 14.8464 134.852 14.0469 134.852 12.9375V8.4375H136.148V17H135.078L134.891 15.8516H134.82C134.555 16.2734 134.185 16.5964 133.711 16.8203C133.242 17.0443 132.706 17.1562 132.102 17.1562C131.06 17.1562 130.279 16.9089 129.758 16.4141C129.242 15.9193 128.984 15.1276 128.984 14.0391V8.4375H130.297ZM144.172 17L143.914 15.7812H143.852C143.424 16.3177 142.997 16.6823 142.57 16.875C142.148 17.0625 141.62 17.1562 140.984 17.1562C140.135 17.1562 139.469 16.9375 138.984 16.5C138.505 16.0625 138.266 15.4401 138.266 14.6328C138.266 12.9036 139.648 11.9974 142.414 11.9141L143.867 11.8672V11.3359C143.867 10.6641 143.721 10.1693 143.43 9.85156C143.143 9.52865 142.682 9.36719 142.047 9.36719C141.333 9.36719 140.526 9.58594 139.625 10.0234L139.227 9.03125C139.648 8.80208 140.109 8.6224 140.609 8.49219C141.115 8.36198 141.62 8.29688 142.125 8.29688C143.146 8.29688 143.901 8.52344 144.391 8.97656C144.885 9.42969 145.133 10.1562 145.133 11.1562V17H144.172ZM141.242 16.0859C142.049 16.0859 142.682 15.8646 143.141 15.4219C143.604 14.9792 143.836 14.3594 143.836 13.5625V12.7891L142.539 12.8438C141.508 12.8802 140.763 13.0417 140.305 13.3281C139.852 13.6094 139.625 14.0495 139.625 14.6484C139.625 15.1172 139.766 15.474 140.047 15.7188C140.333 15.9635 140.732 16.0859 141.242 16.0859ZM149.109 17H147.812V4.84375H149.109V17Z" fill="#212429"/>
<path d="M49.9375 55H43.5703V43.5781H49.9375V44.7578H44.8984V48.4375H49.6328V49.6094H44.8984V53.8125H49.9375V55ZM53.5781 55H52.2812V42.8438H53.5781V55ZM59.9453 55.1562C58.6797 55.1562 57.6797 54.7708 56.9453 54C56.2161 53.2292 55.8516 52.1589 55.8516 50.7891C55.8516 49.4089 56.1901 48.3125 56.8672 47.5C57.5495 46.6875 58.4635 46.2812 59.6094 46.2812C60.6823 46.2812 61.5312 46.6354 62.1562 47.3438C62.7812 48.0469 63.0938 48.9766 63.0938 50.1328V50.9531H57.1953C57.2214 51.9583 57.474 52.7214 57.9531 53.2422C58.4375 53.763 59.1172 54.0234 59.9922 54.0234C60.9141 54.0234 61.8255 53.8307 62.7266 53.4453V54.6016C62.2682 54.7995 61.8333 54.9401 61.4219 55.0234C61.0156 55.112 60.5234 55.1562 59.9453 55.1562ZM59.5938 47.3672C58.9062 47.3672 58.3568 47.5911 57.9453 48.0391C57.5391 48.487 57.2995 49.1068 57.2266 49.8984H61.7031C61.7031 49.0807 61.5208 48.4557 61.1562 48.0234C60.7917 47.5859 60.2708 47.3672 59.5938 47.3672ZM69.1719 47.4453H66.9922V55H65.6953V47.4453H64.1641V46.8594L65.6953 46.3906V45.9141C65.6953 43.8099 66.6146 42.7578 68.4531 42.7578C68.9062 42.7578 69.4375 42.849 70.0469 43.0312L69.7109 44.0703C69.2109 43.9089 68.7839 43.8281 68.4297 43.8281C67.9401 43.8281 67.5781 43.9922 67.3438 44.3203C67.1094 44.6432 66.9922 45.1641 66.9922 45.8828V46.4375H69.1719V47.4453ZM76 55L75.7422 53.7812H75.6797C75.2526 54.3177 74.8255 54.6823 74.3984 54.875C73.9766 55.0625 73.4479 55.1562 72.8125 55.1562C71.9635 55.1562 71.2969 54.9375 70.8125 54.5C70.3333 54.0625 70.0938 53.4401 70.0938 52.6328C70.0938 50.9036 71.4766 49.9974 74.2422 49.9141L75.6953 49.8672V49.3359C75.6953 48.6641 75.5495 48.1693 75.2578 47.8516C74.9714 47.5286 74.5104 47.3672 73.875 47.3672C73.1615 47.3672 72.3542 47.5859 71.4531 48.0234L71.0547 47.0312C71.4766 46.8021 71.9375 46.6224 72.4375 46.4922C72.9427 46.362 73.4479 46.2969 73.9531 46.2969C74.974 46.2969 75.7292 46.5234 76.2188 46.9766C76.7135 47.4297 76.9609 48.1562 76.9609 49.1562V55H76ZM73.0703 54.0859C73.8776 54.0859 74.5104 53.8646 74.9688 53.4219C75.4323 52.9792 75.6641 52.3594 75.6641 51.5625V50.7891L74.3672 50.8438C73.3359 50.8802 72.5911 51.0417 72.1328 51.3281C71.6797 51.6094 71.4531 52.0495 71.4531 52.6484C71.4531 53.1172 71.5938 53.474 71.875 53.7188C72.1615 53.9635 72.5599 54.0859 73.0703 54.0859ZM85.5 55V49.4609C85.5 48.763 85.3411 48.2422 85.0234 47.8984C84.7057 47.5547 84.2083 47.3828 83.5312 47.3828C82.6354 47.3828 81.9792 47.625 81.5625 48.1094C81.1458 48.5938 80.9375 49.3932 80.9375 50.5078V55H79.6406V46.4375H80.6953L80.9062 47.6094H80.9688C81.2344 47.1875 81.6068 46.862 82.0859 46.6328C82.5651 46.3984 83.099 46.2812 83.6875 46.2812C84.7188 46.2812 85.4948 46.5312 86.0156 47.0312C86.5365 47.526 86.7969 48.3203 86.7969 49.4141V55H85.5ZM92.2344 54.0859C92.4635 54.0859 92.6849 54.0703 92.8984 54.0391C93.112 54.0026 93.2812 53.9661 93.4062 53.9297V54.9219C93.2656 54.9896 93.0573 55.0443 92.7812 55.0859C92.5104 55.1328 92.2656 55.1562 92.0469 55.1562C90.3906 55.1562 89.5625 54.2839 89.5625 52.5391V47.4453H88.3359V46.8203L89.5625 46.2812L90.1094 44.4531H90.8594V46.4375H93.3438V47.4453H90.8594V52.4844C90.8594 53 90.9818 53.3958 91.2266 53.6719C91.4714 53.9479 91.8073 54.0859 92.2344 54.0859ZM98.7422 55.1562C97.4766 55.1562 96.4766 54.7708 95.7422 54C95.013 53.2292 94.6484 52.1589 94.6484 50.7891C94.6484 49.4089 94.987 48.3125 95.6641 47.5C96.3464 46.6875 97.2604 46.2812 98.4062 46.2812C99.4792 46.2812 100.328 46.6354 100.953 47.3438C101.578 48.0469 101.891 48.9766 101.891 50.1328V50.9531H95.9922C96.0182 51.9583 96.2708 52.7214 96.75 53.2422C97.2344 53.763 97.9141 54.0234 98.7891 54.0234C99.7109 54.0234 100.622 53.8307 101.523 53.4453V54.6016C101.065 54.7995 100.63 54.9401 100.219 55.0234C99.8125 55.112 99.3203 55.1562 98.7422 55.1562ZM98.3906 47.3672C97.7031 47.3672 97.1536 47.5911 96.7422 48.0391C96.3359 48.487 96.0964 49.1068 96.0234 49.8984H100.5C100.5 49.0807 100.318 48.4557 99.9531 48.0234C99.5885 47.5859 99.0677 47.3672 98.3906 47.3672ZM115.656 50.7109C115.656 52.1068 115.305 53.1979 114.602 53.9844C113.898 54.7656 112.927 55.1562 111.688 55.1562C110.922 55.1562 110.242 54.9766 109.648 54.6172C109.055 54.2578 108.596 53.7422 108.273 53.0703C107.951 52.3984 107.789 51.612 107.789 50.7109C107.789 49.3151 108.138 48.2292 108.836 47.4531C109.534 46.6719 110.503 46.2812 111.742 46.2812C112.94 46.2812 113.891 46.6797 114.594 47.4766C115.302 48.2734 115.656 49.3516 115.656 50.7109ZM109.133 50.7109C109.133 51.8047 109.352 52.638 109.789 53.2109C110.227 53.7839 110.87 54.0703 111.719 54.0703C112.568 54.0703 113.211 53.7865 113.648 53.2188C114.091 52.6458 114.312 51.8099 114.312 50.7109C114.312 49.6224 114.091 48.7969 113.648 48.2344C113.211 47.6667 112.562 47.3828 111.703 47.3828C110.854 47.3828 110.214 47.6615 109.781 48.2188C109.349 48.776 109.133 49.6068 109.133 50.7109ZM119.234 55H117.938V42.8438H119.234V55ZM125.844 47.4453H123.664V55H122.367V47.4453H120.836V46.8594L122.367 46.3906V45.9141C122.367 43.8099 123.286 42.7578 125.125 42.7578C125.578 42.7578 126.109 42.849 126.719 43.0312L126.383 44.0703C125.883 43.9089 125.456 43.8281 125.102 43.8281C124.612 43.8281 124.25 43.9922 124.016 44.3203C123.781 44.6432 123.664 45.1641 123.664 45.8828V46.4375H125.844V47.4453ZM132.672 55L132.414 53.7812H132.352C131.924 54.3177 131.497 54.6823 131.07 54.875C130.648 55.0625 130.12 55.1562 129.484 55.1562C128.635 55.1562 127.969 54.9375 127.484 54.5C127.005 54.0625 126.766 53.4401 126.766 52.6328C126.766 50.9036 128.148 49.9974 130.914 49.9141L132.367 49.8672V49.3359C132.367 48.6641 132.221 48.1693 131.93 47.8516C131.643 47.5286 131.182 47.3672 130.547 47.3672C129.833 47.3672 129.026 47.5859 128.125 48.0234L127.727 47.0312C128.148 46.8021 128.609 46.6224 129.109 46.4922C129.615 46.362 130.12 46.2969 130.625 46.2969C131.646 46.2969 132.401 46.5234 132.891 46.9766C133.385 47.4297 133.633 48.1562 133.633 49.1562V55H132.672ZM129.742 54.0859C130.549 54.0859 131.182 53.8646 131.641 53.4219C132.104 52.9792 132.336 52.3594 132.336 51.5625V50.7891L131.039 50.8438C130.008 50.8802 129.263 51.0417 128.805 51.3281C128.352 51.6094 128.125 52.0495 128.125 52.6484C128.125 53.1172 128.266 53.474 128.547 53.7188C128.833 53.9635 129.232 54.0859 129.742 54.0859ZM139.078 54.0859C139.307 54.0859 139.529 54.0703 139.742 54.0391C139.956 54.0026 140.125 53.9661 140.25 53.9297V54.9219C140.109 54.9896 139.901 55.0443 139.625 55.0859C139.354 55.1328 139.109 55.1562 138.891 55.1562C137.234 55.1562 136.406 54.2839 136.406 52.5391V47.4453H135.18V46.8203L136.406 46.2812L136.953 44.4531H137.703V46.4375H140.188V47.4453H137.703V52.4844C137.703 53 137.826 53.3958 138.07 53.6719C138.315 53.9479 138.651 54.0859 139.078 54.0859ZM143.266 55H141.969V46.4375H143.266V55ZM141.859 44.1172C141.859 43.8203 141.932 43.6042 142.078 43.4688C142.224 43.3281 142.406 43.2578 142.625 43.2578C142.833 43.2578 143.013 43.3281 143.164 43.4688C143.315 43.6094 143.391 43.8255 143.391 44.1172C143.391 44.4089 143.315 44.6276 143.164 44.7734C143.013 44.9141 142.833 44.9844 142.625 44.9844C142.406 44.9844 142.224 44.9141 142.078 44.7734C141.932 44.6276 141.859 44.4089 141.859 44.1172ZM147.891 55L144.641 46.4375H146.031L147.875 51.5156C148.292 52.7031 148.536 53.474 148.609 53.8281H148.672C148.729 53.5521 148.909 52.9818 149.211 52.1172C149.518 51.2474 150.203 49.3542 151.266 46.4375H152.656L149.406 55H147.891ZM161.422 50.7109C161.422 52.1068 161.07 53.1979 160.367 53.9844C159.664 54.7656 158.693 55.1562 157.453 55.1562C156.688 55.1562 156.008 54.9766 155.414 54.6172C154.82 54.2578 154.362 53.7422 154.039 53.0703C153.716 52.3984 153.555 51.612 153.555 50.7109C153.555 49.3151 153.904 48.2292 154.602 47.4531C155.299 46.6719 156.268 46.2812 157.508 46.2812C158.706 46.2812 159.656 46.6797 160.359 47.4766C161.068 48.2734 161.422 49.3516 161.422 50.7109ZM154.898 50.7109C154.898 51.8047 155.117 52.638 155.555 53.2109C155.992 53.7839 156.635 54.0703 157.484 54.0703C158.333 54.0703 158.977 53.7865 159.414 53.2188C159.857 52.6458 160.078 51.8099 160.078 50.7109C160.078 49.6224 159.857 48.7969 159.414 48.2344C158.977 47.6667 158.328 47.3828 157.469 47.3828C156.62 47.3828 155.979 47.6615 155.547 48.2188C155.115 48.776 154.898 49.6068 154.898 50.7109Z" fill="#212429"/>
<path d="M48.5938 85.0156H52.4766V90.5703C51.8724 90.763 51.2578 90.9089 50.6328 91.0078C50.0078 91.1068 49.2839 91.1562 48.4609 91.1562C46.7318 91.1562 45.3854 90.6432 44.4219 89.6172C43.4583 88.5859 42.9766 87.1432 42.9766 85.2891C42.9766 84.1016 43.2135 83.0625 43.6875 82.1719C44.1667 81.276 44.8542 80.5938 45.75 80.125C46.6458 79.651 47.6953 79.4141 48.8984 79.4141C50.1172 79.4141 51.2526 79.638 52.3047 80.0859L51.7891 81.2578C50.7578 80.8203 49.7656 80.6016 48.8125 80.6016C47.4219 80.6016 46.3359 81.0156 45.5547 81.8438C44.7734 82.6719 44.3828 83.8203 44.3828 85.2891C44.3828 86.8307 44.7578 88 45.5078 88.7969C46.263 89.5938 47.3698 89.9922 48.8281 89.9922C49.6198 89.9922 50.3932 89.901 51.1484 89.7188V86.2031H48.5938V85.0156ZM58.6484 91.1562C57.3828 91.1562 56.3828 90.7708 55.6484 90C54.9193 89.2292 54.5547 88.1589 54.5547 86.7891C54.5547 85.4089 54.8932 84.3125 55.5703 83.5C56.2526 82.6875 57.1667 82.2812 58.3125 82.2812C59.3854 82.2812 60.2344 82.6354 60.8594 83.3438C61.4844 84.0469 61.7969 84.9766 61.7969 86.1328V86.9531H55.8984C55.9245 87.9583 56.1771 88.7214 56.6562 89.2422C57.1406 89.763 57.8203 90.0234 58.6953 90.0234C59.6172 90.0234 60.5286 89.8307 61.4297 89.4453V90.6016C60.9714 90.7995 60.5365 90.9401 60.125 91.0234C59.7188 91.112 59.2266 91.1562 58.6484 91.1562ZM58.2969 83.3672C57.6094 83.3672 57.0599 83.5911 56.6484 84.0391C56.2422 84.487 56.0026 85.1068 55.9297 85.8984H60.4062C60.4062 85.0807 60.224 84.4557 59.8594 84.0234C59.4948 83.5859 58.974 83.3672 58.2969 83.3672ZM69.875 91V85.4609C69.875 84.763 69.7161 84.2422 69.3984 83.8984C69.0807 83.5547 68.5833 83.3828 67.9062 83.3828C67.0104 83.3828 66.3542 83.625 65.9375 84.1094C65.5208 84.5938 65.3125 85.3932 65.3125 86.5078V91H64.0156V82.4375H65.0703L65.2812 83.6094H65.3438C65.6094 83.1875 65.9818 82.862 66.4609 82.6328C66.9401 82.3984 67.474 82.2812 68.0625 82.2812C69.0938 82.2812 69.8698 82.5312 70.3906 83.0312C70.9115 83.526 71.1719 84.3203 71.1719 85.4141V91H69.875ZM75.1406 91H73.8438V82.4375H75.1406V91ZM73.7344 80.1172C73.7344 79.8203 73.8073 79.6042 73.9531 79.4688C74.099 79.3281 74.2812 79.2578 74.5 79.2578C74.7083 79.2578 74.888 79.3281 75.0391 79.4688C75.1901 79.6094 75.2656 79.8255 75.2656 80.1172C75.2656 80.4089 75.1901 80.6276 75.0391 80.7734C74.888 80.9141 74.7083 80.9844 74.5 80.9844C74.2812 80.9844 74.099 80.9141 73.9531 80.7734C73.8073 80.6276 73.7344 80.4089 73.7344 80.1172ZM85.2812 86.7109C85.2812 88.1068 84.9297 89.1979 84.2266 89.9844C83.5234 90.7656 82.5521 91.1562 81.3125 91.1562C80.5469 91.1562 79.8672 90.9766 79.2734 90.6172C78.6797 90.2578 78.2214 89.7422 77.8984 89.0703C77.5755 88.3984 77.4141 87.612 77.4141 86.7109C77.4141 85.3151 77.763 84.2292 78.4609 83.4531C79.1589 82.6719 80.1276 82.2812 81.3672 82.2812C82.5651 82.2812 83.5156 82.6797 84.2188 83.4766C84.9271 84.2734 85.2812 85.3516 85.2812 86.7109ZM78.7578 86.7109C78.7578 87.8047 78.9766 88.638 79.4141 89.2109C79.8516 89.7839 80.4948 90.0703 81.3438 90.0703C82.1927 90.0703 82.8359 89.7865 83.2734 89.2188C83.7161 88.6458 83.9375 87.8099 83.9375 86.7109C83.9375 85.6224 83.7161 84.7969 83.2734 84.2344C82.8359 83.6667 82.1875 83.3828 81.3281 83.3828C80.4792 83.3828 79.8385 83.6615 79.4062 84.2188C78.974 84.776 78.7578 85.6068 78.7578 86.7109ZM96.9844 91L96.7266 89.7812H96.6641C96.237 90.3177 95.8099 90.6823 95.3828 90.875C94.9609 91.0625 94.4323 91.1562 93.7969 91.1562C92.9479 91.1562 92.2812 90.9375 91.7969 90.5C91.3177 90.0625 91.0781 89.4401 91.0781 88.6328C91.0781 86.9036 92.4609 85.9974 95.2266 85.9141L96.6797 85.8672V85.3359C96.6797 84.6641 96.5339 84.1693 96.2422 83.8516C95.9557 83.5286 95.4948 83.3672 94.8594 83.3672C94.1458 83.3672 93.3385 83.5859 92.4375 84.0234L92.0391 83.0312C92.4609 82.8021 92.9219 82.6224 93.4219 82.4922C93.9271 82.362 94.4323 82.2969 94.9375 82.2969C95.9583 82.2969 96.7135 82.5234 97.2031 82.9766C97.6979 83.4297 97.9453 84.1562 97.9453 85.1562V91H96.9844ZM94.0547 90.0859C94.862 90.0859 95.4948 89.8646 95.9531 89.4219C96.4167 88.9792 96.6484 88.3594 96.6484 87.5625V86.7891L95.3516 86.8438C94.3203 86.8802 93.5755 87.0417 93.1172 87.3281C92.6641 87.6094 92.4375 88.0495 92.4375 88.6484C92.4375 89.1172 92.5781 89.474 92.8594 89.7188C93.1458 89.9635 93.5443 90.0859 94.0547 90.0859ZM101.844 82.4375V87.9922C101.844 88.6901 102.003 89.2109 102.32 89.5547C102.638 89.8984 103.135 90.0703 103.812 90.0703C104.708 90.0703 105.362 89.8255 105.773 89.3359C106.19 88.8464 106.398 88.0469 106.398 86.9375V82.4375H107.695V91H106.625L106.438 89.8516H106.367C106.102 90.2734 105.732 90.5964 105.258 90.8203C104.789 91.0443 104.253 91.1562 103.648 91.1562C102.607 91.1562 101.826 90.9089 101.305 90.4141C100.789 89.9193 100.531 89.1276 100.531 88.0391V82.4375H101.844ZM116.281 89.8516H116.211C115.612 90.7214 114.716 91.1562 113.523 91.1562C112.404 91.1562 111.531 90.7734 110.906 90.0078C110.286 89.2422 109.977 88.1536 109.977 86.7422C109.977 85.3307 110.289 84.2344 110.914 83.4531C111.539 82.6719 112.409 82.2812 113.523 82.2812C114.685 82.2812 115.576 82.7031 116.195 83.5469H116.297L116.242 82.9297L116.211 82.3281V78.8438H117.508V91H116.453L116.281 89.8516ZM113.688 90.0703C114.573 90.0703 115.214 89.8307 115.609 89.3516C116.01 88.8672 116.211 88.0885 116.211 87.0156V86.7422C116.211 85.5286 116.008 84.6641 115.602 84.1484C115.201 83.6276 114.557 83.3672 113.672 83.3672C112.911 83.3672 112.328 83.6641 111.922 84.2578C111.521 84.8464 111.32 85.6797 111.32 86.7578C111.32 87.8516 111.521 88.6771 111.922 89.2344C112.323 89.7917 112.911 90.0703 113.688 90.0703ZM121.562 91H120.266V82.4375H121.562V91ZM120.156 80.1172C120.156 79.8203 120.229 79.6042 120.375 79.4688C120.521 79.3281 120.703 79.2578 120.922 79.2578C121.13 79.2578 121.31 79.3281 121.461 79.4688C121.612 79.6094 121.688 79.8255 121.688 80.1172C121.688 80.4089 121.612 80.6276 121.461 80.7734C121.31 80.9141 121.13 80.9844 120.922 80.9844C120.703 80.9844 120.521 80.9141 120.375 80.7734C120.229 80.6276 120.156 80.4089 120.156 80.1172ZM127.078 90.0859C127.307 90.0859 127.529 90.0703 127.742 90.0391C127.956 90.0026 128.125 89.9661 128.25 89.9297V90.9219C128.109 90.9896 127.901 91.0443 127.625 91.0859C127.354 91.1328 127.109 91.1562 126.891 91.1562C125.234 91.1562 124.406 90.2839 124.406 88.5391V83.4453H123.18V82.8203L124.406 82.2812L124.953 80.4531H125.703V82.4375H128.188V83.4453H125.703V88.4844C125.703 89 125.826 89.3958 126.07 89.6719C126.315 89.9479 126.651 90.0859 127.078 90.0859ZM131.266 91H129.969V82.4375H131.266V91ZM129.859 80.1172C129.859 79.8203 129.932 79.6042 130.078 79.4688C130.224 79.3281 130.406 79.2578 130.625 79.2578C130.833 79.2578 131.013 79.3281 131.164 79.4688C131.315 79.6094 131.391 79.8255 131.391 80.1172C131.391 80.4089 131.315 80.6276 131.164 80.7734C131.013 80.9141 130.833 80.9844 130.625 80.9844C130.406 80.9844 130.224 80.9141 130.078 80.7734C129.932 80.6276 129.859 80.4089 129.859 80.1172ZM135.891 91L132.641 82.4375H134.031L135.875 87.5156C136.292 88.7031 136.536 89.474 136.609 89.8281H136.672C136.729 89.5521 136.909 88.9818 137.211 88.1172C137.518 87.2474 138.203 85.3542 139.266 82.4375H140.656L137.406 91H135.891ZM149.422 86.7109C149.422 88.1068 149.07 89.1979 148.367 89.9844C147.664 90.7656 146.693 91.1562 145.453 91.1562C144.688 91.1562 144.008 90.9766 143.414 90.6172C142.82 90.2578 142.362 89.7422 142.039 89.0703C141.716 88.3984 141.555 87.612 141.555 86.7109C141.555 85.3151 141.904 84.2292 142.602 83.4531C143.299 82.6719 144.268 82.2812 145.508 82.2812C146.706 82.2812 147.656 82.6797 148.359 83.4766C149.068 84.2734 149.422 85.3516 149.422 86.7109ZM142.898 86.7109C142.898 87.8047 143.117 88.638 143.555 89.2109C143.992 89.7839 144.635 90.0703 145.484 90.0703C146.333 90.0703 146.977 89.7865 147.414 89.2188C147.857 88.6458 148.078 87.8099 148.078 86.7109C148.078 85.6224 147.857 84.7969 147.414 84.2344C146.977 83.6667 146.328 83.3828 145.469 83.3828C144.62 83.3828 143.979 83.6615 143.547 84.2188C143.115 84.776 142.898 85.6068 142.898 86.7109Z" fill="#212429"/>
<path d="M48.4609 152.602C47.2057 152.602 46.2135 153.021 45.4844 153.859C44.7604 154.693 44.3984 155.836 44.3984 157.289C44.3984 158.784 44.7474 159.94 45.4453 160.758C46.1484 161.57 47.1484 161.977 48.4453 161.977C49.2422 161.977 50.151 161.833 51.1719 161.547V162.711C50.3802 163.008 49.4036 163.156 48.2422 163.156C46.5599 163.156 45.2604 162.646 44.3438 161.625C43.4323 160.604 42.9766 159.154 42.9766 157.273C42.9766 156.096 43.1953 155.065 43.6328 154.18C44.0755 153.294 44.7109 152.612 45.5391 152.133C46.3724 151.654 47.3516 151.414 48.4766 151.414C49.6745 151.414 50.7214 151.633 51.6172 152.07L51.0547 153.211C50.1901 152.805 49.3255 152.602 48.4609 152.602ZM58.7344 163L58.4766 161.781H58.4141C57.987 162.318 57.5599 162.682 57.1328 162.875C56.7109 163.062 56.1823 163.156 55.5469 163.156C54.6979 163.156 54.0312 162.938 53.5469 162.5C53.0677 162.062 52.8281 161.44 52.8281 160.633C52.8281 158.904 54.2109 157.997 56.9766 157.914L58.4297 157.867V157.336C58.4297 156.664 58.2839 156.169 57.9922 155.852C57.7057 155.529 57.2448 155.367 56.6094 155.367C55.8958 155.367 55.0885 155.586 54.1875 156.023L53.7891 155.031C54.2109 154.802 54.6719 154.622 55.1719 154.492C55.6771 154.362 56.1823 154.297 56.6875 154.297C57.7083 154.297 58.4635 154.523 58.9531 154.977C59.4479 155.43 59.6953 156.156 59.6953 157.156V163H58.7344ZM55.8047 162.086C56.612 162.086 57.2448 161.865 57.7031 161.422C58.1667 160.979 58.3984 160.359 58.3984 159.562V158.789L57.1016 158.844C56.0703 158.88 55.3255 159.042 54.8672 159.328C54.4141 159.609 54.1875 160.049 54.1875 160.648C54.1875 161.117 54.3281 161.474 54.6094 161.719C54.8958 161.964 55.2943 162.086 55.8047 162.086ZM73.2891 163V157.43C73.2891 156.747 73.1432 156.237 72.8516 155.898C72.5599 155.555 72.1068 155.383 71.4922 155.383C70.6849 155.383 70.0885 155.615 69.7031 156.078C69.3177 156.542 69.125 157.255 69.125 158.219V163H67.8281V157.43C67.8281 156.747 67.6823 156.237 67.3906 155.898C67.099 155.555 66.6432 155.383 66.0234 155.383C65.2109 155.383 64.6146 155.628 64.2344 156.117C63.8594 156.602 63.6719 157.398 63.6719 158.508V163H62.375V154.438H63.4297L63.6406 155.609H63.7031C63.9479 155.193 64.2917 154.867 64.7344 154.633C65.1823 154.398 65.6823 154.281 66.2344 154.281C67.5729 154.281 68.4479 154.766 68.8594 155.734H68.9219C69.1771 155.286 69.5469 154.932 70.0312 154.672C70.5156 154.411 71.0677 154.281 71.6875 154.281C72.6562 154.281 73.3802 154.531 73.8594 155.031C74.3438 155.526 74.5859 156.32 74.5859 157.414V163H73.2891ZM82.5312 163L82.2734 161.781H82.2109C81.7839 162.318 81.3568 162.682 80.9297 162.875C80.5078 163.062 79.9792 163.156 79.3438 163.156C78.4948 163.156 77.8281 162.938 77.3438 162.5C76.8646 162.062 76.625 161.44 76.625 160.633C76.625 158.904 78.0078 157.997 80.7734 157.914L82.2266 157.867V157.336C82.2266 156.664 82.0807 156.169 81.7891 155.852C81.5026 155.529 81.0417 155.367 80.4062 155.367C79.6927 155.367 78.8854 155.586 77.9844 156.023L77.5859 155.031C78.0078 154.802 78.4688 154.622 78.9688 154.492C79.474 154.362 79.9792 154.297 80.4844 154.297C81.5052 154.297 82.2604 154.523 82.75 154.977C83.2448 155.43 83.4922 156.156 83.4922 157.156V163H82.5312ZM79.6016 162.086C80.4089 162.086 81.0417 161.865 81.5 161.422C81.9635 160.979 82.1953 160.359 82.1953 159.562V158.789L80.8984 158.844C79.8672 158.88 79.1224 159.042 78.6641 159.328C78.2109 159.609 77.9844 160.049 77.9844 160.648C77.9844 161.117 78.125 161.474 78.4062 161.719C78.6927 161.964 79.0911 162.086 79.6016 162.086ZM87.4688 163H86.1719V150.844H87.4688V163ZM93.8359 163.156C92.5703 163.156 91.5703 162.771 90.8359 162C90.1068 161.229 89.7422 160.159 89.7422 158.789C89.7422 157.409 90.0807 156.312 90.7578 155.5C91.4401 154.688 92.3542 154.281 93.5 154.281C94.5729 154.281 95.4219 154.635 96.0469 155.344C96.6719 156.047 96.9844 156.977 96.9844 158.133V158.953H91.0859C91.112 159.958 91.3646 160.721 91.8438 161.242C92.3281 161.763 93.0078 162.023 93.8828 162.023C94.8047 162.023 95.7161 161.831 96.6172 161.445V162.602C96.1589 162.799 95.724 162.94 95.3125 163.023C94.9062 163.112 94.4141 163.156 93.8359 163.156ZM93.4844 155.367C92.7969 155.367 92.2474 155.591 91.8359 156.039C91.4297 156.487 91.1901 157.107 91.1172 157.898H95.5938C95.5938 157.081 95.4115 156.456 95.0469 156.023C94.6823 155.586 94.1615 155.367 93.4844 155.367ZM106.594 158.711C106.594 160.107 106.242 161.198 105.539 161.984C104.836 162.766 103.865 163.156 102.625 163.156C101.859 163.156 101.18 162.977 100.586 162.617C99.9922 162.258 99.5339 161.742 99.2109 161.07C98.888 160.398 98.7266 159.612 98.7266 158.711C98.7266 157.315 99.0755 156.229 99.7734 155.453C100.471 154.672 101.44 154.281 102.68 154.281C103.878 154.281 104.828 154.68 105.531 155.477C106.24 156.273 106.594 157.352 106.594 158.711ZM100.07 158.711C100.07 159.805 100.289 160.638 100.727 161.211C101.164 161.784 101.807 162.07 102.656 162.07C103.505 162.07 104.148 161.786 104.586 161.219C105.029 160.646 105.25 159.81 105.25 158.711C105.25 157.622 105.029 156.797 104.586 156.234C104.148 155.667 103.5 155.383 102.641 155.383C101.792 155.383 101.151 155.661 100.719 156.219C100.286 156.776 100.07 157.607 100.07 158.711ZM101.57 153.109C101.82 152.786 102.089 152.396 102.375 151.938C102.667 151.479 102.896 151.081 103.062 150.742H104.641V150.906C104.411 151.245 104.07 151.661 103.617 152.156C103.164 152.651 102.771 153.034 102.438 153.305H101.57V153.109ZM114.734 163V157.461C114.734 156.763 114.576 156.242 114.258 155.898C113.94 155.555 113.443 155.383 112.766 155.383C111.87 155.383 111.214 155.625 110.797 156.109C110.38 156.594 110.172 157.393 110.172 158.508V163H108.875V154.438H109.93L110.141 155.609H110.203C110.469 155.188 110.841 154.862 111.32 154.633C111.799 154.398 112.333 154.281 112.922 154.281C113.953 154.281 114.729 154.531 115.25 155.031C115.771 155.526 116.031 156.32 116.031 157.414V163H114.734ZM128.125 163L127.867 161.781H127.805C127.378 162.318 126.951 162.682 126.523 162.875C126.102 163.062 125.573 163.156 124.938 163.156C124.089 163.156 123.422 162.938 122.938 162.5C122.458 162.062 122.219 161.44 122.219 160.633C122.219 158.904 123.602 157.997 126.367 157.914L127.82 157.867V157.336C127.82 156.664 127.674 156.169 127.383 155.852C127.096 155.529 126.635 155.367 126 155.367C125.286 155.367 124.479 155.586 123.578 156.023L123.18 155.031C123.602 154.802 124.062 154.622 124.562 154.492C125.068 154.362 125.573 154.297 126.078 154.297C127.099 154.297 127.854 154.523 128.344 154.977C128.839 155.43 129.086 156.156 129.086 157.156V163H128.125ZM125.195 162.086C126.003 162.086 126.635 161.865 127.094 161.422C127.557 160.979 127.789 160.359 127.789 159.562V158.789L126.492 158.844C125.461 158.88 124.716 159.042 124.258 159.328C123.805 159.609 123.578 160.049 123.578 160.648C123.578 161.117 123.719 161.474 124 161.719C124.286 161.964 124.685 162.086 125.195 162.086ZM132.984 154.438V159.992C132.984 160.69 133.143 161.211 133.461 161.555C133.779 161.898 134.276 162.07 134.953 162.07C135.849 162.07 136.503 161.826 136.914 161.336C137.331 160.846 137.539 160.047 137.539 158.938V154.438H138.836V163H137.766L137.578 161.852H137.508C137.242 162.273 136.872 162.596 136.398 162.82C135.93 163.044 135.393 163.156 134.789 163.156C133.747 163.156 132.966 162.909 132.445 162.414C131.93 161.919 131.672 161.128 131.672 160.039V154.438H132.984ZM147.422 161.852H147.352C146.753 162.721 145.857 163.156 144.664 163.156C143.544 163.156 142.672 162.773 142.047 162.008C141.427 161.242 141.117 160.154 141.117 158.742C141.117 157.331 141.43 156.234 142.055 155.453C142.68 154.672 143.549 154.281 144.664 154.281C145.826 154.281 146.716 154.703 147.336 155.547H147.438L147.383 154.93L147.352 154.328V150.844H148.648V163H147.594L147.422 161.852ZM144.828 162.07C145.714 162.07 146.354 161.831 146.75 161.352C147.151 160.867 147.352 160.089 147.352 159.016V158.742C147.352 157.529 147.148 156.664 146.742 156.148C146.341 155.628 145.698 155.367 144.812 155.367C144.052 155.367 143.469 155.664 143.062 156.258C142.661 156.846 142.461 157.68 142.461 158.758C142.461 159.852 142.661 160.677 143.062 161.234C143.464 161.792 144.052 162.07 144.828 162.07ZM156.672 163L156.414 161.781H156.352C155.924 162.318 155.497 162.682 155.07 162.875C154.648 163.062 154.12 163.156 153.484 163.156C152.635 163.156 151.969 162.938 151.484 162.5C151.005 162.062 150.766 161.44 150.766 160.633C150.766 158.904 152.148 157.997 154.914 157.914L156.367 157.867V157.336C156.367 156.664 156.221 156.169 155.93 155.852C155.643 155.529 155.182 155.367 154.547 155.367C153.833 155.367 153.026 155.586 152.125 156.023L151.727 155.031C152.148 154.802 152.609 154.622 153.109 154.492C153.615 154.362 154.12 154.297 154.625 154.297C155.646 154.297 156.401 154.523 156.891 154.977C157.385 155.43 157.633 156.156 157.633 157.156V163H156.672ZM153.742 162.086C154.549 162.086 155.182 161.865 155.641 161.422C156.104 160.979 156.336 160.359 156.336 159.562V158.789L155.039 158.844C154.008 158.88 153.263 159.042 152.805 159.328C152.352 159.609 152.125 160.049 152.125 160.648C152.125 161.117 152.266 161.474 152.547 161.719C152.833 161.964 153.232 162.086 153.742 162.086ZM165.789 163H159.578V162.117L164.25 155.445H159.867V154.438H165.672V155.445L161.062 161.992H165.789V163Z" fill="#212429"/>
<path d="M48.4609 116.602C47.2057 116.602 46.2135 117.021 45.4844 117.859C44.7604 118.693 44.3984 119.836 44.3984 121.289C44.3984 122.784 44.7474 123.94 45.4453 124.758C46.1484 125.57 47.1484 125.977 48.4453 125.977C49.2422 125.977 50.151 125.833 51.1719 125.547V126.711C50.3802 127.008 49.4036 127.156 48.2422 127.156C46.5599 127.156 45.2604 126.646 44.3438 125.625C43.4323 124.604 42.9766 123.154 42.9766 121.273C42.9766 120.096 43.1953 119.065 43.6328 118.18C44.0755 117.294 44.7109 116.612 45.5391 116.133C46.3724 115.654 47.3516 115.414 48.4766 115.414C49.6745 115.414 50.7214 115.633 51.6172 116.07L51.0547 117.211C50.1901 116.805 49.3255 116.602 48.4609 116.602ZM58.7344 127L58.4766 125.781H58.4141C57.987 126.318 57.5599 126.682 57.1328 126.875C56.7109 127.062 56.1823 127.156 55.5469 127.156C54.6979 127.156 54.0312 126.938 53.5469 126.5C53.0677 126.062 52.8281 125.44 52.8281 124.633C52.8281 122.904 54.2109 121.997 56.9766 121.914L58.4297 121.867V121.336C58.4297 120.664 58.2839 120.169 57.9922 119.852C57.7057 119.529 57.2448 119.367 56.6094 119.367C55.8958 119.367 55.0885 119.586 54.1875 120.023L53.7891 119.031C54.2109 118.802 54.6719 118.622 55.1719 118.492C55.6771 118.362 56.1823 118.297 56.6875 118.297C57.7083 118.297 58.4635 118.523 58.9531 118.977C59.4479 119.43 59.6953 120.156 59.6953 121.156V127H58.7344ZM55.8047 126.086C56.612 126.086 57.2448 125.865 57.7031 125.422C58.1667 124.979 58.3984 124.359 58.3984 123.562V122.789L57.1016 122.844C56.0703 122.88 55.3255 123.042 54.8672 123.328C54.4141 123.609 54.1875 124.049 54.1875 124.648C54.1875 125.117 54.3281 125.474 54.6094 125.719C54.8958 125.964 55.2943 126.086 55.8047 126.086ZM65.1406 126.086C65.3698 126.086 65.5911 126.07 65.8047 126.039C66.0182 126.003 66.1875 125.966 66.3125 125.93V126.922C66.1719 126.99 65.9635 127.044 65.6875 127.086C65.4167 127.133 65.1719 127.156 64.9531 127.156C63.2969 127.156 62.4688 126.284 62.4688 124.539V119.445H61.2422V118.82L62.4688 118.281L63.0156 116.453H63.7656V118.438H66.25V119.445H63.7656V124.484C63.7656 125 63.888 125.396 64.1328 125.672C64.3776 125.948 64.7135 126.086 65.1406 126.086ZM73.2969 127L73.0391 125.781H72.9766C72.5495 126.318 72.1224 126.682 71.6953 126.875C71.2734 127.062 70.7448 127.156 70.1094 127.156C69.2604 127.156 68.5938 126.938 68.1094 126.5C67.6302 126.062 67.3906 125.44 67.3906 124.633C67.3906 122.904 68.7734 121.997 71.5391 121.914L72.9922 121.867V121.336C72.9922 120.664 72.8464 120.169 72.5547 119.852C72.2682 119.529 71.8073 119.367 71.1719 119.367C70.4583 119.367 69.651 119.586 68.75 120.023L68.3516 119.031C68.7734 118.802 69.2344 118.622 69.7344 118.492C70.2396 118.362 70.7448 118.297 71.25 118.297C72.2708 118.297 73.026 118.523 73.5156 118.977C74.0104 119.43 74.2578 120.156 74.2578 121.156V127H73.2969ZM70.3672 126.086C71.1745 126.086 71.8073 125.865 72.2656 125.422C72.7292 124.979 72.9609 124.359 72.9609 123.562V122.789L71.6641 122.844C70.6328 122.88 69.888 123.042 69.4297 123.328C68.9766 123.609 68.75 124.049 68.75 124.648C68.75 125.117 68.8906 125.474 69.1719 125.719C69.4583 125.964 69.8568 126.086 70.3672 126.086ZM82.7656 125.852H82.6953C82.0964 126.721 81.2005 127.156 80.0078 127.156C78.888 127.156 78.0156 126.773 77.3906 126.008C76.7708 125.242 76.4609 124.154 76.4609 122.742C76.4609 121.331 76.7734 120.234 77.3984 119.453C78.0234 118.672 78.8932 118.281 80.0078 118.281C81.1693 118.281 82.0599 118.703 82.6797 119.547H82.7812L82.7266 118.93L82.6953 118.328V114.844H83.9922V127H82.9375L82.7656 125.852ZM80.1719 126.07C81.0573 126.07 81.6979 125.831 82.0938 125.352C82.4948 124.867 82.6953 124.089 82.6953 123.016V122.742C82.6953 121.529 82.4922 120.664 82.0859 120.148C81.6849 119.628 81.0417 119.367 80.1562 119.367C79.3958 119.367 78.8125 119.664 78.4062 120.258C78.0052 120.846 77.8047 121.68 77.8047 122.758C77.8047 123.852 78.0052 124.677 78.4062 125.234C78.8073 125.792 79.3958 126.07 80.1719 126.07ZM94.1406 122.711C94.1406 124.107 93.7891 125.198 93.0859 125.984C92.3828 126.766 91.4115 127.156 90.1719 127.156C89.4062 127.156 88.7266 126.977 88.1328 126.617C87.5391 126.258 87.0807 125.742 86.7578 125.07C86.4349 124.398 86.2734 123.612 86.2734 122.711C86.2734 121.315 86.6224 120.229 87.3203 119.453C88.0182 118.672 88.987 118.281 90.2266 118.281C91.4245 118.281 92.375 118.68 93.0781 119.477C93.7865 120.273 94.1406 121.352 94.1406 122.711ZM87.6172 122.711C87.6172 123.805 87.8359 124.638 88.2734 125.211C88.7109 125.784 89.3542 126.07 90.2031 126.07C91.0521 126.07 91.6953 125.786 92.1328 125.219C92.5755 124.646 92.7969 123.81 92.7969 122.711C92.7969 121.622 92.5755 120.797 92.1328 120.234C91.6953 119.667 91.0469 119.383 90.1875 119.383C89.3385 119.383 88.6979 119.661 88.2656 120.219C87.8333 120.776 87.6172 121.607 87.6172 122.711ZM100.328 118.281C100.708 118.281 101.049 118.312 101.352 118.375L101.172 119.578C100.818 119.5 100.505 119.461 100.234 119.461C99.5417 119.461 98.9479 119.742 98.4531 120.305C97.9635 120.867 97.7188 121.568 97.7188 122.406V127H96.4219V118.438H97.4922L97.6406 120.023H97.7031C98.0208 119.466 98.4036 119.036 98.8516 118.734C99.2995 118.432 99.7917 118.281 100.328 118.281ZM110.727 127.156C109.461 127.156 108.461 126.771 107.727 126C106.997 125.229 106.633 124.159 106.633 122.789C106.633 121.409 106.971 120.312 107.648 119.5C108.331 118.688 109.245 118.281 110.391 118.281C111.464 118.281 112.312 118.635 112.938 119.344C113.562 120.047 113.875 120.977 113.875 122.133V122.953H107.977C108.003 123.958 108.255 124.721 108.734 125.242C109.219 125.763 109.898 126.023 110.773 126.023C111.695 126.023 112.607 125.831 113.508 125.445V126.602C113.049 126.799 112.615 126.94 112.203 127.023C111.797 127.112 111.305 127.156 110.727 127.156ZM110.375 119.367C109.688 119.367 109.138 119.591 108.727 120.039C108.32 120.487 108.081 121.107 108.008 121.898H112.484C112.484 121.081 112.302 120.456 111.938 120.023C111.573 119.586 111.052 119.367 110.375 119.367ZM118.156 122.617L115.18 118.438H116.656L118.914 121.719L121.164 118.438H122.625L119.648 122.617L122.781 127H121.312L118.914 123.531L116.492 127H115.023L118.156 122.617ZM128.469 127.156C127.911 127.156 127.401 127.055 126.938 126.852C126.479 126.643 126.094 126.326 125.781 125.898H125.688C125.75 126.398 125.781 126.872 125.781 127.32V130.844H124.484V118.438H125.539L125.719 119.609H125.781C126.115 119.141 126.503 118.802 126.945 118.594C127.388 118.385 127.896 118.281 128.469 118.281C129.604 118.281 130.479 118.669 131.094 119.445C131.714 120.221 132.023 121.31 132.023 122.711C132.023 124.117 131.708 125.211 131.078 125.992C130.453 126.768 129.583 127.156 128.469 127.156ZM128.281 119.383C127.406 119.383 126.773 119.625 126.383 120.109C125.992 120.594 125.792 121.365 125.781 122.422V122.711C125.781 123.914 125.982 124.776 126.383 125.297C126.784 125.812 127.427 126.07 128.312 126.07C129.052 126.07 129.63 125.771 130.047 125.172C130.469 124.573 130.68 123.747 130.68 122.695C130.68 121.628 130.469 120.81 130.047 120.242C129.63 119.669 129.042 119.383 128.281 119.383ZM137.914 127.156C136.648 127.156 135.648 126.771 134.914 126C134.185 125.229 133.82 124.159 133.82 122.789C133.82 121.409 134.159 120.312 134.836 119.5C135.518 118.688 136.432 118.281 137.578 118.281C138.651 118.281 139.5 118.635 140.125 119.344C140.75 120.047 141.062 120.977 141.062 122.133V122.953H135.164C135.19 123.958 135.443 124.721 135.922 125.242C136.406 125.763 137.086 126.023 137.961 126.023C138.883 126.023 139.794 125.831 140.695 125.445V126.602C140.237 126.799 139.802 126.94 139.391 127.023C138.984 127.112 138.492 127.156 137.914 127.156ZM137.562 119.367C136.875 119.367 136.326 119.591 135.914 120.039C135.508 120.487 135.268 121.107 135.195 121.898H139.672C139.672 121.081 139.49 120.456 139.125 120.023C138.76 119.586 138.24 119.367 137.562 119.367ZM147.188 118.281C147.568 118.281 147.909 118.312 148.211 118.375L148.031 119.578C147.677 119.5 147.365 119.461 147.094 119.461C146.401 119.461 145.807 119.742 145.312 120.305C144.823 120.867 144.578 121.568 144.578 122.406V127H143.281V118.438H144.352L144.5 120.023H144.562C144.88 119.466 145.263 119.036 145.711 118.734C146.159 118.432 146.651 118.281 147.188 118.281ZM152.578 126.086C152.807 126.086 153.029 126.07 153.242 126.039C153.456 126.003 153.625 125.966 153.75 125.93V126.922C153.609 126.99 153.401 127.044 153.125 127.086C152.854 127.133 152.609 127.156 152.391 127.156C150.734 127.156 149.906 126.284 149.906 124.539V119.445H148.68V118.82L149.906 118.281L150.453 116.453H151.203V118.438H153.688V119.445H151.203V124.484C151.203 125 151.326 125.396 151.57 125.672C151.815 125.948 152.151 126.086 152.578 126.086ZM162.859 122.711C162.859 124.107 162.508 125.198 161.805 125.984C161.102 126.766 160.13 127.156 158.891 127.156C158.125 127.156 157.445 126.977 156.852 126.617C156.258 126.258 155.799 125.742 155.477 125.07C155.154 124.398 154.992 123.612 154.992 122.711C154.992 121.315 155.341 120.229 156.039 119.453C156.737 118.672 157.706 118.281 158.945 118.281C160.143 118.281 161.094 118.68 161.797 119.477C162.505 120.273 162.859 121.352 162.859 122.711ZM156.336 122.711C156.336 123.805 156.555 124.638 156.992 125.211C157.43 125.784 158.073 126.07 158.922 126.07C159.771 126.07 160.414 125.786 160.852 125.219C161.294 124.646 161.516 123.81 161.516 122.711C161.516 121.622 161.294 120.797 160.852 120.234C160.414 119.667 159.766 119.383 158.906 119.383C158.057 119.383 157.417 119.661 156.984 120.219C156.552 120.776 156.336 121.607 156.336 122.711Z" fill="#212429"/>
<path d="M51.5938 200.016H55.4766V205.57C54.8724 205.763 54.2578 205.909 53.6328 206.008C53.0078 206.107 52.2839 206.156 51.4609 206.156C49.7318 206.156 48.3854 205.643 47.4219 204.617C46.4583 203.586 45.9766 202.143 45.9766 200.289C45.9766 199.102 46.2135 198.062 46.6875 197.172C47.1667 196.276 47.8542 195.594 48.75 195.125C49.6458 194.651 50.6953 194.414 51.8984 194.414C53.1172 194.414 54.2526 194.638 55.3047 195.086L54.7891 196.258C53.7578 195.82 52.7656 195.602 51.8125 195.602C50.4219 195.602 49.3359 196.016 48.5547 196.844C47.7734 197.672 47.3828 198.82 47.3828 200.289C47.3828 201.831 47.7578 203 48.5078 203.797C49.263 204.594 50.3698 204.992 51.8281 204.992C52.6198 204.992 53.3932 204.901 54.1484 204.719V201.203H51.5938V200.016ZM59.25 197.438V202.992C59.25 203.69 59.4089 204.211 59.7266 204.555C60.0443 204.898 60.5417 205.07 61.2188 205.07C62.1146 205.07 62.7682 204.826 63.1797 204.336C63.5964 203.846 63.8047 203.047 63.8047 201.938V197.438H65.1016V206H64.0312L63.8438 204.852H63.7734C63.5078 205.273 63.138 205.596 62.6641 205.82C62.1953 206.044 61.6589 206.156 61.0547 206.156C60.013 206.156 59.2318 205.909 58.7109 205.414C58.1953 204.919 57.9375 204.128 57.9375 203.039V197.438H59.25ZM71.7656 197.281C72.1458 197.281 72.487 197.312 72.7891 197.375L72.6094 198.578C72.2552 198.5 71.9427 198.461 71.6719 198.461C70.9792 198.461 70.3854 198.742 69.8906 199.305C69.401 199.867 69.1562 200.568 69.1562 201.406V206H67.8594V197.438H68.9297L69.0781 199.023H69.1406C69.4583 198.466 69.8411 198.036 70.2891 197.734C70.737 197.432 71.2292 197.281 71.7656 197.281ZM75.6094 197.438V202.992C75.6094 203.69 75.7682 204.211 76.0859 204.555C76.4036 204.898 76.901 205.07 77.5781 205.07C78.474 205.07 79.1276 204.826 79.5391 204.336C79.9557 203.846 80.1641 203.047 80.1641 201.938V197.438H81.4609V206H80.3906L80.2031 204.852H80.1328C79.8672 205.273 79.4974 205.596 79.0234 205.82C78.5547 206.044 78.0182 206.156 77.4141 206.156C76.3724 206.156 75.5911 205.909 75.0703 205.414C74.5547 204.919 74.2969 204.128 74.2969 203.039V197.438H75.6094ZM76.9688 196.109C77.2188 195.786 77.487 195.396 77.7734 194.938C78.0651 194.479 78.2943 194.081 78.4609 193.742H80.0391V193.906C79.8099 194.245 79.4688 194.661 79.0156 195.156C78.5625 195.651 78.1693 196.034 77.8359 196.305H76.9688V196.109ZM93.8984 203.664C93.8984 204.461 93.6016 205.076 93.0078 205.508C92.4141 205.94 91.5807 206.156 90.5078 206.156C89.3724 206.156 88.487 205.977 87.8516 205.617V204.414C88.263 204.622 88.7031 204.786 89.1719 204.906C89.6458 205.026 90.1016 205.086 90.5391 205.086C91.2161 205.086 91.737 204.979 92.1016 204.766C92.4661 204.547 92.6484 204.216 92.6484 203.773C92.6484 203.44 92.5026 203.156 92.2109 202.922C91.9245 202.682 91.362 202.401 90.5234 202.078C89.7266 201.781 89.1589 201.523 88.8203 201.305C88.487 201.081 88.237 200.828 88.0703 200.547C87.9089 200.266 87.8281 199.93 87.8281 199.539C87.8281 198.841 88.112 198.292 88.6797 197.891C89.2474 197.484 90.026 197.281 91.0156 197.281C91.9375 197.281 92.8385 197.469 93.7188 197.844L93.2578 198.898C92.3984 198.544 91.6198 198.367 90.9219 198.367C90.3073 198.367 89.8438 198.464 89.5312 198.656C89.2188 198.849 89.0625 199.115 89.0625 199.453C89.0625 199.682 89.1198 199.878 89.2344 200.039C89.3542 200.201 89.5443 200.354 89.8047 200.5C90.0651 200.646 90.5651 200.857 91.3047 201.133C92.3203 201.503 93.0052 201.875 93.3594 202.25C93.7188 202.625 93.8984 203.096 93.8984 203.664ZM99.6328 206.156C98.3672 206.156 97.3672 205.771 96.6328 205C95.9036 204.229 95.5391 203.159 95.5391 201.789C95.5391 200.409 95.8776 199.312 96.5547 198.5C97.237 197.688 98.151 197.281 99.2969 197.281C100.37 197.281 101.219 197.635 101.844 198.344C102.469 199.047 102.781 199.977 102.781 201.133V201.953H96.8828C96.9089 202.958 97.1615 203.721 97.6406 204.242C98.125 204.763 98.8047 205.023 99.6797 205.023C100.602 205.023 101.513 204.831 102.414 204.445V205.602C101.956 205.799 101.521 205.94 101.109 206.023C100.703 206.112 100.211 206.156 99.6328 206.156ZM99.2812 198.367C98.5938 198.367 98.0443 198.591 97.6328 199.039C97.2266 199.487 96.987 200.107 96.9141 200.898H101.391C101.391 200.081 101.208 199.456 100.844 199.023C100.479 198.586 99.9583 198.367 99.2812 198.367ZM110.859 206V200.461C110.859 199.763 110.701 199.242 110.383 198.898C110.065 198.555 109.568 198.383 108.891 198.383C107.995 198.383 107.339 198.625 106.922 199.109C106.505 199.594 106.297 200.393 106.297 201.508V206H105V197.438H106.055L106.266 198.609H106.328C106.594 198.188 106.966 197.862 107.445 197.633C107.924 197.398 108.458 197.281 109.047 197.281C110.078 197.281 110.854 197.531 111.375 198.031C111.896 198.526 112.156 199.32 112.156 200.414V206H110.859ZM120.352 203.664C120.352 204.461 120.055 205.076 119.461 205.508C118.867 205.94 118.034 206.156 116.961 206.156C115.826 206.156 114.94 205.977 114.305 205.617V204.414C114.716 204.622 115.156 204.786 115.625 204.906C116.099 205.026 116.555 205.086 116.992 205.086C117.669 205.086 118.19 204.979 118.555 204.766C118.919 204.547 119.102 204.216 119.102 203.773C119.102 203.44 118.956 203.156 118.664 202.922C118.378 202.682 117.815 202.401 116.977 202.078C116.18 201.781 115.612 201.523 115.273 201.305C114.94 201.081 114.69 200.828 114.523 200.547C114.362 200.266 114.281 199.93 114.281 199.539C114.281 198.841 114.565 198.292 115.133 197.891C115.701 197.484 116.479 197.281 117.469 197.281C118.391 197.281 119.292 197.469 120.172 197.844L119.711 198.898C118.852 198.544 118.073 198.367 117.375 198.367C116.76 198.367 116.297 198.464 115.984 198.656C115.672 198.849 115.516 199.115 115.516 199.453C115.516 199.682 115.573 199.878 115.688 200.039C115.807 200.201 115.997 200.354 116.258 200.5C116.518 200.646 117.018 200.857 117.758 201.133C118.773 201.503 119.458 201.875 119.812 202.25C120.172 202.625 120.352 203.096 120.352 203.664ZM129.859 201.711C129.859 203.107 129.508 204.198 128.805 204.984C128.102 205.766 127.13 206.156 125.891 206.156C125.125 206.156 124.445 205.977 123.852 205.617C123.258 205.258 122.799 204.742 122.477 204.07C122.154 203.398 121.992 202.612 121.992 201.711C121.992 200.315 122.341 199.229 123.039 198.453C123.737 197.672 124.706 197.281 125.945 197.281C127.143 197.281 128.094 197.68 128.797 198.477C129.505 199.273 129.859 200.352 129.859 201.711ZM123.336 201.711C123.336 202.805 123.555 203.638 123.992 204.211C124.43 204.784 125.073 205.07 125.922 205.07C126.771 205.07 127.414 204.786 127.852 204.219C128.294 203.646 128.516 202.81 128.516 201.711C128.516 200.622 128.294 199.797 127.852 199.234C127.414 198.667 126.766 198.383 125.906 198.383C125.057 198.383 124.417 198.661 123.984 199.219C123.552 199.776 123.336 200.607 123.336 201.711ZM136.047 197.281C136.427 197.281 136.768 197.312 137.07 197.375L136.891 198.578C136.536 198.5 136.224 198.461 135.953 198.461C135.26 198.461 134.667 198.742 134.172 199.305C133.682 199.867 133.438 200.568 133.438 201.406V206H132.141V197.438H133.211L133.359 199.023H133.422C133.74 198.466 134.122 198.036 134.57 197.734C135.018 197.432 135.51 197.281 136.047 197.281ZM139.969 206H138.672V197.438H139.969V206ZM138.562 195.117C138.562 194.82 138.635 194.604 138.781 194.469C138.927 194.328 139.109 194.258 139.328 194.258C139.536 194.258 139.716 194.328 139.867 194.469C140.018 194.609 140.094 194.826 140.094 195.117C140.094 195.409 140.018 195.628 139.867 195.773C139.716 195.914 139.536 195.984 139.328 195.984C139.109 195.984 138.927 195.914 138.781 195.773C138.635 195.628 138.562 195.409 138.562 195.117ZM147.984 206L147.727 204.781H147.664C147.237 205.318 146.81 205.682 146.383 205.875C145.961 206.062 145.432 206.156 144.797 206.156C143.948 206.156 143.281 205.938 142.797 205.5C142.318 205.062 142.078 204.44 142.078 203.633C142.078 201.904 143.461 200.997 146.227 200.914L147.68 200.867V200.336C147.68 199.664 147.534 199.169 147.242 198.852C146.956 198.529 146.495 198.367 145.859 198.367C145.146 198.367 144.339 198.586 143.438 199.023L143.039 198.031C143.461 197.802 143.922 197.622 144.422 197.492C144.927 197.362 145.432 197.297 145.938 197.297C146.958 197.297 147.714 197.523 148.203 197.977C148.698 198.43 148.945 199.156 148.945 200.156V206H147.984ZM145.055 205.086C145.862 205.086 146.495 204.865 146.953 204.422C147.417 203.979 147.648 203.359 147.648 202.562V201.789L146.352 201.844C145.32 201.88 144.576 202.042 144.117 202.328C143.664 202.609 143.438 203.049 143.438 203.648C143.438 204.117 143.578 204.474 143.859 204.719C144.146 204.964 144.544 205.086 145.055 205.086ZM152.922 206H151.625V193.844H152.922V206Z" fill="#212429"/>
<defs>
<clipPath id="clip0">
<rect width="24" height="24" fill="white" transform="translate(6 1)"/>
</clipPath>
<clipPath id="clip1">
<rect width="24" height="24" fill="white" transform="translate(6 37)"/>
</clipPath>
<clipPath id="clip2">
<rect width="24" height="24" fill="white" transform="translate(6 73)"/>
</clipPath>
<clipPath id="clip3">
<rect width="24" height="24" fill="white" transform="translate(6 109)"/>
</clipPath>
<clipPath id="clip4">
<rect width="24" height="24" fill="white" transform="translate(6 145)"/>
</clipPath>
</defs>
</svg>
