<svg width="50" height="50" viewBox="0 0 50 50" fill="none" xmlns="http://www.w3.org/2000/svg">
<path d="M43.8243 11.7081C43.8626 11.7568 43.9199 11.7824 43.9778 11.7824C44.0196 11.7824 44.0617 11.769 44.0972 11.7416C44.432 11.4825 44.6241 11.0928 44.6241 10.6721C44.6241 9.92453 44.0109 9.31641 43.2574 9.31641C42.5037 9.31641 41.8906 9.92453 41.8906 10.6721V11.0133C41.8906 11.1199 41.9777 11.2062 42.0851 11.2062C42.1727 11.2062 42.2467 11.1489 42.2711 11.0699C42.2766 11.0521 42.2796 11.033 42.2796 11.0133V10.6721C42.2796 10.1373 42.7182 9.70223 43.2574 9.70223C43.7965 9.70223 44.2351 10.1373 44.2351 10.6721C44.2351 10.6877 44.2346 10.7033 44.2339 10.7188H43.8933C43.5076 10.7188 43.1794 10.967 43.062 11.3107C43.032 11.3983 43.0155 11.4919 43.0155 11.5895C43.0155 12.0695 43.4093 12.4601 43.8933 12.4601C44.0007 12.4601 44.0878 12.3737 44.0878 12.2672C44.0878 12.1607 44.0007 12.0742 43.8933 12.0742C43.6238 12.0742 43.4045 11.8568 43.4045 11.5895C43.4045 11.5313 43.4149 11.4756 43.4339 11.4239C43.5022 11.2378 43.6823 11.1046 43.8933 11.1046H44.1331C44.0688 11.2325 43.9758 11.3462 43.858 11.4373C43.8253 11.4627 43.8031 11.4963 43.7918 11.5329C43.7739 11.591 43.7837 11.6565 43.8243 11.7081Z" fill="#2FDDD0"/>
<path d="M43.2552 8.22559C41.8652 8.22559 40.7344 9.34724 40.7344 10.726C40.7344 11.6418 41.2403 12.4802 42.0399 12.917C41.9571 13.0922 41.914 13.2835 41.914 13.48C41.914 14.2135 42.5157 14.8103 43.2552 14.8103C43.9947 14.8103 44.5963 14.2135 44.5963 13.48C44.5963 13.3735 44.5092 13.2871 44.4018 13.2871C44.2944 13.2871 44.2074 13.3735 44.2074 13.48C44.2074 14.0008 43.7802 14.4245 43.2552 14.4245C42.7302 14.4245 42.303 14.0008 42.303 13.48C42.303 13.2878 42.361 13.1026 42.4708 12.9447C42.5037 12.8975 42.5136 12.8382 42.498 12.783C42.4823 12.7277 42.4426 12.6823 42.3898 12.6589C41.6205 12.3195 41.1233 11.5608 41.1233 10.726C41.1234 9.55999 42.0797 8.61141 43.2552 8.61141C44.4307 8.61141 45.387 9.55999 45.387 10.726C45.387 10.8325 45.4741 10.9189 45.5815 10.9189C45.6889 10.9189 45.776 10.8325 45.776 10.726C45.776 9.34724 44.6452 8.22559 43.2552 8.22559Z" fill="#2FDDD0"/>
<path d="M41.3059 13.2228C40.8218 13.2228 40.428 12.8322 40.428 12.3521C40.428 12.2455 40.341 12.1592 40.2336 12.1592C40.1262 12.1592 40.0391 12.2455 40.0391 12.3521C40.0391 13.0449 40.6074 13.6086 41.3059 13.6086C41.4133 13.6086 41.5004 13.5222 41.5004 13.4157C41.5004 13.3092 41.4133 13.2228 41.3059 13.2228Z" fill="#2FDDD0"/>
<path d="M41.2015 13.9531C40.3701 13.9531 39.6937 13.2822 39.6937 12.4576C39.6937 12.351 39.6066 12.2646 39.4992 12.2646C39.3918 12.2646 39.3047 12.351 39.3047 12.4576C39.3047 13.495 40.1556 14.339 41.2015 14.339C41.3088 14.339 41.3959 14.2526 41.3959 14.146C41.3959 14.0395 41.3088 13.9531 41.2015 13.9531Z" fill="#2FDDD0"/>
<path d="M4.51962 25.2374C4.55796 25.2861 4.61524 25.3117 4.67308 25.3117C4.71492 25.3117 4.75706 25.2983 4.79256 25.2709C5.12734 25.0118 5.3194 24.622 5.3194 24.2014C5.3194 23.4538 4.70626 22.8457 3.95267 22.8457C3.19903 22.8457 2.58594 23.4538 2.58594 24.2014V24.5426C2.58594 24.6492 2.67305 24.7355 2.78043 24.7355C2.868 24.7355 2.94199 24.6782 2.9664 24.5992C2.97192 24.5814 2.97491 24.5623 2.97491 24.5426V24.2014C2.97491 23.6666 3.41352 23.2315 3.95267 23.2315C4.49182 23.2315 4.93043 23.6666 4.93043 24.2014C4.93043 24.217 4.92992 24.2326 4.92921 24.2481H4.5886C4.20287 24.2481 3.87472 24.4963 3.75727 24.84C3.72734 24.9276 3.71083 25.0212 3.71083 25.1187C3.71083 25.5988 4.10461 25.9894 4.5886 25.9894C4.69598 25.9894 4.78309 25.903 4.78309 25.7965C4.78309 25.6899 4.69598 25.6035 4.5886 25.6035C4.31911 25.6035 4.0998 25.3861 4.0998 25.1187C4.0998 25.0606 4.11018 25.0049 4.12918 24.9532C4.19755 24.7671 4.37766 24.6339 4.5886 24.6339H4.82837C4.76415 24.7618 4.67111 24.8755 4.55335 24.9666C4.52063 24.9919 4.49845 25.0256 4.48716 25.0622C4.46923 25.1203 4.47905 25.1858 4.51962 25.2374Z" fill="#FF6B6C"/>
<path d="M3.95049 21.7549C2.5605 21.7549 1.42969 22.8765 1.42969 24.2553C1.42969 25.1711 1.93561 26.0095 2.73519 26.4463C2.65243 26.6215 2.60933 26.8128 2.60933 27.0093C2.60933 27.7428 3.21098 28.3396 3.95049 28.3396C4.69 28.3396 5.29164 27.7428 5.29164 27.0093C5.29164 26.9028 5.20453 26.8164 5.09715 26.8164C4.98973 26.8164 4.90267 26.9028 4.90267 27.0093C4.90267 27.5301 4.4755 27.9538 3.95049 27.9538C3.42547 27.9538 2.9983 27.5301 2.9983 27.0093C2.9983 26.8171 3.05635 26.6319 3.16615 26.474C3.19897 26.4268 3.20895 26.3675 3.1933 26.3123C3.1776 26.257 3.13794 26.2115 3.08512 26.1882C2.31577 25.8488 1.81861 25.0901 1.81861 24.2553C1.81866 23.0893 2.775 22.1407 3.95049 22.1407C5.12597 22.1407 6.08231 23.0893 6.08231 24.2553C6.08231 24.3618 6.16942 24.4482 6.2768 24.4482C6.38422 24.4482 6.47128 24.3618 6.47128 24.2553C6.47128 22.8765 5.34047 21.7549 3.95049 21.7549Z" fill="#FF6B6C"/>
<path d="M2.00118 26.7521C1.51714 26.7521 1.12335 26.3615 1.12335 25.8814C1.12335 25.7748 1.03629 25.6885 0.928863 25.6885C0.821489 25.6885 0.734375 25.7748 0.734375 25.8814C0.734375 26.5742 1.30269 27.1379 2.00118 27.1379C2.1086 27.1379 2.19567 27.0515 2.19567 26.945C2.19567 26.8385 2.1086 26.7521 2.00118 26.7521Z" fill="#FF6B6C"/>
<path d="M1.89677 27.4824C1.06538 27.4824 0.388976 26.8115 0.388976 25.9869C0.388976 25.8803 0.301912 25.7939 0.194488 25.7939C0.0870638 25.7939 0 25.8803 0 25.9869C0 27.0243 0.850886 27.8683 1.89677 27.8683C2.00414 27.8683 2.09125 27.7819 2.09125 27.6753C2.09125 27.5688 2.00414 27.4824 1.89677 27.4824Z" fill="#FF6B6C"/>
<path d="M25.092 40.8599C34.0528 40.8599 41.3169 33.5957 41.3169 24.635C41.3169 15.6743 34.0528 8.41016 25.092 8.41016C16.1313 8.41016 8.86719 15.6743 8.86719 24.635C8.86719 33.5957 16.1313 40.8599 25.092 40.8599Z" fill="#FFD15C"/>
<path d="M25.0455 36.38C31.5578 36.38 36.8371 31.1008 36.8371 24.5885C36.8371 18.0761 31.5578 12.7969 25.0455 12.7969C18.5332 12.7969 13.2539 18.0761 13.2539 24.5885C13.2539 31.1008 18.5332 36.38 25.0455 36.38Z" fill="#F8B64C"/>
<path d="M9.16162 8.80549C9.16162 8.23426 8.6931 7.76953 8.11725 7.76953H7.1526C6.81575 8.43778 6.72307 8.61893 5.93648 9.12563C5.64565 9.313 5.31598 9.52537 4.98174 9.86549C4.60558 10.2482 4.46808 10.7999 4.63901 11.3388C4.82704 11.9315 5.38547 12.3277 6.03107 12.3276H6.04321C6.48178 12.3242 6.73086 12.1729 6.93092 12.0512C7.07588 11.9631 7.16366 11.9133 7.28171 11.9133C7.39116 11.9133 7.4326 11.9522 7.52403 12.048C7.63495 12.1642 7.78683 12.3234 8.10456 12.3275C8.10897 12.3276 8.11344 12.3277 8.11785 12.3277C8.60396 12.3277 9.04155 11.9782 9.13891 11.5101C9.15623 11.4269 9.16342 11.3433 9.16086 11.2609H9.16162V8.80549ZM8.7298 11.4263C8.67219 11.7032 8.40019 11.9169 8.11006 11.9132C7.96886 11.9114 7.91866 11.8587 7.82739 11.7631C7.72105 11.6516 7.57533 11.4989 7.28171 11.4989C7.0401 11.4989 6.87363 11.6001 6.71267 11.6979C6.53259 11.8074 6.36253 11.9107 6.04 11.9132C6.03701 11.9132 6.03412 11.9133 6.03118 11.9133C5.56903 11.9133 5.17037 11.6333 5.03756 11.2145C4.91575 10.8303 5.00728 10.4332 5.28086 10.1547C5.58264 9.84767 5.87822 9.65727 6.16405 9.47314C6.75868 9.09009 7.07751 8.84487 7.41082 8.18392H8.11725C8.46276 8.18392 8.74391 8.46273 8.74391 8.80544V10.4627C8.56503 10.3293 8.34645 10.2558 8.11725 10.2558C7.83828 10.2558 7.57603 10.3635 7.37875 10.5592L7.67416 10.8522C7.79249 10.7348 7.94986 10.6701 8.11725 10.6701C8.50224 10.6702 8.81491 11.017 8.7298 11.4263Z" fill="#5975FF"/>
<path d="M5.94674 12.8467L5.71503 13.1915C5.79797 13.2464 5.84556 13.3346 5.84556 13.4335C5.84556 13.5324 5.79797 13.6206 5.71503 13.6754C5.51677 13.8065 5.39844 14.0259 5.39844 14.2622C5.39844 14.4985 5.51677 14.7179 5.71503 14.849L5.94674 14.5042C5.8638 14.4493 5.81616 14.3611 5.81616 14.2622C5.81616 14.1633 5.8638 14.0751 5.94674 14.0202C6.145 13.8891 6.26333 13.6698 6.26333 13.4335C6.26333 13.1972 6.145 12.9778 5.94674 12.8467Z" fill="#5975FF"/>
<path d="M6.98976 12.8467L6.758 13.1915C6.84099 13.2464 6.88858 13.3346 6.88858 13.4335C6.88858 13.5324 6.84099 13.6206 6.758 13.6754C6.55979 13.8065 6.44141 14.0259 6.44141 14.2622C6.44141 14.4985 6.55979 14.7179 6.758 14.849L6.98976 14.5042C6.90677 14.4493 6.85918 14.3611 6.85918 14.2622C6.85918 14.1633 6.90677 14.0751 6.98976 14.0202C7.18797 13.8891 7.30636 13.6698 7.30636 13.4335C7.30636 13.1972 7.18797 12.9778 6.98976 12.8467Z" fill="#5975FF"/>
<path d="M8.03268 12.8467L7.80098 13.1915C7.88391 13.2464 7.9315 13.3346 7.9315 13.4335C7.9315 13.5324 7.88391 13.6206 7.80098 13.6754C7.60271 13.8065 7.48438 14.0259 7.48438 14.2622C7.48438 14.4985 7.60271 14.7179 7.80098 14.849L8.03268 14.5042C7.94975 14.4493 7.9021 14.3611 7.9021 14.2622C7.9021 14.1633 7.94975 14.0751 8.03268 14.0202C8.23095 13.8891 8.34928 13.6698 8.34928 13.4335C8.34928 13.1972 8.23095 12.9778 8.03268 12.8467Z" fill="#5975FF"/>
<path d="M49.9744 23.7798C49.9427 23.7256 49.8861 23.6911 49.8239 23.6874C49.7319 23.6781 49.4852 23.5715 49.204 23.2324C49.1356 23.1498 49.0655 23.0585 48.9914 22.9617C48.6895 22.5675 48.3472 22.1209 47.8797 21.9713C47.6066 21.884 47.3081 21.9671 47.0394 22.2056C46.979 22.2591 46.892 22.2898 46.8008 22.2898C46.7096 22.2898 46.6226 22.2591 46.5623 22.2056C46.2935 21.9671 45.9951 21.884 45.7219 21.9713C45.2544 22.1209 44.9122 22.5675 44.6103 22.9617C44.5361 23.0584 44.4661 23.1498 44.3977 23.2324C44.1164 23.5716 43.8697 23.6782 43.7777 23.6874C43.721 23.6908 43.6688 23.7197 43.6359 23.7663C43.6022 23.814 43.5927 23.8746 43.6101 23.9304C43.6111 23.9335 43.7148 24.254 43.9679 24.6616C44.185 25.0113 44.5567 25.4908 45.1137 25.8397V26.6489C45.1137 27.5792 45.8705 28.336 46.8008 28.336C47.7311 28.336 48.4879 27.5792 48.4879 26.6489V25.8398C49.5679 25.1642 49.9688 23.999 49.9902 23.9345C50.0074 23.8836 50.0021 23.8271 49.9744 23.7798ZM43.778 23.6873C43.7806 23.6871 43.7819 23.6871 43.782 23.6871C43.7807 23.6872 43.7793 23.6873 43.778 23.6873ZM45.2181 24.0547C45.4912 23.8425 46.0049 23.4939 46.2277 23.4431C46.325 23.4209 46.4199 23.4634 46.4823 23.5028C46.5694 23.5578 46.6825 23.5881 46.8008 23.5881C46.9191 23.5881 47.0322 23.5578 47.1193 23.5028C47.1818 23.4634 47.2767 23.421 47.3739 23.4431C47.5967 23.4939 48.1104 23.8424 48.3835 24.0547C48.3532 24.1156 48.309 24.1956 48.2495 24.2834C47.7929 24.05 47.2507 24.0589 46.8008 24.3105C46.3509 24.0589 45.8087 24.05 45.3521 24.2834C45.2925 24.1955 45.2484 24.1156 45.2181 24.0547ZM48.113 26.6489C48.113 27.3724 47.5243 27.9611 46.8008 27.9611C46.0773 27.9611 45.4886 27.3724 45.4886 26.6489V24.6353C45.8391 24.4414 46.2628 24.4416 46.6134 24.6354V26.6489C46.6134 26.7524 46.6973 26.8364 46.8008 26.8364C46.9043 26.8364 46.9883 26.7524 46.9883 26.6489V24.6354C47.3388 24.4416 47.7625 24.4414 48.113 24.6353V26.6489ZM48.4879 25.3852V24.5944C48.6981 24.3163 48.7857 24.0729 48.7896 24.0621C48.8155 23.9891 48.7938 23.9077 48.7351 23.8573C48.5712 23.7165 47.8351 23.1637 47.4572 23.0775C47.2834 23.038 47.0922 23.0764 46.919 23.1858C46.8981 23.1991 46.856 23.2132 46.8008 23.2132C46.7456 23.2132 46.7035 23.1991 46.6826 23.1858C46.5094 23.0764 46.3183 23.038 46.1444 23.0775C45.7665 23.1637 45.0304 23.7165 44.8666 23.8573C44.8078 23.9077 44.7862 23.9891 44.812 24.0621C44.8159 24.0729 44.9036 24.3163 45.1137 24.5944V25.3851C44.7274 25.094 44.4578 24.7388 44.2898 24.4693C44.1724 24.281 44.0906 24.1142 44.0387 23.9961C44.202 23.9253 44.4323 23.7779 44.6862 23.4717C44.7593 23.3836 44.8315 23.2894 44.9079 23.1897C45.1763 22.8393 45.4805 22.4422 45.8361 22.3284C46.0181 22.2702 46.1962 22.382 46.3135 22.4861C46.4434 22.6013 46.6164 22.6647 46.8008 22.6647C46.9851 22.6647 47.1582 22.6013 47.2881 22.4861C47.4054 22.382 47.5835 22.2702 47.7655 22.3284C48.121 22.4422 48.4253 22.8393 48.6938 23.1897C48.7702 23.2894 48.8423 23.3836 48.9153 23.4717C49.1689 23.7775 49.399 23.9249 49.5622 23.9959C49.4276 24.3001 49.0953 24.9277 48.4879 25.3852ZM49.8196 23.6871C49.8197 23.6871 49.821 23.6871 49.8236 23.6873C49.8223 23.6873 49.8209 23.6872 49.8196 23.6871Z" fill="#C32985"/>
<path d="M27.9969 2.29138L26.9414 1.14149C26.7391 0.940236 26.3877 0.93884 26.1818 1.14316C26.1152 1.20913 26.0698 1.28846 26.0462 1.37308C25.8413 1.21719 25.5287 1.23418 25.3399 1.42151C25.2733 1.48748 25.2279 1.56681 25.2037 1.65116C24.9994 1.49527 24.6865 1.5131 24.498 1.69986C24.4326 1.76473 24.3877 1.84239 24.3633 1.9245L23.866 1.43124C23.6569 1.22415 23.3173 1.22359 23.106 1.43292C22.897 1.64001 22.897 1.97738 23.106 2.18475L25.0166 4.0798L23.8839 4.25628C23.5775 4.29973 23.3465 4.56361 23.3465 4.87063C23.3465 5.10083 23.5354 5.28817 23.7675 5.28817H26.4135C26.8255 5.28817 27.2131 5.12894 27.5055 4.83946L27.9466 4.40161C28.2379 4.11295 28.3982 3.72881 28.3982 3.32046C28.3982 2.93911 28.2556 2.57364 27.9969 2.29138ZM27.748 4.20508L27.3068 4.64293C27.068 4.87953 26.7506 5.0098 26.4135 5.0098H23.7675C23.6903 5.0098 23.6272 4.94744 23.6272 4.87062C23.6272 4.70137 23.7546 4.55579 23.9252 4.5313L25.3326 4.31195C25.3848 4.30388 25.4277 4.26742 25.4443 4.21759C25.4605 4.16805 25.4473 4.11321 25.41 4.07619L23.3044 1.98769C23.2051 1.88888 23.2051 1.72826 23.3061 1.62777C23.3561 1.5785 23.4215 1.55373 23.4868 1.55373C23.5522 1.55373 23.6176 1.5785 23.6676 1.62805L24.4915 2.44531C24.4935 2.44754 24.496 2.44976 24.4982 2.45199L25.0718 3.02067C25.1266 3.07495 25.2155 3.07495 25.2703 3.02067C25.325 2.96639 25.325 2.87815 25.2703 2.82387L24.6919 2.25018C24.5973 2.15108 24.599 1.99381 24.6983 1.895C24.7949 1.7998 24.9627 1.79924 25.0592 1.895L25.3351 2.1689C25.3368 2.17057 25.3382 2.17224 25.3399 2.17364L25.6328 2.46397C25.6876 2.51825 25.7765 2.51825 25.8313 2.46397C25.886 2.40969 25.886 2.32144 25.8313 2.26716L25.5349 1.97349C25.4392 1.87439 25.4403 1.71602 25.5402 1.61664C25.6365 1.52145 25.8046 1.52088 25.9011 1.61664L26.1941 1.90836C26.1944 1.90863 26.1944 1.90892 26.1947 1.90892L26.195 1.90919C26.1972 1.91033 26.1967 1.91004 26.1961 1.90975C26.1961 1.90975 26.1961 1.91003 26.1964 1.91003C26.1966 1.9103 26.1966 1.9103 26.1966 1.9103C26.1969 1.91058 26.1969 1.91058 26.1969 1.91058H26.1972C26.1975 1.91058 26.1975 1.91058 26.1975 1.91058C26.253 1.96179 26.3395 1.96041 26.3928 1.90696C26.4472 1.85268 26.4472 1.76473 26.3925 1.71045L26.3757 1.69374C26.2808 1.59464 26.2822 1.4371 26.3818 1.33828C26.4784 1.24308 26.6507 1.24726 26.7382 1.33354L27.7889 2.47899C28.0008 2.71003 28.1173 3.00869 28.1173 3.32074C28.1173 3.65449 27.9859 3.96875 27.748 4.20508Z" fill="#7A76FF"/>
<path d="M24.6392 1.29443C24.4346 0.845721 23.9836 0.555664 23.4894 0.555664C22.7932 0.555664 22.2266 1.11767 22.2266 1.80827C22.2266 2.29818 22.519 2.74578 22.9711 2.9487C22.9899 2.95705 23.0095 2.96096 23.0289 2.96096C23.0825 2.96096 23.1333 2.93033 23.1569 2.87912C23.1886 2.80897 23.1574 2.72658 23.0867 2.69484C22.7348 2.53701 22.5072 2.18908 22.5072 1.80828C22.5072 1.27106 22.9478 0.83403 23.4894 0.83403C23.8733 0.83403 24.2241 1.05977 24.3832 1.40883C24.4152 1.47898 24.498 1.51015 24.569 1.47842C24.6394 1.44697 24.6709 1.3643 24.6392 1.29443Z" fill="#7A76FF"/>
<path d="M25.2491 1.34419C25.0372 0.552817 24.3129 0 23.4882 0C22.4824 0 21.6641 0.811689 21.6641 1.80933C21.6641 2.62742 22.2214 3.34586 23.0195 3.55602C23.0316 3.55936 23.0436 3.56076 23.0554 3.56076C23.1177 3.56076 23.1744 3.51984 23.191 3.45748C23.2109 3.38316 23.1666 3.3069 23.0914 3.28713C22.4164 3.10926 21.9447 2.5016 21.9447 1.80933C21.9447 0.965068 22.6373 0.278366 23.4882 0.278366C24.1858 0.278366 24.7987 0.746006 24.978 1.41573C24.9977 1.48978 25.0721 1.53431 25.1498 1.51455C25.2244 1.49478 25.2688 1.41851 25.2491 1.34419Z" fill="#7A76FF"/>
<path d="M27.5791 19.9229L21.4981 22.0138L19.8169 25.5405C19.7727 25.6281 19.7303 25.7171 19.6897 25.8071L19.6836 25.82C20.0412 26.3447 20.4734 26.8144 20.9652 27.214L22.9427 28.5264H27.5636L29.1573 27.2364C29.6602 26.8319 30.1019 26.3545 30.4662 25.8197V23.0018L27.5791 19.9229Z" fill="#E94444"/>
<path d="M29.1566 21.9588L24.4426 21.25L20.9648 22.1505V27.9831V28.5399L23.1158 29.9956H27.7175L29.1566 28.3962V21.9588Z" fill="#FFBD86"/>
<path d="M28.8914 29.1547L28.7665 30.0017C28.6534 30.7692 28.2891 31.4776 27.7307 32.0162C27.692 32.0535 27.6329 32.0597 27.5873 32.0313L26.9198 31.616C26.6037 32.2905 26.0161 32.799 25.3032 33.0151L25.0578 33.0895L24.8548 33.0247C24.1583 32.8021 23.5861 32.2993 23.2757 31.6372L23.2658 31.616L22.5983 32.0313C22.5527 32.0597 22.4936 32.0535 22.4549 32.0162C21.8965 31.4776 21.5322 30.7692 21.4191 30.0017L21.2942 29.1547L21.2109 28.3885L24.2219 26.9023H26.9357L28.9516 28.5435L28.8914 29.1547Z" fill="#F9F7F8"/>
<path d="M26.9357 26.9023H24.2219L21.2109 28.3885L21.2942 29.1547L21.4191 30.0017C21.5321 30.7689 21.8961 31.4769 22.4541 32.0153C22.493 32.0529 22.5523 32.0599 22.5983 32.0313L23.2657 31.616L23.2757 31.6372C23.5861 32.2993 24.1583 32.8021 24.8549 33.0247L25.0577 33.0895L25.3032 33.0151C26.016 32.799 26.6036 32.2905 26.9198 31.616L27.5872 32.0313C27.6332 32.0599 27.6925 32.053 27.7314 32.0154C28.2756 31.4904 28.6353 30.8034 28.7577 30.0582C28.5799 30.4161 28.341 30.744 28.0494 31.025C28.0111 31.0619 27.9522 31.0671 27.9071 31.0391L27.4983 30.7847C27.3627 30.7004 27.1851 30.7436 27.1018 30.8799C26.7674 31.4264 26.2425 31.8351 25.623 32.0229L25.3776 32.0973L25.1747 32.0324C24.5683 31.8387 24.0562 31.4326 23.729 30.894C23.6477 30.7601 23.4749 30.7152 23.3395 30.7939L22.9181 31.0391C22.8725 31.0675 22.8134 31.0612 22.7747 31.0239C22.5747 30.831 22.3996 30.6162 22.2521 30.3848C22.1019 30.1491 22.1938 29.8303 22.4493 29.7171C22.6001 29.6502 22.7437 29.5646 22.8777 29.4611L23.9423 28.6389C24.0364 28.5663 24.1518 28.5269 24.2706 28.5269H25.9148C26.0336 28.5269 26.1491 28.5663 26.2431 28.6389L27.3077 29.4611C27.6736 29.7437 28.1108 29.8931 28.5721 29.8931C28.6434 29.8931 28.7141 29.8892 28.7841 29.8821L28.8913 29.1547L28.9516 28.5436L26.9357 26.9023Z" fill="#EFEDEF"/>
<path d="M26.8061 28.2451L26.7094 28.6979C26.6126 29.1507 26.2125 29.4744 25.7494 29.4744C25.5222 29.4744 25.302 29.3956 25.1264 29.2514L25.1214 29.2473C25.0826 29.2154 25.0266 29.2154 24.9878 29.2473L24.9829 29.2514C24.8073 29.3956 24.5871 29.4744 24.3599 29.4744C23.8968 29.4744 23.4966 29.1507 23.3999 28.6979L23.3032 28.2451L23.1133 27.2354H26.9934L26.8061 28.2451Z" fill="#FFBD86"/>
<path d="M26.183 26.0938C26.5222 26.0938 26.8507 26.2123 27.1117 26.4289L28.7278 27.7698C28.9003 27.913 29.1175 27.9914 29.3417 27.9914H29.8378C29.9575 27.9914 30.0284 28.1252 29.9613 28.2242L29.7117 28.5921C29.2683 29.2458 28.3655 29.3902 27.7403 28.9074L26.6756 28.0852C26.4589 27.9179 26.1929 27.8271 25.9191 27.8271H24.2751C24.0013 27.8271 23.7353 27.9179 23.5186 28.0852L22.454 28.9074C21.8288 29.3902 20.9259 29.2458 20.4825 28.5921L20.233 28.2242C20.1658 28.1252 20.2368 27.9914 20.3564 27.9914H20.8526C21.0768 27.9914 21.294 27.913 21.4665 27.7698L23.0826 26.4289C23.3436 26.2123 23.6721 26.0938 24.0112 26.0938H26.183Z" fill="#F9F7F8"/>
<path d="M21.2243 29.0696L21.0617 28.83C20.9575 28.6764 21.0676 28.4689 21.2531 28.4689H21.5943C21.8185 28.4689 22.0357 28.3905 22.2082 28.2474L23.8243 26.9064C24.0853 26.6898 24.4138 26.5713 24.753 26.5713H26.9248C27.0757 26.5713 27.2245 26.5949 27.3661 26.64L27.1117 26.4289C26.8507 26.2123 26.5222 26.0938 26.1831 26.0938H24.0112C23.6721 26.0938 23.3436 26.2123 23.0826 26.4289L21.4665 27.7698C21.294 27.913 21.0768 27.9914 20.8526 27.9914H20.3564C20.2368 27.9914 20.1658 28.1252 20.233 28.2242L20.4825 28.5921C20.6805 28.8839 20.9705 29.0743 21.286 29.1527C21.2648 29.1261 21.2437 29.0983 21.2243 29.0696Z" fill="#EFEDEF"/>
<path d="M25.883 25.7475L25.6527 26.093C25.5276 26.2807 25.317 26.3934 25.0914 26.3934C24.8659 26.3934 24.6553 26.2807 24.5302 26.093L24.2999 25.7475C24.2614 25.6897 24.3028 25.6123 24.3723 25.6123H25.8106C25.8801 25.6123 25.9215 25.6897 25.883 25.7475Z" fill="#F6A96C"/>
<path d="M25.0908 23.6537C24.9457 23.6537 24.8281 23.5361 24.8281 23.391V23.2637C24.8281 23.1186 24.9457 23.001 25.0908 23.001C25.2359 23.001 25.3535 23.1186 25.3535 23.2637V23.391C25.3535 23.5361 25.2359 23.6537 25.0908 23.6537Z" fill="#F37C7C"/>
<path d="M23.1051 24.9781C22.8311 24.9781 22.5575 24.8946 22.3219 24.7284L22.1308 24.5936C22.0123 24.5099 21.984 24.3461 22.0676 24.2275C22.1512 24.109 22.3151 24.0806 22.4337 24.1642L22.6248 24.299C22.9041 24.496 23.2702 24.5036 23.5574 24.3183L23.8056 24.1582C23.9275 24.0795 24.0901 24.1146 24.1688 24.2365C24.2474 24.3584 24.2124 24.521 24.0905 24.5996L23.8422 24.7598C23.6163 24.9056 23.3605 24.9781 23.1051 24.9781Z" fill="#F6A96C"/>
<path d="M27.0744 24.9781C26.8189 24.9781 26.5632 24.9056 26.3373 24.7598L26.0891 24.5997C25.9672 24.521 25.9321 24.3584 26.0107 24.2365C26.0894 24.1147 26.2521 24.0796 26.3739 24.1582L26.6221 24.3184C26.9093 24.5036 27.2754 24.4961 27.5547 24.299L27.7458 24.1643C27.8644 24.0806 28.0283 24.109 28.1119 24.2275C28.1955 24.3461 28.1672 24.51 28.0487 24.5936L27.8576 24.7284C27.6219 24.8945 27.3484 24.9781 27.0744 24.9781Z" fill="#F6A96C"/>
<path d="M20.9648 22.1514V25.3029C21.0856 25.1561 21.218 24.9998 21.3591 24.8404C22.1485 23.948 22.8599 23.3526 23.3621 23.1638L23.3631 23.1635C23.9122 22.9568 24.488 22.8521 25.0746 22.8521C26.0764 22.8521 27.0516 23.1614 27.8946 23.7466C28.3743 24.0796 28.7993 24.4926 29.1565 24.968V21.9597L24.4425 21.251L20.9648 22.1514Z" fill="#F6A96C"/>
<path d="M31.5598 21.4335L30.5264 19.749L23.7041 21.1062L22.3594 22.7716L23.1198 22.5077V22.508C23.7338 22.2769 24.3926 22.1515 25.0788 22.1515C27.4486 22.1515 29.4972 23.6478 30.4699 25.8193C31.1827 24.7745 31.5991 23.5115 31.5991 22.1515C31.5991 21.9088 31.5858 21.6692 31.5598 21.4335Z" fill="#EE6161"/>
<path d="M28.1351 16.3923C27.2227 15.9062 26.181 15.6309 25.0753 15.6309C22.9752 15.6309 21.1069 16.6238 19.9146 18.166L19.5156 19.3478L27.8358 18.2316L28.0821 17.7013L28.8 16.8985L28.1351 16.3923Z" fill="#F79595"/>
<path d="M24.6873 17.5458C21.307 17.2323 19.9144 18.1668 19.9144 18.1668C19.0619 19.2686 18.5547 20.6511 18.5547 22.1519C18.5547 23.2034 18.8037 24.1967 19.2457 25.0762L21.2107 22.6167L27.0689 17.7463L24.6873 17.5458Z" fill="#EE6161"/>
<path d="M31.5526 21.4334H31.5522C26.0014 20.1494 23.1125 22.5077 23.1125 22.5077V22.508C21.6057 23.0744 19.68 25.8197 19.68 25.8197C19.5185 25.5825 19.3721 25.3342 19.2422 25.0761C19.2422 25.0761 19.2422 25.0761 19.2422 25.0757C19.246 25.0263 19.6478 20.0927 24.6837 17.5453H24.6841C25.6518 17.0556 26.7909 16.6542 28.1313 16.3926C29.9901 17.382 31.313 19.2447 31.5526 21.4334Z" fill="#F37C7C"/>
<path d="M13.1378 40.4979C13.4338 39.7862 14.442 39.7862 14.7381 40.4979C14.8628 40.7979 15.145 41.0029 15.4689 41.0289C16.2372 41.0905 16.5488 42.0494 15.9634 42.5508C15.7166 42.7622 15.6088 43.0939 15.6842 43.41C15.8631 44.1597 15.0474 44.7523 14.3896 44.3506C14.1123 44.1812 13.7636 44.1812 13.4863 44.3506C12.8284 44.7523 12.0128 44.1597 12.1916 43.41C12.267 43.0939 12.1593 42.7622 11.9125 42.5508C11.3271 42.0494 11.6386 41.0905 12.407 41.0289C12.7309 41.0029 13.013 40.7979 13.1378 40.4979Z" fill="#FFE082"/>
<path d="M35.4425 40.4979C35.7385 39.7862 36.7467 39.7862 37.0427 40.4979C37.1675 40.7979 37.4497 41.0029 37.7736 41.0289C38.5419 41.0905 38.8535 42.0494 38.2681 42.5508C38.0213 42.7622 37.9135 43.0939 37.9889 43.41C38.1678 44.1597 37.3521 44.7523 36.6943 44.3506C36.417 44.1812 36.0683 44.1812 35.7909 44.3506C35.1331 44.7523 34.3175 44.1597 34.4963 43.41C34.5717 43.0939 34.464 42.7622 34.2172 42.5508C33.6318 42.0494 33.9433 41.0905 34.7117 41.0289C35.0356 41.0029 35.3177 40.7979 35.4425 40.4979Z" fill="#FFE082"/>
<path d="M24.2941 43.8797C24.5901 43.168 25.5983 43.168 25.8943 43.8797C26.0191 44.1798 26.3013 44.3848 26.6252 44.4107C27.3935 44.4723 27.705 45.4312 27.1197 45.9326C26.8729 46.144 26.7651 46.4757 26.8405 46.7918C27.0193 47.5416 26.2037 48.1342 25.5459 47.7324C25.2686 47.563 24.9198 47.563 24.6425 47.7324C23.9847 48.1342 23.1691 47.5416 23.3479 46.7918C23.4233 46.4757 23.3155 46.144 23.0687 45.9326C22.4833 45.4312 22.7949 44.4723 23.5632 44.4107C23.8871 44.3848 24.1693 44.1798 24.2941 43.8797Z" fill="#FFE082"/>
</svg>
