<svg width="32" height="32" viewBox="0 0 32 32" fill="none" xmlns="http://www.w3.org/2000/svg">
<path d="M15.9711 25.411C22.9882 25.411 28.6766 19.7226 28.6766 12.7055C28.6766 5.68845 22.9882 0 15.9711 0C8.95408 0 3.26562 5.68845 3.26562 12.7055C3.26562 19.7226 8.95408 25.411 15.9711 25.411Z" fill="#FFD15C"/>
<path d="M5.68025 20.1387L1.30859 27.7166L6.41096 27.4458L8.72907 32.0001L12.7732 24.9891C9.87552 24.2395 7.38733 22.4946 5.68025 20.1387Z" fill="#F12758"/>
<path d="M26.2889 20.1006C24.5944 22.4628 22.1062 24.214 19.2148 24.9762L23.2715 31.9998L25.5896 27.4455L30.692 27.7163L26.2889 20.1006Z" fill="#F12758"/>
<path d="M15.9712 21.915C21.0574 21.915 25.1806 17.7918 25.1806 12.7055C25.1806 7.6193 21.0574 3.49609 15.9712 3.49609C10.8849 3.49609 6.76172 7.6193 6.76172 12.7055C6.76172 17.7918 10.8849 21.915 15.9712 21.915Z" fill="#F8B64C"/>
<path d="M22.4593 10.8201C22.3948 10.7097 22.2795 10.6395 22.1529 10.6319C21.9656 10.6131 21.4635 10.3961 20.8912 9.70588C20.7519 9.53786 20.6093 9.35185 20.4585 9.15482C19.8439 8.35268 19.1473 7.44353 18.1959 7.13918C17.6399 6.96133 17.0325 7.13064 16.4854 7.61592C16.3625 7.72482 16.1855 7.78741 15.9999 7.78741C15.8142 7.78741 15.6373 7.72482 15.5143 7.61592C14.9673 7.13064 14.3599 6.96143 13.804 7.13918C12.8524 7.44353 12.1559 8.35268 11.5413 9.15482C11.3904 9.35175 11.2479 9.53786 11.1086 9.70588C10.5361 10.3962 10.0341 10.6132 9.84686 10.6319C9.7314 10.6389 9.62519 10.6978 9.55822 10.7925C9.48966 10.8896 9.47019 11.0131 9.50566 11.1265C9.50765 11.1329 9.71869 11.7853 10.2339 12.6149C10.6758 13.3265 11.4323 14.3025 12.566 15.0126V16.6597C12.566 18.5531 14.1064 20.0936 15.9999 20.0936C17.8934 20.0936 19.4338 18.5531 19.4338 16.6597V15.0128C21.6318 13.6378 22.4478 11.2661 22.4915 11.1349C22.5265 11.0314 22.5156 10.9164 22.4593 10.8201ZM9.84736 10.6318C9.85262 10.6314 9.8554 10.6314 9.8556 10.6314C9.85282 10.6315 9.85014 10.6317 9.84736 10.6318ZM12.7785 11.3796C13.3343 10.9476 14.38 10.2381 14.8333 10.1348C15.0314 10.0896 15.2245 10.176 15.3517 10.2562C15.5289 10.3682 15.7592 10.4298 15.9999 10.4298C16.2407 10.4298 16.4709 10.3682 16.648 10.2562C16.7752 10.176 16.9684 10.0897 17.1664 10.1348C17.6198 10.2381 18.6654 10.9475 19.2213 11.3796C19.1595 11.5035 19.0696 11.6663 18.9485 11.8451C18.0192 11.3701 16.9156 11.3882 15.9998 11.9002C15.0841 11.3882 13.9805 11.3701 13.0512 11.8451C12.93 11.6662 12.8402 11.5035 12.7785 11.3796ZM18.6707 16.6597C18.6707 18.1323 17.4725 19.3305 15.9999 19.3305C14.5272 19.3305 13.329 18.1323 13.329 16.6597V12.5612C14.0425 12.1666 14.9049 12.1669 15.6184 12.5615V16.6597C15.6184 16.8704 15.7892 17.0412 15.9999 17.0412C16.2106 17.0412 16.3815 16.8704 16.3815 16.6597V12.5615C17.095 12.1669 17.9572 12.1666 18.6707 12.5612V16.6597ZM19.4338 14.0875V12.4779C19.8614 11.9121 20.0399 11.4167 20.0477 11.3946C20.1004 11.2461 20.0563 11.0803 19.9367 10.9777C19.6032 10.6911 18.105 9.56598 17.3359 9.3907C16.9821 9.31012 16.593 9.38832 16.2405 9.61109C16.1979 9.63801 16.1123 9.66673 15.9999 9.66673C15.8874 9.66673 15.8019 9.63801 15.7593 9.61109C15.4067 9.38832 15.0177 9.31012 14.6638 9.3907C13.8948 9.56598 12.3965 10.6911 12.063 10.9777C11.9435 11.0803 11.8993 11.2461 11.952 11.3946C11.9598 11.4167 12.1383 11.9121 12.5659 12.4779V14.0873C11.7797 13.4949 11.2309 12.772 10.889 12.2235C10.6502 11.8402 10.4837 11.5006 10.3779 11.2604C10.7103 11.1161 11.1792 10.8161 11.6959 10.1929C11.8447 10.0136 11.9915 9.82193 12.147 9.61894C12.6934 8.90582 13.3126 8.09752 14.0364 7.86601C14.4069 7.74747 14.7692 7.97501 15.008 8.18685C15.2724 8.42134 15.6246 8.55051 15.9998 8.55051C16.375 8.55051 16.7272 8.42134 16.9916 8.18685C17.2304 7.97511 17.5929 7.74757 17.9633 7.86601C18.687 8.09752 19.3063 8.90582 19.8527 9.61894C20.0082 9.82193 20.155 10.0136 20.3037 10.1929C20.8198 10.8153 21.288 11.1153 21.6203 11.2599C21.3463 11.8791 20.6699 13.1564 19.4338 14.0875ZM22.1442 10.6314C22.1444 10.6314 22.1471 10.6314 22.1524 10.6318C22.1497 10.6317 22.1469 10.6316 22.1442 10.6314Z" fill="white"/>
</svg>
