<svg width="32" height="32" viewBox="0 0 32 32" fill="none" xmlns="http://www.w3.org/2000/svg">
<path d="M15.9711 25.411C22.9882 25.411 28.6766 19.7226 28.6766 12.7055C28.6766 5.68845 22.9882 0 15.9711 0C8.95408 0 3.26562 5.68845 3.26562 12.7055C3.26562 19.7226 8.95408 25.411 15.9711 25.411Z" fill="#FFD15C"/>
<path d="M5.68025 20.1387L1.30859 27.7166L6.41096 27.4458L8.72907 32.0001L12.7732 24.9891C9.87552 24.2395 7.38733 22.4946 5.68025 20.1387Z" fill="#2FDDD0"/>
<path d="M26.2889 20.1006C24.5944 22.4628 22.1062 24.214 19.2148 24.9762L23.2715 31.9998L25.5896 27.4455L30.692 27.7163L26.2889 20.1006Z" fill="#2FDDD0"/>
<path d="M15.9712 21.915C21.0574 21.915 25.1806 17.7918 25.1806 12.7055C25.1806 7.6193 21.0574 3.49609 15.9712 3.49609C10.8849 3.49609 6.76172 7.6193 6.76172 12.7055C6.76172 17.7918 10.8849 21.915 15.9712 21.915Z" fill="#F8B64C"/>
<path d="M17.9396 13.0407C18.0177 13.14 18.1343 13.1919 18.252 13.1919C18.3371 13.1919 18.4229 13.1648 18.4952 13.1089C19.1766 12.5817 19.5675 11.7883 19.5675 10.9321C19.5675 9.4106 18.3195 8.17285 16.7857 8.17285C15.2518 8.17285 14.0039 9.4106 14.0039 10.9321V11.6267C14.0039 11.8436 14.1812 12.0193 14.3998 12.0193C14.578 12.0193 14.7286 11.9026 14.7783 11.7419C14.7895 11.7055 14.7956 11.6668 14.7956 11.6267V10.9321C14.7956 9.84363 15.6883 8.95814 16.7857 8.95814C17.883 8.95814 18.7758 9.84363 18.7758 10.9321C18.7758 10.9639 18.7747 10.9956 18.7733 11.0272H18.08C17.2949 11.0272 16.627 11.5323 16.388 12.2319C16.3271 12.4102 16.2934 12.6008 16.2934 12.7993C16.2934 13.7764 17.0949 14.5713 18.08 14.5713C18.2986 14.5713 18.4759 14.3955 18.4759 14.1787C18.4759 13.9619 18.2986 13.786 18.08 13.786C17.5315 13.786 17.0851 13.3434 17.0851 12.7993C17.0851 12.681 17.1063 12.5675 17.1449 12.4624C17.2841 12.0836 17.6507 11.8125 18.08 11.8125H18.568C18.4373 12.0727 18.248 12.3042 18.0083 12.4897C17.9417 12.5412 17.8965 12.6097 17.8736 12.6842C17.8371 12.8025 17.8571 12.9358 17.9396 13.0407Z" fill="white"/>
<path d="M16.787 5.95312C13.9579 5.95312 11.6562 8.23608 11.6562 11.0423C11.6562 12.9064 12.686 14.6128 14.3134 15.5017C14.145 15.8584 14.0572 16.2478 14.0572 16.6478C14.0572 18.1407 15.2818 19.3554 16.787 19.3554C18.2921 19.3554 19.5167 18.1407 19.5167 16.6478C19.5167 16.431 19.3394 16.2551 19.1208 16.2551C18.9022 16.2551 18.725 16.431 18.725 16.6478C18.725 17.7078 17.8556 18.5701 16.787 18.5701C15.7184 18.5701 14.8489 17.7078 14.8489 16.6478C14.8489 16.2564 14.9671 15.8796 15.1906 15.5583C15.2574 15.4622 15.2777 15.3414 15.2458 15.229C15.2139 15.1165 15.1331 15.024 15.0256 14.9766C13.4597 14.2858 12.4479 12.7415 12.4479 11.0423C12.448 8.66911 14.3944 6.73841 16.787 6.73841C19.1795 6.73841 21.126 8.66911 21.126 11.0423C21.126 11.2591 21.3033 11.4349 21.5218 11.4349C21.7405 11.4349 21.9177 11.2591 21.9177 11.0423C21.9177 8.23608 19.6161 5.95312 16.787 5.95312Z" fill="white"/>
<path d="M12.8245 16.1229C11.8393 16.1229 11.0378 15.3279 11.0378 14.3507C11.0378 14.1338 10.8606 13.958 10.6419 13.958C10.4234 13.958 10.2461 14.1338 10.2461 14.3507C10.2461 15.7608 11.4028 16.9082 12.8245 16.9082C13.0431 16.9082 13.2203 16.7323 13.2203 16.5155C13.2203 16.2986 13.0431 16.1229 12.8245 16.1229Z" fill="white"/>
<path d="M12.6067 17.6105C10.9145 17.6105 9.5378 16.2449 9.5378 14.5665C9.5378 14.3496 9.36059 14.1738 9.14195 14.1738C8.9233 14.1738 8.74609 14.3496 8.74609 14.5665C8.74609 16.678 10.4779 18.3958 12.6067 18.3958C12.8252 18.3958 13.0025 18.22 13.0025 18.0031C13.0025 17.7862 12.8252 17.6105 12.6067 17.6105Z" fill="white"/>
</svg>
