<svg width="32" height="32" viewBox="0 0 32 32" fill="none" xmlns="http://www.w3.org/2000/svg">
<path d="M15.9711 25.411C22.9882 25.411 28.6766 19.7226 28.6766 12.7055C28.6766 5.68845 22.9882 0 15.9711 0C8.95408 0 3.26562 5.68845 3.26562 12.7055C3.26562 19.7226 8.95408 25.411 15.9711 25.411Z" fill="#FFD15C"/>
<path d="M5.68025 20.1387L1.30859 27.7166L6.41096 27.4458L8.72907 32.0001L12.7732 24.9891C9.87552 24.2395 7.38733 22.4946 5.68025 20.1387Z" fill="#5975FF"/>
<path d="M26.2889 20.1006C24.5944 22.4628 22.1062 24.214 19.2148 24.9762L23.2715 31.9998L25.5896 27.4455L30.692 27.7163L26.2889 20.1006Z" fill="#5975FF"/>
<path d="M15.9712 21.915C21.0574 21.915 25.1806 17.7918 25.1806 12.7055C25.1806 7.6193 21.0574 3.49609 15.9712 3.49609C10.8849 3.49609 6.76172 7.6193 6.76172 12.7055C6.76172 17.7918 10.8849 21.915 15.9712 21.915Z" fill="#F8B64C"/>
<path d="M20.6497 7.5519C20.6497 6.38924 19.6961 5.44336 18.5241 5.44336H16.5607C15.8751 6.80347 15.6864 7.17219 14.0855 8.20349C13.4935 8.58485 12.8225 9.01711 12.1422 9.70937C11.3766 10.4884 11.0968 11.6111 11.4447 12.7081C11.8274 13.9145 12.9639 14.7207 14.278 14.7206H14.3027C15.1953 14.7137 15.7023 14.4057 16.1095 14.1581C16.4045 13.9788 16.5832 13.8773 16.8235 13.8773C17.0462 13.8773 17.1306 13.9565 17.3167 14.1515C17.5424 14.3881 17.8516 14.7121 18.4983 14.7205C18.5072 14.7206 18.5163 14.7207 18.5253 14.7207C19.5147 14.7207 20.4054 14.0096 20.6035 13.0567C20.6388 12.8874 20.6534 12.7173 20.6482 12.5494H20.6497V7.5519ZM19.7708 12.8863C19.6536 13.4497 19.1 13.8848 18.5095 13.8772C18.2221 13.8735 18.1199 13.7663 17.9341 13.5717C17.7177 13.3448 17.4211 13.0339 16.8235 13.0339C16.3317 13.0339 15.9929 13.2398 15.6653 13.439C15.2987 13.6617 14.9526 13.8722 14.2962 13.8772C14.2901 13.8772 14.2842 13.8773 14.2782 13.8773C13.3376 13.8773 12.5262 13.3075 12.2558 12.455C12.0079 11.6731 12.1942 10.8648 12.751 10.2981C13.3653 9.67309 13.9669 9.28557 14.5486 8.91081C15.7589 8.13115 16.4079 7.63205 17.0863 6.28678H18.5241C19.2273 6.28678 19.7996 6.85426 19.7996 7.5518V10.9248C19.4355 10.6534 18.9906 10.5038 18.5241 10.5038C17.9563 10.5038 17.4225 10.723 17.021 11.1213L17.6222 11.7177C17.8631 11.4787 18.1834 11.3471 18.5241 11.3471C19.3077 11.3472 19.9441 12.0531 19.7708 12.8863Z" fill="white"/>
<path d="M14.1043 15.7773L13.6327 16.4792C13.8015 16.5909 13.8983 16.7704 13.8983 16.9717C13.8983 17.173 13.8015 17.3525 13.6327 17.4642C13.2291 17.731 12.9883 18.1774 12.9883 18.6584C12.9883 19.1395 13.2291 19.5859 13.6327 19.8527L14.1043 19.151C13.9355 19.0393 13.8385 18.8598 13.8385 18.6584C13.8385 18.4571 13.9355 18.2776 14.1043 18.1659C14.5078 17.8991 14.7486 17.4526 14.7486 16.9717C14.7486 16.4907 14.5078 16.0442 14.1043 15.7773Z" fill="white"/>
<path d="M16.2294 15.7773L15.7577 16.4792C15.9266 16.5909 16.0234 16.7704 16.0234 16.9717C16.0234 17.173 15.9266 17.3525 15.7577 17.4642C15.3542 17.731 15.1133 18.1774 15.1133 18.6584C15.1133 19.1395 15.3542 19.5859 15.7577 19.8527L16.2294 19.151C16.0605 19.0393 15.9636 18.8598 15.9636 18.6584C15.9636 18.4571 16.0605 18.2776 16.2294 18.1659C16.6328 17.8991 16.8738 17.4526 16.8738 16.9717C16.8738 16.4907 16.6328 16.0442 16.2294 15.7773Z" fill="white"/>
<path d="M18.3543 15.7773L17.8827 16.4792C18.0515 16.5909 18.1483 16.7704 18.1483 16.9717C18.1483 17.173 18.0515 17.3525 17.8827 17.4642C17.4791 17.731 17.2383 18.1774 17.2383 18.6584C17.2383 19.1395 17.4791 19.5859 17.8827 19.8527L18.3543 19.151C18.1855 19.0393 18.0885 18.8598 18.0885 18.6584C18.0885 18.4571 18.1855 18.2776 18.3543 18.1659C18.7578 17.8991 18.9987 17.4526 18.9987 16.9717C18.9987 16.4907 18.7578 16.0442 18.3543 15.7773Z" fill="white"/>
</svg>
