<svg width="32" height="32" viewBox="0 0 32 32" fill="none" xmlns="http://www.w3.org/2000/svg">
<path d="M15.9711 25.411C22.9882 25.411 28.6766 19.7226 28.6766 12.7055C28.6766 5.68845 22.9882 0 15.9711 0C8.95408 0 3.26562 5.68845 3.26562 12.7055C3.26562 19.7226 8.95408 25.411 15.9711 25.411Z" fill="#FFD15C"/>
<path d="M5.68025 20.1387L1.30859 27.7166L6.41096 27.4458L8.72907 32.0001L12.7732 24.9891C9.87552 24.2395 7.38733 22.4946 5.68025 20.1387Z" fill="#7A76FF"/>
<path d="M26.2889 20.1006C24.5944 22.4628 22.1062 24.214 19.2148 24.9762L23.2715 31.9998L25.5896 27.4455L30.692 27.7163L26.2889 20.1006Z" fill="#7A76FF"/>
<path d="M15.9712 21.915C21.0574 21.915 25.1806 17.7918 25.1806 12.7055C25.1806 7.6193 21.0574 3.49609 15.9712 3.49609C10.8849 3.49609 6.76172 7.6193 6.76172 12.7055C6.76172 17.7918 10.8849 21.915 15.9712 21.915Z" fill="#F8B64C"/>
<path d="M22.0042 11.9208L19.856 9.58032C19.4442 9.1707 18.729 9.16786 18.3098 9.58371C18.1744 9.71799 18.0819 9.87946 18.0339 10.0517C17.617 9.7344 16.9806 9.76898 16.5963 10.1503C16.4609 10.2845 16.3683 10.446 16.3192 10.6177C15.9034 10.3004 15.2665 10.3367 14.8827 10.7168C14.7496 10.8488 14.6582 11.0069 14.6085 11.174L13.5964 10.1701C13.1709 9.74856 12.4797 9.74741 12.0496 10.1735C11.6241 10.595 11.6241 11.2817 12.0496 11.7037L15.9382 15.5608L13.6329 15.92C13.0092 16.0084 12.5391 16.5455 12.5391 17.1704C12.5391 17.639 12.9235 18.0203 13.3959 18.0203H18.7816C19.6201 18.0203 20.4089 17.6962 21.0041 17.107L21.902 16.2158C22.4949 15.6283 22.821 14.8464 22.821 14.0153C22.821 13.2391 22.5308 12.4952 22.0042 11.9208ZM21.4976 15.8158L20.5997 16.707C20.1136 17.1885 19.4676 17.4537 18.7816 17.4537H13.3959C13.2388 17.4537 13.1103 17.3268 13.1103 17.1704C13.1103 16.8259 13.3696 16.5296 13.7169 16.4798L16.5814 16.0333C16.6876 16.0169 16.775 15.9427 16.8087 15.8413C16.8419 15.7404 16.815 15.6288 16.739 15.5535L12.4534 11.3026C12.2512 11.1015 12.2512 10.7746 12.4569 10.5701C12.5585 10.4698 12.6916 10.4194 12.8247 10.4194C12.9578 10.4194 13.0909 10.4698 13.1926 10.5706L14.8696 12.234C14.8735 12.2386 14.8787 12.2431 14.8833 12.2476L16.0508 13.4051C16.1621 13.5156 16.3432 13.5156 16.4546 13.4051C16.566 13.2946 16.566 13.115 16.4546 13.0046L15.2774 11.8369C15.0849 11.6352 15.0883 11.3151 15.2905 11.114C15.487 10.9202 15.8286 10.9191 16.0251 11.114L16.5866 11.6715C16.59 11.6749 16.5929 11.6783 16.5963 11.6811L17.1926 12.272C17.304 12.3825 17.485 12.3825 17.5964 12.272C17.7078 12.1615 17.7078 11.9819 17.5964 11.8715L16.9933 11.2737C16.7985 11.072 16.8008 10.7497 17.0041 10.5474C17.2 10.3537 17.5422 10.3525 17.7387 10.5474L18.335 11.1412C18.3355 11.1417 18.3355 11.1423 18.3361 11.1423L18.3367 11.1429C18.3413 11.1452 18.3402 11.1446 18.339 11.144C18.339 11.144 18.339 11.1446 18.3395 11.1446C18.3401 11.1451 18.3401 11.1451 18.3401 11.1451C18.3406 11.1457 18.3406 11.1457 18.3406 11.1457H18.3412C18.3418 11.1457 18.3418 11.1457 18.3418 11.1457C18.4549 11.2499 18.6308 11.2471 18.7393 11.1383C18.8501 11.0278 18.8501 10.8488 18.7388 10.7383L18.7045 10.7043C18.5114 10.5026 18.5143 10.182 18.717 9.98085C18.9135 9.78709 19.2642 9.79559 19.4424 9.97121L21.5809 12.3026C22.0122 12.7728 22.2492 13.3807 22.2492 14.0158C22.2493 14.6952 21.9819 15.3348 21.4976 15.8158Z" fill="white"/>
<path d="M15.1644 9.89232C14.748 8.97904 13.8301 8.38867 12.8242 8.38867C11.4071 8.38867 10.2539 9.53254 10.2539 10.9382C10.2539 11.9353 10.8491 12.8463 11.7692 13.2593C11.8075 13.2763 11.8475 13.2843 11.8869 13.2843C11.996 13.2843 12.0994 13.222 12.1474 13.1177C12.2119 12.9749 12.1485 12.8072 12.0046 12.7426C11.2883 12.4214 10.8251 11.7132 10.8251 10.9382C10.8251 9.84475 11.7219 8.95524 12.8243 8.95524C13.6056 8.95524 14.3196 9.41471 14.6435 10.1252C14.7086 10.2679 14.8771 10.3314 15.0216 10.2668C15.165 10.2028 15.2289 10.0345 15.1644 9.89232Z" fill="white"/>
<path d="M16.4101 9.99176C15.9789 8.38104 14.5047 7.25586 12.826 7.25586C10.7788 7.25586 9.11328 8.90793 9.11328 10.9385C9.11328 12.6036 10.2476 14.0658 11.8721 14.4936C11.8966 14.5004 11.9212 14.5032 11.9452 14.5032C12.072 14.5032 12.1874 14.42 12.2211 14.293C12.2617 14.1418 12.1714 13.9865 12.0183 13.9463C10.6446 13.5843 9.68448 12.3475 9.68448 10.9385C9.68448 9.22011 11.0942 7.82243 12.826 7.82243C14.2459 7.82243 15.4934 8.77424 15.8584 10.1374C15.8984 10.2881 16.0497 10.3787 16.208 10.3385C16.3599 10.2983 16.4501 10.143 16.4101 9.99176Z" fill="white"/>
</svg>
