<svg width="32" height="32" viewBox="0 0 32 32" fill="none" xmlns="http://www.w3.org/2000/svg">
<g clip-path="url(#clip0)">
<path d="M15.9711 25.411C22.9882 25.411 28.6766 19.7226 28.6766 12.7055C28.6766 5.68845 22.9882 0 15.9711 0C8.95408 0 3.26562 5.68845 3.26562 12.7055C3.26562 19.7226 8.95408 25.411 15.9711 25.411Z" fill="#FFD15C"/>
<path d="M5.68025 20.1387L1.30859 27.7166L6.41096 27.4458L8.72907 32.0001L12.7732 24.9891C9.87552 24.2395 7.38733 22.4946 5.68025 20.1387Z" fill="#FF6B6C"/>
<path d="M26.2889 20.1006C24.5944 22.4628 22.1062 24.214 19.2148 24.9762L23.2715 31.9998L25.5896 27.4455L30.692 27.7163L26.2889 20.1006Z" fill="#FF6B6C"/>
<path d="M15.9712 21.915C21.0574 21.915 25.1806 17.7918 25.1806 12.7055C25.1806 7.6193 21.0574 3.49609 15.9712 3.49609C10.8849 3.49609 6.76172 7.6193 6.76172 12.7055C6.76172 17.7918 10.8849 21.915 15.9712 21.915Z" fill="#F8B64C"/>
<path d="M22.9796 12.3031C22.8522 12.1302 19.8174 8.07129 15.9413 8.07129C12.0652 8.07129 9.03021 12.1302 8.90298 12.3029C8.78234 12.4669 8.78234 12.6892 8.90298 12.8532C9.03021 13.026 12.0652 17.085 15.9413 17.085C19.8174 17.085 22.8522 13.026 22.9796 12.8533C23.1004 12.6894 23.1004 12.4669 22.9796 12.3031ZM15.9413 16.1525C13.0861 16.1525 10.6133 13.4585 9.88127 12.5778C10.6123 11.6963 13.08 9.00373 15.9413 9.00373C18.7963 9.00373 21.269 11.6973 22.0013 12.5785C21.2702 13.4599 18.8026 16.1525 15.9413 16.1525Z" fill="white"/>
<path d="M15.9413 9.78125C14.3863 9.78125 13.1211 11.0362 13.1211 12.5786C13.1211 14.1211 14.3863 15.376 15.9413 15.376C17.4964 15.376 18.7615 14.1211 18.7615 12.5786C18.7615 11.0362 17.4964 9.78125 15.9413 9.78125ZM15.9413 14.4435C14.9046 14.4435 14.0612 13.6069 14.0612 12.5786C14.0612 11.5503 14.9046 10.7137 15.9413 10.7137C16.978 10.7137 17.8214 11.5503 17.8214 12.5786C17.8214 13.6069 16.9781 14.4435 15.9413 14.4435Z" fill="white"/>
</g>
<defs>
<clipPath id="clip0">
<rect width="32" height="32" fill="white"/>
</clipPath>
</defs>
</svg>
