<svg width="80" height="92" viewBox="0 0 80 92" fill="none" xmlns="http://www.w3.org/2000/svg">
<g filter="url(#filter0_d)">
<rect x="14" y="8.05127" width="48" height="48.0986" rx="15" fill="white"/>
</g>
<path d="M44.0647 32.5678C44.2349 32.7849 44.4893 32.8985 44.7462 32.8985C44.932 32.8985 45.1192 32.8393 45.2769 32.717C46.7637 31.5642 47.6167 29.8295 47.6167 27.9572C47.6167 24.6304 44.8936 21.924 41.5466 21.924C38.1995 21.924 35.4766 24.6304 35.4766 27.9572V29.476C35.4766 29.9502 35.8635 30.3345 36.3403 30.3345C36.7293 30.3345 37.0579 30.0792 37.1663 29.728C37.1909 29.6484 37.2041 29.5636 37.2041 29.476V27.9572C37.2041 25.5772 39.1521 23.641 41.5466 23.641C43.9412 23.641 45.8892 25.5772 45.8892 27.9572C45.8892 28.0267 45.8869 28.0961 45.8838 28.1651H44.371C42.6579 28.1651 41.2005 29.2696 40.6788 30.7993C40.5459 31.1893 40.4725 31.606 40.4725 32.04C40.4725 34.1765 42.2215 35.9146 44.371 35.9146C44.8479 35.9146 45.2348 35.5303 45.2348 35.056C45.2348 34.5821 44.8479 34.1975 44.371 34.1975C43.1741 34.1975 42.2001 33.2296 42.2001 32.04C42.2001 31.7813 42.2462 31.5331 42.3306 31.3033C42.6342 30.4752 43.4341 29.8822 44.371 29.8822H45.4359C45.1507 30.4512 44.7375 30.9574 44.2145 31.363C44.0692 31.4757 43.9706 31.6255 43.9205 31.7882C43.8408 32.0469 43.8845 32.3385 44.0647 32.5678Z" fill="#7A76FF"/>
<path d="M41.5433 17.0697C35.37 17.0697 30.3477 22.0615 30.3477 28.1974C30.3477 32.2735 32.5946 36.0046 36.1458 37.9484C35.7782 38.7282 35.5868 39.5796 35.5868 40.4542C35.5868 43.7187 38.2589 46.3746 41.5433 46.3746C44.8277 46.3746 47.4998 43.7187 47.4998 40.4542C47.4998 39.9802 47.1129 39.5957 46.636 39.5957C46.1589 39.5957 45.7722 39.9802 45.7722 40.4542C45.7722 42.7721 43.8751 44.6575 41.5433 44.6575C39.2115 44.6575 37.3144 42.7721 37.3144 40.4542C37.3144 39.5986 37.5722 38.7747 38.0598 38.072C38.2056 37.8618 38.2499 37.5978 38.1804 37.3521C38.1107 37.1061 37.9345 36.9038 37.6999 36.8001C34.283 35.2896 32.075 31.9129 32.075 28.1974C32.0752 23.0084 36.3226 18.7868 41.5433 18.7868C46.764 18.7868 51.0114 23.0084 51.0114 28.1974C51.0114 28.6716 51.3983 29.056 51.8752 29.056C52.3523 29.056 52.739 28.6716 52.739 28.1974C52.739 22.0615 47.7166 17.0697 41.5433 17.0697Z" fill="#7A76FF"/>
<path d="M32.8997 39.3076C30.7499 39.3076 29.001 37.5693 29.001 35.4325C29.001 34.9583 28.6143 34.574 28.1372 34.574C27.6603 34.574 27.2734 34.9583 27.2734 35.4325C27.2734 38.5159 29.7975 41.0247 32.8997 41.0247C33.3768 41.0247 33.7635 40.6401 33.7635 40.1661C33.7635 39.6919 33.3768 39.3076 32.8997 39.3076Z" fill="#7A76FF"/>
<path d="M32.4241 42.5593C28.7317 42.5593 25.7276 39.5734 25.7276 35.9033C25.7276 35.4291 25.3409 35.0448 24.8638 35.0448C24.3867 35.0448 24 35.4291 24 35.9033C24 40.5202 27.779 44.2764 32.4241 44.2764C32.901 44.2764 33.2879 43.892 33.2879 43.4178C33.2879 42.9436 32.901 42.5593 32.4241 42.5593Z" fill="#7A76FF"/>
<path d="M21.4175 85.3133C20.0595 85.3133 18.8065 84.9983 17.6585 84.3683C16.5245 83.7243 15.6215 82.8353 14.9495 81.7013C14.2915 80.5533 13.9625 79.2653 13.9625 77.8373C13.9625 76.4093 14.2915 75.1283 14.9495 73.9943C15.6215 72.8603 16.5245 71.9783 17.6585 71.3483C18.8065 70.7043 20.0595 70.3823 21.4175 70.3823C22.7895 70.3823 24.0425 70.7043 25.1765 71.3483C26.3245 71.9783 27.2275 72.8603 27.8855 73.9943C28.5435 75.1283 28.8725 76.4093 28.8725 77.8373C28.8725 79.2653 28.5435 80.5533 27.8855 81.7013C27.2275 82.8353 26.3245 83.7243 25.1765 84.3683C24.0425 84.9983 22.7895 85.3133 21.4175 85.3133ZM21.4175 83.2343C22.3835 83.2343 23.2445 83.0173 24.0005 82.5833C24.7565 82.1353 25.3445 81.5053 25.7645 80.6933C26.1985 79.8673 26.4155 78.9153 26.4155 77.8373C26.4155 76.7593 26.1985 75.8143 25.7645 75.0023C25.3445 74.1903 24.7565 73.5673 24.0005 73.1333C23.2445 72.6993 22.3835 72.4823 21.4175 72.4823C20.4515 72.4823 19.5905 72.6993 18.8345 73.1333C18.0785 73.5673 17.4835 74.1903 17.0495 75.0023C16.6295 75.8143 16.4195 76.7593 16.4195 77.8373C16.4195 78.9153 16.6295 79.8673 17.0495 80.6933C17.4835 81.5053 18.0785 82.1353 18.8345 82.5833C19.5905 83.0173 20.4515 83.2343 21.4175 83.2343ZM33.6223 73.5953V85.1663H31.2283V73.5953H33.6223ZM34.5883 70.4873L29.9473 72.7763V71.0123L34.5883 68.4503V70.4873ZM35.9674 79.3283C35.9674 78.1663 36.2054 77.1373 36.6814 76.2413C37.1714 75.3453 37.8294 74.6523 38.6554 74.1623C39.4954 73.6583 40.4264 73.4063 41.4484 73.4063C42.2044 73.4063 42.9464 73.5743 43.6744 73.9103C44.4164 74.2323 45.0044 74.6663 45.4384 75.2123V69.6263H47.8534V85.1663H45.4384V83.4233C45.0464 83.9833 44.5004 84.4453 43.8004 84.8093C43.1144 85.1733 42.3234 85.3553 41.4274 85.3553C40.4194 85.3553 39.4954 85.1033 38.6554 84.5993C37.8294 84.0813 37.1714 83.3673 36.6814 82.4573C36.2054 81.5333 35.9674 80.4903 35.9674 79.3283ZM45.4384 79.3703C45.4384 78.5723 45.2704 77.8793 44.9344 77.2913C44.6124 76.7033 44.1854 76.2553 43.6534 75.9473C43.1214 75.6393 42.5474 75.4853 41.9314 75.4853C41.3154 75.4853 40.7414 75.6393 40.2094 75.9473C39.6774 76.2413 39.2434 76.6823 38.9074 77.2703C38.5854 77.8443 38.4244 78.5303 38.4244 79.3283C38.4244 80.1263 38.5854 80.8263 38.9074 81.4283C39.2434 82.0303 39.6774 82.4923 40.2094 82.8143C40.7554 83.1223 41.3294 83.2763 41.9314 83.2763C42.5474 83.2763 43.1214 83.1223 43.6534 82.8143C44.1854 82.5063 44.6124 82.0583 44.9344 81.4703C45.2704 80.8683 45.4384 80.1683 45.4384 79.3703ZM56.0169 85.3553C54.9249 85.3553 53.9379 85.1103 53.0559 84.6203C52.1739 84.1163 51.4809 83.4163 50.9769 82.5203C50.4729 81.6103 50.2209 80.5603 50.2209 79.3703C50.2209 78.1943 50.4799 77.1513 50.9979 76.2413C51.5159 75.3313 52.2229 74.6313 53.1189 74.1413C54.0149 73.6513 55.0159 73.4063 56.1219 73.4063C57.2279 73.4063 58.2289 73.6513 59.1249 74.1413C60.0209 74.6313 60.7279 75.3313 61.2459 76.2413C61.7639 77.1513 62.0229 78.1943 62.0229 79.3703C62.0229 80.5463 61.7569 81.5893 61.2249 82.4993C60.6929 83.4093 59.9649 84.1163 59.0409 84.6203C58.1309 85.1103 57.1229 85.3553 56.0169 85.3553ZM56.0169 83.2763C56.6329 83.2763 57.2069 83.1293 57.7389 82.8353C58.2849 82.5413 58.7259 82.1003 59.0619 81.5123C59.3979 80.9243 59.5659 80.2103 59.5659 79.3703C59.5659 78.5303 59.4049 77.8233 59.0829 77.2493C58.7609 76.6613 58.3339 76.2203 57.8019 75.9263C57.2699 75.6323 56.6959 75.4853 56.0799 75.4853C55.4639 75.4853 54.8899 75.6323 54.3579 75.9263C53.8399 76.2203 53.4269 76.6613 53.1189 77.2493C52.8109 77.8233 52.6569 78.5303 52.6569 79.3703C52.6569 80.6163 52.9719 81.5823 53.6019 82.2683C54.2459 82.9403 55.0509 83.2763 56.0169 83.2763Z" fill="#212429"/>
<defs>
<filter id="filter0_d" x="0" y="0.0512695" width="80" height="80.0986" filterUnits="userSpaceOnUse" color-interpolation-filters="sRGB">
<feFlood flood-opacity="0" result="BackgroundImageFix"/>
<feColorMatrix in="SourceAlpha" type="matrix" values="0 0 0 0 0 0 0 0 0 0 0 0 0 0 0 0 0 0 127 0"/>
<feOffset dx="2" dy="8"/>
<feGaussianBlur stdDeviation="8"/>
<feColorMatrix type="matrix" values="0 0 0 0 0.239216 0 0 0 0 0.243137 0 0 0 0 0.258824 0 0 0 0.105 0"/>
<feBlend mode="normal" in2="BackgroundImageFix" result="effect1_dropShadow"/>
<feBlend mode="normal" in="SourceGraphic" in2="effect1_dropShadow" result="shape"/>
</filter>
</defs>
</svg>
