<svg width="717" height="193" viewBox="0 0 717 193" fill="none" xmlns="http://www.w3.org/2000/svg">
<g clip-path="url(#clip0)">
<path d="M85.8477 147.584C123.564 147.584 154.14 117.009 154.14 79.2921C154.14 41.5754 123.564 11 85.8477 11C48.131 11 17.5555 41.5754 17.5555 79.2921C17.5555 117.009 48.131 147.584 85.8477 147.584Z" fill="#FFD15C"/>
<path d="M30.5233 119.245L7.02563 159.976L34.4508 158.521L46.9107 183L68.6477 145.316C53.0729 141.287 39.6989 131.908 30.5233 119.245Z" fill="#2FDDD0"/>
<path d="M141.308 119.042C132.2 131.739 118.826 141.151 103.285 145.248L125.089 183L137.549 158.52L164.974 159.976L141.308 119.042Z" fill="#2FDDD0"/>
<path d="M85.8477 128.793C113.186 128.793 135.349 106.631 135.349 79.2921C135.349 51.9536 113.186 29.7913 85.8477 29.7913C58.5092 29.7913 36.3469 51.9536 36.3469 79.2921C36.3469 106.631 58.5092 128.793 85.8477 128.793Z" fill="#F8B64C"/>
<path d="M96.4179 81.0975C96.8374 81.6312 97.4641 81.9104 98.0968 81.9104C98.5545 81.9104 99.0155 81.7647 99.4039 81.4641C103.066 78.6304 105.168 74.366 105.168 69.7637C105.168 61.5857 98.4598 54.9328 90.2155 54.9328C81.9707 54.9328 75.2634 61.5857 75.2634 69.7637V73.4971C75.2634 74.6628 76.2165 75.6076 77.3911 75.6076C78.3491 75.6076 79.1587 74.9799 79.4257 74.1165C79.4861 73.9209 79.5188 73.7126 79.5188 73.4971V69.7637C79.5188 63.9132 84.3172 59.1537 90.2155 59.1537C96.1138 59.1537 100.912 63.9132 100.912 69.7637C100.912 69.9346 100.907 70.105 100.899 70.2748H97.1726C92.9527 70.2748 89.3627 72.9899 88.0778 76.7502C87.7503 77.7087 87.5697 78.7332 87.5697 79.7999C87.5697 85.0519 91.8777 89.3245 97.1726 89.3245C98.3473 89.3245 99.3003 88.3797 99.3003 87.214C99.3003 86.0489 98.3473 85.1036 97.1726 85.1036C94.2243 85.1036 91.8251 82.7243 91.8251 79.7999C91.8251 79.164 91.9387 78.554 92.1465 77.989C92.8945 75.9533 94.8648 74.4958 97.1726 74.4958H99.7957C99.0931 75.8945 98.0752 77.1388 96.787 78.1357C96.429 78.4127 96.1863 78.781 96.0628 79.1811C95.8666 79.817 95.9741 80.5336 96.4179 81.0975Z" fill="white"/>
<path d="M90.2153 43C75.0088 43 62.6377 55.2709 62.6377 70.3541C62.6377 80.3738 68.1725 89.5455 76.9199 94.3237C76.0145 96.2407 75.543 98.3336 75.543 100.484C75.543 108.508 82.125 115.037 90.2153 115.037C98.3055 115.037 104.888 108.508 104.888 100.484C104.888 99.3185 103.934 98.3731 102.76 98.3731C101.585 98.3731 100.632 99.3185 100.632 100.484C100.632 106.181 95.9589 110.816 90.2153 110.816C84.4716 110.816 79.7984 106.181 79.7984 100.484C79.7984 98.3803 80.4334 96.355 81.6346 94.6276C81.9937 94.111 82.1028 93.4619 81.9316 92.8579C81.7599 92.2534 81.326 91.756 80.7481 91.501C72.3315 87.7879 66.8925 79.4873 66.8925 70.3541C66.8931 57.5984 77.3554 47.2209 90.2153 47.2209C103.075 47.2209 113.537 57.5984 113.537 70.3541C113.537 71.5198 114.49 72.4645 115.665 72.4645C116.84 72.4645 117.793 71.5198 117.793 70.3541C117.793 55.2709 105.422 43 90.2153 43Z" fill="white"/>
<path d="M68.9177 97.6653C63.6223 97.6653 59.3142 93.3922 59.3142 88.1397C59.3142 86.974 58.3618 86.0292 57.1865 86.0292C56.0119 86.0292 55.0588 86.974 55.0588 88.1397C55.0588 95.7192 61.2763 101.886 68.9177 101.886C70.0929 101.886 71.0454 100.941 71.0454 99.7758C71.0454 98.6101 70.0929 97.6653 68.9177 97.6653Z" fill="white"/>
<path d="M67.7506 105.658C58.6553 105.658 51.2554 98.318 51.2554 89.2963C51.2554 88.1306 50.3029 87.1859 49.1277 87.1859C47.9525 87.1859 47 88.1306 47 89.2963C47 100.646 56.3087 109.879 67.7506 109.879C68.9253 109.879 69.8783 108.934 69.8783 107.768C69.8783 106.603 68.9253 105.658 67.7506 105.658Z" fill="white"/>
</g>
<path d="M221.96 76.4C221.073 74.7667 219.79 73.53 218.11 72.69C216.477 71.8033 214.54 71.36 212.3 71.36C208.427 71.36 205.323 72.6433 202.99 75.21C200.657 77.73 199.49 81.1133 199.49 85.36C199.49 89.8867 200.703 93.4333 203.13 96C205.603 98.52 208.987 99.78 213.28 99.78C216.22 99.78 218.693 99.0333 220.7 97.54C222.753 96.0467 224.247 93.9 225.18 91.1H209.99V82.28H236.03V93.41C235.143 96.3967 233.627 99.1733 231.48 101.74C229.38 104.307 226.697 106.383 223.43 107.97C220.163 109.557 216.477 110.35 212.37 110.35C207.517 110.35 203.177 109.3 199.35 107.2C195.57 105.053 192.607 102.09 190.46 98.31C188.36 94.53 187.31 90.2133 187.31 85.36C187.31 80.5067 188.36 76.19 190.46 72.41C192.607 68.5833 195.57 65.62 199.35 63.52C203.13 61.3733 207.447 60.3 212.3 60.3C218.18 60.3 223.127 61.7233 227.14 64.57C231.2 67.4167 233.883 71.36 235.19 76.4H221.96ZM279.48 89.84C279.48 90.96 279.41 92.1267 279.27 93.34H252.18C252.367 95.7667 253.137 97.6333 254.49 98.94C255.89 100.2 257.594 100.83 259.6 100.83C262.587 100.83 264.664 99.57 265.83 97.05H278.57C277.917 99.6167 276.727 101.927 275 103.98C273.32 106.033 271.197 107.643 268.63 108.81C266.064 109.977 263.194 110.56 260.02 110.56C256.194 110.56 252.787 109.743 249.8 108.11C246.814 106.477 244.48 104.143 242.8 101.11C241.12 98.0767 240.28 94.53 240.28 90.47C240.28 86.41 241.097 82.8633 242.73 79.83C244.41 76.7967 246.744 74.4633 249.73 72.83C252.717 71.1967 256.147 70.38 260.02 70.38C263.8 70.38 267.16 71.1733 270.1 72.76C273.04 74.3467 275.327 76.61 276.96 79.55C278.64 82.49 279.48 85.92 279.48 89.84ZM267.23 86.69C267.23 84.6367 266.53 83.0033 265.13 81.79C263.73 80.5767 261.98 79.97 259.88 79.97C257.874 79.97 256.17 80.5533 254.77 81.72C253.417 82.8867 252.577 84.5433 252.25 86.69H267.23ZM309.595 70.52C314.168 70.52 317.808 72.0133 320.515 75C323.268 77.94 324.645 82 324.645 87.18V110H312.745V88.79C312.745 86.1767 312.068 84.1467 310.715 82.7C309.362 81.2533 307.542 80.53 305.255 80.53C302.968 80.53 301.148 81.2533 299.795 82.7C298.442 84.1467 297.765 86.1767 297.765 88.79V110H285.795V70.94H297.765V76.12C298.978 74.3933 300.612 73.04 302.665 72.06C304.718 71.0333 307.028 70.52 309.595 70.52ZM338.983 66.88C336.883 66.88 335.156 66.2733 333.803 65.06C332.496 63.8 331.843 62.26 331.843 60.44C331.843 58.5733 332.496 57.0333 333.803 55.82C335.156 54.56 336.883 53.93 338.983 53.93C341.036 53.93 342.716 54.56 344.023 55.82C345.376 57.0333 346.053 58.5733 346.053 60.44C346.053 62.26 345.376 63.8 344.023 65.06C342.716 66.2733 341.036 66.88 338.983 66.88ZM344.933 70.94V110H332.963V70.94H344.933ZM371.388 110.56C367.561 110.56 364.108 109.743 361.028 108.11C357.994 106.477 355.591 104.143 353.818 101.11C352.091 98.0767 351.228 94.53 351.228 90.47C351.228 86.4567 352.114 82.9333 353.888 79.9C355.661 76.82 358.088 74.4633 361.168 72.83C364.248 71.1967 367.701 70.38 371.528 70.38C375.354 70.38 378.808 71.1967 381.888 72.83C384.968 74.4633 387.394 76.82 389.168 79.9C390.941 82.9333 391.828 86.4567 391.828 90.47C391.828 94.4833 390.918 98.03 389.098 101.11C387.324 104.143 384.874 106.477 381.748 108.11C378.668 109.743 375.214 110.56 371.388 110.56ZM371.388 100.2C373.674 100.2 375.611 99.36 377.198 97.68C378.831 96 379.648 93.5967 379.648 90.47C379.648 87.3433 378.854 84.94 377.268 83.26C375.728 81.58 373.814 80.74 371.528 80.74C369.194 80.74 367.258 81.58 365.718 83.26C364.178 84.8933 363.408 87.2967 363.408 90.47C363.408 93.5967 364.154 96 365.648 97.68C367.188 99.36 369.101 100.2 371.388 100.2ZM410.632 90.4C410.632 86.3867 411.379 82.8633 412.872 79.83C414.412 76.7967 416.489 74.4633 419.102 72.83C421.715 71.1967 424.632 70.38 427.852 70.38C430.605 70.38 433.009 70.94 435.062 72.06C437.162 73.18 438.772 74.65 439.892 76.47V70.94H451.862V110H439.892V104.47C438.725 106.29 437.092 107.76 434.992 108.88C432.939 110 430.535 110.56 427.782 110.56C424.609 110.56 421.715 109.743 419.102 108.11C416.489 106.43 414.412 104.073 412.872 101.04C411.379 97.96 410.632 94.4133 410.632 90.4ZM439.892 90.47C439.892 87.4833 439.052 85.1267 437.372 83.4C435.739 81.6733 433.732 80.81 431.352 80.81C428.972 80.81 426.942 81.6733 425.262 83.4C423.629 85.08 422.812 87.4133 422.812 90.4C422.812 93.3867 423.629 95.7667 425.262 97.54C426.942 99.2667 428.972 100.13 431.352 100.13C433.732 100.13 435.739 99.2667 437.372 97.54C439.052 95.8133 439.892 93.4567 439.892 90.47ZM499.092 70.94V110H487.122V104.68C485.908 106.407 484.252 107.807 482.152 108.88C480.098 109.907 477.812 110.42 475.292 110.42C472.305 110.42 469.668 109.767 467.382 108.46C465.095 107.107 463.322 105.17 462.062 102.65C460.802 100.13 460.172 97.1667 460.172 93.76V70.94H472.072V92.15C472.072 94.7633 472.748 96.7933 474.102 98.24C475.455 99.6867 477.275 100.41 479.562 100.41C481.895 100.41 483.738 99.6867 485.092 98.24C486.445 96.7933 487.122 94.7633 487.122 92.15V70.94H499.092ZM505.31 90.4C505.31 86.3867 506.056 82.8633 507.55 79.83C509.09 76.7967 511.166 74.4633 513.78 72.83C516.393 71.1967 519.31 70.38 522.53 70.38C525.096 70.38 527.43 70.9167 529.53 71.99C531.676 73.0633 533.356 74.51 534.57 76.33V58.2H546.54V110H534.57V104.4C533.45 106.267 531.84 107.76 529.74 108.88C527.686 110 525.283 110.56 522.53 110.56C519.31 110.56 516.393 109.743 513.78 108.11C511.166 106.43 509.09 104.073 507.55 101.04C506.056 97.96 505.31 94.4133 505.31 90.4ZM534.57 90.47C534.57 87.4833 533.73 85.1267 532.05 83.4C530.416 81.6733 528.41 80.81 526.03 80.81C523.65 80.81 521.62 81.6733 519.94 83.4C518.306 85.08 517.49 87.4133 517.49 90.4C517.49 93.3867 518.306 95.7667 519.94 97.54C521.62 99.2667 523.65 100.13 526.03 100.13C528.41 100.13 530.416 99.2667 532.05 97.54C533.73 95.8133 534.57 93.4567 534.57 90.47ZM561.219 66.88C559.119 66.88 557.393 66.2733 556.039 65.06C554.733 63.8 554.079 62.26 554.079 60.44C554.079 58.5733 554.733 57.0333 556.039 55.82C557.393 54.56 559.119 53.93 561.219 53.93C563.273 53.93 564.953 54.56 566.259 55.82C567.613 57.0333 568.289 58.5733 568.289 60.44C568.289 62.26 567.613 63.8 566.259 65.06C564.953 66.2733 563.273 66.88 561.219 66.88ZM567.169 70.94V110H555.199V70.94H567.169ZM597.614 99.85V110H591.524C587.184 110 583.801 108.95 581.374 106.85C578.947 104.703 577.734 101.227 577.734 96.42V80.88H572.974V70.94H577.734V61.42H589.704V70.94H597.544V80.88H589.704V96.56C589.704 97.7267 589.984 98.5667 590.544 99.08C591.104 99.5933 592.037 99.85 593.344 99.85H597.614ZM610.301 66.88C608.201 66.88 606.475 66.2733 605.121 65.06C603.815 63.8 603.161 62.26 603.161 60.44C603.161 58.5733 603.815 57.0333 605.121 55.82C606.475 54.56 608.201 53.93 610.301 53.93C612.355 53.93 614.035 54.56 615.341 55.82C616.695 57.0333 617.371 58.5733 617.371 60.44C617.371 62.26 616.695 63.8 615.341 65.06C614.035 66.2733 612.355 66.88 610.301 66.88ZM616.251 70.94V110H604.281V70.94H616.251ZM642.496 98.8L650.966 70.94H663.706L649.846 110H635.076L621.216 70.94H634.026L642.496 98.8ZM686.524 110.56C682.698 110.56 679.244 109.743 676.164 108.11C673.131 106.477 670.728 104.143 668.954 101.11C667.228 98.0767 666.364 94.53 666.364 90.47C666.364 86.4567 667.251 82.9333 669.024 79.9C670.798 76.82 673.224 74.4633 676.304 72.83C679.384 71.1967 682.838 70.38 686.664 70.38C690.491 70.38 693.944 71.1967 697.024 72.83C700.104 74.4633 702.531 76.82 704.304 79.9C706.078 82.9333 706.964 86.4567 706.964 90.47C706.964 94.4833 706.054 98.03 704.234 101.11C702.461 104.143 700.011 106.477 696.884 108.11C693.804 109.743 690.351 110.56 686.524 110.56ZM686.524 100.2C688.811 100.2 690.748 99.36 692.334 97.68C693.968 96 694.784 93.5967 694.784 90.47C694.784 87.3433 693.991 84.94 692.404 83.26C690.864 81.58 688.951 80.74 686.664 80.74C684.331 80.74 682.394 81.58 680.854 83.26C679.314 84.8933 678.544 87.2967 678.544 90.47C678.544 93.5967 679.291 96 680.784 97.68C682.324 99.36 684.238 100.2 686.524 100.2Z" fill="#A8A8A8"/>
<defs>
<clipPath id="clip0">
<rect width="172" height="172" fill="white" transform="translate(0 11)"/>
</clipPath>
</defs>
</svg>
