<svg width="80" height="92" viewBox="0 0 80 92" fill="none" xmlns="http://www.w3.org/2000/svg">
<g filter="url(#filter0_d)">
<rect x="14" y="8.05127" width="48" height="48.0986" rx="15" fill="white"/>
</g>
<path d="M48.0592 20.825C48.0592 18.2018 45.912 16.0676 43.273 16.0676H38.8521C37.3084 19.1364 36.8837 19.9683 33.2789 22.2952C31.946 23.1556 30.4352 24.1309 28.9034 25.6928C27.1795 27.4504 26.5494 29.9837 27.3327 32.4586C28.1945 35.1806 30.7536 36.9997 33.7123 36.9995H33.768C35.7779 36.9838 36.9193 36.2888 37.8362 35.7302C38.5005 35.3257 38.9028 35.0968 39.4438 35.0968C39.9454 35.0968 40.1353 35.2753 40.5543 35.7154C41.0627 36.2491 41.7587 36.9801 43.2148 36.9992C43.2351 36.9995 43.2555 36.9997 43.2757 36.9997C45.5035 36.9997 47.5089 35.3951 47.9551 33.2451C48.0345 32.8632 48.0674 32.4794 48.0557 32.1007H48.0592V20.825ZM46.0802 32.8607C45.8162 34.1319 44.5697 35.1136 43.24 35.0965C42.5929 35.0881 42.3629 34.8462 41.9446 34.4072C41.4572 33.8952 40.7894 33.1938 39.4438 33.1938C38.3366 33.1938 37.5737 33.6584 36.836 34.1078C36.0107 34.6103 35.2314 35.0851 33.7533 35.0965C33.7395 35.0965 33.7263 35.0968 33.7128 35.0968C31.5949 35.0968 29.7679 33.8112 29.1592 31.8876C28.601 30.1236 29.0205 28.2997 30.2742 27.0211C31.6573 25.611 33.0118 24.7366 34.3217 23.8911C37.0469 22.132 38.508 21.0059 40.0355 17.9706H43.273C44.8564 17.9706 46.1448 19.251 46.1448 20.8248V28.4351C45.3251 27.8227 44.3234 27.4852 43.273 27.4852C41.9945 27.4852 40.7927 27.9797 39.8885 28.8784L41.2424 30.224C41.7846 29.6848 42.5059 29.3879 43.273 29.3879C45.0373 29.3881 46.4703 30.9808 46.0802 32.8607Z" fill="#7A76FF"/>
<path d="M33.3214 39.3838L32.2595 40.9673C32.6396 41.2193 32.8577 41.6243 32.8577 42.0785C32.8577 42.5327 32.6396 42.9377 32.2595 43.1897C31.3509 43.7917 30.8086 44.799 30.8086 45.8842C30.8086 46.9696 31.3509 47.9769 32.2595 48.5789L33.3214 46.9956C32.9413 46.7436 32.7229 46.3386 32.7229 45.8842C32.7229 45.43 32.9413 45.025 33.3214 44.773C34.23 44.171 34.7723 43.1637 34.7723 42.0785C34.7723 40.9933 34.23 39.9858 33.3214 39.3838Z" fill="#7A76FF"/>
<path d="M38.1068 39.3838L37.0447 40.9673C37.425 41.2193 37.6431 41.6243 37.6431 42.0785C37.6431 42.5327 37.425 42.9377 37.0447 43.1897C36.1363 43.7917 35.5938 44.799 35.5938 45.8842C35.5938 46.9696 36.1363 47.9769 37.0447 48.5789L38.1068 46.9956C37.7265 46.7436 37.5083 46.3386 37.5083 45.8842C37.5083 45.43 37.7265 45.025 38.1068 44.773C39.0152 44.171 39.5577 43.1637 39.5577 42.0785C39.5577 40.9933 39.0152 39.9858 38.1068 39.3838Z" fill="#7A76FF"/>
<path d="M42.8956 39.3838L41.8337 40.9673C42.2138 41.2193 42.4319 41.6243 42.4319 42.0785C42.4319 42.5327 42.2138 42.9377 41.8337 43.1897C40.9251 43.7917 40.3828 44.799 40.3828 45.8842C40.3828 46.9696 40.9251 47.9769 41.8337 48.5789L42.8956 46.9956C42.5155 46.7436 42.2972 46.3386 42.2972 45.8842C42.2972 45.43 42.5155 45.025 42.8956 44.773C43.8043 44.171 44.3465 43.1637 44.3465 42.0785C44.3465 40.9933 43.8043 39.9858 42.8956 39.3838Z" fill="#7A76FF"/>
<path d="M13.5245 85.3133C12.1665 85.3133 10.9135 84.9983 9.76548 84.3683C8.63148 83.7243 7.72848 82.8353 7.05648 81.7013C6.39848 80.5533 6.06948 79.2653 6.06948 77.8373C6.06948 76.4093 6.39848 75.1283 7.05648 73.9943C7.72848 72.8603 8.63148 71.9783 9.76548 71.3483C10.9135 70.7043 12.1665 70.3823 13.5245 70.3823C14.8965 70.3823 16.1495 70.7043 17.2835 71.3483C18.4315 71.9783 19.3345 72.8603 19.9925 73.9943C20.6505 75.1283 20.9795 76.4093 20.9795 77.8373C20.9795 79.2653 20.6505 80.5533 19.9925 81.7013C19.3345 82.8353 18.4315 83.7243 17.2835 84.3683C16.1495 84.9983 14.8965 85.3133 13.5245 85.3133ZM13.5245 83.2343C14.4905 83.2343 15.3515 83.0173 16.1075 82.5833C16.8635 82.1353 17.4515 81.5053 17.8715 80.6933C18.3055 79.8673 18.5225 78.9153 18.5225 77.8373C18.5225 76.7593 18.3055 75.8143 17.8715 75.0023C17.4515 74.1903 16.8635 73.5673 16.1075 73.1333C15.3515 72.6993 14.4905 72.4823 13.5245 72.4823C12.5585 72.4823 11.6975 72.6993 10.9415 73.1333C10.1855 73.5673 9.59048 74.1903 9.15648 75.0023C8.73648 75.8143 8.52648 76.7593 8.52648 77.8373C8.52648 78.9153 8.73648 79.8673 9.15648 80.6933C9.59048 81.5053 10.1855 82.1353 10.9415 82.5833C11.6975 83.0173 12.5585 83.2343 13.5245 83.2343ZM25.7293 69.6263V85.1663H23.3353V69.6263H25.7293ZM33.7234 75.5483H31.5814V85.1663H29.1664V75.5483H27.8014V73.5953H29.1664V72.7763C29.1664 71.4463 29.5164 70.4803 30.2164 69.8783C30.9304 69.2623 32.0434 68.9543 33.5554 68.9543V70.9493C32.8274 70.9493 32.3164 71.0893 32.0224 71.3693C31.7284 71.6353 31.5814 72.1043 31.5814 72.7763V73.5953H33.7234V75.5483ZM35.047 79.3283C35.047 78.1663 35.285 77.1373 35.761 76.2413C36.251 75.3453 36.909 74.6523 37.735 74.1623C38.575 73.6583 39.499 73.4063 40.507 73.4063C41.417 73.4063 42.208 73.5883 42.88 73.9523C43.566 74.3023 44.112 74.7433 44.518 75.2753V73.5953H46.933V85.1663H44.518V83.4443C44.112 83.9903 43.559 84.4453 42.859 84.8093C42.159 85.1733 41.361 85.3553 40.465 85.3553C39.471 85.3553 38.561 85.1033 37.735 84.5993C36.909 84.0813 36.251 83.3673 35.761 82.4573C35.285 81.5333 35.047 80.4903 35.047 79.3283ZM44.518 79.3703C44.518 78.5723 44.35 77.8793 44.014 77.2913C43.692 76.7033 43.265 76.2553 42.733 75.9473C42.201 75.6393 41.627 75.4853 41.011 75.4853C40.395 75.4853 39.821 75.6393 39.289 75.9473C38.757 76.2413 38.323 76.6823 37.987 77.2703C37.665 77.8443 37.504 78.5303 37.504 79.3283C37.504 80.1263 37.665 80.8263 37.987 81.4283C38.323 82.0303 38.757 82.4923 39.289 82.8143C39.835 83.1223 40.409 83.2763 41.011 83.2763C41.627 83.2763 42.201 83.1223 42.733 82.8143C43.265 82.5063 43.692 82.0583 44.014 81.4703C44.35 80.8683 44.518 80.1683 44.518 79.3703ZM52.8704 75.5483V81.9533C52.8704 82.3873 52.9684 82.7023 53.1644 82.8983C53.3744 83.0803 53.7244 83.1713 54.2144 83.1713H55.6844V85.1663H53.7944C52.7164 85.1663 51.8904 84.9143 51.3164 84.4103C50.7424 83.9063 50.4554 83.0873 50.4554 81.9533V75.5483H49.0904V73.5953H50.4554V70.7183H52.8704V73.5953H55.6844V75.5483H52.8704ZM62.9099 85.3553C61.8179 85.3553 60.8309 85.1103 59.9489 84.6203C59.0669 84.1163 58.3739 83.4163 57.8699 82.5203C57.3659 81.6103 57.1139 80.5603 57.1139 79.3703C57.1139 78.1943 57.3729 77.1513 57.8909 76.2413C58.4089 75.3313 59.1159 74.6313 60.0119 74.1413C60.9079 73.6513 61.9089 73.4063 63.0149 73.4063C64.1209 73.4063 65.1219 73.6513 66.0179 74.1413C66.9139 74.6313 67.6209 75.3313 68.1389 76.2413C68.6569 77.1513 68.9159 78.1943 68.9159 79.3703C68.9159 80.5463 68.6499 81.5893 68.1179 82.4993C67.5859 83.4093 66.8579 84.1163 65.9339 84.6203C65.0239 85.1103 64.0159 85.3553 62.9099 85.3553ZM62.9099 83.2763C63.5259 83.2763 64.0999 83.1293 64.6319 82.8353C65.1779 82.5413 65.6189 82.1003 65.9549 81.5123C66.2909 80.9243 66.4589 80.2103 66.4589 79.3703C66.4589 78.5303 66.2979 77.8233 65.9759 77.2493C65.6539 76.6613 65.2269 76.2203 64.6949 75.9263C64.1629 75.6323 63.5889 75.4853 62.9729 75.4853C62.3569 75.4853 61.7829 75.6323 61.2509 75.9263C60.7329 76.2203 60.3199 76.6613 60.0119 77.2493C59.7039 77.8233 59.5499 78.5303 59.5499 79.3703C59.5499 80.6163 59.8649 81.5823 60.4949 82.2683C61.1389 82.9403 61.9439 83.2763 62.9099 83.2763Z" fill="#212429"/>
<defs>
<filter id="filter0_d" x="0" y="0.0512695" width="80" height="80.0986" filterUnits="userSpaceOnUse" color-interpolation-filters="sRGB">
<feFlood flood-opacity="0" result="BackgroundImageFix"/>
<feColorMatrix in="SourceAlpha" type="matrix" values="0 0 0 0 0 0 0 0 0 0 0 0 0 0 0 0 0 0 127 0"/>
<feOffset dx="2" dy="8"/>
<feGaussianBlur stdDeviation="8"/>
<feColorMatrix type="matrix" values="0 0 0 0 0.239216 0 0 0 0 0.243137 0 0 0 0 0.258824 0 0 0 0.105 0"/>
<feBlend mode="normal" in2="BackgroundImageFix" result="effect1_dropShadow"/>
<feBlend mode="normal" in="SourceGraphic" in2="effect1_dropShadow" result="shape"/>
</filter>
</defs>
</svg>
