<svg width="773" height="193" viewBox="0 0 773 193" fill="none" xmlns="http://www.w3.org/2000/svg">
<g clip-path="url(#clip0)">
<path d="M85.8477 147.584C123.564 147.584 154.14 117.009 154.14 79.2921C154.14 41.5754 123.564 11 85.8477 11C48.131 11 17.5555 41.5754 17.5555 79.2921C17.5555 117.009 48.131 147.584 85.8477 147.584Z" fill="#FFD15C"/>
<path d="M30.5232 119.245L7.02557 159.976L34.4508 158.521L46.9106 183L68.6476 145.316C53.0728 141.287 39.6988 131.908 30.5232 119.245Z" fill="#CAE9FF"/>
<path d="M141.307 119.042C132.2 131.739 118.826 141.151 103.285 145.248L125.089 183L137.549 158.52L164.974 159.976L141.307 119.042Z" fill="#CAE9FF"/>
<path d="M85.8477 128.793C113.186 128.793 135.348 106.631 135.348 79.2921C135.348 51.9536 113.186 29.7914 85.8477 29.7914C58.5091 29.7914 36.3469 51.9536 36.3469 79.2921C36.3469 106.631 58.5091 128.793 85.8477 128.793Z" fill="#F8B64C"/>
<path d="M111 51.5898C111 45.3404 105.874 40.2563 99.5746 40.2563H89.0213C85.3362 47.5669 84.3223 49.5488 75.717 55.092C72.5352 57.1419 68.9287 59.4653 65.2721 63.1862C61.1569 67.3733 59.6527 73.4081 61.5226 79.3041C63.5797 85.7886 69.6889 90.1223 76.7518 90.1217H76.8846C81.6826 90.0845 84.4074 88.4288 86.5961 87.0981C88.182 86.1343 89.1423 85.5889 90.4338 85.5889C91.6312 85.5889 92.0846 86.0144 93.0848 87.0626C94.2983 88.3342 95.9597 90.0756 99.4358 90.1211C99.4841 90.1217 99.5329 90.1223 99.5812 90.1223C104.899 90.1223 109.686 86.2998 110.752 81.1778C110.941 80.2679 111.02 79.3537 110.992 78.4514H111V51.5898ZM106.276 80.262C105.646 83.2903 102.67 85.6291 99.496 85.5883C97.9513 85.5682 97.402 84.9921 96.4036 83.9462C95.2401 82.7266 93.646 81.0555 90.4338 81.0555C87.7906 81.0555 85.9694 82.1623 84.2085 83.233C82.2384 84.4302 80.378 85.5611 76.8495 85.5883C76.8167 85.5883 76.7851 85.5889 76.753 85.5889C71.697 85.5889 67.3357 82.5263 65.8828 77.9439C64.5501 73.7414 65.5515 69.3965 68.5445 66.3504C71.846 62.9912 75.0796 60.9083 78.2065 58.8939C84.7119 54.7032 88.1998 52.0205 91.8463 44.7897H99.5746C103.354 44.7897 106.43 47.8399 106.43 51.5892V69.7191C104.473 68.2602 102.082 67.456 99.5746 67.456C96.5227 67.456 93.6537 68.6343 91.4954 70.7751L94.7272 73.9807C96.0217 72.6961 97.7434 71.9888 99.5746 71.9888C103.786 71.9894 107.207 75.7835 106.276 80.262Z" fill="white"/>
<path d="M75.8196 95.8015L73.2847 99.5738C74.192 100.174 74.7127 101.139 74.7127 102.221C74.7127 103.303 74.192 104.268 73.2847 104.868C71.1157 106.302 69.8212 108.702 69.8212 111.287C69.8212 113.873 71.1157 116.273 73.2847 117.707L75.8196 113.935C74.9123 113.335 74.391 112.37 74.391 111.287C74.391 110.205 74.9123 109.24 75.8196 108.64C77.9886 107.206 79.2831 104.806 79.2831 102.221C79.2831 99.6358 77.9886 97.2356 75.8196 95.8015Z" fill="white"/>
<path d="M87.2463 95.8015L84.7109 99.5738C85.6188 100.174 86.1395 101.139 86.1395 102.221C86.1395 103.303 85.6188 104.268 84.7109 104.868C82.5424 106.302 81.2473 108.702 81.2473 111.287C81.2473 113.873 82.5424 116.273 84.7109 117.707L87.2463 113.935C86.3384 113.335 85.8178 112.37 85.8178 111.287C85.8178 110.205 86.3384 109.24 87.2463 108.64C89.4148 107.206 90.7099 104.806 90.7099 102.221C90.7099 99.6358 89.4148 97.2356 87.2463 95.8015Z" fill="white"/>
<path d="M98.6719 95.8015L96.137 99.5738C97.0443 100.174 97.565 101.139 97.565 102.221C97.565 103.303 97.0443 104.268 96.137 104.868C93.9679 106.302 92.6734 108.702 92.6734 111.287C92.6734 113.873 93.9679 116.273 96.137 117.707L98.6719 113.935C97.7646 113.335 97.2433 112.37 97.2433 111.287C97.2433 110.205 97.7646 109.24 98.6719 108.64C100.841 107.206 102.135 104.806 102.135 102.221C102.135 99.6358 100.841 97.2356 98.6719 95.8015Z" fill="white"/>
</g>
<path d="M201.31 70.45V80.39H217.34V89.63H201.31V100.41H219.44V110H189.34V60.86H219.44V70.45H201.31ZM239.181 58.2V110H227.211V58.2H239.181ZM284.676 89.84C284.676 90.96 284.606 92.1267 284.466 93.34H257.376C257.562 95.7667 258.332 97.6333 259.686 98.94C261.086 100.2 262.789 100.83 264.796 100.83C267.782 100.83 269.859 99.57 271.026 97.05H283.766C283.112 99.6167 281.922 101.927 280.196 103.98C278.516 106.033 276.392 107.643 273.826 108.81C271.259 109.977 268.389 110.56 265.216 110.56C261.389 110.56 257.982 109.743 254.996 108.11C252.009 106.477 249.676 104.143 247.996 101.11C246.316 98.0767 245.476 94.53 245.476 90.47C245.476 86.41 246.292 82.8633 247.926 79.83C249.606 76.7967 251.939 74.4633 254.926 72.83C257.912 71.1967 261.342 70.38 265.216 70.38C268.996 70.38 272.356 71.1733 275.296 72.76C278.236 74.3467 280.522 76.61 282.156 79.55C283.836 82.49 284.676 85.92 284.676 89.84ZM272.426 86.69C272.426 84.6367 271.726 83.0033 270.326 81.79C268.926 80.5767 267.176 79.97 265.076 79.97C263.069 79.97 261.366 80.5533 259.966 81.72C258.612 82.8867 257.772 84.5433 257.446 86.69H272.426ZM310.59 80.88H304.15V110H292.18V80.88H287.84V70.94H292.18V69.82C292.18 65.0133 293.557 61.3733 296.31 58.9C299.064 56.38 303.1 55.12 308.42 55.12C309.307 55.12 309.96 55.1433 310.38 55.19V65.34C308.094 65.2 306.484 65.5267 305.55 66.32C304.617 67.1133 304.15 68.5367 304.15 70.59V70.94H310.59V80.88ZM313.835 90.4C313.835 86.3867 314.582 82.8633 316.075 79.83C317.615 76.7967 319.692 74.4633 322.305 72.83C324.918 71.1967 327.835 70.38 331.055 70.38C333.808 70.38 336.212 70.94 338.265 72.06C340.365 73.18 341.975 74.65 343.095 76.47V70.94H355.065V110H343.095V104.47C341.928 106.29 340.295 107.76 338.195 108.88C336.142 110 333.738 110.56 330.985 110.56C327.812 110.56 324.918 109.743 322.305 108.11C319.692 106.43 317.615 104.073 316.075 101.04C314.582 97.96 313.835 94.4133 313.835 90.4ZM343.095 90.47C343.095 87.4833 342.255 85.1267 340.575 83.4C338.942 81.6733 336.935 80.81 334.555 80.81C332.175 80.81 330.145 81.6733 328.465 83.4C326.832 85.08 326.015 87.4133 326.015 90.4C326.015 93.3867 326.832 95.7667 328.465 97.54C330.145 99.2667 332.175 100.13 334.555 100.13C336.935 100.13 338.942 99.2667 340.575 97.54C342.255 95.8133 343.095 93.4567 343.095 90.47ZM387.525 70.52C392.098 70.52 395.738 72.0133 398.445 75C401.198 77.94 402.575 82 402.575 87.18V110H390.675V88.79C390.675 86.1767 389.998 84.1467 388.645 82.7C387.291 81.2533 385.471 80.53 383.185 80.53C380.898 80.53 379.078 81.2533 377.725 82.7C376.371 84.1467 375.695 86.1767 375.695 88.79V110H363.725V70.94H375.695V76.12C376.908 74.3933 378.541 73.04 380.595 72.06C382.648 71.0333 384.958 70.52 387.525 70.52ZM432.663 99.85V110H426.573C422.233 110 418.849 108.95 416.423 106.85C413.996 104.703 412.783 101.227 412.783 96.42V80.88H408.023V70.94H412.783V61.42H424.753V70.94H432.593V80.88H424.753V96.56C424.753 97.7267 425.033 98.5667 425.593 99.08C426.153 99.5933 427.086 99.85 428.393 99.85H432.663ZM476.15 89.84C476.15 90.96 476.08 92.1267 475.94 93.34H448.85C449.037 95.7667 449.807 97.6333 451.16 98.94C452.56 100.2 454.264 100.83 456.27 100.83C459.257 100.83 461.334 99.57 462.5 97.05H475.24C474.587 99.6167 473.397 101.927 471.67 103.98C469.99 106.033 467.867 107.643 465.3 108.81C462.734 109.977 459.864 110.56 456.69 110.56C452.864 110.56 449.457 109.743 446.47 108.11C443.484 106.477 441.15 104.143 439.47 101.11C437.79 98.0767 436.95 94.53 436.95 90.47C436.95 86.41 437.767 82.8633 439.4 79.83C441.08 76.7967 443.414 74.4633 446.4 72.83C449.387 71.1967 452.817 70.38 456.69 70.38C460.47 70.38 463.83 71.1733 466.77 72.76C469.71 74.3467 471.997 76.61 473.63 79.55C475.31 82.49 476.15 85.92 476.15 89.84ZM463.9 86.69C463.9 84.6367 463.2 83.0033 461.8 81.79C460.4 80.5767 458.65 79.97 456.55 79.97C454.544 79.97 452.84 80.5533 451.44 81.72C450.087 82.8867 449.247 84.5433 448.92 86.69H463.9ZM515.079 110.56C511.252 110.56 507.799 109.743 504.719 108.11C501.686 106.477 499.282 104.143 497.509 101.11C495.782 98.0767 494.919 94.53 494.919 90.47C494.919 86.4567 495.806 82.9333 497.579 79.9C499.352 76.82 501.779 74.4633 504.859 72.83C507.939 71.1967 511.392 70.38 515.219 70.38C519.046 70.38 522.499 71.1967 525.579 72.83C528.659 74.4633 531.086 76.82 532.859 79.9C534.632 82.9333 535.519 86.4567 535.519 90.47C535.519 94.4833 534.609 98.03 532.789 101.11C531.016 104.143 528.566 106.477 525.439 108.11C522.359 109.743 518.906 110.56 515.079 110.56ZM515.079 100.2C517.366 100.2 519.302 99.36 520.889 97.68C522.522 96 523.339 93.5967 523.339 90.47C523.339 87.3433 522.546 84.94 520.959 83.26C519.419 81.58 517.506 80.74 515.219 80.74C512.886 80.74 510.949 81.58 509.409 83.26C507.869 84.8933 507.099 87.2967 507.099 90.47C507.099 93.5967 507.846 96 509.339 97.68C510.879 99.36 512.792 100.2 515.079 100.2ZM553.839 58.2V110H541.869V58.2H553.839ZM582.114 80.88H575.674V110H563.704V80.88H559.364V70.94H563.704V69.82C563.704 65.0133 565.08 61.3733 567.834 58.9C570.587 56.38 574.624 55.12 579.944 55.12C580.83 55.12 581.484 55.1433 581.904 55.19V65.34C579.617 65.2 578.007 65.5267 577.074 66.32C576.14 67.1133 575.674 68.5367 575.674 70.59V70.94H582.114V80.88ZM585.358 90.4C585.358 86.3867 586.105 82.8633 587.598 79.83C589.138 76.7967 591.215 74.4633 593.828 72.83C596.442 71.1967 599.358 70.38 602.578 70.38C605.332 70.38 607.735 70.94 609.788 72.06C611.888 73.18 613.498 74.65 614.618 76.47V70.94H626.588V110H614.618V104.47C613.452 106.29 611.818 107.76 609.718 108.88C607.665 110 605.262 110.56 602.508 110.56C599.335 110.56 596.442 109.743 593.828 108.11C591.215 106.43 589.138 104.073 587.598 101.04C586.105 97.96 585.358 94.4133 585.358 90.4ZM614.618 90.47C614.618 87.4833 613.778 85.1267 612.098 83.4C610.465 81.6733 608.458 80.81 606.078 80.81C603.698 80.81 601.668 81.6733 599.988 83.4C598.355 85.08 597.538 87.4133 597.538 90.4C597.538 93.3867 598.355 95.7667 599.988 97.54C601.668 99.2667 603.698 100.13 606.078 100.13C608.458 100.13 610.465 99.2667 612.098 97.54C613.778 95.8133 614.618 93.4567 614.618 90.47ZM657.018 99.85V110H650.928C646.588 110 643.205 108.95 640.778 106.85C638.352 104.703 637.138 101.227 637.138 96.42V80.88H632.378V70.94H637.138V61.42H649.108V70.94H656.948V80.88H649.108V96.56C649.108 97.7267 649.388 98.5667 649.948 99.08C650.508 99.5933 651.442 99.85 652.748 99.85H657.018ZM669.706 66.88C667.606 66.88 665.879 66.2733 664.526 65.06C663.219 63.8 662.566 62.26 662.566 60.44C662.566 58.5733 663.219 57.0333 664.526 55.82C665.879 54.56 667.606 53.93 669.706 53.93C671.759 53.93 673.439 54.56 674.746 55.82C676.099 57.0333 676.776 58.5733 676.776 60.44C676.776 62.26 676.099 63.8 674.746 65.06C673.439 66.2733 671.759 66.88 669.706 66.88ZM675.656 70.94V110H663.686V70.94H675.656ZM701.9 98.8L710.37 70.94H723.11L709.25 110H694.48L680.62 70.94H693.43L701.9 98.8ZM745.929 110.56C742.102 110.56 738.649 109.743 735.569 108.11C732.535 106.477 730.132 104.143 728.359 101.11C726.632 98.0767 725.769 94.53 725.769 90.47C725.769 86.4567 726.655 82.9333 728.429 79.9C730.202 76.82 732.629 74.4633 735.709 72.83C738.789 71.1967 742.242 70.38 746.069 70.38C749.895 70.38 753.349 71.1967 756.429 72.83C759.509 74.4633 761.935 76.82 763.709 79.9C765.482 82.9333 766.369 86.4567 766.369 90.47C766.369 94.4833 765.459 98.03 763.639 101.11C761.865 104.143 759.415 106.477 756.289 108.11C753.209 109.743 749.755 110.56 745.929 110.56ZM745.929 100.2C748.215 100.2 750.152 99.36 751.739 97.68C753.372 96 754.189 93.5967 754.189 90.47C754.189 87.3433 753.395 84.94 751.809 83.26C750.269 81.58 748.355 80.74 746.069 80.74C743.735 80.74 741.799 81.58 740.259 83.26C738.719 84.8933 737.949 87.2967 737.949 90.47C737.949 93.5967 738.695 96 740.189 97.68C741.729 99.36 743.642 100.2 745.929 100.2Z" fill="#A8A8A8"/>
<defs>
<clipPath id="clip0">
<rect width="172" height="172" fill="white" transform="translate(0 11)"/>
</clipPath>
</defs>
</svg>
