<svg width="250" height="74" viewBox="0 0 250 74" fill="none" xmlns="http://www.w3.org/2000/svg">
<path d="M121.358 23.427H117.116V27.774H114.89V23.427H110.648V21.411H114.89V17.064H117.116V21.411H121.358V23.427ZM124.443 16.875V14.691H128.811V30H126.396V16.875H124.443ZM132.099 22.146C132.099 19.724 132.505 17.834 133.317 16.476C134.143 15.104 135.557 14.418 137.559 14.418C139.561 14.418 140.968 15.104 141.78 16.476C142.606 17.834 143.019 19.724 143.019 22.146C143.019 24.596 142.606 26.514 141.78 27.9C140.968 29.272 139.561 29.958 137.559 29.958C135.557 29.958 134.143 29.272 133.317 27.9C132.505 26.514 132.099 24.596 132.099 22.146ZM140.667 22.146C140.667 21.012 140.59 20.053 140.436 19.269C140.296 18.485 140.002 17.848 139.554 17.358C139.106 16.854 138.441 16.602 137.559 16.602C136.677 16.602 136.012 16.854 135.564 17.358C135.116 17.848 134.815 18.485 134.661 19.269C134.521 20.053 134.451 21.012 134.451 22.146C134.451 23.322 134.521 24.309 134.661 25.107C134.801 25.905 135.095 26.549 135.543 27.039C136.005 27.529 136.677 27.774 137.559 27.774C138.441 27.774 139.106 27.529 139.554 27.039C140.016 26.549 140.317 25.905 140.457 25.107C140.597 24.309 140.667 23.322 140.667 22.146ZM153.717 20.109C154.067 19.521 154.529 19.066 155.103 18.744C155.691 18.408 156.384 18.24 157.182 18.24V20.718H156.573C155.635 20.718 154.921 20.956 154.431 21.432C153.955 21.908 153.717 22.734 153.717 23.91V30H151.323V18.429H153.717V20.109ZM169.987 23.931C169.987 24.365 169.959 24.757 169.903 25.107H161.062C161.132 26.031 161.475 26.773 162.091 27.333C162.707 27.893 163.463 28.173 164.359 28.173C165.647 28.173 166.557 27.634 167.089 26.556H169.672C169.322 27.62 168.685 28.495 167.761 29.181C166.851 29.853 165.717 30.189 164.359 30.189C163.253 30.189 162.259 29.944 161.377 29.454C160.509 28.95 159.823 28.25 159.319 27.354C158.829 26.444 158.584 25.394 158.584 24.204C158.584 23.014 158.822 21.971 159.298 21.075C159.788 20.165 160.467 19.465 161.335 18.975C162.217 18.485 163.225 18.24 164.359 18.24C165.451 18.24 166.424 18.478 167.278 18.954C168.132 19.43 168.797 20.102 169.273 20.97C169.749 21.824 169.987 22.811 169.987 23.931ZM167.488 23.175C167.474 22.293 167.159 21.586 166.543 21.054C165.927 20.522 165.164 20.256 164.254 20.256C163.428 20.256 162.721 20.522 162.133 21.054C161.545 21.572 161.195 22.279 161.083 23.175H167.488ZM171.545 24.204C171.545 23.014 171.783 21.971 172.259 21.075C172.749 20.165 173.421 19.465 174.275 18.975C175.129 18.485 176.109 18.24 177.215 18.24C178.615 18.24 179.77 18.576 180.68 19.248C181.604 19.906 182.227 20.851 182.549 22.083H179.966C179.756 21.509 179.42 21.061 178.958 20.739C178.496 20.417 177.915 20.256 177.215 20.256C176.235 20.256 175.451 20.606 174.863 21.306C174.289 21.992 174.002 22.958 174.002 24.204C174.002 25.45 174.289 26.423 174.863 27.123C175.451 27.823 176.235 28.173 177.215 28.173C178.601 28.173 179.518 27.564 179.966 26.346H182.549C182.213 27.522 181.583 28.46 180.659 29.16C179.735 29.846 178.587 30.189 177.215 30.189C176.109 30.189 175.129 29.944 174.275 29.454C173.421 28.95 172.749 28.25 172.259 27.354C171.783 26.444 171.545 25.394 171.545 24.204ZM195.414 18.429V30H193.02V28.635C192.642 29.111 192.145 29.489 191.529 29.769C190.927 30.035 190.283 30.168 189.597 30.168C188.687 30.168 187.868 29.979 187.14 29.601C186.426 29.223 185.859 28.663 185.439 27.921C185.033 27.179 184.83 26.283 184.83 25.233V18.429H187.203V24.876C187.203 25.912 187.462 26.71 187.98 27.27C188.498 27.816 189.205 28.089 190.101 28.089C190.997 28.089 191.704 27.816 192.222 27.27C192.754 26.71 193.02 25.912 193.02 24.876V18.429H195.414ZM200.967 20.109C201.317 19.521 201.779 19.066 202.353 18.744C202.941 18.408 203.634 18.24 204.432 18.24V20.718H203.823C202.885 20.718 202.171 20.956 201.681 21.432C201.205 21.908 200.967 22.734 200.967 23.91V30H198.573V18.429H200.967V20.109ZM210.832 30.189C209.922 30.189 209.103 30.028 208.375 29.706C207.661 29.37 207.094 28.922 206.674 28.362C206.254 27.788 206.03 27.151 206.002 26.451H208.48C208.522 26.941 208.753 27.354 209.173 27.69C209.607 28.012 210.146 28.173 210.79 28.173C211.462 28.173 211.98 28.047 212.344 27.795C212.722 27.529 212.911 27.193 212.911 26.787C212.911 26.353 212.701 26.031 212.281 25.821C211.875 25.611 211.224 25.38 210.328 25.128C209.46 24.89 208.753 24.659 208.207 24.435C207.661 24.211 207.185 23.868 206.779 23.406C206.387 22.944 206.191 22.335 206.191 21.579C206.191 20.963 206.373 20.403 206.737 19.899C207.101 19.381 207.619 18.975 208.291 18.681C208.977 18.387 209.761 18.24 210.643 18.24C211.959 18.24 213.016 18.576 213.814 19.248C214.626 19.906 215.06 20.809 215.116 21.957H212.722C212.68 21.439 212.47 21.026 212.092 20.718C211.714 20.41 211.203 20.256 210.559 20.256C209.929 20.256 209.446 20.375 209.11 20.613C208.774 20.851 208.606 21.166 208.606 21.558C208.606 21.866 208.718 22.125 208.942 22.335C209.166 22.545 209.439 22.713 209.761 22.839C210.083 22.951 210.559 23.098 211.189 23.28C212.029 23.504 212.715 23.735 213.247 23.973C213.793 24.197 214.262 24.533 214.654 24.981C215.046 25.429 215.249 26.024 215.263 26.766C215.263 27.424 215.081 28.012 214.717 28.53C214.353 29.048 213.835 29.454 213.163 29.748C212.505 30.042 211.728 30.189 210.832 30.189ZM222.869 30.189C221.777 30.189 220.79 29.944 219.908 29.454C219.026 28.95 218.333 28.25 217.829 27.354C217.325 26.444 217.073 25.394 217.073 24.204C217.073 23.028 217.332 21.985 217.85 21.075C218.368 20.165 219.075 19.465 219.971 18.975C220.867 18.485 221.868 18.24 222.974 18.24C224.08 18.24 225.081 18.485 225.977 18.975C226.873 19.465 227.58 20.165 228.098 21.075C228.616 21.985 228.875 23.028 228.875 24.204C228.875 25.38 228.609 26.423 228.077 27.333C227.545 28.243 226.817 28.95 225.893 29.454C224.983 29.944 223.975 30.189 222.869 30.189ZM222.869 28.11C223.485 28.11 224.059 27.963 224.591 27.669C225.137 27.375 225.578 26.934 225.914 26.346C226.25 25.758 226.418 25.044 226.418 24.204C226.418 23.364 226.257 22.657 225.935 22.083C225.613 21.495 225.186 21.054 224.654 20.76C224.122 20.466 223.548 20.319 222.932 20.319C222.316 20.319 221.742 20.466 221.21 20.76C220.692 21.054 220.279 21.495 219.971 22.083C219.663 22.657 219.509 23.364 219.509 24.204C219.509 25.45 219.824 26.416 220.454 27.102C221.098 27.774 221.903 28.11 222.869 28.11ZM235.442 30.189C234.532 30.189 233.713 30.028 232.985 29.706C232.271 29.37 231.704 28.922 231.284 28.362C230.864 27.788 230.64 27.151 230.612 26.451H233.09C233.132 26.941 233.363 27.354 233.783 27.69C234.217 28.012 234.756 28.173 235.4 28.173C236.072 28.173 236.59 28.047 236.954 27.795C237.332 27.529 237.521 27.193 237.521 26.787C237.521 26.353 237.311 26.031 236.891 25.821C236.485 25.611 235.834 25.38 234.938 25.128C234.07 24.89 233.363 24.659 232.817 24.435C232.271 24.211 231.795 23.868 231.389 23.406C230.997 22.944 230.801 22.335 230.801 21.579C230.801 20.963 230.983 20.403 231.347 19.899C231.711 19.381 232.229 18.975 232.901 18.681C233.587 18.387 234.371 18.24 235.253 18.24C236.569 18.24 237.626 18.576 238.424 19.248C239.236 19.906 239.67 20.809 239.726 21.957H237.332C237.29 21.439 237.08 21.026 236.702 20.718C236.324 20.41 235.813 20.256 235.169 20.256C234.539 20.256 234.056 20.375 233.72 20.613C233.384 20.851 233.216 21.166 233.216 21.558C233.216 21.866 233.328 22.125 233.552 22.335C233.776 22.545 234.049 22.713 234.371 22.839C234.693 22.951 235.169 23.098 235.799 23.28C236.639 23.504 237.325 23.735 237.857 23.973C238.403 24.197 238.872 24.533 239.264 24.981C239.656 25.429 239.859 26.024 239.873 26.766C239.873 27.424 239.691 28.012 239.327 28.53C238.963 29.048 238.445 29.454 237.773 29.748C237.115 30.042 236.338 30.189 235.442 30.189ZM128.713 45.24C129.623 45.24 130.435 45.429 131.149 45.807C131.877 46.185 132.444 46.745 132.85 47.487C133.27 48.229 133.48 49.125 133.48 50.175V57H131.107V50.532C131.107 49.496 130.848 48.705 130.33 48.159C129.812 47.599 129.105 47.319 128.209 47.319C127.313 47.319 126.599 47.599 126.067 48.159C125.549 48.705 125.29 49.496 125.29 50.532V57H122.917V50.532C122.917 49.496 122.658 48.705 122.14 48.159C121.622 47.599 120.915 47.319 120.019 47.319C119.123 47.319 118.409 47.599 117.877 48.159C117.359 48.705 117.1 49.496 117.1 50.532V57H114.706V45.429H117.1V46.752C117.492 46.276 117.989 45.905 118.591 45.639C119.193 45.373 119.837 45.24 120.523 45.24C121.447 45.24 122.273 45.436 123.001 45.828C123.729 46.22 124.289 46.787 124.681 47.529C125.031 46.829 125.577 46.276 126.319 45.87C127.061 45.45 127.859 45.24 128.713 45.24ZM147.005 45.429V57H144.611V55.635C144.233 56.111 143.736 56.489 143.12 56.769C142.518 57.035 141.874 57.168 141.188 57.168C140.278 57.168 139.459 56.979 138.731 56.601C138.017 56.223 137.45 55.663 137.03 54.921C136.624 54.179 136.421 53.283 136.421 52.233V45.429H138.794V51.876C138.794 52.912 139.053 53.71 139.571 54.27C140.089 54.816 140.796 55.089 141.692 55.089C142.588 55.089 143.295 54.816 143.813 54.27C144.345 53.71 144.611 52.912 144.611 51.876V45.429H147.005ZM152.558 41.46V57H150.164V41.46H152.558ZM158.494 47.382V53.787C158.494 54.221 158.592 54.536 158.788 54.732C158.998 54.914 159.348 55.005 159.838 55.005H161.308V57H159.418C158.34 57 157.514 56.748 156.94 56.244C156.366 55.74 156.079 54.921 156.079 53.787V47.382H154.714V45.429H156.079V42.552H158.494V45.429H161.308V47.382H158.494ZM164.732 43.896C164.298 43.896 163.934 43.749 163.64 43.455C163.346 43.161 163.199 42.797 163.199 42.363C163.199 41.929 163.346 41.565 163.64 41.271C163.934 40.977 164.298 40.83 164.732 40.83C165.152 40.83 165.509 40.977 165.803 41.271C166.097 41.565 166.244 41.929 166.244 42.363C166.244 42.797 166.097 43.161 165.803 43.455C165.509 43.749 165.152 43.896 164.732 43.896ZM165.908 45.429V57H163.514V45.429H165.908ZM183.059 45.24C183.969 45.24 184.781 45.429 185.495 45.807C186.223 46.185 186.79 46.745 187.196 47.487C187.616 48.229 187.826 49.125 187.826 50.175V57H185.453V50.532C185.453 49.496 185.194 48.705 184.676 48.159C184.158 47.599 183.451 47.319 182.555 47.319C181.659 47.319 180.945 47.599 180.413 48.159C179.895 48.705 179.636 49.496 179.636 50.532V57H177.263V50.532C177.263 49.496 177.004 48.705 176.486 48.159C175.968 47.599 175.261 47.319 174.365 47.319C173.469 47.319 172.755 47.599 172.223 48.159C171.705 48.705 171.446 49.496 171.446 50.532V57H169.052V45.429H171.446V46.752C171.838 46.276 172.335 45.905 172.937 45.639C173.539 45.373 174.183 45.24 174.869 45.24C175.793 45.24 176.619 45.436 177.347 45.828C178.075 46.22 178.635 46.787 179.027 47.529C179.377 46.829 179.923 46.276 180.665 45.87C181.407 45.45 182.205 45.24 183.059 45.24ZM201.477 50.931C201.477 51.365 201.449 51.757 201.393 52.107H192.552C192.622 53.031 192.965 53.773 193.581 54.333C194.197 54.893 194.953 55.173 195.849 55.173C197.137 55.173 198.047 54.634 198.579 53.556H201.162C200.812 54.62 200.175 55.495 199.251 56.181C198.341 56.853 197.207 57.189 195.849 57.189C194.743 57.189 193.749 56.944 192.867 56.454C191.999 55.95 191.313 55.25 190.809 54.354C190.319 53.444 190.074 52.394 190.074 51.204C190.074 50.014 190.312 48.971 190.788 48.075C191.278 47.165 191.957 46.465 192.825 45.975C193.707 45.485 194.715 45.24 195.849 45.24C196.941 45.24 197.914 45.478 198.768 45.954C199.622 46.43 200.287 47.102 200.763 47.97C201.239 48.824 201.477 49.811 201.477 50.931ZM198.978 50.175C198.964 49.293 198.649 48.586 198.033 48.054C197.417 47.522 196.654 47.256 195.744 47.256C194.918 47.256 194.211 47.522 193.623 48.054C193.035 48.572 192.685 49.279 192.573 50.175H198.978ZM203.035 51.162C203.035 50 203.273 48.971 203.749 48.075C204.239 47.179 204.897 46.486 205.723 45.996C206.563 45.492 207.494 45.24 208.516 45.24C209.272 45.24 210.014 45.408 210.742 45.744C211.484 46.066 212.072 46.5 212.506 47.046V41.46H214.921V57H212.506V55.257C212.114 55.817 211.568 56.279 210.868 56.643C210.182 57.007 209.391 57.189 208.495 57.189C207.487 57.189 206.563 56.937 205.723 56.433C204.897 55.915 204.239 55.201 203.749 54.291C203.273 53.367 203.035 52.324 203.035 51.162ZM212.506 51.204C212.506 50.406 212.338 49.713 212.002 49.125C211.68 48.537 211.253 48.089 210.721 47.781C210.189 47.473 209.615 47.319 208.999 47.319C208.383 47.319 207.809 47.473 207.277 47.781C206.745 48.075 206.311 48.516 205.975 49.104C205.653 49.678 205.492 50.364 205.492 51.162C205.492 51.96 205.653 52.66 205.975 53.262C206.311 53.864 206.745 54.326 207.277 54.648C207.823 54.956 208.397 55.11 208.999 55.11C209.615 55.11 210.189 54.956 210.721 54.648C211.253 54.34 211.68 53.892 212.002 53.304C212.338 52.702 212.506 52.002 212.506 51.204ZM219.283 43.896C218.849 43.896 218.485 43.749 218.191 43.455C217.897 43.161 217.75 42.797 217.75 42.363C217.75 41.929 217.897 41.565 218.191 41.271C218.485 40.977 218.849 40.83 219.283 40.83C219.703 40.83 220.06 40.977 220.354 41.271C220.648 41.565 220.795 41.929 220.795 42.363C220.795 42.797 220.648 43.161 220.354 43.455C220.06 43.749 219.703 43.896 219.283 43.896ZM220.459 45.429V57H218.065V45.429H220.459ZM222.804 51.162C222.804 50 223.042 48.971 223.518 48.075C224.008 47.179 224.666 46.486 225.492 45.996C226.332 45.492 227.256 45.24 228.264 45.24C229.174 45.24 229.965 45.422 230.637 45.786C231.323 46.136 231.869 46.577 232.275 47.109V45.429H234.69V57H232.275V55.278C231.869 55.824 231.316 56.279 230.616 56.643C229.916 57.007 229.118 57.189 228.222 57.189C227.228 57.189 226.318 56.937 225.492 56.433C224.666 55.915 224.008 55.201 223.518 54.291C223.042 53.367 222.804 52.324 222.804 51.162ZM232.275 51.204C232.275 50.406 232.107 49.713 231.771 49.125C231.449 48.537 231.022 48.089 230.49 47.781C229.958 47.473 229.384 47.319 228.768 47.319C228.152 47.319 227.578 47.473 227.046 47.781C226.514 48.075 226.08 48.516 225.744 49.104C225.422 49.678 225.261 50.364 225.261 51.162C225.261 51.96 225.422 52.66 225.744 53.262C226.08 53.864 226.514 54.326 227.046 54.648C227.592 54.956 228.166 55.11 228.768 55.11C229.384 55.11 229.958 54.956 230.49 54.648C231.022 54.34 231.449 53.892 231.771 53.304C232.107 52.702 232.275 52.002 232.275 51.204Z" fill="#212429"/>
<path d="M14.8503 50.8486L27.4785 63.7726C28.357 64.6342 29.6747 64.6342 30.5532 63.8803L80.7365 16.6C81.615 15.7383 81.615 14.4459 80.7365 13.5843L68.1084 0.660337C67.2299 -0.201264 65.9121 -0.201264 65.0337 0.552636L14.8503 47.833C13.9718 48.5869 13.9718 49.987 14.8503 50.8486Z" fill="#F5F5F5"/>
<path d="M14.8521 50.8493C14.8521 50.8493 14.7423 50.7416 14.5227 50.5262C14.3031 50.3108 14.0835 49.7723 14.1933 49.1261C14.1933 48.803 14.3031 48.4799 14.5227 48.1568C14.7423 47.8337 15.0718 47.5106 15.4012 47.2952C16.0601 46.649 16.8287 45.8951 17.7072 45.1412C21.1113 41.9102 26.1626 37.1714 32.312 31.3556C38.4614 25.5398 45.8187 18.5393 53.9447 10.8926C56.0311 8.95398 58.1175 7.01537 60.2039 4.96907C61.302 3.99977 62.4001 2.92277 63.3884 1.95347C63.9374 1.41497 64.4865 0.876469 65.0355 0.445669C65.6944 -0.0928317 66.6827 -0.0928325 67.4514 0.230268C67.7808 0.337968 68.22 0.661069 68.4397 0.984169L69.2083 1.84577C69.7574 2.38427 70.3065 2.92277 70.8555 3.46127C71.9536 4.53827 73.0517 5.72297 74.1498 6.79997C76.346 9.06168 78.5423 11.3234 80.8483 13.6928C81.5071 14.339 81.7268 15.3083 81.3973 16.0622C81.2875 16.493 80.9581 16.8161 80.6286 17.1392L79.7502 18.0008C78.5423 19.0778 77.4441 20.1548 76.2362 21.2318C73.9302 23.3858 71.6242 25.5398 69.4279 27.5861C64.9257 31.7864 60.6431 35.7713 56.5801 39.6485C48.4542 47.2952 40.987 54.2957 34.8376 60.1115C33.3003 61.5116 31.7629 62.9117 30.4452 64.2041C29.6765 64.8503 28.4686 64.958 27.7 64.4195C27.2607 64.2041 27.0411 63.7733 26.7117 63.5579C26.3822 63.2348 26.1626 62.9117 25.8332 62.5886C23.5272 60.2192 21.4408 58.0652 19.7936 56.342C18.1465 54.6188 16.8287 53.3264 15.9502 52.4648C15.511 52.034 15.1816 51.7109 14.962 51.3878C14.962 50.957 14.8521 50.8493 14.8521 50.8493C14.8521 50.8493 14.9619 50.957 15.1816 51.1724C15.4012 51.3878 15.7306 51.7109 16.1698 52.1417C17.0483 53.0033 18.3661 54.2957 20.0132 56.0189C21.6604 57.7421 23.7468 59.7884 26.0528 62.1578C26.3822 62.4809 26.6019 62.804 26.9313 63.1271C27.2607 63.4502 27.4803 63.7733 27.9196 63.9887C28.6883 64.4195 29.6766 64.4195 30.3354 63.7733C31.763 62.4809 33.1905 61.0808 34.7279 59.573C40.8772 53.7572 48.2345 46.7567 56.3605 39.11C60.4235 35.2328 64.7061 31.2479 69.2083 27.0476C71.4046 25.0013 73.7106 22.8473 76.0166 20.6933C77.1147 19.6163 78.3226 18.5393 79.5305 17.4623L80.409 16.6007C80.7384 16.3853 80.9581 16.0622 81.0679 15.7391C81.2875 15.0929 81.1777 14.2313 80.6286 13.6928C78.3226 11.4311 76.1264 9.06168 73.9302 6.79997C72.8321 5.72297 71.734 4.53827 70.6359 3.46127C70.0868 2.92277 69.5378 2.38427 68.9887 1.84577L68.2201 0.984169C68.0004 0.661069 67.671 0.445668 67.3416 0.337968C66.6827 0.014868 65.914 0.122569 65.365 0.553369C64.8159 0.98417 64.2669 1.52267 63.7178 2.06117C62.6197 3.13817 61.5216 4.10747 60.4235 5.07677C58.3371 7.12307 56.1409 9.06168 54.1643 11.0003C46.0383 18.647 38.5712 25.6475 32.4218 31.4633C26.2724 37.2791 21.2212 41.9102 17.7072 45.2489C16.8287 46.1105 16.0601 46.7567 15.4012 47.4029C15.0718 47.726 14.7423 47.9414 14.5227 48.2645C14.3031 48.5876 14.1933 48.9107 14.1933 49.2338C14.0835 49.88 14.3031 50.3108 14.5227 50.5262C14.7423 50.7416 14.8521 50.8493 14.8521 50.8493Z" fill="#263238"/>
<path d="M66.0122 2.28088L56.8828 10.9937L69.8251 24.0385L78.9545 15.3258L66.0122 2.28088Z" fill="#E8505B"/>
<path d="M36.352 30.5826L27.2227 39.2954L40.165 52.3403L49.2943 43.6275L36.352 30.5826Z" fill="#E8505B"/>
<path d="M46.227 21.1276L37.0977 29.8403L50.04 42.8852L59.1693 34.1724L46.227 21.1276Z" fill="#E8505B"/>
<path d="M56.1059 11.6759L46.9766 20.3887L59.9189 33.4336L69.0482 24.7208L56.1059 11.6759Z" fill="#E8505B"/>
<g opacity="0.8">
<path opacity="0.8" d="M66.0122 2.28088L56.8828 10.9937L69.8251 24.0385L78.9545 15.3258L66.0122 2.28088Z" fill="black"/>
</g>
<g opacity="0.5">
<path opacity="0.5" d="M36.352 30.5826L27.2227 39.2954L40.165 52.3403L49.2943 43.6275L36.352 30.5826Z" fill="black"/>
</g>
<g opacity="0.6">
<path opacity="0.6" d="M46.227 21.1276L37.0977 29.8403L50.04 42.8852L59.1693 34.1724L46.227 21.1276Z" fill="black"/>
</g>
<g opacity="0.7">
<path opacity="0.7" d="M56.1059 11.6759L46.9766 20.3887L59.9189 33.4336L69.0482 24.7208L56.1059 11.6759Z" fill="black"/>
</g>
<path d="M15.7273 48.6945L24.5122 64.311C25.0612 65.388 26.379 65.7111 27.4771 65.1726L87.5434 32.6472C88.5317 32.1087 88.971 30.8163 88.3121 29.7393L79.5273 14.1228C78.9782 13.0458 77.6605 12.7227 76.5624 13.2612L16.496 45.7866C15.5077 46.3251 15.0685 47.6175 15.7273 48.6945Z" fill="#F5F5F5"/>
<path d="M15.7292 48.6945C15.7292 48.6945 15.6194 48.5868 15.5096 48.2637C15.3998 47.9406 15.29 47.5098 15.5096 46.8636C15.6194 46.5405 15.839 46.2174 16.0587 46.002C16.3881 45.7866 16.7175 45.5712 17.1568 45.3558C17.9254 44.925 18.9137 44.3865 19.902 43.848C24.0748 41.5863 30.0046 38.3553 37.4717 34.2627C44.9388 30.2778 53.7237 25.4313 63.4968 20.154C65.9126 18.8615 68.4383 17.4614 71.0737 16.0613C72.3914 15.4151 73.5994 14.6612 74.9171 13.9073L75.9054 13.3688C76.2348 13.1534 76.5643 12.938 77.0035 12.8303C77.7722 12.6149 78.6506 12.8303 79.3095 13.3688C79.6389 13.6919 79.7488 14.015 79.9684 14.3381L80.5175 15.3074C80.8469 15.9536 81.2861 16.5998 81.6156 17.246C82.3842 18.5384 83.1529 19.9386 83.9216 21.231C85.4589 23.9235 86.9963 26.7237 88.5336 29.4162C88.9729 30.1701 88.9728 31.1394 88.4238 31.8933C88.2041 32.2164 87.7649 32.5395 87.4355 32.7549L86.3374 33.2934C84.9099 34.0473 83.5922 34.8012 82.1646 35.5551C79.4194 37.0629 76.6741 38.5707 74.0386 39.9708C68.6579 42.8787 63.6066 45.6789 58.6651 48.2637C48.892 53.541 39.9973 58.3875 32.64 62.3724C30.7732 63.3417 29.0163 64.311 27.3691 65.1726C26.3808 65.6034 25.2827 65.1726 24.7337 64.4187C24.1846 63.6648 23.8552 62.9109 23.4159 62.157C21.7688 59.2491 20.4511 56.772 19.2432 54.7257C18.1451 52.6794 17.2666 51.0639 16.6077 49.9869C16.2783 49.4484 16.0587 49.0176 15.9488 48.8022C15.7292 48.8022 15.7292 48.6945 15.7292 48.6945C15.7292 48.6945 15.839 48.8022 15.9488 49.1253C16.1685 49.4484 16.3881 49.7715 16.6077 50.31C17.2666 51.387 18.1451 53.0025 19.2432 54.9411C20.4511 56.9874 21.7688 59.4645 23.4159 62.3724C23.8552 63.1263 24.1846 63.8802 24.7337 64.5264C25.2827 65.1726 26.271 65.4957 27.1495 65.1726C28.7967 64.311 30.5536 63.3417 32.4204 62.2647C39.8875 58.2798 48.6724 53.4333 58.4455 48.156C63.387 45.4635 68.4383 42.6633 73.819 39.7554C76.4544 38.3553 79.1997 36.8475 81.945 35.3397C83.3725 34.5858 84.6902 33.8319 86.1178 33.078L87.2159 32.5395C87.5453 32.3241 87.8747 32.1087 88.0943 31.8933C88.5336 31.2471 88.5336 30.4932 88.2042 29.847C86.6668 27.0468 85.1295 24.3543 83.5921 21.6618C82.8235 20.2617 82.0548 18.9693 81.2861 17.6768C80.9566 17.0306 80.5174 16.3844 80.188 15.7382L79.6389 14.7689C79.4193 14.4458 79.3095 14.1227 79.0899 13.9073C78.5408 13.4765 77.882 13.2611 77.2231 13.3688C76.8937 13.4765 76.5643 13.6919 76.2348 13.7996L75.2465 14.3381C73.9288 15.092 72.6111 15.7382 71.4032 16.4921C68.8775 17.8922 66.3519 19.2924 63.8262 20.5848C54.0531 25.8621 45.1584 30.7086 37.8011 34.6935C30.334 38.6784 24.4043 41.9094 20.2315 44.1711C19.2432 44.7096 18.2549 45.2481 17.4862 45.6789C17.0469 45.8943 16.7175 46.1097 16.3881 46.3251C16.0587 46.5405 15.9488 46.8636 15.839 47.1867C15.6194 47.7252 15.7292 48.2637 15.839 48.5868C15.6194 48.4791 15.7292 48.6945 15.7292 48.6945Z" fill="#263238"/>
<path d="M76.1179 15.987L65.0078 22.0974L74.0845 37.9726L85.1946 31.8622L76.1179 15.987Z" fill="#E8505B"/>
<path d="M40.0203 35.9064L28.9102 42.0168L37.9869 57.892L49.097 51.7816L40.0203 35.9064Z" fill="#E8505B"/>
<path d="M52.075 29.2294L40.9648 35.3398L50.0416 51.215L61.1517 45.1046L52.075 29.2294Z" fill="#E8505B"/>
<path d="M64.1843 22.6415L53.0742 28.752L62.1509 44.6271L73.261 38.5167L64.1843 22.6415Z" fill="#E8505B"/>
<g opacity="0.5">
<path opacity="0.5" d="M76.1179 15.987L65.0078 22.0974L74.0845 37.9726L85.1946 31.8622L76.1179 15.987Z" fill="black"/>
</g>
<g opacity="0.2">
<path opacity="0.2" d="M40.0203 35.9064L28.9102 42.0168L37.9869 57.892L49.097 51.7816L40.0203 35.9064Z" fill="black"/>
</g>
<g opacity="0.3">
<path opacity="0.3" d="M52.075 29.2294L40.9648 35.3398L50.0416 51.215L61.1517 45.1046L52.075 29.2294Z" fill="black"/>
</g>
<g opacity="0.4">
<path opacity="0.4" d="M64.1843 22.6415L53.0742 28.752L62.1509 44.6271L73.261 38.5167L64.1843 22.6415Z" fill="black"/>
</g>
<path d="M13.5331 48.4796L17.3765 65.927C17.5961 67.1117 18.804 67.8656 20.0119 67.5425L90.4005 52.4645C91.6084 52.2491 92.3771 51.0644 92.1575 49.8797L88.3141 32.4322C88.0945 31.2475 86.8865 30.4936 85.6786 30.8167L15.2901 45.8948C13.9724 46.2179 13.2037 47.4026 13.5331 48.4796Z" fill="#F5F5F5"/>
<path d="M13.5325 48.4793C13.5325 48.4793 13.4227 48.3716 13.4227 47.9408C13.4227 47.6177 13.5326 47.0792 13.862 46.5407C14.0816 46.3253 14.3012 46.0022 14.7405 45.8945C15.0699 45.7868 15.5092 45.6791 16.0582 45.5714C16.9367 45.356 18.0348 45.1406 19.2427 44.8175C24.0744 43.7405 30.9924 42.2327 39.5577 40.4018C48.1229 38.5709 58.4451 36.3092 69.7556 33.9398C72.6106 33.2936 75.4657 32.7551 78.4306 32.1089C79.9679 31.7858 81.3954 31.4627 82.9328 31.1396C83.7015 30.9242 84.4702 30.8165 85.2388 30.6011C85.5683 30.4934 86.1173 30.4934 86.4467 30.4934C86.886 30.6011 87.2154 30.7088 87.5448 31.0319C87.8743 31.355 88.0939 31.6781 88.2037 32.1089C88.3135 32.5397 88.4233 32.8628 88.4233 33.2936C88.6429 34.0475 88.7527 34.8014 88.9724 35.5553C89.3018 37.0631 89.6312 38.6786 89.9607 40.1864C90.6195 43.3097 91.3882 46.5407 92.0471 49.664C92.2667 50.5256 91.8274 51.4949 91.1686 52.0334C90.8391 52.3565 90.3999 52.4642 89.9607 52.5719L88.7528 52.7873C87.1056 53.1104 85.5683 53.4335 83.9211 53.8643C80.7366 54.5105 77.5521 55.2644 74.4774 55.9106C68.328 57.203 62.2884 58.4954 56.6881 59.6801C45.2678 62.0495 35.0554 64.3112 26.4902 66.1421C24.294 66.5729 22.3174 67.0037 20.3408 67.4345C20.1212 67.4345 19.9016 67.5422 19.5721 67.5422C19.3525 67.5422 19.0231 67.5422 18.8035 67.5422C18.2544 67.4345 17.8152 67.2191 17.4857 66.7883C17.1563 66.4652 16.9367 65.9267 16.9367 65.4959C16.8269 65.0651 16.7171 64.6343 16.6073 64.2035C15.8386 60.8648 15.2895 57.9569 14.7405 55.5875C14.1914 53.2181 13.862 51.3872 13.5325 50.2025C13.4227 49.5563 13.3129 49.1255 13.2031 48.8024C13.5326 48.6947 13.5325 48.4793 13.5325 48.4793C13.5325 48.4793 13.5325 48.587 13.6424 48.9101C13.7522 49.2332 13.862 49.664 13.9718 50.3102C14.3012 51.6026 14.6306 53.4335 15.1797 55.6952C15.7288 58.0646 16.3876 60.9725 17.1563 64.3112C17.2661 64.742 17.3759 65.1728 17.4857 65.6036C17.5955 66.0344 17.7053 66.4652 18.0348 66.7883C18.3642 67.1114 18.6936 67.3268 19.1329 67.4345C19.5721 67.5422 20.0114 67.4345 20.5604 67.3268C22.537 66.896 24.5136 66.4652 26.7098 66.0344C35.275 64.2035 45.5972 61.9418 56.9077 59.5724C62.6179 58.3877 68.5476 57.0953 74.697 55.6952C77.7717 55.049 80.9562 54.4028 84.1407 53.6489C85.7879 53.3258 87.3252 53.0027 88.9724 52.5719L90.1803 52.3565C90.6196 52.2488 90.949 52.1411 91.2784 51.9257C91.9373 51.4949 92.1569 50.6333 92.0471 49.8794C91.2784 46.6484 90.6195 43.5251 89.9607 40.4018C89.6312 38.7863 89.3018 37.2785 88.9724 35.7707C88.7527 35.0168 88.6429 34.2629 88.4233 33.509C88.3135 33.1859 88.3135 32.7551 88.2037 32.432C88.0939 32.1089 87.8743 31.7858 87.6547 31.5704C87.1056 31.1396 86.3369 30.9242 85.5683 31.1396C84.7996 31.355 84.0309 31.4627 83.2623 31.6781C81.7249 32.0012 80.1875 32.3243 78.76 32.6474C75.7951 33.2936 72.8302 33.9398 69.9752 34.4783C58.5549 36.8477 48.3425 39.1094 39.7773 40.9403C31.212 42.7712 24.1842 44.279 19.3525 45.2483C18.1446 45.4637 17.0465 45.6791 16.168 45.8945C15.7287 46.0022 15.2895 46.0022 14.9601 46.2176C14.6307 46.3253 14.3012 46.6484 14.0816 46.8638C13.6424 47.4023 13.6424 47.8331 13.5325 48.1562C13.4227 48.3716 13.5325 48.4793 13.5325 48.4793Z" fill="#263238"/>
<path d="M13.3136 48.5869C13.3136 48.6946 12.4351 48.5869 10.8977 48.91C9.3604 49.2331 7.1642 49.8793 4.96799 51.7102C2.88159 53.4334 0.904997 56.3413 0.575566 60.0031C0.246134 63.5572 1.67367 67.6498 4.96799 70.3423C6.61514 71.7424 8.48192 72.4963 10.4585 72.9271C12.4351 73.3579 14.4117 73.1425 16.1686 72.7117C17.9256 72.2809 19.463 71.4193 20.7807 70.45C22.0984 69.4807 22.9769 68.296 23.7456 67.1113C25.1731 64.7419 25.5025 62.4802 25.5025 60.9724C25.5025 60.5416 25.5025 60.2185 25.5025 59.8954C25.5025 59.5723 25.3927 59.3569 25.3927 59.1415C25.3927 58.7107 25.3927 58.4953 25.3927 58.4953C25.3927 58.4953 25.5025 58.7107 25.6124 59.1415C25.6124 59.3569 25.7222 59.5723 25.7222 59.8954C25.7222 60.2185 25.832 60.5416 25.832 60.9724C25.9418 62.4802 25.7222 64.9573 24.2946 67.4344C23.6358 68.7268 22.6475 69.9115 21.3297 70.9885C20.012 72.0655 18.3649 72.9271 16.4981 73.4656C14.6313 74.0041 12.5449 74.1118 10.4585 73.681C8.37211 73.2502 6.3955 72.3886 4.63854 70.9885C3.76005 70.3423 3.10119 69.4807 2.44232 68.6191C1.78346 67.7575 1.34423 66.7882 0.904984 65.8189C0.13631 63.8803 -0.0832974 61.834 0.0265132 60.0031C0.246134 58.0645 0.795187 56.3413 1.67367 54.9412C2.55216 53.4334 3.65025 52.3564 4.74835 51.3871C7.05437 49.5562 9.3604 49.0177 10.8977 48.8023C11.6664 48.6946 12.3253 48.6946 12.7645 48.6946C13.094 48.5869 13.3136 48.5869 13.3136 48.5869Z" fill="#263238"/>
<path d="M27.2607 55.5875C27.5901 57.0953 26.6019 58.4954 25.1743 58.8185C23.637 59.1416 22.2094 58.1723 21.88 56.7722C21.5506 55.2644 22.5389 53.8643 23.9664 53.5412C25.5037 53.2181 26.9313 54.0796 27.2607 55.5875Z" fill="#263238"/>
<path d="M86.1547 33.1249L73.7109 35.7922L77.6731 53.5731L90.1168 50.9058L86.1547 33.1249Z" fill="#E8505B"/>
<path d="M72.6547 36.0397L60.2109 38.707L64.1731 56.4879L76.6168 53.8206L72.6547 36.0397Z" fill="#E8505B"/>
<path d="M59.1508 38.946L46.707 41.6133L50.6692 59.3941L63.1129 56.7268L59.1508 38.946Z" fill="#E8505B"/>
<path d="M45.6508 41.8583L33.207 44.5256L37.1692 62.3065L49.6129 59.6392L45.6508 41.8583Z" fill="#E8505B"/>
<g opacity="0.8">
<path opacity="0.8" d="M45.6508 41.8583L33.207 44.5256L37.1692 62.3065L49.6129 59.6392L45.6508 41.8583Z" fill="white"/>
</g>
<g opacity="0.6">
<path opacity="0.6" d="M59.1508 38.946L46.707 41.6133L50.6692 59.3941L63.1129 56.7268L59.1508 38.946Z" fill="white"/>
</g>
<g opacity="0.4">
<path opacity="0.4" d="M72.6547 36.0397L60.2109 38.707L64.1731 56.4879L76.6168 53.8206L72.6547 36.0397Z" fill="white"/>
</g>
</svg>
