<svg width="80" height="80" viewBox="0 0 80 80" fill="none" xmlns="http://www.w3.org/2000/svg">
<g filter="url(#filter0_d)">
<rect x="14" y="8" width="48" height="48" rx="15" fill="white"/>
</g>
<path d="M22.7264 74.084C22.1744 74.084 21.6784 73.988 21.2384 73.796C20.8064 73.596 20.4664 73.324 20.2184 72.98C19.9704 72.628 19.8424 72.224 19.8344 71.768H20.9984C21.0384 72.16 21.1984 72.492 21.4784 72.764C21.7664 73.028 22.1824 73.16 22.7264 73.16C23.2464 73.16 23.6544 73.032 23.9504 72.776C24.2544 72.512 24.4064 72.176 24.4064 71.768C24.4064 71.448 24.3184 71.188 24.1424 70.988C23.9664 70.788 23.7464 70.636 23.4824 70.532C23.2184 70.428 22.8624 70.316 22.4144 70.196C21.8624 70.052 21.4184 69.908 21.0824 69.764C20.7544 69.62 20.4704 69.396 20.2304 69.092C19.9984 68.78 19.8824 68.364 19.8824 67.844C19.8824 67.388 19.9984 66.984 20.2304 66.632C20.4624 66.28 20.7864 66.008 21.2024 65.816C21.6264 65.624 22.1104 65.528 22.6544 65.528C23.4384 65.528 24.0784 65.724 24.5744 66.116C25.0784 66.508 25.3624 67.028 25.4264 67.676H24.2264C24.1864 67.356 24.0184 67.076 23.7224 66.836C23.4264 66.588 23.0344 66.464 22.5464 66.464C22.0904 66.464 21.7184 66.584 21.4304 66.824C21.1424 67.056 20.9984 67.384 20.9984 67.808C20.9984 68.112 21.0824 68.36 21.2504 68.552C21.4264 68.744 21.6384 68.892 21.8864 68.996C22.1424 69.092 22.4984 69.204 22.9544 69.332C23.5064 69.484 23.9504 69.636 24.2864 69.788C24.6224 69.932 24.9104 70.16 25.1504 70.472C25.3904 70.776 25.5104 71.192 25.5104 71.72C25.5104 72.128 25.4024 72.512 25.1864 72.872C24.9704 73.232 24.6504 73.524 24.2264 73.748C23.8024 73.972 23.3024 74.084 22.7264 74.084ZM33.1174 70.46C33.1174 70.668 33.1054 70.888 33.0814 71.12H27.8254C27.8654 71.768 28.0854 72.276 28.4854 72.644C28.8934 73.004 29.3854 73.184 29.9614 73.184C30.4334 73.184 30.8254 73.076 31.1374 72.86C31.4574 72.636 31.6814 72.34 31.8094 71.972H32.9854C32.8094 72.604 32.4574 73.12 31.9294 73.52C31.4014 73.912 30.7454 74.108 29.9614 74.108C29.3374 74.108 28.7774 73.968 28.2814 73.688C27.7934 73.408 27.4094 73.012 27.1294 72.5C26.8494 71.98 26.7094 71.38 26.7094 70.7C26.7094 70.02 26.8454 69.424 27.1174 68.912C27.3894 68.4 27.7694 68.008 28.2574 67.736C28.7534 67.456 29.3214 67.316 29.9614 67.316C30.5854 67.316 31.1374 67.452 31.6174 67.724C32.0974 67.996 32.4654 68.372 32.7214 68.852C32.9854 69.324 33.1174 69.86 33.1174 70.46ZM31.9894 70.232C31.9894 69.816 31.8974 69.46 31.7134 69.164C31.5294 68.86 31.2774 68.632 30.9574 68.48C30.6454 68.32 30.2974 68.24 29.9134 68.24C29.3614 68.24 28.8894 68.416 28.4974 68.768C28.1134 69.12 27.8934 69.608 27.8374 70.232H31.9894ZM37.2708 67.316C37.8388 67.316 38.3348 67.44 38.7588 67.688C39.1908 67.936 39.5108 68.248 39.7188 68.624V67.424H40.8228V74.144C40.8228 74.744 40.6948 75.276 40.4388 75.74C40.1828 76.212 39.8148 76.58 39.3348 76.844C38.8628 77.108 38.3108 77.24 37.6788 77.24C36.8148 77.24 36.0948 77.036 35.5188 76.628C34.9428 76.22 34.6028 75.664 34.4988 74.96H35.5788C35.6988 75.36 35.9468 75.68 36.3228 75.92C36.6988 76.168 37.1508 76.292 37.6788 76.292C38.2788 76.292 38.7668 76.104 39.1428 75.728C39.5268 75.352 39.7188 74.824 39.7188 74.144V72.764C39.5028 73.148 39.1828 73.468 38.7588 73.724C38.3348 73.98 37.8388 74.108 37.2708 74.108C36.6868 74.108 36.1548 73.964 35.6748 73.676C35.2028 73.388 34.8308 72.984 34.5588 72.464C34.2868 71.944 34.1508 71.352 34.1508 70.688C34.1508 70.016 34.2868 69.428 34.5588 68.924C34.8308 68.412 35.2028 68.016 35.6748 67.736C36.1548 67.456 36.6868 67.316 37.2708 67.316ZM39.7188 70.7C39.7188 70.204 39.6188 69.772 39.4188 69.404C39.2188 69.036 38.9468 68.756 38.6028 68.564C38.2668 68.364 37.8948 68.264 37.4868 68.264C37.0788 68.264 36.7068 68.36 36.3708 68.552C36.0348 68.744 35.7668 69.024 35.5668 69.392C35.3668 69.76 35.2668 70.192 35.2668 70.688C35.2668 71.192 35.3668 71.632 35.5668 72.008C35.7668 72.376 36.0348 72.66 36.3708 72.86C36.7068 73.052 37.0788 73.148 37.4868 73.148C37.8948 73.148 38.2668 73.052 38.6028 72.86C38.9468 72.66 39.2188 72.376 39.4188 72.008C39.6188 71.632 39.7188 71.196 39.7188 70.7ZM48.5001 67.424V74H47.4081V73.028C47.2001 73.364 46.9081 73.628 46.5321 73.82C46.1641 74.004 45.7561 74.096 45.3081 74.096C44.7961 74.096 44.3361 73.992 43.9281 73.784C43.5201 73.568 43.1961 73.248 42.9561 72.824C42.7241 72.4 42.6081 71.884 42.6081 71.276V67.424H43.6881V71.132C43.6881 71.78 43.8521 72.28 44.1801 72.632C44.5081 72.976 44.9561 73.148 45.5241 73.148C46.1081 73.148 46.5681 72.968 46.9041 72.608C47.2401 72.248 47.4081 71.724 47.4081 71.036V67.424H48.5001ZM50.9079 66.356C50.6999 66.356 50.5239 66.284 50.3799 66.14C50.2359 65.996 50.1639 65.82 50.1639 65.612C50.1639 65.404 50.2359 65.228 50.3799 65.084C50.5239 64.94 50.6999 64.868 50.9079 64.868C51.1079 64.868 51.2759 64.94 51.4119 65.084C51.5559 65.228 51.6279 65.404 51.6279 65.612C51.6279 65.82 51.5559 65.996 51.4119 66.14C51.2759 66.284 51.1079 66.356 50.9079 66.356ZM51.4359 67.424V74H50.3439V67.424H51.4359ZM54.389 68.492C54.581 68.116 54.853 67.824 55.205 67.616C55.565 67.408 56.001 67.304 56.513 67.304V68.432H56.225C55.001 68.432 54.389 69.096 54.389 70.424V74H53.297V67.424H54.389V68.492Z" fill="white"/>
<path d="M42 41V39C42 37.9391 41.5786 36.9217 40.8284 36.1716C40.0783 35.4214 39.0609 35 38 35H31C29.9391 35 28.9217 35.4214 28.1716 36.1716C27.4214 36.9217 27 37.9391 27 39V41" stroke="#686B6E" stroke-width="2" stroke-linecap="round" stroke-linejoin="round"/>
<path d="M34.5 31C36.7091 31 38.5 29.2091 38.5 27C38.5 24.7909 36.7091 23 34.5 23C32.2909 23 30.5 24.7909 30.5 27C30.5 29.2091 32.2909 31 34.5 31Z" stroke="#686B6E" stroke-width="2" stroke-linecap="round" stroke-linejoin="round"/>
<path d="M46 28V34" stroke="#686B6E" stroke-width="2" stroke-linecap="round" stroke-linejoin="round"/>
<path d="M49 31H43" stroke="#686B6E" stroke-width="2" stroke-linecap="round" stroke-linejoin="round"/>
<defs>
<filter id="filter0_d" x="0" y="0" width="80" height="80" filterUnits="userSpaceOnUse" color-interpolation-filters="sRGB">
<feFlood flood-opacity="0" result="BackgroundImageFix"/>
<feColorMatrix in="SourceAlpha" type="matrix" values="0 0 0 0 0 0 0 0 0 0 0 0 0 0 0 0 0 0 127 0"/>
<feOffset dx="2" dy="8"/>
<feGaussianBlur stdDeviation="8"/>
<feColorMatrix type="matrix" values="0 0 0 0 0.239216 0 0 0 0 0.243137 0 0 0 0 0.258824 0 0 0 0.105 0"/>
<feBlend mode="normal" in2="BackgroundImageFix" result="effect1_dropShadow"/>
<feBlend mode="normal" in="SourceGraphic" in2="effect1_dropShadow" result="shape"/>
</filter>
</defs>
</svg>
