<svg width="30" height="14" viewBox="0 0 30 14" fill="none" xmlns="http://www.w3.org/2000/svg">
<path d="M4.768 13.112C4.032 13.112 3.37067 12.984 2.784 12.728C2.208 12.4613 1.75467 12.0987 1.424 11.64C1.09333 11.1707 0.922667 10.632 0.912 10.024H2.464C2.51733 10.5467 2.73067 10.9893 3.104 11.352C3.488 11.704 4.04267 11.88 4.768 11.88C5.46133 11.88 6.00533 11.7093 6.4 11.368C6.80533 11.016 7.008 10.568 7.008 10.024C7.008 9.59733 6.89067 9.25067 6.656 8.984C6.42133 8.71733 6.128 8.51467 5.776 8.376C5.424 8.23733 4.94933 8.088 4.352 7.928C3.616 7.736 3.024 7.544 2.576 7.352C2.13867 7.16 1.76 6.86133 1.44 6.456C1.13067 6.04 0.976 5.48533 0.976 4.792C0.976 4.184 1.13067 3.64533 1.44 3.176C1.74933 2.70667 2.18133 2.344 2.736 2.088C3.30133 1.832 3.94667 1.704 4.672 1.704C5.71733 1.704 6.57067 1.96533 7.232 2.488C7.904 3.01067 8.28267 3.704 8.368 4.568H6.768C6.71467 4.14133 6.49067 3.768 6.096 3.448C5.70133 3.11733 5.17867 2.952 4.528 2.952C3.92 2.952 3.424 3.112 3.04 3.432C2.656 3.74133 2.464 4.17867 2.464 4.744C2.464 5.14933 2.576 5.48 2.8 5.736C3.03467 5.992 3.31733 6.18933 3.648 6.328C3.98933 6.456 4.464 6.60533 5.072 6.776C5.808 6.97867 6.4 7.18133 6.848 7.384C7.296 7.576 7.68 7.88 8 8.296C8.32 8.70133 8.48 9.256 8.48 9.96C8.48 10.504 8.336 11.016 8.048 11.496C7.76 11.976 7.33333 12.3653 6.768 12.664C6.20267 12.9627 5.536 13.112 4.768 13.112ZM11.3746 2.808C11.0973 2.808 10.8626 2.712 10.6706 2.52C10.4786 2.328 10.3826 2.09333 10.3826 1.816C10.3826 1.53867 10.4786 1.304 10.6706 1.112C10.8626 0.919999 11.0973 0.823999 11.3746 0.823999C11.6413 0.823999 11.8653 0.919999 12.0466 1.112C12.2386 1.304 12.3346 1.53867 12.3346 1.816C12.3346 2.09333 12.2386 2.328 12.0466 2.52C11.8653 2.712 11.6413 2.808 11.3746 2.808ZM12.0786 4.232V13H10.6226V4.232H12.0786ZM15.6481 11.8H19.9521V13H13.9841V11.8L18.2401 5.416H14.0161V4.232H19.9201V5.416L15.6481 11.8ZM29.8414 8.28C29.8414 8.55733 29.8254 8.85067 29.7934 9.16H22.7854C22.8387 10.024 23.132 10.7013 23.6654 11.192C24.2094 11.672 24.8654 11.912 25.6334 11.912C26.2627 11.912 26.7854 11.768 27.2014 11.48C27.628 11.1813 27.9267 10.7867 28.0974 10.296H29.6654C29.4307 11.1387 28.9614 11.8267 28.2574 12.36C27.5534 12.8827 26.6787 13.144 25.6334 13.144C24.8014 13.144 24.0547 12.9573 23.3934 12.584C22.7427 12.2107 22.2307 11.6827 21.8574 11C21.484 10.3067 21.2974 9.50667 21.2974 8.6C21.2974 7.69333 21.4787 6.89867 21.8414 6.216C22.204 5.53333 22.7107 5.01067 23.3614 4.648C24.0227 4.27467 24.78 4.088 25.6334 4.088C26.4654 4.088 27.2014 4.26933 27.8414 4.632C28.4814 4.99467 28.972 5.496 29.3134 6.136C29.6654 6.76533 29.8414 7.48 29.8414 8.28ZM28.3374 7.976C28.3374 7.42133 28.2147 6.94667 27.9694 6.552C27.724 6.14667 27.388 5.84267 26.9614 5.64C26.5454 5.42667 26.0814 5.32 25.5694 5.32C24.8334 5.32 24.204 5.55467 23.6814 6.024C23.1694 6.49333 22.876 7.144 22.8014 7.976H28.3374Z" fill="#212429"/>
</svg>
