<svg width="69" height="74" viewBox="0 0 69 74" fill="none" xmlns="http://www.w3.org/2000/svg">
<path d="M55.8145 11.4761L38.1902 19.1432L38.2649 24.2462L36.2734 26.3373L43.0195 32.3614L44.986 30.1459L50.2385 29.424L55.8145 11.4761Z" fill="#FAFAFA"/>
<path d="M55.8145 11.4761C55.6651 11.9739 53.5243 18.8693 50.2633 29.424V29.4489H50.2384C48.5706 29.6729 46.8032 29.9219 44.986 30.1957L45.0358 30.1708C44.4134 30.8678 43.7413 31.6146 43.0692 32.3863L43.0194 32.4361L42.9696 32.3863C41.8743 31.3906 40.7044 30.3699 39.5344 29.2995C38.4142 28.3038 37.3189 27.3081 36.2236 26.3373L36.1738 26.2875L36.2236 26.2377C36.8957 25.5407 37.5678 24.8437 38.2151 24.1467L38.1902 24.1965C38.1653 22.429 38.1404 20.7114 38.1155 19.0934V19.0436L38.1404 19.0187C48.4959 14.6375 55.3415 11.7001 55.8145 11.4761C55.3166 11.7001 48.5208 14.6624 38.1902 19.168L38.2151 19.1183C38.24 20.7612 38.2648 22.4539 38.3146 24.2213V24.2462L38.2897 24.2711C37.6425 24.9681 36.9704 25.6651 36.2983 26.3622V26.2626C37.3687 27.2334 38.4889 28.2042 39.6091 29.2C40.779 30.2455 41.949 31.291 43.0443 32.2867H42.9448C43.6169 31.5399 44.289 30.7931 44.9113 30.0961L44.9362 30.0712H44.9611C46.7783 29.8223 48.5457 29.5734 50.2135 29.3493L50.1638 29.3991C53.4994 18.8693 55.6651 11.9988 55.8145 11.4761Z" fill="#263238"/>
<path d="M48.6709 24.0223C47.6503 25.1674 45.9078 25.2669 44.7627 24.2463C43.6176 23.2257 43.518 21.4832 44.5386 20.3381C45.5592 19.193 47.3018 19.0935 48.4469 20.1141C49.5919 21.1098 49.6915 22.8772 48.6709 24.0223Z" fill="#263238"/>
<path d="M55.8142 11.4761C55.8391 11.501 53.7979 13.9156 51.2588 16.853C48.7197 19.7904 46.6286 22.1801 46.6037 22.1552C46.5788 22.1303 48.6201 19.7157 51.1592 16.7783C53.7232 13.8409 55.7893 11.4761 55.8142 11.4761Z" fill="#263238"/>
<path d="M1.47309 72.4393C-0.344107 70.8213 -0.493466 68.0582 1.09969 66.241L34.2822 28.7021L40.854 34.5769L7.72126 72.0908C6.10321 73.908 3.29029 74.0823 1.47309 72.4393Z" fill="#FF6B6C"/>
<path d="M36.1651 25.5475L33.7598 28.2388L41.4994 35.1563L43.9048 32.465L36.1651 25.5475Z" fill="#E8505B"/>
<path d="M56.9944 11.4589L55.5254 10.2278L54.2943 11.6968L55.7633 12.9279L56.9944 11.4589Z" fill="#E8505B"/>
<path d="M67.8363 21.4333C67.7616 21.508 62.1358 16.9028 55.2653 11.1276C48.3948 5.37729 42.8685 0.647596 42.9183 0.572917C42.993 0.498238 48.6188 5.10347 55.4893 10.8787C62.3847 16.629 67.911 21.3587 67.8363 21.4333Z" fill="#E8505B"/>
<path d="M68.1114 21.6821C67.9123 21.931 67.5389 21.9559 67.3149 21.7568C67.0659 21.5576 67.041 21.1842 67.2402 20.9602C67.4393 20.7361 67.8127 20.6864 68.0368 20.8855C68.2857 21.0846 68.3106 21.4331 68.1114 21.6821Z" fill="#E8505B"/>
<path d="M43.3673 0.921336C43.1682 1.17027 42.7948 1.19516 42.5707 0.996016C42.3218 0.796871 42.2969 0.423473 42.496 0.199435C42.6952 -0.0246026 43.0686 -0.0743877 43.2926 0.124757C43.5416 0.323902 43.5664 0.697298 43.3673 0.921336Z" fill="#E8505B"/>
<path opacity="0.3" d="M34.2826 28.7021L40.8544 34.5769L39.9831 35.5975L33.959 29.0507L34.2826 28.7021Z" fill="black"/>
<path opacity="0.5" d="M38.2891 27.4326V32.1374L39.235 33.1331V28.3039L38.2891 27.4326Z" fill="white"/>
</svg>
