<svg width="93" height="74" viewBox="0 0 93 74" fill="none" xmlns="http://www.w3.org/2000/svg">
<path d="M14.8503 50.8486L27.4785 63.7726C28.357 64.6342 29.6747 64.6342 30.5532 63.8803L80.7365 16.6C81.615 15.7383 81.615 14.4459 80.7365 13.5843L68.1084 0.660337C67.2299 -0.201264 65.9121 -0.201264 65.0337 0.552636L14.8503 47.833C13.9718 48.5869 13.9718 49.987 14.8503 50.8486Z" fill="#F5F5F5"/>
<path d="M14.8502 50.8493C14.8502 50.8493 14.7404 50.7416 14.5207 50.5262C14.3011 50.3108 14.0815 49.7723 14.1913 49.1261C14.1913 48.803 14.3011 48.4799 14.5207 48.1568C14.7404 47.8337 15.0698 47.5106 15.3992 47.2952C16.0581 46.649 16.8268 45.8951 17.7053 45.1412C21.1094 41.9102 26.1607 37.1714 32.3101 31.3556C38.4594 25.5398 45.8168 18.5393 53.9427 10.8926C56.0291 8.95398 58.1155 7.01537 60.2019 4.96907C61.3 3.99977 62.3981 2.92277 63.3864 1.95347C63.9355 1.41497 64.4845 0.876469 65.0336 0.445669C65.6924 -0.0928317 66.6807 -0.0928325 67.4494 0.230268C67.7789 0.337968 68.2181 0.661069 68.4377 0.984169L69.2064 1.84577C69.7554 2.38427 70.3045 2.92277 70.8536 3.46127C71.9517 4.53827 73.0498 5.72297 74.1479 6.79997C76.3441 9.06168 78.5403 11.3234 80.8463 13.6928C81.5052 14.339 81.7248 15.3083 81.3954 16.0622C81.2856 16.493 80.9561 16.8161 80.6267 17.1392L79.7482 18.0008C78.5403 19.0778 77.4422 20.1548 76.2343 21.2318C73.9282 23.3858 71.6222 25.5398 69.426 27.5861C64.9238 31.7864 60.6412 35.7713 56.5782 39.6485C48.4522 47.2952 40.9851 54.2957 34.8357 60.1115C33.2983 61.5116 31.761 62.9117 30.4433 64.2041C29.6746 64.8503 28.4667 64.958 27.698 64.4195C27.2588 64.2041 27.0391 63.7733 26.7097 63.5579C26.3803 63.2348 26.1607 62.9117 25.8312 62.5886C23.5252 60.2192 21.4388 58.0652 19.7917 56.342C18.1445 54.6188 16.8268 53.3264 15.9483 52.4648C15.5091 52.034 15.1796 51.7109 14.96 51.3878C14.96 50.957 14.8502 50.8493 14.8502 50.8493C14.8502 50.8493 14.96 50.957 15.1796 51.1724C15.3992 51.3878 15.7287 51.7109 16.1679 52.1417C17.0464 53.0033 18.3641 54.2957 20.0113 56.0189C21.6584 57.7421 23.7448 59.7884 26.0508 62.1578C26.3803 62.4809 26.5999 62.804 26.9293 63.1271C27.2588 63.4502 27.4784 63.7733 27.9176 63.9887C28.6863 64.4195 29.6746 64.4195 30.3335 63.7733C31.761 62.4809 33.1886 61.0808 34.7259 59.573C40.8753 53.7572 48.2326 46.7567 56.3586 39.11C60.4215 35.2328 64.7042 31.2479 69.2064 27.0476C71.4026 25.0013 73.7086 22.8473 76.0146 20.6933C77.1127 19.6163 78.3207 18.5393 79.5286 17.4623L80.4071 16.6007C80.7365 16.3853 80.9561 16.0622 81.0659 15.7391C81.2856 15.0929 81.1757 14.2313 80.6267 13.6928C78.3207 11.4311 76.1244 9.06168 73.9282 6.79997C72.8301 5.72297 71.732 4.53827 70.6339 3.46127C70.0849 2.92277 69.5358 2.38427 68.9868 1.84577L68.2181 0.984169C67.9985 0.661069 67.669 0.445668 67.3396 0.337968C66.6807 0.014868 65.9121 0.122569 65.363 0.553369C64.814 0.98417 64.2649 1.52267 63.7159 2.06117C62.6178 3.13817 61.5197 4.10747 60.4216 5.07677C58.3352 7.12307 56.1389 9.06168 54.1623 11.0003C46.0364 18.647 38.5693 25.6475 32.4199 31.4633C26.2705 37.2791 21.2192 41.9102 17.7053 45.2489C16.8268 46.1105 16.0581 46.7567 15.3992 47.4029C15.0698 47.726 14.7404 47.9414 14.5207 48.2645C14.3011 48.5876 14.1913 48.9107 14.1913 49.2338C14.0815 49.88 14.3011 50.3108 14.5207 50.5262C14.7404 50.7416 14.8502 50.8493 14.8502 50.8493Z" fill="#263238"/>
<path d="M66.0141 2.28088L56.8848 10.9937L69.8271 24.0385L78.9564 15.3258L66.0141 2.28088Z" fill="#E8505B"/>
<path d="M36.352 30.5826L27.2227 39.2954L40.165 52.3403L49.2943 43.6275L36.352 30.5826Z" fill="#E8505B"/>
<path d="M46.225 21.1276L37.0957 29.8403L50.038 42.8852L59.1674 34.1724L46.225 21.1276Z" fill="#E8505B"/>
<path d="M56.1059 11.6759L46.9766 20.3887L59.9189 33.4336L69.0482 24.7208L56.1059 11.6759Z" fill="#E8505B"/>
<g opacity="0.8">
<path opacity="0.8" d="M66.0141 2.28088L56.8848 10.9937L69.8271 24.0385L78.9564 15.3258L66.0141 2.28088Z" fill="black"/>
</g>
<g opacity="0.5">
<path opacity="0.5" d="M36.352 30.5826L27.2227 39.2954L40.165 52.3403L49.2943 43.6275L36.352 30.5826Z" fill="black"/>
</g>
<g opacity="0.6">
<path opacity="0.6" d="M46.225 21.1276L37.0957 29.8403L50.038 42.8852L59.1674 34.1724L46.225 21.1276Z" fill="black"/>
</g>
<g opacity="0.7">
<path opacity="0.7" d="M56.1059 11.6759L46.9766 20.3887L59.9189 33.4336L69.0482 24.7208L56.1059 11.6759Z" fill="black"/>
</g>
<path d="M15.7293 48.6945L24.5141 64.311C25.0632 65.388 26.3809 65.7111 27.479 65.1726L87.5454 32.6472C88.5337 32.1087 88.9729 30.8163 88.3141 29.7393L79.5292 14.1228C78.9802 13.0458 77.6624 12.7227 76.5643 13.2612L16.498 45.7866C15.5097 46.3251 15.0704 47.6175 15.7293 48.6945Z" fill="#F5F5F5"/>
<path d="M15.7292 48.6945C15.7292 48.6945 15.6194 48.5868 15.5096 48.2637C15.3998 47.9406 15.29 47.5098 15.5096 46.8636C15.6194 46.5405 15.839 46.2174 16.0587 46.002C16.3881 45.7866 16.7175 45.5712 17.1568 45.3558C17.9254 44.925 18.9137 44.3865 19.902 43.848C24.0748 41.5863 30.0046 38.3553 37.4717 34.2627C44.9388 30.2778 53.7237 25.4313 63.4968 20.154C65.9126 18.8615 68.4383 17.4614 71.0737 16.0613C72.3914 15.4151 73.5994 14.6612 74.9171 13.9073L75.9054 13.3688C76.2348 13.1534 76.5643 12.938 77.0035 12.8303C77.7722 12.6149 78.6506 12.8303 79.3095 13.3688C79.6389 13.6919 79.7488 14.015 79.9684 14.3381L80.5175 15.3074C80.8469 15.9536 81.2861 16.5998 81.6156 17.246C82.3842 18.5384 83.1529 19.9386 83.9216 21.231C85.4589 23.9235 86.9963 26.7237 88.5336 29.4162C88.9729 30.1701 88.9728 31.1394 88.4238 31.8933C88.2041 32.2164 87.7649 32.5395 87.4355 32.7549L86.3374 33.2934C84.9099 34.0473 83.5922 34.8012 82.1646 35.5551C79.4194 37.0629 76.6741 38.5707 74.0386 39.9708C68.6579 42.8787 63.6066 45.6789 58.6651 48.2637C48.892 53.541 39.9973 58.3875 32.64 62.3724C30.7732 63.3417 29.0163 64.311 27.3691 65.1726C26.3808 65.6034 25.2827 65.1726 24.7337 64.4187C24.1846 63.6648 23.8552 62.9109 23.4159 62.157C21.7688 59.2491 20.4511 56.772 19.2432 54.7257C18.1451 52.6794 17.2666 51.0639 16.6077 49.9869C16.2783 49.4484 16.0587 49.0176 15.9488 48.8022C15.7292 48.8022 15.7292 48.6945 15.7292 48.6945C15.7292 48.6945 15.839 48.8022 15.9488 49.1253C16.1685 49.4484 16.3881 49.7715 16.6077 50.31C17.2666 51.387 18.1451 53.0025 19.2432 54.9411C20.4511 56.9874 21.7688 59.4645 23.4159 62.3724C23.8552 63.1263 24.1846 63.8802 24.7337 64.5264C25.2827 65.1726 26.271 65.4957 27.1495 65.1726C28.7967 64.311 30.5536 63.3417 32.4204 62.2647C39.8875 58.2798 48.6724 53.4333 58.4455 48.156C63.387 45.4635 68.4383 42.6633 73.819 39.7554C76.4544 38.3553 79.1997 36.8475 81.945 35.3397C83.3725 34.5858 84.6902 33.8319 86.1178 33.078L87.2159 32.5395C87.5453 32.3241 87.8747 32.1087 88.0943 31.8933C88.5336 31.2471 88.5336 30.4932 88.2042 29.847C86.6668 27.0468 85.1295 24.3543 83.5921 21.6618C82.8235 20.2617 82.0548 18.9693 81.2861 17.6768C80.9566 17.0306 80.5174 16.3844 80.188 15.7382L79.6389 14.7689C79.4193 14.4458 79.3095 14.1227 79.0899 13.9073C78.5408 13.4765 77.882 13.2611 77.2231 13.3688C76.8937 13.4765 76.5643 13.6919 76.2348 13.7996L75.2465 14.3381C73.9288 15.092 72.6111 15.7382 71.4032 16.4921C68.8775 17.8922 66.3519 19.2924 63.8262 20.5848C54.0531 25.8621 45.1584 30.7086 37.8011 34.6935C30.334 38.6784 24.4043 41.9094 20.2315 44.1711C19.2432 44.7096 18.2549 45.2481 17.4862 45.6789C17.0469 45.8943 16.7175 46.1097 16.3881 46.3251C16.0587 46.5405 15.9488 46.8636 15.839 47.1867C15.6194 47.7252 15.7292 48.2637 15.839 48.5868C15.6194 48.4791 15.7292 48.6945 15.7292 48.6945Z" fill="#263238"/>
<path d="M76.1179 15.987L65.0078 22.0974L74.0845 37.9726L85.1946 31.8622L76.1179 15.987Z" fill="#E8505B"/>
<path d="M40.0203 35.9064L28.9102 42.0168L37.9869 57.892L49.097 51.7816L40.0203 35.9064Z" fill="#E8505B"/>
<path d="M52.075 29.2294L40.9648 35.3398L50.0416 51.215L61.1517 45.1046L52.075 29.2294Z" fill="#E8505B"/>
<path d="M64.1824 22.6415L53.0723 28.752L62.149 44.6271L73.2591 38.5167L64.1824 22.6415Z" fill="#E8505B"/>
<g opacity="0.5">
<path opacity="0.5" d="M76.1179 15.987L65.0078 22.0974L74.0845 37.9726L85.1946 31.8622L76.1179 15.987Z" fill="black"/>
</g>
<g opacity="0.2">
<path opacity="0.2" d="M40.0203 35.9064L28.9102 42.0168L37.9869 57.892L49.097 51.7816L40.0203 35.9064Z" fill="black"/>
</g>
<g opacity="0.3">
<path opacity="0.3" d="M52.075 29.2294L40.9648 35.3398L50.0416 51.215L61.1517 45.1046L52.075 29.2294Z" fill="black"/>
</g>
<g opacity="0.4">
<path opacity="0.4" d="M64.1824 22.6415L53.0723 28.752L62.149 44.6271L73.2591 38.5167L64.1824 22.6415Z" fill="black"/>
</g>
<path d="M13.5331 48.4796L17.3765 65.927C17.5961 67.1117 18.804 67.8656 20.0119 67.5425L90.4005 52.4645C91.6084 52.2491 92.3771 51.0644 92.1575 49.8797L88.3141 32.4322C88.0945 31.2475 86.8865 30.4936 85.6786 30.8167L15.2901 45.8948C13.9724 46.2179 13.2037 47.4026 13.5331 48.4796Z" fill="#F5F5F5"/>
<path d="M13.5325 48.4793C13.5325 48.4793 13.4227 48.3716 13.4227 47.9408C13.4227 47.6177 13.5326 47.0792 13.862 46.5407C14.0816 46.3253 14.3012 46.0022 14.7405 45.8945C15.0699 45.7868 15.5092 45.6791 16.0582 45.5714C16.9367 45.356 18.0348 45.1406 19.2427 44.8175C24.0744 43.7405 30.9924 42.2327 39.5577 40.4018C48.1229 38.5709 58.4451 36.3092 69.7556 33.9398C72.6106 33.2936 75.4657 32.7551 78.4306 32.1089C79.9679 31.7858 81.3954 31.4627 82.9328 31.1396C83.7015 30.9242 84.4702 30.8165 85.2388 30.6011C85.5683 30.4934 86.1173 30.4934 86.4467 30.4934C86.886 30.6011 87.2154 30.7088 87.5448 31.0319C87.8743 31.355 88.0939 31.6781 88.2037 32.1089C88.3135 32.5397 88.4233 32.8628 88.4233 33.2936C88.6429 34.0475 88.7527 34.8014 88.9724 35.5553C89.3018 37.0631 89.6312 38.6786 89.9607 40.1864C90.6195 43.3097 91.3882 46.5407 92.0471 49.664C92.2667 50.5256 91.8274 51.4949 91.1686 52.0334C90.8391 52.3565 90.3999 52.4642 89.9607 52.5719L88.7528 52.7873C87.1056 53.1104 85.5683 53.4335 83.9211 53.8643C80.7366 54.5105 77.5521 55.2644 74.4774 55.9106C68.328 57.203 62.2884 58.4954 56.6881 59.6801C45.2678 62.0495 35.0554 64.3112 26.4902 66.1421C24.294 66.5729 22.3174 67.0037 20.3408 67.4345C20.1212 67.4345 19.9016 67.5422 19.5721 67.5422C19.3525 67.5422 19.0231 67.5422 18.8035 67.5422C18.2544 67.4345 17.8152 67.2191 17.4857 66.7883C17.1563 66.4652 16.9367 65.9267 16.9367 65.4959C16.8269 65.0651 16.7171 64.6343 16.6073 64.2035C15.8386 60.8648 15.2895 57.9569 14.7405 55.5875C14.1914 53.2181 13.862 51.3872 13.5325 50.2025C13.4227 49.5563 13.3129 49.1255 13.2031 48.8024C13.5326 48.6947 13.5325 48.4793 13.5325 48.4793C13.5325 48.4793 13.5325 48.587 13.6424 48.9101C13.7522 49.2332 13.862 49.664 13.9718 50.3102C14.3012 51.6026 14.6306 53.4335 15.1797 55.6952C15.7288 58.0646 16.3876 60.9725 17.1563 64.3112C17.2661 64.742 17.3759 65.1728 17.4857 65.6036C17.5955 66.0344 17.7053 66.4652 18.0348 66.7883C18.3642 67.1114 18.6936 67.3268 19.1329 67.4345C19.5721 67.5422 20.0114 67.4345 20.5604 67.3268C22.537 66.896 24.5136 66.4652 26.7098 66.0344C35.275 64.2035 45.5972 61.9418 56.9077 59.5724C62.6179 58.3877 68.5476 57.0953 74.697 55.6952C77.7717 55.049 80.9562 54.4028 84.1407 53.6489C85.7879 53.3258 87.3252 53.0027 88.9724 52.5719L90.1803 52.3565C90.6196 52.2488 90.949 52.1411 91.2784 51.9257C91.9373 51.4949 92.1569 50.6333 92.0471 49.8794C91.2784 46.6484 90.6195 43.5251 89.9607 40.4018C89.6312 38.7863 89.3018 37.2785 88.9724 35.7707C88.7527 35.0168 88.6429 34.2629 88.4233 33.509C88.3135 33.1859 88.3135 32.7551 88.2037 32.432C88.0939 32.1089 87.8743 31.7858 87.6547 31.5704C87.1056 31.1396 86.3369 30.9242 85.5683 31.1396C84.7996 31.355 84.0309 31.4627 83.2623 31.6781C81.7249 32.0012 80.1875 32.3243 78.76 32.6474C75.7951 33.2936 72.8302 33.9398 69.9752 34.4783C58.5549 36.8477 48.3425 39.1094 39.7773 40.9403C31.212 42.7712 24.1842 44.279 19.3525 45.2483C18.1446 45.4637 17.0465 45.6791 16.168 45.8945C15.7287 46.0022 15.2895 46.0022 14.9601 46.2176C14.6307 46.3253 14.3012 46.6484 14.0816 46.8638C13.6424 47.4023 13.6424 47.8331 13.5325 48.1562C13.4227 48.3716 13.5325 48.4793 13.5325 48.4793Z" fill="#263238"/>
<path d="M13.3136 48.5869C13.3136 48.6946 12.4351 48.5869 10.8977 48.91C9.3604 49.2331 7.1642 49.8793 4.96799 51.7102C2.88159 53.4334 0.904997 56.3413 0.575566 60.0031C0.246134 63.5572 1.67367 67.6498 4.96799 70.3423C6.61514 71.7424 8.48192 72.4963 10.4585 72.9271C12.4351 73.3579 14.4117 73.1425 16.1686 72.7117C17.9256 72.2809 19.463 71.4193 20.7807 70.45C22.0984 69.4807 22.9769 68.296 23.7456 67.1113C25.1731 64.7419 25.5025 62.4802 25.5025 60.9724C25.5025 60.5416 25.5025 60.2185 25.5025 59.8954C25.5025 59.5723 25.3927 59.3569 25.3927 59.1415C25.3927 58.7107 25.3927 58.4953 25.3927 58.4953C25.3927 58.4953 25.5025 58.7107 25.6124 59.1415C25.6124 59.3569 25.7222 59.5723 25.7222 59.8954C25.7222 60.2185 25.832 60.5416 25.832 60.9724C25.9418 62.4802 25.7222 64.9573 24.2946 67.4344C23.6358 68.7268 22.6475 69.9115 21.3297 70.9885C20.012 72.0655 18.3649 72.9271 16.4981 73.4656C14.6313 74.0041 12.5449 74.1118 10.4585 73.681C8.37211 73.2502 6.3955 72.3886 4.63854 70.9885C3.76005 70.3423 3.10119 69.4807 2.44232 68.6191C1.78346 67.7575 1.34423 66.7882 0.904984 65.8189C0.13631 63.8803 -0.0832974 61.834 0.0265132 60.0031C0.246134 58.0645 0.795187 56.3413 1.67367 54.9412C2.55216 53.4334 3.65025 52.3564 4.74835 51.3871C7.05437 49.5562 9.3604 49.0177 10.8977 48.8023C11.6664 48.6946 12.3253 48.6946 12.7645 48.6946C13.094 48.5869 13.3136 48.5869 13.3136 48.5869Z" fill="#263238"/>
<path d="M27.2588 55.5875C27.5882 57.0953 26.5999 58.4954 25.1724 58.8185C23.635 59.1416 22.2075 58.1723 21.8781 56.7722C21.5486 55.2644 22.5369 53.8643 23.9644 53.5412C25.5018 53.2181 26.9293 54.0796 27.2588 55.5875Z" fill="#263238"/>
<path d="M86.1547 33.1249L73.7109 35.7922L77.6731 53.5731L90.1168 50.9058L86.1547 33.1249Z" fill="#E8505B"/>
<path d="M72.6567 36.0397L60.2129 38.707L64.175 56.4879L76.6188 53.8206L72.6567 36.0397Z" fill="#E8505B"/>
<path d="M59.1528 38.946L46.709 41.6133L50.6711 59.3941L63.1149 56.7268L59.1528 38.946Z" fill="#E8505B"/>
<path d="M45.6489 41.8583L33.2051 44.5256L37.1672 62.3065L49.611 59.6392L45.6489 41.8583Z" fill="#E8505B"/>
<g opacity="0.8">
<path opacity="0.8" d="M45.6489 41.8583L33.2051 44.5256L37.1672 62.3065L49.611 59.6392L45.6489 41.8583Z" fill="white"/>
</g>
<g opacity="0.6">
<path opacity="0.6" d="M59.1528 38.946L46.709 41.6133L50.6711 59.3941L63.1149 56.7268L59.1528 38.946Z" fill="white"/>
</g>
<g opacity="0.4">
<path opacity="0.4" d="M72.6567 36.0397L60.2129 38.707L64.175 56.4879L76.6188 53.8206L72.6567 36.0397Z" fill="white"/>
</g>
</svg>
