<svg width="61" height="82" viewBox="0 0 61 82" fill="none" xmlns="http://www.w3.org/2000/svg">
<path d="M4.61133 0H60.9992V81.7542H4.99567L4.61133 0Z" fill="#E0E0E0"/>
<path d="M0.444351 81.3293H56.2832L56.2832 0.343796H0.444351L0.444351 81.3293Z" fill="white"/>
<path d="M56.6624 0.000488281V81.7547H0V0.000488281H56.6624ZM55.8938 80.986V0.769165H0.768677V80.986H55.8938Z" fill="#E0E0E0"/>
<path d="M49.3601 9.1145H7.35742V72.5303H49.3601V9.1145Z" fill="white"/>
<path d="M7.35634 9.11442C7.35634 9.11442 7.35634 9.22423 7.35634 9.44385C7.35634 9.66348 7.35634 9.93801 7.35634 10.3223C7.35634 11.1459 7.35634 12.2989 7.35634 13.7814C7.35634 16.8012 7.41125 21.2485 7.41125 26.8489C7.41125 38.0496 7.46615 53.8624 7.52106 72.5302L7.35634 72.3655C20.2042 72.3655 34.3698 72.3655 49.359 72.3655L49.1394 72.5851C49.1394 48.6464 49.1943 26.5744 49.1943 9.16933L49.359 9.33405C36.566 9.27914 26.134 9.27914 18.8316 9.22423C15.2078 9.22423 12.3527 9.16933 10.3761 9.16933C9.38784 9.16933 8.67407 9.16933 8.17992 9.16933C7.63087 9.16933 7.35634 9.11442 7.35634 9.11442C7.35634 9.11442 7.57596 9.11442 8.07011 9.11442C8.56426 9.11442 9.33294 9.11442 10.2663 9.11442C12.188 9.11442 15.0431 9.11442 18.6669 9.05952C25.9693 9.05952 36.5111 9.00461 49.3041 8.94971H49.4688V9.11442C49.4688 26.5744 49.4688 48.6464 49.5237 72.5302V72.7499H49.3041C34.3698 72.7499 20.1493 72.7499 7.30143 72.7499H7.13672V72.5851C7.19162 53.9173 7.19162 37.9947 7.24653 26.794C7.24653 21.1936 7.30143 16.8012 7.30143 13.7814C7.30143 12.2989 7.30143 11.1459 7.30143 10.3223C7.30143 9.93801 7.30143 9.66348 7.30143 9.44385C7.35634 9.22423 7.35634 9.11442 7.35634 9.11442Z" fill="#E0E0E0"/>
<path d="M0.22006 81.3698C0.165155 81.3149 0.549493 80.8208 1.09855 79.9972C1.70251 79.1736 2.52609 78.0206 3.51439 76.8127C4.50269 75.6048 5.43608 74.5066 6.09495 73.7929C6.80872 73.0242 7.24796 72.585 7.30287 72.6399C7.41268 72.6948 5.76551 74.6714 3.84382 77.0872C1.92213 79.4481 0.329871 81.4247 0.22006 81.3698Z" fill="#E0E0E0"/>
<path d="M0.38429 0.384693C0.494101 0.329787 2.08636 2.25148 4.00805 4.66732C5.92974 7.08316 7.41219 9.11466 7.30238 9.16957C7.19257 9.22447 5.60031 7.35769 3.67862 4.88694C1.81183 2.4711 0.329384 0.439598 0.38429 0.384693Z" fill="#E0E0E0"/>
<path d="M56.279 0.438965C53.8631 3.45877 51.3924 6.47856 48.9766 9.44346L56.279 0.438965Z" fill="white"/>
<path d="M48.9761 9.44406C48.8662 9.38916 50.4585 7.30275 52.49 4.7771C54.5215 2.30635 56.2236 0.329756 56.2785 0.384662C56.3883 0.439567 54.796 2.52597 52.7645 5.05163C50.733 7.57728 49.031 9.55387 48.9761 9.44406Z" fill="#E0E0E0"/>
<path d="M56.2788 81.3701C56.169 81.425 54.5767 79.5582 52.7099 77.1424C50.7882 74.7265 49.3607 72.7499 49.4156 72.695C49.5254 72.6401 51.1177 74.5069 52.9844 76.9227C54.9061 79.2837 56.3337 81.2603 56.2788 81.3701Z" fill="#E0E0E0"/>
<path d="M31.0217 41.783H23.6644L22.7859 43.8145C22.5114 44.4733 22.3466 45.0773 22.3466 45.5165C22.3466 46.1205 22.5663 46.5597 23.0604 46.8343C23.3349 46.999 24.0487 47.1088 25.0919 47.2186V47.7676H18.1738V47.2186C18.9425 47.1088 19.5465 46.7793 20.0406 46.2852C20.5348 45.791 21.1387 44.7478 21.8525 43.1556L29.2647 26.4094H29.5393L37.0613 43.5399C37.7751 45.1871 38.379 46.1754 38.8183 46.6146C39.1477 46.9441 39.6419 47.1088 40.3007 47.1637V47.7127H30.253V47.1637H30.6923C31.5159 47.1637 32.0649 47.0539 32.3943 46.8343C32.614 46.6695 32.7238 46.4499 32.7238 46.1205C32.7238 45.9558 32.6689 45.7361 32.614 45.5714C32.614 45.4616 32.4493 45.0773 32.1747 44.4184L31.0217 41.783ZM30.5276 40.6299L27.3979 33.4373L24.2134 40.6299H30.5276Z" fill="#E0E0E0"/>
</svg>
