<svg width="115" height="85" viewBox="0 0 115 85" fill="none" xmlns="http://www.w3.org/2000/svg">
<path d="M91.3646 84.8468L47.652 72.7253C45.4509 72.11 44.1798 69.8642 44.7688 67.6798L62.3159 5.44164C62.9359 3.25731 65.1991 1.99593 67.4002 2.58047L111.113 14.702C113.314 15.3173 114.585 17.5632 113.996 19.7475L96.48 81.9549C95.8289 84.17 93.5658 85.4621 91.3646 84.8468Z" fill="#DDE8FE"/>
<path d="M106.587 25.1621L67.3077 14.2712C66.6877 14.0866 66.3157 13.4406 66.4707 12.8252C66.6567 12.2099 67.3077 11.8408 67.9278 11.9946L107.207 22.8855C107.827 23.0701 108.199 23.7162 108.044 24.3315C107.889 24.9775 107.238 25.3467 106.587 25.1621Z" fill="#7C9AF2"/>
<path d="M98.247 27.8387L66.005 18.886C65.385 18.7014 65.0129 18.0553 65.1679 17.44C65.354 16.8247 66.005 16.4555 66.625 16.6093L98.867 25.562C99.487 25.7466 99.8591 26.3927 99.704 27.008C99.549 27.6541 98.898 27.9925 98.247 27.8387Z" fill="#7C9AF2"/>
<path d="M103.982 34.3916L64.7023 23.5007C64.0822 23.3161 63.7102 22.67 63.8652 22.0547C64.0512 21.4394 64.7023 21.0703 65.3223 21.2241L104.602 32.115C105.222 32.2996 105.594 32.9456 105.439 33.561C105.284 34.207 104.633 34.5762 103.982 34.3916Z" fill="#7C9AF2"/>
<path d="M93.7213 36.5451L63.4015 28.1462C62.7814 27.9616 62.4094 27.3156 62.5644 26.7002C62.7504 26.0849 63.4015 25.7158 64.0215 25.8696L94.3414 34.2685C94.9614 34.4531 95.3334 35.0992 95.1784 35.7145C95.0234 36.3605 94.3414 36.699 93.7213 36.5451Z" fill="#7C9AF2"/>
<path d="M73.0121 0.242189L72.237 0.0268325C71.958 -0.0654634 71.648 0.0883631 71.586 0.365251L69.9119 6.27218C69.8499 6.54907 70.0049 6.82596 70.3149 6.91826L71.121 7.13361C71.4 7.22591 71.71 7.07208 71.772 6.7952L73.4461 0.88826C73.4771 0.611373 73.2911 0.30372 73.0121 0.242189Z" fill="#7C9AF2"/>
<path d="M76.3908 1.16529L75.5847 0.949928C75.3057 0.857632 74.9957 1.01146 74.9337 1.28835L73.2596 7.19528C73.1976 7.47217 73.3526 7.74906 73.6626 7.84135L74.4686 8.05671C74.7477 8.14901 75.0577 7.99518 75.1197 7.71829L76.7938 1.81136C76.8558 1.53447 76.7008 1.25758 76.3908 1.16529Z" fill="#7C9AF2"/>
<path d="M79.7697 2.1189L78.9636 1.90354C78.6846 1.81125 78.3746 1.96507 78.3126 2.24196L76.6385 8.14889C76.5765 8.42578 76.7315 8.70267 77.0415 8.79497L77.8476 9.01032C78.1266 9.10262 78.4366 8.94879 78.4986 8.6719L80.1727 2.76497C80.2347 2.48808 80.0797 2.18043 79.7697 2.1189Z" fill="#7C9AF2"/>
<path d="M83.1798 3.04175L82.3738 2.82639C82.0947 2.7341 81.7847 2.88792 81.7227 3.16481L80.0486 9.07175C79.9866 9.34863 80.1416 9.62552 80.4516 9.71782L81.2577 9.93317C81.5367 10.0255 81.8467 9.87164 81.9087 9.59476L83.5828 3.68782C83.6448 3.41093 83.4588 3.13405 83.1798 3.04175Z" fill="#7C9AF2"/>
<path d="M86.5607 3.99561L85.7546 3.78025C85.4756 3.68795 85.1656 3.84178 85.1036 4.11867L83.4295 10.0256C83.3675 10.3025 83.5225 10.5794 83.8325 10.6717L84.6386 10.887C84.9176 10.9793 85.2276 10.8255 85.2896 10.5486L86.9637 4.64168C87.0257 4.36479 86.8397 4.05714 86.5607 3.99561Z" fill="#7C9AF2"/>
<path d="M89.9396 4.91846L89.1335 4.7031C88.8545 4.61081 88.5445 4.76463 88.4825 5.04152L86.8084 10.9485C86.7464 11.2253 86.9014 11.5022 87.2114 11.5945L88.0175 11.8099C88.2965 11.9022 88.6065 11.7484 88.6685 11.4715L90.3426 5.56453C90.4046 5.28764 90.2186 5.01075 89.9396 4.91846Z" fill="#7C9AF2"/>
<path d="M93.3185 5.87232L92.5124 5.65696C92.2334 5.56466 91.9234 5.71849 91.8614 5.99538L90.1873 11.9023C90.1253 12.1792 90.2803 12.4561 90.5903 12.5484L91.3964 12.7637C91.6754 12.856 91.9854 12.7022 92.0474 12.4253L93.7215 6.51839C93.7835 6.2415 93.5975 5.93385 93.3185 5.87232Z" fill="#7C9AF2"/>
<path d="M96.6974 6.79517L95.8913 6.57981C95.6123 6.48752 95.3023 6.64134 95.2403 6.91823L93.5662 12.8252C93.5042 13.1021 93.6592 13.3789 93.9692 13.4712L94.7753 13.6866C95.0543 13.7789 95.3643 13.6251 95.4263 13.3482L97.1004 7.44124C97.1624 7.16435 96.9764 6.88746 96.6974 6.79517Z" fill="#7C9AF2"/>
<path d="M100.076 7.74878L99.2703 7.53342C98.9912 7.44113 98.6812 7.59495 98.6192 7.87184L96.9451 13.7788C96.8831 14.0557 97.0381 14.3326 97.3481 14.4248L98.1542 14.6402C98.4332 14.7325 98.7432 14.5787 98.8052 14.3018L100.479 8.39485C100.541 8.11796 100.386 7.84108 100.076 7.74878Z" fill="#7C9AF2"/>
<path d="M103.455 8.67188L102.649 8.45652C102.37 8.36422 102.06 8.51805 101.998 8.79494L100.324 14.7019C100.262 14.9788 100.417 15.2557 100.727 15.3479L101.533 15.5633C101.812 15.6556 102.122 15.5018 102.184 15.2249L103.858 9.31795C103.92 9.04106 103.765 8.76417 103.455 8.67188Z" fill="#7C9AF2"/>
<path d="M106.836 9.62549L106.03 9.41013C105.751 9.31784 105.441 9.47166 105.379 9.74855L103.705 15.6555C103.643 15.9324 103.798 16.2093 104.108 16.3016L104.914 16.5169C105.193 16.6092 105.503 16.4554 105.565 16.1785L107.239 10.2716C107.301 9.99467 107.146 9.71779 106.836 9.62549Z" fill="#7C9AF2"/>
<path d="M110.246 10.5486L109.44 10.3332C109.161 10.2409 108.851 10.3948 108.789 10.6716L107.115 16.5786C107.053 16.8555 107.208 17.1324 107.518 17.2247L108.324 17.44C108.603 17.5323 108.913 17.3785 108.975 17.1016L110.649 11.1947C110.711 10.9178 110.525 10.6409 110.246 10.5486Z" fill="#7C9AF2"/>
<path d="M1.27264 64.3878L43.0322 63.5264C43.1252 63.5264 43.2182 63.4956 43.3112 63.4649L50.8136 61.0037C51.6817 60.7268 51.6817 59.4962 50.7826 59.2193L43.0942 56.9119C43.0012 56.8811 42.9081 56.8811 42.8151 56.8811L0.93162 57.7733C0.404588 57.7733 -0.0294377 58.2348 0.00156416 58.7578L0.311583 63.4956C0.342585 64.0187 0.776611 64.4186 1.27264 64.3878Z" fill="#E8505B"/>
<path d="M42.8157 56.9116H42.9087L50.3492 59.1267L50.4422 61.1572L43.3428 63.4646C43.0637 61.4341 42.5987 59.096 42.8157 56.9116Z" fill="#BED1F9"/>
<path d="M67.5855 73.6482C66.7174 73.6482 66.0044 73.3713 65.4463 72.8176C63.3692 70.7563 64.1753 65.4954 64.4543 61.5882C64.5783 59.7423 64.7643 57.681 63.8962 56.0813C62.9042 54.2353 58.9979 54.4507 56.0838 55.7736C54.1306 56.6658 52.3015 58.2656 53.0456 60.05C53.1386 60.2346 53.0146 60.4807 52.8286 60.5422C52.6426 60.6345 52.3945 60.5115 52.3325 60.3269C51.5575 58.4194 52.8906 56.3889 55.7737 55.066C59.0289 53.5585 63.3382 53.3739 64.5783 55.6813C65.5393 57.4657 65.3533 59.65 65.2293 61.5882C64.9503 65.3108 64.2063 70.4486 66.0044 72.233C66.4694 72.6945 67.0894 72.9099 67.8955 72.8176C71.5227 72.5099 70.9337 65.0647 71.5537 62.3881C72.4528 58.4502 73.9098 53.5585 77.9091 54.143C80.8853 54.5738 83.0864 56.6658 84.2335 60.2038C85.1015 62.8188 85.0705 65.2801 85.0705 65.3724C85.0705 65.5877 84.8845 65.7416 84.6985 65.7416C84.4815 65.7416 84.3265 65.557 84.3265 65.3724C84.3265 65.3416 84.3265 62.9419 83.5204 60.4192C82.4354 57.158 80.5442 55.2814 77.8161 54.9122C74.3439 54.4199 73.1038 59.1578 72.3287 62.5727C71.6467 65.4339 72.4528 73.6482 67.5855 73.6482Z" fill="#E8505B"/>
</svg>
