<svg width="111" height="91" viewBox="0 0 111 91" fill="none" xmlns="http://www.w3.org/2000/svg">
<path d="M50.456 30.9905C43.3235 22.3541 31.7125 22.3541 24.5137 30.9905C31.6793 39.6269 43.3235 39.6269 50.456 30.9905Z" fill="#FFFAFA"/>
<path d="M43.1127 31.7887C43.5548 28.695 41.3987 25.8295 38.297 25.3886C35.1954 24.9476 32.3226 27.0982 31.8805 30.1919C31.4384 33.2857 33.5945 36.1512 36.6962 36.5921C39.7978 37.033 42.6706 34.8825 43.1127 31.7887Z" fill="#6DB4E8"/>
<path d="M38.7513 34.0154C40.4253 33.3188 41.2163 31.4006 40.5179 29.7309C39.8196 28.0611 37.8964 27.2722 36.2224 27.9688C34.5485 28.6653 33.7575 30.5836 34.4558 32.2533C35.1542 33.923 37.0773 34.7119 38.7513 34.0154Z" fill="#555C6F"/>
<path d="M39.5751 27.8469C40.2386 27.8469 40.7694 28.3764 40.7694 29.0382C40.7694 29.6999 40.2386 30.2294 39.5751 30.2294C38.9117 30.2294 38.3809 29.6999 38.3809 29.0382C38.3809 28.3764 38.9117 27.8469 39.5751 27.8469Z" fill="#FFFFF7"/>
<path d="M16.5486 54.6663C16.7281 54.6232 16.9075 54.6025 17.0866 54.6042C18.766 54.6207 20.3773 57.0171 20.3825 58.769C20.3653 60.5206 18.941 61.8991 17.2168 61.8822C15.6942 61.8672 14.7985 61.8585 13.5197 62.093L13.475 62.0925L13.0486 62.1782C12.6225 62.2414 12.1297 62.259 11.7049 62.1875C10.1405 61.8577 9.22292 61.8038 7.49875 61.7869C5.75218 61.7698 4.37775 60.3414 4.39471 58.6122C4.4121 56.8381 6.07004 54.4738 7.74943 54.4902C7.92857 54.492 8.10748 54.5162 8.26379 54.5626C8.33074 54.5858 8.36558 54.5963 8.38841 54.5516L8.46619 54.4748C10.3157 52.8311 13.9805 51.9852 16.437 54.6203C16.4592 54.643 16.5036 54.6883 16.5486 54.6663Z" fill="#F8BCA5"/>
<path d="M8.32031 57.9771C8.31855 58.1567 8.33918 58.3366 8.3822 58.5167L8.32031 57.9771Z" fill="#E48E90"/>
<path d="M16.5182 57.8553L16.3961 58.8873C16.4664 58.5735 16.5142 58.2596 16.5173 57.9452C16.5175 57.9227 16.518 57.8778 16.5182 57.8553Z" fill="#E48E90"/>
<path d="M8.46009 59.7527C8.48248 59.7529 8.50488 59.7531 8.5501 59.7086C8.64011 59.6646 8.68577 59.5752 8.64209 59.4625C8.5106 59.1692 8.40172 58.8537 8.36024 58.5164C8.33961 58.3366 8.31898 58.1567 8.29835 57.9768C8.29879 57.9319 8.29923 57.887 8.29989 57.8196C8.30143 57.6624 8.30605 57.1908 8.33593 56.4275C8.33681 56.3377 8.27052 56.2472 8.15856 56.2461C8.06899 56.2452 7.97876 56.3117 7.97766 56.424C7.94756 57.2098 7.94316 57.6589 7.94162 57.8161C7.93546 58.4449 8.06386 59.0525 8.30467 59.6164C8.34835 59.7291 8.39292 59.752 8.46009 59.7527Z" fill="#E48E90"/>
<path d="M16.2299 59.8063C16.2521 59.829 16.2745 59.8292 16.2969 59.8294C16.3641 59.8301 16.4317 59.7858 16.4767 59.7638C16.7285 59.2048 16.869 58.5773 16.8749 57.971C16.8767 57.7914 16.8811 57.3422 16.8662 56.5785C16.8673 56.4662 16.7784 56.3979 16.6888 56.3971C16.5769 56.396 16.509 56.4627 16.5079 56.575C16.5239 57.2264 16.5198 57.6531 16.5178 57.8552C16.5173 57.9001 16.5171 57.9226 16.5169 57.945C16.5138 58.2594 16.4659 58.5734 16.3957 58.8871C16.3261 59.1335 16.2567 59.3574 16.1426 59.5809C16.0969 59.6703 16.1406 59.783 16.2299 59.8063Z" fill="#E48E90"/>
<path d="M10.7515 61.1677C10.55 61.1657 10.1708 61.0048 9.79194 60.8214C8.92262 60.4086 7.74114 59.858 6.97255 60.5916C6.90471 60.6583 6.90361 60.7706 6.97013 60.8386C7.03664 60.9067 7.1486 60.9078 7.21644 60.841C7.78196 60.2627 8.80736 60.7443 9.60973 61.134C10.0332 61.3403 10.4121 61.5237 10.7032 61.5265C10.7928 61.5274 10.9054 61.4611 10.9065 61.3489C10.9524 61.237 10.8635 61.1688 10.7515 61.1677Z" fill="#E48E90"/>
<path d="M17.7663 60.675C17.0348 59.9043 15.8202 60.4538 14.9429 60.8495C14.5381 61.0252 14.1783 61.1789 13.9768 61.1769C13.8648 61.1758 13.797 61.2425 13.7959 61.3548C13.7948 61.4671 13.8613 61.5351 13.9733 61.5362C14.242 61.5389 14.6244 61.3629 15.0966 61.1654C15.9062 60.814 16.9409 60.3525 17.4952 60.9194C17.5617 60.9875 17.6736 60.9886 17.7415 60.9219C17.8315 60.8778 17.8326 60.7655 17.7663 60.675Z" fill="#E48E90"/>
<path d="M11.8113 46.4959C9.91549 46.6251 9.06269 51.8723 8.36547 54.5144L10.7827 55.621L16.3644 54.7277C15.2981 51.953 13.978 46.3482 11.8113 46.4959Z" fill="#F8BCA5"/>
<path d="M41.1295 74.1065C39.8936 73.8061 38.9553 75.2096 37.8579 75.2854C36.8277 75.3565 35.4643 73.8624 34.1194 74.5906C32.1646 75.6105 29.1308 82.5137 29.1308 82.5137C29.1308 82.5137 30.5939 90.0139 38.7238 89.4524C46.4505 88.9188 47.7333 81.7508 47.7333 81.7508C46.4341 79.2312 43.0753 74.5847 41.1295 74.1065Z" fill="#F8BEB6"/>
<path d="M44.7969 82.8841C45.1047 82.4544 45.2412 82.15 45.2412 82.15C44.7247 81.1873 43.7946 79.7767 42.813 78.5965C39.6177 78.2726 35.2483 78.8693 33.4899 79.1496C32.5016 80.8062 31.6665 82.7245 31.6665 82.7245C31.6665 82.7245 31.856 83.1879 32.346 83.7667C33.5087 83.0057 35.8396 81.8917 38.9667 81.8799C40.699 81.8738 42.6199 81.9907 44.7969 82.8841Z" fill="#383838"/>
<path d="M42.8127 78.5965C41.9539 77.5666 41.0644 76.7431 40.4009 76.5847C39.4848 76.353 38.8143 77.3977 38.008 77.4534C37.2466 77.506 36.2712 76.4161 35.2721 76.9389C34.7294 77.226 34.072 78.1336 33.4671 79.1511C35.2479 78.8693 39.6397 78.271 42.8127 78.5965Z" fill="#FFFAFA"/>
<path d="M39.5973 81.5867C39.1926 81.592 38.815 81.6634 38.4405 81.7801C38.3749 81.8073 38.3301 81.8104 38.2629 81.815C38.1957 81.8197 38.1285 81.8243 38.0598 81.8064C37.767 81.8039 37.4712 81.7563 37.1577 81.7779C36.0379 81.8552 34.2325 82.4337 32.3396 83.699C33.1968 84.7062 34.9748 86.0129 38.3566 85.7794C42.276 85.5087 44.0497 83.8206 44.792 82.839C43.151 81.8859 40.9952 81.6263 39.5973 81.5867Z" fill="#C3434C"/>
<path d="M37.7687 81.8037C37.7687 81.8037 38.5901 85.8766 38.6686 86.6881L38.8183 81.6858C38.8183 81.6858 38.3125 81.8569 37.7687 81.8037Z" fill="#C3434C"/>
<path d="M41.1295 74.1065C39.8936 73.8061 38.9553 75.2096 37.8579 75.2854C36.8277 75.3565 35.4643 73.8624 34.1194 74.5906C32.1646 75.6105 29.1308 82.5137 29.1308 82.5137C29.1308 82.5137 30.5939 90.0139 38.7238 89.4524C46.4505 88.9188 47.7333 81.7508 47.7333 81.7508C46.4341 79.2312 43.0753 74.5847 41.1295 74.1065ZM32.2101 77.8991C32.332 77.7091 33.4745 75.6789 34.462 75.3157C34.9662 75.122 35.0615 75.5239 34.6338 75.8484C34.0572 76.2967 33.2524 77.3506 32.7262 78.2038C32.1969 79.0118 31.7402 78.5896 32.2101 77.8991ZM33.4891 79.1495C34.094 78.132 34.7514 77.2244 35.2941 76.9373C36.2932 76.4145 37.2686 77.5044 38.03 77.4518C38.8363 77.3961 39.5083 76.374 40.4229 76.5831C41.0864 76.7415 41.9775 77.5876 42.8346 78.5948C43.8147 79.7524 44.7463 81.1857 45.2405 82.1499C45.2405 82.1499 45.1264 82.4528 44.7961 82.884C44.0762 83.864 42.2785 85.5311 38.3592 85.8018C34.9773 86.0353 33.2009 84.7512 32.3453 83.7665C31.8552 83.1877 31.6657 82.7243 31.6657 82.7243C31.6657 82.7243 32.5233 80.8045 33.4891 79.1495ZM41.4584 87.9929C39.7474 88.633 36.5322 88.6735 35.6833 88.4371C34.5817 88.1275 34.9735 87.2836 35.8417 87.4732C37.5766 87.8299 40.41 87.4754 41.3721 87.0686C42.1612 86.7645 43.171 87.3755 41.4584 87.9929Z" fill="#EC6C75"/>
<path d="M32.7253 78.2038C33.253 77.3732 34.0563 76.2967 34.6329 75.8484C35.0606 75.5239 34.9653 75.122 34.4611 75.3157C33.4736 75.6789 32.3295 77.6866 32.2092 77.8991C31.7393 78.5896 32.196 79.0118 32.7253 78.2038Z" fill="#F8BCA5"/>
<path d="M94.5359 3.97247L71.8718 22.4156L67.8383 24.8607C67.8383 24.8607 59.0329 30.8993 58.1258 31.3551C57.0755 31.8828 57.0529 32.5519 57.2925 32.9099C57.6521 33.5066 58.6319 33.5524 59.539 33.0967C59.8732 32.9288 64.7905 30.3385 64.7905 30.3385C64.7905 30.3385 64.4807 30.7931 63.9574 32.0128C63.4341 33.2325 63.7725 35.2151 64.7318 37.0053C65.7148 38.7238 66.1219 39.177 66.838 38.8172C67.1245 38.6733 67.2435 38.4341 67.3385 38.1472C67.4571 37.669 67.3367 37.1914 67.1208 36.7617C65.586 33.9451 66.73 32.4136 66.73 32.4136L67.2789 32.078C67.2789 32.078 66.9252 34.4682 68.1697 35.5171C68.3851 35.7079 68.5526 35.8031 68.7678 35.8744C69.1516 36.6383 69.9411 37.1385 70.8254 37.2324C71.6857 37.2785 72.6168 36.8705 73.0693 36.1049C73.3075 35.7461 73.4261 35.2679 73.1864 34.91C73.0427 34.743 72.8276 34.6717 72.5884 34.5527C72.4927 34.4812 72.3732 34.4815 72.2775 34.41L73.6373 33.3082C73.6373 33.3082 76.5473 30.6502 77.9551 29.6438L102.443 15.4265C105.833 13.4845 106.971 9.0856 104.934 5.7443C102.752 2.11655 97.852 1.28979 94.5359 3.97247Z" fill="#FFBE9D"/>
<path d="M72.0156 23.4189C72.4227 23.8721 72.3046 24.5892 72.0189 25.0915C71.6854 25.6178 71.2322 26.0249 70.8747 26.5035C69.8262 27.987 70.0694 30.1371 68.9252 31.5491C68.7822 31.7406 68.5197 31.9322 68.2805 31.8132C68.0653 31.7419 68.0409 31.4553 68.0404 31.2163C68.1082 29.209 68.1759 27.2017 68.2437 25.1944" fill="#FFBE9D"/>
<path d="M68.197 25.2183C68.197 25.2183 68.1257 25.4335 68.1027 25.8636C68.0796 26.2938 68.033 26.9151 67.9867 27.656C67.9643 28.4445 67.9182 29.3048 67.8723 30.2846C67.8728 30.5236 67.8255 30.7865 67.826 31.0254C67.8265 31.2644 67.7554 31.5991 68.0188 31.8853C68.1625 32.0523 68.4015 32.0518 68.5924 31.9558C68.7357 31.8839 68.8549 31.7642 68.9741 31.6445C69.1649 31.429 69.3316 31.1659 69.4266 30.879C69.9502 29.7788 70.0436 28.6555 70.3286 27.7948C70.4472 27.3167 70.6614 26.91 70.8997 26.5511C71.1379 26.1923 71.4242 25.9289 71.6864 25.6177C72.1871 25.0672 72.3769 24.3738 72.2805 23.9439C72.1841 23.514 71.9687 23.3233 71.9449 23.395C71.8972 23.419 72.1126 23.6097 72.1373 24.0159C72.162 24.422 71.9719 24.9959 71.4712 25.5464C71.2567 25.8336 70.9227 26.121 70.6368 26.5039C70.3508 26.8867 70.1605 27.3411 69.9702 27.7955C69.6137 28.752 69.5203 29.8752 69.0682 30.8797C68.9492 31.1188 68.8302 31.358 68.6395 31.5734C68.4965 31.7649 68.2578 31.8848 68.1858 31.7416C68.0661 31.6223 68.1134 31.3594 68.1129 31.1205C68.1124 30.8815 68.112 30.6426 68.1353 30.3319C68.1334 29.3761 68.1555 28.4681 68.1779 27.6795C68.1765 26.9627 68.1513 26.3176 68.1744 25.8874C68.2452 25.4333 68.197 25.2183 68.197 25.2183Z" fill="#EB996E"/>
<path d="M67.2777 31.9584C67.3017 32.0061 66.848 32.1743 66.4908 32.7723C66.348 33.0833 66.2532 33.4896 66.3019 33.9436C66.3506 34.3975 66.5427 34.8989 66.7826 35.3763C67.0225 35.8537 67.2863 36.3789 67.4068 36.8566C67.5272 37.3342 67.5281 37.8121 67.4093 38.1708C67.2905 38.5294 67.0043 38.7928 66.8371 38.817C66.6221 38.8652 66.5027 38.8655 66.5027 38.8655C66.5027 38.8655 66.5981 38.8175 66.7891 38.7216C66.9801 38.6256 67.1948 38.4579 67.2658 38.1233C67.3369 37.7886 67.3122 37.3824 67.1918 36.9048C67.0714 36.4271 66.8555 35.9974 66.5916 35.4722C66.3518 34.9948 66.1356 34.4457 66.063 33.944C65.9903 33.4424 66.1088 32.9642 66.2994 32.6293C66.4899 32.2944 66.7523 32.1028 66.9433 32.0068C67.1822 32.0064 67.2777 31.9584 67.2777 31.9584Z" fill="#EB996E"/>
<path d="M59.2288 33.3121C59.2048 33.2644 59.5868 33.0725 60.2074 32.7606C60.8758 32.4248 61.6875 32.017 62.5946 31.5612C63.5017 31.1055 64.2893 30.6499 64.9577 30.3141C65.5784 30.0022 65.9603 29.8103 65.9603 29.8103C65.9843 29.8581 65.6263 30.0977 65.0297 30.4573C64.433 30.8169 63.5976 31.2964 62.6905 31.7522C61.7357 32.2319 60.924 32.6397 60.2794 32.9038C59.6587 33.2157 59.2288 33.3121 59.2288 33.3121Z" fill="#EB996E"/>
<path d="M69.0004 32.5285C69.0004 32.5285 69.0007 32.648 69.0489 32.863C69.0971 33.0779 69.0978 33.4363 69.3849 33.6508C69.5046 33.7701 69.7436 33.7696 69.9345 33.6737C70.1255 33.5777 70.3642 33.4578 70.579 33.2901C70.7937 33.1224 71.0801 32.9785 71.3908 33.0018C71.7015 33.0251 72.0126 33.2873 72.1566 33.5738C72.3005 33.8602 72.3012 34.2186 72.2062 34.5056C72.1111 34.7925 71.9444 35.0556 71.7297 35.2233C71.3002 35.5587 70.8465 35.7268 70.4406 35.871C70.0347 36.0152 69.7002 36.0636 69.509 36.0401C69.2701 36.0405 69.1744 35.969 69.1744 35.969C69.1744 35.969 69.2939 35.9688 69.5328 35.9683C69.7717 35.9679 70.0822 35.8717 70.4404 35.7515C70.7986 35.6314 71.2283 35.4155 71.6577 35.0801C72.0394 34.7687 72.2772 34.1709 72.0373 33.6935C71.9174 33.4547 71.6542 33.288 71.3913 33.2407C71.1283 33.1934 70.8896 33.3134 70.6749 33.4811C70.4602 33.6487 70.2215 33.7687 70.0305 33.8646C69.7918 33.9846 69.5288 33.9373 69.3374 33.7943C69.0023 33.4843 68.9776 33.0782 69.0011 32.887C68.9529 32.672 69.0004 32.5285 69.0004 32.5285Z" fill="#EB996E"/>
<path d="M72.0394 34.5299C72.0394 34.5299 72.1109 34.4342 72.3499 34.4338C72.5648 34.3856 72.8995 34.4566 73.1629 34.7428C73.4263 35.029 73.5467 35.5067 73.3804 36.0088C73.2141 36.5109 72.8087 36.894 72.3552 37.1817C71.8301 37.4455 71.2807 37.5422 70.8025 37.4236C70.3007 37.3768 69.9418 37.1386 69.6306 36.8763C69.3435 36.6618 69.1518 36.3994 69.0559 36.2084C68.9599 36.0174 68.9119 35.9219 68.9597 35.898C69.0074 35.874 69.1756 36.3276 69.7259 36.7089C70.013 36.9234 70.3957 37.0899 70.8498 37.1607C71.304 37.2315 71.8056 37.1588 72.283 36.919C72.7605 36.6791 73.1182 36.32 73.2607 35.8896C73.4032 35.4592 73.3068 35.0293 73.1152 34.7668C72.9235 34.5043 72.5888 34.4333 72.4216 34.4575C72.1589 34.5297 72.0634 34.5777 72.0394 34.5299Z" fill="#EB996E"/>
<path d="M73.5811 29.3894C73.5811 29.3894 73.4374 29.2224 73.3412 28.912C73.245 28.6015 73.2201 28.0759 73.4341 27.5498L73.5778 27.7168C73.3869 27.8127 73.1242 27.8849 72.8615 27.9571C71.4285 28.3183 70.2333 28.0817 70.257 28.01C70.2808 27.9382 71.452 28.1271 72.8132 27.7421C73.0759 27.6699 73.2909 27.6217 73.5296 27.5018L73.7923 27.4296L73.6733 27.6688C73.483 28.1232 73.484 28.601 73.5324 28.9355C73.5569 29.2222 73.6288 29.3654 73.5811 29.3894Z" fill="#EB996E"/>
<path d="M65.1788 33.8501C65.1548 33.8024 65.6327 33.8014 66.0396 34.1352C66.4464 34.4689 66.5428 34.8988 66.4951 34.9228C66.4474 34.9468 66.2794 34.6126 65.8966 34.3266C65.5614 34.0166 65.155 33.9218 65.1788 33.8501Z" fill="#EB996E"/>
<path d="M56.7091 65.4191C57.156 64.6623 56.7182 63.7097 56.7718 62.855C56.8151 61.9324 57.4186 61.0981 58.0624 60.4388C58.6863 59.7405 59.4282 59.0813 59.8353 58.2467C60.4069 57.0141 60.2015 55.5569 60.3599 54.1876C60.443 53.3427 60.7321 52.4691 61.4361 52.0235C61.9739 51.6845 62.6315 51.6759 63.259 51.5604C64.0534 51.4355 64.8272 51.1746 65.5318 50.8262C66.0799 50.5551 66.5881 50.2064 67.1759 50.0131C68.028 49.7135 68.9898 49.6763 69.8937 49.8138C76.6434 50.7871 76.4693 55.9637 76.4928 56.5854C76.5337 58.4406 76.241 60.3147 75.4364 61.9548C75.01 62.8477 74.4258 63.6237 73.8417 64.3997C72.206 66.5726 70.4529 68.8035 67.9868 70.0231C66.9004 70.536 63.861 72.6967 62.8384 74.0062C62.5072 74.4136 62.1067 74.7334 61.6767 75.0435C60.5523 75.77 59.0691 75.6023 57.8002 75.1825C56.3446 74.7332 52.8843 72.3281 55.9214 66.6125C56.1153 66.2243 56.4857 65.7976 56.7091 65.4191Z" fill="#F8BCA5"/>
<path d="M60.4333 64.6485C59.975 65.143 59.339 65.4819 59.0385 66.0933C58.9223 66.3456 58.8651 66.6175 58.9452 66.8702C59.0969 67.5989 59.8533 67.6876 60.3622 67.436C60.7536 67.2424 60.9969 66.9028 61.2402 66.5633C61.3179 66.4275 61.4251 66.3014 61.5522 66.2142C61.7575 66.0883 62.0327 66.147 62.2586 66.1571C63.6732 66.3344 65.1245 66.1038 66.3272 65.3386C67.696 64.4668 68.6 63.0211 69.0716 61.497C69.4955 60.2156 69.6443 58.8755 69.7341 57.5158C69.7708 57.108 70.2502 56.8465 70.5952 57.09C71.177 57.5086 71.5835 58.1601 71.7545 58.8306C71.9863 59.812 71.7767 60.8412 71.4292 61.7924C70.2513 64.9568 67.4876 67.2734 64.5632 68.9876C67.0046 68.5353 69.0853 66.8974 70.5849 64.938C71.6852 63.4926 72.4898 61.8525 72.9993 60.1148C73.5286 58.416 73.634 56.4153 72.4965 55.005C71.7347 54.0421 70.5146 53.5737 69.315 53.2414C68.2924 52.9677 67.2114 52.7716 66.2021 53.0515C65.9178 53.119 65.6535 53.2254 65.4288 53.4096C65.2921 53.5259 65.1753 53.6811 65.088 53.8461C64.6797 54.4864 64.3304 55.1463 64.0305 55.8548C63.8468 56.311 63.683 56.8061 63.686 57.2917C63.6787 57.7094 63.7895 58.1661 63.9196 58.5645C64.352 60.2262 64.903 62.024 66.4886 62.8718C66.6855 62.9692 66.8536 63.1541 66.9138 63.3678C67.1041 63.9801 66.4284 64.2412 65.8882 64.1917C64.965 64.1124 64.1369 63.5476 63.5239 62.8278C63.2174 62.4679 62.9596 62.0595 62.741 61.6317C62.582 61.3207 62.461 60.796 62.1262 60.6205C62.0967 60.6108 62.0967 60.6108 62.0575 60.6301C61.6582 61.1442 61.5757 62.0862 61.4029 62.7076C61.2011 63.4163 60.9403 64.1054 60.4333 64.6485Z" fill="#E48E90"/>
</svg>
