<svg width="811" height="193" viewBox="0 0 811 193" fill="none" xmlns="http://www.w3.org/2000/svg">
<g clip-path="url(#clip0)">
<g clip-path="url(#clip1)">
<path d="M85.8477 147.584C123.564 147.584 154.14 117.009 154.14 79.2921C154.14 41.5754 123.564 11 85.8477 11C48.131 11 17.5555 41.5754 17.5555 79.2921C17.5555 117.009 48.131 147.584 85.8477 147.584Z" fill="#FFD15C"/>
<path d="M30.5232 119.245L7.02559 159.976L34.4508 158.521L46.9106 183L68.6476 145.316C53.0728 141.287 39.6988 131.908 30.5232 119.245Z" fill="#7A76FF"/>
<path d="M141.307 119.042C132.2 131.739 118.826 141.151 103.285 145.248L125.089 183L137.549 158.52L164.974 159.976L141.307 119.042Z" fill="#7A76FF"/>
<path d="M85.8477 128.793C113.186 128.793 135.348 106.631 135.348 79.2921C135.348 51.9536 113.186 29.7914 85.8477 29.7914C58.5091 29.7914 36.3469 51.9536 36.3469 79.2921C36.3469 106.631 58.5091 128.793 85.8477 128.793Z" fill="#F8B64C"/>
<path d="M118.285 75.0747L106.739 62.4949C104.525 60.2932 100.681 60.2779 98.4279 62.5131C97.7003 63.2349 97.2029 64.1027 96.945 65.0284C94.7039 63.3231 91.2837 63.5089 89.2175 65.5583C88.4899 66.28 87.9926 67.1479 87.7285 68.0706C85.4934 66.3653 82.0703 66.5602 80.0072 68.6035C79.2918 69.3131 78.8006 70.1627 78.5335 71.061L73.0932 65.6648C70.8061 63.3992 67.0911 63.393 64.7793 65.6831C62.4921 67.9487 62.4921 71.6395 64.7793 73.9082L85.6806 94.6401L73.2897 96.5707C69.9371 97.046 67.4105 99.9329 67.4105 103.292C67.4105 105.81 69.4766 107.86 72.0156 107.86H100.964C105.471 107.86 109.711 106.118 112.91 102.951L117.736 98.1606C120.923 95.0026 122.676 90.8002 122.676 86.3329C122.676 82.1609 121.116 78.1626 118.285 75.0747ZM115.562 96.0106L110.736 100.801C108.123 103.389 104.651 104.814 100.964 104.814H72.0156C71.1713 104.814 70.4805 104.132 70.4805 103.292C70.4805 101.44 71.8743 99.8474 73.741 99.5795L89.1377 97.1798C89.7087 97.0914 90.1784 96.6926 90.3596 96.1475C90.5376 95.6054 90.3934 95.0055 89.985 94.6005L66.95 71.7523C65.8631 70.6713 65.8631 68.9141 66.9684 67.8148C67.5148 67.2758 68.2302 67.0048 68.9456 67.0048C69.661 67.0048 70.3762 67.2758 70.9228 67.8178L79.9365 76.7587C79.958 76.7831 79.9856 76.8073 80.0102 76.8318L86.2855 83.0532C86.8842 83.647 87.8574 83.647 88.4561 83.0532C89.0548 82.4593 89.0548 81.494 88.4561 80.9001L82.1286 74.6239C81.094 73.5398 81.1124 71.8193 82.1993 70.7383C83.2554 69.6968 85.0913 69.6906 86.1475 70.7383L89.1654 73.7348C89.1839 73.753 89.1993 73.7713 89.2177 73.7866L92.4229 76.9628C93.0215 77.5566 93.9948 77.5566 94.5935 76.9628C95.1922 76.369 95.1922 75.4036 94.5935 74.8098L91.3515 71.597C90.3045 70.5129 90.3169 68.7802 91.4097 67.6931C92.4627 66.6516 94.3018 66.6455 95.358 67.6931L98.5632 70.8844C98.5662 70.8874 98.5662 70.8906 98.5693 70.8906L98.5724 70.8936C98.5973 70.906 98.5911 70.9028 98.5846 70.8997C98.5846 70.8997 98.5846 70.9027 98.5876 70.9027C98.5906 70.9057 98.5906 70.9057 98.5906 70.9057C98.5937 70.9087 98.5937 70.9087 98.5937 70.9087H98.5967C98.5997 70.9087 98.5997 70.9087 98.5997 70.9087C99.2076 71.469 100.153 71.4538 100.737 70.8692C101.332 70.2753 101.332 69.3131 100.733 68.7193L100.549 68.5366C99.5115 67.4524 99.5269 65.7289 100.617 64.6477C101.673 63.6063 103.558 63.652 104.516 64.5959L116.01 77.1271C118.328 79.6547 119.602 82.9221 119.602 86.3359C119.602 89.9871 118.166 93.4252 115.562 96.0106Z" fill="white"/>
<path d="M98.5817 70.8997H98.5848C98.5815 70.8981 98.5784 70.8966 98.5784 70.8966C98.5817 70.8997 98.5849 70.8997 98.5817 70.8997Z" fill="white"/>
<path d="M81.5241 64.1725C79.286 59.2636 74.3523 56.0904 68.9458 56.0904C61.3289 56.0904 55.1303 62.2387 55.1303 69.794C55.1303 75.1536 58.3293 80.0503 63.2753 82.2703C63.4809 82.3617 63.6959 82.4043 63.9078 82.4043C64.4942 82.4043 65.0499 82.0693 65.3077 81.509C65.6547 80.7416 65.3139 79.8402 64.5403 79.4931C60.6904 77.7664 58.2005 73.96 58.2005 69.7941C58.2005 63.9169 63.0206 59.1357 68.946 59.1357C73.1459 59.1357 76.9835 61.6054 78.7243 65.4241C79.0743 66.1915 79.9799 66.5325 80.7568 66.1854C81.5273 65.8413 81.8711 64.9369 81.5241 64.1725Z" fill="white"/>
<path d="M88.212 64.7055C85.8942 56.0478 77.9701 50 68.9472 50C57.9439 50 48.9915 58.8799 48.9915 69.794C48.9915 78.744 55.0887 86.6037 63.8201 88.9029C63.952 88.9394 64.0841 88.9547 64.2131 88.9547C64.8946 88.9547 65.5148 88.5071 65.6959 87.8249C65.914 87.0118 65.4288 86.1775 64.6061 85.9612C57.2225 84.0153 52.0617 77.3675 52.0617 69.794C52.0617 60.5579 59.6387 53.0453 68.9472 53.0453C76.5795 53.0453 83.2846 58.1613 85.2464 65.4881C85.4613 66.2982 86.2749 66.7854 87.1253 66.5691C87.9419 66.3529 88.427 65.5185 88.212 64.7055Z" fill="white"/>
</g>
<path d="M187.31 85.36C187.31 80.5067 188.36 76.19 190.46 72.41C192.56 68.5833 195.477 65.62 199.21 63.52C202.99 61.3733 207.26 60.3 212.02 60.3C217.853 60.3 222.847 61.84 227 64.92C231.153 68 233.93 72.2 235.33 77.52H222.17C221.19 75.4667 219.79 73.9033 217.97 72.83C216.197 71.7567 214.167 71.22 211.88 71.22C208.193 71.22 205.207 72.5033 202.92 75.07C200.633 77.6367 199.49 81.0667 199.49 85.36C199.49 89.6533 200.633 93.0833 202.92 95.65C205.207 98.2167 208.193 99.5 211.88 99.5C214.167 99.5 216.197 98.9633 217.97 97.89C219.79 96.8167 221.19 95.2533 222.17 93.2H235.33C233.93 98.52 231.153 102.72 227 105.8C222.847 108.833 217.853 110.35 212.02 110.35C207.26 110.35 202.99 109.3 199.21 107.2C195.477 105.053 192.56 102.09 190.46 98.31C188.36 94.53 187.31 90.2133 187.31 85.36ZM240.28 90.4C240.28 86.3867 241.027 82.8633 242.52 79.83C244.06 76.7967 246.137 74.4633 248.75 72.83C251.364 71.1967 254.28 70.38 257.5 70.38C260.254 70.38 262.657 70.94 264.71 72.06C266.81 73.18 268.42 74.65 269.54 76.47V70.94H281.51V110H269.54V104.47C268.374 106.29 266.74 107.76 264.64 108.88C262.587 110 260.184 110.56 257.43 110.56C254.257 110.56 251.364 109.743 248.75 108.11C246.137 106.43 244.06 104.073 242.52 101.04C241.027 97.96 240.28 94.4133 240.28 90.4ZM269.54 90.47C269.54 87.4833 268.7 85.1267 267.02 83.4C265.387 81.6733 263.38 80.81 261 80.81C258.62 80.81 256.59 81.6733 254.91 83.4C253.277 85.08 252.46 87.4133 252.46 90.4C252.46 93.3867 253.277 95.7667 254.91 97.54C256.59 99.2667 258.62 100.13 261 100.13C263.38 100.13 265.387 99.2667 267.02 97.54C268.7 95.8133 269.54 93.4567 269.54 90.47ZM340.01 70.52C344.863 70.52 348.713 71.99 351.56 74.93C354.453 77.87 355.9 81.9533 355.9 87.18V110H344V88.79C344 86.27 343.323 84.3333 341.97 82.98C340.663 81.58 338.843 80.88 336.51 80.88C334.177 80.88 332.333 81.58 330.98 82.98C329.673 84.3333 329.02 86.27 329.02 88.79V110H317.12V88.79C317.12 86.27 316.443 84.3333 315.09 82.98C313.783 81.58 311.963 80.88 309.63 80.88C307.297 80.88 305.453 81.58 304.1 82.98C302.793 84.3333 302.14 86.27 302.14 88.79V110H290.17V70.94H302.14V75.84C303.353 74.2067 304.94 72.9233 306.9 71.99C308.86 71.01 311.077 70.52 313.55 70.52C316.49 70.52 319.103 71.15 321.39 72.41C323.723 73.67 325.543 75.4667 326.85 77.8C328.203 75.6533 330.047 73.9033 332.38 72.55C334.713 71.1967 337.257 70.52 340.01 70.52ZM361.892 90.4C361.892 86.3867 362.638 82.8633 364.132 79.83C365.672 76.7967 367.748 74.4633 370.362 72.83C372.975 71.1967 375.892 70.38 379.112 70.38C381.865 70.38 384.268 70.94 386.322 72.06C388.422 73.18 390.032 74.65 391.152 76.47V70.94H403.122V110H391.152V104.47C389.985 106.29 388.352 107.76 386.252 108.88C384.198 110 381.795 110.56 379.042 110.56C375.868 110.56 372.975 109.743 370.362 108.11C367.748 106.43 365.672 104.073 364.132 101.04C362.638 97.96 361.892 94.4133 361.892 90.4ZM391.152 90.47C391.152 87.4833 390.312 85.1267 388.632 83.4C386.998 81.6733 384.992 80.81 382.612 80.81C380.232 80.81 378.202 81.6733 376.522 83.4C374.888 85.08 374.072 87.4133 374.072 90.4C374.072 93.3867 374.888 95.7667 376.522 97.54C378.202 99.2667 380.232 100.13 382.612 100.13C384.992 100.13 386.998 99.2667 388.632 97.54C390.312 95.8133 391.152 93.4567 391.152 90.47ZM423.751 58.2V110H411.781V58.2H423.751ZM469.246 89.84C469.246 90.96 469.176 92.1267 469.036 93.34H441.946C442.133 95.7667 442.903 97.6333 444.256 98.94C445.656 100.2 447.359 100.83 449.366 100.83C452.353 100.83 454.429 99.57 455.596 97.05H468.336C467.683 99.6167 466.493 101.927 464.766 103.98C463.086 106.033 460.963 107.643 458.396 108.81C455.829 109.977 452.959 110.56 449.786 110.56C445.959 110.56 442.553 109.743 439.566 108.11C436.579 106.477 434.246 104.143 432.566 101.11C430.886 98.0767 430.046 94.53 430.046 90.47C430.046 86.41 430.863 82.8633 432.496 79.83C434.176 76.7967 436.509 74.4633 439.496 72.83C442.483 71.1967 445.913 70.38 449.786 70.38C453.566 70.38 456.926 71.1733 459.866 72.76C462.806 74.3467 465.093 76.61 466.726 79.55C468.406 82.49 469.246 85.92 469.246 89.84ZM456.996 86.69C456.996 84.6367 456.296 83.0033 454.896 81.79C453.496 80.5767 451.746 79.97 449.646 79.97C447.639 79.97 445.936 80.5533 444.536 81.72C443.183 82.8867 442.343 84.5433 442.016 86.69H456.996ZM493.341 110.56C489.514 110.56 486.061 109.743 482.981 108.11C479.947 106.477 477.544 104.143 475.771 101.11C474.044 98.0767 473.181 94.53 473.181 90.47C473.181 86.4567 474.067 82.9333 475.841 79.9C477.614 76.82 480.041 74.4633 483.121 72.83C486.201 71.1967 489.654 70.38 493.481 70.38C497.307 70.38 500.761 71.1967 503.841 72.83C506.921 74.4633 509.347 76.82 511.121 79.9C512.894 82.9333 513.781 86.4567 513.781 90.47C513.781 94.4833 512.871 98.03 511.051 101.11C509.277 104.143 506.827 106.477 503.701 108.11C500.621 109.743 497.167 110.56 493.341 110.56ZM493.341 100.2C495.627 100.2 497.564 99.36 499.151 97.68C500.784 96 501.601 93.5967 501.601 90.47C501.601 87.3433 500.807 84.94 499.221 83.26C497.681 81.58 495.767 80.74 493.481 80.74C491.147 80.74 489.211 81.58 487.671 83.26C486.131 84.8933 485.361 87.2967 485.361 90.47C485.361 93.5967 486.107 96 487.601 97.68C489.141 99.36 491.054 100.2 493.341 100.2ZM502.581 60.93L485.711 68V59.74L502.581 51.62V60.93ZM543.931 70.52C548.504 70.52 552.144 72.0133 554.851 75C557.604 77.94 558.981 82 558.981 87.18V110H547.081V88.79C547.081 86.1767 546.404 84.1467 545.051 82.7C543.698 81.2533 541.878 80.53 539.591 80.53C537.304 80.53 535.484 81.2533 534.131 82.7C532.778 84.1467 532.101 86.1767 532.101 88.79V110H520.131V70.94H532.101V76.12C533.314 74.3933 534.948 73.04 537.001 72.06C539.054 71.0333 541.364 70.52 543.931 70.52ZM579.753 90.4C579.753 86.3867 580.5 82.8633 581.993 79.83C583.533 76.7967 585.61 74.4633 588.223 72.83C590.836 71.1967 593.753 70.38 596.973 70.38C599.726 70.38 602.13 70.94 604.183 72.06C606.283 73.18 607.893 74.65 609.013 76.47V70.94H620.983V110H609.013V104.47C607.846 106.29 606.213 107.76 604.113 108.88C602.06 110 599.656 110.56 596.903 110.56C593.73 110.56 590.836 109.743 588.223 108.11C585.61 106.43 583.533 104.073 581.993 101.04C580.5 97.96 579.753 94.4133 579.753 90.4ZM609.013 90.47C609.013 87.4833 608.173 85.1267 606.493 83.4C604.86 81.6733 602.853 80.81 600.473 80.81C598.093 80.81 596.063 81.6733 594.383 83.4C592.75 85.08 591.933 87.4133 591.933 90.4C591.933 93.3867 592.75 95.7667 594.383 97.54C596.063 99.2667 598.093 100.13 600.473 100.13C602.853 100.13 604.86 99.2667 606.493 97.54C608.173 95.8133 609.013 93.4567 609.013 90.47ZM668.213 70.94V110H656.243V104.68C655.029 106.407 653.373 107.807 651.273 108.88C649.219 109.907 646.933 110.42 644.413 110.42C641.426 110.42 638.789 109.767 636.503 108.46C634.216 107.107 632.443 105.17 631.183 102.65C629.923 100.13 629.293 97.1667 629.293 93.76V70.94H641.193V92.15C641.193 94.7633 641.869 96.7933 643.223 98.24C644.576 99.6867 646.396 100.41 648.683 100.41C651.016 100.41 652.859 99.6867 654.213 98.24C655.566 96.7933 656.243 94.7633 656.243 92.15V70.94H668.213ZM674.431 90.4C674.431 86.3867 675.177 82.8633 676.671 79.83C678.211 76.7967 680.287 74.4633 682.901 72.83C685.514 71.1967 688.431 70.38 691.651 70.38C694.217 70.38 696.551 70.9167 698.651 71.99C700.797 73.0633 702.477 74.51 703.691 76.33V58.2H715.661V110H703.691V104.4C702.571 106.267 700.961 107.76 698.861 108.88C696.807 110 694.404 110.56 691.651 110.56C688.431 110.56 685.514 109.743 682.901 108.11C680.287 106.43 678.211 104.073 676.671 101.04C675.177 97.96 674.431 94.4133 674.431 90.4ZM703.691 90.47C703.691 87.4833 702.851 85.1267 701.171 83.4C699.537 81.6733 697.531 80.81 695.151 80.81C692.771 80.81 690.741 81.6733 689.061 83.4C687.427 85.08 686.611 87.4133 686.611 90.4C686.611 93.3867 687.427 95.7667 689.061 97.54C690.741 99.2667 692.771 100.13 695.151 100.13C697.531 100.13 699.537 99.2667 701.171 97.54C702.851 95.8133 703.691 93.4567 703.691 90.47ZM721.94 90.4C721.94 86.3867 722.687 82.8633 724.18 79.83C725.72 76.7967 727.797 74.4633 730.41 72.83C733.024 71.1967 735.94 70.38 739.16 70.38C741.914 70.38 744.317 70.94 746.37 72.06C748.47 73.18 750.08 74.65 751.2 76.47V70.94H763.17V110H751.2V104.47C750.034 106.29 748.4 107.76 746.3 108.88C744.247 110 741.844 110.56 739.09 110.56C735.917 110.56 733.024 109.743 730.41 108.11C727.797 106.43 725.72 104.073 724.18 101.04C722.687 97.96 721.94 94.4133 721.94 90.4ZM751.2 90.47C751.2 87.4833 750.36 85.1267 748.68 83.4C747.047 81.6733 745.04 80.81 742.66 80.81C740.28 80.81 738.25 81.6733 736.57 83.4C734.937 85.08 734.12 87.4133 734.12 90.4C734.12 93.3867 734.937 95.7667 736.57 97.54C738.25 99.2667 740.28 100.13 742.66 100.13C745.04 100.13 747.047 99.2667 748.68 97.54C750.36 95.8133 751.2 93.4567 751.2 90.47ZM783.03 100.13H799.97V110H769.66V100.48L785.9 80.81H769.8V70.94H799.62V80.46L783.03 100.13Z" fill="#A8A8A8"/>
</g>
<defs>
<clipPath id="clip0">
<rect width="811" height="193" fill="white"/>
</clipPath>
<clipPath id="clip1">
<rect width="172" height="172" fill="white" transform="translate(0 11)"/>
</clipPath>
</defs>
</svg>
