<svg width="84" height="92" viewBox="0 0 84 92" fill="none" xmlns="http://www.w3.org/2000/svg">
<g filter="url(#filter0_d)">
<rect x="14" y="8.05127" width="52" height="48.0986" rx="15" fill="white"/>
</g>
<path d="M37.6243 26.6688C36.6697 24.7322 34.5654 23.4803 32.2596 23.4803C29.0109 23.4803 26.3672 25.9059 26.3672 28.8865C26.3672 31.0009 27.7316 32.9327 29.841 33.8085C29.9288 33.8445 30.0205 33.8613 30.1108 33.8613C30.3609 33.8613 30.5979 33.7292 30.7079 33.5081C30.8559 33.2054 30.7105 32.8498 30.3806 32.7128C28.7386 32.0316 27.6766 30.53 27.6766 28.8865C27.6766 26.5679 29.7324 24.6817 32.2596 24.6817C34.0509 24.6817 35.6877 25.656 36.4301 27.1625C36.5794 27.4653 36.9657 27.5998 37.297 27.4629C37.6256 27.3271 37.7722 26.9703 37.6243 26.6688Z" fill="#7A76FF"/>
<path d="M53.2944 30.9696L48.3697 26.0068C47.4256 25.1382 45.7862 25.1322 44.8251 26.014C44.5148 26.2987 44.3026 26.6411 44.1926 27.0063C43.2368 26.3335 41.778 26.4069 40.8968 27.2153C40.5865 27.5001 40.3744 27.8425 40.2617 28.2065C39.3085 27.5337 37.8485 27.6106 36.9686 28.4167C36.6635 28.6966 36.454 29.0318 36.34 29.3862L34.0197 27.2574C33.0442 26.3635 31.4598 26.3611 30.4738 27.2646C29.4983 28.1584 29.4983 29.6144 30.4738 30.5094L39.3883 38.6883L34.1035 39.4499C32.6736 39.6374 31.596 40.7763 31.596 42.1014C31.596 43.0949 32.4772 43.9034 33.5601 43.9034H45.9066C47.8289 43.9034 49.6372 43.2162 51.0016 41.9668L53.06 40.0771C54.4192 38.8313 55.1668 37.1734 55.1668 35.411C55.1668 33.7651 54.5017 32.1878 53.2944 30.9696ZM52.1329 39.2289L50.0745 41.1186C48.9602 42.1398 47.4792 42.702 45.9066 42.702H33.5601C33.2 42.702 32.9054 42.4329 32.9054 42.1013C32.9054 41.3709 33.4999 40.7426 34.296 40.6369L40.8628 39.6902C41.1063 39.6553 41.3067 39.498 41.3839 39.2829C41.4599 39.0691 41.3984 38.8324 41.2242 38.6727L31.3996 29.6589C30.9361 29.2324 30.9361 28.5392 31.4074 28.1056C31.6405 27.8929 31.9456 27.786 32.2507 27.786C32.5558 27.786 32.8609 27.8929 33.094 28.1067L36.9384 31.6339C36.9476 31.6436 36.9594 31.6532 36.9699 31.6628L39.6463 34.1172C39.9016 34.3514 40.3167 34.3514 40.5721 34.1172C40.8274 33.8829 40.8274 33.502 40.5721 33.2678L37.8734 30.7918C37.4321 30.3641 37.44 29.6853 37.9035 29.2589C38.354 28.848 39.137 28.8456 39.5874 29.2589L40.8746 30.441C40.8825 30.4482 40.889 30.4554 40.8969 30.4614L42.2639 31.7145C42.5193 31.9487 42.9344 31.9487 43.1897 31.7145C43.445 31.4802 43.445 31.0994 43.1897 30.8651L41.807 29.5976C41.3604 29.1699 41.3657 28.4864 41.8318 28.0575C42.2809 27.6467 43.0653 27.6442 43.5157 28.0575L44.8828 29.3165C44.8841 29.3177 44.8841 29.3189 44.8854 29.3189L44.8867 29.3201C44.8973 29.325 44.8947 29.3238 44.8919 29.3226C44.8919 29.3226 44.8919 29.3237 44.8932 29.3237C44.8945 29.3249 44.8945 29.3249 44.8945 29.3249C44.8958 29.3261 44.8958 29.3261 44.8958 29.3261H44.8971C44.8984 29.3261 44.8984 29.3261 44.8984 29.3261C45.1576 29.5471 45.561 29.5412 45.8097 29.3105C46.0638 29.0762 46.0638 28.6966 45.8084 28.4624L45.7299 28.3903C45.2873 27.9626 45.2938 27.2826 45.7587 26.8561C46.2091 26.4453 47.0131 26.4633 47.4216 26.8357L52.3241 31.7793C53.3127 32.7764 53.8561 34.0655 53.8561 35.4122C53.8561 36.8527 53.2433 38.209 52.1329 39.2289Z" fill="#7A76FF"/>
<path d="M44.8881 29.3227H44.8894C44.888 29.322 44.8867 29.3214 44.8867 29.3214C44.8881 29.3227 44.8895 29.3227 44.8881 29.3227Z" fill="#7A76FF"/>
<path d="M40.4778 26.8793C39.4892 23.4638 36.1095 21.0779 32.2612 21.0779C27.5683 21.0779 23.75 24.581 23.75 28.8867C23.75 32.4175 26.3505 35.5182 30.0745 36.4253C30.1308 36.4397 30.1871 36.4457 30.2421 36.4457C30.5328 36.4457 30.7973 36.2691 30.8745 36C30.9675 35.6792 30.7606 35.3501 30.4097 35.2648C27.2606 34.4971 25.0595 31.8745 25.0595 28.8867C25.0595 25.243 28.2911 22.2793 32.2612 22.2793C35.5164 22.2793 38.3762 24.2976 39.2129 27.188C39.3046 27.5076 39.6516 27.6998 40.0143 27.6145C40.3625 27.5292 40.5695 27.2 40.4778 26.8793Z" fill="#7A76FF"/>
<path d="M21.0626 70.5713V72.5243H17.1776V85.1663H14.7836V72.5243H10.8776V70.5713H21.0626ZM22.6891 79.3283C22.6891 78.1663 22.9271 77.1373 23.4031 76.2413C23.8931 75.3453 24.5511 74.6523 25.3771 74.1623C26.2171 73.6583 27.1411 73.4063 28.1491 73.4063C29.0591 73.4063 29.8501 73.5883 30.5221 73.9523C31.2081 74.3023 31.7541 74.7433 32.1601 75.2753V73.5953H34.5751V85.1663H32.1601V83.4443C31.7541 83.9903 31.2011 84.4453 30.5011 84.8093C29.8011 85.1733 29.0031 85.3553 28.1071 85.3553C27.1131 85.3553 26.2031 85.1033 25.3771 84.5993C24.5511 84.0813 23.8931 83.3673 23.4031 82.4573C22.9271 81.5333 22.6891 80.4903 22.6891 79.3283ZM32.1601 79.3703C32.1601 78.5723 31.9921 77.8793 31.6561 77.2913C31.3341 76.7033 30.9071 76.2553 30.3751 75.9473C29.8431 75.6393 29.2691 75.4853 28.6531 75.4853C28.0371 75.4853 27.4631 75.6393 26.9311 75.9473C26.3991 76.2413 25.9651 76.6823 25.6291 77.2703C25.3071 77.8443 25.1461 78.5303 25.1461 79.3283C25.1461 80.1263 25.3071 80.8263 25.6291 81.4283C25.9651 82.0303 26.3991 82.4923 26.9311 82.8143C27.4771 83.1223 28.0511 83.2763 28.6531 83.2763C29.2691 83.2763 29.8431 83.1223 30.3751 82.8143C30.9071 82.5063 31.3341 82.0583 31.6561 81.4703C31.9921 80.8683 32.1601 80.1683 32.1601 79.3703ZM36.9215 79.3703C36.9215 78.1803 37.1595 77.1373 37.6355 76.2413C38.1255 75.3313 38.7975 74.6313 39.6515 74.1413C40.5055 73.6513 41.4855 73.4063 42.5915 73.4063C43.9915 73.4063 45.1465 73.7423 46.0565 74.4143C46.9805 75.0723 47.6035 76.0173 47.9255 77.2493H45.3425C45.1325 76.6753 44.7965 76.2273 44.3345 75.9053C43.8725 75.5833 43.2915 75.4223 42.5915 75.4223C41.6115 75.4223 40.8275 75.7723 40.2395 76.4723C39.6655 77.1583 39.3785 78.1243 39.3785 79.3703C39.3785 80.6163 39.6655 81.5893 40.2395 82.2893C40.8275 82.9893 41.6115 83.3393 42.5915 83.3393C43.9775 83.3393 44.8945 82.7303 45.3425 81.5123H47.9255C47.5895 82.6883 46.9595 83.6263 46.0355 84.3263C45.1115 85.0123 43.9635 85.3553 42.5915 85.3553C41.4855 85.3553 40.5055 85.1103 39.6515 84.6203C38.7975 84.1163 38.1255 83.4163 37.6355 82.5203C37.1595 81.6103 36.9215 80.5603 36.9215 79.3703ZM53.1043 75.5483V81.9533C53.1043 82.3873 53.2023 82.7023 53.3983 82.8983C53.6083 83.0803 53.9583 83.1713 54.4483 83.1713H55.9183V85.1663H54.0283C52.9503 85.1663 52.1243 84.9143 51.5503 84.4103C50.9763 83.9063 50.6893 83.0873 50.6893 81.9533V75.5483H49.3243V73.5953H50.6893V70.7183H53.1043V73.5953H55.9183V75.5483H53.1043ZM63.1438 85.3553C62.0518 85.3553 61.0648 85.1103 60.1828 84.6203C59.3008 84.1163 58.6078 83.4163 58.1038 82.5203C57.5998 81.6103 57.3478 80.5603 57.3478 79.3703C57.3478 78.1943 57.6068 77.1513 58.1248 76.2413C58.6428 75.3313 59.3498 74.6313 60.2458 74.1413C61.1418 73.6513 62.1428 73.4063 63.2488 73.4063C64.3548 73.4063 65.3558 73.6513 66.2518 74.1413C67.1478 74.6313 67.8548 75.3313 68.3728 76.2413C68.8908 77.1513 69.1498 78.1943 69.1498 79.3703C69.1498 80.5463 68.8838 81.5893 68.3518 82.4993C67.8198 83.4093 67.0918 84.1163 66.1678 84.6203C65.2578 85.1103 64.2498 85.3553 63.1438 85.3553ZM63.1438 83.2763C63.7598 83.2763 64.3338 83.1293 64.8658 82.8353C65.4118 82.5413 65.8528 82.1003 66.1888 81.5123C66.5248 80.9243 66.6928 80.2103 66.6928 79.3703C66.6928 78.5303 66.5318 77.8233 66.2098 77.2493C65.8878 76.6613 65.4608 76.2203 64.9288 75.9263C64.3968 75.6323 63.8228 75.4853 63.2068 75.4853C62.5908 75.4853 62.0168 75.6323 61.4848 75.9263C60.9668 76.2203 60.5538 76.6613 60.2458 77.2493C59.9378 77.8233 59.7838 78.5303 59.7838 79.3703C59.7838 80.6163 60.0988 81.5823 60.7288 82.2683C61.3728 82.9403 62.1778 83.2763 63.1438 83.2763Z" fill="#212429"/>
<defs>
<filter id="filter0_d" x="0" y="0.0512695" width="84" height="80.0986" filterUnits="userSpaceOnUse" color-interpolation-filters="sRGB">
<feFlood flood-opacity="0" result="BackgroundImageFix"/>
<feColorMatrix in="SourceAlpha" type="matrix" values="0 0 0 0 0 0 0 0 0 0 0 0 0 0 0 0 0 0 127 0"/>
<feOffset dx="2" dy="8"/>
<feGaussianBlur stdDeviation="8"/>
<feColorMatrix type="matrix" values="0 0 0 0 0.239216 0 0 0 0 0.243137 0 0 0 0 0.258824 0 0 0 0.105 0"/>
<feBlend mode="normal" in2="BackgroundImageFix" result="effect1_dropShadow"/>
<feBlend mode="normal" in="SourceGraphic" in2="effect1_dropShadow" result="shape"/>
</filter>
</defs>
</svg>
