<svg width="16" height="16" viewBox="0 0 16 16" fill="none" xmlns="http://www.w3.org/2000/svg">
<path d="M4.3804 13.5267H2.55138C2.22799 13.5267 1.91784 13.3983 1.68917 13.1696C1.4605 12.9409 1.33203 12.6308 1.33203 12.3074V8.03967C1.33203 7.71628 1.4605 7.40613 1.68917 7.17746C1.91784 6.94879 2.22799 6.82032 2.55138 6.82032H4.3804M8.64812 5.60097V3.16227C8.64812 2.67719 8.45542 2.21197 8.11241 1.86896C7.7694 1.52595 7.30418 1.33325 6.8191 1.33325L4.3804 6.82032V13.5267H11.2575C11.5516 13.5301 11.8369 13.427 12.061 13.2365C12.2851 13.0461 12.4328 12.781 12.4769 12.4903L13.3182 7.00322C13.3447 6.82846 13.333 6.65003 13.2837 6.48027C13.2344 6.31052 13.1488 6.15351 13.0328 6.02013C12.9168 5.88675 12.7732 5.78017 12.612 5.7078C12.4507 5.63542 12.2756 5.59897 12.0989 5.60097H8.64812Z" stroke="#686B6E" stroke-width="1.5" stroke-linecap="round" stroke-linejoin="round"/>
</svg>
