<svg width="80" height="80" viewBox="0 0 80 80" fill="none" xmlns="http://www.w3.org/2000/svg">
<g filter="url(#filter0_d)">
<rect x="14" y="8" width="48" height="48" rx="15" fill="white"/>
</g>
<path d="M42.4042 27.3869C41.1171 26.1672 39.379 25.5407 37.6098 25.6586C34.2235 25.8631 31.5708 28.6496 31.5331 32.0419C31.5053 34.467 32.9826 36.6691 34.9338 37.7562V40.9339C34.9338 42.6273 36.3066 44.0001 38 44.0001C39.6934 44.0001 41.0662 42.6273 41.0662 40.9339V37.784C43.125 36.6091 44.4161 34.4397 44.4669 32.0698C44.4427 30.2937 43.6982 28.6036 42.4042 27.3869ZM38 42.8294C37.0587 42.7875 36.2774 42.0879 36.1324 41.1569H39.8676C39.7226 42.0879 38.9413 42.7875 38 42.8294ZM39.9512 40.0419H36.0488V39.2057H39.9512V40.0419ZM40.23 36.92C40.0515 37.0229 39.9443 37.2158 39.9512 37.4217V38.0907H36.0488V37.4217C36.0599 37.2074 35.953 37.0042 35.7701 36.8921C33.8576 36.0548 32.6292 34.1574 32.6481 32.0698C32.6986 29.2722 34.8748 26.9751 37.6656 26.7736H38C40.928 26.7884 43.3065 29.1421 43.3519 32.0698C43.3531 34.159 42.1321 36.0558 40.23 36.92Z" fill="#FCC949"/>
<path d="M37.9999 24.1254C38.3078 24.1254 38.5574 23.8758 38.5574 23.5679V20.5575C38.5574 20.2496 38.3078 20 37.9999 20C37.692 20 37.4424 20.2496 37.4424 20.5575V23.5679C37.4424 23.8758 37.692 24.1254 37.9999 24.1254Z" fill="#FCC949"/>
<path d="M29.777 31.1218H26.7665C26.4586 31.1218 26.209 31.3714 26.209 31.6793C26.209 31.9872 26.4586 32.2368 26.7665 32.2368H29.7769C30.0848 32.2368 30.3344 31.9872 30.3344 31.6793C30.3344 31.3714 30.0849 31.1218 29.777 31.1218Z" fill="#FCC949"/>
<path d="M49.2334 31.1218H46.223C45.9151 31.1218 45.6655 31.3714 45.6655 31.6793C45.6655 31.9872 45.9151 32.2368 46.223 32.2368H49.2334C49.5413 32.2368 49.7909 31.9872 49.7909 31.6793C49.7909 31.3714 49.5413 31.1218 49.2334 31.1218Z" fill="#FCC949"/>
<path d="M29.6654 24.2369L31.8118 26.3553C32.0095 26.5709 32.3446 26.5853 32.5601 26.3875C32.5713 26.3773 32.582 26.3665 32.5922 26.3553C32.8078 26.1576 32.8222 25.8226 32.6244 25.6071C32.6142 25.5959 32.6034 25.5851 32.5922 25.5749L30.4459 23.4564C30.2612 23.2101 29.9117 23.1602 29.6654 23.3449C29.4191 23.5296 29.3692 23.8791 29.5539 24.1254C29.5856 24.1676 29.6232 24.2052 29.6654 24.2369Z" fill="#FCC949"/>
<path d="M43.4075 26.3554C43.5104 26.4604 43.6507 26.5205 43.7977 26.5227C43.9447 26.5206 44.085 26.4604 44.1879 26.3554L46.3343 24.2369C46.5806 24.0522 46.6305 23.7028 46.4458 23.4564C46.2611 23.2101 45.9116 23.1602 45.6653 23.3449C45.623 23.3766 45.5855 23.4142 45.5538 23.4564L43.4074 25.5749C43.1919 25.7726 43.1775 26.1077 43.3752 26.3232C43.3855 26.3344 43.3963 26.3452 43.4075 26.3554Z" fill="#FCC949"/>
<defs>
<filter id="filter0_d" x="0" y="0" width="80" height="80" filterUnits="userSpaceOnUse" color-interpolation-filters="sRGB">
<feFlood flood-opacity="0" result="BackgroundImageFix"/>
<feColorMatrix in="SourceAlpha" type="matrix" values="0 0 0 0 0 0 0 0 0 0 0 0 0 0 0 0 0 0 127 0"/>
<feOffset dx="2" dy="8"/>
<feGaussianBlur stdDeviation="8"/>
<feColorMatrix type="matrix" values="0 0 0 0 0.239216 0 0 0 0 0.243137 0 0 0 0 0.258824 0 0 0 0.1 0"/>
<feBlend mode="normal" in2="BackgroundImageFix" result="effect1_dropShadow"/>
<feBlend mode="normal" in="SourceGraphic" in2="effect1_dropShadow" result="shape"/>
</filter>
</defs>
</svg>
