<svg width="33" height="33" viewBox="0 0 33 33" fill="none" xmlns="http://www.w3.org/2000/svg">
<g clip-path="url(#clip0)">
<path d="M21.9312 9.8758C20.2104 8.24516 17.8867 7.40752 15.5212 7.56523C10.9939 7.83864 7.44743 11.5641 7.397 16.0994C7.35977 19.3416 9.33487 22.2858 11.9436 23.7391V27.9876C11.9436 30.2516 13.779 32.0869 16.0429 32.0869C18.3069 32.0869 20.1423 30.2516 20.1423 27.9876V23.7764C22.8949 22.2056 24.621 19.3052 24.6889 16.1366C24.6565 13.7622 23.6612 11.5025 21.9312 9.8758ZM16.0429 30.5218C14.7845 30.4658 13.7399 29.5304 13.5461 28.2857H18.5398C18.346 29.5304 17.3015 30.4658 16.0429 30.5218ZM18.6517 26.7951H13.4343V25.6771H18.6517V26.7951ZM19.0243 22.6212C18.7857 22.7588 18.6424 23.0167 18.6517 23.292V24.1864H13.4343V23.292C13.4492 23.0055 13.3062 22.7338 13.0617 22.5839C10.5048 21.4645 8.86244 18.9277 8.88776 16.1366C8.95517 12.3964 11.8647 9.32526 15.5958 9.05592H16.043C19.9576 9.07575 23.1375 12.2225 23.1983 16.1366C23.1998 18.9299 21.5674 21.4658 19.0243 22.6212Z" fill="#FCC949"/>
<path d="M16.0432 5.51549C16.4548 5.51549 16.7885 5.1818 16.7885 4.77015V0.745342C16.7885 0.333689 16.4548 0 16.0432 0C15.6315 0 15.2979 0.333689 15.2979 0.745342V4.77015C15.2979 5.1818 15.6315 5.51549 16.0432 5.51549Z" fill="#FCC949"/>
<path d="M5.04952 14.8694H1.02464C0.612985 14.8694 0.279297 15.2031 0.279297 15.6147C0.279297 16.0264 0.612985 16.3601 1.02464 16.3601H5.04945C5.4611 16.3601 5.79479 16.0264 5.79479 15.6147C5.79479 15.2031 5.46117 14.8694 5.04952 14.8694Z" fill="#FCC949"/>
<path d="M31.0621 14.8694H27.0373C26.6257 14.8694 26.292 15.2031 26.292 15.6147C26.292 16.0264 26.6257 16.3601 27.0373 16.3601H31.0621C31.4738 16.3601 31.8075 16.0264 31.8075 15.6147C31.8075 15.2031 31.4738 14.8694 31.0621 14.8694Z" fill="#FCC949"/>
<path d="M4.90072 5.66462L7.77032 8.49691C8.03467 8.78508 8.48263 8.80434 8.77074 8.53992C8.78572 8.52622 8.80006 8.51181 8.81375 8.49691C9.10193 8.23255 9.12119 7.78459 8.85676 7.49648C8.84307 7.4815 8.82866 7.46716 8.81375 7.45347L5.94423 4.62118C5.69728 4.29184 5.23006 4.22515 4.90072 4.4721C4.57138 4.71905 4.50469 5.18627 4.75164 5.51561C4.79401 5.57203 4.84423 5.62225 4.90072 5.66462Z" fill="#FCC949"/>
<path d="M23.2724 8.49673C23.41 8.63718 23.5976 8.7175 23.7942 8.72035C23.9907 8.71757 24.1783 8.63718 24.3159 8.49673L27.1855 5.66444C27.5148 5.41749 27.5815 4.95027 27.3346 4.62094C27.0876 4.2916 26.6204 4.2249 26.291 4.47185C26.2345 4.51422 26.1843 4.56444 26.142 4.62094L23.2724 7.45322C22.9842 7.71758 22.9649 8.16554 23.2293 8.45365C23.2431 8.4687 23.2575 8.48303 23.2724 8.49673Z" fill="#FCC949"/>
</g>
<defs>
<clipPath id="clip0">
<rect width="32.087" height="32.087" fill="white"/>
</clipPath>
</defs>
</svg>
