<svg width="80" height="80" viewBox="0 0 80 80" fill="none" xmlns="http://www.w3.org/2000/svg">
<g filter="url(#filter0_d)">
<rect x="14" y="8" width="48" height="48" rx="15" fill="white"/>
</g>
<path d="M23.8809 65.636L20.7249 74H19.4649L16.3089 65.636H17.4729L20.1009 72.848L22.7289 65.636H23.8809ZM24.6703 70.688C24.6703 70.016 24.8063 69.428 25.0783 68.924C25.3503 68.412 25.7223 68.016 26.1943 67.736C26.6743 67.456 27.2063 67.316 27.7903 67.316C28.3663 67.316 28.8663 67.44 29.2903 67.688C29.7143 67.936 30.0303 68.248 30.2383 68.624V67.424H31.3423V74H30.2383V72.776C30.0223 73.16 29.6983 73.48 29.2663 73.736C28.8423 73.984 28.3463 74.108 27.7783 74.108C27.1943 74.108 26.6663 73.964 26.1943 73.676C25.7223 73.388 25.3503 72.984 25.0783 72.464C24.8063 71.944 24.6703 71.352 24.6703 70.688ZM30.2383 70.7C30.2383 70.204 30.1383 69.772 29.9383 69.404C29.7383 69.036 29.4663 68.756 29.1223 68.564C28.7863 68.364 28.4143 68.264 28.0063 68.264C27.5983 68.264 27.2263 68.36 26.8903 68.552C26.5543 68.744 26.2863 69.024 26.0863 69.392C25.8863 69.76 25.7863 70.192 25.7863 70.688C25.7863 71.192 25.8863 71.632 26.0863 72.008C26.2863 72.376 26.5543 72.66 26.8903 72.86C27.2263 73.052 27.5983 73.148 28.0063 73.148C28.4143 73.148 28.7863 73.052 29.1223 72.86C29.4663 72.66 29.7383 72.376 29.9383 72.008C30.1383 71.632 30.2383 71.196 30.2383 70.7ZM34.2797 65.12V74H33.1877V65.12H34.2797ZM39.0088 74.108C38.3928 74.108 37.8328 73.968 37.3288 73.688C36.8328 73.408 36.4408 73.012 36.1528 72.5C35.8728 71.98 35.7328 71.38 35.7328 70.7C35.7328 70.028 35.8768 69.436 36.1648 68.924C36.4608 68.404 36.8608 68.008 37.3648 67.736C37.8688 67.456 38.4328 67.316 39.0568 67.316C39.6808 67.316 40.2448 67.456 40.7488 67.736C41.2528 68.008 41.6488 68.4 41.9368 68.912C42.2328 69.424 42.3808 70.02 42.3808 70.7C42.3808 71.38 42.2288 71.98 41.9248 72.5C41.6288 73.012 41.2248 73.408 40.7128 73.688C40.2008 73.968 39.6328 74.108 39.0088 74.108ZM39.0088 73.148C39.4008 73.148 39.7688 73.056 40.1128 72.872C40.4568 72.688 40.7328 72.412 40.9408 72.044C41.1568 71.676 41.2648 71.228 41.2648 70.7C41.2648 70.172 41.1608 69.724 40.9528 69.356C40.7448 68.988 40.4728 68.716 40.1368 68.54C39.8008 68.356 39.4368 68.264 39.0448 68.264C38.6448 68.264 38.2768 68.356 37.9408 68.54C37.6128 68.716 37.3488 68.988 37.1488 69.356C36.9488 69.724 36.8488 70.172 36.8488 70.7C36.8488 71.236 36.9448 71.688 37.1368 72.056C37.3368 72.424 37.6008 72.7 37.9288 72.884C38.2568 73.06 38.6168 73.148 39.0088 73.148ZM44.9086 68.492C45.1006 68.116 45.3726 67.824 45.7246 67.616C46.0846 67.408 46.5206 67.304 47.0326 67.304V68.432H46.7446C45.5206 68.432 44.9086 69.096 44.9086 70.424V74H43.8166V67.424H44.9086V68.492ZM47.8851 70.688C47.8851 70.016 48.0211 69.428 48.2931 68.924C48.5651 68.412 48.9371 68.016 49.4091 67.736C49.8891 67.456 50.4211 67.316 51.0051 67.316C51.5811 67.316 52.0811 67.44 52.5051 67.688C52.9291 67.936 53.2451 68.248 53.4531 68.624V67.424H54.5571V74H53.4531V72.776C53.2371 73.16 52.9131 73.48 52.4811 73.736C52.0571 73.984 51.5611 74.108 50.9931 74.108C50.4091 74.108 49.8811 73.964 49.4091 73.676C48.9371 73.388 48.5651 72.984 48.2931 72.464C48.0211 71.944 47.8851 71.352 47.8851 70.688ZM53.4531 70.7C53.4531 70.204 53.3531 69.772 53.1531 69.404C52.9531 69.036 52.6811 68.756 52.3371 68.564C52.0011 68.364 51.6291 68.264 51.2211 68.264C50.8131 68.264 50.4411 68.36 50.1051 68.552C49.7691 68.744 49.5011 69.024 49.3011 69.392C49.1011 69.76 49.0011 70.192 49.0011 70.688C49.0011 71.192 49.1011 71.632 49.3011 72.008C49.5011 72.376 49.7691 72.66 50.1051 72.86C50.4411 73.052 50.8131 73.148 51.2211 73.148C51.6291 73.148 52.0011 73.052 52.3371 72.86C52.6811 72.66 52.9531 72.376 53.1531 72.008C53.3531 71.632 53.4531 71.196 53.4531 70.7ZM57.4945 68.492C57.6865 68.116 57.9585 67.824 58.3105 67.616C58.6705 67.408 59.1065 67.304 59.6185 67.304V68.432H59.3305C58.1065 68.432 57.4945 69.096 57.4945 70.424V74H56.4025V67.424H57.4945V68.492Z" fill="white"/>
<path d="M33 42H30C29.4696 42 28.9609 41.7893 28.5858 41.4142C28.2107 41.0391 28 40.5304 28 40V33C28 32.4696 28.2107 31.9609 28.5858 31.5858C28.9609 31.2107 29.4696 31 30 31H33M40 29V25C40 24.2044 39.6839 23.4413 39.1213 22.8787C38.5587 22.3161 37.7956 22 37 22L33 31V42H44.28C44.7623 42.0055 45.2304 41.8364 45.5979 41.524C45.9654 41.2116 46.2077 40.7769 46.28 40.3L47.66 31.3C47.7035 31.0134 47.6842 30.7207 47.6033 30.4423C47.5225 30.1638 47.3821 29.9063 47.1919 29.6875C47.0016 29.4687 46.7661 29.2939 46.5016 29.1752C46.2371 29.0565 45.9499 28.9967 45.66 29H40Z" stroke="#686B6E" stroke-width="2" stroke-linecap="round" stroke-linejoin="round"/>
<defs>
<filter id="filter0_d" x="0" y="0" width="80" height="80" filterUnits="userSpaceOnUse" color-interpolation-filters="sRGB">
<feFlood flood-opacity="0" result="BackgroundImageFix"/>
<feColorMatrix in="SourceAlpha" type="matrix" values="0 0 0 0 0 0 0 0 0 0 0 0 0 0 0 0 0 0 127 0"/>
<feOffset dx="2" dy="8"/>
<feGaussianBlur stdDeviation="8"/>
<feColorMatrix type="matrix" values="0 0 0 0 0.239216 0 0 0 0 0.243137 0 0 0 0 0.258824 0 0 0 0.105 0"/>
<feBlend mode="normal" in2="BackgroundImageFix" result="effect1_dropShadow"/>
<feBlend mode="normal" in="SourceGraphic" in2="effect1_dropShadow" result="shape"/>
</filter>
</defs>
</svg>
