<svg width="100" height="72" viewBox="0 0 100 72" fill="none" xmlns="http://www.w3.org/2000/svg">
<path d="M0 0.207053V71.6928C0 71.7875 0.112085 71.8998 0.206814 71.8998H99.793C99.8877 71.8998 100 71.7875 100 71.6928V0.207053C100 0.112083 99.8879 0 99.793 0C98.3759 0 1.95292 0 0.206814 0C0.112326 0 0 0.112324 0 0.207053Z" fill="#FF6B6C"/>
<path d="M49.7537 12.9985C40.8023 12.9985 33.4785 20.3223 33.4785 29.2737C33.4785 38.225 40.8023 45.5488 49.7537 45.5488C58.705 45.5488 66.0288 38.225 66.0288 29.2737C66.0288 20.3223 58.705 12.9985 49.7537 12.9985Z" fill="#DFEBFA"/>
<path d="M45.1493 29.2734C45.1493 22.3765 49.4989 16.45 55.589 14.0909C53.775 13.3883 51.8081 12.9985 49.7537 12.9985C40.8023 12.9985 33.4785 20.3223 33.4785 29.2737C33.4785 38.225 40.8023 45.5488 49.7537 45.5488C51.8081 45.5488 53.775 45.159 55.589 44.4564C49.4989 42.0971 45.1493 36.1704 45.1493 29.2734Z" fill="#B1DBFC"/>
<path d="M56.5733 27.8177L47.3221 22.2455C46.1895 21.5634 44.7461 22.3791 44.7461 23.7012V34.8458C44.7461 36.1679 46.1897 36.9836 47.3221 36.3014L56.5733 30.7292C57.67 30.0685 57.67 28.4784 56.5733 27.8177Z" fill="#FF6B6C"/>
<path d="M68.2955 55.4604H13.2519C11.332 55.4604 9.77539 57.0169 9.77539 58.937C9.77539 60.8569 11.3318 62.4135 13.2519 62.4135H68.2955V55.4604Z" fill="#DFEBFA"/>
<path d="M86.2564 55.4604H68.2949V62.4133H86.2564C88.1763 62.4133 89.7329 60.8569 89.7329 58.9368C89.7327 57.0169 88.1763 55.4604 86.2564 55.4604Z" fill="#FF4756"/>
<path d="M68.2959 66.1795C67.2674 66.1795 66.4336 65.3458 66.4336 64.3173V53.5984C66.4336 52.5699 67.2674 51.7361 68.2959 51.7361C69.3244 51.7361 70.1582 52.5699 70.1582 53.5984V64.3173C70.1584 65.3458 69.3244 66.1795 68.2959 66.1795Z" fill="#FF7F87"/>
</svg>
