<svg width="80" height="92" viewBox="0 0 80 92" fill="none" xmlns="http://www.w3.org/2000/svg">
<g filter="url(#filter0_d)">
<rect x="14" y="8.05127" width="48" height="48.0986" rx="15" fill="white"/>
</g>
<path d="M57.5977 31.6288C57.2507 31.157 48.9823 20.0758 38.4221 20.0758C27.8619 20.0758 19.5931 31.157 19.2465 31.6283C18.9178 32.076 18.9178 32.6831 19.2465 33.1307C19.5931 33.6025 27.8619 44.6837 38.4221 44.6837C48.9823 44.6837 57.2507 33.6024 57.5977 33.1311C57.9268 32.6835 57.9268 32.076 57.5977 31.6288ZM38.4221 42.138C30.6434 42.138 23.9062 34.7833 21.9118 32.3789C23.9036 29.9724 30.6267 22.6214 38.4221 22.6214C46.2004 22.6214 52.9372 29.9749 54.9323 32.3806C52.9406 34.787 46.2175 42.138 38.4221 42.138Z" fill="#7A76FF"/>
<path d="M38.4258 24.7434C34.1891 24.7434 30.7422 28.1694 30.7422 32.3804C30.7422 36.5913 34.1891 40.0173 38.4258 40.0173C42.6624 40.0173 46.1093 36.5913 46.1093 32.3804C46.1093 28.1694 42.6624 24.7434 38.4258 24.7434ZM38.4258 37.4716C35.6012 37.4716 33.3034 35.1877 33.3034 32.3804C33.3034 29.573 35.6013 27.2891 38.4258 27.2891C41.2503 27.2891 43.5481 29.573 43.5481 32.3804C43.5481 35.1877 41.2503 37.4716 38.4258 37.4716Z" fill="#7A76FF"/>
<path d="M25.4631 70.5713L19.9821 85.1663H17.2101L11.7081 70.5713H14.2701L18.5961 82.7093L22.9431 70.5713H25.4631ZM28.6831 72.0623C28.2491 72.0623 27.8851 71.9153 27.5911 71.6213C27.2971 71.3273 27.1501 70.9633 27.1501 70.5293C27.1501 70.0953 27.2971 69.7313 27.5911 69.4373C27.8851 69.1433 28.2491 68.9963 28.6831 68.9963C29.1031 68.9963 29.4601 69.1433 29.7541 69.4373C30.0481 69.7313 30.1951 70.0953 30.1951 70.5293C30.1951 70.9633 30.0481 71.3273 29.7541 71.6213C29.4601 71.9153 29.1031 72.0623 28.6831 72.0623ZM29.8591 73.5953V85.1663H27.4651V73.5953H29.8591ZM37.2022 85.3553C36.2922 85.3553 35.4732 85.1943 34.7452 84.8723C34.0312 84.5363 33.4642 84.0883 33.0442 83.5283C32.6242 82.9543 32.4002 82.3173 32.3722 81.6173H34.8502C34.8922 82.1073 35.1232 82.5203 35.5432 82.8563C35.9772 83.1783 36.5162 83.3393 37.1602 83.3393C37.8322 83.3393 38.3502 83.2133 38.7142 82.9613C39.0922 82.6953 39.2812 82.3593 39.2812 81.9533C39.2812 81.5193 39.0712 81.1973 38.6512 80.9873C38.2452 80.7773 37.5942 80.5463 36.6982 80.2943C35.8302 80.0563 35.1232 79.8253 34.5772 79.6013C34.0312 79.3773 33.5552 79.0343 33.1492 78.5723C32.7572 78.1103 32.5612 77.5013 32.5612 76.7453C32.5612 76.1293 32.7432 75.5693 33.1072 75.0653C33.4712 74.5473 33.9892 74.1413 34.6612 73.8473C35.3472 73.5533 36.1312 73.4063 37.0132 73.4063C38.3292 73.4063 39.3862 73.7423 40.1842 74.4143C40.9962 75.0723 41.4302 75.9753 41.4862 77.1233H39.0922C39.0502 76.6053 38.8402 76.1923 38.4622 75.8843C38.0842 75.5763 37.5732 75.4223 36.9292 75.4223C36.2992 75.4223 35.8162 75.5413 35.4802 75.7793C35.1442 76.0173 34.9762 76.3323 34.9762 76.7243C34.9762 77.0323 35.0882 77.2913 35.3122 77.5013C35.5362 77.7113 35.8092 77.8793 36.1312 78.0053C36.4532 78.1173 36.9292 78.2643 37.5592 78.4463C38.3992 78.6703 39.0852 78.9013 39.6172 79.1393C40.1632 79.3633 40.6322 79.6993 41.0242 80.1473C41.4162 80.5953 41.6192 81.1903 41.6332 81.9323C41.6332 82.5903 41.4512 83.1783 41.0872 83.6963C40.7232 84.2143 40.2052 84.6203 39.5332 84.9143C38.8752 85.2083 38.0982 85.3553 37.2022 85.3553ZM47.013 75.5483V81.9533C47.013 82.3873 47.111 82.7023 47.307 82.8983C47.517 83.0803 47.867 83.1713 48.357 83.1713H49.827V85.1663H47.937C46.859 85.1663 46.033 84.9143 45.459 84.4103C44.885 83.9063 44.598 83.0873 44.598 81.9533V75.5483H43.233V73.5953H44.598V70.7183H47.013V73.5953H49.827V75.5483H47.013ZM51.2355 79.3283C51.2355 78.1663 51.4735 77.1373 51.9495 76.2413C52.4395 75.3453 53.0975 74.6523 53.9235 74.1623C54.7635 73.6583 55.6875 73.4063 56.6955 73.4063C57.6055 73.4063 58.3965 73.5883 59.0685 73.9523C59.7545 74.3023 60.3005 74.7433 60.7065 75.2753V73.5953H63.1215V85.1663H60.7065V83.4443C60.3005 83.9903 59.7475 84.4453 59.0475 84.8093C58.3475 85.1733 57.5495 85.3553 56.6535 85.3553C55.6595 85.3553 54.7495 85.1033 53.9235 84.5993C53.0975 84.0813 52.4395 83.3673 51.9495 82.4573C51.4735 81.5333 51.2355 80.4903 51.2355 79.3283ZM60.7065 79.3703C60.7065 78.5723 60.5385 77.8793 60.2025 77.2913C59.8805 76.7033 59.4535 76.2553 58.9215 75.9473C58.3895 75.6393 57.8155 75.4853 57.1995 75.4853C56.5835 75.4853 56.0095 75.6393 55.4775 75.9473C54.9455 76.2413 54.5115 76.6823 54.1755 77.2703C53.8535 77.8443 53.6925 78.5303 53.6925 79.3283C53.6925 80.1263 53.8535 80.8263 54.1755 81.4283C54.5115 82.0303 54.9455 82.4923 55.4775 82.8143C56.0235 83.1223 56.5975 83.2763 57.1995 83.2763C57.8155 83.2763 58.3895 83.1223 58.9215 82.8143C59.4535 82.5063 59.8805 82.0583 60.2025 81.4703C60.5385 80.8683 60.7065 80.1683 60.7065 79.3703Z" fill="#212429"/>
<defs>
<filter id="filter0_d" x="0" y="0.0512695" width="80" height="80.0986" filterUnits="userSpaceOnUse" color-interpolation-filters="sRGB">
<feFlood flood-opacity="0" result="BackgroundImageFix"/>
<feColorMatrix in="SourceAlpha" type="matrix" values="0 0 0 0 0 0 0 0 0 0 0 0 0 0 0 0 0 0 127 0"/>
<feOffset dx="2" dy="8"/>
<feGaussianBlur stdDeviation="8"/>
<feColorMatrix type="matrix" values="0 0 0 0 0.239216 0 0 0 0 0.243137 0 0 0 0 0.258824 0 0 0 0.105 0"/>
<feBlend mode="normal" in2="BackgroundImageFix" result="effect1_dropShadow"/>
<feBlend mode="normal" in="SourceGraphic" in2="effect1_dropShadow" result="shape"/>
</filter>
</defs>
</svg>
