<svg width="222" height="66" viewBox="0 0 222 66" fill="none" xmlns="http://www.w3.org/2000/svg">
<path d="M29.9443 51.8885C44.2729 51.8885 55.8885 40.2729 55.8885 25.9443C55.8885 11.6156 44.2729 0 29.9443 0C15.6156 0 4 11.6156 4 25.9443C4 40.2729 15.6156 51.8885 29.9443 51.8885Z" fill="#FFD15C"/>
<path d="M8.92678 41.1216L0 56.5955L10.4189 56.0424L15.1524 65.3422L23.4103 51.0259C17.4934 49.4953 12.4126 45.9323 8.92678 41.1216Z" fill="#FF6B6C"/>
<path d="M51.0113 41.0449C47.5512 45.8685 42.4704 49.4443 36.5664 51.0007L44.85 65.3428L49.5836 56.0429L60.0024 56.596L51.0113 41.0449Z" fill="#FF6B6C"/>
<path d="M29.9421 44.7495C40.3281 44.7495 48.7475 36.33 48.7475 25.9441C48.7475 15.5581 40.3281 7.13867 29.9421 7.13867C19.5562 7.13867 11.1367 15.5581 11.1367 25.9441C11.1367 36.33 19.5562 44.7495 29.9421 44.7495Z" fill="#F8B64C"/>
<path d="M44.253 25.1202C43.9929 24.7672 37.7958 16.479 29.881 16.479C21.9662 16.479 15.7688 24.7672 15.509 25.1198C15.2626 25.4546 15.2626 25.9087 15.509 26.2435C15.7688 26.5964 21.9662 34.8847 29.881 34.8847C37.7958 34.8847 43.9929 26.5964 44.253 26.2438C44.4997 25.9091 44.4997 25.4546 44.253 25.1202ZM29.881 32.9806C24.0509 32.9806 19.0014 27.4796 17.5066 25.6812C18.9994 23.8812 24.0384 18.383 29.881 18.383C35.7108 18.383 40.7599 23.8831 42.2553 25.6825C40.7625 27.4824 35.7236 32.9806 29.881 32.9806Z" fill="white"/>
<path d="M29.8799 19.9702C26.7046 19.9702 24.1211 22.5327 24.1211 25.6823C24.1211 28.832 26.7046 31.3945 29.8799 31.3945C33.0552 31.3945 35.6387 28.832 35.6387 25.6823C35.6387 22.5327 33.0552 19.9702 29.8799 19.9702ZM29.8799 29.4904C27.7629 29.4904 26.0407 27.7821 26.0407 25.6823C26.0407 23.5825 27.7629 21.8743 29.8799 21.8743C31.9968 21.8743 33.7191 23.5825 33.7191 25.6823C33.7191 27.7821 31.9969 29.4904 29.8799 29.4904Z" fill="white"/>
<path d="M84.9914 26.405V41H82.5974V31.004L78.1454 41H76.4864L72.0134 31.004V41H69.6194V26.405H72.2024L77.3264 37.85L82.4294 26.405H84.9914ZM87.34 35.162C87.34 34 87.578 32.971 88.054 32.075C88.544 31.179 89.202 30.486 90.028 29.996C90.868 29.492 91.792 29.24 92.8 29.24C93.71 29.24 94.501 29.422 95.173 29.786C95.859 30.136 96.405 30.577 96.811 31.109V29.429H99.226V41H96.811V39.278C96.405 39.824 95.852 40.279 95.152 40.643C94.452 41.007 93.654 41.189 92.758 41.189C91.764 41.189 90.854 40.937 90.028 40.433C89.202 39.915 88.544 39.201 88.054 38.291C87.578 37.367 87.34 36.324 87.34 35.162ZM96.811 35.204C96.811 34.406 96.643 33.713 96.307 33.125C95.985 32.537 95.558 32.089 95.026 31.781C94.494 31.473 93.92 31.319 93.304 31.319C92.688 31.319 92.114 31.473 91.582 31.781C91.05 32.075 90.616 32.516 90.28 33.104C89.958 33.678 89.797 34.364 89.797 35.162C89.797 35.96 89.958 36.66 90.28 37.262C90.616 37.864 91.05 38.326 91.582 38.648C92.128 38.956 92.702 39.11 93.304 39.11C93.92 39.11 94.494 38.956 95.026 38.648C95.558 38.34 95.985 37.892 96.307 37.304C96.643 36.702 96.811 36.002 96.811 35.204ZM112.975 34.931C112.975 35.365 112.947 35.757 112.891 36.107H104.05C104.12 37.031 104.463 37.773 105.079 38.333C105.695 38.893 106.451 39.173 107.347 39.173C108.635 39.173 109.545 38.634 110.077 37.556H112.66C112.31 38.62 111.673 39.495 110.749 40.181C109.839 40.853 108.705 41.189 107.347 41.189C106.241 41.189 105.247 40.944 104.365 40.454C103.497 39.95 102.811 39.25 102.307 38.354C101.817 37.444 101.572 36.394 101.572 35.204C101.572 34.014 101.81 32.971 102.286 32.075C102.776 31.165 103.455 30.465 104.323 29.975C105.205 29.485 106.213 29.24 107.347 29.24C108.439 29.24 109.412 29.478 110.266 29.954C111.12 30.43 111.785 31.102 112.261 31.97C112.737 32.824 112.975 33.811 112.975 34.931ZM110.476 34.175C110.462 33.293 110.147 32.586 109.531 32.054C108.915 31.522 108.152 31.256 107.242 31.256C106.416 31.256 105.709 31.522 105.121 32.054C104.533 32.572 104.183 33.279 104.071 34.175H110.476ZM119.531 41.189C118.621 41.189 117.802 41.028 117.074 40.706C116.36 40.37 115.793 39.922 115.373 39.362C114.953 38.788 114.729 38.151 114.701 37.451H117.179C117.221 37.941 117.452 38.354 117.872 38.69C118.306 39.012 118.845 39.173 119.489 39.173C120.161 39.173 120.679 39.047 121.043 38.795C121.421 38.529 121.61 38.193 121.61 37.787C121.61 37.353 121.4 37.031 120.98 36.821C120.574 36.611 119.923 36.38 119.027 36.128C118.159 35.89 117.452 35.659 116.906 35.435C116.36 35.211 115.884 34.868 115.478 34.406C115.086 33.944 114.89 33.335 114.89 32.579C114.89 31.963 115.072 31.403 115.436 30.899C115.8 30.381 116.318 29.975 116.99 29.681C117.676 29.387 118.46 29.24 119.342 29.24C120.658 29.24 121.715 29.576 122.513 30.248C123.325 30.906 123.759 31.809 123.815 32.957H121.421C121.379 32.439 121.169 32.026 120.791 31.718C120.413 31.41 119.902 31.256 119.258 31.256C118.628 31.256 118.145 31.375 117.809 31.613C117.473 31.851 117.305 32.166 117.305 32.558C117.305 32.866 117.417 33.125 117.641 33.335C117.865 33.545 118.138 33.713 118.46 33.839C118.782 33.951 119.258 34.098 119.888 34.28C120.728 34.504 121.414 34.735 121.946 34.973C122.492 35.197 122.961 35.533 123.353 35.981C123.745 36.429 123.948 37.024 123.962 37.766C123.962 38.424 123.78 39.012 123.416 39.53C123.052 40.048 122.534 40.454 121.862 40.748C121.204 41.042 120.427 41.189 119.531 41.189ZM129.342 31.382V37.787C129.342 38.221 129.44 38.536 129.636 38.732C129.846 38.914 130.196 39.005 130.686 39.005H132.156V41H130.266C129.188 41 128.362 40.748 127.788 40.244C127.214 39.74 126.927 38.921 126.927 37.787V31.382H125.562V29.429H126.927V26.552H129.342V29.429H132.156V31.382H129.342ZM136.757 31.109C137.107 30.521 137.569 30.066 138.143 29.744C138.731 29.408 139.424 29.24 140.222 29.24V31.718H139.613C138.675 31.718 137.961 31.956 137.471 32.432C136.995 32.908 136.757 33.734 136.757 34.91V41H134.363V29.429H136.757V31.109ZM147.441 41.189C146.349 41.189 145.362 40.944 144.48 40.454C143.598 39.95 142.905 39.25 142.401 38.354C141.897 37.444 141.645 36.394 141.645 35.204C141.645 34.028 141.904 32.985 142.422 32.075C142.94 31.165 143.647 30.465 144.543 29.975C145.439 29.485 146.44 29.24 147.546 29.24C148.652 29.24 149.653 29.485 150.549 29.975C151.445 30.465 152.152 31.165 152.67 32.075C153.188 32.985 153.447 34.028 153.447 35.204C153.447 36.38 153.181 37.423 152.649 38.333C152.117 39.243 151.389 39.95 150.465 40.454C149.555 40.944 148.547 41.189 147.441 41.189ZM147.441 39.11C148.057 39.11 148.631 38.963 149.163 38.669C149.709 38.375 150.15 37.934 150.486 37.346C150.822 36.758 150.99 36.044 150.99 35.204C150.99 34.364 150.829 33.657 150.507 33.083C150.185 32.495 149.758 32.054 149.226 31.76C148.694 31.466 148.12 31.319 147.504 31.319C146.888 31.319 146.314 31.466 145.782 31.76C145.264 32.054 144.851 32.495 144.543 33.083C144.235 33.657 144.081 34.364 144.081 35.204C144.081 36.45 144.396 37.416 145.026 38.102C145.67 38.774 146.475 39.11 147.441 39.11ZM165.742 38.858L169.018 29.429H171.559L167.149 41H164.293L159.904 29.429H162.466L165.742 38.858ZM174.586 27.896C174.152 27.896 173.788 27.749 173.494 27.455C173.2 27.161 173.053 26.797 173.053 26.363C173.053 25.929 173.2 25.565 173.494 25.271C173.788 24.977 174.152 24.83 174.586 24.83C175.006 24.83 175.363 24.977 175.657 25.271C175.951 25.565 176.098 25.929 176.098 26.363C176.098 26.797 175.951 27.161 175.657 27.455C175.363 27.749 175.006 27.896 174.586 27.896ZM175.762 29.429V41H173.368V29.429H175.762ZM183.106 41.189C182.196 41.189 181.377 41.028 180.649 40.706C179.935 40.37 179.368 39.922 178.948 39.362C178.528 38.788 178.304 38.151 178.276 37.451H180.754C180.796 37.941 181.027 38.354 181.447 38.69C181.881 39.012 182.42 39.173 183.064 39.173C183.736 39.173 184.254 39.047 184.618 38.795C184.996 38.529 185.185 38.193 185.185 37.787C185.185 37.353 184.975 37.031 184.555 36.821C184.149 36.611 183.498 36.38 182.602 36.128C181.734 35.89 181.027 35.659 180.481 35.435C179.935 35.211 179.459 34.868 179.053 34.406C178.661 33.944 178.465 33.335 178.465 32.579C178.465 31.963 178.647 31.403 179.011 30.899C179.375 30.381 179.893 29.975 180.565 29.681C181.251 29.387 182.035 29.24 182.917 29.24C184.233 29.24 185.29 29.576 186.088 30.248C186.9 30.906 187.334 31.809 187.39 32.957H184.996C184.954 32.439 184.744 32.026 184.366 31.718C183.988 31.41 183.477 31.256 182.833 31.256C182.203 31.256 181.72 31.375 181.384 31.613C181.048 31.851 180.88 32.166 180.88 32.558C180.88 32.866 180.992 33.125 181.216 33.335C181.44 33.545 181.713 33.713 182.035 33.839C182.357 33.951 182.833 34.098 183.463 34.28C184.303 34.504 184.989 34.735 185.521 34.973C186.067 35.197 186.536 35.533 186.928 35.981C187.32 36.429 187.523 37.024 187.537 37.766C187.537 38.424 187.355 39.012 186.991 39.53C186.627 40.048 186.109 40.454 185.437 40.748C184.779 41.042 184.002 41.189 183.106 41.189ZM200.602 29.429V41H198.208V39.635C197.83 40.111 197.333 40.489 196.717 40.769C196.115 41.035 195.471 41.168 194.785 41.168C193.875 41.168 193.056 40.979 192.328 40.601C191.614 40.223 191.047 39.663 190.627 38.921C190.221 38.179 190.018 37.283 190.018 36.233V29.429H192.391V35.876C192.391 36.912 192.65 37.71 193.168 38.27C193.686 38.816 194.393 39.089 195.289 39.089C196.185 39.089 196.892 38.816 197.41 38.27C197.942 37.71 198.208 36.912 198.208 35.876V29.429H200.602ZM202.963 35.162C202.963 34 203.201 32.971 203.677 32.075C204.167 31.179 204.825 30.486 205.651 29.996C206.491 29.492 207.415 29.24 208.423 29.24C209.333 29.24 210.124 29.422 210.796 29.786C211.482 30.136 212.028 30.577 212.434 31.109V29.429H214.849V41H212.434V39.278C212.028 39.824 211.475 40.279 210.775 40.643C210.075 41.007 209.277 41.189 208.381 41.189C207.387 41.189 206.477 40.937 205.651 40.433C204.825 39.915 204.167 39.201 203.677 38.291C203.201 37.367 202.963 36.324 202.963 35.162ZM212.434 35.204C212.434 34.406 212.266 33.713 211.93 33.125C211.608 32.537 211.181 32.089 210.649 31.781C210.117 31.473 209.543 31.319 208.927 31.319C208.311 31.319 207.737 31.473 207.205 31.781C206.673 32.075 206.239 32.516 205.903 33.104C205.581 33.678 205.42 34.364 205.42 35.162C205.42 35.96 205.581 36.66 205.903 37.262C206.239 37.864 206.673 38.326 207.205 38.648C207.751 38.956 208.325 39.11 208.927 39.11C209.543 39.11 210.117 38.956 210.649 38.648C211.181 38.34 211.608 37.892 211.93 37.304C212.266 36.702 212.434 36.002 212.434 35.204ZM220.387 25.46V41H217.993V25.46H220.387Z" fill="#212429"/>
</svg>
